<?xml version="1.0" encoding="utf-8" standalone="no"?>
<!DOCTYPE svg PUBLIC "-//W3C//DTD SVG 1.1//EN"
  "http://www.w3.org/Graphics/SVG/1.1/DTD/svg11.dtd">
<svg xmlns:xlink="http://www.w3.org/1999/xlink" width="811.7pt" height="670.880938pt" viewBox="0 0 811.7 670.880938" xmlns="http://www.w3.org/2000/svg" version="1.1">
 <metadata>
  <rdf:RDF xmlns:dc="http://purl.org/dc/elements/1.1/" xmlns:cc="http://creativecommons.org/ns#" xmlns:rdf="http://www.w3.org/1999/02/22-rdf-syntax-ns#">
   <cc:Work>
    <dc:type rdf:resource="http://purl.org/dc/dcmitype/StillImage"/>
    <dc:date>2024-04-18T08:37:34.772796</dc:date>
    <dc:format>image/svg+xml</dc:format>
    <dc:creator>
     <cc:Agent>
      <dc:title>Matplotlib v3.7.1, https://matplotlib.org/</dc:title>
     </cc:Agent>
    </dc:creator>
   </cc:Work>
  </rdf:RDF>
 </metadata>
 <defs>
  <style type="text/css">*{stroke-linejoin: round; stroke-linecap: butt}</style>
 </defs>
 <g id="figure_1">
  <g id="patch_1">
   <path d="M 0 670.880938 
L 811.7 670.880938 
L 811.7 0 
L 0 0 
z
" style="fill: #ffffff"/>
  </g>
  <g id="axes_1">
   <g id="patch_2">
    <path d="M 96.15 356.681563 
L 737.85 356.681563 
L 737.85 11.081563 
L 96.15 11.081563 
z
" style="fill: #ffffff"/>
   </g>
   <g id="matplotlib.axis_1">
    <g id="xtick_1">
     <g id="line2d_1">
      <path d="M 202.533191 356.681563 
L 202.533191 11.081563 
" clip-path="url(#p764065898d)" style="fill: none; stroke-dasharray: 1.85,0.8; stroke-dashoffset: 0; stroke: #b0b0b0; stroke-width: 0.5"/>
     </g>
     <g id="line2d_2">
      <defs>
       <path id="m3edc3aad20" d="M 0 0 
L 0 3.5 
" style="stroke: #000000; stroke-width: 0.8"/>
      </defs>
      <g>
       <use xlink:href="#m3edc3aad20" x="202.533191" y="356.681563" style="stroke: #000000; stroke-width: 0.8"/>
      </g>
     </g>
     <g id="text_1">
      <!-- $\mathdefault{10^{2}}$ -->
      <g transform="translate(183.173191 380.398125) scale(0.22 -0.22)">
       <defs>
        <path id="DejaVuSans-31" d="M 794 531 
L 1825 531 
L 1825 4091 
L 703 3866 
L 703 4441 
L 1819 4666 
L 2450 4666 
L 2450 531 
L 3481 531 
L 3481 0 
L 794 0 
L 794 531 
z
" transform="scale(0.015625)"/>
        <path id="DejaVuSans-30" d="M 2034 4250 
Q 1547 4250 1301 3770 
Q 1056 3291 1056 2328 
Q 1056 1369 1301 889 
Q 1547 409 2034 409 
Q 2525 409 2770 889 
Q 3016 1369 3016 2328 
Q 3016 3291 2770 3770 
Q 2525 4250 2034 4250 
z
M 2034 4750 
Q 2819 4750 3233 4129 
Q 3647 3509 3647 2328 
Q 3647 1150 3233 529 
Q 2819 -91 2034 -91 
Q 1250 -91 836 529 
Q 422 1150 422 2328 
Q 422 3509 836 4129 
Q 1250 4750 2034 4750 
z
" transform="scale(0.015625)"/>
        <path id="DejaVuSans-32" d="M 1228 531 
L 3431 531 
L 3431 0 
L 469 0 
L 469 531 
Q 828 903 1448 1529 
Q 2069 2156 2228 2338 
Q 2531 2678 2651 2914 
Q 2772 3150 2772 3378 
Q 2772 3750 2511 3984 
Q 2250 4219 1831 4219 
Q 1534 4219 1204 4116 
Q 875 4013 500 3803 
L 500 4441 
Q 881 4594 1212 4672 
Q 1544 4750 1819 4750 
Q 2544 4750 2975 4387 
Q 3406 4025 3406 3419 
Q 3406 3131 3298 2873 
Q 3191 2616 2906 2266 
Q 2828 2175 2409 1742 
Q 1991 1309 1228 531 
z
" transform="scale(0.015625)"/>
       </defs>
       <use xlink:href="#DejaVuSans-31" transform="translate(0 0.765625)"/>
       <use xlink:href="#DejaVuSans-30" transform="translate(63.623047 0.765625)"/>
       <use xlink:href="#DejaVuSans-32" transform="translate(128.203125 39.046875) scale(0.7)"/>
      </g>
     </g>
    </g>
    <g id="xtick_2">
     <g id="line2d_3">
      <path d="M 444.769698 356.681563 
L 444.769698 11.081563 
" clip-path="url(#p764065898d)" style="fill: none; stroke-dasharray: 1.85,0.8; stroke-dashoffset: 0; stroke: #b0b0b0; stroke-width: 0.5"/>
     </g>
     <g id="line2d_4">
      <g>
       <use xlink:href="#m3edc3aad20" x="444.769698" y="356.681563" style="stroke: #000000; stroke-width: 0.8"/>
      </g>
     </g>
     <g id="text_2">
      <!-- $\mathdefault{10^{3}}$ -->
      <g transform="translate(425.409698 380.398125) scale(0.22 -0.22)">
       <defs>
        <path id="DejaVuSans-33" d="M 2597 2516 
Q 3050 2419 3304 2112 
Q 3559 1806 3559 1356 
Q 3559 666 3084 287 
Q 2609 -91 1734 -91 
Q 1441 -91 1130 -33 
Q 819 25 488 141 
L 488 750 
Q 750 597 1062 519 
Q 1375 441 1716 441 
Q 2309 441 2620 675 
Q 2931 909 2931 1356 
Q 2931 1769 2642 2001 
Q 2353 2234 1838 2234 
L 1294 2234 
L 1294 2753 
L 1863 2753 
Q 2328 2753 2575 2939 
Q 2822 3125 2822 3475 
Q 2822 3834 2567 4026 
Q 2313 4219 1838 4219 
Q 1578 4219 1281 4162 
Q 984 4106 628 3988 
L 628 4550 
Q 988 4650 1302 4700 
Q 1616 4750 1894 4750 
Q 2613 4750 3031 4423 
Q 3450 4097 3450 3541 
Q 3450 3153 3228 2886 
Q 3006 2619 2597 2516 
z
" transform="scale(0.015625)"/>
       </defs>
       <use xlink:href="#DejaVuSans-31" transform="translate(0 0.765625)"/>
       <use xlink:href="#DejaVuSans-30" transform="translate(63.623047 0.765625)"/>
       <use xlink:href="#DejaVuSans-33" transform="translate(128.203125 39.046875) scale(0.7)"/>
      </g>
     </g>
    </g>
    <g id="xtick_3">
     <g id="line2d_5">
      <path d="M 687.006204 356.681563 
L 687.006204 11.081563 
" clip-path="url(#p764065898d)" style="fill: none; stroke-dasharray: 1.85,0.8; stroke-dashoffset: 0; stroke: #b0b0b0; stroke-width: 0.5"/>
     </g>
     <g id="line2d_6">
      <g>
       <use xlink:href="#m3edc3aad20" x="687.006204" y="356.681563" style="stroke: #000000; stroke-width: 0.8"/>
      </g>
     </g>
     <g id="text_3">
      <!-- $\mathdefault{10^{4}}$ -->
      <g transform="translate(667.646204 380.398125) scale(0.22 -0.22)">
       <defs>
        <path id="DejaVuSans-34" d="M 2419 4116 
L 825 1625 
L 2419 1625 
L 2419 4116 
z
M 2253 4666 
L 3047 4666 
L 3047 1625 
L 3713 1625 
L 3713 1100 
L 3047 1100 
L 3047 0 
L 2419 0 
L 2419 1100 
L 313 1100 
L 313 1709 
L 2253 4666 
z
" transform="scale(0.015625)"/>
       </defs>
       <use xlink:href="#DejaVuSans-31" transform="translate(0 0.684375)"/>
       <use xlink:href="#DejaVuSans-30" transform="translate(63.623047 0.684375)"/>
       <use xlink:href="#DejaVuSans-34" transform="translate(128.203125 38.965625) scale(0.7)"/>
      </g>
     </g>
    </g>
    <g id="xtick_4">
     <g id="line2d_7">
      <path d="M 106.137593 356.681563 
L 106.137593 11.081563 
" clip-path="url(#p764065898d)" style="fill: none; stroke-dasharray: 1.85,0.8; stroke-dashoffset: 0; stroke: #b0b0b0; stroke-width: 0.5"/>
     </g>
     <g id="line2d_8">
      <defs>
       <path id="m04dab7de11" d="M 0 0 
L 0 2 
" style="stroke: #000000; stroke-width: 0.6"/>
      </defs>
      <g>
       <use xlink:href="#m04dab7de11" x="106.137593" y="356.681563" style="stroke: #000000; stroke-width: 0.6"/>
      </g>
     </g>
    </g>
    <g id="xtick_5">
     <g id="line2d_9">
      <path d="M 129.612736 356.681563 
L 129.612736 11.081563 
" clip-path="url(#p764065898d)" style="fill: none; stroke-dasharray: 1.85,0.8; stroke-dashoffset: 0; stroke: #b0b0b0; stroke-width: 0.5"/>
     </g>
     <g id="line2d_10">
      <g>
       <use xlink:href="#m04dab7de11" x="129.612736" y="356.681563" style="stroke: #000000; stroke-width: 0.6"/>
      </g>
     </g>
    </g>
    <g id="xtick_6">
     <g id="line2d_11">
      <path d="M 148.793325 356.681563 
L 148.793325 11.081563 
" clip-path="url(#p764065898d)" style="fill: none; stroke-dasharray: 1.85,0.8; stroke-dashoffset: 0; stroke: #b0b0b0; stroke-width: 0.5"/>
     </g>
     <g id="line2d_12">
      <g>
       <use xlink:href="#m04dab7de11" x="148.793325" y="356.681563" style="stroke: #000000; stroke-width: 0.6"/>
      </g>
     </g>
    </g>
    <g id="xtick_7">
     <g id="line2d_13">
      <path d="M 165.010281 356.681563 
L 165.010281 11.081563 
" clip-path="url(#p764065898d)" style="fill: none; stroke-dasharray: 1.85,0.8; stroke-dashoffset: 0; stroke: #b0b0b0; stroke-width: 0.5"/>
     </g>
     <g id="line2d_14">
      <g>
       <use xlink:href="#m04dab7de11" x="165.010281" y="356.681563" style="stroke: #000000; stroke-width: 0.6"/>
      </g>
     </g>
    </g>
    <g id="xtick_8">
     <g id="line2d_15">
      <path d="M 179.058048 356.681563 
L 179.058048 11.081563 
" clip-path="url(#p764065898d)" style="fill: none; stroke-dasharray: 1.85,0.8; stroke-dashoffset: 0; stroke: #b0b0b0; stroke-width: 0.5"/>
     </g>
     <g id="line2d_16">
      <g>
       <use xlink:href="#m04dab7de11" x="179.058048" y="356.681563" style="stroke: #000000; stroke-width: 0.6"/>
      </g>
     </g>
    </g>
    <g id="xtick_9">
     <g id="line2d_17">
      <path d="M 191.449056 356.681563 
L 191.449056 11.081563 
" clip-path="url(#p764065898d)" style="fill: none; stroke-dasharray: 1.85,0.8; stroke-dashoffset: 0; stroke: #b0b0b0; stroke-width: 0.5"/>
     </g>
     <g id="line2d_18">
      <g>
       <use xlink:href="#m04dab7de11" x="191.449056" y="356.681563" style="stroke: #000000; stroke-width: 0.6"/>
      </g>
     </g>
    </g>
    <g id="xtick_10">
     <g id="line2d_19">
      <path d="M 275.453645 356.681563 
L 275.453645 11.081563 
" clip-path="url(#p764065898d)" style="fill: none; stroke-dasharray: 1.85,0.8; stroke-dashoffset: 0; stroke: #b0b0b0; stroke-width: 0.5"/>
     </g>
     <g id="line2d_20">
      <g>
       <use xlink:href="#m04dab7de11" x="275.453645" y="356.681563" style="stroke: #000000; stroke-width: 0.6"/>
      </g>
     </g>
    </g>
    <g id="xtick_11">
     <g id="line2d_21">
      <path d="M 318.109377 356.681563 
L 318.109377 11.081563 
" clip-path="url(#p764065898d)" style="fill: none; stroke-dasharray: 1.85,0.8; stroke-dashoffset: 0; stroke: #b0b0b0; stroke-width: 0.5"/>
     </g>
     <g id="line2d_22">
      <g>
       <use xlink:href="#m04dab7de11" x="318.109377" y="356.681563" style="stroke: #000000; stroke-width: 0.6"/>
      </g>
     </g>
    </g>
    <g id="xtick_12">
     <g id="line2d_23">
      <path d="M 348.3741 356.681563 
L 348.3741 11.081563 
" clip-path="url(#p764065898d)" style="fill: none; stroke-dasharray: 1.85,0.8; stroke-dashoffset: 0; stroke: #b0b0b0; stroke-width: 0.5"/>
     </g>
     <g id="line2d_24">
      <g>
       <use xlink:href="#m04dab7de11" x="348.3741" y="356.681563" style="stroke: #000000; stroke-width: 0.6"/>
      </g>
     </g>
    </g>
    <g id="xtick_13">
     <g id="line2d_25">
      <path d="M 371.849243 356.681563 
L 371.849243 11.081563 
" clip-path="url(#p764065898d)" style="fill: none; stroke-dasharray: 1.85,0.8; stroke-dashoffset: 0; stroke: #b0b0b0; stroke-width: 0.5"/>
     </g>
     <g id="line2d_26">
      <g>
       <use xlink:href="#m04dab7de11" x="371.849243" y="356.681563" style="stroke: #000000; stroke-width: 0.6"/>
      </g>
     </g>
    </g>
    <g id="xtick_14">
     <g id="line2d_27">
      <path d="M 391.029831 356.681563 
L 391.029831 11.081563 
" clip-path="url(#p764065898d)" style="fill: none; stroke-dasharray: 1.85,0.8; stroke-dashoffset: 0; stroke: #b0b0b0; stroke-width: 0.5"/>
     </g>
     <g id="line2d_28">
      <g>
       <use xlink:href="#m04dab7de11" x="391.029831" y="356.681563" style="stroke: #000000; stroke-width: 0.6"/>
      </g>
     </g>
    </g>
    <g id="xtick_15">
     <g id="line2d_29">
      <path d="M 407.246788 356.681563 
L 407.246788 11.081563 
" clip-path="url(#p764065898d)" style="fill: none; stroke-dasharray: 1.85,0.8; stroke-dashoffset: 0; stroke: #b0b0b0; stroke-width: 0.5"/>
     </g>
     <g id="line2d_30">
      <g>
       <use xlink:href="#m04dab7de11" x="407.246788" y="356.681563" style="stroke: #000000; stroke-width: 0.6"/>
      </g>
     </g>
    </g>
    <g id="xtick_16">
     <g id="line2d_31">
      <path d="M 421.294555 356.681563 
L 421.294555 11.081563 
" clip-path="url(#p764065898d)" style="fill: none; stroke-dasharray: 1.85,0.8; stroke-dashoffset: 0; stroke: #b0b0b0; stroke-width: 0.5"/>
     </g>
     <g id="line2d_32">
      <g>
       <use xlink:href="#m04dab7de11" x="421.294555" y="356.681563" style="stroke: #000000; stroke-width: 0.6"/>
      </g>
     </g>
    </g>
    <g id="xtick_17">
     <g id="line2d_33">
      <path d="M 433.685563 356.681563 
L 433.685563 11.081563 
" clip-path="url(#p764065898d)" style="fill: none; stroke-dasharray: 1.85,0.8; stroke-dashoffset: 0; stroke: #b0b0b0; stroke-width: 0.5"/>
     </g>
     <g id="line2d_34">
      <g>
       <use xlink:href="#m04dab7de11" x="433.685563" y="356.681563" style="stroke: #000000; stroke-width: 0.6"/>
      </g>
     </g>
    </g>
    <g id="xtick_18">
     <g id="line2d_35">
      <path d="M 517.690152 356.681563 
L 517.690152 11.081563 
" clip-path="url(#p764065898d)" style="fill: none; stroke-dasharray: 1.85,0.8; stroke-dashoffset: 0; stroke: #b0b0b0; stroke-width: 0.5"/>
     </g>
     <g id="line2d_36">
      <g>
       <use xlink:href="#m04dab7de11" x="517.690152" y="356.681563" style="stroke: #000000; stroke-width: 0.6"/>
      </g>
     </g>
    </g>
    <g id="xtick_19">
     <g id="line2d_37">
      <path d="M 560.345884 356.681563 
L 560.345884 11.081563 
" clip-path="url(#p764065898d)" style="fill: none; stroke-dasharray: 1.85,0.8; stroke-dashoffset: 0; stroke: #b0b0b0; stroke-width: 0.5"/>
     </g>
     <g id="line2d_38">
      <g>
       <use xlink:href="#m04dab7de11" x="560.345884" y="356.681563" style="stroke: #000000; stroke-width: 0.6"/>
      </g>
     </g>
    </g>
    <g id="xtick_20">
     <g id="line2d_39">
      <path d="M 590.610607 356.681563 
L 590.610607 11.081563 
" clip-path="url(#p764065898d)" style="fill: none; stroke-dasharray: 1.85,0.8; stroke-dashoffset: 0; stroke: #b0b0b0; stroke-width: 0.5"/>
     </g>
     <g id="line2d_40">
      <g>
       <use xlink:href="#m04dab7de11" x="590.610607" y="356.681563" style="stroke: #000000; stroke-width: 0.6"/>
      </g>
     </g>
    </g>
    <g id="xtick_21">
     <g id="line2d_41">
      <path d="M 614.08575 356.681563 
L 614.08575 11.081563 
" clip-path="url(#p764065898d)" style="fill: none; stroke-dasharray: 1.85,0.8; stroke-dashoffset: 0; stroke: #b0b0b0; stroke-width: 0.5"/>
     </g>
     <g id="line2d_42">
      <g>
       <use xlink:href="#m04dab7de11" x="614.08575" y="356.681563" style="stroke: #000000; stroke-width: 0.6"/>
      </g>
     </g>
    </g>
    <g id="xtick_22">
     <g id="line2d_43">
      <path d="M 633.266338 356.681563 
L 633.266338 11.081563 
" clip-path="url(#p764065898d)" style="fill: none; stroke-dasharray: 1.85,0.8; stroke-dashoffset: 0; stroke: #b0b0b0; stroke-width: 0.5"/>
     </g>
     <g id="line2d_44">
      <g>
       <use xlink:href="#m04dab7de11" x="633.266338" y="356.681563" style="stroke: #000000; stroke-width: 0.6"/>
      </g>
     </g>
    </g>
    <g id="xtick_23">
     <g id="line2d_45">
      <path d="M 649.483295 356.681563 
L 649.483295 11.081563 
" clip-path="url(#p764065898d)" style="fill: none; stroke-dasharray: 1.85,0.8; stroke-dashoffset: 0; stroke: #b0b0b0; stroke-width: 0.5"/>
     </g>
     <g id="line2d_46">
      <g>
       <use xlink:href="#m04dab7de11" x="649.483295" y="356.681563" style="stroke: #000000; stroke-width: 0.6"/>
      </g>
     </g>
    </g>
    <g id="xtick_24">
     <g id="line2d_47">
      <path d="M 663.531061 356.681563 
L 663.531061 11.081563 
" clip-path="url(#p764065898d)" style="fill: none; stroke-dasharray: 1.85,0.8; stroke-dashoffset: 0; stroke: #b0b0b0; stroke-width: 0.5"/>
     </g>
     <g id="line2d_48">
      <g>
       <use xlink:href="#m04dab7de11" x="663.531061" y="356.681563" style="stroke: #000000; stroke-width: 0.6"/>
      </g>
     </g>
    </g>
    <g id="xtick_25">
     <g id="line2d_49">
      <path d="M 675.92207 356.681563 
L 675.92207 11.081563 
" clip-path="url(#p764065898d)" style="fill: none; stroke-dasharray: 1.85,0.8; stroke-dashoffset: 0; stroke: #b0b0b0; stroke-width: 0.5"/>
     </g>
     <g id="line2d_50">
      <g>
       <use xlink:href="#m04dab7de11" x="675.92207" y="356.681563" style="stroke: #000000; stroke-width: 0.6"/>
      </g>
     </g>
    </g>
    <g id="text_4">
     <!-- Degrees of freedom -->
     <g transform="translate(292.601563 407.969531) scale(0.25 -0.25)">
      <defs>
       <path id="DejaVuSans-44" d="M 1259 4147 
L 1259 519 
L 2022 519 
Q 2988 519 3436 956 
Q 3884 1394 3884 2338 
Q 3884 3275 3436 3711 
Q 2988 4147 2022 4147 
L 1259 4147 
z
M 628 4666 
L 1925 4666 
Q 3281 4666 3915 4102 
Q 4550 3538 4550 2338 
Q 4550 1131 3912 565 
Q 3275 0 1925 0 
L 628 0 
L 628 4666 
z
" transform="scale(0.015625)"/>
       <path id="DejaVuSans-65" d="M 3597 1894 
L 3597 1613 
L 953 1613 
Q 991 1019 1311 708 
Q 1631 397 2203 397 
Q 2534 397 2845 478 
Q 3156 559 3463 722 
L 3463 178 
Q 3153 47 2828 -22 
Q 2503 -91 2169 -91 
Q 1331 -91 842 396 
Q 353 884 353 1716 
Q 353 2575 817 3079 
Q 1281 3584 2069 3584 
Q 2775 3584 3186 3129 
Q 3597 2675 3597 1894 
z
M 3022 2063 
Q 3016 2534 2758 2815 
Q 2500 3097 2075 3097 
Q 1594 3097 1305 2825 
Q 1016 2553 972 2059 
L 3022 2063 
z
" transform="scale(0.015625)"/>
       <path id="DejaVuSans-67" d="M 2906 1791 
Q 2906 2416 2648 2759 
Q 2391 3103 1925 3103 
Q 1463 3103 1205 2759 
Q 947 2416 947 1791 
Q 947 1169 1205 825 
Q 1463 481 1925 481 
Q 2391 481 2648 825 
Q 2906 1169 2906 1791 
z
M 3481 434 
Q 3481 -459 3084 -895 
Q 2688 -1331 1869 -1331 
Q 1566 -1331 1297 -1286 
Q 1028 -1241 775 -1147 
L 775 -588 
Q 1028 -725 1275 -790 
Q 1522 -856 1778 -856 
Q 2344 -856 2625 -561 
Q 2906 -266 2906 331 
L 2906 616 
Q 2728 306 2450 153 
Q 2172 0 1784 0 
Q 1141 0 747 490 
Q 353 981 353 1791 
Q 353 2603 747 3093 
Q 1141 3584 1784 3584 
Q 2172 3584 2450 3431 
Q 2728 3278 2906 2969 
L 2906 3500 
L 3481 3500 
L 3481 434 
z
" transform="scale(0.015625)"/>
       <path id="DejaVuSans-72" d="M 2631 2963 
Q 2534 3019 2420 3045 
Q 2306 3072 2169 3072 
Q 1681 3072 1420 2755 
Q 1159 2438 1159 1844 
L 1159 0 
L 581 0 
L 581 3500 
L 1159 3500 
L 1159 2956 
Q 1341 3275 1631 3429 
Q 1922 3584 2338 3584 
Q 2397 3584 2469 3576 
Q 2541 3569 2628 3553 
L 2631 2963 
z
" transform="scale(0.015625)"/>
       <path id="DejaVuSans-73" d="M 2834 3397 
L 2834 2853 
Q 2591 2978 2328 3040 
Q 2066 3103 1784 3103 
Q 1356 3103 1142 2972 
Q 928 2841 928 2578 
Q 928 2378 1081 2264 
Q 1234 2150 1697 2047 
L 1894 2003 
Q 2506 1872 2764 1633 
Q 3022 1394 3022 966 
Q 3022 478 2636 193 
Q 2250 -91 1575 -91 
Q 1294 -91 989 -36 
Q 684 19 347 128 
L 347 722 
Q 666 556 975 473 
Q 1284 391 1588 391 
Q 1994 391 2212 530 
Q 2431 669 2431 922 
Q 2431 1156 2273 1281 
Q 2116 1406 1581 1522 
L 1381 1569 
Q 847 1681 609 1914 
Q 372 2147 372 2553 
Q 372 3047 722 3315 
Q 1072 3584 1716 3584 
Q 2034 3584 2315 3537 
Q 2597 3491 2834 3397 
z
" transform="scale(0.015625)"/>
       <path id="DejaVuSans-20" transform="scale(0.015625)"/>
       <path id="DejaVuSans-6f" d="M 1959 3097 
Q 1497 3097 1228 2736 
Q 959 2375 959 1747 
Q 959 1119 1226 758 
Q 1494 397 1959 397 
Q 2419 397 2687 759 
Q 2956 1122 2956 1747 
Q 2956 2369 2687 2733 
Q 2419 3097 1959 3097 
z
M 1959 3584 
Q 2709 3584 3137 3096 
Q 3566 2609 3566 1747 
Q 3566 888 3137 398 
Q 2709 -91 1959 -91 
Q 1206 -91 779 398 
Q 353 888 353 1747 
Q 353 2609 779 3096 
Q 1206 3584 1959 3584 
z
" transform="scale(0.015625)"/>
       <path id="DejaVuSans-66" d="M 2375 4863 
L 2375 4384 
L 1825 4384 
Q 1516 4384 1395 4259 
Q 1275 4134 1275 3809 
L 1275 3500 
L 2222 3500 
L 2222 3053 
L 1275 3053 
L 1275 0 
L 697 0 
L 697 3053 
L 147 3053 
L 147 3500 
L 697 3500 
L 697 3744 
Q 697 4328 969 4595 
Q 1241 4863 1831 4863 
L 2375 4863 
z
" transform="scale(0.015625)"/>
       <path id="DejaVuSans-64" d="M 2906 2969 
L 2906 4863 
L 3481 4863 
L 3481 0 
L 2906 0 
L 2906 525 
Q 2725 213 2448 61 
Q 2172 -91 1784 -91 
Q 1150 -91 751 415 
Q 353 922 353 1747 
Q 353 2572 751 3078 
Q 1150 3584 1784 3584 
Q 2172 3584 2448 3432 
Q 2725 3281 2906 2969 
z
M 947 1747 
Q 947 1113 1208 752 
Q 1469 391 1925 391 
Q 2381 391 2643 752 
Q 2906 1113 2906 1747 
Q 2906 2381 2643 2742 
Q 2381 3103 1925 3103 
Q 1469 3103 1208 2742 
Q 947 2381 947 1747 
z
" transform="scale(0.015625)"/>
       <path id="DejaVuSans-6d" d="M 3328 2828 
Q 3544 3216 3844 3400 
Q 4144 3584 4550 3584 
Q 5097 3584 5394 3201 
Q 5691 2819 5691 2113 
L 5691 0 
L 5113 0 
L 5113 2094 
Q 5113 2597 4934 2840 
Q 4756 3084 4391 3084 
Q 3944 3084 3684 2787 
Q 3425 2491 3425 1978 
L 3425 0 
L 2847 0 
L 2847 2094 
Q 2847 2600 2669 2842 
Q 2491 3084 2119 3084 
Q 1678 3084 1418 2786 
Q 1159 2488 1159 1978 
L 1159 0 
L 581 0 
L 581 3500 
L 1159 3500 
L 1159 2956 
Q 1356 3278 1631 3431 
Q 1906 3584 2284 3584 
Q 2666 3584 2933 3390 
Q 3200 3197 3328 2828 
z
" transform="scale(0.015625)"/>
      </defs>
      <use xlink:href="#DejaVuSans-44"/>
      <use xlink:href="#DejaVuSans-65" x="77.001953"/>
      <use xlink:href="#DejaVuSans-67" x="138.525391"/>
      <use xlink:href="#DejaVuSans-72" x="202.001953"/>
      <use xlink:href="#DejaVuSans-65" x="240.865234"/>
      <use xlink:href="#DejaVuSans-65" x="302.388672"/>
      <use xlink:href="#DejaVuSans-73" x="363.912109"/>
      <use xlink:href="#DejaVuSans-20" x="416.011719"/>
      <use xlink:href="#DejaVuSans-6f" x="447.798828"/>
      <use xlink:href="#DejaVuSans-66" x="508.980469"/>
      <use xlink:href="#DejaVuSans-20" x="544.185547"/>
      <use xlink:href="#DejaVuSans-66" x="575.972656"/>
      <use xlink:href="#DejaVuSans-72" x="611.177734"/>
      <use xlink:href="#DejaVuSans-65" x="650.041016"/>
      <use xlink:href="#DejaVuSans-65" x="711.564453"/>
      <use xlink:href="#DejaVuSans-64" x="773.087891"/>
      <use xlink:href="#DejaVuSans-6f" x="836.564453"/>
      <use xlink:href="#DejaVuSans-6d" x="897.746094"/>
     </g>
    </g>
   </g>
   <g id="matplotlib.axis_2">
    <g id="ytick_1">
     <g id="line2d_51">
      <path d="M 96.15 284.873406 
L 737.85 284.873406 
" clip-path="url(#p764065898d)" style="fill: none; stroke-dasharray: 1.85,0.8; stroke-dashoffset: 0; stroke: #b0b0b0; stroke-width: 0.5"/>
     </g>
     <g id="line2d_52">
      <defs>
       <path id="mbe41f50f36" d="M 0 0 
L -3.5 0 
" style="stroke: #000000; stroke-width: 0.8"/>
      </defs>
      <g>
       <use xlink:href="#mbe41f50f36" x="96.15" y="284.873406" style="stroke: #000000; stroke-width: 0.8"/>
      </g>
     </g>
     <g id="text_5">
      <!-- $\mathdefault{10^{-5}}$ -->
      <g transform="translate(37.45 293.231687) scale(0.22 -0.22)">
       <defs>
        <path id="DejaVuSans-2212" d="M 678 2272 
L 4684 2272 
L 4684 1741 
L 678 1741 
L 678 2272 
z
" transform="scale(0.015625)"/>
        <path id="DejaVuSans-35" d="M 691 4666 
L 3169 4666 
L 3169 4134 
L 1269 4134 
L 1269 2991 
Q 1406 3038 1543 3061 
Q 1681 3084 1819 3084 
Q 2600 3084 3056 2656 
Q 3513 2228 3513 1497 
Q 3513 744 3044 326 
Q 2575 -91 1722 -91 
Q 1428 -91 1123 -41 
Q 819 9 494 109 
L 494 744 
Q 775 591 1075 516 
Q 1375 441 1709 441 
Q 2250 441 2565 725 
Q 2881 1009 2881 1497 
Q 2881 1984 2565 2268 
Q 2250 2553 1709 2553 
Q 1456 2553 1204 2497 
Q 953 2441 691 2322 
L 691 4666 
z
" transform="scale(0.015625)"/>
       </defs>
       <use xlink:href="#DejaVuSans-31" transform="translate(0 0.684375)"/>
       <use xlink:href="#DejaVuSans-30" transform="translate(63.623047 0.684375)"/>
       <use xlink:href="#DejaVuSans-2212" transform="translate(128.203125 38.965625) scale(0.7)"/>
       <use xlink:href="#DejaVuSans-35" transform="translate(186.855469 38.965625) scale(0.7)"/>
      </g>
     </g>
    </g>
    <g id="ytick_2">
     <g id="line2d_53">
      <path d="M 96.15 195.101698 
L 737.85 195.101698 
" clip-path="url(#p764065898d)" style="fill: none; stroke-dasharray: 1.85,0.8; stroke-dashoffset: 0; stroke: #b0b0b0; stroke-width: 0.5"/>
     </g>
     <g id="line2d_54">
      <g>
       <use xlink:href="#mbe41f50f36" x="96.15" y="195.101698" style="stroke: #000000; stroke-width: 0.8"/>
      </g>
     </g>
     <g id="text_6">
      <!-- $\mathdefault{10^{-3}}$ -->
      <g transform="translate(37.45 203.459979) scale(0.22 -0.22)">
       <use xlink:href="#DejaVuSans-31" transform="translate(0 0.765625)"/>
       <use xlink:href="#DejaVuSans-30" transform="translate(63.623047 0.765625)"/>
       <use xlink:href="#DejaVuSans-2212" transform="translate(128.203125 39.046875) scale(0.7)"/>
       <use xlink:href="#DejaVuSans-33" transform="translate(186.855469 39.046875) scale(0.7)"/>
      </g>
     </g>
    </g>
    <g id="ytick_3">
     <g id="line2d_55">
      <path d="M 96.15 105.329989 
L 737.85 105.329989 
" clip-path="url(#p764065898d)" style="fill: none; stroke-dasharray: 1.85,0.8; stroke-dashoffset: 0; stroke: #b0b0b0; stroke-width: 0.5"/>
     </g>
     <g id="line2d_56">
      <g>
       <use xlink:href="#mbe41f50f36" x="96.15" y="105.329989" style="stroke: #000000; stroke-width: 0.8"/>
      </g>
     </g>
     <g id="text_7">
      <!-- $\mathdefault{10^{-1}}$ -->
      <g transform="translate(37.45 113.688271) scale(0.22 -0.22)">
       <use xlink:href="#DejaVuSans-31" transform="translate(0 0.684375)"/>
       <use xlink:href="#DejaVuSans-30" transform="translate(63.623047 0.684375)"/>
       <use xlink:href="#DejaVuSans-2212" transform="translate(128.203125 38.965625) scale(0.7)"/>
       <use xlink:href="#DejaVuSans-31" transform="translate(186.855469 38.965625) scale(0.7)"/>
      </g>
     </g>
    </g>
    <g id="ytick_4">
     <g id="line2d_57">
      <path d="M 96.15 15.558281 
L 737.85 15.558281 
" clip-path="url(#p764065898d)" style="fill: none; stroke-dasharray: 1.85,0.8; stroke-dashoffset: 0; stroke: #b0b0b0; stroke-width: 0.5"/>
     </g>
     <g id="line2d_58">
      <g>
       <use xlink:href="#mbe41f50f36" x="96.15" y="15.558281" style="stroke: #000000; stroke-width: 0.8"/>
      </g>
     </g>
     <g id="text_8">
      <!-- $\mathdefault{10^{1}}$ -->
      <g transform="translate(50.43 23.916563) scale(0.22 -0.22)">
       <use xlink:href="#DejaVuSans-31" transform="translate(0 0.684375)"/>
       <use xlink:href="#DejaVuSans-30" transform="translate(63.623047 0.684375)"/>
       <use xlink:href="#DejaVuSans-31" transform="translate(128.203125 38.965625) scale(0.7)"/>
      </g>
     </g>
    </g>
    <g id="text_9">
     <!-- Max abs error (mol/m$^3$) -->
     <g transform="translate(28.250781 330.006563) rotate(-90) scale(0.25 -0.25)">
      <defs>
       <path id="DejaVuSans-4d" d="M 628 4666 
L 1569 4666 
L 2759 1491 
L 3956 4666 
L 4897 4666 
L 4897 0 
L 4281 0 
L 4281 4097 
L 3078 897 
L 2444 897 
L 1241 4097 
L 1241 0 
L 628 0 
L 628 4666 
z
" transform="scale(0.015625)"/>
       <path id="DejaVuSans-61" d="M 2194 1759 
Q 1497 1759 1228 1600 
Q 959 1441 959 1056 
Q 959 750 1161 570 
Q 1363 391 1709 391 
Q 2188 391 2477 730 
Q 2766 1069 2766 1631 
L 2766 1759 
L 2194 1759 
z
M 3341 1997 
L 3341 0 
L 2766 0 
L 2766 531 
Q 2569 213 2275 61 
Q 1981 -91 1556 -91 
Q 1019 -91 701 211 
Q 384 513 384 1019 
Q 384 1609 779 1909 
Q 1175 2209 1959 2209 
L 2766 2209 
L 2766 2266 
Q 2766 2663 2505 2880 
Q 2244 3097 1772 3097 
Q 1472 3097 1187 3025 
Q 903 2953 641 2809 
L 641 3341 
Q 956 3463 1253 3523 
Q 1550 3584 1831 3584 
Q 2591 3584 2966 3190 
Q 3341 2797 3341 1997 
z
" transform="scale(0.015625)"/>
       <path id="DejaVuSans-78" d="M 3513 3500 
L 2247 1797 
L 3578 0 
L 2900 0 
L 1881 1375 
L 863 0 
L 184 0 
L 1544 1831 
L 300 3500 
L 978 3500 
L 1906 2253 
L 2834 3500 
L 3513 3500 
z
" transform="scale(0.015625)"/>
       <path id="DejaVuSans-62" d="M 3116 1747 
Q 3116 2381 2855 2742 
Q 2594 3103 2138 3103 
Q 1681 3103 1420 2742 
Q 1159 2381 1159 1747 
Q 1159 1113 1420 752 
Q 1681 391 2138 391 
Q 2594 391 2855 752 
Q 3116 1113 3116 1747 
z
M 1159 2969 
Q 1341 3281 1617 3432 
Q 1894 3584 2278 3584 
Q 2916 3584 3314 3078 
Q 3713 2572 3713 1747 
Q 3713 922 3314 415 
Q 2916 -91 2278 -91 
Q 1894 -91 1617 61 
Q 1341 213 1159 525 
L 1159 0 
L 581 0 
L 581 4863 
L 1159 4863 
L 1159 2969 
z
" transform="scale(0.015625)"/>
       <path id="DejaVuSans-28" d="M 1984 4856 
Q 1566 4138 1362 3434 
Q 1159 2731 1159 2009 
Q 1159 1288 1364 580 
Q 1569 -128 1984 -844 
L 1484 -844 
Q 1016 -109 783 600 
Q 550 1309 550 2009 
Q 550 2706 781 3412 
Q 1013 4119 1484 4856 
L 1984 4856 
z
" transform="scale(0.015625)"/>
       <path id="DejaVuSans-6c" d="M 603 4863 
L 1178 4863 
L 1178 0 
L 603 0 
L 603 4863 
z
" transform="scale(0.015625)"/>
       <path id="DejaVuSans-2f" d="M 1625 4666 
L 2156 4666 
L 531 -594 
L 0 -594 
L 1625 4666 
z
" transform="scale(0.015625)"/>
       <path id="DejaVuSans-29" d="M 513 4856 
L 1013 4856 
Q 1481 4119 1714 3412 
Q 1947 2706 1947 2009 
Q 1947 1309 1714 600 
Q 1481 -109 1013 -844 
L 513 -844 
Q 928 -128 1133 580 
Q 1338 1288 1338 2009 
Q 1338 2731 1133 3434 
Q 928 4138 513 4856 
z
" transform="scale(0.015625)"/>
      </defs>
      <use xlink:href="#DejaVuSans-4d" transform="translate(0 0.765625)"/>
      <use xlink:href="#DejaVuSans-61" transform="translate(86.279297 0.765625)"/>
      <use xlink:href="#DejaVuSans-78" transform="translate(147.558594 0.765625)"/>
      <use xlink:href="#DejaVuSans-20" transform="translate(206.738281 0.765625)"/>
      <use xlink:href="#DejaVuSans-61" transform="translate(238.525391 0.765625)"/>
      <use xlink:href="#DejaVuSans-62" transform="translate(299.804688 0.765625)"/>
      <use xlink:href="#DejaVuSans-73" transform="translate(363.28125 0.765625)"/>
      <use xlink:href="#DejaVuSans-20" transform="translate(415.380859 0.765625)"/>
      <use xlink:href="#DejaVuSans-65" transform="translate(447.167969 0.765625)"/>
      <use xlink:href="#DejaVuSans-72" transform="translate(508.691406 0.765625)"/>
      <use xlink:href="#DejaVuSans-72" transform="translate(549.804688 0.765625)"/>
      <use xlink:href="#DejaVuSans-6f" transform="translate(590.917969 0.765625)"/>
      <use xlink:href="#DejaVuSans-72" transform="translate(652.099609 0.765625)"/>
      <use xlink:href="#DejaVuSans-20" transform="translate(693.212891 0.765625)"/>
      <use xlink:href="#DejaVuSans-28" transform="translate(725 0.765625)"/>
      <use xlink:href="#DejaVuSans-6d" transform="translate(764.013672 0.765625)"/>
      <use xlink:href="#DejaVuSans-6f" transform="translate(861.425781 0.765625)"/>
      <use xlink:href="#DejaVuSans-6c" transform="translate(922.607422 0.765625)"/>
      <use xlink:href="#DejaVuSans-2f" transform="translate(950.390625 0.765625)"/>
      <use xlink:href="#DejaVuSans-6d" transform="translate(984.082031 0.765625)"/>
      <use xlink:href="#DejaVuSans-33" transform="translate(1082.451172 39.046875) scale(0.7)"/>
      <use xlink:href="#DejaVuSans-29" transform="translate(1129.72168 0.765625)"/>
     </g>
    </g>
   </g>
   <g id="line2d_59">
    <path d="M 708.681818 234.63223 
L 635.761364 198.593945 
L 562.840909 165.066916 
L 489.920455 129.24357 
L 417 87.551652 
L 344.079545 54.753256 
L 271.159091 38.023761 
L 198.238636 30.608449 
L 125.318182 26.790654 
" clip-path="url(#p764065898d)" style="fill: none; stroke-dasharray: 2,3.3; stroke-dashoffset: 0; stroke: #ff1493; stroke-width: 2"/>
    <defs>
     <path id="m820675d292" d="M 0 -6 
L -6 6 
L 6 6 
z
" style="stroke: #ff1493; stroke-linejoin: miter"/>
    </defs>
    <g clip-path="url(#p764065898d)">
     <use xlink:href="#m820675d292" x="708.681818" y="234.63223" style="fill: #ff1493; stroke: #ff1493; stroke-linejoin: miter"/>
     <use xlink:href="#m820675d292" x="635.761364" y="198.593945" style="fill: #ff1493; stroke: #ff1493; stroke-linejoin: miter"/>
     <use xlink:href="#m820675d292" x="562.840909" y="165.066916" style="fill: #ff1493; stroke: #ff1493; stroke-linejoin: miter"/>
     <use xlink:href="#m820675d292" x="489.920455" y="129.24357" style="fill: #ff1493; stroke: #ff1493; stroke-linejoin: miter"/>
     <use xlink:href="#m820675d292" x="417" y="87.551652" style="fill: #ff1493; stroke: #ff1493; stroke-linejoin: miter"/>
     <use xlink:href="#m820675d292" x="344.079545" y="54.753256" style="fill: #ff1493; stroke: #ff1493; stroke-linejoin: miter"/>
     <use xlink:href="#m820675d292" x="271.159091" y="38.023761" style="fill: #ff1493; stroke: #ff1493; stroke-linejoin: miter"/>
     <use xlink:href="#m820675d292" x="198.238636" y="30.608449" style="fill: #ff1493; stroke: #ff1493; stroke-linejoin: miter"/>
     <use xlink:href="#m820675d292" x="125.318182" y="26.790654" style="fill: #ff1493; stroke: #ff1493; stroke-linejoin: miter"/>
    </g>
   </g>
   <g id="line2d_60">
    <path d="M 148.793325 35.104581 
L 221.713779 47.781543 
L 294.634234 76.024003 
L 367.554688 134.467343 
L 440.475143 216.254379 
L 513.395598 290.076235 
" clip-path="url(#p764065898d)" style="fill: none; stroke-dasharray: 7.4,3.2; stroke-dashoffset: 0; stroke: #006428; stroke-width: 2"/>
    <defs>
     <path id="mbdc25956b5" d="M 0 3 
C 0.795609 3 1.55874 2.683901 2.12132 2.12132 
C 2.683901 1.55874 3 0.795609 3 0 
C 3 -0.795609 2.683901 -1.55874 2.12132 -2.12132 
C 1.55874 -2.683901 0.795609 -3 0 -3 
C -0.795609 -3 -1.55874 -2.683901 -2.12132 -2.12132 
C -2.683901 -1.55874 -3 -0.795609 -3 0 
C -3 0.795609 -2.683901 1.55874 -2.12132 2.12132 
C -1.55874 2.683901 -0.795609 3 0 3 
z
" style="stroke: #006428"/>
    </defs>
    <g clip-path="url(#p764065898d)">
     <use xlink:href="#mbdc25956b5" x="148.793325" y="35.104581" style="fill: #006428; stroke: #006428"/>
     <use xlink:href="#mbdc25956b5" x="221.713779" y="47.781543" style="fill: #006428; stroke: #006428"/>
     <use xlink:href="#mbdc25956b5" x="294.634234" y="76.024003" style="fill: #006428; stroke: #006428"/>
     <use xlink:href="#mbdc25956b5" x="367.554688" y="134.467343" style="fill: #006428; stroke: #006428"/>
     <use xlink:href="#mbdc25956b5" x="440.475143" y="216.254379" style="fill: #006428; stroke: #006428"/>
     <use xlink:href="#mbdc25956b5" x="513.395598" y="290.076235" style="fill: #006428; stroke: #006428"/>
    </g>
   </g>
   <g id="line2d_61">
    <path d="M 148.793325 32.350317 
L 221.713779 44.719033 
L 294.634234 71.977796 
L 367.554688 122.238054 
L 440.475143 195.026228 
L 513.395598 274.244409 
" clip-path="url(#p764065898d)" style="fill: none; stroke-dasharray: 7.4,3.2; stroke-dashoffset: 0; stroke: #3f007d; stroke-width: 2"/>
    <defs>
     <path id="m1adf0f8b21" d="M 0 3 
C 0.795609 3 1.55874 2.683901 2.12132 2.12132 
C 2.683901 1.55874 3 0.795609 3 0 
C 3 -0.795609 2.683901 -1.55874 2.12132 -2.12132 
C 1.55874 -2.683901 0.795609 -3 0 -3 
C -0.795609 -3 -1.55874 -2.683901 -2.12132 -2.12132 
C -2.683901 -1.55874 -3 -0.795609 -3 0 
C -3 0.795609 -2.683901 1.55874 -2.12132 2.12132 
C -1.55874 2.683901 -0.795609 3 0 3 
z
" style="stroke: #3f007d"/>
    </defs>
    <g clip-path="url(#p764065898d)">
     <use xlink:href="#m1adf0f8b21" x="148.793325" y="32.350317" style="fill: #3f007d; stroke: #3f007d"/>
     <use xlink:href="#m1adf0f8b21" x="221.713779" y="44.719033" style="fill: #3f007d; stroke: #3f007d"/>
     <use xlink:href="#m1adf0f8b21" x="294.634234" y="71.977796" style="fill: #3f007d; stroke: #3f007d"/>
     <use xlink:href="#m1adf0f8b21" x="367.554688" y="122.238054" style="fill: #3f007d; stroke: #3f007d"/>
     <use xlink:href="#m1adf0f8b21" x="440.475143" y="195.026228" style="fill: #3f007d; stroke: #3f007d"/>
     <use xlink:href="#m1adf0f8b21" x="513.395598" y="274.244409" style="fill: #3f007d; stroke: #3f007d"/>
    </g>
   </g>
   <g id="line2d_62">
    <path d="M 167.973913 39.379128 
L 240.894368 55.621615 
L 313.814822 94.7709 
L 386.735277 168.573163 
L 459.655731 261.76254 
L 532.576186 324.466401 
" clip-path="url(#p764065898d)" style="fill: none; stroke-dasharray: 7.4,3.2; stroke-dashoffset: 0; stroke: #19833e; stroke-width: 2"/>
    <defs>
     <path id="m3b1de86319" d="M 0 3 
C 0.795609 3 1.55874 2.683901 2.12132 2.12132 
C 2.683901 1.55874 3 0.795609 3 0 
C 3 -0.795609 2.683901 -1.55874 2.12132 -2.12132 
C 1.55874 -2.683901 0.795609 -3 0 -3 
C -0.795609 -3 -1.55874 -2.683901 -2.12132 -2.12132 
C -2.683901 -1.55874 -3 -0.795609 -3 0 
C -3 0.795609 -2.683901 1.55874 -2.12132 2.12132 
C -1.55874 2.683901 -0.795609 3 0 3 
z
" style="stroke: #19833e"/>
    </defs>
    <g clip-path="url(#p764065898d)">
     <use xlink:href="#m3b1de86319" x="167.973913" y="39.379128" style="fill: #19833e; stroke: #19833e"/>
     <use xlink:href="#m3b1de86319" x="240.894368" y="55.621615" style="fill: #19833e; stroke: #19833e"/>
     <use xlink:href="#m3b1de86319" x="313.814822" y="94.7709" style="fill: #19833e; stroke: #19833e"/>
     <use xlink:href="#m3b1de86319" x="386.735277" y="168.573163" style="fill: #19833e; stroke: #19833e"/>
     <use xlink:href="#m3b1de86319" x="459.655731" y="261.76254" style="fill: #19833e; stroke: #19833e"/>
     <use xlink:href="#m3b1de86319" x="532.576186" y="324.466401" style="fill: #19833e; stroke: #19833e"/>
    </g>
   </g>
   <g id="line2d_63">
    <path d="M 167.973913 36.72457 
L 240.894368 54.283499 
L 313.814822 89.276336 
L 386.735277 159.191218 
L 459.655731 243.946829 
L 532.576186 331.274125 
" clip-path="url(#p764065898d)" style="fill: none; stroke-dasharray: 7.4,3.2; stroke-dashoffset: 0; stroke: #53258e; stroke-width: 2"/>
    <defs>
     <path id="m48c73e2b8c" d="M 0 3 
C 0.795609 3 1.55874 2.683901 2.12132 2.12132 
C 2.683901 1.55874 3 0.795609 3 0 
C 3 -0.795609 2.683901 -1.55874 2.12132 -2.12132 
C 1.55874 -2.683901 0.795609 -3 0 -3 
C -0.795609 -3 -1.55874 -2.683901 -2.12132 -2.12132 
C -2.683901 -1.55874 -3 -0.795609 -3 0 
C -3 0.795609 -2.683901 1.55874 -2.12132 2.12132 
C -1.55874 2.683901 -0.795609 3 0 3 
z
" style="stroke: #53258e"/>
    </defs>
    <g clip-path="url(#p764065898d)">
     <use xlink:href="#m48c73e2b8c" x="167.973913" y="36.72457" style="fill: #53258e; stroke: #53258e"/>
     <use xlink:href="#m48c73e2b8c" x="240.894368" y="54.283499" style="fill: #53258e; stroke: #53258e"/>
     <use xlink:href="#m48c73e2b8c" x="313.814822" y="89.276336" style="fill: #53258e; stroke: #53258e"/>
     <use xlink:href="#m48c73e2b8c" x="386.735277" y="159.191218" style="fill: #53258e; stroke: #53258e"/>
     <use xlink:href="#m48c73e2b8c" x="459.655731" y="243.946829" style="fill: #53258e; stroke: #53258e"/>
     <use xlink:href="#m48c73e2b8c" x="532.576186" y="331.274125" style="fill: #53258e; stroke: #53258e"/>
    </g>
   </g>
   <g id="line2d_64">
    <path d="M 184.19087 43.173469 
L 257.111324 63.794332 
L 330.031779 111.912891 
L 402.952233 202.698086 
L 475.872688 299.483249 
L 548.793142 340.727937 
" clip-path="url(#p764065898d)" style="fill: none; stroke-dasharray: 7.4,3.2; stroke-dashoffset: 0; stroke: #37a055; stroke-width: 2"/>
    <defs>
     <path id="m0e3d381874" d="M 0 3 
C 0.795609 3 1.55874 2.683901 2.12132 2.12132 
C 2.683901 1.55874 3 0.795609 3 0 
C 3 -0.795609 2.683901 -1.55874 2.12132 -2.12132 
C 1.55874 -2.683901 0.795609 -3 0 -3 
C -0.795609 -3 -1.55874 -2.683901 -2.12132 -2.12132 
C -2.683901 -1.55874 -3 -0.795609 -3 0 
C -3 0.795609 -2.683901 1.55874 -2.12132 2.12132 
C -1.55874 2.683901 -0.795609 3 0 3 
z
" style="stroke: #37a055"/>
    </defs>
    <g clip-path="url(#p764065898d)">
     <use xlink:href="#m0e3d381874" x="184.19087" y="43.173469" style="fill: #37a055; stroke: #37a055"/>
     <use xlink:href="#m0e3d381874" x="257.111324" y="63.794332" style="fill: #37a055; stroke: #37a055"/>
     <use xlink:href="#m0e3d381874" x="330.031779" y="111.912891" style="fill: #37a055; stroke: #37a055"/>
     <use xlink:href="#m0e3d381874" x="402.952233" y="202.698086" style="fill: #37a055; stroke: #37a055"/>
     <use xlink:href="#m0e3d381874" x="475.872688" y="299.483249" style="fill: #37a055; stroke: #37a055"/>
     <use xlink:href="#m0e3d381874" x="548.793142" y="340.727937" style="fill: #37a055; stroke: #37a055"/>
    </g>
   </g>
   <g id="line2d_65">
    <path d="M 184.19087 41.565067 
L 257.111324 62.943434 
L 330.031779 110.388697 
L 402.952233 191.223993 
L 475.872688 286.409107 
L 548.793142 340.972472 
" clip-path="url(#p764065898d)" style="fill: none; stroke-dasharray: 7.4,3.2; stroke-dashoffset: 0; stroke: #674ca1; stroke-width: 2"/>
    <defs>
     <path id="m8f0fa3c9a8" d="M 0 3 
C 0.795609 3 1.55874 2.683901 2.12132 2.12132 
C 2.683901 1.55874 3 0.795609 3 0 
C 3 -0.795609 2.683901 -1.55874 2.12132 -2.12132 
C 1.55874 -2.683901 0.795609 -3 0 -3 
C -0.795609 -3 -1.55874 -2.683901 -2.12132 -2.12132 
C -2.683901 -1.55874 -3 -0.795609 -3 0 
C -3 0.795609 -2.683901 1.55874 -2.12132 2.12132 
C -1.55874 2.683901 -0.795609 3 0 3 
z
" style="stroke: #674ca1"/>
    </defs>
    <g clip-path="url(#p764065898d)">
     <use xlink:href="#m8f0fa3c9a8" x="184.19087" y="41.565067" style="fill: #674ca1; stroke: #674ca1"/>
     <use xlink:href="#m8f0fa3c9a8" x="257.111324" y="62.943434" style="fill: #674ca1; stroke: #674ca1"/>
     <use xlink:href="#m8f0fa3c9a8" x="330.031779" y="110.388697" style="fill: #674ca1; stroke: #674ca1"/>
     <use xlink:href="#m8f0fa3c9a8" x="402.952233" y="191.223993" style="fill: #674ca1; stroke: #674ca1"/>
     <use xlink:href="#m8f0fa3c9a8" x="475.872688" y="286.409107" style="fill: #674ca1; stroke: #674ca1"/>
     <use xlink:href="#m8f0fa3c9a8" x="548.793142" y="340.972472" style="fill: #674ca1; stroke: #674ca1"/>
    </g>
   </g>
   <g id="line2d_66">
    <path d="M 148.793325 35.104581 
L 221.713779 47.781542 
L 294.634234 76.024003 
L 367.554688 134.467294 
L 440.475143 216.273617 
L 513.395598 290.679358 
" clip-path="url(#p764065898d)" style="fill: none; stroke: #084a91; stroke-width: 2; stroke-linecap: square"/>
    <defs>
     <path id="m851cb59af6" d="M 0 -6 
L -1.347084 -1.854102 
L -5.706339 -1.854102 
L -2.179628 0.708204 
L -3.526712 4.854102 
L -0 2.291796 
L 3.526712 4.854102 
L 2.179628 0.708204 
L 5.706339 -1.854102 
L 1.347084 -1.854102 
z
" style="stroke: #084a91; stroke-linejoin: bevel"/>
    </defs>
    <g clip-path="url(#p764065898d)">
     <use xlink:href="#m851cb59af6" x="148.793325" y="35.104581" style="fill: #084a91; stroke: #084a91; stroke-linejoin: bevel"/>
     <use xlink:href="#m851cb59af6" x="221.713779" y="47.781542" style="fill: #084a91; stroke: #084a91; stroke-linejoin: bevel"/>
     <use xlink:href="#m851cb59af6" x="294.634234" y="76.024003" style="fill: #084a91; stroke: #084a91; stroke-linejoin: bevel"/>
     <use xlink:href="#m851cb59af6" x="367.554688" y="134.467294" style="fill: #084a91; stroke: #084a91; stroke-linejoin: bevel"/>
     <use xlink:href="#m851cb59af6" x="440.475143" y="216.273617" style="fill: #084a91; stroke: #084a91; stroke-linejoin: bevel"/>
     <use xlink:href="#m851cb59af6" x="513.395598" y="290.679358" style="fill: #084a91; stroke: #084a91; stroke-linejoin: bevel"/>
    </g>
   </g>
   <g id="line2d_67">
    <path d="M 148.793325 32.350317 
L 221.713779 44.719031 
L 294.634234 71.977783 
L 367.554688 122.238072 
L 440.475143 195.030132 
L 513.395598 274.508114 
" clip-path="url(#p764065898d)" style="fill: none; stroke: #67000d; stroke-width: 2; stroke-linecap: square"/>
    <defs>
     <path id="m86e63916da" d="M 0 -6 
L -1.347084 -1.854102 
L -5.706339 -1.854102 
L -2.179628 0.708204 
L -3.526712 4.854102 
L -0 2.291796 
L 3.526712 4.854102 
L 2.179628 0.708204 
L 5.706339 -1.854102 
L 1.347084 -1.854102 
z
" style="stroke: #67000d; stroke-linejoin: bevel"/>
    </defs>
    <g clip-path="url(#p764065898d)">
     <use xlink:href="#m86e63916da" x="148.793325" y="32.350317" style="fill: #67000d; stroke: #67000d; stroke-linejoin: bevel"/>
     <use xlink:href="#m86e63916da" x="221.713779" y="44.719031" style="fill: #67000d; stroke: #67000d; stroke-linejoin: bevel"/>
     <use xlink:href="#m86e63916da" x="294.634234" y="71.977783" style="fill: #67000d; stroke: #67000d; stroke-linejoin: bevel"/>
     <use xlink:href="#m86e63916da" x="367.554688" y="122.238072" style="fill: #67000d; stroke: #67000d; stroke-linejoin: bevel"/>
     <use xlink:href="#m86e63916da" x="440.475143" y="195.030132" style="fill: #67000d; stroke: #67000d; stroke-linejoin: bevel"/>
     <use xlink:href="#m86e63916da" x="513.395598" y="274.508114" style="fill: #67000d; stroke: #67000d; stroke-linejoin: bevel"/>
    </g>
   </g>
   <g id="line2d_68">
    <path d="M 167.973913 39.379128 
L 240.894368 55.621615 
L 313.814822 94.77088 
L 386.735277 168.572187 
L 459.655731 261.900862 
L 532.576186 326.601583 
" clip-path="url(#p764065898d)" style="fill: none; stroke: #1a68ae; stroke-width: 2; stroke-linecap: square"/>
    <defs>
     <path id="me482ed5b64" d="M 0 -6 
L -1.347084 -1.854102 
L -5.706339 -1.854102 
L -2.179628 0.708204 
L -3.526712 4.854102 
L -0 2.291796 
L 3.526712 4.854102 
L 2.179628 0.708204 
L 5.706339 -1.854102 
L 1.347084 -1.854102 
z
" style="stroke: #1a68ae; stroke-linejoin: bevel"/>
    </defs>
    <g clip-path="url(#p764065898d)">
     <use xlink:href="#me482ed5b64" x="167.973913" y="39.379128" style="fill: #1a68ae; stroke: #1a68ae; stroke-linejoin: bevel"/>
     <use xlink:href="#me482ed5b64" x="240.894368" y="55.621615" style="fill: #1a68ae; stroke: #1a68ae; stroke-linejoin: bevel"/>
     <use xlink:href="#me482ed5b64" x="313.814822" y="94.77088" style="fill: #1a68ae; stroke: #1a68ae; stroke-linejoin: bevel"/>
     <use xlink:href="#me482ed5b64" x="386.735277" y="168.572187" style="fill: #1a68ae; stroke: #1a68ae; stroke-linejoin: bevel"/>
     <use xlink:href="#me482ed5b64" x="459.655731" y="261.900862" style="fill: #1a68ae; stroke: #1a68ae; stroke-linejoin: bevel"/>
     <use xlink:href="#me482ed5b64" x="532.576186" y="326.601583" style="fill: #1a68ae; stroke: #1a68ae; stroke-linejoin: bevel"/>
    </g>
   </g>
   <g id="line2d_69">
    <path d="M 167.973913 36.724569 
L 240.894368 54.28349 
L 313.814822 89.276288 
L 386.735277 159.191255 
L 459.655731 244.04909 
L 532.576186 331.840541 
" clip-path="url(#p764065898d)" style="fill: none; stroke: #af1117; stroke-width: 2; stroke-linecap: square"/>
    <defs>
     <path id="m83ec1ddaff" d="M 0 -6 
L -1.347084 -1.854102 
L -5.706339 -1.854102 
L -2.179628 0.708204 
L -3.526712 4.854102 
L -0 2.291796 
L 3.526712 4.854102 
L 2.179628 0.708204 
L 5.706339 -1.854102 
L 1.347084 -1.854102 
z
" style="stroke: #af1117; stroke-linejoin: bevel"/>
    </defs>
    <g clip-path="url(#p764065898d)">
     <use xlink:href="#m83ec1ddaff" x="167.973913" y="36.724569" style="fill: #af1117; stroke: #af1117; stroke-linejoin: bevel"/>
     <use xlink:href="#m83ec1ddaff" x="240.894368" y="54.28349" style="fill: #af1117; stroke: #af1117; stroke-linejoin: bevel"/>
     <use xlink:href="#m83ec1ddaff" x="313.814822" y="89.276288" style="fill: #af1117; stroke: #af1117; stroke-linejoin: bevel"/>
     <use xlink:href="#m83ec1ddaff" x="386.735277" y="159.191255" style="fill: #af1117; stroke: #af1117; stroke-linejoin: bevel"/>
     <use xlink:href="#m83ec1ddaff" x="459.655731" y="244.04909" style="fill: #af1117; stroke: #af1117; stroke-linejoin: bevel"/>
     <use xlink:href="#m83ec1ddaff" x="532.576186" y="331.840541" style="fill: #af1117; stroke: #af1117; stroke-linejoin: bevel"/>
    </g>
   </g>
   <g id="line2d_70">
    <path d="M 184.19087 43.173469 
L 257.111324 63.794331 
L 330.031779 111.912836 
L 402.952233 202.692461 
L 475.872688 300.825122 
L 548.793142 340.730977 
" clip-path="url(#p764065898d)" style="fill: none; stroke: #3787c0; stroke-width: 2; stroke-linecap: square"/>
    <defs>
     <path id="mdd41d5212b" d="M 0 -6 
L -1.347084 -1.854102 
L -5.706339 -1.854102 
L -2.179628 0.708204 
L -3.526712 4.854102 
L -0 2.291796 
L 3.526712 4.854102 
L 2.179628 0.708204 
L 5.706339 -1.854102 
L 1.347084 -1.854102 
z
" style="stroke: #3787c0; stroke-linejoin: bevel"/>
    </defs>
    <g clip-path="url(#p764065898d)">
     <use xlink:href="#mdd41d5212b" x="184.19087" y="43.173469" style="fill: #3787c0; stroke: #3787c0; stroke-linejoin: bevel"/>
     <use xlink:href="#mdd41d5212b" x="257.111324" y="63.794331" style="fill: #3787c0; stroke: #3787c0; stroke-linejoin: bevel"/>
     <use xlink:href="#mdd41d5212b" x="330.031779" y="111.912836" style="fill: #3787c0; stroke: #3787c0; stroke-linejoin: bevel"/>
     <use xlink:href="#mdd41d5212b" x="402.952233" y="202.692461" style="fill: #3787c0; stroke: #3787c0; stroke-linejoin: bevel"/>
     <use xlink:href="#mdd41d5212b" x="475.872688" y="300.825122" style="fill: #3787c0; stroke: #3787c0; stroke-linejoin: bevel"/>
     <use xlink:href="#mdd41d5212b" x="548.793142" y="340.730977" style="fill: #3787c0; stroke: #3787c0; stroke-linejoin: bevel"/>
    </g>
   </g>
   <g id="line2d_71">
    <path d="M 184.19087 41.565065 
L 257.111324 62.94342 
L 330.031779 110.388638 
L 402.952233 191.228355 
L 475.872688 286.393877 
L 548.793142 338.05885 
" clip-path="url(#p764065898d)" style="fill: none; stroke: #dd2a25; stroke-width: 2; stroke-linecap: square"/>
    <defs>
     <path id="md4c50b8b0a" d="M 0 -6 
L -1.347084 -1.854102 
L -5.706339 -1.854102 
L -2.179628 0.708204 
L -3.526712 4.854102 
L -0 2.291796 
L 3.526712 4.854102 
L 2.179628 0.708204 
L 5.706339 -1.854102 
L 1.347084 -1.854102 
z
" style="stroke: #dd2a25; stroke-linejoin: bevel"/>
    </defs>
    <g clip-path="url(#p764065898d)">
     <use xlink:href="#md4c50b8b0a" x="184.19087" y="41.565065" style="fill: #dd2a25; stroke: #dd2a25; stroke-linejoin: bevel"/>
     <use xlink:href="#md4c50b8b0a" x="257.111324" y="62.94342" style="fill: #dd2a25; stroke: #dd2a25; stroke-linejoin: bevel"/>
     <use xlink:href="#md4c50b8b0a" x="330.031779" y="110.388638" style="fill: #dd2a25; stroke: #dd2a25; stroke-linejoin: bevel"/>
     <use xlink:href="#md4c50b8b0a" x="402.952233" y="191.228355" style="fill: #dd2a25; stroke: #dd2a25; stroke-linejoin: bevel"/>
     <use xlink:href="#md4c50b8b0a" x="475.872688" y="286.393877" style="fill: #dd2a25; stroke: #dd2a25; stroke-linejoin: bevel"/>
     <use xlink:href="#md4c50b8b0a" x="548.793142" y="338.05885" style="fill: #dd2a25; stroke: #dd2a25; stroke-linejoin: bevel"/>
    </g>
   </g>
   <g id="patch_3">
    <path d="M 96.15 356.681563 
L 96.15 11.081563 
" style="fill: none; stroke: #000000; stroke-width: 0.8; stroke-linejoin: miter; stroke-linecap: square"/>
   </g>
   <g id="patch_4">
    <path d="M 737.85 356.681563 
L 737.85 11.081563 
" style="fill: none; stroke: #000000; stroke-width: 0.8; stroke-linejoin: miter; stroke-linecap: square"/>
   </g>
   <g id="patch_5">
    <path d="M 96.15 356.681563 
L 737.85 356.681563 
" style="fill: none; stroke: #000000; stroke-width: 0.8; stroke-linejoin: miter; stroke-linecap: square"/>
   </g>
   <g id="patch_6">
    <path d="M 96.15 11.081563 
L 737.85 11.081563 
" style="fill: none; stroke: #000000; stroke-width: 0.8; stroke-linejoin: miter; stroke-linecap: square"/>
   </g>
   <g id="legend_1">
    <g id="patch_7">
     <path d="M 33.5 663.680938 
L 800.5 663.680938 
Q 804.5 663.680938 804.5 659.680938 
L 804.5 422.521563 
Q 804.5 418.521563 800.5 418.521563 
L 33.5 418.521563 
Q 29.5 418.521563 29.5 422.521563 
L 29.5 659.680938 
Q 29.5 663.680938 33.5 663.680938 
z
" style="fill: #ffffff; stroke: #cccccc; stroke-linejoin: miter"/>
    </g>
    <g id="line2d_72">
     <path d="M 37.5 438.121563 
L 57.5 438.121563 
L 77.5 438.121563 
" style="fill: none; stroke-dasharray: 2,3.3; stroke-dashoffset: 0; stroke: #ff1493; stroke-width: 2"/>
     <g>
      <use xlink:href="#m820675d292" x="57.5" y="438.121563" style="fill: #ff1493; stroke: #ff1493; stroke-linejoin: miter"/>
     </g>
    </g>
    <g id="text_10">
     <!-- CADET-FV -->
     <g transform="translate(93.5 445.121563) scale(0.2 -0.2)">
      <defs>
       <path id="DejaVuSans-43" d="M 4122 4306 
L 4122 3641 
Q 3803 3938 3442 4084 
Q 3081 4231 2675 4231 
Q 1875 4231 1450 3742 
Q 1025 3253 1025 2328 
Q 1025 1406 1450 917 
Q 1875 428 2675 428 
Q 3081 428 3442 575 
Q 3803 722 4122 1019 
L 4122 359 
Q 3791 134 3420 21 
Q 3050 -91 2638 -91 
Q 1578 -91 968 557 
Q 359 1206 359 2328 
Q 359 3453 968 4101 
Q 1578 4750 2638 4750 
Q 3056 4750 3426 4639 
Q 3797 4528 4122 4306 
z
" transform="scale(0.015625)"/>
       <path id="DejaVuSans-41" d="M 2188 4044 
L 1331 1722 
L 3047 1722 
L 2188 4044 
z
M 1831 4666 
L 2547 4666 
L 4325 0 
L 3669 0 
L 3244 1197 
L 1141 1197 
L 716 0 
L 50 0 
L 1831 4666 
z
" transform="scale(0.015625)"/>
       <path id="DejaVuSans-45" d="M 628 4666 
L 3578 4666 
L 3578 4134 
L 1259 4134 
L 1259 2753 
L 3481 2753 
L 3481 2222 
L 1259 2222 
L 1259 531 
L 3634 531 
L 3634 0 
L 628 0 
L 628 4666 
z
" transform="scale(0.015625)"/>
       <path id="DejaVuSans-54" d="M -19 4666 
L 3928 4666 
L 3928 4134 
L 2272 4134 
L 2272 0 
L 1638 0 
L 1638 4134 
L -19 4134 
L -19 4666 
z
" transform="scale(0.015625)"/>
       <path id="DejaVuSans-2d" d="M 313 2009 
L 1997 2009 
L 1997 1497 
L 313 1497 
L 313 2009 
z
" transform="scale(0.015625)"/>
       <path id="DejaVuSans-46" d="M 628 4666 
L 3309 4666 
L 3309 4134 
L 1259 4134 
L 1259 2759 
L 3109 2759 
L 3109 2228 
L 1259 2228 
L 1259 0 
L 628 0 
L 628 4666 
z
" transform="scale(0.015625)"/>
       <path id="DejaVuSans-56" d="M 1831 0 
L 50 4666 
L 709 4666 
L 2188 738 
L 3669 4666 
L 4325 4666 
L 2547 0 
L 1831 0 
z
" transform="scale(0.015625)"/>
      </defs>
      <use xlink:href="#DejaVuSans-43"/>
      <use xlink:href="#DejaVuSans-41" x="69.824219"/>
      <use xlink:href="#DejaVuSans-44" x="138.232422"/>
      <use xlink:href="#DejaVuSans-45" x="215.234375"/>
      <use xlink:href="#DejaVuSans-54" x="278.417969"/>
      <use xlink:href="#DejaVuSans-2d" x="330.376953"/>
      <use xlink:href="#DejaVuSans-46" x="366.460938"/>
      <use xlink:href="#DejaVuSans-56" x="423.980469"/>
     </g>
    </g>
    <g id="line2d_73">
     <path d="M 37.5 470.880938 
L 57.5 470.880938 
L 77.5 470.880938 
" style="fill: none; stroke-dasharray: 7.4,3.2; stroke-dashoffset: 0; stroke: #006428; stroke-width: 2"/>
     <g>
      <use xlink:href="#mbdc25956b5" x="57.5" y="470.880938" style="fill: #006428; stroke: #006428"/>
     </g>
    </g>
    <g id="text_11">
     <!-- CADET-Julia, Exact, $N_d^b$=4 -->
     <g transform="translate(93.5 477.880938) scale(0.2 -0.2)">
      <defs>
       <path id="DejaVuSans-4a" d="M 628 4666 
L 1259 4666 
L 1259 325 
Q 1259 -519 939 -900 
Q 619 -1281 -91 -1281 
L -331 -1281 
L -331 -750 
L -134 -750 
Q 284 -750 456 -515 
Q 628 -281 628 325 
L 628 4666 
z
" transform="scale(0.015625)"/>
       <path id="DejaVuSans-75" d="M 544 1381 
L 544 3500 
L 1119 3500 
L 1119 1403 
Q 1119 906 1312 657 
Q 1506 409 1894 409 
Q 2359 409 2629 706 
Q 2900 1003 2900 1516 
L 2900 3500 
L 3475 3500 
L 3475 0 
L 2900 0 
L 2900 538 
Q 2691 219 2414 64 
Q 2138 -91 1772 -91 
Q 1169 -91 856 284 
Q 544 659 544 1381 
z
M 1991 3584 
L 1991 3584 
z
" transform="scale(0.015625)"/>
       <path id="DejaVuSans-69" d="M 603 3500 
L 1178 3500 
L 1178 0 
L 603 0 
L 603 3500 
z
M 603 4863 
L 1178 4863 
L 1178 4134 
L 603 4134 
L 603 4863 
z
" transform="scale(0.015625)"/>
       <path id="DejaVuSans-2c" d="M 750 794 
L 1409 794 
L 1409 256 
L 897 -744 
L 494 -744 
L 750 256 
L 750 794 
z
" transform="scale(0.015625)"/>
       <path id="DejaVuSans-63" d="M 3122 3366 
L 3122 2828 
Q 2878 2963 2633 3030 
Q 2388 3097 2138 3097 
Q 1578 3097 1268 2742 
Q 959 2388 959 1747 
Q 959 1106 1268 751 
Q 1578 397 2138 397 
Q 2388 397 2633 464 
Q 2878 531 3122 666 
L 3122 134 
Q 2881 22 2623 -34 
Q 2366 -91 2075 -91 
Q 1284 -91 818 406 
Q 353 903 353 1747 
Q 353 2603 823 3093 
Q 1294 3584 2113 3584 
Q 2378 3584 2631 3529 
Q 2884 3475 3122 3366 
z
" transform="scale(0.015625)"/>
       <path id="DejaVuSans-74" d="M 1172 4494 
L 1172 3500 
L 2356 3500 
L 2356 3053 
L 1172 3053 
L 1172 1153 
Q 1172 725 1289 603 
Q 1406 481 1766 481 
L 2356 481 
L 2356 0 
L 1766 0 
Q 1100 0 847 248 
Q 594 497 594 1153 
L 594 3053 
L 172 3053 
L 172 3500 
L 594 3500 
L 594 4494 
L 1172 4494 
z
" transform="scale(0.015625)"/>
       <path id="DejaVuSans-Oblique-4e" d="M 1081 4666 
L 1931 4666 
L 3219 666 
L 4000 4666 
L 4616 4666 
L 3706 0 
L 2853 0 
L 1569 4025 
L 788 0 
L 172 0 
L 1081 4666 
z
" transform="scale(0.015625)"/>
       <path id="DejaVuSans-Oblique-62" d="M 3169 2138 
Q 3169 2591 2961 2847 
Q 2753 3103 2388 3103 
Q 2122 3103 1889 2973 
Q 1656 2844 1484 2597 
Q 1303 2338 1198 1995 
Q 1094 1653 1094 1313 
Q 1094 881 1298 636 
Q 1503 391 1863 391 
Q 2134 391 2365 517 
Q 2597 644 2772 891 
Q 2950 1147 3059 1487 
Q 3169 1828 3169 2138 
z
M 1381 2969 
Q 1594 3256 1914 3420 
Q 2234 3584 2584 3584 
Q 3122 3584 3439 3221 
Q 3756 2859 3756 2241 
Q 3756 1734 3570 1259 
Q 3384 784 3041 416 
Q 2816 172 2522 40 
Q 2228 -91 1906 -91 
Q 1566 -91 1316 65 
Q 1066 222 909 531 
L 806 0 
L 231 0 
L 1178 4863 
L 1753 4863 
L 1381 2969 
z
" transform="scale(0.015625)"/>
       <path id="DejaVuSans-Oblique-64" d="M 2675 525 
Q 2444 222 2128 65 
Q 1813 -91 1428 -91 
Q 903 -91 598 267 
Q 294 625 294 1247 
Q 294 1766 478 2236 
Q 663 2706 1013 3078 
Q 1244 3325 1534 3454 
Q 1825 3584 2144 3584 
Q 2481 3584 2739 3421 
Q 2997 3259 3138 2956 
L 3513 4863 
L 4091 4863 
L 3144 0 
L 2566 0 
L 2675 525 
z
M 891 1350 
Q 891 897 1095 644 
Q 1300 391 1663 391 
Q 1931 391 2161 520 
Q 2391 650 2566 903 
Q 2750 1166 2856 1509 
Q 2963 1853 2963 2188 
Q 2963 2622 2758 2865 
Q 2553 3109 2194 3109 
Q 1922 3109 1687 2981 
Q 1453 2853 1288 2613 
Q 1106 2353 998 2009 
Q 891 1666 891 1350 
z
" transform="scale(0.015625)"/>
       <path id="DejaVuSans-3d" d="M 678 2906 
L 4684 2906 
L 4684 2381 
L 678 2381 
L 678 2906 
z
M 678 1631 
L 4684 1631 
L 4684 1100 
L 678 1100 
L 678 1631 
z
" transform="scale(0.015625)"/>
      </defs>
      <use xlink:href="#DejaVuSans-43" transform="translate(0 0.470313)"/>
      <use xlink:href="#DejaVuSans-41" transform="translate(69.824219 0.470313)"/>
      <use xlink:href="#DejaVuSans-44" transform="translate(138.232422 0.470313)"/>
      <use xlink:href="#DejaVuSans-45" transform="translate(215.234375 0.470313)"/>
      <use xlink:href="#DejaVuSans-54" transform="translate(278.417969 0.470313)"/>
      <use xlink:href="#DejaVuSans-2d" transform="translate(339.501953 0.470313)"/>
      <use xlink:href="#DejaVuSans-4a" transform="translate(375.585938 0.470313)"/>
      <use xlink:href="#DejaVuSans-75" transform="translate(405.078125 0.470313)"/>
      <use xlink:href="#DejaVuSans-6c" transform="translate(468.457031 0.470313)"/>
      <use xlink:href="#DejaVuSans-69" transform="translate(496.240234 0.470313)"/>
      <use xlink:href="#DejaVuSans-61" transform="translate(524.023438 0.470313)"/>
      <use xlink:href="#DejaVuSans-2c" transform="translate(585.302734 0.470313)"/>
      <use xlink:href="#DejaVuSans-20" transform="translate(617.089844 0.470313)"/>
      <use xlink:href="#DejaVuSans-45" transform="translate(648.876953 0.470313)"/>
      <use xlink:href="#DejaVuSans-78" transform="translate(712.060547 0.470313)"/>
      <use xlink:href="#DejaVuSans-61" transform="translate(771.240234 0.470313)"/>
      <use xlink:href="#DejaVuSans-63" transform="translate(832.519531 0.470313)"/>
      <use xlink:href="#DejaVuSans-74" transform="translate(887.5 0.470313)"/>
      <use xlink:href="#DejaVuSans-2c" transform="translate(926.708984 0.470313)"/>
      <use xlink:href="#DejaVuSans-20" transform="translate(958.496094 0.470313)"/>
      <use xlink:href="#DejaVuSans-Oblique-4e" transform="translate(990.283203 0.470313)"/>
      <use xlink:href="#DejaVuSans-Oblique-62" transform="translate(1072.104661 39.810938) scale(0.7)"/>
      <use xlink:href="#DejaVuSans-Oblique-64" transform="translate(1065.087891 -26.873437) scale(0.7)"/>
      <use xlink:href="#DejaVuSans-3d" transform="translate(1119.27263 0.470313)"/>
      <use xlink:href="#DejaVuSans-34" transform="translate(1203.061693 0.470313)"/>
     </g>
    </g>
    <g id="line2d_74">
     <path d="M 37.5 505.280938 
L 57.5 505.280938 
L 77.5 505.280938 
" style="fill: none; stroke-dasharray: 7.4,3.2; stroke-dashoffset: 0; stroke: #3f007d; stroke-width: 2"/>
     <g>
      <use xlink:href="#m1adf0f8b21" x="57.5" y="505.280938" style="fill: #3f007d; stroke: #3f007d"/>
     </g>
    </g>
    <g id="text_12">
     <!-- CADET-Julia, Collocation, $N_d^b$=4 -->
     <g transform="translate(93.5 512.280938) scale(0.2 -0.2)">
      <defs>
       <path id="DejaVuSans-6e" d="M 3513 2113 
L 3513 0 
L 2938 0 
L 2938 2094 
Q 2938 2591 2744 2837 
Q 2550 3084 2163 3084 
Q 1697 3084 1428 2787 
Q 1159 2491 1159 1978 
L 1159 0 
L 581 0 
L 581 3500 
L 1159 3500 
L 1159 2956 
Q 1366 3272 1645 3428 
Q 1925 3584 2291 3584 
Q 2894 3584 3203 3211 
Q 3513 2838 3513 2113 
z
" transform="scale(0.015625)"/>
      </defs>
      <use xlink:href="#DejaVuSans-43" transform="translate(0 0.470313)"/>
      <use xlink:href="#DejaVuSans-41" transform="translate(69.824219 0.470313)"/>
      <use xlink:href="#DejaVuSans-44" transform="translate(138.232422 0.470313)"/>
      <use xlink:href="#DejaVuSans-45" transform="translate(215.234375 0.470313)"/>
      <use xlink:href="#DejaVuSans-54" transform="translate(278.417969 0.470313)"/>
      <use xlink:href="#DejaVuSans-2d" transform="translate(339.501953 0.470313)"/>
      <use xlink:href="#DejaVuSans-4a" transform="translate(375.585938 0.470313)"/>
      <use xlink:href="#DejaVuSans-75" transform="translate(405.078125 0.470313)"/>
      <use xlink:href="#DejaVuSans-6c" transform="translate(468.457031 0.470313)"/>
      <use xlink:href="#DejaVuSans-69" transform="translate(496.240234 0.470313)"/>
      <use xlink:href="#DejaVuSans-61" transform="translate(524.023438 0.470313)"/>
      <use xlink:href="#DejaVuSans-2c" transform="translate(585.302734 0.470313)"/>
      <use xlink:href="#DejaVuSans-20" transform="translate(617.089844 0.470313)"/>
      <use xlink:href="#DejaVuSans-43" transform="translate(648.876953 0.470313)"/>
      <use xlink:href="#DejaVuSans-6f" transform="translate(718.701172 0.470313)"/>
      <use xlink:href="#DejaVuSans-6c" transform="translate(779.882812 0.470313)"/>
      <use xlink:href="#DejaVuSans-6c" transform="translate(807.666016 0.470313)"/>
      <use xlink:href="#DejaVuSans-6f" transform="translate(835.449219 0.470313)"/>
      <use xlink:href="#DejaVuSans-63" transform="translate(896.630859 0.470313)"/>
      <use xlink:href="#DejaVuSans-61" transform="translate(951.611328 0.470313)"/>
      <use xlink:href="#DejaVuSans-74" transform="translate(1012.890625 0.470313)"/>
      <use xlink:href="#DejaVuSans-69" transform="translate(1052.099609 0.470313)"/>
      <use xlink:href="#DejaVuSans-6f" transform="translate(1079.882812 0.470313)"/>
      <use xlink:href="#DejaVuSans-6e" transform="translate(1141.064453 0.470313)"/>
      <use xlink:href="#DejaVuSans-2c" transform="translate(1204.443359 0.470313)"/>
      <use xlink:href="#DejaVuSans-20" transform="translate(1236.230469 0.470313)"/>
      <use xlink:href="#DejaVuSans-Oblique-4e" transform="translate(1268.017578 0.470313)"/>
      <use xlink:href="#DejaVuSans-Oblique-62" transform="translate(1349.839036 39.810938) scale(0.7)"/>
      <use xlink:href="#DejaVuSans-Oblique-64" transform="translate(1342.822266 -26.873437) scale(0.7)"/>
      <use xlink:href="#DejaVuSans-3d" transform="translate(1397.007005 0.470313)"/>
      <use xlink:href="#DejaVuSans-34" transform="translate(1480.796068 0.470313)"/>
     </g>
    </g>
    <g id="line2d_75">
     <path d="M 37.5 539.680938 
L 57.5 539.680938 
L 77.5 539.680938 
" style="fill: none; stroke-dasharray: 7.4,3.2; stroke-dashoffset: 0; stroke: #19833e; stroke-width: 2"/>
     <g>
      <use xlink:href="#m3b1de86319" x="57.5" y="539.680938" style="fill: #19833e; stroke: #19833e"/>
     </g>
    </g>
    <g id="text_13">
     <!-- CADET-Julia, Exact, $N_d^b$=5 -->
     <g transform="translate(93.5 546.680938) scale(0.2 -0.2)">
      <use xlink:href="#DejaVuSans-43" transform="translate(0 0.470313)"/>
      <use xlink:href="#DejaVuSans-41" transform="translate(69.824219 0.470313)"/>
      <use xlink:href="#DejaVuSans-44" transform="translate(138.232422 0.470313)"/>
      <use xlink:href="#DejaVuSans-45" transform="translate(215.234375 0.470313)"/>
      <use xlink:href="#DejaVuSans-54" transform="translate(278.417969 0.470313)"/>
      <use xlink:href="#DejaVuSans-2d" transform="translate(339.501953 0.470313)"/>
      <use xlink:href="#DejaVuSans-4a" transform="translate(375.585938 0.470313)"/>
      <use xlink:href="#DejaVuSans-75" transform="translate(405.078125 0.470313)"/>
      <use xlink:href="#DejaVuSans-6c" transform="translate(468.457031 0.470313)"/>
      <use xlink:href="#DejaVuSans-69" transform="translate(496.240234 0.470313)"/>
      <use xlink:href="#DejaVuSans-61" transform="translate(524.023438 0.470313)"/>
      <use xlink:href="#DejaVuSans-2c" transform="translate(585.302734 0.470313)"/>
      <use xlink:href="#DejaVuSans-20" transform="translate(617.089844 0.470313)"/>
      <use xlink:href="#DejaVuSans-45" transform="translate(648.876953 0.470313)"/>
      <use xlink:href="#DejaVuSans-78" transform="translate(712.060547 0.470313)"/>
      <use xlink:href="#DejaVuSans-61" transform="translate(771.240234 0.470313)"/>
      <use xlink:href="#DejaVuSans-63" transform="translate(832.519531 0.470313)"/>
      <use xlink:href="#DejaVuSans-74" transform="translate(887.5 0.470313)"/>
      <use xlink:href="#DejaVuSans-2c" transform="translate(926.708984 0.470313)"/>
      <use xlink:href="#DejaVuSans-20" transform="translate(958.496094 0.470313)"/>
      <use xlink:href="#DejaVuSans-Oblique-4e" transform="translate(990.283203 0.470313)"/>
      <use xlink:href="#DejaVuSans-Oblique-62" transform="translate(1072.104661 39.810938) scale(0.7)"/>
      <use xlink:href="#DejaVuSans-Oblique-64" transform="translate(1065.087891 -26.873437) scale(0.7)"/>
      <use xlink:href="#DejaVuSans-3d" transform="translate(1119.27263 0.470313)"/>
      <use xlink:href="#DejaVuSans-35" transform="translate(1203.061693 0.470313)"/>
     </g>
    </g>
    <g id="line2d_76">
     <path d="M 37.5 574.080938 
L 57.5 574.080938 
L 77.5 574.080938 
" style="fill: none; stroke-dasharray: 7.4,3.2; stroke-dashoffset: 0; stroke: #53258e; stroke-width: 2"/>
     <g>
      <use xlink:href="#m48c73e2b8c" x="57.5" y="574.080938" style="fill: #53258e; stroke: #53258e"/>
     </g>
    </g>
    <g id="text_14">
     <!-- CADET-Julia, Collocation, $N_d^b$=5 -->
     <g transform="translate(93.5 581.080938) scale(0.2 -0.2)">
      <use xlink:href="#DejaVuSans-43" transform="translate(0 0.470313)"/>
      <use xlink:href="#DejaVuSans-41" transform="translate(69.824219 0.470313)"/>
      <use xlink:href="#DejaVuSans-44" transform="translate(138.232422 0.470313)"/>
      <use xlink:href="#DejaVuSans-45" transform="translate(215.234375 0.470313)"/>
      <use xlink:href="#DejaVuSans-54" transform="translate(278.417969 0.470313)"/>
      <use xlink:href="#DejaVuSans-2d" transform="translate(339.501953 0.470313)"/>
      <use xlink:href="#DejaVuSans-4a" transform="translate(375.585938 0.470313)"/>
      <use xlink:href="#DejaVuSans-75" transform="translate(405.078125 0.470313)"/>
      <use xlink:href="#DejaVuSans-6c" transform="translate(468.457031 0.470313)"/>
      <use xlink:href="#DejaVuSans-69" transform="translate(496.240234 0.470313)"/>
      <use xlink:href="#DejaVuSans-61" transform="translate(524.023438 0.470313)"/>
      <use xlink:href="#DejaVuSans-2c" transform="translate(585.302734 0.470313)"/>
      <use xlink:href="#DejaVuSans-20" transform="translate(617.089844 0.470313)"/>
      <use xlink:href="#DejaVuSans-43" transform="translate(648.876953 0.470313)"/>
      <use xlink:href="#DejaVuSans-6f" transform="translate(718.701172 0.470313)"/>
      <use xlink:href="#DejaVuSans-6c" transform="translate(779.882812 0.470313)"/>
      <use xlink:href="#DejaVuSans-6c" transform="translate(807.666016 0.470313)"/>
      <use xlink:href="#DejaVuSans-6f" transform="translate(835.449219 0.470313)"/>
      <use xlink:href="#DejaVuSans-63" transform="translate(896.630859 0.470313)"/>
      <use xlink:href="#DejaVuSans-61" transform="translate(951.611328 0.470313)"/>
      <use xlink:href="#DejaVuSans-74" transform="translate(1012.890625 0.470313)"/>
      <use xlink:href="#DejaVuSans-69" transform="translate(1052.099609 0.470313)"/>
      <use xlink:href="#DejaVuSans-6f" transform="translate(1079.882812 0.470313)"/>
      <use xlink:href="#DejaVuSans-6e" transform="translate(1141.064453 0.470313)"/>
      <use xlink:href="#DejaVuSans-2c" transform="translate(1204.443359 0.470313)"/>
      <use xlink:href="#DejaVuSans-20" transform="translate(1236.230469 0.470313)"/>
      <use xlink:href="#DejaVuSans-Oblique-4e" transform="translate(1268.017578 0.470313)"/>
      <use xlink:href="#DejaVuSans-Oblique-62" transform="translate(1349.839036 39.810938) scale(0.7)"/>
      <use xlink:href="#DejaVuSans-Oblique-64" transform="translate(1342.822266 -26.873437) scale(0.7)"/>
      <use xlink:href="#DejaVuSans-3d" transform="translate(1397.007005 0.470313)"/>
      <use xlink:href="#DejaVuSans-35" transform="translate(1480.796068 0.470313)"/>
     </g>
    </g>
    <g id="line2d_77">
     <path d="M 37.5 608.480938 
L 57.5 608.480938 
L 77.5 608.480938 
" style="fill: none; stroke-dasharray: 7.4,3.2; stroke-dashoffset: 0; stroke: #37a055; stroke-width: 2"/>
     <g>
      <use xlink:href="#m0e3d381874" x="57.5" y="608.480938" style="fill: #37a055; stroke: #37a055"/>
     </g>
    </g>
    <g id="text_15">
     <!-- CADET-Julia, Exact, $N_d^b$=6 -->
     <g transform="translate(93.5 615.480938) scale(0.2 -0.2)">
      <defs>
       <path id="DejaVuSans-36" d="M 2113 2584 
Q 1688 2584 1439 2293 
Q 1191 2003 1191 1497 
Q 1191 994 1439 701 
Q 1688 409 2113 409 
Q 2538 409 2786 701 
Q 3034 994 3034 1497 
Q 3034 2003 2786 2293 
Q 2538 2584 2113 2584 
z
M 3366 4563 
L 3366 3988 
Q 3128 4100 2886 4159 
Q 2644 4219 2406 4219 
Q 1781 4219 1451 3797 
Q 1122 3375 1075 2522 
Q 1259 2794 1537 2939 
Q 1816 3084 2150 3084 
Q 2853 3084 3261 2657 
Q 3669 2231 3669 1497 
Q 3669 778 3244 343 
Q 2819 -91 2113 -91 
Q 1303 -91 875 529 
Q 447 1150 447 2328 
Q 447 3434 972 4092 
Q 1497 4750 2381 4750 
Q 2619 4750 2861 4703 
Q 3103 4656 3366 4563 
z
" transform="scale(0.015625)"/>
      </defs>
      <use xlink:href="#DejaVuSans-43" transform="translate(0 0.470313)"/>
      <use xlink:href="#DejaVuSans-41" transform="translate(69.824219 0.470313)"/>
      <use xlink:href="#DejaVuSans-44" transform="translate(138.232422 0.470313)"/>
      <use xlink:href="#DejaVuSans-45" transform="translate(215.234375 0.470313)"/>
      <use xlink:href="#DejaVuSans-54" transform="translate(278.417969 0.470313)"/>
      <use xlink:href="#DejaVuSans-2d" transform="translate(339.501953 0.470313)"/>
      <use xlink:href="#DejaVuSans-4a" transform="translate(375.585938 0.470313)"/>
      <use xlink:href="#DejaVuSans-75" transform="translate(405.078125 0.470313)"/>
      <use xlink:href="#DejaVuSans-6c" transform="translate(468.457031 0.470313)"/>
      <use xlink:href="#DejaVuSans-69" transform="translate(496.240234 0.470313)"/>
      <use xlink:href="#DejaVuSans-61" transform="translate(524.023438 0.470313)"/>
      <use xlink:href="#DejaVuSans-2c" transform="translate(585.302734 0.470313)"/>
      <use xlink:href="#DejaVuSans-20" transform="translate(617.089844 0.470313)"/>
      <use xlink:href="#DejaVuSans-45" transform="translate(648.876953 0.470313)"/>
      <use xlink:href="#DejaVuSans-78" transform="translate(712.060547 0.470313)"/>
      <use xlink:href="#DejaVuSans-61" transform="translate(771.240234 0.470313)"/>
      <use xlink:href="#DejaVuSans-63" transform="translate(832.519531 0.470313)"/>
      <use xlink:href="#DejaVuSans-74" transform="translate(887.5 0.470313)"/>
      <use xlink:href="#DejaVuSans-2c" transform="translate(926.708984 0.470313)"/>
      <use xlink:href="#DejaVuSans-20" transform="translate(958.496094 0.470313)"/>
      <use xlink:href="#DejaVuSans-Oblique-4e" transform="translate(990.283203 0.470313)"/>
      <use xlink:href="#DejaVuSans-Oblique-62" transform="translate(1072.104661 39.810938) scale(0.7)"/>
      <use xlink:href="#DejaVuSans-Oblique-64" transform="translate(1065.087891 -26.873437) scale(0.7)"/>
      <use xlink:href="#DejaVuSans-3d" transform="translate(1119.27263 0.470313)"/>
      <use xlink:href="#DejaVuSans-36" transform="translate(1203.061693 0.470313)"/>
     </g>
    </g>
    <g id="line2d_78">
     <path d="M 37.5 642.880938 
L 57.5 642.880938 
L 77.5 642.880938 
" style="fill: none; stroke-dasharray: 7.4,3.2; stroke-dashoffset: 0; stroke: #674ca1; stroke-width: 2"/>
     <g>
      <use xlink:href="#m8f0fa3c9a8" x="57.5" y="642.880938" style="fill: #674ca1; stroke: #674ca1"/>
     </g>
    </g>
    <g id="text_16">
     <!-- CADET-Julia, Collocation, $N_d^b$=6 -->
     <g transform="translate(93.5 649.880938) scale(0.2 -0.2)">
      <use xlink:href="#DejaVuSans-43" transform="translate(0 0.470313)"/>
      <use xlink:href="#DejaVuSans-41" transform="translate(69.824219 0.470313)"/>
      <use xlink:href="#DejaVuSans-44" transform="translate(138.232422 0.470313)"/>
      <use xlink:href="#DejaVuSans-45" transform="translate(215.234375 0.470313)"/>
      <use xlink:href="#DejaVuSans-54" transform="translate(278.417969 0.470313)"/>
      <use xlink:href="#DejaVuSans-2d" transform="translate(339.501953 0.470313)"/>
      <use xlink:href="#DejaVuSans-4a" transform="translate(375.585938 0.470313)"/>
      <use xlink:href="#DejaVuSans-75" transform="translate(405.078125 0.470313)"/>
      <use xlink:href="#DejaVuSans-6c" transform="translate(468.457031 0.470313)"/>
      <use xlink:href="#DejaVuSans-69" transform="translate(496.240234 0.470313)"/>
      <use xlink:href="#DejaVuSans-61" transform="translate(524.023438 0.470313)"/>
      <use xlink:href="#DejaVuSans-2c" transform="translate(585.302734 0.470313)"/>
      <use xlink:href="#DejaVuSans-20" transform="translate(617.089844 0.470313)"/>
      <use xlink:href="#DejaVuSans-43" transform="translate(648.876953 0.470313)"/>
      <use xlink:href="#DejaVuSans-6f" transform="translate(718.701172 0.470313)"/>
      <use xlink:href="#DejaVuSans-6c" transform="translate(779.882812 0.470313)"/>
      <use xlink:href="#DejaVuSans-6c" transform="translate(807.666016 0.470313)"/>
      <use xlink:href="#DejaVuSans-6f" transform="translate(835.449219 0.470313)"/>
      <use xlink:href="#DejaVuSans-63" transform="translate(896.630859 0.470313)"/>
      <use xlink:href="#DejaVuSans-61" transform="translate(951.611328 0.470313)"/>
      <use xlink:href="#DejaVuSans-74" transform="translate(1012.890625 0.470313)"/>
      <use xlink:href="#DejaVuSans-69" transform="translate(1052.099609 0.470313)"/>
      <use xlink:href="#DejaVuSans-6f" transform="translate(1079.882812 0.470313)"/>
      <use xlink:href="#DejaVuSans-6e" transform="translate(1141.064453 0.470313)"/>
      <use xlink:href="#DejaVuSans-2c" transform="translate(1204.443359 0.470313)"/>
      <use xlink:href="#DejaVuSans-20" transform="translate(1236.230469 0.470313)"/>
      <use xlink:href="#DejaVuSans-Oblique-4e" transform="translate(1268.017578 0.470313)"/>
      <use xlink:href="#DejaVuSans-Oblique-62" transform="translate(1349.839036 39.810938) scale(0.7)"/>
      <use xlink:href="#DejaVuSans-Oblique-64" transform="translate(1342.822266 -26.873437) scale(0.7)"/>
      <use xlink:href="#DejaVuSans-3d" transform="translate(1397.007005 0.470313)"/>
      <use xlink:href="#DejaVuSans-36" transform="translate(1480.796068 0.470313)"/>
     </g>
    </g>
    <g id="line2d_79">
     <path d="M 442.5 438.121563 
L 462.5 438.121563 
L 482.5 438.121563 
" style="fill: none; stroke: #084a91; stroke-width: 2; stroke-linecap: square"/>
     <g>
      <use xlink:href="#m851cb59af6" x="462.5" y="438.121563" style="fill: #084a91; stroke: #084a91; stroke-linejoin: bevel"/>
     </g>
    </g>
    <g id="text_17">
     <!-- CADET-DG, Exact, $N_d^b$=4 -->
     <g transform="translate(498.5 445.121563) scale(0.2 -0.2)">
      <defs>
       <path id="DejaVuSans-47" d="M 3809 666 
L 3809 1919 
L 2778 1919 
L 2778 2438 
L 4434 2438 
L 4434 434 
Q 4069 175 3628 42 
Q 3188 -91 2688 -91 
Q 1594 -91 976 548 
Q 359 1188 359 2328 
Q 359 3472 976 4111 
Q 1594 4750 2688 4750 
Q 3144 4750 3555 4637 
Q 3966 4525 4313 4306 
L 4313 3634 
Q 3963 3931 3569 4081 
Q 3175 4231 2741 4231 
Q 1884 4231 1454 3753 
Q 1025 3275 1025 2328 
Q 1025 1384 1454 906 
Q 1884 428 2741 428 
Q 3075 428 3337 486 
Q 3600 544 3809 666 
z
" transform="scale(0.015625)"/>
      </defs>
      <use xlink:href="#DejaVuSans-43" transform="translate(0 0.470313)"/>
      <use xlink:href="#DejaVuSans-41" transform="translate(69.824219 0.470313)"/>
      <use xlink:href="#DejaVuSans-44" transform="translate(138.232422 0.470313)"/>
      <use xlink:href="#DejaVuSans-45" transform="translate(215.234375 0.470313)"/>
      <use xlink:href="#DejaVuSans-54" transform="translate(278.417969 0.470313)"/>
      <use xlink:href="#DejaVuSans-2d" transform="translate(339.501953 0.470313)"/>
      <use xlink:href="#DejaVuSans-44" transform="translate(375.585938 0.470313)"/>
      <use xlink:href="#DejaVuSans-47" transform="translate(452.587891 0.470313)"/>
      <use xlink:href="#DejaVuSans-2c" transform="translate(530.078125 0.470313)"/>
      <use xlink:href="#DejaVuSans-20" transform="translate(561.865234 0.470313)"/>
      <use xlink:href="#DejaVuSans-45" transform="translate(593.652344 0.470313)"/>
      <use xlink:href="#DejaVuSans-78" transform="translate(656.835938 0.470313)"/>
      <use xlink:href="#DejaVuSans-61" transform="translate(716.015625 0.470313)"/>
      <use xlink:href="#DejaVuSans-63" transform="translate(777.294922 0.470313)"/>
      <use xlink:href="#DejaVuSans-74" transform="translate(832.275391 0.470313)"/>
      <use xlink:href="#DejaVuSans-2c" transform="translate(871.484375 0.470313)"/>
      <use xlink:href="#DejaVuSans-20" transform="translate(903.271484 0.470313)"/>
      <use xlink:href="#DejaVuSans-Oblique-4e" transform="translate(935.058594 0.470313)"/>
      <use xlink:href="#DejaVuSans-Oblique-62" transform="translate(1016.880052 39.810938) scale(0.7)"/>
      <use xlink:href="#DejaVuSans-Oblique-64" transform="translate(1009.863281 -26.873437) scale(0.7)"/>
      <use xlink:href="#DejaVuSans-3d" transform="translate(1064.048021 0.470313)"/>
      <use xlink:href="#DejaVuSans-34" transform="translate(1147.837083 0.470313)"/>
     </g>
    </g>
    <g id="line2d_80">
     <path d="M 442.5 472.521563 
L 462.5 472.521563 
L 482.5 472.521563 
" style="fill: none; stroke: #67000d; stroke-width: 2; stroke-linecap: square"/>
     <g>
      <use xlink:href="#m86e63916da" x="462.5" y="472.521563" style="fill: #67000d; stroke: #67000d; stroke-linejoin: bevel"/>
     </g>
    </g>
    <g id="text_18">
     <!-- CADET-DG, Collocation, $N_d^b$=4 -->
     <g transform="translate(498.5 479.521563) scale(0.2 -0.2)">
      <use xlink:href="#DejaVuSans-43" transform="translate(0 0.470313)"/>
      <use xlink:href="#DejaVuSans-41" transform="translate(69.824219 0.470313)"/>
      <use xlink:href="#DejaVuSans-44" transform="translate(138.232422 0.470313)"/>
      <use xlink:href="#DejaVuSans-45" transform="translate(215.234375 0.470313)"/>
      <use xlink:href="#DejaVuSans-54" transform="translate(278.417969 0.470313)"/>
      <use xlink:href="#DejaVuSans-2d" transform="translate(339.501953 0.470313)"/>
      <use xlink:href="#DejaVuSans-44" transform="translate(375.585938 0.470313)"/>
      <use xlink:href="#DejaVuSans-47" transform="translate(452.587891 0.470313)"/>
      <use xlink:href="#DejaVuSans-2c" transform="translate(530.078125 0.470313)"/>
      <use xlink:href="#DejaVuSans-20" transform="translate(561.865234 0.470313)"/>
      <use xlink:href="#DejaVuSans-43" transform="translate(593.652344 0.470313)"/>
      <use xlink:href="#DejaVuSans-6f" transform="translate(663.476562 0.470313)"/>
      <use xlink:href="#DejaVuSans-6c" transform="translate(724.658203 0.470313)"/>
      <use xlink:href="#DejaVuSans-6c" transform="translate(752.441406 0.470313)"/>
      <use xlink:href="#DejaVuSans-6f" transform="translate(780.224609 0.470313)"/>
      <use xlink:href="#DejaVuSans-63" transform="translate(841.40625 0.470313)"/>
      <use xlink:href="#DejaVuSans-61" transform="translate(896.386719 0.470313)"/>
      <use xlink:href="#DejaVuSans-74" transform="translate(957.666016 0.470313)"/>
      <use xlink:href="#DejaVuSans-69" transform="translate(996.875 0.470313)"/>
      <use xlink:href="#DejaVuSans-6f" transform="translate(1024.658203 0.470313)"/>
      <use xlink:href="#DejaVuSans-6e" transform="translate(1085.839844 0.470313)"/>
      <use xlink:href="#DejaVuSans-2c" transform="translate(1149.21875 0.470313)"/>
      <use xlink:href="#DejaVuSans-20" transform="translate(1181.005859 0.470313)"/>
      <use xlink:href="#DejaVuSans-Oblique-4e" transform="translate(1212.792969 0.470313)"/>
      <use xlink:href="#DejaVuSans-Oblique-62" transform="translate(1294.614427 39.810938) scale(0.7)"/>
      <use xlink:href="#DejaVuSans-Oblique-64" transform="translate(1287.597656 -26.873437) scale(0.7)"/>
      <use xlink:href="#DejaVuSans-3d" transform="translate(1341.782396 0.470313)"/>
      <use xlink:href="#DejaVuSans-34" transform="translate(1425.571458 0.470313)"/>
     </g>
    </g>
    <g id="line2d_81">
     <path d="M 442.5 506.921563 
L 462.5 506.921563 
L 482.5 506.921563 
" style="fill: none; stroke: #1a68ae; stroke-width: 2; stroke-linecap: square"/>
     <g>
      <use xlink:href="#me482ed5b64" x="462.5" y="506.921563" style="fill: #1a68ae; stroke: #1a68ae; stroke-linejoin: bevel"/>
     </g>
    </g>
    <g id="text_19">
     <!-- CADET-DG, Exact, $N_d^b$=5 -->
     <g transform="translate(498.5 513.921563) scale(0.2 -0.2)">
      <use xlink:href="#DejaVuSans-43" transform="translate(0 0.470313)"/>
      <use xlink:href="#DejaVuSans-41" transform="translate(69.824219 0.470313)"/>
      <use xlink:href="#DejaVuSans-44" transform="translate(138.232422 0.470313)"/>
      <use xlink:href="#DejaVuSans-45" transform="translate(215.234375 0.470313)"/>
      <use xlink:href="#DejaVuSans-54" transform="translate(278.417969 0.470313)"/>
      <use xlink:href="#DejaVuSans-2d" transform="translate(339.501953 0.470313)"/>
      <use xlink:href="#DejaVuSans-44" transform="translate(375.585938 0.470313)"/>
      <use xlink:href="#DejaVuSans-47" transform="translate(452.587891 0.470313)"/>
      <use xlink:href="#DejaVuSans-2c" transform="translate(530.078125 0.470313)"/>
      <use xlink:href="#DejaVuSans-20" transform="translate(561.865234 0.470313)"/>
      <use xlink:href="#DejaVuSans-45" transform="translate(593.652344 0.470313)"/>
      <use xlink:href="#DejaVuSans-78" transform="translate(656.835938 0.470313)"/>
      <use xlink:href="#DejaVuSans-61" transform="translate(716.015625 0.470313)"/>
      <use xlink:href="#DejaVuSans-63" transform="translate(777.294922 0.470313)"/>
      <use xlink:href="#DejaVuSans-74" transform="translate(832.275391 0.470313)"/>
      <use xlink:href="#DejaVuSans-2c" transform="translate(871.484375 0.470313)"/>
      <use xlink:href="#DejaVuSans-20" transform="translate(903.271484 0.470313)"/>
      <use xlink:href="#DejaVuSans-Oblique-4e" transform="translate(935.058594 0.470313)"/>
      <use xlink:href="#DejaVuSans-Oblique-62" transform="translate(1016.880052 39.810938) scale(0.7)"/>
      <use xlink:href="#DejaVuSans-Oblique-64" transform="translate(1009.863281 -26.873437) scale(0.7)"/>
      <use xlink:href="#DejaVuSans-3d" transform="translate(1064.048021 0.470313)"/>
      <use xlink:href="#DejaVuSans-35" transform="translate(1147.837083 0.470313)"/>
     </g>
    </g>
    <g id="line2d_82">
     <path d="M 442.5 541.321563 
L 462.5 541.321563 
L 482.5 541.321563 
" style="fill: none; stroke: #af1117; stroke-width: 2; stroke-linecap: square"/>
     <g>
      <use xlink:href="#m83ec1ddaff" x="462.5" y="541.321563" style="fill: #af1117; stroke: #af1117; stroke-linejoin: bevel"/>
     </g>
    </g>
    <g id="text_20">
     <!-- CADET-DG, Collocation, $N_d^b$=5 -->
     <g transform="translate(498.5 548.321563) scale(0.2 -0.2)">
      <use xlink:href="#DejaVuSans-43" transform="translate(0 0.470313)"/>
      <use xlink:href="#DejaVuSans-41" transform="translate(69.824219 0.470313)"/>
      <use xlink:href="#DejaVuSans-44" transform="translate(138.232422 0.470313)"/>
      <use xlink:href="#DejaVuSans-45" transform="translate(215.234375 0.470313)"/>
      <use xlink:href="#DejaVuSans-54" transform="translate(278.417969 0.470313)"/>
      <use xlink:href="#DejaVuSans-2d" transform="translate(339.501953 0.470313)"/>
      <use xlink:href="#DejaVuSans-44" transform="translate(375.585938 0.470313)"/>
      <use xlink:href="#DejaVuSans-47" transform="translate(452.587891 0.470313)"/>
      <use xlink:href="#DejaVuSans-2c" transform="translate(530.078125 0.470313)"/>
      <use xlink:href="#DejaVuSans-20" transform="translate(561.865234 0.470313)"/>
      <use xlink:href="#DejaVuSans-43" transform="translate(593.652344 0.470313)"/>
      <use xlink:href="#DejaVuSans-6f" transform="translate(663.476562 0.470313)"/>
      <use xlink:href="#DejaVuSans-6c" transform="translate(724.658203 0.470313)"/>
      <use xlink:href="#DejaVuSans-6c" transform="translate(752.441406 0.470313)"/>
      <use xlink:href="#DejaVuSans-6f" transform="translate(780.224609 0.470313)"/>
      <use xlink:href="#DejaVuSans-63" transform="translate(841.40625 0.470313)"/>
      <use xlink:href="#DejaVuSans-61" transform="translate(896.386719 0.470313)"/>
      <use xlink:href="#DejaVuSans-74" transform="translate(957.666016 0.470313)"/>
      <use xlink:href="#DejaVuSans-69" transform="translate(996.875 0.470313)"/>
      <use xlink:href="#DejaVuSans-6f" transform="translate(1024.658203 0.470313)"/>
      <use xlink:href="#DejaVuSans-6e" transform="translate(1085.839844 0.470313)"/>
      <use xlink:href="#DejaVuSans-2c" transform="translate(1149.21875 0.470313)"/>
      <use xlink:href="#DejaVuSans-20" transform="translate(1181.005859 0.470313)"/>
      <use xlink:href="#DejaVuSans-Oblique-4e" transform="translate(1212.792969 0.470313)"/>
      <use xlink:href="#DejaVuSans-Oblique-62" transform="translate(1294.614427 39.810938) scale(0.7)"/>
      <use xlink:href="#DejaVuSans-Oblique-64" transform="translate(1287.597656 -26.873437) scale(0.7)"/>
      <use xlink:href="#DejaVuSans-3d" transform="translate(1341.782396 0.470313)"/>
      <use xlink:href="#DejaVuSans-35" transform="translate(1425.571458 0.470313)"/>
     </g>
    </g>
    <g id="line2d_83">
     <path d="M 442.5 575.721563 
L 462.5 575.721563 
L 482.5 575.721563 
" style="fill: none; stroke: #3787c0; stroke-width: 2; stroke-linecap: square"/>
     <g>
      <use xlink:href="#mdd41d5212b" x="462.5" y="575.721563" style="fill: #3787c0; stroke: #3787c0; stroke-linejoin: bevel"/>
     </g>
    </g>
    <g id="text_21">
     <!-- CADET-DG, Exact, $N_d^b$=6 -->
     <g transform="translate(498.5 582.721563) scale(0.2 -0.2)">
      <use xlink:href="#DejaVuSans-43" transform="translate(0 0.470313)"/>
      <use xlink:href="#DejaVuSans-41" transform="translate(69.824219 0.470313)"/>
      <use xlink:href="#DejaVuSans-44" transform="translate(138.232422 0.470313)"/>
      <use xlink:href="#DejaVuSans-45" transform="translate(215.234375 0.470313)"/>
      <use xlink:href="#DejaVuSans-54" transform="translate(278.417969 0.470313)"/>
      <use xlink:href="#DejaVuSans-2d" transform="translate(339.501953 0.470313)"/>
      <use xlink:href="#DejaVuSans-44" transform="translate(375.585938 0.470313)"/>
      <use xlink:href="#DejaVuSans-47" transform="translate(452.587891 0.470313)"/>
      <use xlink:href="#DejaVuSans-2c" transform="translate(530.078125 0.470313)"/>
      <use xlink:href="#DejaVuSans-20" transform="translate(561.865234 0.470313)"/>
      <use xlink:href="#DejaVuSans-45" transform="translate(593.652344 0.470313)"/>
      <use xlink:href="#DejaVuSans-78" transform="translate(656.835938 0.470313)"/>
      <use xlink:href="#DejaVuSans-61" transform="translate(716.015625 0.470313)"/>
      <use xlink:href="#DejaVuSans-63" transform="translate(777.294922 0.470313)"/>
      <use xlink:href="#DejaVuSans-74" transform="translate(832.275391 0.470313)"/>
      <use xlink:href="#DejaVuSans-2c" transform="translate(871.484375 0.470313)"/>
      <use xlink:href="#DejaVuSans-20" transform="translate(903.271484 0.470313)"/>
      <use xlink:href="#DejaVuSans-Oblique-4e" transform="translate(935.058594 0.470313)"/>
      <use xlink:href="#DejaVuSans-Oblique-62" transform="translate(1016.880052 39.810938) scale(0.7)"/>
      <use xlink:href="#DejaVuSans-Oblique-64" transform="translate(1009.863281 -26.873437) scale(0.7)"/>
      <use xlink:href="#DejaVuSans-3d" transform="translate(1064.048021 0.470313)"/>
      <use xlink:href="#DejaVuSans-36" transform="translate(1147.837083 0.470313)"/>
     </g>
    </g>
    <g id="line2d_84">
     <path d="M 442.5 610.121563 
L 462.5 610.121563 
L 482.5 610.121563 
" style="fill: none; stroke: #dd2a25; stroke-width: 2; stroke-linecap: square"/>
     <g>
      <use xlink:href="#md4c50b8b0a" x="462.5" y="610.121563" style="fill: #dd2a25; stroke: #dd2a25; stroke-linejoin: bevel"/>
     </g>
    </g>
    <g id="text_22">
     <!-- CADET-DG, Collocation, $N_d^b$=6 -->
     <g transform="translate(498.5 617.121563) scale(0.2 -0.2)">
      <use xlink:href="#DejaVuSans-43" transform="translate(0 0.470313)"/>
      <use xlink:href="#DejaVuSans-41" transform="translate(69.824219 0.470313)"/>
      <use xlink:href="#DejaVuSans-44" transform="translate(138.232422 0.470313)"/>
      <use xlink:href="#DejaVuSans-45" transform="translate(215.234375 0.470313)"/>
      <use xlink:href="#DejaVuSans-54" transform="translate(278.417969 0.470313)"/>
      <use xlink:href="#DejaVuSans-2d" transform="translate(339.501953 0.470313)"/>
      <use xlink:href="#DejaVuSans-44" transform="translate(375.585938 0.470313)"/>
      <use xlink:href="#DejaVuSans-47" transform="translate(452.587891 0.470313)"/>
      <use xlink:href="#DejaVuSans-2c" transform="translate(530.078125 0.470313)"/>
      <use xlink:href="#DejaVuSans-20" transform="translate(561.865234 0.470313)"/>
      <use xlink:href="#DejaVuSans-43" transform="translate(593.652344 0.470313)"/>
      <use xlink:href="#DejaVuSans-6f" transform="translate(663.476562 0.470313)"/>
      <use xlink:href="#DejaVuSans-6c" transform="translate(724.658203 0.470313)"/>
      <use xlink:href="#DejaVuSans-6c" transform="translate(752.441406 0.470313)"/>
      <use xlink:href="#DejaVuSans-6f" transform="translate(780.224609 0.470313)"/>
      <use xlink:href="#DejaVuSans-63" transform="translate(841.40625 0.470313)"/>
      <use xlink:href="#DejaVuSans-61" transform="translate(896.386719 0.470313)"/>
      <use xlink:href="#DejaVuSans-74" transform="translate(957.666016 0.470313)"/>
      <use xlink:href="#DejaVuSans-69" transform="translate(996.875 0.470313)"/>
      <use xlink:href="#DejaVuSans-6f" transform="translate(1024.658203 0.470313)"/>
      <use xlink:href="#DejaVuSans-6e" transform="translate(1085.839844 0.470313)"/>
      <use xlink:href="#DejaVuSans-2c" transform="translate(1149.21875 0.470313)"/>
      <use xlink:href="#DejaVuSans-20" transform="translate(1181.005859 0.470313)"/>
      <use xlink:href="#DejaVuSans-Oblique-4e" transform="translate(1212.792969 0.470313)"/>
      <use xlink:href="#DejaVuSans-Oblique-62" transform="translate(1294.614427 39.810938) scale(0.7)"/>
      <use xlink:href="#DejaVuSans-Oblique-64" transform="translate(1287.597656 -26.873437) scale(0.7)"/>
      <use xlink:href="#DejaVuSans-3d" transform="translate(1341.782396 0.470313)"/>
      <use xlink:href="#DejaVuSans-36" transform="translate(1425.571458 0.470313)"/>
     </g>
    </g>
   </g>
  </g>
 </g>
 <defs>
  <clipPath id="p764065898d">
   <rect x="96.15" y="11.081563" width="641.7" height="345.6"/>
  </clipPath>
 </defs>
</svg>
