<?xml version="1.0" encoding="utf-8" standalone="no"?>
<!DOCTYPE svg PUBLIC "-//W3C//DTD SVG 1.1//EN"
  "http://www.w3.org/Graphics/SVG/1.1/DTD/svg11.dtd">
<svg xmlns:xlink="http://www.w3.org/1999/xlink" width="504pt" height="288pt" viewBox="0 0 504 288" xmlns="http://www.w3.org/2000/svg" version="1.1">
 <metadata>
  <rdf:RDF xmlns:dc="http://purl.org/dc/elements/1.1/" xmlns:cc="http://creativecommons.org/ns#" xmlns:rdf="http://www.w3.org/1999/02/22-rdf-syntax-ns#">
   <cc:Work>
    <dc:type rdf:resource="http://purl.org/dc/dcmitype/StillImage"/>
    <dc:date>2024-04-18T08:37:36.393299</dc:date>
    <dc:format>image/svg+xml</dc:format>
    <dc:creator>
     <cc:Agent>
      <dc:title>Matplotlib v3.7.1, https://matplotlib.org/</dc:title>
     </cc:Agent>
    </dc:creator>
   </cc:Work>
  </rdf:RDF>
 </metadata>
 <defs>
  <style type="text/css">*{stroke-linejoin: round; stroke-linecap: butt}</style>
 </defs>
 <g id="figure_1">
  <g id="patch_1">
   <path d="M 0 288 
L 504 288 
L 504 0 
L 0 0 
z
" style="fill: #ffffff"/>
  </g>
  <g id="axes_1">
   <g id="patch_2">
    <path d="M 63 252 
L 453.6 252 
L 453.6 34.56 
L 63 34.56 
z
" style="fill: #ffffff"/>
   </g>
   <g id="matplotlib.axis_1">
    <g id="xtick_1">
     <g id="line2d_1">
      <defs>
       <path id="m1aa71365c6" d="M 0 0 
L 0 3.5 
" style="stroke: #000000; stroke-width: 0.8"/>
      </defs>
      <g>
       <use xlink:href="#m1aa71365c6" x="80.754545" y="252" style="stroke: #000000; stroke-width: 0.8"/>
      </g>
     </g>
     <g id="text_1">
      <!-- 0 -->
      <g transform="translate(77.573295 266.598437) scale(0.1 -0.1)">
       <defs>
        <path id="DejaVuSans-30" d="M 2034 4250 
Q 1547 4250 1301 3770 
Q 1056 3291 1056 2328 
Q 1056 1369 1301 889 
Q 1547 409 2034 409 
Q 2525 409 2770 889 
Q 3016 1369 3016 2328 
Q 3016 3291 2770 3770 
Q 2525 4250 2034 4250 
z
M 2034 4750 
Q 2819 4750 3233 4129 
Q 3647 3509 3647 2328 
Q 3647 1150 3233 529 
Q 2819 -91 2034 -91 
Q 1250 -91 836 529 
Q 422 1150 422 2328 
Q 422 3509 836 4129 
Q 1250 4750 2034 4750 
z
" transform="scale(0.015625)"/>
       </defs>
       <use xlink:href="#DejaVuSans-30"/>
      </g>
     </g>
    </g>
    <g id="xtick_2">
     <g id="line2d_2">
      <g>
       <use xlink:href="#m1aa71365c6" x="125.140909" y="252" style="stroke: #000000; stroke-width: 0.8"/>
      </g>
     </g>
     <g id="text_2">
      <!-- 5 -->
      <g transform="translate(121.959659 266.598437) scale(0.1 -0.1)">
       <defs>
        <path id="DejaVuSans-35" d="M 691 4666 
L 3169 4666 
L 3169 4134 
L 1269 4134 
L 1269 2991 
Q 1406 3038 1543 3061 
Q 1681 3084 1819 3084 
Q 2600 3084 3056 2656 
Q 3513 2228 3513 1497 
Q 3513 744 3044 326 
Q 2575 -91 1722 -91 
Q 1428 -91 1123 -41 
Q 819 9 494 109 
L 494 744 
Q 775 591 1075 516 
Q 1375 441 1709 441 
Q 2250 441 2565 725 
Q 2881 1009 2881 1497 
Q 2881 1984 2565 2268 
Q 2250 2553 1709 2553 
Q 1456 2553 1204 2497 
Q 953 2441 691 2322 
L 691 4666 
z
" transform="scale(0.015625)"/>
       </defs>
       <use xlink:href="#DejaVuSans-35"/>
      </g>
     </g>
    </g>
    <g id="xtick_3">
     <g id="line2d_3">
      <g>
       <use xlink:href="#m1aa71365c6" x="169.527273" y="252" style="stroke: #000000; stroke-width: 0.8"/>
      </g>
     </g>
     <g id="text_3">
      <!-- 10 -->
      <g transform="translate(163.164773 266.598437) scale(0.1 -0.1)">
       <defs>
        <path id="DejaVuSans-31" d="M 794 531 
L 1825 531 
L 1825 4091 
L 703 3866 
L 703 4441 
L 1819 4666 
L 2450 4666 
L 2450 531 
L 3481 531 
L 3481 0 
L 794 0 
L 794 531 
z
" transform="scale(0.015625)"/>
       </defs>
       <use xlink:href="#DejaVuSans-31"/>
       <use xlink:href="#DejaVuSans-30" x="63.623047"/>
      </g>
     </g>
    </g>
    <g id="xtick_4">
     <g id="line2d_4">
      <g>
       <use xlink:href="#m1aa71365c6" x="213.913636" y="252" style="stroke: #000000; stroke-width: 0.8"/>
      </g>
     </g>
     <g id="text_4">
      <!-- 15 -->
      <g transform="translate(207.551136 266.598437) scale(0.1 -0.1)">
       <use xlink:href="#DejaVuSans-31"/>
       <use xlink:href="#DejaVuSans-35" x="63.623047"/>
      </g>
     </g>
    </g>
    <g id="xtick_5">
     <g id="line2d_5">
      <g>
       <use xlink:href="#m1aa71365c6" x="258.3" y="252" style="stroke: #000000; stroke-width: 0.8"/>
      </g>
     </g>
     <g id="text_5">
      <!-- 20 -->
      <g transform="translate(251.9375 266.598437) scale(0.1 -0.1)">
       <defs>
        <path id="DejaVuSans-32" d="M 1228 531 
L 3431 531 
L 3431 0 
L 469 0 
L 469 531 
Q 828 903 1448 1529 
Q 2069 2156 2228 2338 
Q 2531 2678 2651 2914 
Q 2772 3150 2772 3378 
Q 2772 3750 2511 3984 
Q 2250 4219 1831 4219 
Q 1534 4219 1204 4116 
Q 875 4013 500 3803 
L 500 4441 
Q 881 4594 1212 4672 
Q 1544 4750 1819 4750 
Q 2544 4750 2975 4387 
Q 3406 4025 3406 3419 
Q 3406 3131 3298 2873 
Q 3191 2616 2906 2266 
Q 2828 2175 2409 1742 
Q 1991 1309 1228 531 
z
" transform="scale(0.015625)"/>
       </defs>
       <use xlink:href="#DejaVuSans-32"/>
       <use xlink:href="#DejaVuSans-30" x="63.623047"/>
      </g>
     </g>
    </g>
    <g id="xtick_6">
     <g id="line2d_6">
      <g>
       <use xlink:href="#m1aa71365c6" x="302.686364" y="252" style="stroke: #000000; stroke-width: 0.8"/>
      </g>
     </g>
     <g id="text_6">
      <!-- 25 -->
      <g transform="translate(296.323864 266.598437) scale(0.1 -0.1)">
       <use xlink:href="#DejaVuSans-32"/>
       <use xlink:href="#DejaVuSans-35" x="63.623047"/>
      </g>
     </g>
    </g>
    <g id="xtick_7">
     <g id="line2d_7">
      <g>
       <use xlink:href="#m1aa71365c6" x="347.072727" y="252" style="stroke: #000000; stroke-width: 0.8"/>
      </g>
     </g>
     <g id="text_7">
      <!-- 30 -->
      <g transform="translate(340.710227 266.598437) scale(0.1 -0.1)">
       <defs>
        <path id="DejaVuSans-33" d="M 2597 2516 
Q 3050 2419 3304 2112 
Q 3559 1806 3559 1356 
Q 3559 666 3084 287 
Q 2609 -91 1734 -91 
Q 1441 -91 1130 -33 
Q 819 25 488 141 
L 488 750 
Q 750 597 1062 519 
Q 1375 441 1716 441 
Q 2309 441 2620 675 
Q 2931 909 2931 1356 
Q 2931 1769 2642 2001 
Q 2353 2234 1838 2234 
L 1294 2234 
L 1294 2753 
L 1863 2753 
Q 2328 2753 2575 2939 
Q 2822 3125 2822 3475 
Q 2822 3834 2567 4026 
Q 2313 4219 1838 4219 
Q 1578 4219 1281 4162 
Q 984 4106 628 3988 
L 628 4550 
Q 988 4650 1302 4700 
Q 1616 4750 1894 4750 
Q 2613 4750 3031 4423 
Q 3450 4097 3450 3541 
Q 3450 3153 3228 2886 
Q 3006 2619 2597 2516 
z
" transform="scale(0.015625)"/>
       </defs>
       <use xlink:href="#DejaVuSans-33"/>
       <use xlink:href="#DejaVuSans-30" x="63.623047"/>
      </g>
     </g>
    </g>
    <g id="xtick_8">
     <g id="line2d_8">
      <g>
       <use xlink:href="#m1aa71365c6" x="391.459091" y="252" style="stroke: #000000; stroke-width: 0.8"/>
      </g>
     </g>
     <g id="text_8">
      <!-- 35 -->
      <g transform="translate(385.096591 266.598437) scale(0.1 -0.1)">
       <use xlink:href="#DejaVuSans-33"/>
       <use xlink:href="#DejaVuSans-35" x="63.623047"/>
      </g>
     </g>
    </g>
    <g id="xtick_9">
     <g id="line2d_9">
      <g>
       <use xlink:href="#m1aa71365c6" x="435.845455" y="252" style="stroke: #000000; stroke-width: 0.8"/>
      </g>
     </g>
     <g id="text_9">
      <!-- 40 -->
      <g transform="translate(429.482955 266.598437) scale(0.1 -0.1)">
       <defs>
        <path id="DejaVuSans-34" d="M 2419 4116 
L 825 1625 
L 2419 1625 
L 2419 4116 
z
M 2253 4666 
L 3047 4666 
L 3047 1625 
L 3713 1625 
L 3713 1100 
L 3047 1100 
L 3047 0 
L 2419 0 
L 2419 1100 
L 313 1100 
L 313 1709 
L 2253 4666 
z
" transform="scale(0.015625)"/>
       </defs>
       <use xlink:href="#DejaVuSans-34"/>
       <use xlink:href="#DejaVuSans-30" x="63.623047"/>
      </g>
     </g>
    </g>
    <g id="text_10">
     <!-- Time (s) -->
     <g transform="translate(227.806641 284.075781) scale(0.15 -0.15)">
      <defs>
       <path id="DejaVuSans-54" d="M -19 4666 
L 3928 4666 
L 3928 4134 
L 2272 4134 
L 2272 0 
L 1638 0 
L 1638 4134 
L -19 4134 
L -19 4666 
z
" transform="scale(0.015625)"/>
       <path id="DejaVuSans-69" d="M 603 3500 
L 1178 3500 
L 1178 0 
L 603 0 
L 603 3500 
z
M 603 4863 
L 1178 4863 
L 1178 4134 
L 603 4134 
L 603 4863 
z
" transform="scale(0.015625)"/>
       <path id="DejaVuSans-6d" d="M 3328 2828 
Q 3544 3216 3844 3400 
Q 4144 3584 4550 3584 
Q 5097 3584 5394 3201 
Q 5691 2819 5691 2113 
L 5691 0 
L 5113 0 
L 5113 2094 
Q 5113 2597 4934 2840 
Q 4756 3084 4391 3084 
Q 3944 3084 3684 2787 
Q 3425 2491 3425 1978 
L 3425 0 
L 2847 0 
L 2847 2094 
Q 2847 2600 2669 2842 
Q 2491 3084 2119 3084 
Q 1678 3084 1418 2786 
Q 1159 2488 1159 1978 
L 1159 0 
L 581 0 
L 581 3500 
L 1159 3500 
L 1159 2956 
Q 1356 3278 1631 3431 
Q 1906 3584 2284 3584 
Q 2666 3584 2933 3390 
Q 3200 3197 3328 2828 
z
" transform="scale(0.015625)"/>
       <path id="DejaVuSans-65" d="M 3597 1894 
L 3597 1613 
L 953 1613 
Q 991 1019 1311 708 
Q 1631 397 2203 397 
Q 2534 397 2845 478 
Q 3156 559 3463 722 
L 3463 178 
Q 3153 47 2828 -22 
Q 2503 -91 2169 -91 
Q 1331 -91 842 396 
Q 353 884 353 1716 
Q 353 2575 817 3079 
Q 1281 3584 2069 3584 
Q 2775 3584 3186 3129 
Q 3597 2675 3597 1894 
z
M 3022 2063 
Q 3016 2534 2758 2815 
Q 2500 3097 2075 3097 
Q 1594 3097 1305 2825 
Q 1016 2553 972 2059 
L 3022 2063 
z
" transform="scale(0.015625)"/>
       <path id="DejaVuSans-20" transform="scale(0.015625)"/>
       <path id="DejaVuSans-28" d="M 1984 4856 
Q 1566 4138 1362 3434 
Q 1159 2731 1159 2009 
Q 1159 1288 1364 580 
Q 1569 -128 1984 -844 
L 1484 -844 
Q 1016 -109 783 600 
Q 550 1309 550 2009 
Q 550 2706 781 3412 
Q 1013 4119 1484 4856 
L 1984 4856 
z
" transform="scale(0.015625)"/>
       <path id="DejaVuSans-73" d="M 2834 3397 
L 2834 2853 
Q 2591 2978 2328 3040 
Q 2066 3103 1784 3103 
Q 1356 3103 1142 2972 
Q 928 2841 928 2578 
Q 928 2378 1081 2264 
Q 1234 2150 1697 2047 
L 1894 2003 
Q 2506 1872 2764 1633 
Q 3022 1394 3022 966 
Q 3022 478 2636 193 
Q 2250 -91 1575 -91 
Q 1294 -91 989 -36 
Q 684 19 347 128 
L 347 722 
Q 666 556 975 473 
Q 1284 391 1588 391 
Q 1994 391 2212 530 
Q 2431 669 2431 922 
Q 2431 1156 2273 1281 
Q 2116 1406 1581 1522 
L 1381 1569 
Q 847 1681 609 1914 
Q 372 2147 372 2553 
Q 372 3047 722 3315 
Q 1072 3584 1716 3584 
Q 2034 3584 2315 3537 
Q 2597 3491 2834 3397 
z
" transform="scale(0.015625)"/>
       <path id="DejaVuSans-29" d="M 513 4856 
L 1013 4856 
Q 1481 4119 1714 3412 
Q 1947 2706 1947 2009 
Q 1947 1309 1714 600 
Q 1481 -109 1013 -844 
L 513 -844 
Q 928 -128 1133 580 
Q 1338 1288 1338 2009 
Q 1338 2731 1133 3434 
Q 928 4138 513 4856 
z
" transform="scale(0.015625)"/>
      </defs>
      <use xlink:href="#DejaVuSans-54"/>
      <use xlink:href="#DejaVuSans-69" x="57.958984"/>
      <use xlink:href="#DejaVuSans-6d" x="85.742188"/>
      <use xlink:href="#DejaVuSans-65" x="183.154297"/>
      <use xlink:href="#DejaVuSans-20" x="244.677734"/>
      <use xlink:href="#DejaVuSans-28" x="276.464844"/>
      <use xlink:href="#DejaVuSans-73" x="315.478516"/>
      <use xlink:href="#DejaVuSans-29" x="367.578125"/>
     </g>
    </g>
   </g>
   <g id="matplotlib.axis_2">
    <g id="ytick_1">
     <g id="line2d_10">
      <defs>
       <path id="mea99858182" d="M 0 0 
L -3.5 0 
" style="stroke: #000000; stroke-width: 0.8"/>
      </defs>
      <g>
       <use xlink:href="#mea99858182" x="63" y="248.824033" style="stroke: #000000; stroke-width: 0.8"/>
      </g>
     </g>
     <g id="text_11">
      <!-- −2 -->
      <g transform="translate(41.257812 252.623252) scale(0.1 -0.1)">
       <defs>
        <path id="DejaVuSans-2212" d="M 678 2272 
L 4684 2272 
L 4684 1741 
L 678 1741 
L 678 2272 
z
" transform="scale(0.015625)"/>
       </defs>
       <use xlink:href="#DejaVuSans-2212"/>
       <use xlink:href="#DejaVuSans-32" x="83.789062"/>
      </g>
     </g>
    </g>
    <g id="ytick_2">
     <g id="line2d_11">
      <g>
       <use xlink:href="#mea99858182" x="63" y="220.667609" style="stroke: #000000; stroke-width: 0.8"/>
      </g>
     </g>
     <g id="text_12">
      <!-- 0 -->
      <g transform="translate(49.6375 224.466828) scale(0.1 -0.1)">
       <use xlink:href="#DejaVuSans-30"/>
      </g>
     </g>
    </g>
    <g id="ytick_3">
     <g id="line2d_12">
      <g>
       <use xlink:href="#mea99858182" x="63" y="192.511185" style="stroke: #000000; stroke-width: 0.8"/>
      </g>
     </g>
     <g id="text_13">
      <!-- 2 -->
      <g transform="translate(49.6375 196.310404) scale(0.1 -0.1)">
       <use xlink:href="#DejaVuSans-32"/>
      </g>
     </g>
    </g>
    <g id="ytick_4">
     <g id="line2d_13">
      <g>
       <use xlink:href="#mea99858182" x="63" y="164.354761" style="stroke: #000000; stroke-width: 0.8"/>
      </g>
     </g>
     <g id="text_14">
      <!-- 4 -->
      <g transform="translate(49.6375 168.15398) scale(0.1 -0.1)">
       <use xlink:href="#DejaVuSans-34"/>
      </g>
     </g>
    </g>
    <g id="ytick_5">
     <g id="line2d_14">
      <g>
       <use xlink:href="#mea99858182" x="63" y="136.198337" style="stroke: #000000; stroke-width: 0.8"/>
      </g>
     </g>
     <g id="text_15">
      <!-- 6 -->
      <g transform="translate(49.6375 139.997555) scale(0.1 -0.1)">
       <defs>
        <path id="DejaVuSans-36" d="M 2113 2584 
Q 1688 2584 1439 2293 
Q 1191 2003 1191 1497 
Q 1191 994 1439 701 
Q 1688 409 2113 409 
Q 2538 409 2786 701 
Q 3034 994 3034 1497 
Q 3034 2003 2786 2293 
Q 2538 2584 2113 2584 
z
M 3366 4563 
L 3366 3988 
Q 3128 4100 2886 4159 
Q 2644 4219 2406 4219 
Q 1781 4219 1451 3797 
Q 1122 3375 1075 2522 
Q 1259 2794 1537 2939 
Q 1816 3084 2150 3084 
Q 2853 3084 3261 2657 
Q 3669 2231 3669 1497 
Q 3669 778 3244 343 
Q 2819 -91 2113 -91 
Q 1303 -91 875 529 
Q 447 1150 447 2328 
Q 447 3434 972 4092 
Q 1497 4750 2381 4750 
Q 2619 4750 2861 4703 
Q 3103 4656 3366 4563 
z
" transform="scale(0.015625)"/>
       </defs>
       <use xlink:href="#DejaVuSans-36"/>
      </g>
     </g>
    </g>
    <g id="ytick_6">
     <g id="line2d_15">
      <g>
       <use xlink:href="#mea99858182" x="63" y="108.041913" style="stroke: #000000; stroke-width: 0.8"/>
      </g>
     </g>
     <g id="text_16">
      <!-- 8 -->
      <g transform="translate(49.6375 111.841131) scale(0.1 -0.1)">
       <defs>
        <path id="DejaVuSans-38" d="M 2034 2216 
Q 1584 2216 1326 1975 
Q 1069 1734 1069 1313 
Q 1069 891 1326 650 
Q 1584 409 2034 409 
Q 2484 409 2743 651 
Q 3003 894 3003 1313 
Q 3003 1734 2745 1975 
Q 2488 2216 2034 2216 
z
M 1403 2484 
Q 997 2584 770 2862 
Q 544 3141 544 3541 
Q 544 4100 942 4425 
Q 1341 4750 2034 4750 
Q 2731 4750 3128 4425 
Q 3525 4100 3525 3541 
Q 3525 3141 3298 2862 
Q 3072 2584 2669 2484 
Q 3125 2378 3379 2068 
Q 3634 1759 3634 1313 
Q 3634 634 3220 271 
Q 2806 -91 2034 -91 
Q 1263 -91 848 271 
Q 434 634 434 1313 
Q 434 1759 690 2068 
Q 947 2378 1403 2484 
z
M 1172 3481 
Q 1172 3119 1398 2916 
Q 1625 2713 2034 2713 
Q 2441 2713 2670 2916 
Q 2900 3119 2900 3481 
Q 2900 3844 2670 4047 
Q 2441 4250 2034 4250 
Q 1625 4250 1398 4047 
Q 1172 3844 1172 3481 
z
" transform="scale(0.015625)"/>
       </defs>
       <use xlink:href="#DejaVuSans-38"/>
      </g>
     </g>
    </g>
    <g id="ytick_7">
     <g id="line2d_16">
      <g>
       <use xlink:href="#mea99858182" x="63" y="79.885488" style="stroke: #000000; stroke-width: 0.8"/>
      </g>
     </g>
     <g id="text_17">
      <!-- 10 -->
      <g transform="translate(43.275 83.684707) scale(0.1 -0.1)">
       <use xlink:href="#DejaVuSans-31"/>
       <use xlink:href="#DejaVuSans-30" x="63.623047"/>
      </g>
     </g>
    </g>
    <g id="ytick_8">
     <g id="line2d_17">
      <g>
       <use xlink:href="#mea99858182" x="63" y="51.729064" style="stroke: #000000; stroke-width: 0.8"/>
      </g>
     </g>
     <g id="text_18">
      <!-- 12 -->
      <g transform="translate(43.275 55.528283) scale(0.1 -0.1)">
       <use xlink:href="#DejaVuSans-31"/>
       <use xlink:href="#DejaVuSans-32" x="63.623047"/>
      </g>
     </g>
    </g>
    <g id="text_19">
     <!-- Concentration (mol/m$^3$) -->
     <g transform="translate(34.138281 232.005) rotate(-90) scale(0.15 -0.15)">
      <defs>
       <path id="DejaVuSans-43" d="M 4122 4306 
L 4122 3641 
Q 3803 3938 3442 4084 
Q 3081 4231 2675 4231 
Q 1875 4231 1450 3742 
Q 1025 3253 1025 2328 
Q 1025 1406 1450 917 
Q 1875 428 2675 428 
Q 3081 428 3442 575 
Q 3803 722 4122 1019 
L 4122 359 
Q 3791 134 3420 21 
Q 3050 -91 2638 -91 
Q 1578 -91 968 557 
Q 359 1206 359 2328 
Q 359 3453 968 4101 
Q 1578 4750 2638 4750 
Q 3056 4750 3426 4639 
Q 3797 4528 4122 4306 
z
" transform="scale(0.015625)"/>
       <path id="DejaVuSans-6f" d="M 1959 3097 
Q 1497 3097 1228 2736 
Q 959 2375 959 1747 
Q 959 1119 1226 758 
Q 1494 397 1959 397 
Q 2419 397 2687 759 
Q 2956 1122 2956 1747 
Q 2956 2369 2687 2733 
Q 2419 3097 1959 3097 
z
M 1959 3584 
Q 2709 3584 3137 3096 
Q 3566 2609 3566 1747 
Q 3566 888 3137 398 
Q 2709 -91 1959 -91 
Q 1206 -91 779 398 
Q 353 888 353 1747 
Q 353 2609 779 3096 
Q 1206 3584 1959 3584 
z
" transform="scale(0.015625)"/>
       <path id="DejaVuSans-6e" d="M 3513 2113 
L 3513 0 
L 2938 0 
L 2938 2094 
Q 2938 2591 2744 2837 
Q 2550 3084 2163 3084 
Q 1697 3084 1428 2787 
Q 1159 2491 1159 1978 
L 1159 0 
L 581 0 
L 581 3500 
L 1159 3500 
L 1159 2956 
Q 1366 3272 1645 3428 
Q 1925 3584 2291 3584 
Q 2894 3584 3203 3211 
Q 3513 2838 3513 2113 
z
" transform="scale(0.015625)"/>
       <path id="DejaVuSans-63" d="M 3122 3366 
L 3122 2828 
Q 2878 2963 2633 3030 
Q 2388 3097 2138 3097 
Q 1578 3097 1268 2742 
Q 959 2388 959 1747 
Q 959 1106 1268 751 
Q 1578 397 2138 397 
Q 2388 397 2633 464 
Q 2878 531 3122 666 
L 3122 134 
Q 2881 22 2623 -34 
Q 2366 -91 2075 -91 
Q 1284 -91 818 406 
Q 353 903 353 1747 
Q 353 2603 823 3093 
Q 1294 3584 2113 3584 
Q 2378 3584 2631 3529 
Q 2884 3475 3122 3366 
z
" transform="scale(0.015625)"/>
       <path id="DejaVuSans-74" d="M 1172 4494 
L 1172 3500 
L 2356 3500 
L 2356 3053 
L 1172 3053 
L 1172 1153 
Q 1172 725 1289 603 
Q 1406 481 1766 481 
L 2356 481 
L 2356 0 
L 1766 0 
Q 1100 0 847 248 
Q 594 497 594 1153 
L 594 3053 
L 172 3053 
L 172 3500 
L 594 3500 
L 594 4494 
L 1172 4494 
z
" transform="scale(0.015625)"/>
       <path id="DejaVuSans-72" d="M 2631 2963 
Q 2534 3019 2420 3045 
Q 2306 3072 2169 3072 
Q 1681 3072 1420 2755 
Q 1159 2438 1159 1844 
L 1159 0 
L 581 0 
L 581 3500 
L 1159 3500 
L 1159 2956 
Q 1341 3275 1631 3429 
Q 1922 3584 2338 3584 
Q 2397 3584 2469 3576 
Q 2541 3569 2628 3553 
L 2631 2963 
z
" transform="scale(0.015625)"/>
       <path id="DejaVuSans-61" d="M 2194 1759 
Q 1497 1759 1228 1600 
Q 959 1441 959 1056 
Q 959 750 1161 570 
Q 1363 391 1709 391 
Q 2188 391 2477 730 
Q 2766 1069 2766 1631 
L 2766 1759 
L 2194 1759 
z
M 3341 1997 
L 3341 0 
L 2766 0 
L 2766 531 
Q 2569 213 2275 61 
Q 1981 -91 1556 -91 
Q 1019 -91 701 211 
Q 384 513 384 1019 
Q 384 1609 779 1909 
Q 1175 2209 1959 2209 
L 2766 2209 
L 2766 2266 
Q 2766 2663 2505 2880 
Q 2244 3097 1772 3097 
Q 1472 3097 1187 3025 
Q 903 2953 641 2809 
L 641 3341 
Q 956 3463 1253 3523 
Q 1550 3584 1831 3584 
Q 2591 3584 2966 3190 
Q 3341 2797 3341 1997 
z
" transform="scale(0.015625)"/>
       <path id="DejaVuSans-6c" d="M 603 4863 
L 1178 4863 
L 1178 0 
L 603 0 
L 603 4863 
z
" transform="scale(0.015625)"/>
       <path id="DejaVuSans-2f" d="M 1625 4666 
L 2156 4666 
L 531 -594 
L 0 -594 
L 1625 4666 
z
" transform="scale(0.015625)"/>
      </defs>
      <use xlink:href="#DejaVuSans-43" transform="translate(0 0.765625)"/>
      <use xlink:href="#DejaVuSans-6f" transform="translate(69.824219 0.765625)"/>
      <use xlink:href="#DejaVuSans-6e" transform="translate(131.005859 0.765625)"/>
      <use xlink:href="#DejaVuSans-63" transform="translate(194.384766 0.765625)"/>
      <use xlink:href="#DejaVuSans-65" transform="translate(249.365234 0.765625)"/>
      <use xlink:href="#DejaVuSans-6e" transform="translate(310.888672 0.765625)"/>
      <use xlink:href="#DejaVuSans-74" transform="translate(374.267578 0.765625)"/>
      <use xlink:href="#DejaVuSans-72" transform="translate(413.476562 0.765625)"/>
      <use xlink:href="#DejaVuSans-61" transform="translate(454.589844 0.765625)"/>
      <use xlink:href="#DejaVuSans-74" transform="translate(515.869141 0.765625)"/>
      <use xlink:href="#DejaVuSans-69" transform="translate(555.078125 0.765625)"/>
      <use xlink:href="#DejaVuSans-6f" transform="translate(582.861328 0.765625)"/>
      <use xlink:href="#DejaVuSans-6e" transform="translate(644.042969 0.765625)"/>
      <use xlink:href="#DejaVuSans-20" transform="translate(707.421875 0.765625)"/>
      <use xlink:href="#DejaVuSans-28" transform="translate(739.208984 0.765625)"/>
      <use xlink:href="#DejaVuSans-6d" transform="translate(778.222656 0.765625)"/>
      <use xlink:href="#DejaVuSans-6f" transform="translate(875.634766 0.765625)"/>
      <use xlink:href="#DejaVuSans-6c" transform="translate(936.816406 0.765625)"/>
      <use xlink:href="#DejaVuSans-2f" transform="translate(964.599609 0.765625)"/>
      <use xlink:href="#DejaVuSans-6d" transform="translate(998.291016 0.765625)"/>
      <use xlink:href="#DejaVuSans-33" transform="translate(1096.660156 39.046875) scale(0.7)"/>
      <use xlink:href="#DejaVuSans-29" transform="translate(1143.930664 0.765625)"/>
     </g>
    </g>
   </g>
   <g id="line2d_18">
    <path d="M 80.754545 220.667609 
L 82.53 220.233902 
L 83.417727 220.399556 
L 86.080909 221.630686 
L 86.968636 221.737764 
L 87.856364 221.589362 
L 88.744091 221.219115 
L 92.295 219.054368 
L 93.182727 218.760257 
L 94.070455 218.693699 
L 94.958182 218.876616 
L 95.845909 219.298147 
L 97.621364 220.66474 
L 99.396818 222.229441 
L 100.284545 222.887239 
L 101.172273 223.375722 
L 102.06 223.652789 
L 102.947727 223.697128 
L 103.835455 223.507903 
L 104.723182 223.102798 
L 105.610909 222.514806 
L 107.386364 220.973349 
L 110.049545 218.50748 
L 111.825 217.251247 
L 112.712727 216.815747 
L 113.600455 216.523379 
L 114.488182 216.379107 
L 115.375909 216.387014 
L 116.263636 216.553636 
L 117.151364 216.890172 
L 118.039091 217.412213 
L 118.926818 218.135927 
L 119.814545 219.070912 
L 121.59 221.531744 
L 125.140909 227.320305 
L 126.028636 228.463323 
L 126.916364 229.308261 
L 127.804091 229.783017 
L 128.691818 229.832418 
L 129.579545 229.421636 
L 130.467273 228.538879 
L 131.355 227.197256 
L 132.242727 225.43552 
L 134.018182 220.928595 
L 137.569091 210.885756 
L 138.456818 208.83902 
L 139.344545 207.187095 
L 140.232273 206.006394 
L 141.12 205.35155 
L 142.007727 205.254161 
L 142.895455 205.722894 
L 143.783182 206.744659 
L 144.670909 208.286562 
L 145.558636 210.298347 
L 146.446364 212.715093 
L 148.221818 218.447242 
L 151.772727 230.928092 
L 153.548182 236.125221 
L 154.435909 238.125951 
L 155.323636 239.600967 
L 156.211364 240.453994 
L 157.099091 240.588097 
L 157.986818 239.907723 
L 158.874545 238.323327 
L 159.762273 235.758792 
L 160.65 232.160917 
L 161.537727 227.509154 
L 162.425455 221.823165 
L 163.313182 215.165999 
L 165.088636 199.389113 
L 167.751818 171.933958 
L 170.415 144.002877 
L 172.190455 127.004872 
L 173.965909 112.168305 
L 175.741364 99.868327 
L 177.516818 90.204883 
L 178.404545 86.33322 
L 179.292273 83.065523 
L 180.18 80.3652 
L 181.067727 78.190225 
L 181.955455 76.494799 
L 182.843182 75.230833 
L 183.730909 74.349271 
L 184.618636 73.801222 
L 185.506364 73.538925 
L 186.394091 73.516541 
L 187.281818 73.690784 
L 188.169545 74.382355 
L 189.057273 74.927764 
L 189.945 75.018552 
L 190.832727 74.977814 
L 191.720455 75.163799 
L 192.608182 75.758345 
L 193.495909 76.748833 
L 196.159091 80.432123 
L 197.046818 81.29881 
L 197.934545 81.804072 
L 198.822273 81.935603 
L 199.71 81.735433 
L 200.597727 81.284026 
L 203.260909 79.459197 
L 204.148636 79.020644 
L 205.036364 78.786006 
L 205.924091 78.787992 
L 206.811818 79.030929 
L 207.699545 79.49247 
L 209.475 80.873495 
L 211.250455 82.403289 
L 212.138182 83.037757 
L 213.025909 83.497946 
L 213.913636 83.735683 
L 214.801364 83.721168 
L 215.689091 83.444778 
L 216.576818 82.917189 
L 217.464545 82.167922 
L 219.24 80.199051 
L 221.903182 77.027588 
L 222.790909 76.176609 
L 223.678636 75.522266 
L 224.566364 75.103753 
L 225.454091 74.945837 
L 226.341818 75.057932 
L 227.229545 75.434124 
L 228.117273 76.054088 
L 229.005 76.884758 
L 230.780455 78.996258 
L 233.443636 82.463639 
L 235.219091 84.327508 
L 236.106818 84.984947 
L 236.994545 85.415823 
L 237.882273 85.600084 
L 238.77 85.528497 
L 239.657727 85.202717 
L 240.545455 84.634955 
L 241.433182 83.84728 
L 243.208636 81.743318 
L 248.535 74.523178 
L 249.422727 73.716932 
L 250.310455 73.147055 
L 251.198182 72.849266 
L 252.085909 72.852886 
L 252.973636 73.180397 
L 253.861364 73.847233 
L 254.749091 74.861802 
L 255.636818 76.225713 
L 256.524545 77.934172 
L 257.412273 79.976528 
L 259.187727 84.995067 
L 260.963182 91.105665 
L 262.738636 98.086593 
L 265.401818 109.657893 
L 273.391364 145.511069 
L 276.054545 156.193091 
L 278.717727 165.862914 
L 281.380909 174.498461 
L 284.044091 182.150423 
L 286.707273 188.903041 
L 289.370455 194.846606 
L 292.033636 200.061631 
L 294.696818 204.612475 
L 297.36 208.547519 
L 299.135455 210.847065 
L 300.910909 212.898181 
L 302.686364 214.709312 
L 304.461818 216.289083 
L 306.237273 217.646865 
L 308.012727 218.793196 
L 309.788182 219.740045 
L 311.563636 220.500919 
L 313.339091 221.090823 
L 316.002273 221.691117 
L 318.665455 222.002835 
L 321.328636 222.087507 
L 324.879545 221.951631 
L 330.205909 221.474131 
L 338.195455 220.752954 
L 343.521818 220.489577 
L 349.735909 220.415751 
L 360.388636 220.577936 
L 373.704545 220.721873 
L 402.999545 220.65792 
L 435.845455 220.668801 
L 435.845455 220.668801 
" clip-path="url(#p997f2605c6)" style="fill: none; stroke-dasharray: 5.55,2.4; stroke-dashoffset: 0; stroke: #008000; stroke-width: 1.5"/>
   </g>
   <g id="line2d_19">
    <path d="M 80.754545 220.667609 
L 150.885 220.568552 
L 152.660455 220.595524 
L 156.211364 221.086967 
L 157.099091 220.925945 
L 157.986818 220.512749 
L 159.762273 219.43855 
L 160.65 219.350042 
L 161.537727 219.924475 
L 163.313182 222.542635 
L 164.200909 223.196562 
L 165.088636 221.846886 
L 165.976364 217.273286 
L 166.864091 208.736987 
L 167.751818 196.285302 
L 169.527273 163.48226 
L 171.302727 129.544362 
L 172.190455 115.16231 
L 173.078182 103.369494 
L 173.965909 94.319555 
L 174.853636 87.85984 
L 175.741364 83.633326 
L 176.629091 81.176693 
L 177.516818 80.002296 
L 178.404545 79.658969 
L 179.292273 79.771016 
L 181.067727 80.333337 
L 181.955455 80.50171 
L 182.843182 80.533388 
L 184.618636 80.283349 
L 187.281818 79.798108 
L 189.057273 79.718309 
L 197.046818 79.89376 
L 202.373182 79.878028 
L 214.801364 79.886123 
L 256.524545 79.94984 
L 257.412273 80.141959 
L 258.3 80.588432 
L 259.187727 81.39958 
L 260.075455 82.680027 
L 260.963182 84.514534 
L 261.850909 86.956211 
L 262.738636 90.019225 
L 263.626364 93.677074 
L 265.401818 102.494802 
L 268.065 117.887352 
L 270.728182 133.333101 
L 272.503636 142.71334 
L 274.279091 151.103387 
L 276.054545 158.509421 
L 277.83 165.04325 
L 279.605455 170.858393 
L 282.268636 178.571125 
L 284.931818 185.450319 
L 287.595 191.762876 
L 290.258182 197.597245 
L 292.921364 202.913521 
L 295.584545 207.617345 
L 297.36 210.366034 
L 299.135455 212.778989 
L 300.910909 214.841357 
L 302.686364 216.546689 
L 304.461818 217.899623 
L 306.237273 218.918871 
L 308.012727 219.638844 
L 309.788182 220.108283 
L 311.563636 220.385221 
L 314.226818 220.568488 
L 320.440909 220.639275 
L 342.634091 220.667877 
L 435.845455 220.667609 
L 435.845455 220.667609 
" clip-path="url(#p997f2605c6)" style="fill: none; stroke: #bf00bf; stroke-width: 1.5; stroke-linecap: square"/>
   </g>
   <g id="line2d_20">
    <path d="M 80.754545 220.667609 
L 81.642273 220.358453 
L 82.53 220.216628 
L 83.417727 220.541994 
L 85.193182 221.609128 
L 86.080909 221.808788 
L 86.968636 221.640827 
L 87.856364 221.15631 
L 90.519545 219.144465 
L 91.407273 218.747946 
L 92.295 218.646374 
L 93.182727 218.86754 
L 94.070455 219.390215 
L 95.845909 221.045215 
L 97.621364 222.784896 
L 98.509091 223.410491 
L 99.396818 223.765022 
L 100.284545 223.807305 
L 101.172273 223.530976 
L 102.06 222.961982 
L 102.947727 222.15317 
L 107.386364 217.285372 
L 108.274091 216.691057 
L 109.161818 216.348451 
L 110.049545 216.274685 
L 110.937273 216.468368 
L 111.825 216.912481 
L 112.712727 217.578368 
L 114.488182 219.428789 
L 117.151364 222.921668 
L 118.926818 225.276256 
L 120.702273 227.194959 
L 121.59 227.830885 
L 122.477727 228.163015 
L 123.365455 228.136249 
L 124.253182 227.712619 
L 125.140909 226.875886 
L 126.028636 225.633837 
L 126.916364 224.018659 
L 128.691818 219.91173 
L 132.242727 210.855062 
L 133.130455 209.072789 
L 134.018182 207.701326 
L 134.905909 206.826527 
L 135.793636 206.512203 
L 136.681364 206.79652 
L 137.569091 207.690084 
L 138.456818 209.175744 
L 139.344545 211.209962 
L 140.232273 213.725492 
L 142.007727 219.835311 
L 145.558636 233.169577 
L 146.446364 236.020574 
L 147.334091 238.441882 
L 148.221818 240.327247 
L 149.109545 241.580394 
L 149.997273 242.116364 
L 150.885 241.862438 
L 151.772727 240.758685 
L 152.660455 238.758178 
L 153.548182 235.827066 
L 154.435909 231.944804 
L 155.323636 227.104927 
L 156.211364 221.316748 
L 157.099091 214.608178 
L 158.874545 198.657172 
L 160.65 179.984063 
L 165.976364 120.432967 
L 167.751818 103.814332 
L 169.527273 90.236397 
L 170.415 84.67433 
L 171.302727 79.931408 
L 172.190455 75.985915 
L 173.078182 72.801834 
L 173.965909 70.331838 
L 174.853636 68.520044 
L 175.741364 67.30452 
L 176.629091 66.619528 
L 177.516818 66.397495 
L 178.404545 66.570736 
L 179.292273 67.072912 
L 180.18 67.84026 
L 181.955455 69.934035 
L 187.281818 77.323907 
L 188.169545 78.742152 
L 189.057273 79.749008 
L 189.945 80.069028 
L 190.832727 80.106866 
L 191.720455 80.282395 
L 192.608182 80.802171 
L 193.495909 81.648901 
L 195.271364 83.612458 
L 196.159091 84.310965 
L 197.046818 84.617713 
L 197.934545 84.477088 
L 198.822273 83.911376 
L 199.71 83.005456 
L 203.260909 78.668339 
L 204.148636 78.046938 
L 205.036364 77.773656 
L 205.924091 77.862108 
L 206.811818 78.286234 
L 207.699545 78.985678 
L 211.250455 82.628564 
L 212.138182 83.241913 
L 213.025909 83.573366 
L 213.913636 83.581444 
L 214.801364 83.253267 
L 215.689091 82.604392 
L 216.576818 81.67642 
L 218.352273 79.252942 
L 220.127727 76.645323 
L 221.015455 75.498712 
L 221.903182 74.565977 
L 222.790909 73.912275 
L 223.678636 73.584772 
L 224.566364 73.610313 
L 225.454091 73.994472 
L 226.341818 74.721934 
L 227.229545 75.758056 
L 229.005 78.537235 
L 232.555909 84.858542 
L 233.443636 86.141424 
L 234.331364 87.167312 
L 235.219091 87.885231 
L 236.106818 88.258055 
L 236.994545 88.263742 
L 237.882273 87.895901 
L 238.77 87.163736 
L 239.657727 86.0914 
L 240.545455 84.716832 
L 242.320909 81.271639 
L 245.871818 73.512033 
L 246.759545 71.830866 
L 247.647273 70.400533 
L 248.535 69.286271 
L 249.422727 68.545659 
L 250.310455 68.227337 
L 251.198182 68.370089 
L 252.085909 69.002298 
L 252.973636 70.141743 
L 253.861364 71.795727 
L 254.749091 73.961496 
L 255.636818 76.626896 
L 256.524545 79.771237 
L 258.3 87.377498 
L 260.075455 96.48485 
L 261.850909 106.733349 
L 265.401818 129.106513 
L 269.840455 156.94633 
L 272.503636 171.965074 
L 274.279091 180.926194 
L 276.054545 188.947792 
L 277.83 195.997396 
L 279.605455 202.079406 
L 281.380909 207.226814 
L 283.156364 211.493708 
L 284.931818 214.948868 
L 286.707273 217.670499 
L 288.482727 219.742023 
L 290.258182 221.248734 
L 292.033636 222.275173 
L 293.809091 222.903027 
L 295.584545 223.20947 
L 297.36 223.265848 
L 300.023182 223.020625 
L 303.574091 222.356181 
L 309.788182 221.095222 
L 313.339091 220.596128 
L 316.89 220.317308 
L 321.328636 220.232615 
L 327.542727 220.395813 
L 339.083182 220.727692 
L 348.848182 220.735411 
L 375.48 220.661373 
L 435.845455 220.667695 
L 435.845455 220.667695 
" clip-path="url(#p997f2605c6)" style="fill: none; stroke-dasharray: 5.55,2.4; stroke-dashoffset: 0; stroke: #ff0000; stroke-width: 1.5"/>
   </g>
   <g id="line2d_21">
    <path d="M 80.754545 220.667609 
L 148.221818 220.759111 
L 149.997273 220.993142 
L 150.885 221.020902 
L 151.772727 220.894798 
L 152.660455 220.570003 
L 155.323636 219.116617 
L 156.211364 219.150647 
L 157.099091 219.85538 
L 157.986818 221.266654 
L 158.874545 222.993602 
L 159.762273 224.047938 
L 160.65 222.861287 
L 161.537727 217.563748 
L 162.425455 206.491756 
L 163.313182 188.803746 
L 164.200909 165.012297 
L 166.864091 82.805584 
L 167.751818 62.756513 
L 168.639545 49.963644 
L 169.527273 44.443636 
L 170.415 45.013857 
L 171.302727 49.813748 
L 173.965909 70.896958 
L 174.853636 75.937321 
L 175.741364 79.188374 
L 176.629091 80.819237 
L 177.516818 81.227738 
L 178.404545 80.889978 
L 180.18 79.612012 
L 181.067727 79.185567 
L 181.955455 79.024491 
L 182.843182 79.096179 
L 186.394091 80.005186 
L 188.169545 80.081321 
L 193.495909 79.816455 
L 200.597727 79.898051 
L 211.250455 79.88636 
L 250.310455 79.947219 
L 252.973636 80.086298 
L 256.524545 79.959057 
L 257.412273 80.259587 
L 258.3 80.977916 
L 259.187727 82.293236 
L 260.075455 84.372584 
L 260.963182 87.347477 
L 261.850909 91.294993 
L 262.738636 96.226672 
L 263.626364 102.086794 
L 265.401818 116.083602 
L 271.615909 170.243518 
L 273.391364 182.71643 
L 275.166818 193.084015 
L 276.942273 201.402222 
L 278.717727 207.839112 
L 279.605455 210.418972 
L 280.493182 212.61243 
L 281.380909 214.450695 
L 282.268636 215.966186 
L 283.156364 217.19233 
L 284.044091 218.163238 
L 284.931818 218.913196 
L 285.819545 219.476019 
L 286.707273 219.884313 
L 288.482727 220.35714 
L 290.258182 220.541248 
L 293.809091 220.595341 
L 364.827273 220.667609 
L 435.845455 220.667609 
L 435.845455 220.667609 
" clip-path="url(#p997f2605c6)" style="fill: none; stroke: #00bfbf; stroke-width: 1.5; stroke-linecap: square"/>
   </g>
   <g id="patch_3">
    <path d="M 63 252 
L 63 34.56 
" style="fill: none; stroke: #000000; stroke-width: 0.8; stroke-linejoin: miter; stroke-linecap: square"/>
   </g>
   <g id="patch_4">
    <path d="M 453.6 252 
L 453.6 34.56 
" style="fill: none; stroke: #000000; stroke-width: 0.8; stroke-linejoin: miter; stroke-linecap: square"/>
   </g>
   <g id="patch_5">
    <path d="M 63 252 
L 453.6 252 
" style="fill: none; stroke: #000000; stroke-width: 0.8; stroke-linejoin: miter; stroke-linecap: square"/>
   </g>
   <g id="patch_6">
    <path d="M 63 34.56 
L 453.6 34.56 
" style="fill: none; stroke: #000000; stroke-width: 0.8; stroke-linejoin: miter; stroke-linecap: square"/>
   </g>
   <g id="legend_1">
    <g id="patch_7">
     <path d="M 364 110.96 
L 446.6 110.96 
Q 448.6 110.96 448.6 108.96 
L 448.6 41.56 
Q 448.6 39.56 446.6 39.56 
L 364 39.56 
Q 362 39.56 362 41.56 
L 362 108.96 
Q 362 110.96 364 110.96 
z
" style="fill: #ffffff; opacity: 0.8; stroke: #cccccc; stroke-linejoin: miter"/>
    </g>
    <g id="line2d_22">
     <path d="M 366 49.26 
L 376 49.26 
L 386 49.26 
" style="fill: none; stroke-dasharray: 5.55,2.4; stroke-dashoffset: 0; stroke: #008000; stroke-width: 1.5"/>
    </g>
    <g id="text_20">
     <!-- $c_1$, $N_e^b$ = 2 -->
     <g transform="translate(394 52.76) scale(0.1 -0.1)">
      <defs>
       <path id="DejaVuSans-Oblique-63" d="M 3431 3366 
L 3316 2797 
Q 3109 2947 2876 3022 
Q 2644 3097 2394 3097 
Q 2119 3097 1870 3000 
Q 1622 2903 1453 2725 
Q 1184 2453 1037 2087 
Q 891 1722 891 1331 
Q 891 859 1127 628 
Q 1363 397 1844 397 
Q 2081 397 2348 469 
Q 2616 541 2906 684 
L 2797 116 
Q 2547 13 2283 -39 
Q 2019 -91 1741 -91 
Q 1044 -91 669 257 
Q 294 606 294 1253 
Q 294 1797 489 2255 
Q 684 2713 1069 3078 
Q 1331 3328 1684 3456 
Q 2038 3584 2456 3584 
Q 2700 3584 2940 3529 
Q 3181 3475 3431 3366 
z
" transform="scale(0.015625)"/>
       <path id="DejaVuSans-2c" d="M 750 794 
L 1409 794 
L 1409 256 
L 897 -744 
L 494 -744 
L 750 256 
L 750 794 
z
" transform="scale(0.015625)"/>
       <path id="DejaVuSans-Oblique-4e" d="M 1081 4666 
L 1931 4666 
L 3219 666 
L 4000 4666 
L 4616 4666 
L 3706 0 
L 2853 0 
L 1569 4025 
L 788 0 
L 172 0 
L 1081 4666 
z
" transform="scale(0.015625)"/>
       <path id="DejaVuSans-Oblique-62" d="M 3169 2138 
Q 3169 2591 2961 2847 
Q 2753 3103 2388 3103 
Q 2122 3103 1889 2973 
Q 1656 2844 1484 2597 
Q 1303 2338 1198 1995 
Q 1094 1653 1094 1313 
Q 1094 881 1298 636 
Q 1503 391 1863 391 
Q 2134 391 2365 517 
Q 2597 644 2772 891 
Q 2950 1147 3059 1487 
Q 3169 1828 3169 2138 
z
M 1381 2969 
Q 1594 3256 1914 3420 
Q 2234 3584 2584 3584 
Q 3122 3584 3439 3221 
Q 3756 2859 3756 2241 
Q 3756 1734 3570 1259 
Q 3384 784 3041 416 
Q 2816 172 2522 40 
Q 2228 -91 1906 -91 
Q 1566 -91 1316 65 
Q 1066 222 909 531 
L 806 0 
L 231 0 
L 1178 4863 
L 1753 4863 
L 1381 2969 
z
" transform="scale(0.015625)"/>
       <path id="DejaVuSans-Oblique-65" d="M 3078 2063 
Q 3088 2113 3092 2166 
Q 3097 2219 3097 2272 
Q 3097 2653 2873 2875 
Q 2650 3097 2266 3097 
Q 1838 3097 1509 2826 
Q 1181 2556 1013 2059 
L 3078 2063 
z
M 3578 1613 
L 903 1613 
Q 884 1494 878 1425 
Q 872 1356 872 1306 
Q 872 872 1139 634 
Q 1406 397 1894 397 
Q 2269 397 2603 481 
Q 2938 566 3225 728 
L 3116 159 
Q 2806 34 2476 -28 
Q 2147 -91 1806 -91 
Q 1078 -91 686 257 
Q 294 606 294 1247 
Q 294 1794 489 2264 
Q 684 2734 1063 3103 
Q 1306 3334 1642 3459 
Q 1978 3584 2356 3584 
Q 2950 3584 3301 3228 
Q 3653 2872 3653 2272 
Q 3653 2128 3634 1964 
Q 3616 1800 3578 1613 
z
" transform="scale(0.015625)"/>
       <path id="DejaVuSans-3d" d="M 678 2906 
L 4684 2906 
L 4684 2381 
L 678 2381 
L 678 2906 
z
M 678 1631 
L 4684 1631 
L 4684 1100 
L 678 1100 
L 678 1631 
z
" transform="scale(0.015625)"/>
      </defs>
      <use xlink:href="#DejaVuSans-Oblique-63" transform="translate(0 0.529687)"/>
      <use xlink:href="#DejaVuSans-31" transform="translate(54.980469 -15.876563) scale(0.7)"/>
      <use xlink:href="#DejaVuSans-2c" transform="translate(102.250977 0.529687)"/>
      <use xlink:href="#DejaVuSans-20" transform="translate(134.038086 0.529687)"/>
      <use xlink:href="#DejaVuSans-Oblique-4e" transform="translate(165.825195 0.529687)"/>
      <use xlink:href="#DejaVuSans-Oblique-62" transform="translate(247.646654 38.810938) scale(0.7)"/>
      <use xlink:href="#DejaVuSans-Oblique-65" transform="translate(240.629883 -26.814063) scale(0.7)"/>
      <use xlink:href="#DejaVuSans-20" transform="translate(294.814622 0.529687)"/>
      <use xlink:href="#DejaVuSans-3d" transform="translate(326.601732 0.529687)"/>
      <use xlink:href="#DejaVuSans-20" transform="translate(410.390794 0.529687)"/>
      <use xlink:href="#DejaVuSans-32" transform="translate(442.177904 0.529687)"/>
     </g>
    </g>
    <g id="line2d_23">
     <path d="M 366 66.36 
L 376 66.36 
L 386 66.36 
" style="fill: none; stroke: #bf00bf; stroke-width: 1.5; stroke-linecap: square"/>
    </g>
    <g id="text_21">
     <!-- $c_1$, $N_e^b$ = 8 -->
     <g transform="translate(394 69.86) scale(0.1 -0.1)">
      <use xlink:href="#DejaVuSans-Oblique-63" transform="translate(0 0.529687)"/>
      <use xlink:href="#DejaVuSans-31" transform="translate(54.980469 -15.876563) scale(0.7)"/>
      <use xlink:href="#DejaVuSans-2c" transform="translate(102.250977 0.529687)"/>
      <use xlink:href="#DejaVuSans-20" transform="translate(134.038086 0.529687)"/>
      <use xlink:href="#DejaVuSans-Oblique-4e" transform="translate(165.825195 0.529687)"/>
      <use xlink:href="#DejaVuSans-Oblique-62" transform="translate(247.646654 38.810938) scale(0.7)"/>
      <use xlink:href="#DejaVuSans-Oblique-65" transform="translate(240.629883 -26.814063) scale(0.7)"/>
      <use xlink:href="#DejaVuSans-20" transform="translate(294.814622 0.529687)"/>
      <use xlink:href="#DejaVuSans-3d" transform="translate(326.601732 0.529687)"/>
      <use xlink:href="#DejaVuSans-20" transform="translate(410.390794 0.529687)"/>
      <use xlink:href="#DejaVuSans-38" transform="translate(442.177904 0.529687)"/>
     </g>
    </g>
    <g id="line2d_24">
     <path d="M 366 83.46 
L 376 83.46 
L 386 83.46 
" style="fill: none; stroke-dasharray: 5.55,2.4; stroke-dashoffset: 0; stroke: #ff0000; stroke-width: 1.5"/>
    </g>
    <g id="text_22">
     <!-- $c_2$, $N_e^b$ = 2 -->
     <g transform="translate(394 86.96) scale(0.1 -0.1)">
      <use xlink:href="#DejaVuSans-Oblique-63" transform="translate(0 0.529687)"/>
      <use xlink:href="#DejaVuSans-32" transform="translate(54.980469 -15.876563) scale(0.7)"/>
      <use xlink:href="#DejaVuSans-2c" transform="translate(102.250977 0.529687)"/>
      <use xlink:href="#DejaVuSans-20" transform="translate(134.038086 0.529687)"/>
      <use xlink:href="#DejaVuSans-Oblique-4e" transform="translate(165.825195 0.529687)"/>
      <use xlink:href="#DejaVuSans-Oblique-62" transform="translate(247.646654 38.810938) scale(0.7)"/>
      <use xlink:href="#DejaVuSans-Oblique-65" transform="translate(240.629883 -26.814063) scale(0.7)"/>
      <use xlink:href="#DejaVuSans-20" transform="translate(294.814622 0.529687)"/>
      <use xlink:href="#DejaVuSans-3d" transform="translate(326.601732 0.529687)"/>
      <use xlink:href="#DejaVuSans-20" transform="translate(410.390794 0.529687)"/>
      <use xlink:href="#DejaVuSans-32" transform="translate(442.177904 0.529687)"/>
     </g>
    </g>
    <g id="line2d_25">
     <path d="M 366 100.56 
L 376 100.56 
L 386 100.56 
" style="fill: none; stroke: #00bfbf; stroke-width: 1.5; stroke-linecap: square"/>
    </g>
    <g id="text_23">
     <!-- $c_2$, $N_e^b$ = 8 -->
     <g transform="translate(394 104.06) scale(0.1 -0.1)">
      <use xlink:href="#DejaVuSans-Oblique-63" transform="translate(0 0.529687)"/>
      <use xlink:href="#DejaVuSans-32" transform="translate(54.980469 -15.876563) scale(0.7)"/>
      <use xlink:href="#DejaVuSans-2c" transform="translate(102.250977 0.529687)"/>
      <use xlink:href="#DejaVuSans-20" transform="translate(134.038086 0.529687)"/>
      <use xlink:href="#DejaVuSans-Oblique-4e" transform="translate(165.825195 0.529687)"/>
      <use xlink:href="#DejaVuSans-Oblique-62" transform="translate(247.646654 38.810938) scale(0.7)"/>
      <use xlink:href="#DejaVuSans-Oblique-65" transform="translate(240.629883 -26.814063) scale(0.7)"/>
      <use xlink:href="#DejaVuSans-20" transform="translate(294.814622 0.529687)"/>
      <use xlink:href="#DejaVuSans-3d" transform="translate(326.601732 0.529687)"/>
      <use xlink:href="#DejaVuSans-20" transform="translate(410.390794 0.529687)"/>
      <use xlink:href="#DejaVuSans-38" transform="translate(442.177904 0.529687)"/>
     </g>
    </g>
   </g>
  </g>
 </g>
 <defs>
  <clipPath id="p997f2605c6">
   <rect x="63" y="34.56" width="390.6" height="217.44"/>
  </clipPath>
 </defs>
</svg>
