<?xml version="1.0" encoding="utf-8"?>
<svg xmlns="http://www.w3.org/2000/svg" xmlns:xlink="http://www.w3.org/1999/xlink" width="600" height="400" viewBox="0 0 2400 1600">
<defs>
  <clipPath id="clip370">
    <rect x="0" y="0" width="2400" height="1600"/>
  </clipPath>
</defs>
<path clip-path="url(#clip370)" d="M0 1600 L2400 1600 L2400 0 L0 0  Z" fill="#ffffff" fill-rule="evenodd" fill-opacity="1"/>
<defs>
  <clipPath id="clip371">
    <rect x="480" y="0" width="1681" height="1600"/>
  </clipPath>
</defs>
<path clip-path="url(#clip370)" d="M257.677 1410.9 L2352.76 1410.9 L2352.76 47.2441 L257.677 47.2441  Z" fill="#ffffff" fill-rule="evenodd" fill-opacity="1"/>
<defs>
  <clipPath id="clip372">
    <rect x="257" y="47" width="2096" height="1365"/>
  </clipPath>
</defs>
<polyline clip-path="url(#clip372)" style="stroke:#000000; stroke-linecap:round; stroke-linejoin:round; stroke-width:2; stroke-opacity:0.1; fill:none" points="1237.97,1410.9 1237.97,47.2441 "/>
<polyline clip-path="url(#clip372)" style="stroke:#000000; stroke-linecap:round; stroke-linejoin:round; stroke-width:2; stroke-opacity:0.1; fill:none" points="2332.26,1410.9 2332.26,47.2441 "/>
<polyline clip-path="url(#clip370)" style="stroke:#000000; stroke-linecap:round; stroke-linejoin:round; stroke-width:4; stroke-opacity:1; fill:none" points="257.677,1410.9 2352.76,1410.9 "/>
<polyline clip-path="url(#clip370)" style="stroke:#000000; stroke-linecap:round; stroke-linejoin:round; stroke-width:4; stroke-opacity:1; fill:none" points="1237.97,1410.9 1237.97,1392 "/>
<polyline clip-path="url(#clip370)" style="stroke:#000000; stroke-linecap:round; stroke-linejoin:round; stroke-width:4; stroke-opacity:1; fill:none" points="2332.26,1410.9 2332.26,1392 "/>
<path clip-path="url(#clip370)" d="M1185.12 1485.02 L1192.76 1485.02 L1192.76 1458.66 L1184.45 1460.32 L1184.45 1456.06 L1192.71 1454.4 L1197.39 1454.4 L1197.39 1485.02 L1205.03 1485.02 L1205.03 1488.96 L1185.12 1488.96 L1185.12 1485.02 Z" fill="#000000" fill-rule="nonzero" fill-opacity="1" /><path clip-path="url(#clip370)" d="M1224.47 1457.48 Q1220.86 1457.48 1219.03 1461.04 Q1217.23 1464.58 1217.23 1471.71 Q1217.23 1478.82 1219.03 1482.38 Q1220.86 1485.92 1224.47 1485.92 Q1228.11 1485.92 1229.91 1482.38 Q1231.74 1478.82 1231.74 1471.71 Q1231.74 1464.58 1229.91 1461.04 Q1228.11 1457.48 1224.47 1457.48 M1224.47 1453.77 Q1230.28 1453.77 1233.34 1458.38 Q1236.42 1462.96 1236.42 1471.71 Q1236.42 1480.44 1233.34 1485.04 Q1230.28 1489.63 1224.47 1489.63 Q1218.66 1489.63 1215.59 1485.04 Q1212.53 1480.44 1212.53 1471.71 Q1212.53 1462.96 1215.59 1458.38 Q1218.66 1453.77 1224.47 1453.77 Z" fill="#000000" fill-rule="nonzero" fill-opacity="1" /><path clip-path="url(#clip370)" d="M1240.99 1458.35 L1254.25 1458.35 L1254.25 1461.55 L1236.42 1461.55 L1236.42 1458.35 Q1238.58 1456.11 1242.31 1452.35 Q1246.05 1448.57 1247.01 1447.48 Q1248.83 1445.43 1249.55 1444.02 Q1250.28 1442.59 1250.28 1441.22 Q1250.28 1438.98 1248.7 1437.57 Q1247.14 1436.16 1244.62 1436.16 Q1242.83 1436.16 1240.84 1436.78 Q1238.86 1437.4 1236.61 1438.66 L1236.61 1434.82 Q1238.9 1433.9 1240.89 1433.43 Q1242.89 1432.96 1244.54 1432.96 Q1248.91 1432.96 1251.5 1435.14 Q1254.1 1437.32 1254.1 1440.97 Q1254.1 1442.7 1253.44 1444.26 Q1252.8 1445.8 1251.09 1447.91 Q1250.62 1448.46 1248.1 1451.07 Q1245.58 1453.67 1240.99 1458.35 Z" fill="#000000" fill-rule="nonzero" fill-opacity="1" /><path clip-path="url(#clip370)" d="M1262.22 1456.77 L1266.19 1456.77 L1266.19 1461.55 L1262.22 1461.55 L1262.22 1456.77 Z" fill="#000000" fill-rule="nonzero" fill-opacity="1" /><path clip-path="url(#clip370)" d="M1274.5 1433.47 L1289.42 1433.47 L1289.42 1436.66 L1277.98 1436.66 L1277.98 1443.55 Q1278.81 1443.27 1279.64 1443.13 Q1280.47 1442.98 1281.29 1442.98 Q1286 1442.98 1288.74 1445.56 Q1291.49 1448.14 1291.49 1452.54 Q1291.49 1457.07 1288.67 1459.59 Q1285.85 1462.09 1280.71 1462.09 Q1278.94 1462.09 1277.1 1461.79 Q1275.28 1461.49 1273.32 1460.89 L1273.32 1457.07 Q1275.01 1457.99 1276.82 1458.44 Q1278.62 1458.89 1280.64 1458.89 Q1283.89 1458.89 1285.79 1457.18 Q1287.69 1455.47 1287.69 1452.54 Q1287.69 1449.6 1285.79 1447.89 Q1283.89 1446.18 1280.64 1446.18 Q1279.11 1446.18 1277.59 1446.52 Q1276.08 1446.86 1274.5 1447.57 L1274.5 1433.47 Z" fill="#000000" fill-rule="nonzero" fill-opacity="1" /><path clip-path="url(#clip370)" d="M2279.07 1485.02 L2286.71 1485.02 L2286.71 1458.66 L2278.4 1460.32 L2278.4 1456.06 L2286.66 1454.4 L2291.34 1454.4 L2291.34 1485.02 L2298.97 1485.02 L2298.97 1488.96 L2279.07 1488.96 L2279.07 1485.02 Z" fill="#000000" fill-rule="nonzero" fill-opacity="1" /><path clip-path="url(#clip370)" d="M2318.42 1457.48 Q2314.81 1457.48 2312.98 1461.04 Q2311.17 1464.58 2311.17 1471.71 Q2311.17 1478.82 2312.98 1482.38 Q2314.81 1485.92 2318.42 1485.92 Q2322.05 1485.92 2323.86 1482.38 Q2325.69 1478.82 2325.69 1471.71 Q2325.69 1464.58 2323.86 1461.04 Q2322.05 1457.48 2318.42 1457.48 M2318.42 1453.77 Q2324.23 1453.77 2327.28 1458.38 Q2330.36 1462.96 2330.36 1471.71 Q2330.36 1480.44 2327.28 1485.04 Q2324.23 1489.63 2318.42 1489.63 Q2312.61 1489.63 2309.53 1485.04 Q2306.47 1480.44 2306.47 1471.71 Q2306.47 1462.96 2309.53 1458.38 Q2312.61 1453.77 2318.42 1453.77 Z" fill="#000000" fill-rule="nonzero" fill-opacity="1" /><path clip-path="url(#clip370)" d="M2343.06 1446.41 Q2345.79 1446.99 2347.31 1448.83 Q2348.85 1450.68 2348.85 1453.38 Q2348.85 1457.54 2345.99 1459.82 Q2343.13 1462.09 2337.87 1462.09 Q2336.1 1462.09 2334.22 1461.73 Q2332.36 1461.4 2330.36 1460.7 L2330.36 1457.03 Q2331.94 1457.95 2333.82 1458.42 Q2335.7 1458.89 2337.75 1458.89 Q2341.33 1458.89 2343.19 1457.48 Q2345.07 1456.07 2345.07 1453.38 Q2345.07 1450.9 2343.32 1449.51 Q2341.59 1448.1 2338.49 1448.1 L2335.22 1448.1 L2335.22 1444.98 L2338.64 1444.98 Q2341.44 1444.98 2342.93 1443.87 Q2344.41 1442.74 2344.41 1440.63 Q2344.41 1438.47 2342.87 1437.32 Q2341.35 1436.16 2338.49 1436.16 Q2336.93 1436.16 2335.14 1436.49 Q2333.35 1436.83 2331.21 1437.55 L2331.21 1434.16 Q2333.37 1433.56 2335.25 1433.26 Q2337.15 1432.96 2338.83 1432.96 Q2343.15 1432.96 2345.67 1434.93 Q2348.19 1436.89 2348.19 1440.24 Q2348.19 1442.57 2346.86 1444.19 Q2345.52 1445.79 2343.06 1446.41 Z" fill="#000000" fill-rule="nonzero" fill-opacity="1" /><path clip-path="url(#clip370)" d="M2356.05 1456.77 L2360.02 1456.77 L2360.02 1461.55 L2356.05 1461.55 L2356.05 1456.77 Z" fill="#000000" fill-rule="nonzero" fill-opacity="1" /><path clip-path="url(#clip370)" d="M2376.42 1435.97 Q2373.49 1435.97 2372 1438.86 Q2370.54 1441.74 2370.54 1447.53 Q2370.54 1453.31 2372 1456.2 Q2373.49 1459.08 2376.42 1459.08 Q2379.38 1459.08 2380.84 1456.2 Q2382.33 1453.31 2382.33 1447.53 Q2382.33 1441.74 2380.84 1438.86 Q2379.38 1435.97 2376.42 1435.97 M2376.42 1432.96 Q2381.14 1432.96 2383.63 1436.7 Q2386.13 1440.43 2386.13 1447.53 Q2386.13 1454.62 2383.63 1458.37 Q2381.14 1462.09 2376.42 1462.09 Q2371.7 1462.09 2369.2 1458.37 Q2366.72 1454.62 2366.72 1447.53 Q2366.72 1440.43 2369.2 1436.7 Q2371.7 1432.96 2376.42 1432.96 Z" fill="#000000" fill-rule="nonzero" fill-opacity="1" /><path clip-path="url(#clip370)" d="M993.233 1531.95 L993.233 1568.9 L1001 1568.9 Q1010.83 1568.9 1015.39 1564.45 Q1019.97 1559.99 1019.97 1550.38 Q1019.97 1540.83 1015.39 1536.4 Q1010.83 1531.95 1001 1531.95 L993.233 1531.95 M986.804 1526.67 L1000.01 1526.67 Q1013.83 1526.67 1020.29 1532.43 Q1026.75 1538.16 1026.75 1550.38 Q1026.75 1562.66 1020.26 1568.42 Q1013.76 1574.19 1000.01 1574.19 L986.804 1574.19 L986.804 1526.67 Z" fill="#000000" fill-rule="nonzero" fill-opacity="1" /><path clip-path="url(#clip370)" d="M1067.23 1554.9 L1067.23 1557.76 L1040.31 1557.76 Q1040.69 1563.81 1043.94 1566.99 Q1047.21 1570.14 1053.04 1570.14 Q1056.41 1570.14 1059.56 1569.32 Q1062.75 1568.49 1065.87 1566.83 L1065.87 1572.37 Q1062.71 1573.71 1059.4 1574.41 Q1056.09 1575.11 1052.69 1575.11 Q1044.16 1575.11 1039.16 1570.14 Q1034.2 1565.18 1034.2 1556.71 Q1034.2 1547.96 1038.91 1542.83 Q1043.65 1537.68 1051.67 1537.68 Q1058.86 1537.68 1063.03 1542.33 Q1067.23 1546.94 1067.23 1554.9 M1061.38 1553.18 Q1061.31 1548.37 1058.67 1545.51 Q1056.06 1542.64 1051.73 1542.64 Q1046.83 1542.64 1043.87 1545.41 Q1040.94 1548.18 1040.5 1553.21 L1061.38 1553.18 Z" fill="#000000" fill-rule="nonzero" fill-opacity="1" /><path clip-path="url(#clip370)" d="M1100.3 1555.95 Q1100.3 1549.58 1097.66 1546.08 Q1095.05 1542.58 1090.31 1542.58 Q1085.6 1542.58 1082.96 1546.08 Q1080.35 1549.58 1080.35 1555.95 Q1080.35 1562.28 1082.96 1565.78 Q1085.6 1569.28 1090.31 1569.28 Q1095.05 1569.28 1097.66 1565.78 Q1100.3 1562.28 1100.3 1555.95 M1106.16 1569.76 Q1106.16 1578.86 1102.12 1583.29 Q1098.08 1587.74 1089.74 1587.74 Q1086.65 1587.74 1083.91 1587.27 Q1081.18 1586.82 1078.6 1585.87 L1078.6 1580.17 Q1081.18 1581.57 1083.69 1582.24 Q1086.2 1582.91 1088.81 1582.91 Q1094.57 1582.91 1097.44 1579.88 Q1100.3 1576.89 1100.3 1570.81 L1100.3 1567.92 Q1098.49 1571.07 1095.66 1572.63 Q1092.82 1574.19 1088.88 1574.19 Q1082.32 1574.19 1078.31 1569.19 Q1074.3 1564.19 1074.3 1555.95 Q1074.3 1547.67 1078.31 1542.68 Q1082.32 1537.68 1088.88 1537.68 Q1092.82 1537.68 1095.66 1539.24 Q1098.49 1540.8 1100.3 1543.95 L1100.3 1538.54 L1106.16 1538.54 L1106.16 1569.76 Z" fill="#000000" fill-rule="nonzero" fill-opacity="1" /><path clip-path="url(#clip370)" d="M1138.88 1544.01 Q1137.89 1543.44 1136.72 1543.18 Q1135.57 1542.9 1134.17 1542.9 Q1129.2 1542.9 1126.53 1546.14 Q1123.89 1549.36 1123.89 1555.41 L1123.89 1574.19 L1118 1574.19 L1118 1538.54 L1123.89 1538.54 L1123.89 1544.08 Q1125.74 1540.83 1128.7 1539.27 Q1131.66 1537.68 1135.89 1537.68 Q1136.49 1537.68 1137.23 1537.77 Q1137.96 1537.84 1138.85 1538 L1138.88 1544.01 Z" fill="#000000" fill-rule="nonzero" fill-opacity="1" /><path clip-path="url(#clip370)" d="M1174.08 1554.9 L1174.08 1557.76 L1147.16 1557.76 Q1147.54 1563.81 1150.78 1566.99 Q1154.06 1570.14 1159.89 1570.14 Q1163.26 1570.14 1166.41 1569.32 Q1169.59 1568.49 1172.71 1566.83 L1172.71 1572.37 Q1169.56 1573.71 1166.25 1574.41 Q1162.94 1575.11 1159.54 1575.11 Q1151.01 1575.11 1146.01 1570.14 Q1141.04 1565.18 1141.04 1556.71 Q1141.04 1547.96 1145.76 1542.83 Q1150.5 1537.68 1158.52 1537.68 Q1165.71 1537.68 1169.88 1542.33 Q1174.08 1546.94 1174.08 1554.9 M1168.23 1553.18 Q1168.16 1548.37 1165.52 1545.51 Q1162.91 1542.64 1158.58 1542.64 Q1153.68 1542.64 1150.72 1545.41 Q1147.79 1548.18 1147.35 1553.21 L1168.23 1553.18 Z" fill="#000000" fill-rule="nonzero" fill-opacity="1" /><path clip-path="url(#clip370)" d="M1214.19 1554.9 L1214.19 1557.76 L1187.26 1557.76 Q1187.64 1563.81 1190.89 1566.99 Q1194.17 1570.14 1199.99 1570.14 Q1203.36 1570.14 1206.52 1569.32 Q1209.7 1568.49 1212.82 1566.83 L1212.82 1572.37 Q1209.67 1573.71 1206.36 1574.41 Q1203.05 1575.11 1199.64 1575.11 Q1191.11 1575.11 1186.11 1570.14 Q1181.15 1565.18 1181.15 1556.71 Q1181.15 1547.96 1185.86 1542.83 Q1190.6 1537.68 1198.62 1537.68 Q1205.82 1537.68 1209.99 1542.33 Q1214.19 1546.94 1214.19 1554.9 M1208.33 1553.18 Q1208.27 1548.37 1205.62 1545.51 Q1203.01 1542.64 1198.69 1542.64 Q1193.78 1542.64 1190.82 1545.41 Q1187.9 1548.18 1187.45 1553.21 L1208.33 1553.18 Z" fill="#000000" fill-rule="nonzero" fill-opacity="1" /><path clip-path="url(#clip370)" d="M1246.52 1539.59 L1246.52 1545.13 Q1244.04 1543.85 1241.37 1543.22 Q1238.69 1542.58 1235.83 1542.58 Q1231.47 1542.58 1229.27 1543.92 Q1227.11 1545.25 1227.11 1547.93 Q1227.11 1549.96 1228.67 1551.14 Q1230.23 1552.29 1234.94 1553.34 L1236.94 1553.78 Q1243.18 1555.12 1245.79 1557.57 Q1248.43 1559.99 1248.43 1564.35 Q1248.43 1569.32 1244.49 1572.21 Q1240.57 1575.11 1233.7 1575.11 Q1230.83 1575.11 1227.71 1574.54 Q1224.63 1573.99 1221.19 1572.88 L1221.19 1566.83 Q1224.44 1568.52 1227.59 1569.38 Q1230.74 1570.21 1233.82 1570.21 Q1237.96 1570.21 1240.19 1568.81 Q1242.42 1567.37 1242.42 1564.8 Q1242.42 1562.41 1240.8 1561.14 Q1239.2 1559.86 1233.76 1558.68 L1231.72 1558.21 Q1226.28 1557.06 1223.86 1554.71 Q1221.44 1552.32 1221.44 1548.18 Q1221.44 1543.15 1225.01 1540.42 Q1228.57 1537.68 1235.13 1537.68 Q1238.38 1537.68 1241.24 1538.16 Q1244.11 1538.63 1246.52 1539.59 Z" fill="#000000" fill-rule="nonzero" fill-opacity="1" /><path clip-path="url(#clip370)" d="M1292.29 1542.64 Q1287.58 1542.64 1284.85 1546.34 Q1282.11 1550 1282.11 1556.39 Q1282.11 1562.79 1284.81 1566.48 Q1287.55 1570.14 1292.29 1570.14 Q1296.97 1570.14 1299.71 1566.45 Q1302.45 1562.76 1302.45 1556.39 Q1302.45 1550.06 1299.71 1546.37 Q1296.97 1542.64 1292.29 1542.64 M1292.29 1537.68 Q1299.93 1537.68 1304.29 1542.64 Q1308.65 1547.61 1308.65 1556.39 Q1308.65 1565.15 1304.29 1570.14 Q1299.93 1575.11 1292.29 1575.11 Q1284.62 1575.11 1280.26 1570.14 Q1275.93 1565.15 1275.93 1556.39 Q1275.93 1547.61 1280.26 1542.64 Q1284.62 1537.68 1292.29 1537.68 Z" fill="#000000" fill-rule="nonzero" fill-opacity="1" /><path clip-path="url(#clip370)" d="M1336.41 1524.66 L1336.41 1529.53 L1330.81 1529.53 Q1327.66 1529.53 1326.41 1530.8 Q1325.2 1532.08 1325.2 1535.39 L1325.2 1538.54 L1334.85 1538.54 L1334.85 1543.09 L1325.2 1543.09 L1325.2 1574.19 L1319.32 1574.19 L1319.32 1543.09 L1313.71 1543.09 L1313.71 1538.54 L1319.32 1538.54 L1319.32 1536.05 Q1319.32 1530.1 1322.09 1527.4 Q1324.85 1524.66 1330.87 1524.66 L1336.41 1524.66 Z" fill="#000000" fill-rule="nonzero" fill-opacity="1" /><path clip-path="url(#clip370)" d="M1380.08 1524.66 L1380.08 1529.53 L1374.48 1529.53 Q1371.32 1529.53 1370.08 1530.8 Q1368.87 1532.08 1368.87 1535.39 L1368.87 1538.54 L1378.52 1538.54 L1378.52 1543.09 L1368.87 1543.09 L1368.87 1574.19 L1362.99 1574.19 L1362.99 1543.09 L1357.38 1543.09 L1357.38 1538.54 L1362.99 1538.54 L1362.99 1536.05 Q1362.99 1530.1 1365.75 1527.4 Q1368.52 1524.66 1374.54 1524.66 L1380.08 1524.66 Z" fill="#000000" fill-rule="nonzero" fill-opacity="1" /><path clip-path="url(#clip370)" d="M1405.64 1544.01 Q1404.65 1543.44 1403.47 1543.18 Q1402.33 1542.9 1400.92 1542.9 Q1395.96 1542.9 1393.29 1546.14 Q1390.64 1549.36 1390.64 1555.41 L1390.64 1574.19 L1384.76 1574.19 L1384.76 1538.54 L1390.64 1538.54 L1390.64 1544.08 Q1392.49 1540.83 1395.45 1539.27 Q1398.41 1537.68 1402.64 1537.68 Q1403.25 1537.68 1403.98 1537.77 Q1404.71 1537.84 1405.6 1538 L1405.64 1544.01 Z" fill="#000000" fill-rule="nonzero" fill-opacity="1" /><path clip-path="url(#clip370)" d="M1440.84 1554.9 L1440.84 1557.76 L1413.91 1557.76 Q1414.29 1563.81 1417.54 1566.99 Q1420.82 1570.14 1426.64 1570.14 Q1430.02 1570.14 1433.17 1569.32 Q1436.35 1568.49 1439.47 1566.83 L1439.47 1572.37 Q1436.32 1573.71 1433.01 1574.41 Q1429.7 1575.11 1426.29 1575.11 Q1417.76 1575.11 1412.76 1570.14 Q1407.8 1565.18 1407.8 1556.71 Q1407.8 1547.96 1412.51 1542.83 Q1417.25 1537.68 1425.27 1537.68 Q1432.47 1537.68 1436.64 1542.33 Q1440.84 1546.94 1440.84 1554.9 M1434.98 1553.18 Q1434.92 1548.37 1432.28 1545.51 Q1429.67 1542.64 1425.34 1542.64 Q1420.44 1542.64 1417.48 1545.41 Q1414.55 1548.18 1414.1 1553.21 L1434.98 1553.18 Z" fill="#000000" fill-rule="nonzero" fill-opacity="1" /><path clip-path="url(#clip370)" d="M1480.94 1554.9 L1480.94 1557.76 L1454.01 1557.76 Q1454.4 1563.81 1457.64 1566.99 Q1460.92 1570.14 1466.75 1570.14 Q1470.12 1570.14 1473.27 1569.32 Q1476.45 1568.49 1479.57 1566.83 L1479.57 1572.37 Q1476.42 1573.71 1473.11 1574.41 Q1469.8 1575.11 1466.4 1575.11 Q1457.87 1575.11 1452.87 1570.14 Q1447.9 1565.18 1447.9 1556.71 Q1447.9 1547.96 1452.61 1542.83 Q1457.36 1537.68 1465.38 1537.68 Q1472.57 1537.68 1476.74 1542.33 Q1480.94 1546.94 1480.94 1554.9 M1475.09 1553.18 Q1475.02 1548.37 1472.38 1545.51 Q1469.77 1542.64 1465.44 1542.64 Q1460.54 1542.64 1457.58 1545.41 Q1454.65 1548.18 1454.21 1553.21 L1475.09 1553.18 Z" fill="#000000" fill-rule="nonzero" fill-opacity="1" /><path clip-path="url(#clip370)" d="M1514.01 1543.95 L1514.01 1524.66 L1519.87 1524.66 L1519.87 1574.19 L1514.01 1574.19 L1514.01 1568.84 Q1512.17 1572.02 1509.33 1573.58 Q1506.53 1575.11 1502.58 1575.11 Q1496.12 1575.11 1492.05 1569.95 Q1488.01 1564.8 1488.01 1556.39 Q1488.01 1547.99 1492.05 1542.83 Q1496.12 1537.68 1502.58 1537.68 Q1506.53 1537.68 1509.33 1539.24 Q1512.17 1540.77 1514.01 1543.95 M1494.05 1556.39 Q1494.05 1562.85 1496.7 1566.55 Q1499.37 1570.21 1504.02 1570.21 Q1508.66 1570.21 1511.34 1566.55 Q1514.01 1562.85 1514.01 1556.39 Q1514.01 1549.93 1511.34 1546.27 Q1508.66 1542.58 1504.02 1542.58 Q1499.37 1542.58 1496.7 1546.27 Q1494.05 1549.93 1494.05 1556.39 Z" fill="#000000" fill-rule="nonzero" fill-opacity="1" /><path clip-path="url(#clip370)" d="M1545.74 1542.64 Q1541.03 1542.64 1538.3 1546.34 Q1535.56 1550 1535.56 1556.39 Q1535.56 1562.79 1538.26 1566.48 Q1541 1570.14 1545.74 1570.14 Q1550.42 1570.14 1553.16 1566.45 Q1555.9 1562.76 1555.9 1556.39 Q1555.9 1550.06 1553.16 1546.37 Q1550.42 1542.64 1545.74 1542.64 M1545.74 1537.68 Q1553.38 1537.68 1557.74 1542.64 Q1562.1 1547.61 1562.1 1556.39 Q1562.1 1565.15 1557.74 1570.14 Q1553.38 1575.11 1545.74 1575.11 Q1538.07 1575.11 1533.71 1570.14 Q1529.38 1565.15 1529.38 1556.39 Q1529.38 1547.61 1533.71 1542.64 Q1538.07 1537.68 1545.74 1537.68 Z" fill="#000000" fill-rule="nonzero" fill-opacity="1" /><path clip-path="url(#clip370)" d="M1599.57 1545.38 Q1601.76 1541.43 1604.82 1539.56 Q1607.87 1537.68 1612.01 1537.68 Q1617.58 1537.68 1620.61 1541.59 Q1623.63 1545.48 1623.63 1552.67 L1623.63 1574.19 L1617.74 1574.19 L1617.74 1552.86 Q1617.74 1547.74 1615.93 1545.25 Q1614.11 1542.77 1610.39 1542.77 Q1605.84 1542.77 1603.19 1545.79 Q1600.55 1548.82 1600.55 1554.04 L1600.55 1574.19 L1594.66 1574.19 L1594.66 1552.86 Q1594.66 1547.7 1592.85 1545.25 Q1591.04 1542.77 1587.25 1542.77 Q1582.76 1542.77 1580.12 1545.83 Q1577.48 1548.85 1577.48 1554.04 L1577.48 1574.19 L1571.59 1574.19 L1571.59 1538.54 L1577.48 1538.54 L1577.48 1544.08 Q1579.48 1540.8 1582.28 1539.24 Q1585.08 1537.68 1588.94 1537.68 Q1592.82 1537.68 1595.52 1539.65 Q1598.26 1541.62 1599.57 1545.38 Z" fill="#000000" fill-rule="nonzero" fill-opacity="1" /><polyline clip-path="url(#clip372)" style="stroke:#000000; stroke-linecap:round; stroke-linejoin:round; stroke-width:2; stroke-opacity:0.1; fill:none" points="257.677,1034.22 2352.76,1034.22 "/>
<polyline clip-path="url(#clip372)" style="stroke:#000000; stroke-linecap:round; stroke-linejoin:round; stroke-width:2; stroke-opacity:0.1; fill:none" points="257.677,387.167 2352.76,387.167 "/>
<polyline clip-path="url(#clip370)" style="stroke:#000000; stroke-linecap:round; stroke-linejoin:round; stroke-width:4; stroke-opacity:1; fill:none" points="257.677,1410.9 257.677,47.2441 "/>
<polyline clip-path="url(#clip370)" style="stroke:#000000; stroke-linecap:round; stroke-linejoin:round; stroke-width:4; stroke-opacity:1; fill:none" points="257.677,1034.22 276.574,1034.22 "/>
<polyline clip-path="url(#clip370)" style="stroke:#000000; stroke-linecap:round; stroke-linejoin:round; stroke-width:4; stroke-opacity:1; fill:none" points="257.677,387.167 276.574,387.167 "/>
<path clip-path="url(#clip370)" d="M120.107 1054.01 L127.746 1054.01 L127.746 1027.65 L119.436 1029.31 L119.436 1025.05 L127.7 1023.39 L132.376 1023.39 L132.376 1054.01 L140.015 1054.01 L140.015 1057.95 L120.107 1057.95 L120.107 1054.01 Z" fill="#000000" fill-rule="nonzero" fill-opacity="1" /><path clip-path="url(#clip370)" d="M159.459 1026.46 Q155.848 1026.46 154.019 1030.03 Q152.214 1033.57 152.214 1040.7 Q152.214 1047.81 154.019 1051.37 Q155.848 1054.91 159.459 1054.91 Q163.093 1054.91 164.899 1051.37 Q166.727 1047.81 166.727 1040.7 Q166.727 1033.57 164.899 1030.03 Q163.093 1026.46 159.459 1026.46 M159.459 1022.76 Q165.269 1022.76 168.325 1027.37 Q171.403 1031.95 171.403 1040.7 Q171.403 1049.43 168.325 1054.03 Q165.269 1058.62 159.459 1058.62 Q153.649 1058.62 150.57 1054.03 Q147.515 1049.43 147.515 1040.7 Q147.515 1031.95 150.57 1027.37 Q153.649 1022.76 159.459 1022.76 Z" fill="#000000" fill-rule="nonzero" fill-opacity="1" /><path clip-path="url(#clip370)" d="M171.403 1016.86 L195.515 1016.86 L195.515 1020.06 L171.403 1020.06 L171.403 1016.86 Z" fill="#000000" fill-rule="nonzero" fill-opacity="1" /><path clip-path="url(#clip370)" d="M212.31 1014.98 Q209.752 1014.98 208.248 1016.73 Q206.762 1018.48 206.762 1021.53 Q206.762 1024.55 208.248 1026.32 Q209.752 1028.07 212.31 1028.07 Q214.868 1028.07 216.354 1026.32 Q217.859 1024.55 217.859 1021.53 Q217.859 1018.48 216.354 1016.73 Q214.868 1014.98 212.31 1014.98 M219.852 1003.08 L219.852 1006.54 Q218.423 1005.86 216.956 1005.5 Q215.508 1005.15 214.078 1005.15 Q210.317 1005.15 208.323 1007.68 Q206.348 1010.22 206.066 1015.36 Q207.176 1013.72 208.85 1012.86 Q210.524 1011.97 212.536 1011.97 Q216.768 1011.97 219.213 1014.55 Q221.677 1017.11 221.677 1021.53 Q221.677 1025.85 219.119 1028.47 Q216.561 1031.08 212.31 1031.08 Q207.439 1031.08 204.862 1027.36 Q202.286 1023.61 202.286 1016.52 Q202.286 1009.87 205.445 1005.92 Q208.605 1001.95 213.928 1001.95 Q215.357 1001.95 216.805 1002.23 Q218.272 1002.51 219.852 1003.08 Z" fill="#000000" fill-rule="nonzero" fill-opacity="1" /><path clip-path="url(#clip370)" d="M119.844 406.959 L127.483 406.959 L127.483 380.593 L119.173 382.26 L119.173 378.001 L127.437 376.334 L132.113 376.334 L132.113 406.959 L139.751 406.959 L139.751 410.894 L119.844 410.894 L119.844 406.959 Z" fill="#000000" fill-rule="nonzero" fill-opacity="1" /><path clip-path="url(#clip370)" d="M159.196 379.413 Q155.585 379.413 153.756 382.978 Q151.95 386.519 151.95 393.649 Q151.95 400.755 153.756 404.32 Q155.585 407.862 159.196 407.862 Q162.83 407.862 164.635 404.32 Q166.464 400.755 166.464 393.649 Q166.464 386.519 164.635 382.978 Q162.83 379.413 159.196 379.413 M159.196 375.709 Q165.006 375.709 168.061 380.316 Q171.14 384.899 171.14 393.649 Q171.14 402.376 168.061 406.982 Q165.006 411.566 159.196 411.566 Q153.386 411.566 150.307 406.982 Q147.251 402.376 147.251 393.649 Q147.251 384.899 150.307 380.316 Q153.386 375.709 159.196 375.709 Z" fill="#000000" fill-rule="nonzero" fill-opacity="1" /><path clip-path="url(#clip370)" d="M171.14 369.811 L195.252 369.811 L195.252 373.008 L171.14 373.008 L171.14 369.811 Z" fill="#000000" fill-rule="nonzero" fill-opacity="1" /><path clip-path="url(#clip370)" d="M213.89 358.714 L204.298 373.704 L213.89 373.704 L213.89 358.714 M212.893 355.404 L217.67 355.404 L217.67 373.704 L221.677 373.704 L221.677 376.864 L217.67 376.864 L217.67 383.484 L213.89 383.484 L213.89 376.864 L201.214 376.864 L201.214 373.196 L212.893 355.404 Z" fill="#000000" fill-rule="nonzero" fill-opacity="1" /><path clip-path="url(#clip370)" d="M43.5177 1098.13 L43.5177 1088.55 L75.8554 1076.42 L43.5177 1064.23 L43.5177 1054.65 L91.0377 1054.65 L91.0377 1060.92 L49.3104 1060.92 L81.9029 1073.18 L81.9029 1079.64 L49.3104 1091.89 L91.0377 1091.89 L91.0377 1098.13 L43.5177 1098.13 Z" fill="#000000" fill-rule="nonzero" fill-opacity="1" /><path clip-path="url(#clip370)" d="M73.1182 1025.94 Q73.1182 1033.04 74.7414 1035.78 Q76.3647 1038.52 80.2796 1038.52 Q83.3988 1038.52 85.2449 1036.48 Q87.0591 1034.41 87.0591 1030.88 Q87.0591 1026.01 83.6216 1023.08 Q80.1523 1020.12 74.4232 1020.12 L73.1182 1020.12 L73.1182 1025.94 M70.6992 1014.26 L91.0377 1014.26 L91.0377 1020.12 L85.6268 1020.12 Q88.8733 1022.12 90.4329 1025.12 Q91.9607 1028.11 91.9607 1032.44 Q91.9607 1037.91 88.9051 1041.16 Q85.8178 1044.37 80.6616 1044.37 Q74.646 1044.37 71.5904 1040.36 Q68.5349 1036.32 68.5349 1028.33 L68.5349 1020.12 L67.962 1020.12 Q63.9197 1020.12 61.7236 1022.79 Q59.4956 1025.44 59.4956 1030.24 Q59.4956 1033.3 60.2276 1036.19 Q60.9597 1039.09 62.4238 1041.76 L57.013 1041.76 Q55.7716 1038.55 55.1669 1035.52 Q54.5303 1032.5 54.5303 1029.64 Q54.5303 1021.9 58.5407 1018.08 Q62.5511 1014.26 70.6992 1014.26 Z" fill="#000000" fill-rule="nonzero" fill-opacity="1" /><path clip-path="url(#clip370)" d="M55.3897 972.568 L72.7362 985.458 L91.0377 971.9 L91.0377 978.806 L77.0331 989.182 L91.0377 999.559 L91.0377 1006.47 L72.3861 992.62 L55.3897 1005.29 L55.3897 998.381 L68.0893 988.928 L55.3897 979.475 L55.3897 972.568 Z" fill="#000000" fill-rule="nonzero" fill-opacity="1" /><path clip-path="url(#clip370)" d="M73.1182 926.703 Q73.1182 933.801 74.7414 936.538 Q76.3647 939.275 80.2796 939.275 Q83.3988 939.275 85.2449 937.238 Q87.0591 935.169 87.0591 931.636 Q87.0591 926.767 83.6216 923.838 Q80.1523 920.878 74.4232 920.878 L73.1182 920.878 L73.1182 926.703 M70.6992 915.022 L91.0377 915.022 L91.0377 920.878 L85.6268 920.878 Q88.8733 922.884 90.4329 925.875 Q91.9607 928.867 91.9607 933.196 Q91.9607 938.671 88.9051 941.917 Q85.8178 945.132 80.6616 945.132 Q74.646 945.132 71.5904 941.121 Q68.5349 937.079 68.5349 929.09 L68.5349 920.878 L67.962 920.878 Q63.9197 920.878 61.7236 923.552 Q59.4956 926.194 59.4956 931 Q59.4956 934.055 60.2276 936.952 Q60.9597 939.848 62.4238 942.522 L57.013 942.522 Q55.7716 939.307 55.1669 936.283 Q54.5303 933.26 54.5303 930.395 Q54.5303 922.661 58.5407 918.841 Q62.5511 915.022 70.6992 915.022 Z" fill="#000000" fill-rule="nonzero" fill-opacity="1" /><path clip-path="url(#clip370)" d="M73.2455 877.369 Q66.7843 877.369 63.124 880.042 Q59.4319 882.684 59.4319 887.331 Q59.4319 891.978 63.124 894.652 Q66.7843 897.293 73.2455 897.293 Q79.7067 897.293 83.3988 894.652 Q87.0591 891.978 87.0591 887.331 Q87.0591 882.684 83.3988 880.042 Q79.7067 877.369 73.2455 877.369 M60.8005 897.293 Q57.6177 895.447 56.0899 892.646 Q54.5303 889.814 54.5303 885.899 Q54.5303 879.406 59.6865 875.364 Q64.8428 871.29 73.2455 871.29 Q81.6482 871.29 86.8045 875.364 Q91.9607 879.406 91.9607 885.899 Q91.9607 889.814 90.4329 892.646 Q88.8733 895.447 85.6905 897.293 L91.0377 897.293 L91.0377 903.182 L41.5125 903.182 L41.5125 897.293 L60.8005 897.293 Z" fill="#000000" fill-rule="nonzero" fill-opacity="1" /><path clip-path="url(#clip370)" d="M56.44 838.856 L61.9782 838.856 Q60.7051 841.339 60.0685 844.012 Q59.4319 846.686 59.4319 849.551 Q59.4319 853.911 60.7687 856.107 Q62.1055 858.272 64.7791 858.272 Q66.8161 858.272 67.9938 856.712 Q69.1396 855.152 70.19 850.442 L70.6356 848.437 Q71.9724 842.198 74.4232 839.588 Q76.8421 836.947 81.2026 836.947 Q86.1679 836.947 89.0643 840.893 Q91.9607 844.808 91.9607 851.683 Q91.9607 854.548 91.3878 857.667 Q90.8467 860.754 89.7327 864.192 L83.6853 864.192 Q85.3722 860.945 86.2315 857.794 Q87.0591 854.643 87.0591 851.556 Q87.0591 847.418 85.6586 845.19 Q84.2263 842.962 81.6482 842.962 Q79.2611 842.962 77.988 844.585 Q76.7148 846.177 75.5372 851.619 L75.0597 853.657 Q73.9139 859.099 71.5586 861.518 Q69.1714 863.937 65.0337 863.937 Q60.0048 863.937 57.2676 860.372 Q54.5303 856.808 54.5303 850.251 Q54.5303 847.004 55.0078 844.14 Q55.4852 841.275 56.44 838.856 Z" fill="#000000" fill-rule="nonzero" fill-opacity="1" /><path clip-path="url(#clip370)" d="M71.7496 776.409 L74.6141 776.409 L74.6141 803.336 Q80.6616 802.954 83.8444 799.707 Q86.9954 796.429 86.9954 790.604 Q86.9954 787.23 86.1679 784.079 Q85.3403 780.896 83.6853 777.777 L89.2234 777.777 Q90.5602 780.928 91.2605 784.238 Q91.9607 787.549 91.9607 790.954 Q91.9607 799.484 86.9954 804.481 Q82.0302 809.447 73.5638 809.447 Q64.8109 809.447 59.6865 804.736 Q54.5303 799.994 54.5303 791.973 Q54.5303 784.78 59.1773 780.61 Q63.7924 776.409 71.7496 776.409 M70.0308 782.265 Q65.2247 782.329 62.3601 784.971 Q59.4956 787.58 59.4956 791.909 Q59.4956 796.811 62.2647 799.771 Q65.0337 802.699 70.0626 803.145 L70.0308 782.265 Z" fill="#000000" fill-rule="nonzero" fill-opacity="1" /><path clip-path="url(#clip370)" d="M60.8642 746.14 Q60.2913 747.126 60.0367 748.304 Q59.7502 749.45 59.7502 750.85 Q59.7502 755.816 62.9967 758.489 Q66.2114 761.131 72.2588 761.131 L91.0377 761.131 L91.0377 767.019 L55.3897 767.019 L55.3897 761.131 L60.9279 761.131 Q57.6813 759.285 56.1218 756.325 Q54.5303 753.365 54.5303 749.132 Q54.5303 748.527 54.6258 747.795 Q54.6895 747.063 54.8486 746.172 L60.8642 746.14 Z" fill="#000000" fill-rule="nonzero" fill-opacity="1" /><path clip-path="url(#clip370)" d="M60.8642 720.486 Q60.2913 721.473 60.0367 722.65 Q59.7502 723.796 59.7502 725.197 Q59.7502 730.162 62.9967 732.835 Q66.2114 735.477 72.2588 735.477 L91.0377 735.477 L91.0377 741.365 L55.3897 741.365 L55.3897 735.477 L60.9279 735.477 Q57.6813 733.631 56.1218 730.671 Q54.5303 727.711 54.5303 723.478 Q54.5303 722.873 54.6258 722.141 Q54.6895 721.409 54.8486 720.518 L60.8642 720.486 Z" fill="#000000" fill-rule="nonzero" fill-opacity="1" /><path clip-path="url(#clip370)" d="M59.4956 701.962 Q59.4956 706.672 63.1877 709.41 Q66.848 712.147 73.2455 712.147 Q79.643 712.147 83.3351 709.441 Q86.9954 706.704 86.9954 701.962 Q86.9954 697.283 83.3033 694.546 Q79.6112 691.808 73.2455 691.808 Q66.9116 691.808 63.2195 694.546 Q59.4956 697.283 59.4956 701.962 M54.5303 701.962 Q54.5303 694.323 59.4956 689.962 Q64.4608 685.602 73.2455 685.602 Q81.9983 685.602 86.9954 689.962 Q91.9607 694.323 91.9607 701.962 Q91.9607 709.632 86.9954 713.993 Q81.9983 718.322 73.2455 718.322 Q64.4608 718.322 59.4956 713.993 Q54.5303 709.632 54.5303 701.962 Z" fill="#000000" fill-rule="nonzero" fill-opacity="1" /><path clip-path="url(#clip370)" d="M60.8642 655.237 Q60.2913 656.224 60.0367 657.402 Q59.7502 658.548 59.7502 659.948 Q59.7502 664.913 62.9967 667.587 Q66.2114 670.229 72.2588 670.229 L91.0377 670.229 L91.0377 676.117 L55.3897 676.117 L55.3897 670.229 L60.9279 670.229 Q57.6813 668.383 56.1218 665.423 Q54.5303 662.463 54.5303 658.229 Q54.5303 657.625 54.6258 656.893 Q54.6895 656.16 54.8486 655.269 L60.8642 655.237 Z" fill="#000000" fill-rule="nonzero" fill-opacity="1" /><path clip-path="url(#clip370)" d="M41.5761 614.306 Q48.8967 618.571 56.0581 620.64 Q63.2195 622.709 70.5719 622.709 Q77.9243 622.709 85.1494 620.64 Q92.3426 618.539 99.6314 614.306 L99.6314 619.399 Q92.1517 624.173 84.9266 626.56 Q77.7015 628.915 70.5719 628.915 Q63.4741 628.915 56.2809 626.56 Q49.0876 624.205 41.5761 619.399 L41.5761 614.306 Z" fill="#000000" fill-rule="nonzero" fill-opacity="1" /><path clip-path="url(#clip370)" d="M62.2328 575.189 Q58.2861 572.993 56.4082 569.937 Q54.5303 566.881 54.5303 562.744 Q54.5303 557.174 58.4452 554.15 Q62.3283 551.126 69.5216 551.126 L91.0377 551.126 L91.0377 557.015 L69.7125 557.015 Q64.5881 557.015 62.1055 558.829 Q59.6229 560.643 59.6229 564.367 Q59.6229 568.918 62.6466 571.56 Q65.6703 574.202 70.8902 574.202 L91.0377 574.202 L91.0377 580.09 L69.7125 580.09 Q64.5563 580.09 62.1055 581.905 Q59.6229 583.719 59.6229 587.506 Q59.6229 591.994 62.6784 594.636 Q65.7021 597.278 70.8902 597.278 L91.0377 597.278 L91.0377 603.166 L55.3897 603.166 L55.3897 597.278 L60.9279 597.278 Q57.6495 595.272 56.0899 592.472 Q54.5303 589.671 54.5303 585.819 Q54.5303 581.936 56.5037 579.231 Q58.4771 576.494 62.2328 575.189 Z" fill="#000000" fill-rule="nonzero" fill-opacity="1" /><path clip-path="url(#clip370)" d="M59.4956 525.632 Q59.4956 530.342 63.1877 533.08 Q66.848 535.817 73.2455 535.817 Q79.643 535.817 83.3351 533.111 Q86.9954 530.374 86.9954 525.632 Q86.9954 520.953 83.3033 518.216 Q79.6112 515.478 73.2455 515.478 Q66.9116 515.478 63.2195 518.216 Q59.4956 520.953 59.4956 525.632 M54.5303 525.632 Q54.5303 517.993 59.4956 513.632 Q64.4608 509.272 73.2455 509.272 Q81.9983 509.272 86.9954 513.632 Q91.9607 517.993 91.9607 525.632 Q91.9607 533.302 86.9954 537.663 Q81.9983 541.992 73.2455 541.992 Q64.4608 541.992 59.4956 537.663 Q54.5303 533.302 54.5303 525.632 Z" fill="#000000" fill-rule="nonzero" fill-opacity="1" /><path clip-path="url(#clip370)" d="M41.5125 499.564 L41.5125 493.708 L91.0377 493.708 L91.0377 499.564 L41.5125 499.564 Z" fill="#000000" fill-rule="nonzero" fill-opacity="1" /><path clip-path="url(#clip370)" d="M43.5177 471.046 L43.5177 465.635 L97.0851 482.186 L97.0851 487.597 L43.5177 471.046 Z" fill="#000000" fill-rule="nonzero" fill-opacity="1" /><path clip-path="url(#clip370)" d="M62.2328 431.737 Q58.2861 429.541 56.4082 426.486 Q54.5303 423.43 54.5303 419.293 Q54.5303 413.723 58.4452 410.699 Q62.3283 407.675 69.5216 407.675 L91.0377 407.675 L91.0377 413.563 L69.7125 413.563 Q64.5881 413.563 62.1055 415.378 Q59.6229 417.192 59.6229 420.916 Q59.6229 425.467 62.6466 428.109 Q65.6703 430.751 70.8902 430.751 L91.0377 430.751 L91.0377 436.639 L69.7125 436.639 Q64.5563 436.639 62.1055 438.453 Q59.6229 440.268 59.6229 444.055 Q59.6229 448.543 62.6784 451.185 Q65.7021 453.826 70.8902 453.826 L91.0377 453.826 L91.0377 459.715 L55.3897 459.715 L55.3897 453.826 L60.9279 453.826 Q57.6495 451.821 56.0899 449.02 Q54.5303 446.219 54.5303 442.368 Q54.5303 438.485 56.5037 435.78 Q58.4771 433.042 62.2328 431.737 Z" fill="#000000" fill-rule="nonzero" fill-opacity="1" /><path clip-path="url(#clip370)" d="M36.6275 400.635 Q35.2523 400.635 34.5985 399.846 Q33.9448 399.057 33.9448 398.043 Q33.9448 396.983 34.6436 396.239 Q35.32 395.473 36.5148 395.473 Q37.7998 395.473 38.5212 396.374 Q39.2426 397.253 39.0623 398.516 Q40.9109 397.411 41.745 395.382 Q42.5792 393.331 42.5792 391.437 Q42.5792 389.453 40.8658 387.853 Q39.1525 386.229 34.9592 386.229 Q31.3973 386.229 29.3458 387.627 Q27.2943 389.002 27.2943 391.73 L27.2943 393.759 Q27.2943 394.458 27.2266 394.661 Q27.159 394.864 26.7757 394.864 Q26.3249 394.864 26.2347 394.165 Q26.2347 393.466 26.0994 392.361 Q26.0092 389.679 23.6872 388.258 Q21.523 386.973 18.4344 386.973 Q15.6164 386.973 14.4441 388.326 Q13.2493 389.656 13.2493 391.392 Q13.2493 393.015 13.9256 394.796 Q14.6019 396.577 16.1124 397.547 Q16.1124 394.683 18.4344 394.683 Q19.4489 394.683 20.1252 395.337 Q20.779 395.968 20.779 397.028 Q20.779 398.043 20.1478 398.719 Q19.494 399.395 18.3893 399.395 Q15.7517 399.395 13.9256 397.051 Q12.0995 394.683 12.0995 391.212 Q12.0995 387.785 13.9031 385.26 Q15.7066 382.713 18.4795 382.713 Q21.2073 382.713 23.4392 384.516 Q25.6711 386.32 26.5954 389.183 Q27.2943 385.666 29.6839 383.569 Q32.0511 381.473 34.9592 381.473 Q38.5663 381.473 41.2265 384.313 Q43.8642 387.154 43.8642 391.302 Q43.8642 395.134 41.7901 397.885 Q39.7161 400.635 36.6275 400.635 Z" fill="#000000" fill-rule="nonzero" fill-opacity="1" /><path clip-path="url(#clip370)" d="M41.5761 374.619 L41.5761 369.526 Q49.0876 364.752 56.2809 362.396 Q63.4741 360.009 70.5719 360.009 Q77.7015 360.009 84.9266 362.396 Q92.1517 364.752 99.6314 369.526 L99.6314 374.619 Q92.3426 370.385 85.1494 368.317 Q77.9243 366.216 70.5719 366.216 Q63.2195 366.216 56.0581 368.317 Q48.8967 370.385 41.5761 374.619 Z" fill="#000000" fill-rule="nonzero" fill-opacity="1" /><polyline clip-path="url(#clip372)" style="stroke:#008000; stroke-linecap:round; stroke-linejoin:round; stroke-width:4; stroke-opacity:1; fill:none" stroke-dasharray="2, 4" points="316.971,85.8384 975.801,422.724 1634.63,882.093 2293.46,1372.3 "/>
<path clip-path="url(#clip372)" d="M316.971 105.838 L299.651 95.8384 L299.651 75.8384 L316.971 65.8384 L334.291 75.8384 L334.291 95.8384 Z" fill="#008000" fill-rule="evenodd" fill-opacity="1" stroke="#000000" stroke-opacity="1" stroke-width="3.2"/>
<path clip-path="url(#clip372)" d="M975.801 442.724 L958.481 432.724 L958.481 412.724 L975.801 402.724 L993.121 412.724 L993.121 432.724 Z" fill="#008000" fill-rule="evenodd" fill-opacity="1" stroke="#000000" stroke-opacity="1" stroke-width="3.2"/>
<path clip-path="url(#clip372)" d="M1634.63 902.093 L1617.31 892.093 L1617.31 872.093 L1634.63 862.093 L1651.95 872.093 L1651.95 892.093 Z" fill="#008000" fill-rule="evenodd" fill-opacity="1" stroke="#000000" stroke-opacity="1" stroke-width="3.2"/>
<path clip-path="url(#clip372)" d="M2293.46 1392.3 L2276.14 1382.3 L2276.14 1362.3 L2293.46 1352.3 L2310.78 1362.3 L2310.78 1382.3 Z" fill="#008000" fill-rule="evenodd" fill-opacity="1" stroke="#000000" stroke-opacity="1" stroke-width="3.2"/>
<polyline clip-path="url(#clip372)" style="stroke:#a92a00; stroke-linecap:round; stroke-linejoin:round; stroke-width:4; stroke-opacity:1; fill:none" stroke-dasharray="2, 4" points="316.971,85.8384 975.801,422.724 1634.63,882.093 2293.46,1372.3 "/>
<path clip-path="url(#clip372)" d="M316.971 105.838 L299.651 95.8384 L299.651 75.8384 L316.971 65.8384 L334.291 75.8384 L334.291 95.8384 Z" fill="#a92a00" fill-rule="evenodd" fill-opacity="1" stroke="#000000" stroke-opacity="1" stroke-width="3.2"/>
<path clip-path="url(#clip372)" d="M975.801 442.724 L958.481 432.724 L958.481 412.724 L975.801 402.724 L993.121 412.724 L993.121 432.724 Z" fill="#a92a00" fill-rule="evenodd" fill-opacity="1" stroke="#000000" stroke-opacity="1" stroke-width="3.2"/>
<path clip-path="url(#clip372)" d="M1634.63 902.093 L1617.31 892.093 L1617.31 872.093 L1634.63 862.093 L1651.95 872.093 L1651.95 892.093 Z" fill="#a92a00" fill-rule="evenodd" fill-opacity="1" stroke="#000000" stroke-opacity="1" stroke-width="3.2"/>
<path clip-path="url(#clip372)" d="M2293.46 1392.3 L2276.14 1382.3 L2276.14 1362.3 L2293.46 1352.3 L2310.78 1362.3 L2310.78 1382.3 Z" fill="#a92a00" fill-rule="evenodd" fill-opacity="1" stroke="#000000" stroke-opacity="1" stroke-width="3.2"/>
<polyline clip-path="url(#clip372)" style="stroke:#800080; stroke-linecap:round; stroke-linejoin:round; stroke-width:4; stroke-opacity:1; fill:none" stroke-dasharray="2, 4" points="316.971,85.838 975.801,422.722 1634.63,882.054 2293.46,1338.26 "/>
<path clip-path="url(#clip372)" d="M316.971 65.838 L296.971 85.838 L316.971 105.838 L336.971 85.838 L316.971 65.838 Z" fill="#800080" fill-rule="evenodd" fill-opacity="1" stroke="#000000" stroke-opacity="1" stroke-width="3.2"/>
<path clip-path="url(#clip372)" d="M975.801 402.722 L955.801 422.722 L975.801 442.722 L995.801 422.722 L975.801 402.722 Z" fill="#800080" fill-rule="evenodd" fill-opacity="1" stroke="#000000" stroke-opacity="1" stroke-width="3.2"/>
<path clip-path="url(#clip372)" d="M1634.63 862.054 L1614.63 882.054 L1634.63 902.054 L1654.63 882.054 L1634.63 862.054 Z" fill="#800080" fill-rule="evenodd" fill-opacity="1" stroke="#000000" stroke-opacity="1" stroke-width="3.2"/>
<path clip-path="url(#clip372)" d="M2293.46 1318.26 L2273.46 1338.26 L2293.46 1358.26 L2313.46 1338.26 L2293.46 1318.26 Z" fill="#800080" fill-rule="evenodd" fill-opacity="1" stroke="#000000" stroke-opacity="1" stroke-width="3.2"/>
<polyline clip-path="url(#clip372)" style="stroke:#805580; stroke-linecap:round; stroke-linejoin:round; stroke-width:4; stroke-opacity:1; fill:none" stroke-dasharray="2, 4" points="316.971,85.838 975.801,422.722 1634.63,882.054 2293.46,1338.26 "/>
<path clip-path="url(#clip372)" d="M316.971 65.838 L296.971 85.838 L316.971 105.838 L336.971 85.838 L316.971 65.838 Z" fill="#805580" fill-rule="evenodd" fill-opacity="1" stroke="#000000" stroke-opacity="1" stroke-width="3.2"/>
<path clip-path="url(#clip372)" d="M975.801 402.722 L955.801 422.722 L975.801 442.722 L995.801 422.722 L975.801 402.722 Z" fill="#805580" fill-rule="evenodd" fill-opacity="1" stroke="#000000" stroke-opacity="1" stroke-width="3.2"/>
<path clip-path="url(#clip372)" d="M1634.63 862.054 L1614.63 882.054 L1634.63 902.054 L1654.63 882.054 L1634.63 862.054 Z" fill="#805580" fill-rule="evenodd" fill-opacity="1" stroke="#000000" stroke-opacity="1" stroke-width="3.2"/>
<path clip-path="url(#clip372)" d="M2293.46 1318.26 L2273.46 1338.26 L2293.46 1358.26 L2313.46 1338.26 L2293.46 1318.26 Z" fill="#805580" fill-rule="evenodd" fill-opacity="1" stroke="#000000" stroke-opacity="1" stroke-width="3.2"/>
<polyline clip-path="url(#clip372)" style="stroke:#0000ff; stroke-linecap:round; stroke-linejoin:round; stroke-width:4; stroke-opacity:1; fill:none" stroke-dasharray="2, 4" points="316.971,85.838 975.801,422.722 1634.63,882.054 2293.46,1335.71 "/>
<path clip-path="url(#clip372)" d="M316.971 65.838 L312.271 79.358 L297.951 79.658 L309.371 88.318 L305.211 102.018 L316.971 93.838 L328.731 102.018 L324.571 88.318 L335.991 79.658 L321.671 79.358 L316.971 65.838 Z" fill="#0000ff" fill-rule="evenodd" fill-opacity="1" stroke="#000000" stroke-opacity="1" stroke-width="3.2"/>
<path clip-path="url(#clip372)" d="M975.801 402.722 L971.101 416.242 L956.781 416.542 L968.201 425.202 L964.041 438.902 L975.801 430.722 L987.561 438.902 L983.401 425.202 L994.821 416.542 L980.501 416.242 L975.801 402.722 Z" fill="#0000ff" fill-rule="evenodd" fill-opacity="1" stroke="#000000" stroke-opacity="1" stroke-width="3.2"/>
<path clip-path="url(#clip372)" d="M1634.63 862.054 L1629.93 875.574 L1615.61 875.874 L1627.03 884.534 L1622.87 898.234 L1634.63 890.054 L1646.39 898.234 L1642.23 884.534 L1653.65 875.874 L1639.33 875.574 L1634.63 862.054 Z" fill="#0000ff" fill-rule="evenodd" fill-opacity="1" stroke="#000000" stroke-opacity="1" stroke-width="3.2"/>
<path clip-path="url(#clip372)" d="M2293.46 1315.71 L2288.76 1329.23 L2274.44 1329.53 L2285.86 1338.19 L2281.7 1351.89 L2293.46 1343.71 L2305.22 1351.89 L2301.06 1338.19 L2312.48 1329.53 L2298.16 1329.23 L2293.46 1315.71 Z" fill="#0000ff" fill-rule="evenodd" fill-opacity="1" stroke="#000000" stroke-opacity="1" stroke-width="3.2"/>
<polyline clip-path="url(#clip372)" style="stroke:#a9a955; stroke-linecap:round; stroke-linejoin:round; stroke-width:4; stroke-opacity:1; fill:none" stroke-dasharray="2, 4" points="316.971,85.838 975.801,422.722 1634.63,882.054 2293.46,1335.71 "/>
<path clip-path="url(#clip372)" d="M316.971 65.838 L312.271 79.358 L297.951 79.658 L309.371 88.318 L305.211 102.018 L316.971 93.838 L328.731 102.018 L324.571 88.318 L335.991 79.658 L321.671 79.358 L316.971 65.838 Z" fill="#a9a955" fill-rule="evenodd" fill-opacity="1" stroke="#000000" stroke-opacity="1" stroke-width="3.2"/>
<path clip-path="url(#clip372)" d="M975.801 402.722 L971.101 416.242 L956.781 416.542 L968.201 425.202 L964.041 438.902 L975.801 430.722 L987.561 438.902 L983.401 425.202 L994.821 416.542 L980.501 416.242 L975.801 402.722 Z" fill="#a9a955" fill-rule="evenodd" fill-opacity="1" stroke="#000000" stroke-opacity="1" stroke-width="3.2"/>
<path clip-path="url(#clip372)" d="M1634.63 862.054 L1629.93 875.574 L1615.61 875.874 L1627.03 884.534 L1622.87 898.234 L1634.63 890.054 L1646.39 898.234 L1642.23 884.534 L1653.65 875.874 L1639.33 875.574 L1634.63 862.054 Z" fill="#a9a955" fill-rule="evenodd" fill-opacity="1" stroke="#000000" stroke-opacity="1" stroke-width="3.2"/>
<path clip-path="url(#clip372)" d="M2293.46 1315.71 L2288.76 1329.23 L2274.44 1329.53 L2285.86 1338.19 L2281.7 1351.89 L2293.46 1343.71 L2305.22 1351.89 L2301.06 1338.19 L2312.48 1329.53 L2298.16 1329.23 L2293.46 1315.71 Z" fill="#a9a955" fill-rule="evenodd" fill-opacity="1" stroke="#000000" stroke-opacity="1" stroke-width="3.2"/>
<path clip-path="url(#clip370)" d="M1814.99 455.579 L2282.92 455.579 L2282.92 92.6992 L1814.99 92.6992  Z" fill="#ffffff" fill-rule="evenodd" fill-opacity="1"/>
<polyline clip-path="url(#clip370)" style="stroke:#000000; stroke-linecap:round; stroke-linejoin:round; stroke-width:4; stroke-opacity:1; fill:none" points="1814.99,455.579 2282.92,455.579 2282.92,92.6992 1814.99,92.6992 1814.99,455.579 "/>
<polyline clip-path="url(#clip370)" style="stroke:#008000; stroke-linecap:round; stroke-linejoin:round; stroke-width:4; stroke-opacity:1; fill:none" stroke-dasharray="2, 4" points="1838.27,144.539 1977.94,144.539 "/>
<path clip-path="url(#clip370)" d="M1908.1 166.093 L1889.44 155.316 L1889.44 133.762 L1908.1 122.985 L1926.77 133.762 L1926.77 155.316 Z" fill="#008000" fill-rule="evenodd" fill-opacity="1" stroke="#000000" stroke-opacity="1" stroke-width="3.72364"/>
<path clip-path="url(#clip370)" d="M2001.22 127.259 L2021.08 127.259 L2021.08 131.194 L2005.89 131.194 L2005.89 141.379 L2019.6 141.379 L2019.6 145.315 L2005.89 145.315 L2005.89 161.819 L2001.22 161.819 L2001.22 127.259 Z" fill="#000000" fill-rule="nonzero" fill-opacity="1" /><path clip-path="url(#clip370)" d="M2033.16 145.315 L2033.16 157.977 L2040.66 157.977 Q2044.43 157.977 2046.24 156.426 Q2048.07 154.852 2048.07 151.634 Q2048.07 148.393 2046.24 146.866 Q2044.43 145.315 2040.66 145.315 L2033.16 145.315 M2033.16 131.102 L2033.16 141.518 L2040.08 141.518 Q2043.51 141.518 2045.17 140.245 Q2046.86 138.949 2046.86 136.31 Q2046.86 133.694 2045.17 132.398 Q2043.51 131.102 2040.08 131.102 L2033.16 131.102 M2028.49 127.259 L2040.43 127.259 Q2045.78 127.259 2048.67 129.481 Q2051.56 131.704 2051.56 135.801 Q2051.56 138.972 2050.08 140.847 Q2048.6 142.722 2045.73 143.185 Q2049.18 143.926 2051.08 146.287 Q2053 148.625 2053 152.143 Q2053 156.773 2049.85 159.296 Q2046.7 161.819 2040.89 161.819 L2028.49 161.819 L2028.49 127.259 Z" fill="#000000" fill-rule="nonzero" fill-opacity="1" /><path clip-path="url(#clip370)" d="M2065.68 131.102 L2065.68 157.977 L2071.33 157.977 Q2078.48 157.977 2081.79 154.736 Q2085.13 151.495 2085.13 144.504 Q2085.13 137.56 2081.79 134.342 Q2078.48 131.102 2071.33 131.102 L2065.68 131.102 M2061.01 127.259 L2070.61 127.259 Q2080.66 127.259 2085.36 131.449 Q2090.06 135.616 2090.06 144.504 Q2090.06 153.44 2085.34 157.629 Q2080.61 161.819 2070.61 161.819 L2061.01 161.819 L2061.01 127.259 Z" fill="#000000" fill-rule="nonzero" fill-opacity="1" /><path clip-path="url(#clip370)" d="M2097.51 127.259 L2117.37 127.259 L2117.37 131.194 L2102.19 131.194 L2102.19 141.379 L2115.89 141.379 L2115.89 145.315 L2102.19 145.315 L2102.19 161.819 L2097.51 161.819 L2097.51 127.259 Z" fill="#000000" fill-rule="nonzero" fill-opacity="1" /><polyline clip-path="url(#clip370)" style="stroke:#a92a00; stroke-linecap:round; stroke-linejoin:round; stroke-width:4; stroke-opacity:1; fill:none" stroke-dasharray="2, 4" points="1838.27,196.379 1977.94,196.379 "/>
<path clip-path="url(#clip370)" d="M1908.1 217.933 L1889.44 207.156 L1889.44 185.602 L1908.1 174.825 L1926.77 185.602 L1926.77 207.156 Z" fill="#a92a00" fill-rule="evenodd" fill-opacity="1" stroke="#000000" stroke-opacity="1" stroke-width="3.72364"/>
<path clip-path="url(#clip370)" d="M2001.22 179.099 L2021.08 179.099 L2021.08 183.034 L2005.89 183.034 L2005.89 193.219 L2019.6 193.219 L2019.6 197.155 L2005.89 197.155 L2005.89 213.659 L2001.22 213.659 L2001.22 179.099 Z" fill="#000000" fill-rule="nonzero" fill-opacity="1" /><path clip-path="url(#clip370)" d="M2033.16 197.155 L2033.16 209.817 L2040.66 209.817 Q2044.43 209.817 2046.24 208.266 Q2048.07 206.692 2048.07 203.474 Q2048.07 200.233 2046.24 198.706 Q2044.43 197.155 2040.66 197.155 L2033.16 197.155 M2033.16 182.942 L2033.16 193.358 L2040.08 193.358 Q2043.51 193.358 2045.17 192.085 Q2046.86 190.789 2046.86 188.15 Q2046.86 185.534 2045.17 184.238 Q2043.51 182.942 2040.08 182.942 L2033.16 182.942 M2028.49 179.099 L2040.43 179.099 Q2045.78 179.099 2048.67 181.321 Q2051.56 183.544 2051.56 187.641 Q2051.56 190.812 2050.08 192.687 Q2048.6 194.562 2045.73 195.025 Q2049.18 195.766 2051.08 198.127 Q2053 200.465 2053 203.983 Q2053 208.613 2049.85 211.136 Q2046.7 213.659 2040.89 213.659 L2028.49 213.659 L2028.49 179.099 Z" fill="#000000" fill-rule="nonzero" fill-opacity="1" /><path clip-path="url(#clip370)" d="M2065.68 182.942 L2065.68 209.817 L2071.33 209.817 Q2078.48 209.817 2081.79 206.576 Q2085.13 203.335 2085.13 196.344 Q2085.13 189.4 2081.79 186.182 Q2078.48 182.942 2071.33 182.942 L2065.68 182.942 M2061.01 179.099 L2070.61 179.099 Q2080.66 179.099 2085.36 183.289 Q2090.06 187.456 2090.06 196.344 Q2090.06 205.28 2085.34 209.469 Q2080.61 213.659 2070.61 213.659 L2061.01 213.659 L2061.01 179.099 Z" fill="#000000" fill-rule="nonzero" fill-opacity="1" /><path clip-path="url(#clip370)" d="M2097.51 179.099 L2117.37 179.099 L2117.37 183.034 L2102.19 183.034 L2102.19 193.219 L2115.89 193.219 L2115.89 197.155 L2102.19 197.155 L2102.19 213.659 L2097.51 213.659 L2097.51 179.099 Z" fill="#000000" fill-rule="nonzero" fill-opacity="1" /><path clip-path="url(#clip370)" d="M2144.29 221.53 L2144.29 224.84 L2119.67 224.84 L2119.67 221.53 L2144.29 221.53 Z" fill="#000000" fill-rule="nonzero" fill-opacity="1" /><path clip-path="url(#clip370)" d="M2152.42 209.77 L2152.42 223.52 L2148.14 223.52 L2148.14 187.733 L2152.42 187.733 L2152.42 191.669 Q2153.76 189.354 2155.8 188.243 Q2157.86 187.108 2160.71 187.108 Q2165.43 187.108 2168.37 190.858 Q2171.33 194.608 2171.33 200.719 Q2171.33 206.831 2168.37 210.58 Q2165.43 214.33 2160.71 214.33 Q2157.86 214.33 2155.8 213.219 Q2153.76 212.085 2152.42 209.77 M2166.91 200.719 Q2166.91 196.02 2164.97 193.358 Q2163.04 190.673 2159.66 190.673 Q2156.29 190.673 2154.34 193.358 Q2152.42 196.02 2152.42 200.719 Q2152.42 205.418 2154.34 208.104 Q2156.29 210.766 2159.66 210.766 Q2163.04 210.766 2164.97 208.104 Q2166.91 205.418 2166.91 200.719 Z" fill="#000000" fill-rule="nonzero" fill-opacity="1" /><path clip-path="url(#clip370)" d="M2193.41 191.715 Q2192.7 191.298 2191.84 191.113 Q2191.01 190.905 2189.99 190.905 Q2186.38 190.905 2184.43 193.266 Q2182.51 195.604 2182.51 200.002 L2182.51 213.659 L2178.23 213.659 L2178.23 187.733 L2182.51 187.733 L2182.51 191.761 Q2183.85 189.4 2186.01 188.266 Q2188.16 187.108 2191.24 187.108 Q2191.68 187.108 2192.21 187.178 Q2192.74 187.224 2193.39 187.34 L2193.41 191.715 Z" fill="#000000" fill-rule="nonzero" fill-opacity="1" /><path clip-path="url(#clip370)" d="M2219.02 199.631 L2219.02 201.715 L2199.43 201.715 Q2199.71 206.113 2202.07 208.428 Q2204.46 210.719 2208.69 210.719 Q2211.15 210.719 2213.44 210.118 Q2215.75 209.516 2218.02 208.312 L2218.02 212.34 Q2215.73 213.312 2213.32 213.821 Q2210.91 214.33 2208.44 214.33 Q2202.23 214.33 2198.6 210.719 Q2194.99 207.108 2194.99 200.951 Q2194.99 194.585 2198.41 190.858 Q2201.86 187.108 2207.7 187.108 Q2212.93 187.108 2215.96 190.488 Q2219.02 193.844 2219.02 199.631 M2214.76 198.381 Q2214.71 194.886 2212.79 192.803 Q2210.89 190.719 2207.74 190.719 Q2204.18 190.719 2202.03 192.733 Q2199.9 194.747 2199.57 198.405 L2214.76 198.381 Z" fill="#000000" fill-rule="nonzero" fill-opacity="1" /><path clip-path="url(#clip370)" d="M2244.66 188.729 L2244.66 192.71 Q2242.86 191.715 2241.03 191.229 Q2239.22 190.719 2237.37 190.719 Q2233.23 190.719 2230.94 193.358 Q2228.65 195.974 2228.65 200.719 Q2228.65 205.465 2230.94 208.104 Q2233.23 210.719 2237.37 210.719 Q2239.22 210.719 2241.03 210.233 Q2242.86 209.724 2244.66 208.729 L2244.66 212.664 Q2242.88 213.497 2240.96 213.914 Q2239.06 214.33 2236.91 214.33 Q2231.05 214.33 2227.6 210.65 Q2224.16 206.969 2224.16 200.719 Q2224.16 194.377 2227.63 190.743 Q2231.12 187.108 2237.19 187.108 Q2239.16 187.108 2241.03 187.525 Q2242.91 187.919 2244.66 188.729 Z" fill="#000000" fill-rule="nonzero" fill-opacity="1" /><polyline clip-path="url(#clip370)" style="stroke:#800080; stroke-linecap:round; stroke-linejoin:round; stroke-width:4; stroke-opacity:1; fill:none" stroke-dasharray="2, 4" points="1838.27,248.219 1977.94,248.219 "/>
<path clip-path="url(#clip370)" d="M1908.1 226.665 L1886.55 248.219 L1908.1 269.773 L1929.66 248.219 L1908.1 226.665 Z" fill="#800080" fill-rule="evenodd" fill-opacity="1" stroke="#000000" stroke-opacity="1" stroke-width="3.72364"/>
<path clip-path="url(#clip370)" d="M2017.24 234.11 Q2012.14 234.11 2009.13 237.907 Q2006.15 241.703 2006.15 248.254 Q2006.15 254.782 2009.13 258.578 Q2012.14 262.374 2017.24 262.374 Q2022.33 262.374 2025.29 258.578 Q2028.28 254.782 2028.28 248.254 Q2028.28 241.703 2025.29 237.907 Q2022.33 234.11 2017.24 234.11 M2023.79 264.874 L2029.94 271.61 L2024.3 271.61 L2019.18 266.078 Q2018.42 266.124 2018 266.147 Q2017.61 266.17 2017.24 266.17 Q2009.94 266.17 2005.57 261.309 Q2001.22 256.425 2001.22 248.254 Q2001.22 240.06 2005.57 235.198 Q2009.94 230.314 2017.24 230.314 Q2024.5 230.314 2028.86 235.198 Q2033.21 240.06 2033.21 248.254 Q2033.21 254.272 2030.78 258.555 Q2028.37 262.837 2023.79 264.874 Z" fill="#000000" fill-rule="nonzero" fill-opacity="1" /><path clip-path="url(#clip370)" d="M2040.52 230.939 L2046.82 230.939 L2062.14 259.851 L2062.14 230.939 L2066.68 230.939 L2066.68 265.499 L2060.38 265.499 L2045.06 236.587 L2045.06 265.499 L2040.52 265.499 L2040.52 230.939 Z" fill="#000000" fill-rule="nonzero" fill-opacity="1" /><path clip-path="url(#clip370)" d="M2080.66 234.782 L2080.66 261.657 L2086.31 261.657 Q2093.46 261.657 2096.77 258.416 Q2100.11 255.175 2100.11 248.184 Q2100.11 241.24 2096.77 238.022 Q2093.46 234.782 2086.31 234.782 L2080.66 234.782 M2075.98 230.939 L2085.59 230.939 Q2095.64 230.939 2100.34 235.129 Q2105.04 239.296 2105.04 248.184 Q2105.04 257.12 2100.31 261.309 Q2095.59 265.499 2085.59 265.499 L2075.98 265.499 L2075.98 230.939 Z" fill="#000000" fill-rule="nonzero" fill-opacity="1" /><path clip-path="url(#clip370)" d="M2112.49 230.939 L2132.35 230.939 L2132.35 234.874 L2117.17 234.874 L2117.17 245.059 L2130.87 245.059 L2130.87 248.995 L2117.17 248.995 L2117.17 265.499 L2112.49 265.499 L2112.49 230.939 Z" fill="#000000" fill-rule="nonzero" fill-opacity="1" /><polyline clip-path="url(#clip370)" style="stroke:#805580; stroke-linecap:round; stroke-linejoin:round; stroke-width:4; stroke-opacity:1; fill:none" stroke-dasharray="2, 4" points="1838.27,300.059 1977.94,300.059 "/>
<path clip-path="url(#clip370)" d="M1908.1 278.505 L1886.55 300.059 L1908.1 321.613 L1929.66 300.059 L1908.1 278.505 Z" fill="#805580" fill-rule="evenodd" fill-opacity="1" stroke="#000000" stroke-opacity="1" stroke-width="3.72364"/>
<path clip-path="url(#clip370)" d="M2017.24 285.95 Q2012.14 285.95 2009.13 289.747 Q2006.15 293.543 2006.15 300.094 Q2006.15 306.622 2009.13 310.418 Q2012.14 314.214 2017.24 314.214 Q2022.33 314.214 2025.29 310.418 Q2028.28 306.622 2028.28 300.094 Q2028.28 293.543 2025.29 289.747 Q2022.33 285.95 2017.24 285.95 M2023.79 316.714 L2029.94 323.45 L2024.3 323.45 L2019.18 317.918 Q2018.42 317.964 2018 317.987 Q2017.61 318.01 2017.24 318.01 Q2009.94 318.01 2005.57 313.149 Q2001.22 308.265 2001.22 300.094 Q2001.22 291.9 2005.57 287.038 Q2009.94 282.154 2017.24 282.154 Q2024.5 282.154 2028.86 287.038 Q2033.21 291.9 2033.21 300.094 Q2033.21 306.112 2030.78 310.395 Q2028.37 314.677 2023.79 316.714 Z" fill="#000000" fill-rule="nonzero" fill-opacity="1" /><path clip-path="url(#clip370)" d="M2040.52 282.779 L2046.82 282.779 L2062.14 311.691 L2062.14 282.779 L2066.68 282.779 L2066.68 317.339 L2060.38 317.339 L2045.06 288.427 L2045.06 317.339 L2040.52 317.339 L2040.52 282.779 Z" fill="#000000" fill-rule="nonzero" fill-opacity="1" /><path clip-path="url(#clip370)" d="M2080.66 286.622 L2080.66 313.497 L2086.31 313.497 Q2093.46 313.497 2096.77 310.256 Q2100.11 307.015 2100.11 300.024 Q2100.11 293.08 2096.77 289.862 Q2093.46 286.622 2086.31 286.622 L2080.66 286.622 M2075.98 282.779 L2085.59 282.779 Q2095.64 282.779 2100.34 286.969 Q2105.04 291.136 2105.04 300.024 Q2105.04 308.96 2100.31 313.149 Q2095.59 317.339 2085.59 317.339 L2075.98 317.339 L2075.98 282.779 Z" fill="#000000" fill-rule="nonzero" fill-opacity="1" /><path clip-path="url(#clip370)" d="M2112.49 282.779 L2132.35 282.779 L2132.35 286.714 L2117.17 286.714 L2117.17 296.899 L2130.87 296.899 L2130.87 300.835 L2117.17 300.835 L2117.17 317.339 L2112.49 317.339 L2112.49 282.779 Z" fill="#000000" fill-rule="nonzero" fill-opacity="1" /><path clip-path="url(#clip370)" d="M2159.27 325.21 L2159.27 328.52 L2134.64 328.52 L2134.64 325.21 L2159.27 325.21 Z" fill="#000000" fill-rule="nonzero" fill-opacity="1" /><path clip-path="url(#clip370)" d="M2167.4 313.45 L2167.4 327.2 L2163.11 327.2 L2163.11 291.413 L2167.4 291.413 L2167.4 295.349 Q2168.74 293.034 2170.78 291.923 Q2172.84 290.788 2175.68 290.788 Q2180.41 290.788 2183.35 294.538 Q2186.31 298.288 2186.31 304.399 Q2186.31 310.511 2183.35 314.26 Q2180.41 318.01 2175.68 318.01 Q2172.84 318.01 2170.78 316.899 Q2168.74 315.765 2167.4 313.45 M2181.89 304.399 Q2181.89 299.7 2179.94 297.038 Q2178.02 294.353 2174.64 294.353 Q2171.26 294.353 2169.32 297.038 Q2167.4 299.7 2167.4 304.399 Q2167.4 309.098 2169.32 311.784 Q2171.26 314.446 2174.64 314.446 Q2178.02 314.446 2179.94 311.784 Q2181.89 309.098 2181.89 304.399 Z" fill="#000000" fill-rule="nonzero" fill-opacity="1" /><path clip-path="url(#clip370)" d="M2208.39 295.395 Q2207.67 294.978 2206.82 294.793 Q2205.98 294.585 2204.97 294.585 Q2201.35 294.585 2199.41 296.946 Q2197.49 299.284 2197.49 303.682 L2197.49 317.339 L2193.21 317.339 L2193.21 291.413 L2197.49 291.413 L2197.49 295.441 Q2198.83 293.08 2200.98 291.946 Q2203.14 290.788 2206.22 290.788 Q2206.66 290.788 2207.19 290.858 Q2207.72 290.904 2208.37 291.02 L2208.39 295.395 Z" fill="#000000" fill-rule="nonzero" fill-opacity="1" /><path clip-path="url(#clip370)" d="M2233.99 303.311 L2233.99 305.395 L2214.41 305.395 Q2214.69 309.793 2217.05 312.108 Q2219.43 314.399 2223.67 314.399 Q2226.12 314.399 2228.41 313.798 Q2230.73 313.196 2233 311.992 L2233 316.02 Q2230.71 316.992 2228.3 317.501 Q2225.89 318.01 2223.41 318.01 Q2217.21 318.01 2213.58 314.399 Q2209.97 310.788 2209.97 304.631 Q2209.97 298.265 2213.39 294.538 Q2216.84 290.788 2222.67 290.788 Q2227.91 290.788 2230.94 294.168 Q2233.99 297.524 2233.99 303.311 M2229.73 302.061 Q2229.69 298.566 2227.77 296.483 Q2225.87 294.399 2222.72 294.399 Q2219.16 294.399 2217 296.413 Q2214.87 298.427 2214.55 302.085 L2229.73 302.061 Z" fill="#000000" fill-rule="nonzero" fill-opacity="1" /><path clip-path="url(#clip370)" d="M2259.64 292.409 L2259.64 296.39 Q2257.84 295.395 2256.01 294.909 Q2254.2 294.399 2252.35 294.399 Q2248.21 294.399 2245.91 297.038 Q2243.62 299.654 2243.62 304.399 Q2243.62 309.145 2245.91 311.784 Q2248.21 314.399 2252.35 314.399 Q2254.2 314.399 2256.01 313.913 Q2257.84 313.404 2259.64 312.409 L2259.64 316.344 Q2257.86 317.177 2255.94 317.594 Q2254.04 318.01 2251.89 318.01 Q2246.03 318.01 2242.58 314.33 Q2239.13 310.649 2239.13 304.399 Q2239.13 298.057 2242.6 294.423 Q2246.1 290.788 2252.16 290.788 Q2254.13 290.788 2256.01 291.205 Q2257.88 291.599 2259.64 292.409 Z" fill="#000000" fill-rule="nonzero" fill-opacity="1" /><polyline clip-path="url(#clip370)" style="stroke:#0000ff; stroke-linecap:round; stroke-linejoin:round; stroke-width:4; stroke-opacity:1; fill:none" stroke-dasharray="2, 4" points="1838.27,351.899 1977.94,351.899 "/>
<path clip-path="url(#clip370)" d="M1908.1 330.345 L1903.04 344.916 L1887.6 345.239 L1899.91 354.572 L1895.43 369.337 L1908.1 360.521 L1920.78 369.337 L1916.29 354.572 L1928.6 345.239 L1913.17 344.916 L1908.1 330.345 Z" fill="#0000ff" fill-rule="evenodd" fill-opacity="1" stroke="#000000" stroke-opacity="1" stroke-width="3.72364"/>
<path clip-path="url(#clip370)" d="M2017.24 337.79 Q2012.14 337.79 2009.13 341.587 Q2006.15 345.383 2006.15 351.934 Q2006.15 358.462 2009.13 362.258 Q2012.14 366.054 2017.24 366.054 Q2022.33 366.054 2025.29 362.258 Q2028.28 358.462 2028.28 351.934 Q2028.28 345.383 2025.29 341.587 Q2022.33 337.79 2017.24 337.79 M2023.79 368.554 L2029.94 375.29 L2024.3 375.29 L2019.18 369.758 Q2018.42 369.804 2018 369.827 Q2017.61 369.85 2017.24 369.85 Q2009.94 369.85 2005.57 364.989 Q2001.22 360.105 2001.22 351.934 Q2001.22 343.74 2005.57 338.878 Q2009.94 333.994 2017.24 333.994 Q2024.5 333.994 2028.86 338.878 Q2033.21 343.74 2033.21 351.934 Q2033.21 357.952 2030.78 362.235 Q2028.37 366.517 2023.79 368.554 Z" fill="#000000" fill-rule="nonzero" fill-opacity="1" /><path clip-path="url(#clip370)" d="M2045.2 352.675 L2045.2 365.337 L2052.7 365.337 Q2056.47 365.337 2058.28 363.786 Q2060.11 362.212 2060.11 358.994 Q2060.11 355.753 2058.28 354.226 Q2056.47 352.675 2052.7 352.675 L2045.2 352.675 M2045.2 338.462 L2045.2 348.878 L2052.12 348.878 Q2055.55 348.878 2057.21 347.605 Q2058.9 346.309 2058.9 343.67 Q2058.9 341.054 2057.21 339.758 Q2055.55 338.462 2052.12 338.462 L2045.2 338.462 M2040.52 334.619 L2052.47 334.619 Q2057.81 334.619 2060.71 336.841 Q2063.6 339.064 2063.6 343.161 Q2063.6 346.332 2062.12 348.207 Q2060.64 350.082 2057.77 350.545 Q2061.22 351.286 2063.11 353.647 Q2065.04 355.985 2065.04 359.503 Q2065.04 364.133 2061.89 366.656 Q2058.74 369.179 2052.93 369.179 L2040.52 369.179 L2040.52 334.619 Z" fill="#000000" fill-rule="nonzero" fill-opacity="1" /><path clip-path="url(#clip370)" d="M2077.72 338.462 L2077.72 365.337 L2083.37 365.337 Q2090.52 365.337 2093.83 362.096 Q2097.17 358.855 2097.17 351.864 Q2097.17 344.92 2093.83 341.702 Q2090.52 338.462 2083.37 338.462 L2077.72 338.462 M2073.05 334.619 L2082.65 334.619 Q2092.7 334.619 2097.4 338.809 Q2102.1 342.976 2102.1 351.864 Q2102.1 360.8 2097.37 364.989 Q2092.65 369.179 2082.65 369.179 L2073.05 369.179 L2073.05 334.619 Z" fill="#000000" fill-rule="nonzero" fill-opacity="1" /><path clip-path="url(#clip370)" d="M2109.55 334.619 L2129.41 334.619 L2129.41 338.554 L2114.23 338.554 L2114.23 348.739 L2127.93 348.739 L2127.93 352.675 L2114.23 352.675 L2114.23 369.179 L2109.55 369.179 L2109.55 334.619 Z" fill="#000000" fill-rule="nonzero" fill-opacity="1" /><polyline clip-path="url(#clip370)" style="stroke:#a9a955; stroke-linecap:round; stroke-linejoin:round; stroke-width:4; stroke-opacity:1; fill:none" stroke-dasharray="2, 4" points="1838.27,403.739 1977.94,403.739 "/>
<path clip-path="url(#clip370)" d="M1908.1 382.185 L1903.04 396.756 L1887.6 397.079 L1899.91 406.412 L1895.43 421.177 L1908.1 412.361 L1920.78 421.177 L1916.29 406.412 L1928.6 397.079 L1913.17 396.756 L1908.1 382.185 Z" fill="#a9a955" fill-rule="evenodd" fill-opacity="1" stroke="#000000" stroke-opacity="1" stroke-width="3.72364"/>
<path clip-path="url(#clip370)" d="M2017.24 389.63 Q2012.14 389.63 2009.13 393.427 Q2006.15 397.223 2006.15 403.774 Q2006.15 410.302 2009.13 414.098 Q2012.14 417.894 2017.24 417.894 Q2022.33 417.894 2025.29 414.098 Q2028.28 410.302 2028.28 403.774 Q2028.28 397.223 2025.29 393.427 Q2022.33 389.63 2017.24 389.63 M2023.79 420.394 L2029.94 427.13 L2024.3 427.13 L2019.18 421.598 Q2018.42 421.644 2018 421.667 Q2017.61 421.69 2017.24 421.69 Q2009.94 421.69 2005.57 416.829 Q2001.22 411.945 2001.22 403.774 Q2001.22 395.58 2005.57 390.718 Q2009.94 385.834 2017.24 385.834 Q2024.5 385.834 2028.86 390.718 Q2033.21 395.58 2033.21 403.774 Q2033.21 409.792 2030.78 414.075 Q2028.37 418.357 2023.79 420.394 Z" fill="#000000" fill-rule="nonzero" fill-opacity="1" /><path clip-path="url(#clip370)" d="M2045.2 404.515 L2045.2 417.177 L2052.7 417.177 Q2056.47 417.177 2058.28 415.626 Q2060.11 414.052 2060.11 410.834 Q2060.11 407.593 2058.28 406.066 Q2056.47 404.515 2052.7 404.515 L2045.2 404.515 M2045.2 390.302 L2045.2 400.718 L2052.12 400.718 Q2055.55 400.718 2057.21 399.445 Q2058.9 398.149 2058.9 395.51 Q2058.9 392.894 2057.21 391.598 Q2055.55 390.302 2052.12 390.302 L2045.2 390.302 M2040.52 386.459 L2052.47 386.459 Q2057.81 386.459 2060.71 388.681 Q2063.6 390.904 2063.6 395.001 Q2063.6 398.172 2062.12 400.047 Q2060.64 401.922 2057.77 402.385 Q2061.22 403.126 2063.11 405.487 Q2065.04 407.825 2065.04 411.343 Q2065.04 415.973 2061.89 418.496 Q2058.74 421.019 2052.93 421.019 L2040.52 421.019 L2040.52 386.459 Z" fill="#000000" fill-rule="nonzero" fill-opacity="1" /><path clip-path="url(#clip370)" d="M2077.72 390.302 L2077.72 417.177 L2083.37 417.177 Q2090.52 417.177 2093.83 413.936 Q2097.17 410.695 2097.17 403.704 Q2097.17 396.76 2093.83 393.542 Q2090.52 390.302 2083.37 390.302 L2077.72 390.302 M2073.05 386.459 L2082.65 386.459 Q2092.7 386.459 2097.4 390.649 Q2102.1 394.816 2102.1 403.704 Q2102.1 412.64 2097.37 416.829 Q2092.65 421.019 2082.65 421.019 L2073.05 421.019 L2073.05 386.459 Z" fill="#000000" fill-rule="nonzero" fill-opacity="1" /><path clip-path="url(#clip370)" d="M2109.55 386.459 L2129.41 386.459 L2129.41 390.394 L2114.23 390.394 L2114.23 400.579 L2127.93 400.579 L2127.93 404.515 L2114.23 404.515 L2114.23 421.019 L2109.55 421.019 L2109.55 386.459 Z" fill="#000000" fill-rule="nonzero" fill-opacity="1" /><path clip-path="url(#clip370)" d="M2156.33 428.89 L2156.33 432.2 L2131.7 432.2 L2131.7 428.89 L2156.33 428.89 Z" fill="#000000" fill-rule="nonzero" fill-opacity="1" /><path clip-path="url(#clip370)" d="M2164.46 417.13 L2164.46 430.88 L2160.17 430.88 L2160.17 395.093 L2164.46 395.093 L2164.46 399.029 Q2165.8 396.714 2167.84 395.603 Q2169.9 394.468 2172.74 394.468 Q2177.47 394.468 2180.41 398.218 Q2183.37 401.968 2183.37 408.079 Q2183.37 414.191 2180.41 417.94 Q2177.47 421.69 2172.74 421.69 Q2169.9 421.69 2167.84 420.579 Q2165.8 419.445 2164.46 417.13 M2178.95 408.079 Q2178.95 403.38 2177 400.718 Q2175.08 398.033 2171.7 398.033 Q2168.32 398.033 2166.38 400.718 Q2164.46 403.38 2164.46 408.079 Q2164.46 412.778 2166.38 415.464 Q2168.32 418.126 2171.7 418.126 Q2175.08 418.126 2177 415.464 Q2178.95 412.778 2178.95 408.079 Z" fill="#000000" fill-rule="nonzero" fill-opacity="1" /><path clip-path="url(#clip370)" d="M2205.45 399.075 Q2204.73 398.658 2203.88 398.473 Q2203.04 398.265 2202.03 398.265 Q2198.41 398.265 2196.47 400.626 Q2194.55 402.964 2194.55 407.362 L2194.55 421.019 L2190.27 421.019 L2190.27 395.093 L2194.55 395.093 L2194.55 399.121 Q2195.89 396.76 2198.04 395.626 Q2200.2 394.468 2203.28 394.468 Q2203.72 394.468 2204.25 394.538 Q2204.78 394.584 2205.43 394.7 L2205.45 399.075 Z" fill="#000000" fill-rule="nonzero" fill-opacity="1" /><path clip-path="url(#clip370)" d="M2231.05 406.991 L2231.05 409.075 L2211.47 409.075 Q2211.75 413.473 2214.11 415.788 Q2216.49 418.079 2220.73 418.079 Q2223.18 418.079 2225.47 417.478 Q2227.79 416.876 2230.06 415.672 L2230.06 419.7 Q2227.77 420.672 2225.36 421.181 Q2222.95 421.69 2220.47 421.69 Q2214.27 421.69 2210.64 418.079 Q2207.03 414.468 2207.03 408.311 Q2207.03 401.945 2210.45 398.218 Q2213.9 394.468 2219.73 394.468 Q2224.97 394.468 2228 397.848 Q2231.05 401.204 2231.05 406.991 M2226.79 405.741 Q2226.75 402.246 2224.83 400.163 Q2222.93 398.079 2219.78 398.079 Q2216.22 398.079 2214.06 400.093 Q2211.93 402.107 2211.61 405.765 L2226.79 405.741 Z" fill="#000000" fill-rule="nonzero" fill-opacity="1" /><path clip-path="url(#clip370)" d="M2256.7 396.089 L2256.7 400.07 Q2254.9 399.075 2253.07 398.589 Q2251.26 398.079 2249.41 398.079 Q2245.27 398.079 2242.97 400.718 Q2240.68 403.334 2240.68 408.079 Q2240.68 412.825 2242.97 415.464 Q2245.27 418.079 2249.41 418.079 Q2251.26 418.079 2253.07 417.593 Q2254.9 417.084 2256.7 416.089 L2256.7 420.024 Q2254.92 420.857 2253 421.274 Q2251.1 421.69 2248.95 421.69 Q2243.09 421.69 2239.64 418.01 Q2236.19 414.329 2236.19 408.079 Q2236.19 401.737 2239.66 398.103 Q2243.16 394.468 2249.22 394.468 Q2251.19 394.468 2253.07 394.885 Q2254.94 395.279 2256.7 396.089 Z" fill="#000000" fill-rule="nonzero" fill-opacity="1" /></svg>
