<?xml version="1.0" encoding="utf-8"?>
<svg xmlns="http://www.w3.org/2000/svg" xmlns:xlink="http://www.w3.org/1999/xlink" width="600" height="400" viewBox="0 0 2400 1600">
<defs>
  <clipPath id="clip730">
    <rect x="0" y="0" width="2400" height="1600"/>
  </clipPath>
</defs>
<path clip-path="url(#clip730)" d="M0 1600 L2400 1600 L2400 0 L0 0  Z" fill="#ffffff" fill-rule="evenodd" fill-opacity="1"/>
<defs>
  <clipPath id="clip731">
    <rect x="480" y="0" width="1681" height="1600"/>
  </clipPath>
</defs>
<path clip-path="url(#clip730)" d="M249.542 1423.18 L2352.76 1423.18 L2352.76 47.2441 L249.542 47.2441  Z" fill="#ffffff" fill-rule="evenodd" fill-opacity="1"/>
<defs>
  <clipPath id="clip732">
    <rect x="249" y="47" width="2104" height="1377"/>
  </clipPath>
</defs>
<polyline clip-path="url(#clip732)" style="stroke:#000000; stroke-linecap:round; stroke-linejoin:round; stroke-width:2; stroke-opacity:0.1; fill:none" points="498.035,1423.18 498.035,47.2441 "/>
<polyline clip-path="url(#clip732)" style="stroke:#000000; stroke-linecap:round; stroke-linejoin:round; stroke-width:2; stroke-opacity:0.1; fill:none" points="970.455,1423.18 970.455,47.2441 "/>
<polyline clip-path="url(#clip732)" style="stroke:#000000; stroke-linecap:round; stroke-linejoin:round; stroke-width:2; stroke-opacity:0.1; fill:none" points="1442.87,1423.18 1442.87,47.2441 "/>
<polyline clip-path="url(#clip732)" style="stroke:#000000; stroke-linecap:round; stroke-linejoin:round; stroke-width:2; stroke-opacity:0.1; fill:none" points="1915.29,1423.18 1915.29,47.2441 "/>
<polyline clip-path="url(#clip730)" style="stroke:#000000; stroke-linecap:round; stroke-linejoin:round; stroke-width:4; stroke-opacity:1; fill:none" points="249.542,1423.18 2352.76,1423.18 "/>
<polyline clip-path="url(#clip730)" style="stroke:#000000; stroke-linecap:round; stroke-linejoin:round; stroke-width:4; stroke-opacity:1; fill:none" points="498.035,1423.18 498.035,1404.28 "/>
<polyline clip-path="url(#clip730)" style="stroke:#000000; stroke-linecap:round; stroke-linejoin:round; stroke-width:4; stroke-opacity:1; fill:none" points="970.455,1423.18 970.455,1404.28 "/>
<polyline clip-path="url(#clip730)" style="stroke:#000000; stroke-linecap:round; stroke-linejoin:round; stroke-width:4; stroke-opacity:1; fill:none" points="1442.87,1423.18 1442.87,1404.28 "/>
<polyline clip-path="url(#clip730)" style="stroke:#000000; stroke-linecap:round; stroke-linejoin:round; stroke-width:4; stroke-opacity:1; fill:none" points="1915.29,1423.18 1915.29,1404.28 "/>
<path clip-path="url(#clip730)" d="M461.727 1481.64 L478.047 1481.64 L478.047 1485.58 L456.102 1485.58 L456.102 1481.64 Q458.764 1478.89 463.348 1474.26 Q467.954 1469.61 469.135 1468.27 Q471.38 1465.74 472.26 1464.01 Q473.162 1462.25 473.162 1460.56 Q473.162 1457.8 471.218 1456.07 Q469.297 1454.33 466.195 1454.33 Q463.996 1454.33 461.542 1455.09 Q459.112 1455.86 456.334 1457.41 L456.334 1452.69 Q459.158 1451.55 461.612 1450.97 Q464.065 1450.39 466.102 1450.39 Q471.473 1450.39 474.667 1453.08 Q477.861 1455.77 477.861 1460.26 Q477.861 1462.39 477.051 1464.31 Q476.264 1466.2 474.158 1468.8 Q473.579 1469.47 470.477 1472.69 Q467.375 1475.88 461.727 1481.64 Z" fill="#000000" fill-rule="nonzero" fill-opacity="1" /><path clip-path="url(#clip730)" d="M497.861 1454.1 Q494.25 1454.1 492.422 1457.66 Q490.616 1461.2 490.616 1468.33 Q490.616 1475.44 492.422 1479.01 Q494.25 1482.55 497.861 1482.55 Q501.496 1482.55 503.301 1479.01 Q505.13 1475.44 505.13 1468.33 Q505.13 1461.2 503.301 1457.66 Q501.496 1454.1 497.861 1454.1 M497.861 1450.39 Q503.672 1450.39 506.727 1455 Q509.806 1459.58 509.806 1468.33 Q509.806 1477.06 506.727 1481.67 Q503.672 1486.25 497.861 1486.25 Q492.051 1486.25 488.973 1481.67 Q485.917 1477.06 485.917 1468.33 Q485.917 1459.58 488.973 1455 Q492.051 1450.39 497.861 1450.39 Z" fill="#000000" fill-rule="nonzero" fill-opacity="1" /><path clip-path="url(#clip730)" d="M528.023 1454.1 Q524.412 1454.1 522.583 1457.66 Q520.778 1461.2 520.778 1468.33 Q520.778 1475.44 522.583 1479.01 Q524.412 1482.55 528.023 1482.55 Q531.657 1482.55 533.463 1479.01 Q535.292 1475.44 535.292 1468.33 Q535.292 1461.2 533.463 1457.66 Q531.657 1454.1 528.023 1454.1 M528.023 1450.39 Q533.833 1450.39 536.889 1455 Q539.968 1459.58 539.968 1468.33 Q539.968 1477.06 536.889 1481.67 Q533.833 1486.25 528.023 1486.25 Q522.213 1486.25 519.134 1481.67 Q516.079 1477.06 516.079 1468.33 Q516.079 1459.58 519.134 1455 Q522.213 1450.39 528.023 1450.39 Z" fill="#000000" fill-rule="nonzero" fill-opacity="1" /><path clip-path="url(#clip730)" d="M943.545 1455.09 L931.74 1473.54 L943.545 1473.54 L943.545 1455.09 M942.319 1451.02 L948.198 1451.02 L948.198 1473.54 L953.129 1473.54 L953.129 1477.43 L948.198 1477.43 L948.198 1485.58 L943.545 1485.58 L943.545 1477.43 L927.944 1477.43 L927.944 1472.92 L942.319 1451.02 Z" fill="#000000" fill-rule="nonzero" fill-opacity="1" /><path clip-path="url(#clip730)" d="M970.86 1454.1 Q967.249 1454.1 965.42 1457.66 Q963.615 1461.2 963.615 1468.33 Q963.615 1475.44 965.42 1479.01 Q967.249 1482.55 970.86 1482.55 Q974.494 1482.55 976.3 1479.01 Q978.129 1475.44 978.129 1468.33 Q978.129 1461.2 976.3 1457.66 Q974.494 1454.1 970.86 1454.1 M970.86 1450.39 Q976.67 1450.39 979.726 1455 Q982.804 1459.58 982.804 1468.33 Q982.804 1477.06 979.726 1481.67 Q976.67 1486.25 970.86 1486.25 Q965.05 1486.25 961.971 1481.67 Q958.916 1477.06 958.916 1468.33 Q958.916 1459.58 961.971 1455 Q965.05 1450.39 970.86 1450.39 Z" fill="#000000" fill-rule="nonzero" fill-opacity="1" /><path clip-path="url(#clip730)" d="M1001.02 1454.1 Q997.411 1454.1 995.582 1457.66 Q993.777 1461.2 993.777 1468.33 Q993.777 1475.44 995.582 1479.01 Q997.411 1482.55 1001.02 1482.55 Q1004.66 1482.55 1006.46 1479.01 Q1008.29 1475.44 1008.29 1468.33 Q1008.29 1461.2 1006.46 1457.66 Q1004.66 1454.1 1001.02 1454.1 M1001.02 1450.39 Q1006.83 1450.39 1009.89 1455 Q1012.97 1459.58 1012.97 1468.33 Q1012.97 1477.06 1009.89 1481.67 Q1006.83 1486.25 1001.02 1486.25 Q995.212 1486.25 992.133 1481.67 Q989.078 1477.06 989.078 1468.33 Q989.078 1459.58 992.133 1455 Q995.212 1450.39 1001.02 1450.39 Z" fill="#000000" fill-rule="nonzero" fill-opacity="1" /><path clip-path="url(#clip730)" d="M1413.2 1466.44 Q1410.05 1466.44 1408.2 1468.59 Q1406.37 1470.74 1406.37 1474.49 Q1406.37 1478.22 1408.2 1480.39 Q1410.05 1482.55 1413.2 1482.55 Q1416.35 1482.55 1418.18 1480.39 Q1420.03 1478.22 1420.03 1474.49 Q1420.03 1470.74 1418.18 1468.59 Q1416.35 1466.44 1413.2 1466.44 M1422.48 1451.78 L1422.48 1456.04 Q1420.72 1455.21 1418.92 1454.77 Q1417.13 1454.33 1415.38 1454.33 Q1410.75 1454.33 1408.29 1457.45 Q1405.86 1460.58 1405.51 1466.9 Q1406.88 1464.89 1408.94 1463.82 Q1411 1462.73 1413.48 1462.73 Q1418.69 1462.73 1421.69 1465.9 Q1424.73 1469.05 1424.73 1474.49 Q1424.73 1479.82 1421.58 1483.03 Q1418.43 1486.25 1413.2 1486.25 Q1407.2 1486.25 1404.03 1481.67 Q1400.86 1477.06 1400.86 1468.33 Q1400.86 1460.14 1404.75 1455.28 Q1408.64 1450.39 1415.19 1450.39 Q1416.95 1450.39 1418.73 1450.74 Q1420.54 1451.09 1422.48 1451.78 Z" fill="#000000" fill-rule="nonzero" fill-opacity="1" /><path clip-path="url(#clip730)" d="M1442.78 1454.1 Q1439.17 1454.1 1437.34 1457.66 Q1435.54 1461.2 1435.54 1468.33 Q1435.54 1475.44 1437.34 1479.01 Q1439.17 1482.55 1442.78 1482.55 Q1446.42 1482.55 1448.22 1479.01 Q1450.05 1475.44 1450.05 1468.33 Q1450.05 1461.2 1448.22 1457.66 Q1446.42 1454.1 1442.78 1454.1 M1442.78 1450.39 Q1448.59 1450.39 1451.65 1455 Q1454.73 1459.58 1454.73 1468.33 Q1454.73 1477.06 1451.65 1481.67 Q1448.59 1486.25 1442.78 1486.25 Q1436.97 1486.25 1433.89 1481.67 Q1430.84 1477.06 1430.84 1468.33 Q1430.84 1459.58 1433.89 1455 Q1436.97 1450.39 1442.78 1450.39 Z" fill="#000000" fill-rule="nonzero" fill-opacity="1" /><path clip-path="url(#clip730)" d="M1472.94 1454.1 Q1469.33 1454.1 1467.5 1457.66 Q1465.7 1461.2 1465.7 1468.33 Q1465.7 1475.44 1467.5 1479.01 Q1469.33 1482.55 1472.94 1482.55 Q1476.58 1482.55 1478.38 1479.01 Q1480.21 1475.44 1480.21 1468.33 Q1480.21 1461.2 1478.38 1457.66 Q1476.58 1454.1 1472.94 1454.1 M1472.94 1450.39 Q1478.75 1450.39 1481.81 1455 Q1484.89 1459.58 1484.89 1468.33 Q1484.89 1477.06 1481.81 1481.67 Q1478.75 1486.25 1472.94 1486.25 Q1467.13 1486.25 1464.06 1481.67 Q1461 1477.06 1461 1468.33 Q1461 1459.58 1464.06 1455 Q1467.13 1450.39 1472.94 1450.39 Z" fill="#000000" fill-rule="nonzero" fill-opacity="1" /><path clip-path="url(#clip730)" d="M1885.09 1469.17 Q1881.75 1469.17 1879.83 1470.95 Q1877.93 1472.73 1877.93 1475.86 Q1877.93 1478.98 1879.83 1480.77 Q1881.75 1482.55 1885.09 1482.55 Q1888.42 1482.55 1890.34 1480.77 Q1892.26 1478.96 1892.26 1475.86 Q1892.26 1472.73 1890.34 1470.95 Q1888.44 1469.17 1885.09 1469.17 M1880.41 1467.18 Q1877.4 1466.44 1875.71 1464.38 Q1874.05 1462.32 1874.05 1459.35 Q1874.05 1455.21 1876.98 1452.8 Q1879.95 1450.39 1885.09 1450.39 Q1890.25 1450.39 1893.19 1452.8 Q1896.13 1455.21 1896.13 1459.35 Q1896.13 1462.32 1894.44 1464.38 Q1892.77 1466.44 1889.79 1467.18 Q1893.17 1467.96 1895.04 1470.26 Q1896.94 1472.55 1896.94 1475.86 Q1896.94 1480.88 1893.86 1483.57 Q1890.8 1486.25 1885.09 1486.25 Q1879.37 1486.25 1876.29 1483.57 Q1873.24 1480.88 1873.24 1475.86 Q1873.24 1472.55 1875.13 1470.26 Q1877.03 1467.96 1880.41 1467.18 M1878.7 1459.79 Q1878.7 1462.48 1880.36 1463.98 Q1882.05 1465.49 1885.09 1465.49 Q1888.1 1465.49 1889.79 1463.98 Q1891.5 1462.48 1891.5 1459.79 Q1891.5 1457.11 1889.79 1455.6 Q1888.1 1454.1 1885.09 1454.1 Q1882.05 1454.1 1880.36 1455.6 Q1878.7 1457.11 1878.7 1459.79 Z" fill="#000000" fill-rule="nonzero" fill-opacity="1" /><path clip-path="url(#clip730)" d="M1915.25 1454.1 Q1911.64 1454.1 1909.81 1457.66 Q1908 1461.2 1908 1468.33 Q1908 1475.44 1909.81 1479.01 Q1911.64 1482.55 1915.25 1482.55 Q1918.88 1482.55 1920.69 1479.01 Q1922.52 1475.44 1922.52 1468.33 Q1922.52 1461.2 1920.69 1457.66 Q1918.88 1454.1 1915.25 1454.1 M1915.25 1450.39 Q1921.06 1450.39 1924.11 1455 Q1927.19 1459.58 1927.19 1468.33 Q1927.19 1477.06 1924.11 1481.67 Q1921.06 1486.25 1915.25 1486.25 Q1909.44 1486.25 1906.36 1481.67 Q1903.3 1477.06 1903.3 1468.33 Q1903.3 1459.58 1906.36 1455 Q1909.44 1450.39 1915.25 1450.39 Z" fill="#000000" fill-rule="nonzero" fill-opacity="1" /><path clip-path="url(#clip730)" d="M1945.41 1454.1 Q1941.8 1454.1 1939.97 1457.66 Q1938.17 1461.2 1938.17 1468.33 Q1938.17 1475.44 1939.97 1479.01 Q1941.8 1482.55 1945.41 1482.55 Q1949.04 1482.55 1950.85 1479.01 Q1952.68 1475.44 1952.68 1468.33 Q1952.68 1461.2 1950.85 1457.66 Q1949.04 1454.1 1945.41 1454.1 M1945.41 1450.39 Q1951.22 1450.39 1954.28 1455 Q1957.35 1459.58 1957.35 1468.33 Q1957.35 1477.06 1954.28 1481.67 Q1951.22 1486.25 1945.41 1486.25 Q1939.6 1486.25 1936.52 1481.67 Q1933.47 1477.06 1933.47 1468.33 Q1933.47 1459.58 1936.52 1455 Q1939.6 1450.39 1945.41 1450.39 Z" fill="#000000" fill-rule="nonzero" fill-opacity="1" /><path clip-path="url(#clip730)" d="M989.166 1525.81 L989.166 1562.76 L996.932 1562.76 Q1006.77 1562.76 1011.32 1558.3 Q1015.9 1553.85 1015.9 1544.24 Q1015.9 1534.69 1011.32 1530.26 Q1006.77 1525.81 996.932 1525.81 L989.166 1525.81 M982.736 1520.52 L995.945 1520.52 Q1009.76 1520.52 1016.22 1526.28 Q1022.68 1532.01 1022.68 1544.24 Q1022.68 1556.52 1016.19 1562.28 Q1009.7 1568.04 995.945 1568.04 L982.736 1568.04 L982.736 1520.52 Z" fill="#000000" fill-rule="nonzero" fill-opacity="1" /><path clip-path="url(#clip730)" d="M1063.17 1548.76 L1063.17 1551.62 L1036.24 1551.62 Q1036.62 1557.67 1039.87 1560.85 Q1043.15 1564 1048.97 1564 Q1052.35 1564 1055.5 1563.17 Q1058.68 1562.35 1061.8 1560.69 L1061.8 1566.23 Q1058.65 1567.57 1055.34 1568.27 Q1052.03 1568.97 1048.62 1568.97 Q1040.09 1568.97 1035.09 1564 Q1030.13 1559.04 1030.13 1550.57 Q1030.13 1541.82 1034.84 1536.69 Q1039.58 1531.54 1047.6 1531.54 Q1054.8 1531.54 1058.97 1536.18 Q1063.17 1540.8 1063.17 1548.76 M1057.31 1547.04 Q1057.25 1542.23 1054.61 1539.37 Q1052 1536.5 1047.67 1536.5 Q1042.76 1536.5 1039.8 1539.27 Q1036.88 1542.04 1036.43 1547.07 L1057.31 1547.04 Z" fill="#000000" fill-rule="nonzero" fill-opacity="1" /><path clip-path="url(#clip730)" d="M1096.24 1549.81 Q1096.24 1543.44 1093.6 1539.94 Q1090.99 1536.44 1086.24 1536.44 Q1081.53 1536.44 1078.89 1539.94 Q1076.28 1543.44 1076.28 1549.81 Q1076.28 1556.14 1078.89 1559.64 Q1081.53 1563.14 1086.24 1563.14 Q1090.99 1563.14 1093.6 1559.64 Q1096.24 1556.14 1096.24 1549.81 M1102.09 1563.62 Q1102.09 1572.72 1098.05 1577.15 Q1094.01 1581.6 1085.67 1581.6 Q1082.58 1581.6 1079.85 1581.13 Q1077.11 1580.68 1074.53 1579.72 L1074.53 1574.03 Q1077.11 1575.43 1079.62 1576.1 Q1082.14 1576.76 1084.75 1576.76 Q1090.51 1576.76 1093.37 1573.74 Q1096.24 1570.75 1096.24 1564.67 L1096.24 1561.77 Q1094.42 1564.92 1091.59 1566.48 Q1088.76 1568.04 1084.81 1568.04 Q1078.25 1568.04 1074.24 1563.05 Q1070.23 1558.05 1070.23 1549.81 Q1070.23 1541.53 1074.24 1536.53 Q1078.25 1531.54 1084.81 1531.54 Q1088.76 1531.54 1091.59 1533.1 Q1094.42 1534.66 1096.24 1537.81 L1096.24 1532.4 L1102.09 1532.4 L1102.09 1563.62 Z" fill="#000000" fill-rule="nonzero" fill-opacity="1" /><path clip-path="url(#clip730)" d="M1134.81 1537.87 Q1133.83 1537.3 1132.65 1537.04 Q1131.5 1536.76 1130.1 1536.76 Q1125.14 1536.76 1122.46 1540 Q1119.82 1543.22 1119.82 1549.27 L1119.82 1568.04 L1113.93 1568.04 L1113.93 1532.4 L1119.82 1532.4 L1119.82 1537.93 Q1121.67 1534.69 1124.63 1533.13 Q1127.59 1531.54 1131.82 1531.54 Q1132.43 1531.54 1133.16 1531.63 Q1133.89 1531.7 1134.78 1531.85 L1134.81 1537.87 Z" fill="#000000" fill-rule="nonzero" fill-opacity="1" /><path clip-path="url(#clip730)" d="M1170.02 1548.76 L1170.02 1551.62 L1143.09 1551.62 Q1143.47 1557.67 1146.72 1560.85 Q1150 1564 1155.82 1564 Q1159.19 1564 1162.34 1563.17 Q1165.53 1562.35 1168.65 1560.69 L1168.65 1566.23 Q1165.5 1567.57 1162.19 1568.27 Q1158.88 1568.97 1155.47 1568.97 Q1146.94 1568.97 1141.94 1564 Q1136.98 1559.04 1136.98 1550.57 Q1136.98 1541.82 1141.69 1536.69 Q1146.43 1531.54 1154.45 1531.54 Q1161.64 1531.54 1165.81 1536.18 Q1170.02 1540.8 1170.02 1548.76 M1164.16 1547.04 Q1164.1 1542.23 1161.45 1539.37 Q1158.84 1536.5 1154.51 1536.5 Q1149.61 1536.5 1146.65 1539.27 Q1143.73 1542.04 1143.28 1547.07 L1164.16 1547.04 Z" fill="#000000" fill-rule="nonzero" fill-opacity="1" /><path clip-path="url(#clip730)" d="M1210.12 1548.76 L1210.12 1551.62 L1183.19 1551.62 Q1183.57 1557.67 1186.82 1560.85 Q1190.1 1564 1195.92 1564 Q1199.3 1564 1202.45 1563.17 Q1205.63 1562.35 1208.75 1560.69 L1208.75 1566.23 Q1205.6 1567.57 1202.29 1568.27 Q1198.98 1568.97 1195.57 1568.97 Q1187.04 1568.97 1182.05 1564 Q1177.08 1559.04 1177.08 1550.57 Q1177.08 1541.82 1181.79 1536.69 Q1186.53 1531.54 1194.56 1531.54 Q1201.75 1531.54 1205.92 1536.18 Q1210.12 1540.8 1210.12 1548.76 M1204.26 1547.04 Q1204.2 1542.23 1201.56 1539.37 Q1198.95 1536.5 1194.62 1536.5 Q1189.72 1536.5 1186.76 1539.27 Q1183.83 1542.04 1183.38 1547.07 L1204.26 1547.04 Z" fill="#000000" fill-rule="nonzero" fill-opacity="1" /><path clip-path="url(#clip730)" d="M1242.46 1533.45 L1242.46 1538.98 Q1239.97 1537.71 1237.3 1537.07 Q1234.63 1536.44 1231.76 1536.44 Q1227.4 1536.44 1225.21 1537.77 Q1223.04 1539.11 1223.04 1541.79 Q1223.04 1543.82 1224.6 1545 Q1226.16 1546.15 1230.87 1547.2 L1232.88 1547.64 Q1239.12 1548.98 1241.73 1551.43 Q1244.37 1553.85 1244.37 1558.21 Q1244.37 1563.17 1240.42 1566.07 Q1236.51 1568.97 1229.63 1568.97 Q1226.77 1568.97 1223.65 1568.39 Q1220.56 1567.85 1217.12 1566.74 L1217.12 1560.69 Q1220.37 1562.38 1223.52 1563.24 Q1226.67 1564.07 1229.76 1564.07 Q1233.9 1564.07 1236.12 1562.66 Q1238.35 1561.23 1238.35 1558.65 Q1238.35 1556.27 1236.73 1554.99 Q1235.14 1553.72 1229.69 1552.54 L1227.66 1552.07 Q1222.21 1550.92 1219.8 1548.56 Q1217.38 1546.18 1217.38 1542.04 Q1217.38 1537.01 1220.94 1534.27 Q1224.51 1531.54 1231.06 1531.54 Q1234.31 1531.54 1237.17 1532.01 Q1240.04 1532.49 1242.46 1533.45 Z" fill="#000000" fill-rule="nonzero" fill-opacity="1" /><path clip-path="url(#clip730)" d="M1288.23 1536.5 Q1283.52 1536.5 1280.78 1540.19 Q1278.04 1543.85 1278.04 1550.25 Q1278.04 1556.65 1280.75 1560.34 Q1283.48 1564 1288.23 1564 Q1292.91 1564 1295.64 1560.31 Q1298.38 1556.62 1298.38 1550.25 Q1298.38 1543.92 1295.64 1540.23 Q1292.91 1536.5 1288.23 1536.5 M1288.23 1531.54 Q1295.87 1531.54 1300.23 1536.5 Q1304.59 1541.47 1304.59 1550.25 Q1304.59 1559 1300.23 1564 Q1295.87 1568.97 1288.23 1568.97 Q1280.56 1568.97 1276.2 1564 Q1271.87 1559 1271.87 1550.25 Q1271.87 1541.47 1276.2 1536.5 Q1280.56 1531.54 1288.23 1531.54 Z" fill="#000000" fill-rule="nonzero" fill-opacity="1" /><path clip-path="url(#clip730)" d="M1332.34 1518.52 L1332.34 1523.39 L1326.74 1523.39 Q1323.59 1523.39 1322.35 1524.66 Q1321.14 1525.93 1321.14 1529.24 L1321.14 1532.4 L1330.78 1532.4 L1330.78 1536.95 L1321.14 1536.95 L1321.14 1568.04 L1315.25 1568.04 L1315.25 1536.95 L1309.65 1536.95 L1309.65 1532.4 L1315.25 1532.4 L1315.25 1529.91 Q1315.25 1523.96 1318.02 1521.26 Q1320.79 1518.52 1326.8 1518.52 L1332.34 1518.52 Z" fill="#000000" fill-rule="nonzero" fill-opacity="1" /><path clip-path="url(#clip730)" d="M1376.01 1518.52 L1376.01 1523.39 L1370.41 1523.39 Q1367.26 1523.39 1366.02 1524.66 Q1364.81 1525.93 1364.81 1529.24 L1364.81 1532.4 L1374.45 1532.4 L1374.45 1536.95 L1364.81 1536.95 L1364.81 1568.04 L1358.92 1568.04 L1358.92 1536.95 L1353.32 1536.95 L1353.32 1532.4 L1358.92 1532.4 L1358.92 1529.91 Q1358.92 1523.96 1361.69 1521.26 Q1364.46 1518.52 1370.47 1518.52 L1376.01 1518.52 Z" fill="#000000" fill-rule="nonzero" fill-opacity="1" /><path clip-path="url(#clip730)" d="M1401.57 1537.87 Q1400.58 1537.3 1399.4 1537.04 Q1398.26 1536.76 1396.86 1536.76 Q1391.89 1536.76 1389.22 1540 Q1386.58 1543.22 1386.58 1549.27 L1386.58 1568.04 L1380.69 1568.04 L1380.69 1532.4 L1386.58 1532.4 L1386.58 1537.93 Q1388.42 1534.69 1391.38 1533.13 Q1394.34 1531.54 1398.58 1531.54 Q1399.18 1531.54 1399.91 1531.63 Q1400.64 1531.7 1401.54 1531.85 L1401.57 1537.87 Z" fill="#000000" fill-rule="nonzero" fill-opacity="1" /><path clip-path="url(#clip730)" d="M1436.77 1548.76 L1436.77 1551.62 L1409.84 1551.62 Q1410.23 1557.67 1413.47 1560.85 Q1416.75 1564 1422.57 1564 Q1425.95 1564 1429.1 1563.17 Q1432.28 1562.35 1435.4 1560.69 L1435.4 1566.23 Q1432.25 1567.57 1428.94 1568.27 Q1425.63 1568.97 1422.22 1568.97 Q1413.69 1568.97 1408.7 1564 Q1403.73 1559.04 1403.73 1550.57 Q1403.73 1541.82 1408.44 1536.69 Q1413.19 1531.54 1421.21 1531.54 Q1428.4 1531.54 1432.57 1536.18 Q1436.77 1540.8 1436.77 1548.76 M1430.91 1547.04 Q1430.85 1542.23 1428.21 1539.37 Q1425.6 1536.5 1421.27 1536.5 Q1416.37 1536.5 1413.41 1539.27 Q1410.48 1542.04 1410.03 1547.07 L1430.91 1547.04 Z" fill="#000000" fill-rule="nonzero" fill-opacity="1" /><path clip-path="url(#clip730)" d="M1476.87 1548.76 L1476.87 1551.62 L1449.95 1551.62 Q1450.33 1557.67 1453.58 1560.85 Q1456.85 1564 1462.68 1564 Q1466.05 1564 1469.2 1563.17 Q1472.39 1562.35 1475.51 1560.69 L1475.51 1566.23 Q1472.35 1567.57 1469.04 1568.27 Q1465.73 1568.97 1462.33 1568.97 Q1453.8 1568.97 1448.8 1564 Q1443.84 1559.04 1443.84 1550.57 Q1443.84 1541.82 1448.55 1536.69 Q1453.29 1531.54 1461.31 1531.54 Q1468.5 1531.54 1472.67 1536.18 Q1476.87 1540.8 1476.87 1548.76 M1471.02 1547.04 Q1470.95 1542.23 1468.31 1539.37 Q1465.7 1536.5 1461.37 1536.5 Q1456.47 1536.5 1453.51 1539.27 Q1450.58 1542.04 1450.14 1547.07 L1471.02 1547.04 Z" fill="#000000" fill-rule="nonzero" fill-opacity="1" /><path clip-path="url(#clip730)" d="M1509.94 1537.81 L1509.94 1518.52 L1515.8 1518.52 L1515.8 1568.04 L1509.94 1568.04 L1509.94 1562.7 Q1508.1 1565.88 1505.27 1567.44 Q1502.46 1568.97 1498.52 1568.97 Q1492.06 1568.97 1487.98 1563.81 Q1483.94 1558.65 1483.94 1550.25 Q1483.94 1541.85 1487.98 1536.69 Q1492.06 1531.54 1498.52 1531.54 Q1502.46 1531.54 1505.27 1533.1 Q1508.1 1534.62 1509.94 1537.81 M1489.99 1550.25 Q1489.99 1556.71 1492.63 1560.4 Q1495.3 1564.07 1499.95 1564.07 Q1504.6 1564.07 1507.27 1560.4 Q1509.94 1556.71 1509.94 1550.25 Q1509.94 1543.79 1507.27 1540.13 Q1504.6 1536.44 1499.95 1536.44 Q1495.3 1536.44 1492.63 1540.13 Q1489.99 1543.79 1489.99 1550.25 Z" fill="#000000" fill-rule="nonzero" fill-opacity="1" /><path clip-path="url(#clip730)" d="M1541.68 1536.5 Q1536.97 1536.5 1534.23 1540.19 Q1531.49 1543.85 1531.49 1550.25 Q1531.49 1556.65 1534.2 1560.34 Q1536.93 1564 1541.68 1564 Q1546.36 1564 1549.09 1560.31 Q1551.83 1556.62 1551.83 1550.25 Q1551.83 1543.92 1549.09 1540.23 Q1546.36 1536.5 1541.68 1536.5 M1541.68 1531.54 Q1549.32 1531.54 1553.68 1536.5 Q1558.04 1541.47 1558.04 1550.25 Q1558.04 1559 1553.68 1564 Q1549.32 1568.97 1541.68 1568.97 Q1534.01 1568.97 1529.65 1564 Q1525.32 1559 1525.32 1550.25 Q1525.32 1541.47 1529.65 1536.5 Q1534.01 1531.54 1541.68 1531.54 Z" fill="#000000" fill-rule="nonzero" fill-opacity="1" /><path clip-path="url(#clip730)" d="M1595.5 1539.24 Q1597.7 1535.29 1600.75 1533.41 Q1603.81 1531.54 1607.94 1531.54 Q1613.51 1531.54 1616.54 1535.45 Q1619.56 1539.33 1619.56 1546.53 L1619.56 1568.04 L1613.67 1568.04 L1613.67 1546.72 Q1613.67 1541.59 1611.86 1539.11 Q1610.04 1536.63 1606.32 1536.63 Q1601.77 1536.63 1599.13 1539.65 Q1596.49 1542.68 1596.49 1547.9 L1596.49 1568.04 L1590.6 1568.04 L1590.6 1546.72 Q1590.6 1541.56 1588.78 1539.11 Q1586.97 1536.63 1583.18 1536.63 Q1578.69 1536.63 1576.05 1539.68 Q1573.41 1542.71 1573.41 1547.9 L1573.41 1568.04 L1567.52 1568.04 L1567.52 1532.4 L1573.41 1532.4 L1573.41 1537.93 Q1575.42 1534.66 1578.22 1533.1 Q1581.02 1531.54 1584.87 1531.54 Q1588.75 1531.54 1591.46 1533.51 Q1594.19 1535.48 1595.5 1539.24 Z" fill="#000000" fill-rule="nonzero" fill-opacity="1" /><polyline clip-path="url(#clip732)" style="stroke:#000000; stroke-linecap:round; stroke-linejoin:round; stroke-width:2; stroke-opacity:0.1; fill:none" points="249.542,1188.67 2352.76,1188.67 "/>
<polyline clip-path="url(#clip732)" style="stroke:#000000; stroke-linecap:round; stroke-linejoin:round; stroke-width:2; stroke-opacity:0.1; fill:none" points="249.542,911.107 2352.76,911.107 "/>
<polyline clip-path="url(#clip732)" style="stroke:#000000; stroke-linecap:round; stroke-linejoin:round; stroke-width:2; stroke-opacity:0.1; fill:none" points="249.542,633.545 2352.76,633.545 "/>
<polyline clip-path="url(#clip732)" style="stroke:#000000; stroke-linecap:round; stroke-linejoin:round; stroke-width:2; stroke-opacity:0.1; fill:none" points="249.542,355.983 2352.76,355.983 "/>
<polyline clip-path="url(#clip732)" style="stroke:#000000; stroke-linecap:round; stroke-linejoin:round; stroke-width:2; stroke-opacity:0.1; fill:none" points="249.542,78.4208 2352.76,78.4208 "/>
<polyline clip-path="url(#clip730)" style="stroke:#000000; stroke-linecap:round; stroke-linejoin:round; stroke-width:4; stroke-opacity:1; fill:none" points="249.542,1423.18 249.542,47.2441 "/>
<polyline clip-path="url(#clip730)" style="stroke:#000000; stroke-linecap:round; stroke-linejoin:round; stroke-width:4; stroke-opacity:1; fill:none" points="249.542,1188.67 268.44,1188.67 "/>
<polyline clip-path="url(#clip730)" style="stroke:#000000; stroke-linecap:round; stroke-linejoin:round; stroke-width:4; stroke-opacity:1; fill:none" points="249.542,911.107 268.44,911.107 "/>
<polyline clip-path="url(#clip730)" style="stroke:#000000; stroke-linecap:round; stroke-linejoin:round; stroke-width:4; stroke-opacity:1; fill:none" points="249.542,633.545 268.44,633.545 "/>
<polyline clip-path="url(#clip730)" style="stroke:#000000; stroke-linecap:round; stroke-linejoin:round; stroke-width:4; stroke-opacity:1; fill:none" points="249.542,355.983 268.44,355.983 "/>
<polyline clip-path="url(#clip730)" style="stroke:#000000; stroke-linecap:round; stroke-linejoin:round; stroke-width:4; stroke-opacity:1; fill:none" points="249.542,78.4208 268.44,78.4208 "/>
<path clip-path="url(#clip730)" d="M127.2 1174.47 Q123.589 1174.47 121.76 1178.03 Q119.955 1181.57 119.955 1188.7 Q119.955 1195.81 121.76 1199.37 Q123.589 1202.92 127.2 1202.92 Q130.834 1202.92 132.64 1199.37 Q134.468 1195.81 134.468 1188.7 Q134.468 1181.57 132.64 1178.03 Q130.834 1174.47 127.2 1174.47 M127.2 1170.76 Q133.01 1170.76 136.066 1175.37 Q139.144 1179.95 139.144 1188.7 Q139.144 1197.43 136.066 1202.04 Q133.01 1206.62 127.2 1206.62 Q121.39 1206.62 118.311 1202.04 Q115.256 1197.43 115.256 1188.7 Q115.256 1179.95 118.311 1175.37 Q121.39 1170.76 127.2 1170.76 Z" fill="#000000" fill-rule="nonzero" fill-opacity="1" /><path clip-path="url(#clip730)" d="M147.362 1200.07 L152.246 1200.07 L152.246 1205.95 L147.362 1205.95 L147.362 1200.07 Z" fill="#000000" fill-rule="nonzero" fill-opacity="1" /><path clip-path="url(#clip730)" d="M166.459 1202.01 L182.778 1202.01 L182.778 1205.95 L160.834 1205.95 L160.834 1202.01 Q163.496 1199.26 168.079 1194.63 Q172.686 1189.98 173.866 1188.63 Q176.112 1186.11 176.991 1184.37 Q177.894 1182.62 177.894 1180.93 Q177.894 1178.17 175.95 1176.44 Q174.028 1174.7 170.927 1174.7 Q168.727 1174.7 166.274 1175.46 Q163.843 1176.23 161.065 1177.78 L161.065 1173.06 Q163.89 1171.92 166.343 1171.34 Q168.797 1170.76 170.834 1170.76 Q176.204 1170.76 179.399 1173.45 Q182.593 1176.13 182.593 1180.62 Q182.593 1182.75 181.783 1184.68 Q180.996 1186.57 178.889 1189.17 Q178.311 1189.84 175.209 1193.06 Q172.107 1196.25 166.459 1202.01 Z" fill="#000000" fill-rule="nonzero" fill-opacity="1" /><path clip-path="url(#clip730)" d="M192.639 1171.39 L210.996 1171.39 L210.996 1175.32 L196.922 1175.32 L196.922 1183.8 Q197.94 1183.45 198.959 1183.29 Q199.977 1183.1 200.996 1183.1 Q206.783 1183.1 210.162 1186.27 Q213.542 1189.44 213.542 1194.86 Q213.542 1200.44 210.07 1203.54 Q206.598 1206.62 200.278 1206.62 Q198.102 1206.62 195.834 1206.25 Q193.588 1205.88 191.181 1205.14 L191.181 1200.44 Q193.264 1201.57 195.487 1202.13 Q197.709 1202.68 200.186 1202.68 Q204.19 1202.68 206.528 1200.58 Q208.866 1198.47 208.866 1194.86 Q208.866 1191.25 206.528 1189.14 Q204.19 1187.04 200.186 1187.04 Q198.311 1187.04 196.436 1187.45 Q194.584 1187.87 192.639 1188.75 L192.639 1171.39 Z" fill="#000000" fill-rule="nonzero" fill-opacity="1" /><path clip-path="url(#clip730)" d="M126.205 896.905 Q122.593 896.905 120.765 900.47 Q118.959 904.012 118.959 911.141 Q118.959 918.248 120.765 921.813 Q122.593 925.354 126.205 925.354 Q129.839 925.354 131.644 921.813 Q133.473 918.248 133.473 911.141 Q133.473 904.012 131.644 900.47 Q129.839 896.905 126.205 896.905 M126.205 893.202 Q132.015 893.202 135.07 897.808 Q138.149 902.392 138.149 911.141 Q138.149 919.868 135.07 924.475 Q132.015 929.058 126.205 929.058 Q120.394 929.058 117.316 924.475 Q114.26 919.868 114.26 911.141 Q114.26 902.392 117.316 897.808 Q120.394 893.202 126.205 893.202 Z" fill="#000000" fill-rule="nonzero" fill-opacity="1" /><path clip-path="url(#clip730)" d="M146.366 922.507 L151.251 922.507 L151.251 928.387 L146.366 928.387 L146.366 922.507 Z" fill="#000000" fill-rule="nonzero" fill-opacity="1" /><path clip-path="url(#clip730)" d="M161.482 893.827 L179.839 893.827 L179.839 897.762 L165.765 897.762 L165.765 906.234 Q166.783 905.887 167.802 905.725 Q168.82 905.54 169.839 905.54 Q175.626 905.54 179.005 908.711 Q182.385 911.882 182.385 917.299 Q182.385 922.878 178.913 925.979 Q175.44 929.058 169.121 929.058 Q166.945 929.058 164.677 928.688 Q162.431 928.317 160.024 927.577 L160.024 922.878 Q162.107 924.012 164.329 924.567 Q166.552 925.123 169.028 925.123 Q173.033 925.123 175.371 923.016 Q177.709 920.91 177.709 917.299 Q177.709 913.688 175.371 911.581 Q173.033 909.475 169.028 909.475 Q167.153 909.475 165.278 909.892 Q163.427 910.308 161.482 911.188 L161.482 893.827 Z" fill="#000000" fill-rule="nonzero" fill-opacity="1" /><path clip-path="url(#clip730)" d="M201.598 896.905 Q197.987 896.905 196.158 900.47 Q194.352 904.012 194.352 911.141 Q194.352 918.248 196.158 921.813 Q197.987 925.354 201.598 925.354 Q205.232 925.354 207.037 921.813 Q208.866 918.248 208.866 911.141 Q208.866 904.012 207.037 900.47 Q205.232 896.905 201.598 896.905 M201.598 893.202 Q207.408 893.202 210.463 897.808 Q213.542 902.392 213.542 911.141 Q213.542 919.868 210.463 924.475 Q207.408 929.058 201.598 929.058 Q195.787 929.058 192.709 924.475 Q189.653 919.868 189.653 911.141 Q189.653 902.392 192.709 897.808 Q195.787 893.202 201.598 893.202 Z" fill="#000000" fill-rule="nonzero" fill-opacity="1" /><path clip-path="url(#clip730)" d="M127.2 619.343 Q123.589 619.343 121.76 622.908 Q119.955 626.45 119.955 633.58 Q119.955 640.686 121.76 644.251 Q123.589 647.792 127.2 647.792 Q130.834 647.792 132.64 644.251 Q134.468 640.686 134.468 633.58 Q134.468 626.45 132.64 622.908 Q130.834 619.343 127.2 619.343 M127.2 615.64 Q133.01 615.64 136.066 620.246 Q139.144 624.83 139.144 633.58 Q139.144 642.306 136.066 646.913 Q133.01 651.496 127.2 651.496 Q121.39 651.496 118.311 646.913 Q115.256 642.306 115.256 633.58 Q115.256 624.83 118.311 620.246 Q121.39 615.64 127.2 615.64 Z" fill="#000000" fill-rule="nonzero" fill-opacity="1" /><path clip-path="url(#clip730)" d="M147.362 644.945 L152.246 644.945 L152.246 650.825 L147.362 650.825 L147.362 644.945 Z" fill="#000000" fill-rule="nonzero" fill-opacity="1" /><path clip-path="url(#clip730)" d="M161.251 616.265 L183.473 616.265 L183.473 618.256 L170.927 650.825 L166.042 650.825 L177.848 620.2 L161.251 620.2 L161.251 616.265 Z" fill="#000000" fill-rule="nonzero" fill-opacity="1" /><path clip-path="url(#clip730)" d="M192.639 616.265 L210.996 616.265 L210.996 620.2 L196.922 620.2 L196.922 628.672 Q197.94 628.325 198.959 628.163 Q199.977 627.978 200.996 627.978 Q206.783 627.978 210.162 631.149 Q213.542 634.32 213.542 639.737 Q213.542 645.316 210.07 648.417 Q206.598 651.496 200.278 651.496 Q198.102 651.496 195.834 651.126 Q193.588 650.755 191.181 650.015 L191.181 645.316 Q193.264 646.45 195.487 647.005 Q197.709 647.561 200.186 647.561 Q204.19 647.561 206.528 645.454 Q208.866 643.348 208.866 639.737 Q208.866 636.126 206.528 634.019 Q204.19 631.913 200.186 631.913 Q198.311 631.913 196.436 632.33 Q194.584 632.746 192.639 633.626 L192.639 616.265 Z" fill="#000000" fill-rule="nonzero" fill-opacity="1" /><path clip-path="url(#clip730)" d="M117.015 369.328 L124.654 369.328 L124.654 342.962 L116.343 344.629 L116.343 340.369 L124.607 338.703 L129.283 338.703 L129.283 369.328 L136.922 369.328 L136.922 373.263 L117.015 373.263 L117.015 369.328 Z" fill="#000000" fill-rule="nonzero" fill-opacity="1" /><path clip-path="url(#clip730)" d="M146.366 367.383 L151.251 367.383 L151.251 373.263 L146.366 373.263 L146.366 367.383 Z" fill="#000000" fill-rule="nonzero" fill-opacity="1" /><path clip-path="url(#clip730)" d="M171.436 341.781 Q167.825 341.781 165.996 345.346 Q164.19 348.888 164.19 356.018 Q164.19 363.124 165.996 366.689 Q167.825 370.23 171.436 370.23 Q175.07 370.23 176.876 366.689 Q178.704 363.124 178.704 356.018 Q178.704 348.888 176.876 345.346 Q175.07 341.781 171.436 341.781 M171.436 338.078 Q177.246 338.078 180.301 342.684 Q183.38 347.268 183.38 356.018 Q183.38 364.744 180.301 369.351 Q177.246 373.934 171.436 373.934 Q165.626 373.934 162.547 369.351 Q159.491 364.744 159.491 356.018 Q159.491 347.268 162.547 342.684 Q165.626 338.078 171.436 338.078 Z" fill="#000000" fill-rule="nonzero" fill-opacity="1" /><path clip-path="url(#clip730)" d="M201.598 341.781 Q197.987 341.781 196.158 345.346 Q194.352 348.888 194.352 356.018 Q194.352 363.124 196.158 366.689 Q197.987 370.23 201.598 370.23 Q205.232 370.23 207.037 366.689 Q208.866 363.124 208.866 356.018 Q208.866 348.888 207.037 345.346 Q205.232 341.781 201.598 341.781 M201.598 338.078 Q207.408 338.078 210.463 342.684 Q213.542 347.268 213.542 356.018 Q213.542 364.744 210.463 369.351 Q207.408 373.934 201.598 373.934 Q195.787 373.934 192.709 369.351 Q189.653 364.744 189.653 356.018 Q189.653 347.268 192.709 342.684 Q195.787 338.078 201.598 338.078 Z" fill="#000000" fill-rule="nonzero" fill-opacity="1" /><path clip-path="url(#clip730)" d="M118.01 91.7657 L125.649 91.7657 L125.649 65.4001 L117.339 67.0667 L117.339 62.8075 L125.603 61.1408 L130.279 61.1408 L130.279 91.7657 L137.917 91.7657 L137.917 95.7008 L118.01 95.7008 L118.01 91.7657 Z" fill="#000000" fill-rule="nonzero" fill-opacity="1" /><path clip-path="url(#clip730)" d="M147.362 89.8212 L152.246 89.8212 L152.246 95.7008 L147.362 95.7008 L147.362 89.8212 Z" fill="#000000" fill-rule="nonzero" fill-opacity="1" /><path clip-path="url(#clip730)" d="M166.459 91.7657 L182.778 91.7657 L182.778 95.7008 L160.834 95.7008 L160.834 91.7657 Q163.496 89.011 168.079 84.3814 Q172.686 79.7287 173.866 78.3861 Q176.112 75.863 176.991 74.1269 Q177.894 72.3676 177.894 70.6778 Q177.894 67.9232 175.95 66.1871 Q174.028 64.451 170.927 64.451 Q168.727 64.451 166.274 65.2149 Q163.843 65.9788 161.065 67.5297 L161.065 62.8075 Q163.89 61.6732 166.343 61.0945 Q168.797 60.5158 170.834 60.5158 Q176.204 60.5158 179.399 63.201 Q182.593 65.8862 182.593 70.3769 Q182.593 72.5065 181.783 74.4278 Q180.996 76.3259 178.889 78.9185 Q178.311 79.5898 175.209 82.8074 Q172.107 86.0018 166.459 91.7657 Z" fill="#000000" fill-rule="nonzero" fill-opacity="1" /><path clip-path="url(#clip730)" d="M192.639 61.1408 L210.996 61.1408 L210.996 65.076 L196.922 65.076 L196.922 73.5482 Q197.94 73.2009 198.959 73.0389 Q199.977 72.8537 200.996 72.8537 Q206.783 72.8537 210.162 76.025 Q213.542 79.1963 213.542 84.6129 Q213.542 90.1916 210.07 93.2934 Q206.598 96.3721 200.278 96.3721 Q198.102 96.3721 195.834 96.0017 Q193.588 95.6314 191.181 94.8906 L191.181 90.1916 Q193.264 91.3258 195.487 91.8814 Q197.709 92.4369 200.186 92.4369 Q204.19 92.4369 206.528 90.3305 Q208.866 88.224 208.866 84.6129 Q208.866 81.0018 206.528 78.8954 Q204.19 76.7889 200.186 76.7889 Q198.311 76.7889 196.436 77.2055 Q194.584 77.6222 192.639 78.5018 L192.639 61.1408 Z" fill="#000000" fill-rule="nonzero" fill-opacity="1" /><path clip-path="url(#clip730)" d="M18.0438 1010.05 L24.314 1010.05 Q22.5634 1013.71 21.704 1016.96 Q20.8447 1020.2 20.8447 1023.23 Q20.8447 1028.48 22.8817 1031.34 Q24.9187 1034.18 28.6745 1034.18 Q31.8255 1034.18 33.4488 1032.3 Q35.0402 1030.39 36.0269 1025.11 L36.8226 1021.22 Q38.1912 1014.03 41.6605 1010.62 Q45.098 1007.19 50.8908 1007.19 Q57.7976 1007.19 61.3624 1011.83 Q64.9272 1016.45 64.9272 1025.39 Q64.9272 1028.77 64.1633 1032.59 Q63.3994 1036.37 61.9035 1040.45 L55.2831 1040.45 Q57.4793 1036.53 58.5933 1032.78 Q59.7073 1029.02 59.7073 1025.39 Q59.7073 1019.89 57.543 1016.89 Q55.3786 1013.9 51.3682 1013.9 Q47.8671 1013.9 45.8937 1016.07 Q43.9204 1018.2 42.9337 1023.1 L42.1698 1027.02 Q40.7375 1034.21 37.682 1037.42 Q34.6264 1040.64 29.1837 1040.64 Q22.8817 1040.64 19.2532 1036.21 Q15.6248 1031.76 15.6248 1023.96 Q15.6248 1020.62 16.2295 1017.15 Q16.8343 1013.68 18.0438 1010.05 Z" fill="#000000" fill-rule="nonzero" fill-opacity="1" /><path clip-path="url(#clip730)" d="M28.3562 997.415 L28.3562 991.559 L64.0042 991.559 L64.0042 997.415 L28.3562 997.415 M14.479 997.415 L14.479 991.559 L21.895 991.559 L21.895 997.415 L14.479 997.415 Z" fill="#000000" fill-rule="nonzero" fill-opacity="1" /><path clip-path="url(#clip730)" d="M35.1993 951.551 Q31.2526 949.354 29.3747 946.299 Q27.4968 943.243 27.4968 939.106 Q27.4968 933.536 31.4117 930.512 Q35.2948 927.488 42.4881 927.488 L64.0042 927.488 L64.0042 933.376 L42.679 933.376 Q37.5546 933.376 35.072 935.191 Q32.5894 937.005 32.5894 940.729 Q32.5894 945.28 35.6131 947.922 Q38.6368 950.564 43.8567 950.564 L64.0042 950.564 L64.0042 956.452 L42.679 956.452 Q37.5228 956.452 35.072 958.266 Q32.5894 960.081 32.5894 963.868 Q32.5894 968.356 35.6449 970.998 Q38.6686 973.64 43.8567 973.64 L64.0042 973.64 L64.0042 979.528 L28.3562 979.528 L28.3562 973.64 L33.8944 973.64 Q30.616 971.634 29.0564 968.833 Q27.4968 966.032 27.4968 962.181 Q27.4968 958.298 29.4702 955.593 Q31.4436 952.855 35.1993 951.551 Z" fill="#000000" fill-rule="nonzero" fill-opacity="1" /><path clip-path="url(#clip730)" d="M49.9359 916.412 L28.3562 916.412 L28.3562 910.555 L49.7131 910.555 Q54.7739 910.555 57.3202 908.582 Q59.8346 906.609 59.8346 902.662 Q59.8346 897.919 56.8109 895.182 Q53.7872 892.413 48.5673 892.413 L28.3562 892.413 L28.3562 886.557 L64.0042 886.557 L64.0042 892.413 L58.5296 892.413 Q61.7762 894.546 63.3676 897.378 Q64.9272 900.179 64.9272 903.903 Q64.9272 910.046 61.1078 913.229 Q57.2883 916.412 49.9359 916.412 M27.4968 901.675 L27.4968 901.675 Z" fill="#000000" fill-rule="nonzero" fill-opacity="1" /><path clip-path="url(#clip730)" d="M14.479 874.494 L14.479 868.637 L64.0042 868.637 L64.0042 874.494 L14.479 874.494 Z" fill="#000000" fill-rule="nonzero" fill-opacity="1" /><path clip-path="url(#clip730)" d="M46.0847 840.182 Q46.0847 847.28 47.7079 850.017 Q49.3312 852.755 53.2461 852.755 Q56.3653 852.755 58.2114 850.718 Q60.0256 848.649 60.0256 845.116 Q60.0256 840.246 56.5881 837.318 Q53.1188 834.358 47.3897 834.358 L46.0847 834.358 L46.0847 840.182 M43.6657 828.501 L64.0042 828.501 L64.0042 834.358 L58.5933 834.358 Q61.8398 836.363 63.3994 839.355 Q64.9272 842.347 64.9272 846.675 Q64.9272 852.15 61.8716 855.397 Q58.7843 858.611 53.6281 858.611 Q47.6125 858.611 44.5569 854.601 Q41.5014 850.559 41.5014 842.57 L41.5014 834.358 L40.9285 834.358 Q36.8862 834.358 34.6901 837.031 Q32.4621 839.673 32.4621 844.479 Q32.4621 847.535 33.1941 850.431 Q33.9262 853.328 35.3903 856.001 L29.9795 856.001 Q28.7381 852.787 28.1334 849.763 Q27.4968 846.739 27.4968 843.875 Q27.4968 836.14 31.5072 832.321 Q35.5176 828.501 43.6657 828.501 Z" fill="#000000" fill-rule="nonzero" fill-opacity="1" /><path clip-path="url(#clip730)" d="M18.2347 810.646 L28.3562 810.646 L28.3562 798.583 L32.9077 798.583 L32.9077 810.646 L52.2594 810.646 Q56.6199 810.646 57.8613 809.468 Q59.1026 808.258 59.1026 804.598 L59.1026 798.583 L64.0042 798.583 L64.0042 804.598 Q64.0042 811.378 61.4897 813.956 Q58.9434 816.534 52.2594 816.534 L32.9077 816.534 L32.9077 820.831 L28.3562 820.831 L28.3562 816.534 L18.2347 816.534 L18.2347 810.646 Z" fill="#000000" fill-rule="nonzero" fill-opacity="1" /><path clip-path="url(#clip730)" d="M28.3562 790.88 L28.3562 785.024 L64.0042 785.024 L64.0042 790.88 L28.3562 790.88 M14.479 790.88 L14.479 785.024 L21.895 785.024 L21.895 790.88 L14.479 790.88 Z" fill="#000000" fill-rule="nonzero" fill-opacity="1" /><path clip-path="url(#clip730)" d="M32.4621 758.956 Q32.4621 763.667 36.1542 766.404 Q39.8145 769.141 46.212 769.141 Q52.6095 769.141 56.3017 766.436 Q59.9619 763.699 59.9619 758.956 Q59.9619 754.277 56.2698 751.54 Q52.5777 748.803 46.212 748.803 Q39.8781 748.803 36.186 751.54 Q32.4621 754.277 32.4621 758.956 M27.4968 758.956 Q27.4968 751.317 32.4621 746.957 Q37.4273 742.596 46.212 742.596 Q54.9649 742.596 59.9619 746.957 Q64.9272 751.317 64.9272 758.956 Q64.9272 766.627 59.9619 770.987 Q54.9649 775.316 46.212 775.316 Q37.4273 775.316 32.4621 770.987 Q27.4968 766.627 27.4968 758.956 Z" fill="#000000" fill-rule="nonzero" fill-opacity="1" /><path clip-path="url(#clip730)" d="M42.4881 703.256 L64.0042 703.256 L64.0042 709.113 L42.679 709.113 Q37.6183 709.113 35.1038 711.086 Q32.5894 713.059 32.5894 717.006 Q32.5894 721.748 35.6131 724.486 Q38.6368 727.223 43.8567 727.223 L64.0042 727.223 L64.0042 733.111 L28.3562 733.111 L28.3562 727.223 L33.8944 727.223 Q30.6797 725.122 29.0883 722.29 Q27.4968 719.425 27.4968 715.701 Q27.4968 709.558 31.3163 706.407 Q35.1038 703.256 42.4881 703.256 Z" fill="#000000" fill-rule="nonzero" fill-opacity="1" /><path clip-path="url(#clip730)" d="M18.2347 665.062 L28.3562 665.062 L28.3562 652.999 L32.9077 652.999 L32.9077 665.062 L52.2594 665.062 Q56.6199 665.062 57.8613 663.884 Q59.1026 662.675 59.1026 659.014 L59.1026 652.999 L64.0042 652.999 L64.0042 659.014 Q64.0042 665.794 61.4897 668.372 Q58.9434 670.95 52.2594 670.95 L32.9077 670.95 L32.9077 675.247 L28.3562 675.247 L28.3562 670.95 L18.2347 670.95 L18.2347 665.062 Z" fill="#000000" fill-rule="nonzero" fill-opacity="1" /><path clip-path="url(#clip730)" d="M28.3562 645.296 L28.3562 639.44 L64.0042 639.44 L64.0042 645.296 L28.3562 645.296 M14.479 645.296 L14.479 639.44 L21.895 639.44 L21.895 645.296 L14.479 645.296 Z" fill="#000000" fill-rule="nonzero" fill-opacity="1" /><path clip-path="url(#clip730)" d="M35.1993 599.431 Q31.2526 597.235 29.3747 594.18 Q27.4968 591.124 27.4968 586.986 Q27.4968 581.416 31.4117 578.393 Q35.2948 575.369 42.4881 575.369 L64.0042 575.369 L64.0042 581.257 L42.679 581.257 Q37.5546 581.257 35.072 583.072 Q32.5894 584.886 32.5894 588.61 Q32.5894 593.161 35.6131 595.803 Q38.6368 598.445 43.8567 598.445 L64.0042 598.445 L64.0042 604.333 L42.679 604.333 Q37.5228 604.333 35.072 606.147 Q32.5894 607.961 32.5894 611.749 Q32.5894 616.237 35.6449 618.879 Q38.6686 621.52 43.8567 621.52 L64.0042 621.52 L64.0042 627.409 L28.3562 627.409 L28.3562 621.52 L33.8944 621.52 Q30.616 619.515 29.0564 616.714 Q27.4968 613.913 27.4968 610.062 Q27.4968 606.179 29.4702 603.474 Q31.4436 600.736 35.1993 599.431 Z" fill="#000000" fill-rule="nonzero" fill-opacity="1" /><path clip-path="url(#clip730)" d="M44.7161 533.196 L47.5806 533.196 L47.5806 560.123 Q53.6281 559.741 56.8109 556.495 Q59.9619 553.216 59.9619 547.392 Q59.9619 544.018 59.1344 540.867 Q58.3069 537.684 56.6518 534.565 L62.1899 534.565 Q63.5267 537.716 64.227 541.026 Q64.9272 544.336 64.9272 547.742 Q64.9272 556.272 59.9619 561.269 Q54.9967 566.234 46.5303 566.234 Q37.7774 566.234 32.6531 561.524 Q27.4968 556.781 27.4968 548.76 Q27.4968 541.567 32.1438 537.398 Q36.7589 533.196 44.7161 533.196 M42.9973 539.053 Q38.1912 539.116 35.3266 541.758 Q32.4621 544.368 32.4621 548.697 Q32.4621 553.598 35.2312 556.558 Q38.0002 559.487 43.0292 559.932 L42.9973 539.053 Z" fill="#000000" fill-rule="nonzero" fill-opacity="1" /><path clip-path="url(#clip730)" d="M14.5426 488.795 Q21.8632 493.06 29.0246 495.129 Q36.186 497.198 43.5384 497.198 Q50.8908 497.198 58.1159 495.129 Q65.3091 493.029 72.5979 488.795 L72.5979 493.888 Q65.1182 498.662 57.8931 501.049 Q50.668 503.405 43.5384 503.405 Q36.4406 503.405 29.2474 501.049 Q22.0542 498.694 14.5426 493.888 L14.5426 488.795 Z" fill="#000000" fill-rule="nonzero" fill-opacity="1" /><path clip-path="url(#clip730)" d="M29.4065 454.707 L34.9447 454.707 Q33.6716 457.19 33.035 459.863 Q32.3984 462.537 32.3984 465.401 Q32.3984 469.762 33.7352 471.958 Q35.072 474.123 37.7456 474.123 Q39.7826 474.123 40.9603 472.563 Q42.1061 471.003 43.1565 466.293 L43.6021 464.287 Q44.9389 458.049 47.3897 455.439 Q49.8086 452.797 54.1691 452.797 Q59.1344 452.797 62.0308 456.744 Q64.9272 460.659 64.9272 467.534 Q64.9272 470.399 64.3543 473.518 Q63.8132 476.605 62.6992 480.043 L56.6518 480.043 Q58.3387 476.796 59.198 473.645 Q60.0256 470.494 60.0256 467.407 Q60.0256 463.269 58.6251 461.041 Q57.1929 458.813 54.6147 458.813 Q52.2276 458.813 50.9545 460.436 Q49.6813 462.028 48.5037 467.47 L48.0262 469.507 Q46.8804 474.95 44.5251 477.369 Q42.138 479.788 38.0002 479.788 Q32.9713 479.788 30.2341 476.223 Q27.4968 472.658 27.4968 466.102 Q27.4968 462.855 27.9743 459.991 Q28.4517 457.126 29.4065 454.707 Z" fill="#000000" fill-rule="nonzero" fill-opacity="1" /><path clip-path="url(#clip730)" d="M14.5426 444.395 L14.5426 439.302 Q22.0542 434.528 29.2474 432.173 Q36.4406 429.785 43.5384 429.785 Q50.668 429.785 57.8931 432.173 Q65.1182 434.528 72.5979 439.302 L72.5979 444.395 Q65.3091 440.161 58.1159 438.093 Q50.8908 435.992 43.5384 435.992 Q36.186 435.992 29.0246 438.093 Q21.8632 440.161 14.5426 444.395 Z" fill="#000000" fill-rule="nonzero" fill-opacity="1" /><polyline clip-path="url(#clip732)" style="stroke:#008000; stroke-linecap:round; stroke-linejoin:round; stroke-width:4; stroke-opacity:1; fill:none" stroke-dasharray="2, 4" points="309.067,1305.4 592.519,1156.59 1159.42,848.376 2293.23,109.469 "/>
<path clip-path="url(#clip732)" d="M309.067 1325.4 L291.747 1315.4 L291.747 1295.4 L309.067 1285.4 L326.387 1295.4 L326.387 1315.4 Z" fill="#008000" fill-rule="evenodd" fill-opacity="1" stroke="#000000" stroke-opacity="1" stroke-width="3.2"/>
<path clip-path="url(#clip732)" d="M592.519 1176.59 L575.199 1166.59 L575.199 1146.59 L592.519 1136.59 L609.839 1146.59 L609.839 1166.59 Z" fill="#008000" fill-rule="evenodd" fill-opacity="1" stroke="#000000" stroke-opacity="1" stroke-width="3.2"/>
<path clip-path="url(#clip732)" d="M1159.42 868.376 L1142.1 858.376 L1142.1 838.376 L1159.42 828.376 L1176.74 838.376 L1176.74 858.376 Z" fill="#008000" fill-rule="evenodd" fill-opacity="1" stroke="#000000" stroke-opacity="1" stroke-width="3.2"/>
<path clip-path="url(#clip732)" d="M2293.23 129.469 L2275.91 119.469 L2275.91 99.4687 L2293.23 89.4687 L2310.55 99.4687 L2310.55 119.469 Z" fill="#008000" fill-rule="evenodd" fill-opacity="1" stroke="#000000" stroke-opacity="1" stroke-width="3.2"/>
<polyline clip-path="url(#clip732)" style="stroke:#a92a00; stroke-linecap:round; stroke-linejoin:round; stroke-width:4; stroke-opacity:1; fill:none" stroke-dasharray="2, 4" points="309.067,1322.86 592.519,1146.6 1159.42,760.929 2293.23,86.1857 "/>
<path clip-path="url(#clip732)" d="M309.067 1342.86 L291.747 1332.86 L291.747 1312.86 L309.067 1302.86 L326.387 1312.86 L326.387 1332.86 Z" fill="#a92a00" fill-rule="evenodd" fill-opacity="1" stroke="#000000" stroke-opacity="1" stroke-width="3.2"/>
<path clip-path="url(#clip732)" d="M592.519 1166.6 L575.199 1156.6 L575.199 1136.6 L592.519 1126.6 L609.839 1136.6 L609.839 1156.6 Z" fill="#a92a00" fill-rule="evenodd" fill-opacity="1" stroke="#000000" stroke-opacity="1" stroke-width="3.2"/>
<path clip-path="url(#clip732)" d="M1159.42 780.929 L1142.1 770.929 L1142.1 750.929 L1159.42 740.929 L1176.74 750.929 L1176.74 770.929 Z" fill="#a92a00" fill-rule="evenodd" fill-opacity="1" stroke="#000000" stroke-opacity="1" stroke-width="3.2"/>
<path clip-path="url(#clip732)" d="M2293.23 106.186 L2275.91 96.1857 L2275.91 76.1857 L2293.23 66.1857 L2310.55 76.1857 L2310.55 96.1857 Z" fill="#a92a00" fill-rule="evenodd" fill-opacity="1" stroke="#000000" stroke-opacity="1" stroke-width="3.2"/>
<polyline clip-path="url(#clip732)" style="stroke:#ffa500; stroke-linecap:round; stroke-linejoin:round; stroke-width:4; stroke-opacity:1; fill:none" stroke-dasharray="2, 4" points="309.067,1384.24 592.519,1282.55 1159.42,1075.1 2293.23,609.05 "/>
<path clip-path="url(#clip732)" d="M309.067 1364.24 L289.067 1384.24 L309.067 1404.24 L329.067 1384.24 L309.067 1364.24 Z" fill="#ffa500" fill-rule="evenodd" fill-opacity="1" stroke="#000000" stroke-opacity="1" stroke-width="3.2"/>
<path clip-path="url(#clip732)" d="M592.519 1262.55 L572.519 1282.55 L592.519 1302.55 L612.519 1282.55 L592.519 1262.55 Z" fill="#ffa500" fill-rule="evenodd" fill-opacity="1" stroke="#000000" stroke-opacity="1" stroke-width="3.2"/>
<path clip-path="url(#clip732)" d="M1159.42 1055.1 L1139.42 1075.1 L1159.42 1095.1 L1179.42 1075.1 L1159.42 1055.1 Z" fill="#ffa500" fill-rule="evenodd" fill-opacity="1" stroke="#000000" stroke-opacity="1" stroke-width="3.2"/>
<path clip-path="url(#clip732)" d="M2293.23 589.05 L2273.23 609.05 L2293.23 629.05 L2313.23 609.05 L2293.23 589.05 Z" fill="#ffa500" fill-rule="evenodd" fill-opacity="1" stroke="#000000" stroke-opacity="1" stroke-width="3.2"/>
<polyline clip-path="url(#clip732)" style="stroke:#aa8c55; stroke-linecap:round; stroke-linejoin:round; stroke-width:4; stroke-opacity:1; fill:none" stroke-dasharray="2, 4" points="309.067,1370.41 592.519,1267.61 1159.42,1027.14 2293.23,538.825 "/>
<path clip-path="url(#clip732)" d="M309.067 1350.41 L289.067 1370.41 L309.067 1390.41 L329.067 1370.41 L309.067 1350.41 Z" fill="#aa8c55" fill-rule="evenodd" fill-opacity="1" stroke="#000000" stroke-opacity="1" stroke-width="3.2"/>
<path clip-path="url(#clip732)" d="M592.519 1247.61 L572.519 1267.61 L592.519 1287.61 L612.519 1267.61 L592.519 1247.61 Z" fill="#aa8c55" fill-rule="evenodd" fill-opacity="1" stroke="#000000" stroke-opacity="1" stroke-width="3.2"/>
<path clip-path="url(#clip732)" d="M1159.42 1007.14 L1139.42 1027.14 L1159.42 1047.14 L1179.42 1027.14 L1159.42 1007.14 Z" fill="#aa8c55" fill-rule="evenodd" fill-opacity="1" stroke="#000000" stroke-opacity="1" stroke-width="3.2"/>
<path clip-path="url(#clip732)" d="M2293.23 518.825 L2273.23 538.825 L2293.23 558.825 L2313.23 538.825 L2293.23 518.825 Z" fill="#aa8c55" fill-rule="evenodd" fill-opacity="1" stroke="#000000" stroke-opacity="1" stroke-width="3.2"/>
<polyline clip-path="url(#clip732)" style="stroke:#0000ff; stroke-linecap:round; stroke-linejoin:round; stroke-width:4; stroke-opacity:1; fill:none" stroke-dasharray="2, 4" points="309.067,1376.7 592.519,1279.28 1159.42,1058.31 2293.23,582.172 "/>
<path clip-path="url(#clip732)" d="M309.067 1356.7 L304.367 1370.22 L290.047 1370.52 L301.467 1379.18 L297.307 1392.88 L309.067 1384.7 L320.827 1392.88 L316.667 1379.18 L328.087 1370.52 L313.767 1370.22 L309.067 1356.7 Z" fill="#0000ff" fill-rule="evenodd" fill-opacity="1" stroke="#000000" stroke-opacity="1" stroke-width="3.2"/>
<path clip-path="url(#clip732)" d="M592.519 1259.28 L587.819 1272.8 L573.499 1273.1 L584.919 1281.76 L580.759 1295.46 L592.519 1287.28 L604.279 1295.46 L600.119 1281.76 L611.539 1273.1 L597.219 1272.8 L592.519 1259.28 Z" fill="#0000ff" fill-rule="evenodd" fill-opacity="1" stroke="#000000" stroke-opacity="1" stroke-width="3.2"/>
<path clip-path="url(#clip732)" d="M1159.42 1038.31 L1154.72 1051.83 L1140.4 1052.13 L1151.82 1060.79 L1147.66 1074.49 L1159.42 1066.31 L1171.18 1074.49 L1167.02 1060.79 L1178.44 1052.13 L1164.12 1051.83 L1159.42 1038.31 Z" fill="#0000ff" fill-rule="evenodd" fill-opacity="1" stroke="#000000" stroke-opacity="1" stroke-width="3.2"/>
<path clip-path="url(#clip732)" d="M2293.23 562.172 L2288.53 575.692 L2274.21 575.992 L2285.63 584.652 L2281.47 598.352 L2293.23 590.172 L2304.99 598.352 L2300.83 584.652 L2312.25 575.992 L2297.93 575.692 L2293.23 562.172 Z" fill="#0000ff" fill-rule="evenodd" fill-opacity="1" stroke="#000000" stroke-opacity="1" stroke-width="3.2"/>
<polyline clip-path="url(#clip732)" style="stroke:#a9a955; stroke-linecap:round; stroke-linejoin:round; stroke-width:4; stroke-opacity:1; fill:none" stroke-dasharray="2, 4" points="309.067,1366.86 592.519,1260.5 1159.42,1019.51 2293.23,507.544 "/>
<path clip-path="url(#clip732)" d="M309.067 1346.86 L304.367 1360.38 L290.047 1360.68 L301.467 1369.34 L297.307 1383.04 L309.067 1374.86 L320.827 1383.04 L316.667 1369.34 L328.087 1360.68 L313.767 1360.38 L309.067 1346.86 Z" fill="#a9a955" fill-rule="evenodd" fill-opacity="1" stroke="#000000" stroke-opacity="1" stroke-width="3.2"/>
<path clip-path="url(#clip732)" d="M592.519 1240.5 L587.819 1254.02 L573.499 1254.32 L584.919 1262.98 L580.759 1276.68 L592.519 1268.5 L604.279 1276.68 L600.119 1262.98 L611.539 1254.32 L597.219 1254.02 L592.519 1240.5 Z" fill="#a9a955" fill-rule="evenodd" fill-opacity="1" stroke="#000000" stroke-opacity="1" stroke-width="3.2"/>
<path clip-path="url(#clip732)" d="M1159.42 999.508 L1154.72 1013.03 L1140.4 1013.33 L1151.82 1021.99 L1147.66 1035.69 L1159.42 1027.51 L1171.18 1035.69 L1167.02 1021.99 L1178.44 1013.33 L1164.12 1013.03 L1159.42 999.508 Z" fill="#a9a955" fill-rule="evenodd" fill-opacity="1" stroke="#000000" stroke-opacity="1" stroke-width="3.2"/>
<path clip-path="url(#clip732)" d="M2293.23 487.544 L2288.53 501.064 L2274.21 501.364 L2285.63 510.024 L2281.47 523.724 L2293.23 515.544 L2304.99 523.724 L2300.83 510.024 L2312.25 501.364 L2297.93 501.064 L2293.23 487.544 Z" fill="#a9a955" fill-rule="evenodd" fill-opacity="1" stroke="#000000" stroke-opacity="1" stroke-width="3.2"/>
<path clip-path="url(#clip730)" d="M319.649 455.989 L788.395 455.989 L788.395 93.1086 L319.649 93.1086  Z" fill="#ffffff" fill-rule="evenodd" fill-opacity="1"/>
<polyline clip-path="url(#clip730)" style="stroke:#000000; stroke-linecap:round; stroke-linejoin:round; stroke-width:4; stroke-opacity:1; fill:none" points="319.649,455.989 788.395,455.989 788.395,93.1086 319.649,93.1086 319.649,455.989 "/>
<polyline clip-path="url(#clip730)" style="stroke:#008000; stroke-linecap:round; stroke-linejoin:round; stroke-width:4; stroke-opacity:1; fill:none" stroke-dasharray="2, 4" points="343.018,144.949 483.232,144.949 "/>
<path clip-path="url(#clip730)" d="M413.125 166.587 L394.387 155.768 L394.387 134.13 L413.125 123.311 L431.864 134.13 L431.864 155.768 Z" fill="#008000" fill-rule="evenodd" fill-opacity="1" stroke="#000000" stroke-opacity="1" stroke-width="3.72364"/>
<path clip-path="url(#clip730)" d="M506.602 127.669 L526.463 127.669 L526.463 131.604 L511.277 131.604 L511.277 141.789 L524.981 141.789 L524.981 145.724 L511.277 145.724 L511.277 162.229 L506.602 162.229 L506.602 127.669 Z" fill="#000000" fill-rule="nonzero" fill-opacity="1" /><path clip-path="url(#clip730)" d="M538.546 145.724 L538.546 158.386 L546.046 158.386 Q549.819 158.386 551.624 156.835 Q553.453 155.261 553.453 152.043 Q553.453 148.803 551.624 147.275 Q549.819 145.724 546.046 145.724 L538.546 145.724 M538.546 131.511 L538.546 141.928 L545.467 141.928 Q548.893 141.928 550.56 140.655 Q552.249 139.358 552.249 136.719 Q552.249 134.104 550.56 132.807 Q548.893 131.511 545.467 131.511 L538.546 131.511 M533.87 127.669 L545.814 127.669 Q551.161 127.669 554.055 129.891 Q556.948 132.113 556.948 136.21 Q556.948 139.382 555.467 141.257 Q553.986 143.131 551.115 143.594 Q554.564 144.335 556.462 146.696 Q558.384 149.034 558.384 152.553 Q558.384 157.182 555.236 159.705 Q552.087 162.229 546.277 162.229 L533.87 162.229 L533.87 127.669 Z" fill="#000000" fill-rule="nonzero" fill-opacity="1" /><path clip-path="url(#clip730)" d="M571.069 131.511 L571.069 158.386 L576.717 158.386 Q583.87 158.386 587.18 155.145 Q590.513 151.905 590.513 144.914 Q590.513 137.969 587.18 134.752 Q583.87 131.511 576.717 131.511 L571.069 131.511 M566.393 127.669 L575.999 127.669 Q586.046 127.669 590.745 131.858 Q595.444 136.025 595.444 144.914 Q595.444 153.849 590.721 158.039 Q585.999 162.229 575.999 162.229 L566.393 162.229 L566.393 127.669 Z" fill="#000000" fill-rule="nonzero" fill-opacity="1" /><path clip-path="url(#clip730)" d="M602.897 127.669 L622.758 127.669 L622.758 131.604 L607.573 131.604 L607.573 141.789 L621.277 141.789 L621.277 145.724 L607.573 145.724 L607.573 162.229 L602.897 162.229 L602.897 127.669 Z" fill="#000000" fill-rule="nonzero" fill-opacity="1" /><polyline clip-path="url(#clip730)" style="stroke:#a92a00; stroke-linecap:round; stroke-linejoin:round; stroke-width:4; stroke-opacity:1; fill:none" stroke-dasharray="2, 4" points="343.018,196.789 483.232,196.789 "/>
<path clip-path="url(#clip730)" d="M413.125 218.427 L394.387 207.608 L394.387 185.97 L413.125 175.151 L431.864 185.97 L431.864 207.608 Z" fill="#a92a00" fill-rule="evenodd" fill-opacity="1" stroke="#000000" stroke-opacity="1" stroke-width="3.72364"/>
<path clip-path="url(#clip730)" d="M506.602 179.509 L526.463 179.509 L526.463 183.444 L511.277 183.444 L511.277 193.629 L524.981 193.629 L524.981 197.564 L511.277 197.564 L511.277 214.069 L506.602 214.069 L506.602 179.509 Z" fill="#000000" fill-rule="nonzero" fill-opacity="1" /><path clip-path="url(#clip730)" d="M538.546 197.564 L538.546 210.226 L546.046 210.226 Q549.819 210.226 551.624 208.675 Q553.453 207.101 553.453 203.883 Q553.453 200.643 551.624 199.115 Q549.819 197.564 546.046 197.564 L538.546 197.564 M538.546 183.351 L538.546 193.768 L545.467 193.768 Q548.893 193.768 550.56 192.495 Q552.249 191.198 552.249 188.559 Q552.249 185.944 550.56 184.647 Q548.893 183.351 545.467 183.351 L538.546 183.351 M533.87 179.509 L545.814 179.509 Q551.161 179.509 554.055 181.731 Q556.948 183.953 556.948 188.05 Q556.948 191.222 555.467 193.097 Q553.986 194.971 551.115 195.434 Q554.564 196.175 556.462 198.536 Q558.384 200.874 558.384 204.393 Q558.384 209.022 555.236 211.545 Q552.087 214.069 546.277 214.069 L533.87 214.069 L533.87 179.509 Z" fill="#000000" fill-rule="nonzero" fill-opacity="1" /><path clip-path="url(#clip730)" d="M571.069 183.351 L571.069 210.226 L576.717 210.226 Q583.87 210.226 587.18 206.985 Q590.513 203.745 590.513 196.754 Q590.513 189.809 587.18 186.592 Q583.87 183.351 576.717 183.351 L571.069 183.351 M566.393 179.509 L575.999 179.509 Q586.046 179.509 590.745 183.698 Q595.444 187.865 595.444 196.754 Q595.444 205.689 590.721 209.879 Q585.999 214.069 575.999 214.069 L566.393 214.069 L566.393 179.509 Z" fill="#000000" fill-rule="nonzero" fill-opacity="1" /><path clip-path="url(#clip730)" d="M602.897 179.509 L622.758 179.509 L622.758 183.444 L607.573 183.444 L607.573 193.629 L621.277 193.629 L621.277 197.564 L607.573 197.564 L607.573 214.069 L602.897 214.069 L602.897 179.509 Z" fill="#000000" fill-rule="nonzero" fill-opacity="1" /><path clip-path="url(#clip730)" d="M649.679 221.939 L649.679 225.249 L625.05 225.249 L625.05 221.939 L649.679 221.939 Z" fill="#000000" fill-rule="nonzero" fill-opacity="1" /><path clip-path="url(#clip730)" d="M657.804 210.18 L657.804 223.93 L653.522 223.93 L653.522 188.143 L657.804 188.143 L657.804 192.078 Q659.147 189.763 661.184 188.652 Q663.244 187.518 666.091 187.518 Q670.814 187.518 673.753 191.268 Q676.716 195.018 676.716 201.129 Q676.716 207.24 673.753 210.99 Q670.814 214.74 666.091 214.74 Q663.244 214.74 661.184 213.629 Q659.147 212.495 657.804 210.18 M672.295 201.129 Q672.295 196.43 670.351 193.768 Q668.429 191.083 665.05 191.083 Q661.67 191.083 659.726 193.768 Q657.804 196.43 657.804 201.129 Q657.804 205.828 659.726 208.513 Q661.67 211.175 665.05 211.175 Q668.429 211.175 670.351 208.513 Q672.295 205.828 672.295 201.129 Z" fill="#000000" fill-rule="nonzero" fill-opacity="1" /><path clip-path="url(#clip730)" d="M698.8 192.124 Q698.082 191.708 697.225 191.522 Q696.392 191.314 695.374 191.314 Q691.763 191.314 689.818 193.675 Q687.897 196.013 687.897 200.411 L687.897 214.069 L683.614 214.069 L683.614 188.143 L687.897 188.143 L687.897 192.171 Q689.239 189.809 691.392 188.675 Q693.545 187.518 696.624 187.518 Q697.063 187.518 697.596 187.587 Q698.128 187.634 698.776 187.749 L698.8 192.124 Z" fill="#000000" fill-rule="nonzero" fill-opacity="1" /><path clip-path="url(#clip730)" d="M724.401 200.041 L724.401 202.124 L704.818 202.124 Q705.096 206.522 707.457 208.837 Q709.841 211.129 714.077 211.129 Q716.531 211.129 718.823 210.527 Q721.137 209.925 723.406 208.721 L723.406 212.749 Q721.114 213.721 718.707 214.231 Q716.299 214.74 713.823 214.74 Q707.619 214.74 703.985 211.129 Q700.374 207.518 700.374 201.36 Q700.374 194.995 703.8 191.268 Q707.249 187.518 713.082 187.518 Q718.313 187.518 721.346 190.897 Q724.401 194.254 724.401 200.041 M720.142 198.791 Q720.096 195.296 718.174 193.212 Q716.276 191.129 713.128 191.129 Q709.563 191.129 707.411 193.143 Q705.281 195.157 704.957 198.814 L720.142 198.791 Z" fill="#000000" fill-rule="nonzero" fill-opacity="1" /><path clip-path="url(#clip730)" d="M750.049 189.138 L750.049 193.12 Q748.244 192.124 746.415 191.638 Q744.609 191.129 742.758 191.129 Q738.614 191.129 736.322 193.768 Q734.031 196.384 734.031 201.129 Q734.031 205.874 736.322 208.513 Q738.614 211.129 742.758 211.129 Q744.609 211.129 746.415 210.643 Q748.244 210.133 750.049 209.138 L750.049 213.073 Q748.267 213.907 746.346 214.323 Q744.447 214.74 742.295 214.74 Q736.438 214.74 732.989 211.059 Q729.54 207.379 729.54 201.129 Q729.54 194.786 733.012 191.152 Q736.508 187.518 742.572 187.518 Q744.54 187.518 746.415 187.935 Q748.29 188.328 750.049 189.138 Z" fill="#000000" fill-rule="nonzero" fill-opacity="1" /><polyline clip-path="url(#clip730)" style="stroke:#ffa500; stroke-linecap:round; stroke-linejoin:round; stroke-width:4; stroke-opacity:1; fill:none" stroke-dasharray="2, 4" points="343.018,248.629 483.232,248.629 "/>
<path clip-path="url(#clip730)" d="M413.125 226.991 L391.487 248.629 L413.125 270.267 L434.763 248.629 L413.125 226.991 Z" fill="#ffa500" fill-rule="evenodd" fill-opacity="1" stroke="#000000" stroke-opacity="1" stroke-width="3.72364"/>
<path clip-path="url(#clip730)" d="M522.62 234.52 Q517.527 234.52 514.518 238.316 Q511.532 242.112 511.532 248.663 Q511.532 255.191 514.518 258.987 Q517.527 262.784 522.62 262.784 Q527.713 262.784 530.675 258.987 Q533.662 255.191 533.662 248.663 Q533.662 242.112 530.675 238.316 Q527.713 234.52 522.62 234.52 M529.171 265.284 L535.328 272.02 L529.68 272.02 L524.564 266.487 Q523.8 266.534 523.384 266.557 Q522.99 266.58 522.62 266.58 Q515.328 266.58 510.953 261.719 Q506.602 256.835 506.602 248.663 Q506.602 240.469 510.953 235.608 Q515.328 230.724 522.62 230.724 Q529.888 230.724 534.24 235.608 Q538.592 240.469 538.592 248.663 Q538.592 254.682 536.162 258.964 Q533.754 263.247 529.171 265.284 Z" fill="#000000" fill-rule="nonzero" fill-opacity="1" /><path clip-path="url(#clip730)" d="M545.907 231.349 L552.203 231.349 L567.527 260.261 L567.527 231.349 L572.064 231.349 L572.064 265.909 L565.768 265.909 L550.444 236.997 L550.444 265.909 L545.907 265.909 L545.907 231.349 Z" fill="#000000" fill-rule="nonzero" fill-opacity="1" /><path clip-path="url(#clip730)" d="M586.046 235.191 L586.046 262.066 L591.694 262.066 Q598.846 262.066 602.157 258.825 Q605.49 255.585 605.49 248.594 Q605.49 241.649 602.157 238.432 Q598.846 235.191 591.694 235.191 L586.046 235.191 M581.37 231.349 L590.976 231.349 Q601.022 231.349 605.721 235.538 Q610.42 239.705 610.42 248.594 Q610.42 257.529 605.698 261.719 Q600.976 265.909 590.976 265.909 L581.37 265.909 L581.37 231.349 Z" fill="#000000" fill-rule="nonzero" fill-opacity="1" /><path clip-path="url(#clip730)" d="M617.874 231.349 L637.735 231.349 L637.735 235.284 L622.55 235.284 L622.55 245.469 L636.254 245.469 L636.254 249.404 L622.55 249.404 L622.55 265.909 L617.874 265.909 L617.874 231.349 Z" fill="#000000" fill-rule="nonzero" fill-opacity="1" /><polyline clip-path="url(#clip730)" style="stroke:#aa8c55; stroke-linecap:round; stroke-linejoin:round; stroke-width:4; stroke-opacity:1; fill:none" stroke-dasharray="2, 4" points="343.018,300.469 483.232,300.469 "/>
<path clip-path="url(#clip730)" d="M413.125 278.831 L391.487 300.469 L413.125 322.107 L434.763 300.469 L413.125 278.831 Z" fill="#aa8c55" fill-rule="evenodd" fill-opacity="1" stroke="#000000" stroke-opacity="1" stroke-width="3.72364"/>
<path clip-path="url(#clip730)" d="M522.62 286.36 Q517.527 286.36 514.518 290.156 Q511.532 293.952 511.532 300.503 Q511.532 307.031 514.518 310.827 Q517.527 314.624 522.62 314.624 Q527.713 314.624 530.675 310.827 Q533.662 307.031 533.662 300.503 Q533.662 293.952 530.675 290.156 Q527.713 286.36 522.62 286.36 M529.171 317.124 L535.328 323.86 L529.68 323.86 L524.564 318.327 Q523.8 318.374 523.384 318.397 Q522.99 318.42 522.62 318.42 Q515.328 318.42 510.953 313.559 Q506.602 308.675 506.602 300.503 Q506.602 292.309 510.953 287.448 Q515.328 282.564 522.62 282.564 Q529.888 282.564 534.24 287.448 Q538.592 292.309 538.592 300.503 Q538.592 306.522 536.162 310.804 Q533.754 315.087 529.171 317.124 Z" fill="#000000" fill-rule="nonzero" fill-opacity="1" /><path clip-path="url(#clip730)" d="M545.907 283.189 L552.203 283.189 L567.527 312.101 L567.527 283.189 L572.064 283.189 L572.064 317.749 L565.768 317.749 L550.444 288.837 L550.444 317.749 L545.907 317.749 L545.907 283.189 Z" fill="#000000" fill-rule="nonzero" fill-opacity="1" /><path clip-path="url(#clip730)" d="M586.046 287.031 L586.046 313.906 L591.694 313.906 Q598.846 313.906 602.157 310.665 Q605.49 307.425 605.49 300.434 Q605.49 293.489 602.157 290.272 Q598.846 287.031 591.694 287.031 L586.046 287.031 M581.37 283.189 L590.976 283.189 Q601.022 283.189 605.721 287.378 Q610.42 291.545 610.42 300.434 Q610.42 309.369 605.698 313.559 Q600.976 317.749 590.976 317.749 L581.37 317.749 L581.37 283.189 Z" fill="#000000" fill-rule="nonzero" fill-opacity="1" /><path clip-path="url(#clip730)" d="M617.874 283.189 L637.735 283.189 L637.735 287.124 L622.55 287.124 L622.55 297.309 L636.254 297.309 L636.254 301.244 L622.55 301.244 L622.55 317.749 L617.874 317.749 L617.874 283.189 Z" fill="#000000" fill-rule="nonzero" fill-opacity="1" /><path clip-path="url(#clip730)" d="M664.656 325.619 L664.656 328.929 L640.027 328.929 L640.027 325.619 L664.656 325.619 Z" fill="#000000" fill-rule="nonzero" fill-opacity="1" /><path clip-path="url(#clip730)" d="M672.781 313.86 L672.781 327.61 L668.499 327.61 L668.499 291.823 L672.781 291.823 L672.781 295.758 Q674.124 293.443 676.161 292.332 Q678.221 291.198 681.068 291.198 Q685.79 291.198 688.73 294.948 Q691.693 298.698 691.693 304.809 Q691.693 310.92 688.73 314.67 Q685.79 318.42 681.068 318.42 Q678.221 318.42 676.161 317.309 Q674.124 316.175 672.781 313.86 M687.272 304.809 Q687.272 300.11 685.327 297.448 Q683.406 294.763 680.027 294.763 Q676.647 294.763 674.702 297.448 Q672.781 300.11 672.781 304.809 Q672.781 309.508 674.702 312.193 Q676.647 314.855 680.027 314.855 Q683.406 314.855 685.327 312.193 Q687.272 309.508 687.272 304.809 Z" fill="#000000" fill-rule="nonzero" fill-opacity="1" /><path clip-path="url(#clip730)" d="M713.776 295.804 Q713.059 295.388 712.202 295.202 Q711.369 294.994 710.35 294.994 Q706.739 294.994 704.795 297.355 Q702.874 299.693 702.874 304.091 L702.874 317.749 L698.591 317.749 L698.591 291.823 L702.874 291.823 L702.874 295.851 Q704.216 293.489 706.369 292.355 Q708.522 291.198 711.6 291.198 Q712.04 291.198 712.573 291.267 Q713.105 291.314 713.753 291.429 L713.776 295.804 Z" fill="#000000" fill-rule="nonzero" fill-opacity="1" /><path clip-path="url(#clip730)" d="M739.378 303.721 L739.378 305.804 L719.795 305.804 Q720.073 310.202 722.434 312.517 Q724.818 314.809 729.054 314.809 Q731.508 314.809 733.799 314.207 Q736.114 313.605 738.383 312.401 L738.383 316.429 Q736.091 317.401 733.684 317.911 Q731.276 318.42 728.799 318.42 Q722.596 318.42 718.961 314.809 Q715.35 311.198 715.35 305.04 Q715.35 298.675 718.776 294.948 Q722.225 291.198 728.059 291.198 Q733.29 291.198 736.322 294.577 Q739.378 297.934 739.378 303.721 M735.119 302.471 Q735.073 298.976 733.151 296.892 Q731.253 294.809 728.105 294.809 Q724.54 294.809 722.387 296.823 Q720.258 298.837 719.934 302.494 L735.119 302.471 Z" fill="#000000" fill-rule="nonzero" fill-opacity="1" /><path clip-path="url(#clip730)" d="M765.026 292.818 L765.026 296.8 Q763.221 295.804 761.392 295.318 Q759.586 294.809 757.734 294.809 Q753.591 294.809 751.299 297.448 Q749.008 300.064 749.008 304.809 Q749.008 309.554 751.299 312.193 Q753.591 314.809 757.734 314.809 Q759.586 314.809 761.392 314.323 Q763.221 313.813 765.026 312.818 L765.026 316.753 Q763.244 317.587 761.322 318.003 Q759.424 318.42 757.271 318.42 Q751.415 318.42 747.966 314.739 Q744.517 311.059 744.517 304.809 Q744.517 298.466 747.989 294.832 Q751.484 291.198 757.549 291.198 Q759.517 291.198 761.392 291.615 Q763.267 292.008 765.026 292.818 Z" fill="#000000" fill-rule="nonzero" fill-opacity="1" /><polyline clip-path="url(#clip730)" style="stroke:#0000ff; stroke-linecap:round; stroke-linejoin:round; stroke-width:4; stroke-opacity:1; fill:none" stroke-dasharray="2, 4" points="343.018,352.309 483.232,352.309 "/>
<path clip-path="url(#clip730)" d="M413.125 330.671 L408.04 345.298 L392.548 345.622 L404.903 354.992 L400.402 369.814 L413.125 360.964 L425.848 369.814 L421.348 354.992 L433.703 345.622 L418.21 345.298 L413.125 330.671 Z" fill="#0000ff" fill-rule="evenodd" fill-opacity="1" stroke="#000000" stroke-opacity="1" stroke-width="3.72364"/>
<path clip-path="url(#clip730)" d="M522.62 338.2 Q517.527 338.2 514.518 341.996 Q511.532 345.792 511.532 352.343 Q511.532 358.871 514.518 362.667 Q517.527 366.464 522.62 366.464 Q527.713 366.464 530.675 362.667 Q533.662 358.871 533.662 352.343 Q533.662 345.792 530.675 341.996 Q527.713 338.2 522.62 338.2 M529.171 368.964 L535.328 375.7 L529.68 375.7 L524.564 370.167 Q523.8 370.214 523.384 370.237 Q522.99 370.26 522.62 370.26 Q515.328 370.26 510.953 365.399 Q506.602 360.515 506.602 352.343 Q506.602 344.149 510.953 339.288 Q515.328 334.404 522.62 334.404 Q529.888 334.404 534.24 339.288 Q538.592 344.149 538.592 352.343 Q538.592 358.362 536.162 362.644 Q533.754 366.927 529.171 368.964 Z" fill="#000000" fill-rule="nonzero" fill-opacity="1" /><path clip-path="url(#clip730)" d="M550.583 353.084 L550.583 365.746 L558.083 365.746 Q561.856 365.746 563.661 364.195 Q565.49 362.621 565.49 359.403 Q565.49 356.163 563.661 354.635 Q561.856 353.084 558.083 353.084 L550.583 353.084 M550.583 338.871 L550.583 349.288 L557.504 349.288 Q560.93 349.288 562.597 348.015 Q564.286 346.718 564.286 344.079 Q564.286 341.464 562.597 340.167 Q560.93 338.871 557.504 338.871 L550.583 338.871 M545.907 335.029 L557.851 335.029 Q563.198 335.029 566.092 337.251 Q568.985 339.473 568.985 343.57 Q568.985 346.742 567.504 348.617 Q566.022 350.491 563.152 350.954 Q566.601 351.695 568.499 354.056 Q570.421 356.394 570.421 359.913 Q570.421 364.542 567.272 367.065 Q564.124 369.589 558.314 369.589 L545.907 369.589 L545.907 335.029 Z" fill="#000000" fill-rule="nonzero" fill-opacity="1" /><path clip-path="url(#clip730)" d="M583.106 338.871 L583.106 365.746 L588.754 365.746 Q595.907 365.746 599.217 362.505 Q602.55 359.265 602.55 352.274 Q602.55 345.329 599.217 342.112 Q595.907 338.871 588.754 338.871 L583.106 338.871 M578.43 335.029 L588.036 335.029 Q598.082 335.029 602.782 339.218 Q607.481 343.385 607.481 352.274 Q607.481 361.209 602.758 365.399 Q598.036 369.589 588.036 369.589 L578.43 369.589 L578.43 335.029 Z" fill="#000000" fill-rule="nonzero" fill-opacity="1" /><path clip-path="url(#clip730)" d="M614.934 335.029 L634.795 335.029 L634.795 338.964 L619.61 338.964 L619.61 349.149 L633.314 349.149 L633.314 353.084 L619.61 353.084 L619.61 369.589 L614.934 369.589 L614.934 335.029 Z" fill="#000000" fill-rule="nonzero" fill-opacity="1" /><polyline clip-path="url(#clip730)" style="stroke:#a9a955; stroke-linecap:round; stroke-linejoin:round; stroke-width:4; stroke-opacity:1; fill:none" stroke-dasharray="2, 4" points="343.018,404.149 483.232,404.149 "/>
<path clip-path="url(#clip730)" d="M413.125 382.511 L408.04 397.138 L392.548 397.462 L404.903 406.832 L400.402 421.654 L413.125 412.804 L425.848 421.654 L421.348 406.832 L433.703 397.462 L418.21 397.138 L413.125 382.511 Z" fill="#a9a955" fill-rule="evenodd" fill-opacity="1" stroke="#000000" stroke-opacity="1" stroke-width="3.72364"/>
<path clip-path="url(#clip730)" d="M522.62 390.04 Q517.527 390.04 514.518 393.836 Q511.532 397.632 511.532 404.183 Q511.532 410.711 514.518 414.507 Q517.527 418.304 522.62 418.304 Q527.713 418.304 530.675 414.507 Q533.662 410.711 533.662 404.183 Q533.662 397.632 530.675 393.836 Q527.713 390.04 522.62 390.04 M529.171 420.804 L535.328 427.54 L529.68 427.54 L524.564 422.007 Q523.8 422.054 523.384 422.077 Q522.99 422.1 522.62 422.1 Q515.328 422.1 510.953 417.239 Q506.602 412.355 506.602 404.183 Q506.602 395.989 510.953 391.128 Q515.328 386.244 522.62 386.244 Q529.888 386.244 534.24 391.128 Q538.592 395.989 538.592 404.183 Q538.592 410.202 536.162 414.484 Q533.754 418.767 529.171 420.804 Z" fill="#000000" fill-rule="nonzero" fill-opacity="1" /><path clip-path="url(#clip730)" d="M550.583 404.924 L550.583 417.586 L558.083 417.586 Q561.856 417.586 563.661 416.035 Q565.49 414.461 565.49 411.243 Q565.49 408.003 563.661 406.475 Q561.856 404.924 558.083 404.924 L550.583 404.924 M550.583 390.711 L550.583 401.128 L557.504 401.128 Q560.93 401.128 562.597 399.855 Q564.286 398.558 564.286 395.919 Q564.286 393.304 562.597 392.007 Q560.93 390.711 557.504 390.711 L550.583 390.711 M545.907 386.869 L557.851 386.869 Q563.198 386.869 566.092 389.091 Q568.985 391.313 568.985 395.41 Q568.985 398.582 567.504 400.457 Q566.022 402.331 563.152 402.794 Q566.601 403.535 568.499 405.896 Q570.421 408.234 570.421 411.753 Q570.421 416.382 567.272 418.905 Q564.124 421.429 558.314 421.429 L545.907 421.429 L545.907 386.869 Z" fill="#000000" fill-rule="nonzero" fill-opacity="1" /><path clip-path="url(#clip730)" d="M583.106 390.711 L583.106 417.586 L588.754 417.586 Q595.907 417.586 599.217 414.345 Q602.55 411.105 602.55 404.114 Q602.55 397.169 599.217 393.952 Q595.907 390.711 588.754 390.711 L583.106 390.711 M578.43 386.869 L588.036 386.869 Q598.082 386.869 602.782 391.058 Q607.481 395.225 607.481 404.114 Q607.481 413.049 602.758 417.239 Q598.036 421.429 588.036 421.429 L578.43 421.429 L578.43 386.869 Z" fill="#000000" fill-rule="nonzero" fill-opacity="1" /><path clip-path="url(#clip730)" d="M614.934 386.869 L634.795 386.869 L634.795 390.804 L619.61 390.804 L619.61 400.989 L633.314 400.989 L633.314 404.924 L619.61 404.924 L619.61 421.429 L614.934 421.429 L614.934 386.869 Z" fill="#000000" fill-rule="nonzero" fill-opacity="1" /><path clip-path="url(#clip730)" d="M661.716 429.299 L661.716 432.609 L637.087 432.609 L637.087 429.299 L661.716 429.299 Z" fill="#000000" fill-rule="nonzero" fill-opacity="1" /><path clip-path="url(#clip730)" d="M669.841 417.54 L669.841 431.29 L665.559 431.29 L665.559 395.503 L669.841 395.503 L669.841 399.438 Q671.184 397.123 673.221 396.012 Q675.281 394.878 678.128 394.878 Q682.851 394.878 685.79 398.628 Q688.753 402.378 688.753 408.489 Q688.753 414.6 685.79 418.35 Q682.851 422.1 678.128 422.1 Q675.281 422.1 673.221 420.989 Q671.184 419.855 669.841 417.54 M684.332 408.489 Q684.332 403.79 682.388 401.128 Q680.466 398.443 677.087 398.443 Q673.707 398.443 671.763 401.128 Q669.841 403.79 669.841 408.489 Q669.841 413.188 671.763 415.873 Q673.707 418.535 677.087 418.535 Q680.466 418.535 682.388 415.873 Q684.332 413.188 684.332 408.489 Z" fill="#000000" fill-rule="nonzero" fill-opacity="1" /><path clip-path="url(#clip730)" d="M710.837 399.484 Q710.119 399.068 709.262 398.882 Q708.429 398.674 707.411 398.674 Q703.8 398.674 701.855 401.035 Q699.934 403.373 699.934 407.771 L699.934 421.429 L695.651 421.429 L695.651 395.503 L699.934 395.503 L699.934 399.531 Q701.276 397.169 703.429 396.035 Q705.582 394.878 708.661 394.878 Q709.1 394.878 709.633 394.947 Q710.165 394.994 710.813 395.109 L710.837 399.484 Z" fill="#000000" fill-rule="nonzero" fill-opacity="1" /><path clip-path="url(#clip730)" d="M736.438 407.401 L736.438 409.484 L716.855 409.484 Q717.133 413.882 719.494 416.197 Q721.878 418.489 726.114 418.489 Q728.568 418.489 730.86 417.887 Q733.174 417.285 735.443 416.081 L735.443 420.109 Q733.151 421.081 730.744 421.591 Q728.336 422.1 725.86 422.1 Q719.656 422.1 716.022 418.489 Q712.411 414.878 712.411 408.72 Q712.411 402.355 715.836 398.628 Q719.286 394.878 725.119 394.878 Q730.35 394.878 733.383 398.257 Q736.438 401.614 736.438 407.401 M732.179 406.151 Q732.133 402.656 730.211 400.572 Q728.313 398.489 725.165 398.489 Q721.6 398.489 719.448 400.503 Q717.318 402.517 716.994 406.174 L732.179 406.151 Z" fill="#000000" fill-rule="nonzero" fill-opacity="1" /><path clip-path="url(#clip730)" d="M762.086 396.498 L762.086 400.48 Q760.281 399.484 758.452 398.998 Q756.646 398.489 754.795 398.489 Q750.651 398.489 748.359 401.128 Q746.068 403.744 746.068 408.489 Q746.068 413.234 748.359 415.873 Q750.651 418.489 754.795 418.489 Q756.646 418.489 758.452 418.003 Q760.281 417.493 762.086 416.498 L762.086 420.433 Q760.304 421.267 758.383 421.683 Q756.484 422.1 754.332 422.1 Q748.475 422.1 745.026 418.419 Q741.577 414.739 741.577 408.489 Q741.577 402.146 745.049 398.512 Q748.545 394.878 754.609 394.878 Q756.577 394.878 758.452 395.295 Q760.327 395.688 762.086 396.498 Z" fill="#000000" fill-rule="nonzero" fill-opacity="1" /></svg>
