<?xml version="1.0" encoding="utf-8"?>
<svg xmlns="http://www.w3.org/2000/svg" xmlns:xlink="http://www.w3.org/1999/xlink" width="600" height="400" viewBox="0 0 2400 1600">
<defs>
  <clipPath id="clip450">
    <rect x="0" y="0" width="2400" height="1600"/>
  </clipPath>
</defs>
<path clip-path="url(#clip450)" d="M0 1600 L2400 1600 L2400 0 L0 0  Z" fill="#ffffff" fill-rule="evenodd" fill-opacity="1"/>
<defs>
  <clipPath id="clip451">
    <rect x="480" y="0" width="1681" height="1600"/>
  </clipPath>
</defs>
<path clip-path="url(#clip450)" d="M257.677 1410.9 L2352.76 1410.9 L2352.76 47.2441 L257.677 47.2441  Z" fill="#ffffff" fill-rule="evenodd" fill-opacity="1"/>
<defs>
  <clipPath id="clip452">
    <rect x="257" y="47" width="2096" height="1365"/>
  </clipPath>
</defs>
<polyline clip-path="url(#clip452)" style="stroke:#000000; stroke-linecap:round; stroke-linejoin:round; stroke-width:2; stroke-opacity:0.1; fill:none" points="690.382,1410.9 690.382,47.2441 "/>
<polyline clip-path="url(#clip452)" style="stroke:#000000; stroke-linecap:round; stroke-linejoin:round; stroke-width:2; stroke-opacity:0.1; fill:none" points="1173.98,1410.9 1173.98,47.2441 "/>
<polyline clip-path="url(#clip452)" style="stroke:#000000; stroke-linecap:round; stroke-linejoin:round; stroke-width:2; stroke-opacity:0.1; fill:none" points="1657.57,1410.9 1657.57,47.2441 "/>
<polyline clip-path="url(#clip452)" style="stroke:#000000; stroke-linecap:round; stroke-linejoin:round; stroke-width:2; stroke-opacity:0.1; fill:none" points="2141.17,1410.9 2141.17,47.2441 "/>
<polyline clip-path="url(#clip450)" style="stroke:#000000; stroke-linecap:round; stroke-linejoin:round; stroke-width:4; stroke-opacity:1; fill:none" points="257.677,1410.9 2352.76,1410.9 "/>
<polyline clip-path="url(#clip450)" style="stroke:#000000; stroke-linecap:round; stroke-linejoin:round; stroke-width:4; stroke-opacity:1; fill:none" points="690.382,1410.9 690.382,1392 "/>
<polyline clip-path="url(#clip450)" style="stroke:#000000; stroke-linecap:round; stroke-linejoin:round; stroke-width:4; stroke-opacity:1; fill:none" points="1173.98,1410.9 1173.98,1392 "/>
<polyline clip-path="url(#clip450)" style="stroke:#000000; stroke-linecap:round; stroke-linejoin:round; stroke-width:4; stroke-opacity:1; fill:none" points="1657.57,1410.9 1657.57,1392 "/>
<polyline clip-path="url(#clip450)" style="stroke:#000000; stroke-linecap:round; stroke-linejoin:round; stroke-width:4; stroke-opacity:1; fill:none" points="2141.17,1410.9 2141.17,1392 "/>
<path clip-path="url(#clip450)" d="M621.699 1485.02 L629.338 1485.02 L629.338 1458.66 L621.027 1460.32 L621.027 1456.06 L629.291 1454.4 L633.967 1454.4 L633.967 1485.02 L641.606 1485.02 L641.606 1488.96 L621.699 1488.96 L621.699 1485.02 Z" fill="#000000" fill-rule="nonzero" fill-opacity="1" /><path clip-path="url(#clip450)" d="M661.05 1457.48 Q657.439 1457.48 655.611 1461.04 Q653.805 1464.58 653.805 1471.71 Q653.805 1478.82 655.611 1482.38 Q657.439 1485.92 661.05 1485.92 Q664.685 1485.92 666.49 1482.38 Q668.319 1478.82 668.319 1471.71 Q668.319 1464.58 666.49 1461.04 Q664.685 1457.48 661.05 1457.48 M661.05 1453.77 Q666.861 1453.77 669.916 1458.38 Q672.995 1462.96 672.995 1471.71 Q672.995 1480.44 669.916 1485.04 Q666.861 1489.63 661.05 1489.63 Q655.24 1489.63 652.162 1485.04 Q649.106 1480.44 649.106 1471.71 Q649.106 1462.96 652.162 1458.38 Q655.24 1453.77 661.05 1453.77 Z" fill="#000000" fill-rule="nonzero" fill-opacity="1" /><path clip-path="url(#clip450)" d="M672.995 1447.87 L697.106 1447.87 L697.106 1451.07 L672.995 1451.07 L672.995 1447.87 Z" fill="#000000" fill-rule="nonzero" fill-opacity="1" /><path clip-path="url(#clip450)" d="M713.432 1435.97 Q710.497 1435.97 709.012 1438.86 Q707.545 1441.74 707.545 1447.53 Q707.545 1453.31 709.012 1456.2 Q710.497 1459.08 713.432 1459.08 Q716.384 1459.08 717.851 1456.2 Q719.337 1453.31 719.337 1447.53 Q719.337 1441.74 717.851 1438.86 Q716.384 1435.97 713.432 1435.97 M713.432 1432.96 Q718.152 1432.96 720.635 1436.7 Q723.136 1440.43 723.136 1447.53 Q723.136 1454.62 720.635 1458.37 Q718.152 1462.09 713.432 1462.09 Q708.711 1462.09 706.209 1458.37 Q703.727 1454.62 703.727 1447.53 Q703.727 1440.43 706.209 1436.7 Q708.711 1432.96 713.432 1432.96 Z" fill="#000000" fill-rule="nonzero" fill-opacity="1" /><path clip-path="url(#clip450)" d="M729.813 1456.77 L733.782 1456.77 L733.782 1461.55 L729.813 1461.55 L729.813 1456.77 Z" fill="#000000" fill-rule="nonzero" fill-opacity="1" /><path clip-path="url(#clip450)" d="M742.17 1460.96 L742.17 1457.5 Q743.599 1458.18 745.066 1458.54 Q746.533 1458.89 747.944 1458.89 Q751.705 1458.89 753.68 1456.37 Q755.674 1453.84 755.956 1448.68 Q754.865 1450.3 753.191 1451.16 Q751.517 1452.03 749.486 1452.03 Q745.273 1452.03 742.809 1449.49 Q740.364 1446.93 740.364 1442.51 Q740.364 1438.19 742.922 1435.57 Q745.48 1432.96 749.73 1432.96 Q754.602 1432.96 757.16 1436.7 Q759.736 1440.43 759.736 1447.53 Q759.736 1454.17 756.577 1458.14 Q753.436 1462.09 748.113 1462.09 Q746.684 1462.09 745.217 1461.81 Q743.75 1461.53 742.17 1460.96 M749.73 1449.06 Q752.288 1449.06 753.774 1447.31 Q755.279 1445.56 755.279 1442.51 Q755.279 1439.48 753.774 1437.74 Q752.288 1435.97 749.73 1435.97 Q747.173 1435.97 745.668 1437.74 Q744.182 1439.48 744.182 1442.51 Q744.182 1445.56 745.668 1447.31 Q747.173 1449.06 749.73 1449.06 Z" fill="#000000" fill-rule="nonzero" fill-opacity="1" /><path clip-path="url(#clip450)" d="M1105.15 1485.02 L1112.79 1485.02 L1112.79 1458.66 L1104.48 1460.32 L1104.48 1456.06 L1112.75 1454.4 L1117.42 1454.4 L1117.42 1485.02 L1125.06 1485.02 L1125.06 1488.96 L1105.15 1488.96 L1105.15 1485.02 Z" fill="#000000" fill-rule="nonzero" fill-opacity="1" /><path clip-path="url(#clip450)" d="M1144.51 1457.48 Q1140.89 1457.48 1139.07 1461.04 Q1137.26 1464.58 1137.26 1471.71 Q1137.26 1478.82 1139.07 1482.38 Q1140.89 1485.92 1144.51 1485.92 Q1148.14 1485.92 1149.95 1482.38 Q1151.77 1478.82 1151.77 1471.71 Q1151.77 1464.58 1149.95 1461.04 Q1148.14 1457.48 1144.51 1457.48 M1144.51 1453.77 Q1150.32 1453.77 1153.37 1458.38 Q1156.45 1462.96 1156.45 1471.71 Q1156.45 1480.44 1153.37 1485.04 Q1150.32 1489.63 1144.51 1489.63 Q1138.7 1489.63 1135.62 1485.04 Q1132.56 1480.44 1132.56 1471.71 Q1132.56 1462.96 1135.62 1458.38 Q1138.7 1453.77 1144.51 1453.77 Z" fill="#000000" fill-rule="nonzero" fill-opacity="1" /><path clip-path="url(#clip450)" d="M1156.45 1447.87 L1180.56 1447.87 L1180.56 1451.07 L1156.45 1451.07 L1156.45 1447.87 Z" fill="#000000" fill-rule="nonzero" fill-opacity="1" /><path clip-path="url(#clip450)" d="M1196.89 1435.97 Q1193.95 1435.97 1192.47 1438.86 Q1191 1441.74 1191 1447.53 Q1191 1453.31 1192.47 1456.2 Q1193.95 1459.08 1196.89 1459.08 Q1199.84 1459.08 1201.31 1456.2 Q1202.79 1453.31 1202.79 1447.53 Q1202.79 1441.74 1201.31 1438.86 Q1199.84 1435.97 1196.89 1435.97 M1196.89 1432.96 Q1201.61 1432.96 1204.09 1436.7 Q1206.59 1440.43 1206.59 1447.53 Q1206.59 1454.62 1204.09 1458.37 Q1201.61 1462.09 1196.89 1462.09 Q1192.17 1462.09 1189.66 1458.37 Q1187.18 1454.62 1187.18 1447.53 Q1187.18 1440.43 1189.66 1436.7 Q1192.17 1432.96 1196.89 1432.96 Z" fill="#000000" fill-rule="nonzero" fill-opacity="1" /><path clip-path="url(#clip450)" d="M1213.27 1456.77 L1217.24 1456.77 L1217.24 1461.55 L1213.27 1461.55 L1213.27 1456.77 Z" fill="#000000" fill-rule="nonzero" fill-opacity="1" /><path clip-path="url(#clip450)" d="M1234.11 1445.99 Q1231.55 1445.99 1230.05 1447.74 Q1228.56 1449.49 1228.56 1452.54 Q1228.56 1455.57 1230.05 1457.33 Q1231.55 1459.08 1234.11 1459.08 Q1236.67 1459.08 1238.15 1457.33 Q1239.66 1455.57 1239.66 1452.54 Q1239.66 1449.49 1238.15 1447.74 Q1236.67 1445.99 1234.11 1445.99 M1241.65 1434.09 L1241.65 1437.55 Q1240.22 1436.87 1238.75 1436.51 Q1237.3 1436.16 1235.88 1436.16 Q1232.11 1436.16 1230.12 1438.69 Q1228.15 1441.23 1227.86 1446.37 Q1228.97 1444.73 1230.65 1443.87 Q1232.32 1442.98 1234.33 1442.98 Q1238.56 1442.98 1241.01 1445.56 Q1243.47 1448.12 1243.47 1452.54 Q1243.47 1456.86 1240.92 1459.48 Q1238.36 1462.09 1234.11 1462.09 Q1229.24 1462.09 1226.66 1458.37 Q1224.08 1454.62 1224.08 1447.53 Q1224.08 1440.88 1227.24 1436.93 Q1230.4 1432.96 1235.72 1432.96 Q1237.15 1432.96 1238.6 1433.24 Q1240.07 1433.52 1241.65 1434.09 Z" fill="#000000" fill-rule="nonzero" fill-opacity="1" /><path clip-path="url(#clip450)" d="M1589.08 1485.02 L1596.72 1485.02 L1596.72 1458.66 L1588.41 1460.32 L1588.41 1456.06 L1596.67 1454.4 L1601.35 1454.4 L1601.35 1485.02 L1608.99 1485.02 L1608.99 1488.96 L1589.08 1488.96 L1589.08 1485.02 Z" fill="#000000" fill-rule="nonzero" fill-opacity="1" /><path clip-path="url(#clip450)" d="M1628.43 1457.48 Q1624.82 1457.48 1622.99 1461.04 Q1621.19 1464.58 1621.19 1471.71 Q1621.19 1478.82 1622.99 1482.38 Q1624.82 1485.92 1628.43 1485.92 Q1632.07 1485.92 1633.87 1482.38 Q1635.7 1478.82 1635.7 1471.71 Q1635.7 1464.58 1633.87 1461.04 Q1632.07 1457.48 1628.43 1457.48 M1628.43 1453.77 Q1634.24 1453.77 1637.3 1458.38 Q1640.38 1462.96 1640.38 1471.71 Q1640.38 1480.44 1637.3 1485.04 Q1634.24 1489.63 1628.43 1489.63 Q1622.62 1489.63 1619.54 1485.04 Q1616.49 1480.44 1616.49 1471.71 Q1616.49 1462.96 1619.54 1458.38 Q1622.62 1453.77 1628.43 1453.77 Z" fill="#000000" fill-rule="nonzero" fill-opacity="1" /><path clip-path="url(#clip450)" d="M1640.38 1447.87 L1664.49 1447.87 L1664.49 1451.07 L1640.38 1451.07 L1640.38 1447.87 Z" fill="#000000" fill-rule="nonzero" fill-opacity="1" /><path clip-path="url(#clip450)" d="M1680.81 1435.97 Q1677.88 1435.97 1676.39 1438.86 Q1674.93 1441.74 1674.93 1447.53 Q1674.93 1453.31 1676.39 1456.2 Q1677.88 1459.08 1680.81 1459.08 Q1683.77 1459.08 1685.23 1456.2 Q1686.72 1453.31 1686.72 1447.53 Q1686.72 1441.74 1685.23 1438.86 Q1683.77 1435.97 1680.81 1435.97 M1680.81 1432.96 Q1685.53 1432.96 1688.02 1436.7 Q1690.52 1440.43 1690.52 1447.53 Q1690.52 1454.62 1688.02 1458.37 Q1685.53 1462.09 1680.81 1462.09 Q1676.09 1462.09 1673.59 1458.37 Q1671.11 1454.62 1671.11 1447.53 Q1671.11 1440.43 1673.59 1436.7 Q1676.09 1432.96 1680.81 1432.96 Z" fill="#000000" fill-rule="nonzero" fill-opacity="1" /><path clip-path="url(#clip450)" d="M1697.19 1456.77 L1701.16 1456.77 L1701.16 1461.55 L1697.19 1461.55 L1697.19 1456.77 Z" fill="#000000" fill-rule="nonzero" fill-opacity="1" /><path clip-path="url(#clip450)" d="M1720.95 1446.41 Q1723.68 1446.99 1725.2 1448.83 Q1726.74 1450.68 1726.74 1453.38 Q1726.74 1457.54 1723.88 1459.82 Q1721.02 1462.09 1715.76 1462.09 Q1713.99 1462.09 1712.11 1461.73 Q1710.25 1461.4 1708.25 1460.7 L1708.25 1457.03 Q1709.83 1457.95 1711.71 1458.42 Q1713.59 1458.89 1715.64 1458.89 Q1719.22 1458.89 1721.08 1457.48 Q1722.96 1456.07 1722.96 1453.38 Q1722.96 1450.9 1721.21 1449.51 Q1719.48 1448.1 1716.38 1448.1 L1713.11 1448.1 L1713.11 1444.98 L1716.53 1444.98 Q1719.33 1444.98 1720.82 1443.87 Q1722.3 1442.74 1722.3 1440.63 Q1722.3 1438.47 1720.76 1437.32 Q1719.24 1436.16 1716.38 1436.16 Q1714.82 1436.16 1713.03 1436.49 Q1711.24 1436.83 1709.1 1437.55 L1709.1 1434.16 Q1711.26 1433.56 1713.14 1433.26 Q1715.04 1432.96 1716.72 1432.96 Q1721.04 1432.96 1723.56 1434.93 Q1726.08 1436.89 1726.08 1440.24 Q1726.08 1442.57 1724.75 1444.19 Q1723.41 1445.79 1720.95 1446.41 Z" fill="#000000" fill-rule="nonzero" fill-opacity="1" /><path clip-path="url(#clip450)" d="M2087.78 1485.02 L2095.42 1485.02 L2095.42 1458.66 L2087.11 1460.32 L2087.11 1456.06 L2095.37 1454.4 L2100.05 1454.4 L2100.05 1485.02 L2107.69 1485.02 L2107.69 1488.96 L2087.78 1488.96 L2087.78 1485.02 Z" fill="#000000" fill-rule="nonzero" fill-opacity="1" /><path clip-path="url(#clip450)" d="M2127.13 1457.48 Q2123.52 1457.48 2121.69 1461.04 Q2119.89 1464.58 2119.89 1471.71 Q2119.89 1478.82 2121.69 1482.38 Q2123.52 1485.92 2127.13 1485.92 Q2130.76 1485.92 2132.57 1482.38 Q2134.4 1478.82 2134.4 1471.71 Q2134.4 1464.58 2132.57 1461.04 Q2130.76 1457.48 2127.13 1457.48 M2127.13 1453.77 Q2132.94 1453.77 2136 1458.38 Q2139.08 1462.96 2139.08 1471.71 Q2139.08 1480.44 2136 1485.04 Q2132.94 1489.63 2127.13 1489.63 Q2121.32 1489.63 2118.24 1485.04 Q2115.19 1480.44 2115.19 1471.71 Q2115.19 1462.96 2118.24 1458.38 Q2121.32 1453.77 2127.13 1453.77 Z" fill="#000000" fill-rule="nonzero" fill-opacity="1" /><path clip-path="url(#clip450)" d="M2148.78 1435.97 Q2145.85 1435.97 2144.36 1438.86 Q2142.89 1441.74 2142.89 1447.53 Q2142.89 1453.31 2144.36 1456.2 Q2145.85 1459.08 2148.78 1459.08 Q2151.73 1459.08 2153.2 1456.2 Q2154.69 1453.31 2154.69 1447.53 Q2154.69 1441.74 2153.2 1438.86 Q2151.73 1435.97 2148.78 1435.97 M2148.78 1432.96 Q2153.5 1432.96 2155.98 1436.7 Q2158.48 1440.43 2158.48 1447.53 Q2158.48 1454.62 2155.98 1458.37 Q2153.5 1462.09 2148.78 1462.09 Q2144.06 1462.09 2141.56 1458.37 Q2139.08 1454.62 2139.08 1447.53 Q2139.08 1440.43 2141.56 1436.7 Q2144.06 1432.96 2148.78 1432.96 Z" fill="#000000" fill-rule="nonzero" fill-opacity="1" /><path clip-path="url(#clip450)" d="M2165.16 1456.77 L2169.13 1456.77 L2169.13 1461.55 L2165.16 1461.55 L2165.16 1456.77 Z" fill="#000000" fill-rule="nonzero" fill-opacity="1" /><path clip-path="url(#clip450)" d="M2185.53 1435.97 Q2182.6 1435.97 2181.11 1438.86 Q2179.64 1441.74 2179.64 1447.53 Q2179.64 1453.31 2181.11 1456.2 Q2182.6 1459.08 2185.53 1459.08 Q2188.48 1459.08 2189.95 1456.2 Q2191.44 1453.31 2191.44 1447.53 Q2191.44 1441.74 2189.95 1438.86 Q2188.48 1435.97 2185.53 1435.97 M2185.53 1432.96 Q2190.25 1432.96 2192.73 1436.7 Q2195.24 1440.43 2195.24 1447.53 Q2195.24 1454.62 2192.73 1458.37 Q2190.25 1462.09 2185.53 1462.09 Q2180.81 1462.09 2178.31 1458.37 Q2175.83 1454.62 2175.83 1447.53 Q2175.83 1440.43 2178.31 1436.7 Q2180.81 1432.96 2185.53 1432.96 Z" fill="#000000" fill-rule="nonzero" fill-opacity="1" /><path clip-path="url(#clip450)" d="M1030.38 1528.23 L1030.38 1534.5 Q1026.72 1532.74 1023.47 1531.89 Q1020.22 1531.03 1017.2 1531.03 Q1011.95 1531.03 1009.08 1533.06 Q1006.25 1535.1 1006.25 1538.86 Q1006.25 1542.01 1008.13 1543.63 Q1010.04 1545.22 1015.32 1546.21 L1019.21 1547 Q1026.4 1548.37 1029.8 1551.84 Q1033.24 1555.28 1033.24 1561.07 Q1033.24 1567.98 1028.59 1571.54 Q1023.98 1575.11 1015.04 1575.11 Q1011.66 1575.11 1007.84 1574.34 Q1004.05 1573.58 999.981 1572.08 L999.981 1565.46 Q1003.9 1567.66 1007.65 1568.77 Q1011.41 1569.89 1015.04 1569.89 Q1020.54 1569.89 1023.53 1567.72 Q1026.53 1565.56 1026.53 1561.55 Q1026.53 1558.05 1024.36 1556.08 Q1022.23 1554.1 1017.33 1553.11 L1013.41 1552.35 Q1006.22 1550.92 1003 1547.86 Q999.79 1544.81 999.79 1539.37 Q999.79 1533.06 1004.21 1529.43 Q1008.67 1525.81 1016.47 1525.81 Q1019.81 1525.81 1023.28 1526.41 Q1026.75 1527.02 1030.38 1528.23 Z" fill="#000000" fill-rule="nonzero" fill-opacity="1" /><path clip-path="url(#clip450)" d="M1043.01 1538.54 L1048.87 1538.54 L1048.87 1574.19 L1043.01 1574.19 L1043.01 1538.54 M1043.01 1524.66 L1048.87 1524.66 L1048.87 1532.08 L1043.01 1532.08 L1043.01 1524.66 Z" fill="#000000" fill-rule="nonzero" fill-opacity="1" /><path clip-path="url(#clip450)" d="M1088.88 1545.38 Q1091.07 1541.43 1094.13 1539.56 Q1097.18 1537.68 1101.32 1537.68 Q1106.89 1537.68 1109.92 1541.59 Q1112.94 1545.48 1112.94 1552.67 L1112.94 1574.19 L1107.05 1574.19 L1107.05 1552.86 Q1107.05 1547.74 1105.24 1545.25 Q1103.42 1542.77 1099.7 1542.77 Q1095.15 1542.77 1092.51 1545.79 Q1089.86 1548.82 1089.86 1554.04 L1089.86 1574.19 L1083.98 1574.19 L1083.98 1552.86 Q1083.98 1547.7 1082.16 1545.25 Q1080.35 1542.77 1076.56 1542.77 Q1072.07 1542.77 1069.43 1545.83 Q1066.79 1548.85 1066.79 1554.04 L1066.79 1574.19 L1060.9 1574.19 L1060.9 1538.54 L1066.79 1538.54 L1066.79 1544.08 Q1068.79 1540.8 1071.59 1539.24 Q1074.4 1537.68 1078.25 1537.68 Q1082.13 1537.68 1084.84 1539.65 Q1087.57 1541.62 1088.88 1545.38 Z" fill="#000000" fill-rule="nonzero" fill-opacity="1" /><path clip-path="url(#clip450)" d="M1124.02 1560.12 L1124.02 1538.54 L1129.87 1538.54 L1129.87 1559.89 Q1129.87 1564.96 1131.85 1567.5 Q1133.82 1570.02 1137.77 1570.02 Q1142.51 1570.02 1145.25 1566.99 Q1148.02 1563.97 1148.02 1558.75 L1148.02 1538.54 L1153.87 1538.54 L1153.87 1574.19 L1148.02 1574.19 L1148.02 1568.71 Q1145.88 1571.96 1143.05 1573.55 Q1140.25 1575.11 1136.53 1575.11 Q1130.38 1575.11 1127.2 1571.29 Q1124.02 1567.47 1124.02 1560.12 M1138.75 1537.68 L1138.75 1537.68 Z" fill="#000000" fill-rule="nonzero" fill-opacity="1" /><path clip-path="url(#clip450)" d="M1165.93 1524.66 L1171.79 1524.66 L1171.79 1574.19 L1165.93 1574.19 L1165.93 1524.66 Z" fill="#000000" fill-rule="nonzero" fill-opacity="1" /><path clip-path="url(#clip450)" d="M1200.25 1556.27 Q1193.15 1556.27 1190.41 1557.89 Q1187.67 1559.51 1187.67 1563.43 Q1187.67 1566.55 1189.71 1568.39 Q1191.78 1570.21 1195.31 1570.21 Q1200.18 1570.21 1203.11 1566.77 Q1206.07 1563.3 1206.07 1557.57 L1206.07 1556.27 L1200.25 1556.27 M1211.93 1553.85 L1211.93 1574.19 L1206.07 1574.19 L1206.07 1568.77 Q1204.07 1572.02 1201.07 1573.58 Q1198.08 1575.11 1193.75 1575.11 Q1188.28 1575.11 1185.03 1572.05 Q1181.82 1568.97 1181.82 1563.81 Q1181.82 1557.79 1185.83 1554.74 Q1189.87 1551.68 1197.86 1551.68 L1206.07 1551.68 L1206.07 1551.11 Q1206.07 1547.07 1203.4 1544.87 Q1200.75 1542.64 1195.95 1542.64 Q1192.89 1542.64 1190 1543.38 Q1187.1 1544.11 1184.43 1545.57 L1184.43 1540.16 Q1187.64 1538.92 1190.67 1538.31 Q1193.69 1537.68 1196.55 1537.68 Q1204.29 1537.68 1208.11 1541.69 Q1211.93 1545.7 1211.93 1553.85 Z" fill="#000000" fill-rule="nonzero" fill-opacity="1" /><path clip-path="url(#clip450)" d="M1229.78 1528.42 L1229.78 1538.54 L1241.85 1538.54 L1241.85 1543.09 L1229.78 1543.09 L1229.78 1562.44 Q1229.78 1566.8 1230.96 1568.04 Q1232.17 1569.28 1235.83 1569.28 L1241.85 1569.28 L1241.85 1574.19 L1235.83 1574.19 Q1229.05 1574.19 1226.47 1571.67 Q1223.89 1569.12 1223.89 1562.44 L1223.89 1543.09 L1219.6 1543.09 L1219.6 1538.54 L1223.89 1538.54 L1223.89 1528.42 L1229.78 1528.42 Z" fill="#000000" fill-rule="nonzero" fill-opacity="1" /><path clip-path="url(#clip450)" d="M1249.55 1538.54 L1255.4 1538.54 L1255.4 1574.19 L1249.55 1574.19 L1249.55 1538.54 M1249.55 1524.66 L1255.4 1524.66 L1255.4 1532.08 L1249.55 1532.08 L1249.55 1524.66 Z" fill="#000000" fill-rule="nonzero" fill-opacity="1" /><path clip-path="url(#clip450)" d="M1281.47 1542.64 Q1276.76 1542.64 1274.02 1546.34 Q1271.29 1550 1271.29 1556.39 Q1271.29 1562.79 1273.99 1566.48 Q1276.73 1570.14 1281.47 1570.14 Q1286.15 1570.14 1288.89 1566.45 Q1291.63 1562.76 1291.63 1556.39 Q1291.63 1550.06 1288.89 1546.37 Q1286.15 1542.64 1281.47 1542.64 M1281.47 1537.68 Q1289.11 1537.68 1293.47 1542.64 Q1297.83 1547.61 1297.83 1556.39 Q1297.83 1565.15 1293.47 1570.14 Q1289.11 1575.11 1281.47 1575.11 Q1273.8 1575.11 1269.44 1570.14 Q1265.11 1565.15 1265.11 1556.39 Q1265.11 1547.61 1269.44 1542.64 Q1273.8 1537.68 1281.47 1537.68 Z" fill="#000000" fill-rule="nonzero" fill-opacity="1" /><path clip-path="url(#clip450)" d="M1337.17 1552.67 L1337.17 1574.19 L1331.32 1574.19 L1331.32 1552.86 Q1331.32 1547.8 1329.34 1545.29 Q1327.37 1542.77 1323.42 1542.77 Q1318.68 1542.77 1315.94 1545.79 Q1313.21 1548.82 1313.21 1554.04 L1313.21 1574.19 L1307.32 1574.19 L1307.32 1538.54 L1313.21 1538.54 L1313.21 1544.08 Q1315.31 1540.86 1318.14 1539.27 Q1321 1537.68 1324.73 1537.68 Q1330.87 1537.68 1334.02 1541.5 Q1337.17 1545.29 1337.17 1552.67 Z" fill="#000000" fill-rule="nonzero" fill-opacity="1" /><path clip-path="url(#clip450)" d="M1375.37 1528.42 L1375.37 1538.54 L1387.43 1538.54 L1387.43 1543.09 L1375.37 1543.09 L1375.37 1562.44 Q1375.37 1566.8 1376.54 1568.04 Q1377.75 1569.28 1381.41 1569.28 L1387.43 1569.28 L1387.43 1574.19 L1381.41 1574.19 Q1374.63 1574.19 1372.06 1571.67 Q1369.48 1569.12 1369.48 1562.44 L1369.48 1543.09 L1365.18 1543.09 L1365.18 1538.54 L1369.48 1538.54 L1369.48 1528.42 L1375.37 1528.42 Z" fill="#000000" fill-rule="nonzero" fill-opacity="1" /><path clip-path="url(#clip450)" d="M1395.13 1538.54 L1400.99 1538.54 L1400.99 1574.19 L1395.13 1574.19 L1395.13 1538.54 M1395.13 1524.66 L1400.99 1524.66 L1400.99 1532.08 L1395.13 1532.08 L1395.13 1524.66 Z" fill="#000000" fill-rule="nonzero" fill-opacity="1" /><path clip-path="url(#clip450)" d="M1441 1545.38 Q1443.19 1541.43 1446.25 1539.56 Q1449.3 1537.68 1453.44 1537.68 Q1459.01 1537.68 1462.04 1541.59 Q1465.06 1545.48 1465.06 1552.67 L1465.06 1574.19 L1459.17 1574.19 L1459.17 1552.86 Q1459.17 1547.74 1457.36 1545.25 Q1455.54 1542.77 1451.82 1542.77 Q1447.27 1542.77 1444.63 1545.79 Q1441.98 1548.82 1441.98 1554.04 L1441.98 1574.19 L1436.1 1574.19 L1436.1 1552.86 Q1436.1 1547.7 1434.28 1545.25 Q1432.47 1542.77 1428.68 1542.77 Q1424.19 1542.77 1421.55 1545.83 Q1418.91 1548.85 1418.91 1554.04 L1418.91 1574.19 L1413.02 1574.19 L1413.02 1538.54 L1418.91 1538.54 L1418.91 1544.08 Q1420.91 1540.8 1423.71 1539.24 Q1426.51 1537.68 1430.37 1537.68 Q1434.25 1537.68 1436.95 1539.65 Q1439.69 1541.62 1441 1545.38 Z" fill="#000000" fill-rule="nonzero" fill-opacity="1" /><path clip-path="url(#clip450)" d="M1507.23 1554.9 L1507.23 1557.76 L1480.3 1557.76 Q1480.69 1563.81 1483.93 1566.99 Q1487.21 1570.14 1493.04 1570.14 Q1496.41 1570.14 1499.56 1569.32 Q1502.74 1568.49 1505.86 1566.83 L1505.86 1572.37 Q1502.71 1573.71 1499.4 1574.41 Q1496.09 1575.11 1492.69 1575.11 Q1484.16 1575.11 1479.16 1570.14 Q1474.19 1565.18 1474.19 1556.71 Q1474.19 1547.96 1478.9 1542.83 Q1483.65 1537.68 1491.67 1537.68 Q1498.86 1537.68 1503.03 1542.33 Q1507.23 1546.94 1507.23 1554.9 M1501.38 1553.18 Q1501.31 1548.37 1498.67 1545.51 Q1496.06 1542.64 1491.73 1542.64 Q1486.83 1542.64 1483.87 1545.41 Q1480.94 1548.18 1480.5 1553.21 L1501.38 1553.18 Z" fill="#000000" fill-rule="nonzero" fill-opacity="1" /><path clip-path="url(#clip450)" d="M1551.63 1524.72 Q1547.37 1532.04 1545.3 1539.21 Q1543.23 1546.37 1543.23 1553.72 Q1543.23 1561.07 1545.3 1568.3 Q1547.4 1575.49 1551.63 1582.78 L1546.54 1582.78 Q1541.77 1575.3 1539.38 1568.07 Q1537.02 1560.85 1537.02 1553.72 Q1537.02 1546.62 1539.38 1539.43 Q1541.73 1532.24 1546.54 1524.72 L1551.63 1524.72 Z" fill="#000000" fill-rule="nonzero" fill-opacity="1" /><path clip-path="url(#clip450)" d="M1585.72 1539.59 L1585.72 1545.13 Q1583.24 1543.85 1580.56 1543.22 Q1577.89 1542.58 1575.03 1542.58 Q1570.67 1542.58 1568.47 1543.92 Q1566.31 1545.25 1566.31 1547.93 Q1566.31 1549.96 1567.87 1551.14 Q1569.42 1552.29 1574.14 1553.34 L1576.14 1553.78 Q1582.38 1555.12 1584.99 1557.57 Q1587.63 1559.99 1587.63 1564.35 Q1587.63 1569.32 1583.68 1572.21 Q1579.77 1575.11 1572.89 1575.11 Q1570.03 1575.11 1566.91 1574.54 Q1563.82 1573.99 1560.39 1572.88 L1560.39 1566.83 Q1563.63 1568.52 1566.78 1569.38 Q1569.93 1570.21 1573.02 1570.21 Q1577.16 1570.21 1579.39 1568.81 Q1581.62 1567.37 1581.62 1564.8 Q1581.62 1562.41 1579.99 1561.14 Q1578.4 1559.86 1572.96 1558.68 L1570.92 1558.21 Q1565.48 1557.06 1563.06 1554.71 Q1560.64 1552.32 1560.64 1548.18 Q1560.64 1543.15 1564.21 1540.42 Q1567.77 1537.68 1574.33 1537.68 Q1577.57 1537.68 1580.44 1538.16 Q1583.3 1538.63 1585.72 1539.59 Z" fill="#000000" fill-rule="nonzero" fill-opacity="1" /><path clip-path="url(#clip450)" d="M1596.03 1524.72 L1601.13 1524.72 Q1605.9 1532.24 1608.26 1539.43 Q1610.64 1546.62 1610.64 1553.72 Q1610.64 1560.85 1608.26 1568.07 Q1605.9 1575.3 1601.13 1582.78 L1596.03 1582.78 Q1600.27 1575.49 1602.34 1568.3 Q1604.44 1561.07 1604.44 1553.72 Q1604.44 1546.37 1602.34 1539.21 Q1600.27 1532.04 1596.03 1524.72 Z" fill="#000000" fill-rule="nonzero" fill-opacity="1" /><polyline clip-path="url(#clip452)" style="stroke:#000000; stroke-linecap:round; stroke-linejoin:round; stroke-width:2; stroke-opacity:0.1; fill:none" points="257.677,1034.22 2352.76,1034.22 "/>
<polyline clip-path="url(#clip452)" style="stroke:#000000; stroke-linecap:round; stroke-linejoin:round; stroke-width:2; stroke-opacity:0.1; fill:none" points="257.677,387.167 2352.76,387.167 "/>
<polyline clip-path="url(#clip450)" style="stroke:#000000; stroke-linecap:round; stroke-linejoin:round; stroke-width:4; stroke-opacity:1; fill:none" points="257.677,1410.9 257.677,47.2441 "/>
<polyline clip-path="url(#clip450)" style="stroke:#000000; stroke-linecap:round; stroke-linejoin:round; stroke-width:4; stroke-opacity:1; fill:none" points="257.677,1034.22 276.574,1034.22 "/>
<polyline clip-path="url(#clip450)" style="stroke:#000000; stroke-linecap:round; stroke-linejoin:round; stroke-width:4; stroke-opacity:1; fill:none" points="257.677,387.167 276.574,387.167 "/>
<path clip-path="url(#clip450)" d="M120.107 1054.01 L127.746 1054.01 L127.746 1027.65 L119.436 1029.31 L119.436 1025.05 L127.7 1023.39 L132.376 1023.39 L132.376 1054.01 L140.015 1054.01 L140.015 1057.95 L120.107 1057.95 L120.107 1054.01 Z" fill="#000000" fill-rule="nonzero" fill-opacity="1" /><path clip-path="url(#clip450)" d="M159.459 1026.46 Q155.848 1026.46 154.019 1030.03 Q152.214 1033.57 152.214 1040.7 Q152.214 1047.81 154.019 1051.37 Q155.848 1054.91 159.459 1054.91 Q163.093 1054.91 164.899 1051.37 Q166.727 1047.81 166.727 1040.7 Q166.727 1033.57 164.899 1030.03 Q163.093 1026.46 159.459 1026.46 M159.459 1022.76 Q165.269 1022.76 168.325 1027.37 Q171.403 1031.95 171.403 1040.7 Q171.403 1049.43 168.325 1054.03 Q165.269 1058.62 159.459 1058.62 Q153.649 1058.62 150.57 1054.03 Q147.515 1049.43 147.515 1040.7 Q147.515 1031.95 150.57 1027.37 Q153.649 1022.76 159.459 1022.76 Z" fill="#000000" fill-rule="nonzero" fill-opacity="1" /><path clip-path="url(#clip450)" d="M171.403 1016.86 L195.515 1016.86 L195.515 1020.06 L171.403 1020.06 L171.403 1016.86 Z" fill="#000000" fill-rule="nonzero" fill-opacity="1" /><path clip-path="url(#clip450)" d="M212.31 1014.98 Q209.752 1014.98 208.248 1016.73 Q206.762 1018.48 206.762 1021.53 Q206.762 1024.55 208.248 1026.32 Q209.752 1028.07 212.31 1028.07 Q214.868 1028.07 216.354 1026.32 Q217.859 1024.55 217.859 1021.53 Q217.859 1018.48 216.354 1016.73 Q214.868 1014.98 212.31 1014.98 M219.852 1003.08 L219.852 1006.54 Q218.423 1005.86 216.956 1005.5 Q215.508 1005.15 214.078 1005.15 Q210.317 1005.15 208.323 1007.68 Q206.348 1010.22 206.066 1015.36 Q207.176 1013.72 208.85 1012.86 Q210.524 1011.97 212.536 1011.97 Q216.768 1011.97 219.213 1014.55 Q221.677 1017.11 221.677 1021.53 Q221.677 1025.85 219.119 1028.47 Q216.561 1031.08 212.31 1031.08 Q207.439 1031.08 204.862 1027.36 Q202.286 1023.61 202.286 1016.52 Q202.286 1009.87 205.445 1005.92 Q208.605 1001.95 213.928 1001.95 Q215.357 1001.95 216.805 1002.23 Q218.272 1002.51 219.852 1003.08 Z" fill="#000000" fill-rule="nonzero" fill-opacity="1" /><path clip-path="url(#clip450)" d="M119.844 406.959 L127.483 406.959 L127.483 380.593 L119.173 382.26 L119.173 378.001 L127.437 376.334 L132.113 376.334 L132.113 406.959 L139.751 406.959 L139.751 410.894 L119.844 410.894 L119.844 406.959 Z" fill="#000000" fill-rule="nonzero" fill-opacity="1" /><path clip-path="url(#clip450)" d="M159.196 379.413 Q155.585 379.413 153.756 382.978 Q151.95 386.519 151.95 393.649 Q151.95 400.755 153.756 404.32 Q155.585 407.862 159.196 407.862 Q162.83 407.862 164.635 404.32 Q166.464 400.755 166.464 393.649 Q166.464 386.519 164.635 382.978 Q162.83 379.413 159.196 379.413 M159.196 375.709 Q165.006 375.709 168.061 380.316 Q171.14 384.899 171.14 393.649 Q171.14 402.376 168.061 406.982 Q165.006 411.566 159.196 411.566 Q153.386 411.566 150.307 406.982 Q147.251 402.376 147.251 393.649 Q147.251 384.899 150.307 380.316 Q153.386 375.709 159.196 375.709 Z" fill="#000000" fill-rule="nonzero" fill-opacity="1" /><path clip-path="url(#clip450)" d="M171.14 369.811 L195.252 369.811 L195.252 373.008 L171.14 373.008 L171.14 369.811 Z" fill="#000000" fill-rule="nonzero" fill-opacity="1" /><path clip-path="url(#clip450)" d="M213.89 358.714 L204.298 373.704 L213.89 373.704 L213.89 358.714 M212.893 355.404 L217.67 355.404 L217.67 373.704 L221.677 373.704 L221.677 376.864 L217.67 376.864 L217.67 383.484 L213.89 383.484 L213.89 376.864 L201.214 376.864 L201.214 373.196 L212.893 355.404 Z" fill="#000000" fill-rule="nonzero" fill-opacity="1" /><path clip-path="url(#clip450)" d="M49.8515 1085.26 L73.5001 1093.98 L73.5001 1076.5 L49.8515 1085.26 M43.5177 1088.89 L43.5177 1081.6 L91.0377 1063.49 L91.0377 1070.17 L78.8473 1074.5 L78.8473 1095.92 L91.0377 1100.25 L91.0377 1107.03 L43.5177 1088.89 Z" fill="#000000" fill-rule="nonzero" fill-opacity="1" /><path clip-path="url(#clip450)" d="M73.2455 1031.21 Q66.7843 1031.21 63.124 1033.89 Q59.4319 1036.53 59.4319 1041.17 Q59.4319 1045.82 63.124 1048.49 Q66.7843 1051.14 73.2455 1051.14 Q79.7067 1051.14 83.3988 1048.49 Q87.0591 1045.82 87.0591 1041.17 Q87.0591 1036.53 83.3988 1033.89 Q79.7067 1031.21 73.2455 1031.21 M60.8005 1051.14 Q57.6177 1049.29 56.0899 1046.49 Q54.5303 1043.66 54.5303 1039.74 Q54.5303 1033.25 59.6865 1029.21 Q64.8428 1025.13 73.2455 1025.13 Q81.6482 1025.13 86.8045 1029.21 Q91.9607 1033.25 91.9607 1039.74 Q91.9607 1043.66 90.4329 1046.49 Q88.8733 1049.29 85.6905 1051.14 L91.0377 1051.14 L91.0377 1057.02 L41.5125 1057.02 L41.5125 1051.14 L60.8005 1051.14 Z" fill="#000000" fill-rule="nonzero" fill-opacity="1" /><path clip-path="url(#clip450)" d="M56.44 992.699 L61.9782 992.699 Q60.7051 995.182 60.0685 997.856 Q59.4319 1000.53 59.4319 1003.39 Q59.4319 1007.75 60.7687 1009.95 Q62.1055 1012.11 64.7791 1012.11 Q66.8161 1012.11 67.9938 1010.56 Q69.1396 1009 70.19 1004.29 L70.6356 1002.28 Q71.9724 996.041 74.4232 993.432 Q76.8421 990.79 81.2026 990.79 Q86.1679 990.79 89.0643 994.736 Q91.9607 998.651 91.9607 1005.53 Q91.9607 1008.39 91.3878 1011.51 Q90.8467 1014.6 89.7327 1018.03 L83.6853 1018.03 Q85.3722 1014.79 86.2315 1011.64 Q87.0591 1008.49 87.0591 1005.4 Q87.0591 1001.26 85.6586 999.033 Q84.2263 996.805 81.6482 996.805 Q79.2611 996.805 77.988 998.429 Q76.7148 1000.02 75.5372 1005.46 L75.0597 1007.5 Q73.9139 1012.94 71.5586 1015.36 Q69.1714 1017.78 65.0337 1017.78 Q60.0048 1017.78 57.2676 1014.22 Q54.5303 1010.65 54.5303 1004.09 Q54.5303 1000.85 55.0078 997.983 Q55.4852 995.118 56.44 992.699 Z" fill="#000000" fill-rule="nonzero" fill-opacity="1" /><path clip-path="url(#clip450)" d="M62.2328 932.989 Q58.2861 930.793 56.4082 927.737 Q54.5303 924.682 54.5303 920.544 Q54.5303 914.974 58.4452 911.95 Q62.3283 908.927 69.5216 908.927 L91.0377 908.927 L91.0377 914.815 L69.7125 914.815 Q64.5881 914.815 62.1055 916.629 Q59.6229 918.443 59.6229 922.167 Q59.6229 926.719 62.6466 929.361 Q65.6703 932.002 70.8902 932.002 L91.0377 932.002 L91.0377 937.891 L69.7125 937.891 Q64.5563 937.891 62.1055 939.705 Q59.6229 941.519 59.6229 945.307 Q59.6229 949.795 62.6784 952.436 Q65.7021 955.078 70.8902 955.078 L91.0377 955.078 L91.0377 960.966 L55.3897 960.966 L55.3897 955.078 L60.9279 955.078 Q57.6495 953.073 56.0899 950.272 Q54.5303 947.471 54.5303 943.62 Q54.5303 939.737 56.5037 937.031 Q58.4771 934.294 62.2328 932.989 Z" fill="#000000" fill-rule="nonzero" fill-opacity="1" /><path clip-path="url(#clip450)" d="M73.1182 881.045 Q73.1182 888.143 74.7414 890.88 Q76.3647 893.617 80.2796 893.617 Q83.3988 893.617 85.2449 891.58 Q87.0591 889.511 87.0591 885.978 Q87.0591 881.109 83.6216 878.18 Q80.1523 875.22 74.4232 875.22 L73.1182 875.22 L73.1182 881.045 M70.6992 869.364 L91.0377 869.364 L91.0377 875.22 L85.6268 875.22 Q88.8733 877.226 90.4329 880.217 Q91.9607 883.209 91.9607 887.538 Q91.9607 893.013 88.9051 896.259 Q85.8178 899.474 80.6616 899.474 Q74.646 899.474 71.5904 895.463 Q68.5349 891.421 68.5349 883.432 L68.5349 875.22 L67.962 875.22 Q63.9197 875.22 61.7236 877.894 Q59.4956 880.536 59.4956 885.342 Q59.4956 888.397 60.2276 891.294 Q60.9597 894.19 62.4238 896.864 L57.013 896.864 Q55.7716 893.649 55.1669 890.625 Q54.5303 887.602 54.5303 884.737 Q54.5303 877.003 58.5407 873.183 Q62.5511 869.364 70.6992 869.364 Z" fill="#000000" fill-rule="nonzero" fill-opacity="1" /><path clip-path="url(#clip450)" d="M55.3897 827.669 L72.7362 840.559 L91.0377 827 L91.0377 833.907 L77.0331 844.283 L91.0377 854.659 L91.0377 861.566 L72.3861 847.72 L55.3897 860.388 L55.3897 853.481 L68.0893 844.028 L55.3897 834.575 L55.3897 827.669 Z" fill="#000000" fill-rule="nonzero" fill-opacity="1" /><path clip-path="url(#clip450)" d="M71.7496 767.513 L74.6141 767.513 L74.6141 794.44 Q80.6616 794.058 83.8444 790.811 Q86.9954 787.533 86.9954 781.708 Q86.9954 778.334 86.1679 775.183 Q85.3403 772 83.6853 768.881 L89.2234 768.881 Q90.5602 772.032 91.2605 775.342 Q91.9607 778.653 91.9607 782.058 Q91.9607 790.588 86.9954 795.585 Q82.0302 800.551 73.5638 800.551 Q64.8109 800.551 59.6865 795.84 Q54.5303 791.098 54.5303 783.077 Q54.5303 775.883 59.1773 771.714 Q63.7924 767.513 71.7496 767.513 M70.0308 773.369 Q65.2247 773.433 62.3601 776.074 Q59.4956 778.684 59.4956 783.013 Q59.4956 787.915 62.2647 790.875 Q65.0337 793.803 70.0626 794.249 L70.0308 773.369 Z" fill="#000000" fill-rule="nonzero" fill-opacity="1" /><path clip-path="url(#clip450)" d="M60.8642 737.244 Q60.2913 738.23 60.0367 739.408 Q59.7502 740.554 59.7502 741.954 Q59.7502 746.92 62.9967 749.593 Q66.2114 752.235 72.2588 752.235 L91.0377 752.235 L91.0377 758.123 L55.3897 758.123 L55.3897 752.235 L60.9279 752.235 Q57.6813 750.389 56.1218 747.429 Q54.5303 744.469 54.5303 740.236 Q54.5303 739.631 54.6258 738.899 Q54.6895 738.167 54.8486 737.275 L60.8642 737.244 Z" fill="#000000" fill-rule="nonzero" fill-opacity="1" /><path clip-path="url(#clip450)" d="M60.8642 711.59 Q60.2913 712.577 60.0367 713.754 Q59.7502 714.9 59.7502 716.3 Q59.7502 721.266 62.9967 723.939 Q66.2114 726.581 72.2588 726.581 L91.0377 726.581 L91.0377 732.469 L55.3897 732.469 L55.3897 726.581 L60.9279 726.581 Q57.6813 724.735 56.1218 721.775 Q54.5303 718.815 54.5303 714.582 Q54.5303 713.977 54.6258 713.245 Q54.6895 712.513 54.8486 711.622 L60.8642 711.59 Z" fill="#000000" fill-rule="nonzero" fill-opacity="1" /><path clip-path="url(#clip450)" d="M59.4956 693.066 Q59.4956 697.776 63.1877 700.514 Q66.848 703.251 73.2455 703.251 Q79.643 703.251 83.3351 700.545 Q86.9954 697.808 86.9954 693.066 Q86.9954 688.387 83.3033 685.65 Q79.6112 682.912 73.2455 682.912 Q66.9116 682.912 63.2195 685.65 Q59.4956 688.387 59.4956 693.066 M54.5303 693.066 Q54.5303 685.427 59.4956 681.066 Q64.4608 676.706 73.2455 676.706 Q81.9983 676.706 86.9954 681.066 Q91.9607 685.427 91.9607 693.066 Q91.9607 700.736 86.9954 705.097 Q81.9983 709.426 73.2455 709.426 Q64.4608 709.426 59.4956 705.097 Q54.5303 700.736 54.5303 693.066 Z" fill="#000000" fill-rule="nonzero" fill-opacity="1" /><path clip-path="url(#clip450)" d="M60.8642 646.341 Q60.2913 647.328 60.0367 648.506 Q59.7502 649.652 59.7502 651.052 Q59.7502 656.017 62.9967 658.691 Q66.2114 661.333 72.2588 661.333 L91.0377 661.333 L91.0377 667.221 L55.3897 667.221 L55.3897 661.333 L60.9279 661.333 Q57.6813 659.487 56.1218 656.526 Q54.5303 653.566 54.5303 649.333 Q54.5303 648.729 54.6258 647.996 Q54.6895 647.264 54.8486 646.373 L60.8642 646.341 Z" fill="#000000" fill-rule="nonzero" fill-opacity="1" /><path clip-path="url(#clip450)" d="M41.5761 605.41 Q48.8967 609.675 56.0581 611.744 Q63.2195 613.813 70.5719 613.813 Q77.9243 613.813 85.1494 611.744 Q92.3426 609.643 99.6314 605.41 L99.6314 610.502 Q92.1517 615.277 84.9266 617.664 Q77.7015 620.019 70.5719 620.019 Q63.4741 620.019 56.2809 617.664 Q49.0876 615.309 41.5761 610.502 L41.5761 605.41 Z" fill="#000000" fill-rule="nonzero" fill-opacity="1" /><path clip-path="url(#clip450)" d="M62.2328 566.293 Q58.2861 564.096 56.4082 561.041 Q54.5303 557.985 54.5303 553.848 Q54.5303 548.278 58.4452 545.254 Q62.3283 542.23 69.5216 542.23 L91.0377 542.23 L91.0377 548.119 L69.7125 548.119 Q64.5881 548.119 62.1055 549.933 Q59.6229 551.747 59.6229 555.471 Q59.6229 560.022 62.6466 562.664 Q65.6703 565.306 70.8902 565.306 L91.0377 565.306 L91.0377 571.194 L69.7125 571.194 Q64.5563 571.194 62.1055 573.008 Q59.6229 574.823 59.6229 578.61 Q59.6229 583.098 62.6784 585.74 Q65.7021 588.382 70.8902 588.382 L91.0377 588.382 L91.0377 594.27 L55.3897 594.27 L55.3897 588.382 L60.9279 588.382 Q57.6495 586.376 56.0899 583.576 Q54.5303 580.775 54.5303 576.923 Q54.5303 573.04 56.5037 570.335 Q58.4771 567.598 62.2328 566.293 Z" fill="#000000" fill-rule="nonzero" fill-opacity="1" /><path clip-path="url(#clip450)" d="M59.4956 516.736 Q59.4956 521.446 63.1877 524.183 Q66.848 526.921 73.2455 526.921 Q79.643 526.921 83.3351 524.215 Q86.9954 521.478 86.9954 516.736 Q86.9954 512.057 83.3033 509.32 Q79.6112 506.582 73.2455 506.582 Q66.9116 506.582 63.2195 509.32 Q59.4956 512.057 59.4956 516.736 M54.5303 516.736 Q54.5303 509.097 59.4956 504.736 Q64.4608 500.376 73.2455 500.376 Q81.9983 500.376 86.9954 504.736 Q91.9607 509.097 91.9607 516.736 Q91.9607 524.406 86.9954 528.767 Q81.9983 533.095 73.2455 533.095 Q64.4608 533.095 59.4956 528.767 Q54.5303 524.406 54.5303 516.736 Z" fill="#000000" fill-rule="nonzero" fill-opacity="1" /><path clip-path="url(#clip450)" d="M41.5125 490.668 L41.5125 484.812 L91.0377 484.812 L91.0377 490.668 L41.5125 490.668 Z" fill="#000000" fill-rule="nonzero" fill-opacity="1" /><path clip-path="url(#clip450)" d="M43.5177 462.15 L43.5177 456.739 L97.0851 473.29 L97.0851 478.7 L43.5177 462.15 Z" fill="#000000" fill-rule="nonzero" fill-opacity="1" /><path clip-path="url(#clip450)" d="M62.2328 422.841 Q58.2861 420.645 56.4082 417.59 Q54.5303 414.534 54.5303 410.396 Q54.5303 404.826 58.4452 401.803 Q62.3283 398.779 69.5216 398.779 L91.0377 398.779 L91.0377 404.667 L69.7125 404.667 Q64.5881 404.667 62.1055 406.482 Q59.6229 408.296 59.6229 412.02 Q59.6229 416.571 62.6466 419.213 Q65.6703 421.855 70.8902 421.855 L91.0377 421.855 L91.0377 427.743 L69.7125 427.743 Q64.5563 427.743 62.1055 429.557 Q59.6229 431.371 59.6229 435.159 Q59.6229 439.647 62.6784 442.289 Q65.7021 444.93 70.8902 444.93 L91.0377 444.93 L91.0377 450.819 L55.3897 450.819 L55.3897 444.93 L60.9279 444.93 Q57.6495 442.925 56.0899 440.124 Q54.5303 437.323 54.5303 433.472 Q54.5303 429.589 56.5037 426.884 Q58.4771 424.146 62.2328 422.841 Z" fill="#000000" fill-rule="nonzero" fill-opacity="1" /><path clip-path="url(#clip450)" d="M36.6275 391.739 Q35.2523 391.739 34.5985 390.95 Q33.9448 390.161 33.9448 389.146 Q33.9448 388.087 34.6436 387.343 Q35.32 386.576 36.5148 386.576 Q37.7998 386.576 38.5212 387.478 Q39.2426 388.357 39.0623 389.62 Q40.9109 388.515 41.745 386.486 Q42.5792 384.435 42.5792 382.541 Q42.5792 380.557 40.8658 378.957 Q39.1525 377.333 34.9592 377.333 Q31.3973 377.333 29.3458 378.731 Q27.2943 380.106 27.2943 382.834 L27.2943 384.863 Q27.2943 385.562 27.2266 385.765 Q27.159 385.968 26.7757 385.968 Q26.3249 385.968 26.2347 385.269 Q26.2347 384.57 26.0994 383.465 Q26.0092 380.783 23.6872 379.362 Q21.523 378.077 18.4344 378.077 Q15.6164 378.077 14.4441 379.43 Q13.2493 380.76 13.2493 382.496 Q13.2493 384.119 13.9256 385.9 Q14.6019 387.681 16.1124 388.65 Q16.1124 385.787 18.4344 385.787 Q19.4489 385.787 20.1252 386.441 Q20.779 387.072 20.779 388.132 Q20.779 389.146 20.1478 389.823 Q19.494 390.499 18.3893 390.499 Q15.7517 390.499 13.9256 388.155 Q12.0995 385.787 12.0995 382.316 Q12.0995 378.889 13.9031 376.364 Q15.7066 373.816 18.4795 373.816 Q21.2073 373.816 23.4392 375.62 Q25.6711 377.424 26.5954 380.287 Q27.2943 376.77 29.6839 374.673 Q32.0511 372.577 34.9592 372.577 Q38.5663 372.577 41.2265 375.417 Q43.8642 378.258 43.8642 382.406 Q43.8642 386.238 41.7901 388.989 Q39.7161 391.739 36.6275 391.739 Z" fill="#000000" fill-rule="nonzero" fill-opacity="1" /><path clip-path="url(#clip450)" d="M41.5761 365.722 L41.5761 360.63 Q49.0876 355.856 56.2809 353.5 Q63.4741 351.113 70.5719 351.113 Q77.7015 351.113 84.9266 353.5 Q92.1517 355.856 99.6314 360.63 L99.6314 365.722 Q92.3426 361.489 85.1494 359.42 Q77.9243 357.32 70.5719 357.32 Q63.2195 357.32 56.0581 359.42 Q48.8967 361.489 41.5761 365.722 Z" fill="#000000" fill-rule="nonzero" fill-opacity="1" /><polyline clip-path="url(#clip452)" style="stroke:#008000; stroke-linecap:round; stroke-linejoin:round; stroke-width:4; stroke-opacity:1; fill:none" stroke-dasharray="2, 4" points="788.629,85.8384 1247.23,422.724 1730.87,882.093 2281.55,1372.3 "/>
<path clip-path="url(#clip452)" d="M788.629 105.838 L771.309 95.8384 L771.309 75.8384 L788.629 65.8384 L805.949 75.8384 L805.949 95.8384 Z" fill="#008000" fill-rule="evenodd" fill-opacity="1" stroke="#000000" stroke-opacity="1" stroke-width="3.2"/>
<path clip-path="url(#clip452)" d="M1247.23 442.724 L1229.91 432.724 L1229.91 412.724 L1247.23 402.724 L1264.55 412.724 L1264.55 432.724 Z" fill="#008000" fill-rule="evenodd" fill-opacity="1" stroke="#000000" stroke-opacity="1" stroke-width="3.2"/>
<path clip-path="url(#clip452)" d="M1730.87 902.093 L1713.55 892.093 L1713.55 872.093 L1730.87 862.093 L1748.19 872.093 L1748.19 892.093 Z" fill="#008000" fill-rule="evenodd" fill-opacity="1" stroke="#000000" stroke-opacity="1" stroke-width="3.2"/>
<path clip-path="url(#clip452)" d="M2281.55 1392.3 L2264.23 1382.3 L2264.23 1362.3 L2281.55 1352.3 L2298.87 1362.3 L2298.87 1382.3 Z" fill="#008000" fill-rule="evenodd" fill-opacity="1" stroke="#000000" stroke-opacity="1" stroke-width="3.2"/>
<polyline clip-path="url(#clip452)" style="stroke:#a92a00; stroke-linecap:round; stroke-linejoin:round; stroke-width:4; stroke-opacity:1; fill:none" stroke-dasharray="2, 4" points="708.194,85.8384 1269.44,422.724 1823.54,882.093 2293.46,1372.3 "/>
<path clip-path="url(#clip452)" d="M708.194 105.838 L690.874 95.8384 L690.874 75.8384 L708.194 65.8384 L725.514 75.8384 L725.514 95.8384 Z" fill="#a92a00" fill-rule="evenodd" fill-opacity="1" stroke="#000000" stroke-opacity="1" stroke-width="3.2"/>
<path clip-path="url(#clip452)" d="M1269.44 442.724 L1252.12 432.724 L1252.12 412.724 L1269.44 402.724 L1286.76 412.724 L1286.76 432.724 Z" fill="#a92a00" fill-rule="evenodd" fill-opacity="1" stroke="#000000" stroke-opacity="1" stroke-width="3.2"/>
<path clip-path="url(#clip452)" d="M1823.54 902.093 L1806.22 892.093 L1806.22 872.093 L1823.54 862.093 L1840.86 872.093 L1840.86 892.093 Z" fill="#a92a00" fill-rule="evenodd" fill-opacity="1" stroke="#000000" stroke-opacity="1" stroke-width="3.2"/>
<path clip-path="url(#clip452)" d="M2293.46 1392.3 L2276.14 1382.3 L2276.14 1362.3 L2293.46 1352.3 L2310.78 1362.3 L2310.78 1382.3 Z" fill="#a92a00" fill-rule="evenodd" fill-opacity="1" stroke="#000000" stroke-opacity="1" stroke-width="3.2"/>
<polyline clip-path="url(#clip452)" style="stroke:#800080; stroke-linecap:round; stroke-linejoin:round; stroke-width:4; stroke-opacity:1; fill:none" stroke-dasharray="2, 4" points="316.971,85.838 881.637,422.722 1410.78,882.054 1960.07,1338.26 "/>
<path clip-path="url(#clip452)" d="M316.971 65.838 L296.971 85.838 L316.971 105.838 L336.971 85.838 L316.971 65.838 Z" fill="#800080" fill-rule="evenodd" fill-opacity="1" stroke="#000000" stroke-opacity="1" stroke-width="3.2"/>
<path clip-path="url(#clip452)" d="M881.637 402.722 L861.637 422.722 L881.637 442.722 L901.637 422.722 L881.637 402.722 Z" fill="#800080" fill-rule="evenodd" fill-opacity="1" stroke="#000000" stroke-opacity="1" stroke-width="3.2"/>
<path clip-path="url(#clip452)" d="M1410.78 862.054 L1390.78 882.054 L1410.78 902.054 L1430.78 882.054 L1410.78 862.054 Z" fill="#800080" fill-rule="evenodd" fill-opacity="1" stroke="#000000" stroke-opacity="1" stroke-width="3.2"/>
<path clip-path="url(#clip452)" d="M1960.07 1318.26 L1940.07 1338.26 L1960.07 1358.26 L1980.07 1338.26 L1960.07 1318.26 Z" fill="#800080" fill-rule="evenodd" fill-opacity="1" stroke="#000000" stroke-opacity="1" stroke-width="3.2"/>
<polyline clip-path="url(#clip452)" style="stroke:#805580; stroke-linecap:round; stroke-linejoin:round; stroke-width:4; stroke-opacity:1; fill:none" stroke-dasharray="2, 4" points="426.048,85.838 936.361,422.722 1491.75,882.054 2015.19,1338.26 "/>
<path clip-path="url(#clip452)" d="M426.048 65.838 L406.048 85.838 L426.048 105.838 L446.048 85.838 L426.048 65.838 Z" fill="#805580" fill-rule="evenodd" fill-opacity="1" stroke="#000000" stroke-opacity="1" stroke-width="3.2"/>
<path clip-path="url(#clip452)" d="M936.361 402.722 L916.361 422.722 L936.361 442.722 L956.361 422.722 L936.361 402.722 Z" fill="#805580" fill-rule="evenodd" fill-opacity="1" stroke="#000000" stroke-opacity="1" stroke-width="3.2"/>
<path clip-path="url(#clip452)" d="M1491.75 862.054 L1471.75 882.054 L1491.75 902.054 L1511.75 882.054 L1491.75 862.054 Z" fill="#805580" fill-rule="evenodd" fill-opacity="1" stroke="#000000" stroke-opacity="1" stroke-width="3.2"/>
<path clip-path="url(#clip452)" d="M2015.19 1318.26 L1995.19 1338.26 L2015.19 1358.26 L2035.19 1338.26 L2015.19 1318.26 Z" fill="#805580" fill-rule="evenodd" fill-opacity="1" stroke="#000000" stroke-opacity="1" stroke-width="3.2"/>
<polyline clip-path="url(#clip452)" style="stroke:#0000ff; stroke-linecap:round; stroke-linejoin:round; stroke-width:4; stroke-opacity:1; fill:none" stroke-dasharray="2, 4" points="378.534,85.838 893.976,422.722 1440.21,882.054 1981.68,1335.71 "/>
<path clip-path="url(#clip452)" d="M378.534 65.838 L373.834 79.358 L359.514 79.658 L370.934 88.318 L366.774 102.018 L378.534 93.838 L390.294 102.018 L386.134 88.318 L397.554 79.658 L383.234 79.358 L378.534 65.838 Z" fill="#0000ff" fill-rule="evenodd" fill-opacity="1" stroke="#000000" stroke-opacity="1" stroke-width="3.2"/>
<path clip-path="url(#clip452)" d="M893.976 402.722 L889.276 416.242 L874.956 416.542 L886.376 425.202 L882.216 438.902 L893.976 430.722 L905.736 438.902 L901.576 425.202 L912.996 416.542 L898.676 416.242 L893.976 402.722 Z" fill="#0000ff" fill-rule="evenodd" fill-opacity="1" stroke="#000000" stroke-opacity="1" stroke-width="3.2"/>
<path clip-path="url(#clip452)" d="M1440.21 862.054 L1435.51 875.574 L1421.19 875.874 L1432.61 884.534 L1428.45 898.234 L1440.21 890.054 L1451.97 898.234 L1447.81 884.534 L1459.23 875.874 L1444.91 875.574 L1440.21 862.054 Z" fill="#0000ff" fill-rule="evenodd" fill-opacity="1" stroke="#000000" stroke-opacity="1" stroke-width="3.2"/>
<path clip-path="url(#clip452)" d="M1981.68 1315.71 L1976.98 1329.23 L1962.66 1329.53 L1974.08 1338.19 L1969.92 1351.89 L1981.68 1343.71 L1993.44 1351.89 L1989.28 1338.19 L2000.7 1329.53 L1986.38 1329.23 L1981.68 1315.71 Z" fill="#0000ff" fill-rule="evenodd" fill-opacity="1" stroke="#000000" stroke-opacity="1" stroke-width="3.2"/>
<polyline clip-path="url(#clip452)" style="stroke:#a9a955; stroke-linecap:round; stroke-linejoin:round; stroke-width:4; stroke-opacity:1; fill:none" stroke-dasharray="2, 4" points="451.524,85.838 961.017,422.722 1503.82,882.054 2038.42,1335.71 "/>
<path clip-path="url(#clip452)" d="M451.524 65.838 L446.824 79.358 L432.504 79.658 L443.924 88.318 L439.764 102.018 L451.524 93.838 L463.284 102.018 L459.124 88.318 L470.544 79.658 L456.224 79.358 L451.524 65.838 Z" fill="#a9a955" fill-rule="evenodd" fill-opacity="1" stroke="#000000" stroke-opacity="1" stroke-width="3.2"/>
<path clip-path="url(#clip452)" d="M961.017 402.722 L956.317 416.242 L941.997 416.542 L953.417 425.202 L949.257 438.902 L961.017 430.722 L972.777 438.902 L968.617 425.202 L980.037 416.542 L965.717 416.242 L961.017 402.722 Z" fill="#a9a955" fill-rule="evenodd" fill-opacity="1" stroke="#000000" stroke-opacity="1" stroke-width="3.2"/>
<path clip-path="url(#clip452)" d="M1503.82 862.054 L1499.12 875.574 L1484.8 875.874 L1496.22 884.534 L1492.06 898.234 L1503.82 890.054 L1515.58 898.234 L1511.42 884.534 L1522.84 875.874 L1508.52 875.574 L1503.82 862.054 Z" fill="#a9a955" fill-rule="evenodd" fill-opacity="1" stroke="#000000" stroke-opacity="1" stroke-width="3.2"/>
<path clip-path="url(#clip452)" d="M2038.42 1315.71 L2033.72 1329.23 L2019.4 1329.53 L2030.82 1338.19 L2026.66 1351.89 L2038.42 1343.71 L2050.18 1351.89 L2046.02 1338.19 L2057.44 1329.53 L2043.12 1329.23 L2038.42 1315.71 Z" fill="#a9a955" fill-rule="evenodd" fill-opacity="1" stroke="#000000" stroke-opacity="1" stroke-width="3.2"/>
<path clip-path="url(#clip450)" d="M1814.99 455.579 L2282.92 455.579 L2282.92 92.6992 L1814.99 92.6992  Z" fill="#ffffff" fill-rule="evenodd" fill-opacity="1"/>
<polyline clip-path="url(#clip450)" style="stroke:#000000; stroke-linecap:round; stroke-linejoin:round; stroke-width:4; stroke-opacity:1; fill:none" points="1814.99,455.579 2282.92,455.579 2282.92,92.6992 1814.99,92.6992 1814.99,455.579 "/>
<polyline clip-path="url(#clip450)" style="stroke:#008000; stroke-linecap:round; stroke-linejoin:round; stroke-width:4; stroke-opacity:1; fill:none" stroke-dasharray="2, 4" points="1838.27,144.539 1977.94,144.539 "/>
<path clip-path="url(#clip450)" d="M1908.1 166.093 L1889.44 155.316 L1889.44 133.762 L1908.1 122.985 L1926.77 133.762 L1926.77 155.316 Z" fill="#008000" fill-rule="evenodd" fill-opacity="1" stroke="#000000" stroke-opacity="1" stroke-width="3.72364"/>
<path clip-path="url(#clip450)" d="M2001.22 127.259 L2021.08 127.259 L2021.08 131.194 L2005.89 131.194 L2005.89 141.379 L2019.6 141.379 L2019.6 145.315 L2005.89 145.315 L2005.89 161.819 L2001.22 161.819 L2001.22 127.259 Z" fill="#000000" fill-rule="nonzero" fill-opacity="1" /><path clip-path="url(#clip450)" d="M2033.16 145.315 L2033.16 157.977 L2040.66 157.977 Q2044.43 157.977 2046.24 156.426 Q2048.07 154.852 2048.07 151.634 Q2048.07 148.393 2046.24 146.866 Q2044.43 145.315 2040.66 145.315 L2033.16 145.315 M2033.16 131.102 L2033.16 141.518 L2040.08 141.518 Q2043.51 141.518 2045.17 140.245 Q2046.86 138.949 2046.86 136.31 Q2046.86 133.694 2045.17 132.398 Q2043.51 131.102 2040.08 131.102 L2033.16 131.102 M2028.49 127.259 L2040.43 127.259 Q2045.78 127.259 2048.67 129.481 Q2051.56 131.704 2051.56 135.801 Q2051.56 138.972 2050.08 140.847 Q2048.6 142.722 2045.73 143.185 Q2049.18 143.926 2051.08 146.287 Q2053 148.625 2053 152.143 Q2053 156.773 2049.85 159.296 Q2046.7 161.819 2040.89 161.819 L2028.49 161.819 L2028.49 127.259 Z" fill="#000000" fill-rule="nonzero" fill-opacity="1" /><path clip-path="url(#clip450)" d="M2065.68 131.102 L2065.68 157.977 L2071.33 157.977 Q2078.48 157.977 2081.79 154.736 Q2085.13 151.495 2085.13 144.504 Q2085.13 137.56 2081.79 134.342 Q2078.48 131.102 2071.33 131.102 L2065.68 131.102 M2061.01 127.259 L2070.61 127.259 Q2080.66 127.259 2085.36 131.449 Q2090.06 135.616 2090.06 144.504 Q2090.06 153.44 2085.34 157.629 Q2080.61 161.819 2070.61 161.819 L2061.01 161.819 L2061.01 127.259 Z" fill="#000000" fill-rule="nonzero" fill-opacity="1" /><path clip-path="url(#clip450)" d="M2097.51 127.259 L2117.37 127.259 L2117.37 131.194 L2102.19 131.194 L2102.19 141.379 L2115.89 141.379 L2115.89 145.315 L2102.19 145.315 L2102.19 161.819 L2097.51 161.819 L2097.51 127.259 Z" fill="#000000" fill-rule="nonzero" fill-opacity="1" /><polyline clip-path="url(#clip450)" style="stroke:#a92a00; stroke-linecap:round; stroke-linejoin:round; stroke-width:4; stroke-opacity:1; fill:none" stroke-dasharray="2, 4" points="1838.27,196.379 1977.94,196.379 "/>
<path clip-path="url(#clip450)" d="M1908.1 217.933 L1889.44 207.156 L1889.44 185.602 L1908.1 174.825 L1926.77 185.602 L1926.77 207.156 Z" fill="#a92a00" fill-rule="evenodd" fill-opacity="1" stroke="#000000" stroke-opacity="1" stroke-width="3.72364"/>
<path clip-path="url(#clip450)" d="M2001.22 179.099 L2021.08 179.099 L2021.08 183.034 L2005.89 183.034 L2005.89 193.219 L2019.6 193.219 L2019.6 197.155 L2005.89 197.155 L2005.89 213.659 L2001.22 213.659 L2001.22 179.099 Z" fill="#000000" fill-rule="nonzero" fill-opacity="1" /><path clip-path="url(#clip450)" d="M2033.16 197.155 L2033.16 209.817 L2040.66 209.817 Q2044.43 209.817 2046.24 208.266 Q2048.07 206.692 2048.07 203.474 Q2048.07 200.233 2046.24 198.706 Q2044.43 197.155 2040.66 197.155 L2033.16 197.155 M2033.16 182.942 L2033.16 193.358 L2040.08 193.358 Q2043.51 193.358 2045.17 192.085 Q2046.86 190.789 2046.86 188.15 Q2046.86 185.534 2045.17 184.238 Q2043.51 182.942 2040.08 182.942 L2033.16 182.942 M2028.49 179.099 L2040.43 179.099 Q2045.78 179.099 2048.67 181.321 Q2051.56 183.544 2051.56 187.641 Q2051.56 190.812 2050.08 192.687 Q2048.6 194.562 2045.73 195.025 Q2049.18 195.766 2051.08 198.127 Q2053 200.465 2053 203.983 Q2053 208.613 2049.85 211.136 Q2046.7 213.659 2040.89 213.659 L2028.49 213.659 L2028.49 179.099 Z" fill="#000000" fill-rule="nonzero" fill-opacity="1" /><path clip-path="url(#clip450)" d="M2065.68 182.942 L2065.68 209.817 L2071.33 209.817 Q2078.48 209.817 2081.79 206.576 Q2085.13 203.335 2085.13 196.344 Q2085.13 189.4 2081.79 186.182 Q2078.48 182.942 2071.33 182.942 L2065.68 182.942 M2061.01 179.099 L2070.61 179.099 Q2080.66 179.099 2085.36 183.289 Q2090.06 187.456 2090.06 196.344 Q2090.06 205.28 2085.34 209.469 Q2080.61 213.659 2070.61 213.659 L2061.01 213.659 L2061.01 179.099 Z" fill="#000000" fill-rule="nonzero" fill-opacity="1" /><path clip-path="url(#clip450)" d="M2097.51 179.099 L2117.37 179.099 L2117.37 183.034 L2102.19 183.034 L2102.19 193.219 L2115.89 193.219 L2115.89 197.155 L2102.19 197.155 L2102.19 213.659 L2097.51 213.659 L2097.51 179.099 Z" fill="#000000" fill-rule="nonzero" fill-opacity="1" /><path clip-path="url(#clip450)" d="M2144.29 221.53 L2144.29 224.84 L2119.67 224.84 L2119.67 221.53 L2144.29 221.53 Z" fill="#000000" fill-rule="nonzero" fill-opacity="1" /><path clip-path="url(#clip450)" d="M2152.42 209.77 L2152.42 223.52 L2148.14 223.52 L2148.14 187.733 L2152.42 187.733 L2152.42 191.669 Q2153.76 189.354 2155.8 188.243 Q2157.86 187.108 2160.71 187.108 Q2165.43 187.108 2168.37 190.858 Q2171.33 194.608 2171.33 200.719 Q2171.33 206.831 2168.37 210.58 Q2165.43 214.33 2160.71 214.33 Q2157.86 214.33 2155.8 213.219 Q2153.76 212.085 2152.42 209.77 M2166.91 200.719 Q2166.91 196.02 2164.97 193.358 Q2163.04 190.673 2159.66 190.673 Q2156.29 190.673 2154.34 193.358 Q2152.42 196.02 2152.42 200.719 Q2152.42 205.418 2154.34 208.104 Q2156.29 210.766 2159.66 210.766 Q2163.04 210.766 2164.97 208.104 Q2166.91 205.418 2166.91 200.719 Z" fill="#000000" fill-rule="nonzero" fill-opacity="1" /><path clip-path="url(#clip450)" d="M2193.41 191.715 Q2192.7 191.298 2191.84 191.113 Q2191.01 190.905 2189.99 190.905 Q2186.38 190.905 2184.43 193.266 Q2182.51 195.604 2182.51 200.002 L2182.51 213.659 L2178.23 213.659 L2178.23 187.733 L2182.51 187.733 L2182.51 191.761 Q2183.85 189.4 2186.01 188.266 Q2188.16 187.108 2191.24 187.108 Q2191.68 187.108 2192.21 187.178 Q2192.74 187.224 2193.39 187.34 L2193.41 191.715 Z" fill="#000000" fill-rule="nonzero" fill-opacity="1" /><path clip-path="url(#clip450)" d="M2219.02 199.631 L2219.02 201.715 L2199.43 201.715 Q2199.71 206.113 2202.07 208.428 Q2204.46 210.719 2208.69 210.719 Q2211.15 210.719 2213.44 210.118 Q2215.75 209.516 2218.02 208.312 L2218.02 212.34 Q2215.73 213.312 2213.32 213.821 Q2210.91 214.33 2208.44 214.33 Q2202.23 214.33 2198.6 210.719 Q2194.99 207.108 2194.99 200.951 Q2194.99 194.585 2198.41 190.858 Q2201.86 187.108 2207.7 187.108 Q2212.93 187.108 2215.96 190.488 Q2219.02 193.844 2219.02 199.631 M2214.76 198.381 Q2214.71 194.886 2212.79 192.803 Q2210.89 190.719 2207.74 190.719 Q2204.18 190.719 2202.03 192.733 Q2199.9 194.747 2199.57 198.405 L2214.76 198.381 Z" fill="#000000" fill-rule="nonzero" fill-opacity="1" /><path clip-path="url(#clip450)" d="M2244.66 188.729 L2244.66 192.71 Q2242.86 191.715 2241.03 191.229 Q2239.22 190.719 2237.37 190.719 Q2233.23 190.719 2230.94 193.358 Q2228.65 195.974 2228.65 200.719 Q2228.65 205.465 2230.94 208.104 Q2233.23 210.719 2237.37 210.719 Q2239.22 210.719 2241.03 210.233 Q2242.86 209.724 2244.66 208.729 L2244.66 212.664 Q2242.88 213.497 2240.96 213.914 Q2239.06 214.33 2236.91 214.33 Q2231.05 214.33 2227.6 210.65 Q2224.16 206.969 2224.16 200.719 Q2224.16 194.377 2227.63 190.743 Q2231.12 187.108 2237.19 187.108 Q2239.16 187.108 2241.03 187.525 Q2242.91 187.919 2244.66 188.729 Z" fill="#000000" fill-rule="nonzero" fill-opacity="1" /><polyline clip-path="url(#clip450)" style="stroke:#800080; stroke-linecap:round; stroke-linejoin:round; stroke-width:4; stroke-opacity:1; fill:none" stroke-dasharray="2, 4" points="1838.27,248.219 1977.94,248.219 "/>
<path clip-path="url(#clip450)" d="M1908.1 226.665 L1886.55 248.219 L1908.1 269.773 L1929.66 248.219 L1908.1 226.665 Z" fill="#800080" fill-rule="evenodd" fill-opacity="1" stroke="#000000" stroke-opacity="1" stroke-width="3.72364"/>
<path clip-path="url(#clip450)" d="M2017.24 234.11 Q2012.14 234.11 2009.13 237.907 Q2006.15 241.703 2006.15 248.254 Q2006.15 254.782 2009.13 258.578 Q2012.14 262.374 2017.24 262.374 Q2022.33 262.374 2025.29 258.578 Q2028.28 254.782 2028.28 248.254 Q2028.28 241.703 2025.29 237.907 Q2022.33 234.11 2017.24 234.11 M2023.79 264.874 L2029.94 271.61 L2024.3 271.61 L2019.18 266.078 Q2018.42 266.124 2018 266.147 Q2017.61 266.17 2017.24 266.17 Q2009.94 266.17 2005.57 261.309 Q2001.22 256.425 2001.22 248.254 Q2001.22 240.06 2005.57 235.198 Q2009.94 230.314 2017.24 230.314 Q2024.5 230.314 2028.86 235.198 Q2033.21 240.06 2033.21 248.254 Q2033.21 254.272 2030.78 258.555 Q2028.37 262.837 2023.79 264.874 Z" fill="#000000" fill-rule="nonzero" fill-opacity="1" /><path clip-path="url(#clip450)" d="M2040.52 230.939 L2046.82 230.939 L2062.14 259.851 L2062.14 230.939 L2066.68 230.939 L2066.68 265.499 L2060.38 265.499 L2045.06 236.587 L2045.06 265.499 L2040.52 265.499 L2040.52 230.939 Z" fill="#000000" fill-rule="nonzero" fill-opacity="1" /><path clip-path="url(#clip450)" d="M2080.66 234.782 L2080.66 261.657 L2086.31 261.657 Q2093.46 261.657 2096.77 258.416 Q2100.11 255.175 2100.11 248.184 Q2100.11 241.24 2096.77 238.022 Q2093.46 234.782 2086.31 234.782 L2080.66 234.782 M2075.98 230.939 L2085.59 230.939 Q2095.64 230.939 2100.34 235.129 Q2105.04 239.296 2105.04 248.184 Q2105.04 257.12 2100.31 261.309 Q2095.59 265.499 2085.59 265.499 L2075.98 265.499 L2075.98 230.939 Z" fill="#000000" fill-rule="nonzero" fill-opacity="1" /><path clip-path="url(#clip450)" d="M2112.49 230.939 L2132.35 230.939 L2132.35 234.874 L2117.17 234.874 L2117.17 245.059 L2130.87 245.059 L2130.87 248.995 L2117.17 248.995 L2117.17 265.499 L2112.49 265.499 L2112.49 230.939 Z" fill="#000000" fill-rule="nonzero" fill-opacity="1" /><polyline clip-path="url(#clip450)" style="stroke:#805580; stroke-linecap:round; stroke-linejoin:round; stroke-width:4; stroke-opacity:1; fill:none" stroke-dasharray="2, 4" points="1838.27,300.059 1977.94,300.059 "/>
<path clip-path="url(#clip450)" d="M1908.1 278.505 L1886.55 300.059 L1908.1 321.613 L1929.66 300.059 L1908.1 278.505 Z" fill="#805580" fill-rule="evenodd" fill-opacity="1" stroke="#000000" stroke-opacity="1" stroke-width="3.72364"/>
<path clip-path="url(#clip450)" d="M2017.24 285.95 Q2012.14 285.95 2009.13 289.747 Q2006.15 293.543 2006.15 300.094 Q2006.15 306.622 2009.13 310.418 Q2012.14 314.214 2017.24 314.214 Q2022.33 314.214 2025.29 310.418 Q2028.28 306.622 2028.28 300.094 Q2028.28 293.543 2025.29 289.747 Q2022.33 285.95 2017.24 285.95 M2023.79 316.714 L2029.94 323.45 L2024.3 323.45 L2019.18 317.918 Q2018.42 317.964 2018 317.987 Q2017.61 318.01 2017.24 318.01 Q2009.94 318.01 2005.57 313.149 Q2001.22 308.265 2001.22 300.094 Q2001.22 291.9 2005.57 287.038 Q2009.94 282.154 2017.24 282.154 Q2024.5 282.154 2028.86 287.038 Q2033.21 291.9 2033.21 300.094 Q2033.21 306.112 2030.78 310.395 Q2028.37 314.677 2023.79 316.714 Z" fill="#000000" fill-rule="nonzero" fill-opacity="1" /><path clip-path="url(#clip450)" d="M2040.52 282.779 L2046.82 282.779 L2062.14 311.691 L2062.14 282.779 L2066.68 282.779 L2066.68 317.339 L2060.38 317.339 L2045.06 288.427 L2045.06 317.339 L2040.52 317.339 L2040.52 282.779 Z" fill="#000000" fill-rule="nonzero" fill-opacity="1" /><path clip-path="url(#clip450)" d="M2080.66 286.622 L2080.66 313.497 L2086.31 313.497 Q2093.46 313.497 2096.77 310.256 Q2100.11 307.015 2100.11 300.024 Q2100.11 293.08 2096.77 289.862 Q2093.46 286.622 2086.31 286.622 L2080.66 286.622 M2075.98 282.779 L2085.59 282.779 Q2095.64 282.779 2100.34 286.969 Q2105.04 291.136 2105.04 300.024 Q2105.04 308.96 2100.31 313.149 Q2095.59 317.339 2085.59 317.339 L2075.98 317.339 L2075.98 282.779 Z" fill="#000000" fill-rule="nonzero" fill-opacity="1" /><path clip-path="url(#clip450)" d="M2112.49 282.779 L2132.35 282.779 L2132.35 286.714 L2117.17 286.714 L2117.17 296.899 L2130.87 296.899 L2130.87 300.835 L2117.17 300.835 L2117.17 317.339 L2112.49 317.339 L2112.49 282.779 Z" fill="#000000" fill-rule="nonzero" fill-opacity="1" /><path clip-path="url(#clip450)" d="M2159.27 325.21 L2159.27 328.52 L2134.64 328.52 L2134.64 325.21 L2159.27 325.21 Z" fill="#000000" fill-rule="nonzero" fill-opacity="1" /><path clip-path="url(#clip450)" d="M2167.4 313.45 L2167.4 327.2 L2163.11 327.2 L2163.11 291.413 L2167.4 291.413 L2167.4 295.349 Q2168.74 293.034 2170.78 291.923 Q2172.84 290.788 2175.68 290.788 Q2180.41 290.788 2183.35 294.538 Q2186.31 298.288 2186.31 304.399 Q2186.31 310.511 2183.35 314.26 Q2180.41 318.01 2175.68 318.01 Q2172.84 318.01 2170.78 316.899 Q2168.74 315.765 2167.4 313.45 M2181.89 304.399 Q2181.89 299.7 2179.94 297.038 Q2178.02 294.353 2174.64 294.353 Q2171.26 294.353 2169.32 297.038 Q2167.4 299.7 2167.4 304.399 Q2167.4 309.098 2169.32 311.784 Q2171.26 314.446 2174.64 314.446 Q2178.02 314.446 2179.94 311.784 Q2181.89 309.098 2181.89 304.399 Z" fill="#000000" fill-rule="nonzero" fill-opacity="1" /><path clip-path="url(#clip450)" d="M2208.39 295.395 Q2207.67 294.978 2206.82 294.793 Q2205.98 294.585 2204.97 294.585 Q2201.35 294.585 2199.41 296.946 Q2197.49 299.284 2197.49 303.682 L2197.49 317.339 L2193.21 317.339 L2193.21 291.413 L2197.49 291.413 L2197.49 295.441 Q2198.83 293.08 2200.98 291.946 Q2203.14 290.788 2206.22 290.788 Q2206.66 290.788 2207.19 290.858 Q2207.72 290.904 2208.37 291.02 L2208.39 295.395 Z" fill="#000000" fill-rule="nonzero" fill-opacity="1" /><path clip-path="url(#clip450)" d="M2233.99 303.311 L2233.99 305.395 L2214.41 305.395 Q2214.69 309.793 2217.05 312.108 Q2219.43 314.399 2223.67 314.399 Q2226.12 314.399 2228.41 313.798 Q2230.73 313.196 2233 311.992 L2233 316.02 Q2230.71 316.992 2228.3 317.501 Q2225.89 318.01 2223.41 318.01 Q2217.21 318.01 2213.58 314.399 Q2209.97 310.788 2209.97 304.631 Q2209.97 298.265 2213.39 294.538 Q2216.84 290.788 2222.67 290.788 Q2227.91 290.788 2230.94 294.168 Q2233.99 297.524 2233.99 303.311 M2229.73 302.061 Q2229.69 298.566 2227.77 296.483 Q2225.87 294.399 2222.72 294.399 Q2219.16 294.399 2217 296.413 Q2214.87 298.427 2214.55 302.085 L2229.73 302.061 Z" fill="#000000" fill-rule="nonzero" fill-opacity="1" /><path clip-path="url(#clip450)" d="M2259.64 292.409 L2259.64 296.39 Q2257.84 295.395 2256.01 294.909 Q2254.2 294.399 2252.35 294.399 Q2248.21 294.399 2245.91 297.038 Q2243.62 299.654 2243.62 304.399 Q2243.62 309.145 2245.91 311.784 Q2248.21 314.399 2252.35 314.399 Q2254.2 314.399 2256.01 313.913 Q2257.84 313.404 2259.64 312.409 L2259.64 316.344 Q2257.86 317.177 2255.94 317.594 Q2254.04 318.01 2251.89 318.01 Q2246.03 318.01 2242.58 314.33 Q2239.13 310.649 2239.13 304.399 Q2239.13 298.057 2242.6 294.423 Q2246.1 290.788 2252.16 290.788 Q2254.13 290.788 2256.01 291.205 Q2257.88 291.599 2259.64 292.409 Z" fill="#000000" fill-rule="nonzero" fill-opacity="1" /><polyline clip-path="url(#clip450)" style="stroke:#0000ff; stroke-linecap:round; stroke-linejoin:round; stroke-width:4; stroke-opacity:1; fill:none" stroke-dasharray="2, 4" points="1838.27,351.899 1977.94,351.899 "/>
<path clip-path="url(#clip450)" d="M1908.1 330.345 L1903.04 344.916 L1887.6 345.239 L1899.91 354.572 L1895.43 369.337 L1908.1 360.521 L1920.78 369.337 L1916.29 354.572 L1928.6 345.239 L1913.17 344.916 L1908.1 330.345 Z" fill="#0000ff" fill-rule="evenodd" fill-opacity="1" stroke="#000000" stroke-opacity="1" stroke-width="3.72364"/>
<path clip-path="url(#clip450)" d="M2017.24 337.79 Q2012.14 337.79 2009.13 341.587 Q2006.15 345.383 2006.15 351.934 Q2006.15 358.462 2009.13 362.258 Q2012.14 366.054 2017.24 366.054 Q2022.33 366.054 2025.29 362.258 Q2028.28 358.462 2028.28 351.934 Q2028.28 345.383 2025.29 341.587 Q2022.33 337.79 2017.24 337.79 M2023.79 368.554 L2029.94 375.29 L2024.3 375.29 L2019.18 369.758 Q2018.42 369.804 2018 369.827 Q2017.61 369.85 2017.24 369.85 Q2009.94 369.85 2005.57 364.989 Q2001.22 360.105 2001.22 351.934 Q2001.22 343.74 2005.57 338.878 Q2009.94 333.994 2017.24 333.994 Q2024.5 333.994 2028.86 338.878 Q2033.21 343.74 2033.21 351.934 Q2033.21 357.952 2030.78 362.235 Q2028.37 366.517 2023.79 368.554 Z" fill="#000000" fill-rule="nonzero" fill-opacity="1" /><path clip-path="url(#clip450)" d="M2045.2 352.675 L2045.2 365.337 L2052.7 365.337 Q2056.47 365.337 2058.28 363.786 Q2060.11 362.212 2060.11 358.994 Q2060.11 355.753 2058.28 354.226 Q2056.47 352.675 2052.7 352.675 L2045.2 352.675 M2045.2 338.462 L2045.2 348.878 L2052.12 348.878 Q2055.55 348.878 2057.21 347.605 Q2058.9 346.309 2058.9 343.67 Q2058.9 341.054 2057.21 339.758 Q2055.55 338.462 2052.12 338.462 L2045.2 338.462 M2040.52 334.619 L2052.47 334.619 Q2057.81 334.619 2060.71 336.841 Q2063.6 339.064 2063.6 343.161 Q2063.6 346.332 2062.12 348.207 Q2060.64 350.082 2057.77 350.545 Q2061.22 351.286 2063.11 353.647 Q2065.04 355.985 2065.04 359.503 Q2065.04 364.133 2061.89 366.656 Q2058.74 369.179 2052.93 369.179 L2040.52 369.179 L2040.52 334.619 Z" fill="#000000" fill-rule="nonzero" fill-opacity="1" /><path clip-path="url(#clip450)" d="M2077.72 338.462 L2077.72 365.337 L2083.37 365.337 Q2090.52 365.337 2093.83 362.096 Q2097.17 358.855 2097.17 351.864 Q2097.17 344.92 2093.83 341.702 Q2090.52 338.462 2083.37 338.462 L2077.72 338.462 M2073.05 334.619 L2082.65 334.619 Q2092.7 334.619 2097.4 338.809 Q2102.1 342.976 2102.1 351.864 Q2102.1 360.8 2097.37 364.989 Q2092.65 369.179 2082.65 369.179 L2073.05 369.179 L2073.05 334.619 Z" fill="#000000" fill-rule="nonzero" fill-opacity="1" /><path clip-path="url(#clip450)" d="M2109.55 334.619 L2129.41 334.619 L2129.41 338.554 L2114.23 338.554 L2114.23 348.739 L2127.93 348.739 L2127.93 352.675 L2114.23 352.675 L2114.23 369.179 L2109.55 369.179 L2109.55 334.619 Z" fill="#000000" fill-rule="nonzero" fill-opacity="1" /><polyline clip-path="url(#clip450)" style="stroke:#a9a955; stroke-linecap:round; stroke-linejoin:round; stroke-width:4; stroke-opacity:1; fill:none" stroke-dasharray="2, 4" points="1838.27,403.739 1977.94,403.739 "/>
<path clip-path="url(#clip450)" d="M1908.1 382.185 L1903.04 396.756 L1887.6 397.079 L1899.91 406.412 L1895.43 421.177 L1908.1 412.361 L1920.78 421.177 L1916.29 406.412 L1928.6 397.079 L1913.17 396.756 L1908.1 382.185 Z" fill="#a9a955" fill-rule="evenodd" fill-opacity="1" stroke="#000000" stroke-opacity="1" stroke-width="3.72364"/>
<path clip-path="url(#clip450)" d="M2017.24 389.63 Q2012.14 389.63 2009.13 393.427 Q2006.15 397.223 2006.15 403.774 Q2006.15 410.302 2009.13 414.098 Q2012.14 417.894 2017.24 417.894 Q2022.33 417.894 2025.29 414.098 Q2028.28 410.302 2028.28 403.774 Q2028.28 397.223 2025.29 393.427 Q2022.33 389.63 2017.24 389.63 M2023.79 420.394 L2029.94 427.13 L2024.3 427.13 L2019.18 421.598 Q2018.42 421.644 2018 421.667 Q2017.61 421.69 2017.24 421.69 Q2009.94 421.69 2005.57 416.829 Q2001.22 411.945 2001.22 403.774 Q2001.22 395.58 2005.57 390.718 Q2009.94 385.834 2017.24 385.834 Q2024.5 385.834 2028.86 390.718 Q2033.21 395.58 2033.21 403.774 Q2033.21 409.792 2030.78 414.075 Q2028.37 418.357 2023.79 420.394 Z" fill="#000000" fill-rule="nonzero" fill-opacity="1" /><path clip-path="url(#clip450)" d="M2045.2 404.515 L2045.2 417.177 L2052.7 417.177 Q2056.47 417.177 2058.28 415.626 Q2060.11 414.052 2060.11 410.834 Q2060.11 407.593 2058.28 406.066 Q2056.47 404.515 2052.7 404.515 L2045.2 404.515 M2045.2 390.302 L2045.2 400.718 L2052.12 400.718 Q2055.55 400.718 2057.21 399.445 Q2058.9 398.149 2058.9 395.51 Q2058.9 392.894 2057.21 391.598 Q2055.55 390.302 2052.12 390.302 L2045.2 390.302 M2040.52 386.459 L2052.47 386.459 Q2057.81 386.459 2060.71 388.681 Q2063.6 390.904 2063.6 395.001 Q2063.6 398.172 2062.12 400.047 Q2060.64 401.922 2057.77 402.385 Q2061.22 403.126 2063.11 405.487 Q2065.04 407.825 2065.04 411.343 Q2065.04 415.973 2061.89 418.496 Q2058.74 421.019 2052.93 421.019 L2040.52 421.019 L2040.52 386.459 Z" fill="#000000" fill-rule="nonzero" fill-opacity="1" /><path clip-path="url(#clip450)" d="M2077.72 390.302 L2077.72 417.177 L2083.37 417.177 Q2090.52 417.177 2093.83 413.936 Q2097.17 410.695 2097.17 403.704 Q2097.17 396.76 2093.83 393.542 Q2090.52 390.302 2083.37 390.302 L2077.72 390.302 M2073.05 386.459 L2082.65 386.459 Q2092.7 386.459 2097.4 390.649 Q2102.1 394.816 2102.1 403.704 Q2102.1 412.64 2097.37 416.829 Q2092.65 421.019 2082.65 421.019 L2073.05 421.019 L2073.05 386.459 Z" fill="#000000" fill-rule="nonzero" fill-opacity="1" /><path clip-path="url(#clip450)" d="M2109.55 386.459 L2129.41 386.459 L2129.41 390.394 L2114.23 390.394 L2114.23 400.579 L2127.93 400.579 L2127.93 404.515 L2114.23 404.515 L2114.23 421.019 L2109.55 421.019 L2109.55 386.459 Z" fill="#000000" fill-rule="nonzero" fill-opacity="1" /><path clip-path="url(#clip450)" d="M2156.33 428.89 L2156.33 432.2 L2131.7 432.2 L2131.7 428.89 L2156.33 428.89 Z" fill="#000000" fill-rule="nonzero" fill-opacity="1" /><path clip-path="url(#clip450)" d="M2164.46 417.13 L2164.46 430.88 L2160.17 430.88 L2160.17 395.093 L2164.46 395.093 L2164.46 399.029 Q2165.8 396.714 2167.84 395.603 Q2169.9 394.468 2172.74 394.468 Q2177.47 394.468 2180.41 398.218 Q2183.37 401.968 2183.37 408.079 Q2183.37 414.191 2180.41 417.94 Q2177.47 421.69 2172.74 421.69 Q2169.9 421.69 2167.84 420.579 Q2165.8 419.445 2164.46 417.13 M2178.95 408.079 Q2178.95 403.38 2177 400.718 Q2175.08 398.033 2171.7 398.033 Q2168.32 398.033 2166.38 400.718 Q2164.46 403.38 2164.46 408.079 Q2164.46 412.778 2166.38 415.464 Q2168.32 418.126 2171.7 418.126 Q2175.08 418.126 2177 415.464 Q2178.95 412.778 2178.95 408.079 Z" fill="#000000" fill-rule="nonzero" fill-opacity="1" /><path clip-path="url(#clip450)" d="M2205.45 399.075 Q2204.73 398.658 2203.88 398.473 Q2203.04 398.265 2202.03 398.265 Q2198.41 398.265 2196.47 400.626 Q2194.55 402.964 2194.55 407.362 L2194.55 421.019 L2190.27 421.019 L2190.27 395.093 L2194.55 395.093 L2194.55 399.121 Q2195.89 396.76 2198.04 395.626 Q2200.2 394.468 2203.28 394.468 Q2203.72 394.468 2204.25 394.538 Q2204.78 394.584 2205.43 394.7 L2205.45 399.075 Z" fill="#000000" fill-rule="nonzero" fill-opacity="1" /><path clip-path="url(#clip450)" d="M2231.05 406.991 L2231.05 409.075 L2211.47 409.075 Q2211.75 413.473 2214.11 415.788 Q2216.49 418.079 2220.73 418.079 Q2223.18 418.079 2225.47 417.478 Q2227.79 416.876 2230.06 415.672 L2230.06 419.7 Q2227.77 420.672 2225.36 421.181 Q2222.95 421.69 2220.47 421.69 Q2214.27 421.69 2210.64 418.079 Q2207.03 414.468 2207.03 408.311 Q2207.03 401.945 2210.45 398.218 Q2213.9 394.468 2219.73 394.468 Q2224.97 394.468 2228 397.848 Q2231.05 401.204 2231.05 406.991 M2226.79 405.741 Q2226.75 402.246 2224.83 400.163 Q2222.93 398.079 2219.78 398.079 Q2216.22 398.079 2214.06 400.093 Q2211.93 402.107 2211.61 405.765 L2226.79 405.741 Z" fill="#000000" fill-rule="nonzero" fill-opacity="1" /><path clip-path="url(#clip450)" d="M2256.7 396.089 L2256.7 400.07 Q2254.9 399.075 2253.07 398.589 Q2251.26 398.079 2249.41 398.079 Q2245.27 398.079 2242.97 400.718 Q2240.68 403.334 2240.68 408.079 Q2240.68 412.825 2242.97 415.464 Q2245.27 418.079 2249.41 418.079 Q2251.26 418.079 2253.07 417.593 Q2254.9 417.084 2256.7 416.089 L2256.7 420.024 Q2254.92 420.857 2253 421.274 Q2251.1 421.69 2248.95 421.69 Q2243.09 421.69 2239.64 418.01 Q2236.19 414.329 2236.19 408.079 Q2236.19 401.737 2239.66 398.103 Q2243.16 394.468 2249.22 394.468 Q2251.19 394.468 2253.07 394.885 Q2254.94 395.279 2256.7 396.089 Z" fill="#000000" fill-rule="nonzero" fill-opacity="1" /></svg>
