<?xml version="1.0" encoding="utf-8" standalone="no"?>
<!DOCTYPE svg PUBLIC "-//W3C//DTD SVG 1.1//EN"
  "http://www.w3.org/Graphics/SVG/1.1/DTD/svg11.dtd">
<svg xmlns:xlink="http://www.w3.org/1999/xlink" width="504pt" height="288pt" viewBox="0 0 504 288" xmlns="http://www.w3.org/2000/svg" version="1.1">
 <metadata>
  <rdf:RDF xmlns:dc="http://purl.org/dc/elements/1.1/" xmlns:cc="http://creativecommons.org/ns#" xmlns:rdf="http://www.w3.org/1999/02/22-rdf-syntax-ns#">
   <cc:Work>
    <dc:type rdf:resource="http://purl.org/dc/dcmitype/StillImage"/>
    <dc:date>2024-04-18T08:38:26.714937</dc:date>
    <dc:format>image/svg+xml</dc:format>
    <dc:creator>
     <cc:Agent>
      <dc:title>Matplotlib v3.7.1, https://matplotlib.org/</dc:title>
     </cc:Agent>
    </dc:creator>
   </cc:Work>
  </rdf:RDF>
 </metadata>
 <defs>
  <style type="text/css">*{stroke-linejoin: round; stroke-linecap: butt}</style>
 </defs>
 <g id="figure_1">
  <g id="patch_1">
   <path d="M 0 288 
L 504 288 
L 504 0 
L 0 0 
z
" style="fill: #ffffff"/>
  </g>
  <g id="axes_1">
   <g id="patch_2">
    <path d="M 63 252 
L 453.6 252 
L 453.6 34.56 
L 63 34.56 
z
" style="fill: #ffffff"/>
   </g>
   <g id="matplotlib.axis_1">
    <g id="xtick_1">
     <g id="line2d_1">
      <defs>
       <path id="m31cee8dd0e" d="M 0 0 
L 0 3.5 
" style="stroke: #000000; stroke-width: 0.8"/>
      </defs>
      <g>
       <use xlink:href="#m31cee8dd0e" x="80.754545" y="252" style="stroke: #000000; stroke-width: 0.8"/>
      </g>
     </g>
     <g id="text_1">
      <!-- 0 -->
      <g transform="translate(77.573295 266.598437) scale(0.1 -0.1)">
       <defs>
        <path id="DejaVuSans-30" d="M 2034 4250 
Q 1547 4250 1301 3770 
Q 1056 3291 1056 2328 
Q 1056 1369 1301 889 
Q 1547 409 2034 409 
Q 2525 409 2770 889 
Q 3016 1369 3016 2328 
Q 3016 3291 2770 3770 
Q 2525 4250 2034 4250 
z
M 2034 4750 
Q 2819 4750 3233 4129 
Q 3647 3509 3647 2328 
Q 3647 1150 3233 529 
Q 2819 -91 2034 -91 
Q 1250 -91 836 529 
Q 422 1150 422 2328 
Q 422 3509 836 4129 
Q 1250 4750 2034 4750 
z
" transform="scale(0.015625)"/>
       </defs>
       <use xlink:href="#DejaVuSans-30"/>
      </g>
     </g>
    </g>
    <g id="xtick_2">
     <g id="line2d_2">
      <g>
       <use xlink:href="#m31cee8dd0e" x="130.072727" y="252" style="stroke: #000000; stroke-width: 0.8"/>
      </g>
     </g>
     <g id="text_2">
      <!-- 250 -->
      <g transform="translate(120.528977 266.598437) scale(0.1 -0.1)">
       <defs>
        <path id="DejaVuSans-32" d="M 1228 531 
L 3431 531 
L 3431 0 
L 469 0 
L 469 531 
Q 828 903 1448 1529 
Q 2069 2156 2228 2338 
Q 2531 2678 2651 2914 
Q 2772 3150 2772 3378 
Q 2772 3750 2511 3984 
Q 2250 4219 1831 4219 
Q 1534 4219 1204 4116 
Q 875 4013 500 3803 
L 500 4441 
Q 881 4594 1212 4672 
Q 1544 4750 1819 4750 
Q 2544 4750 2975 4387 
Q 3406 4025 3406 3419 
Q 3406 3131 3298 2873 
Q 3191 2616 2906 2266 
Q 2828 2175 2409 1742 
Q 1991 1309 1228 531 
z
" transform="scale(0.015625)"/>
        <path id="DejaVuSans-35" d="M 691 4666 
L 3169 4666 
L 3169 4134 
L 1269 4134 
L 1269 2991 
Q 1406 3038 1543 3061 
Q 1681 3084 1819 3084 
Q 2600 3084 3056 2656 
Q 3513 2228 3513 1497 
Q 3513 744 3044 326 
Q 2575 -91 1722 -91 
Q 1428 -91 1123 -41 
Q 819 9 494 109 
L 494 744 
Q 775 591 1075 516 
Q 1375 441 1709 441 
Q 2250 441 2565 725 
Q 2881 1009 2881 1497 
Q 2881 1984 2565 2268 
Q 2250 2553 1709 2553 
Q 1456 2553 1204 2497 
Q 953 2441 691 2322 
L 691 4666 
z
" transform="scale(0.015625)"/>
       </defs>
       <use xlink:href="#DejaVuSans-32"/>
       <use xlink:href="#DejaVuSans-35" x="63.623047"/>
       <use xlink:href="#DejaVuSans-30" x="127.246094"/>
      </g>
     </g>
    </g>
    <g id="xtick_3">
     <g id="line2d_3">
      <g>
       <use xlink:href="#m31cee8dd0e" x="179.390909" y="252" style="stroke: #000000; stroke-width: 0.8"/>
      </g>
     </g>
     <g id="text_3">
      <!-- 500 -->
      <g transform="translate(169.847159 266.598437) scale(0.1 -0.1)">
       <use xlink:href="#DejaVuSans-35"/>
       <use xlink:href="#DejaVuSans-30" x="63.623047"/>
       <use xlink:href="#DejaVuSans-30" x="127.246094"/>
      </g>
     </g>
    </g>
    <g id="xtick_4">
     <g id="line2d_4">
      <g>
       <use xlink:href="#m31cee8dd0e" x="228.709091" y="252" style="stroke: #000000; stroke-width: 0.8"/>
      </g>
     </g>
     <g id="text_4">
      <!-- 750 -->
      <g transform="translate(219.165341 266.598437) scale(0.1 -0.1)">
       <defs>
        <path id="DejaVuSans-37" d="M 525 4666 
L 3525 4666 
L 3525 4397 
L 1831 0 
L 1172 0 
L 2766 4134 
L 525 4134 
L 525 4666 
z
" transform="scale(0.015625)"/>
       </defs>
       <use xlink:href="#DejaVuSans-37"/>
       <use xlink:href="#DejaVuSans-35" x="63.623047"/>
       <use xlink:href="#DejaVuSans-30" x="127.246094"/>
      </g>
     </g>
    </g>
    <g id="xtick_5">
     <g id="line2d_5">
      <g>
       <use xlink:href="#m31cee8dd0e" x="278.027273" y="252" style="stroke: #000000; stroke-width: 0.8"/>
      </g>
     </g>
     <g id="text_5">
      <!-- 1000 -->
      <g transform="translate(265.302273 266.598437) scale(0.1 -0.1)">
       <defs>
        <path id="DejaVuSans-31" d="M 794 531 
L 1825 531 
L 1825 4091 
L 703 3866 
L 703 4441 
L 1819 4666 
L 2450 4666 
L 2450 531 
L 3481 531 
L 3481 0 
L 794 0 
L 794 531 
z
" transform="scale(0.015625)"/>
       </defs>
       <use xlink:href="#DejaVuSans-31"/>
       <use xlink:href="#DejaVuSans-30" x="63.623047"/>
       <use xlink:href="#DejaVuSans-30" x="127.246094"/>
       <use xlink:href="#DejaVuSans-30" x="190.869141"/>
      </g>
     </g>
    </g>
    <g id="xtick_6">
     <g id="line2d_6">
      <g>
       <use xlink:href="#m31cee8dd0e" x="327.345455" y="252" style="stroke: #000000; stroke-width: 0.8"/>
      </g>
     </g>
     <g id="text_6">
      <!-- 1250 -->
      <g transform="translate(314.620455 266.598437) scale(0.1 -0.1)">
       <use xlink:href="#DejaVuSans-31"/>
       <use xlink:href="#DejaVuSans-32" x="63.623047"/>
       <use xlink:href="#DejaVuSans-35" x="127.246094"/>
       <use xlink:href="#DejaVuSans-30" x="190.869141"/>
      </g>
     </g>
    </g>
    <g id="xtick_7">
     <g id="line2d_7">
      <g>
       <use xlink:href="#m31cee8dd0e" x="376.663636" y="252" style="stroke: #000000; stroke-width: 0.8"/>
      </g>
     </g>
     <g id="text_7">
      <!-- 1500 -->
      <g transform="translate(363.938636 266.598437) scale(0.1 -0.1)">
       <use xlink:href="#DejaVuSans-31"/>
       <use xlink:href="#DejaVuSans-35" x="63.623047"/>
       <use xlink:href="#DejaVuSans-30" x="127.246094"/>
       <use xlink:href="#DejaVuSans-30" x="190.869141"/>
      </g>
     </g>
    </g>
    <g id="xtick_8">
     <g id="line2d_8">
      <g>
       <use xlink:href="#m31cee8dd0e" x="425.981818" y="252" style="stroke: #000000; stroke-width: 0.8"/>
      </g>
     </g>
     <g id="text_8">
      <!-- 1750 -->
      <g transform="translate(413.256818 266.598437) scale(0.1 -0.1)">
       <use xlink:href="#DejaVuSans-31"/>
       <use xlink:href="#DejaVuSans-37" x="63.623047"/>
       <use xlink:href="#DejaVuSans-35" x="127.246094"/>
       <use xlink:href="#DejaVuSans-30" x="190.869141"/>
      </g>
     </g>
    </g>
    <g id="text_9">
     <!-- Time (s) -->
     <g transform="translate(227.806641 284.075781) scale(0.15 -0.15)">
      <defs>
       <path id="DejaVuSans-54" d="M -19 4666 
L 3928 4666 
L 3928 4134 
L 2272 4134 
L 2272 0 
L 1638 0 
L 1638 4134 
L -19 4134 
L -19 4666 
z
" transform="scale(0.015625)"/>
       <path id="DejaVuSans-69" d="M 603 3500 
L 1178 3500 
L 1178 0 
L 603 0 
L 603 3500 
z
M 603 4863 
L 1178 4863 
L 1178 4134 
L 603 4134 
L 603 4863 
z
" transform="scale(0.015625)"/>
       <path id="DejaVuSans-6d" d="M 3328 2828 
Q 3544 3216 3844 3400 
Q 4144 3584 4550 3584 
Q 5097 3584 5394 3201 
Q 5691 2819 5691 2113 
L 5691 0 
L 5113 0 
L 5113 2094 
Q 5113 2597 4934 2840 
Q 4756 3084 4391 3084 
Q 3944 3084 3684 2787 
Q 3425 2491 3425 1978 
L 3425 0 
L 2847 0 
L 2847 2094 
Q 2847 2600 2669 2842 
Q 2491 3084 2119 3084 
Q 1678 3084 1418 2786 
Q 1159 2488 1159 1978 
L 1159 0 
L 581 0 
L 581 3500 
L 1159 3500 
L 1159 2956 
Q 1356 3278 1631 3431 
Q 1906 3584 2284 3584 
Q 2666 3584 2933 3390 
Q 3200 3197 3328 2828 
z
" transform="scale(0.015625)"/>
       <path id="DejaVuSans-65" d="M 3597 1894 
L 3597 1613 
L 953 1613 
Q 991 1019 1311 708 
Q 1631 397 2203 397 
Q 2534 397 2845 478 
Q 3156 559 3463 722 
L 3463 178 
Q 3153 47 2828 -22 
Q 2503 -91 2169 -91 
Q 1331 -91 842 396 
Q 353 884 353 1716 
Q 353 2575 817 3079 
Q 1281 3584 2069 3584 
Q 2775 3584 3186 3129 
Q 3597 2675 3597 1894 
z
M 3022 2063 
Q 3016 2534 2758 2815 
Q 2500 3097 2075 3097 
Q 1594 3097 1305 2825 
Q 1016 2553 972 2059 
L 3022 2063 
z
" transform="scale(0.015625)"/>
       <path id="DejaVuSans-20" transform="scale(0.015625)"/>
       <path id="DejaVuSans-28" d="M 1984 4856 
Q 1566 4138 1362 3434 
Q 1159 2731 1159 2009 
Q 1159 1288 1364 580 
Q 1569 -128 1984 -844 
L 1484 -844 
Q 1016 -109 783 600 
Q 550 1309 550 2009 
Q 550 2706 781 3412 
Q 1013 4119 1484 4856 
L 1984 4856 
z
" transform="scale(0.015625)"/>
       <path id="DejaVuSans-73" d="M 2834 3397 
L 2834 2853 
Q 2591 2978 2328 3040 
Q 2066 3103 1784 3103 
Q 1356 3103 1142 2972 
Q 928 2841 928 2578 
Q 928 2378 1081 2264 
Q 1234 2150 1697 2047 
L 1894 2003 
Q 2506 1872 2764 1633 
Q 3022 1394 3022 966 
Q 3022 478 2636 193 
Q 2250 -91 1575 -91 
Q 1294 -91 989 -36 
Q 684 19 347 128 
L 347 722 
Q 666 556 975 473 
Q 1284 391 1588 391 
Q 1994 391 2212 530 
Q 2431 669 2431 922 
Q 2431 1156 2273 1281 
Q 2116 1406 1581 1522 
L 1381 1569 
Q 847 1681 609 1914 
Q 372 2147 372 2553 
Q 372 3047 722 3315 
Q 1072 3584 1716 3584 
Q 2034 3584 2315 3537 
Q 2597 3491 2834 3397 
z
" transform="scale(0.015625)"/>
       <path id="DejaVuSans-29" d="M 513 4856 
L 1013 4856 
Q 1481 4119 1714 3412 
Q 1947 2706 1947 2009 
Q 1947 1309 1714 600 
Q 1481 -109 1013 -844 
L 513 -844 
Q 928 -128 1133 580 
Q 1338 1288 1338 2009 
Q 1338 2731 1133 3434 
Q 928 4138 513 4856 
z
" transform="scale(0.015625)"/>
      </defs>
      <use xlink:href="#DejaVuSans-54"/>
      <use xlink:href="#DejaVuSans-69" x="57.958984"/>
      <use xlink:href="#DejaVuSans-6d" x="85.742188"/>
      <use xlink:href="#DejaVuSans-65" x="183.154297"/>
      <use xlink:href="#DejaVuSans-20" x="244.677734"/>
      <use xlink:href="#DejaVuSans-28" x="276.464844"/>
      <use xlink:href="#DejaVuSans-73" x="315.478516"/>
      <use xlink:href="#DejaVuSans-29" x="367.578125"/>
     </g>
    </g>
   </g>
   <g id="matplotlib.axis_2">
    <g id="ytick_1">
     <g id="line2d_9">
      <defs>
       <path id="mdc01931d3a" d="M 0 0 
L -3.5 0 
" style="stroke: #000000; stroke-width: 0.8"/>
      </defs>
      <g>
       <use xlink:href="#mdc01931d3a" x="63" y="241.134703" style="stroke: #000000; stroke-width: 0.8"/>
      </g>
     </g>
     <g id="text_10">
      <!-- 0.000 -->
      <g transform="translate(27.371875 244.933922) scale(0.1 -0.1)">
       <defs>
        <path id="DejaVuSans-2e" d="M 684 794 
L 1344 794 
L 1344 0 
L 684 0 
L 684 794 
z
" transform="scale(0.015625)"/>
       </defs>
       <use xlink:href="#DejaVuSans-30"/>
       <use xlink:href="#DejaVuSans-2e" x="63.623047"/>
       <use xlink:href="#DejaVuSans-30" x="95.410156"/>
       <use xlink:href="#DejaVuSans-30" x="159.033203"/>
       <use xlink:href="#DejaVuSans-30" x="222.65625"/>
      </g>
     </g>
    </g>
    <g id="ytick_2">
     <g id="line2d_10">
      <g>
       <use xlink:href="#mdc01931d3a" x="63" y="206.669427" style="stroke: #000000; stroke-width: 0.8"/>
      </g>
     </g>
     <g id="text_11">
      <!-- 0.005 -->
      <g transform="translate(27.371875 210.468646) scale(0.1 -0.1)">
       <use xlink:href="#DejaVuSans-30"/>
       <use xlink:href="#DejaVuSans-2e" x="63.623047"/>
       <use xlink:href="#DejaVuSans-30" x="95.410156"/>
       <use xlink:href="#DejaVuSans-30" x="159.033203"/>
       <use xlink:href="#DejaVuSans-35" x="222.65625"/>
      </g>
     </g>
    </g>
    <g id="ytick_3">
     <g id="line2d_11">
      <g>
       <use xlink:href="#mdc01931d3a" x="63" y="172.204152" style="stroke: #000000; stroke-width: 0.8"/>
      </g>
     </g>
     <g id="text_12">
      <!-- 0.010 -->
      <g transform="translate(27.371875 176.003371) scale(0.1 -0.1)">
       <use xlink:href="#DejaVuSans-30"/>
       <use xlink:href="#DejaVuSans-2e" x="63.623047"/>
       <use xlink:href="#DejaVuSans-30" x="95.410156"/>
       <use xlink:href="#DejaVuSans-31" x="159.033203"/>
       <use xlink:href="#DejaVuSans-30" x="222.65625"/>
      </g>
     </g>
    </g>
    <g id="ytick_4">
     <g id="line2d_12">
      <g>
       <use xlink:href="#mdc01931d3a" x="63" y="137.738876" style="stroke: #000000; stroke-width: 0.8"/>
      </g>
     </g>
     <g id="text_13">
      <!-- 0.015 -->
      <g transform="translate(27.371875 141.538095) scale(0.1 -0.1)">
       <use xlink:href="#DejaVuSans-30"/>
       <use xlink:href="#DejaVuSans-2e" x="63.623047"/>
       <use xlink:href="#DejaVuSans-30" x="95.410156"/>
       <use xlink:href="#DejaVuSans-31" x="159.033203"/>
       <use xlink:href="#DejaVuSans-35" x="222.65625"/>
      </g>
     </g>
    </g>
    <g id="ytick_5">
     <g id="line2d_13">
      <g>
       <use xlink:href="#mdc01931d3a" x="63" y="103.273601" style="stroke: #000000; stroke-width: 0.8"/>
      </g>
     </g>
     <g id="text_14">
      <!-- 0.020 -->
      <g transform="translate(27.371875 107.07282) scale(0.1 -0.1)">
       <use xlink:href="#DejaVuSans-30"/>
       <use xlink:href="#DejaVuSans-2e" x="63.623047"/>
       <use xlink:href="#DejaVuSans-30" x="95.410156"/>
       <use xlink:href="#DejaVuSans-32" x="159.033203"/>
       <use xlink:href="#DejaVuSans-30" x="222.65625"/>
      </g>
     </g>
    </g>
    <g id="ytick_6">
     <g id="line2d_14">
      <g>
       <use xlink:href="#mdc01931d3a" x="63" y="68.808325" style="stroke: #000000; stroke-width: 0.8"/>
      </g>
     </g>
     <g id="text_15">
      <!-- 0.025 -->
      <g transform="translate(27.371875 72.607544) scale(0.1 -0.1)">
       <use xlink:href="#DejaVuSans-30"/>
       <use xlink:href="#DejaVuSans-2e" x="63.623047"/>
       <use xlink:href="#DejaVuSans-30" x="95.410156"/>
       <use xlink:href="#DejaVuSans-32" x="159.033203"/>
       <use xlink:href="#DejaVuSans-35" x="222.65625"/>
      </g>
     </g>
    </g>
    <g id="text_16">
     <!-- Concentration (mol/m$^3$) -->
     <g transform="translate(20.252344 232.005) rotate(-90) scale(0.15 -0.15)">
      <defs>
       <path id="DejaVuSans-43" d="M 4122 4306 
L 4122 3641 
Q 3803 3938 3442 4084 
Q 3081 4231 2675 4231 
Q 1875 4231 1450 3742 
Q 1025 3253 1025 2328 
Q 1025 1406 1450 917 
Q 1875 428 2675 428 
Q 3081 428 3442 575 
Q 3803 722 4122 1019 
L 4122 359 
Q 3791 134 3420 21 
Q 3050 -91 2638 -91 
Q 1578 -91 968 557 
Q 359 1206 359 2328 
Q 359 3453 968 4101 
Q 1578 4750 2638 4750 
Q 3056 4750 3426 4639 
Q 3797 4528 4122 4306 
z
" transform="scale(0.015625)"/>
       <path id="DejaVuSans-6f" d="M 1959 3097 
Q 1497 3097 1228 2736 
Q 959 2375 959 1747 
Q 959 1119 1226 758 
Q 1494 397 1959 397 
Q 2419 397 2687 759 
Q 2956 1122 2956 1747 
Q 2956 2369 2687 2733 
Q 2419 3097 1959 3097 
z
M 1959 3584 
Q 2709 3584 3137 3096 
Q 3566 2609 3566 1747 
Q 3566 888 3137 398 
Q 2709 -91 1959 -91 
Q 1206 -91 779 398 
Q 353 888 353 1747 
Q 353 2609 779 3096 
Q 1206 3584 1959 3584 
z
" transform="scale(0.015625)"/>
       <path id="DejaVuSans-6e" d="M 3513 2113 
L 3513 0 
L 2938 0 
L 2938 2094 
Q 2938 2591 2744 2837 
Q 2550 3084 2163 3084 
Q 1697 3084 1428 2787 
Q 1159 2491 1159 1978 
L 1159 0 
L 581 0 
L 581 3500 
L 1159 3500 
L 1159 2956 
Q 1366 3272 1645 3428 
Q 1925 3584 2291 3584 
Q 2894 3584 3203 3211 
Q 3513 2838 3513 2113 
z
" transform="scale(0.015625)"/>
       <path id="DejaVuSans-63" d="M 3122 3366 
L 3122 2828 
Q 2878 2963 2633 3030 
Q 2388 3097 2138 3097 
Q 1578 3097 1268 2742 
Q 959 2388 959 1747 
Q 959 1106 1268 751 
Q 1578 397 2138 397 
Q 2388 397 2633 464 
Q 2878 531 3122 666 
L 3122 134 
Q 2881 22 2623 -34 
Q 2366 -91 2075 -91 
Q 1284 -91 818 406 
Q 353 903 353 1747 
Q 353 2603 823 3093 
Q 1294 3584 2113 3584 
Q 2378 3584 2631 3529 
Q 2884 3475 3122 3366 
z
" transform="scale(0.015625)"/>
       <path id="DejaVuSans-74" d="M 1172 4494 
L 1172 3500 
L 2356 3500 
L 2356 3053 
L 1172 3053 
L 1172 1153 
Q 1172 725 1289 603 
Q 1406 481 1766 481 
L 2356 481 
L 2356 0 
L 1766 0 
Q 1100 0 847 248 
Q 594 497 594 1153 
L 594 3053 
L 172 3053 
L 172 3500 
L 594 3500 
L 594 4494 
L 1172 4494 
z
" transform="scale(0.015625)"/>
       <path id="DejaVuSans-72" d="M 2631 2963 
Q 2534 3019 2420 3045 
Q 2306 3072 2169 3072 
Q 1681 3072 1420 2755 
Q 1159 2438 1159 1844 
L 1159 0 
L 581 0 
L 581 3500 
L 1159 3500 
L 1159 2956 
Q 1341 3275 1631 3429 
Q 1922 3584 2338 3584 
Q 2397 3584 2469 3576 
Q 2541 3569 2628 3553 
L 2631 2963 
z
" transform="scale(0.015625)"/>
       <path id="DejaVuSans-61" d="M 2194 1759 
Q 1497 1759 1228 1600 
Q 959 1441 959 1056 
Q 959 750 1161 570 
Q 1363 391 1709 391 
Q 2188 391 2477 730 
Q 2766 1069 2766 1631 
L 2766 1759 
L 2194 1759 
z
M 3341 1997 
L 3341 0 
L 2766 0 
L 2766 531 
Q 2569 213 2275 61 
Q 1981 -91 1556 -91 
Q 1019 -91 701 211 
Q 384 513 384 1019 
Q 384 1609 779 1909 
Q 1175 2209 1959 2209 
L 2766 2209 
L 2766 2266 
Q 2766 2663 2505 2880 
Q 2244 3097 1772 3097 
Q 1472 3097 1187 3025 
Q 903 2953 641 2809 
L 641 3341 
Q 956 3463 1253 3523 
Q 1550 3584 1831 3584 
Q 2591 3584 2966 3190 
Q 3341 2797 3341 1997 
z
" transform="scale(0.015625)"/>
       <path id="DejaVuSans-6c" d="M 603 4863 
L 1178 4863 
L 1178 0 
L 603 0 
L 603 4863 
z
" transform="scale(0.015625)"/>
       <path id="DejaVuSans-2f" d="M 1625 4666 
L 2156 4666 
L 531 -594 
L 0 -594 
L 1625 4666 
z
" transform="scale(0.015625)"/>
       <path id="DejaVuSans-33" d="M 2597 2516 
Q 3050 2419 3304 2112 
Q 3559 1806 3559 1356 
Q 3559 666 3084 287 
Q 2609 -91 1734 -91 
Q 1441 -91 1130 -33 
Q 819 25 488 141 
L 488 750 
Q 750 597 1062 519 
Q 1375 441 1716 441 
Q 2309 441 2620 675 
Q 2931 909 2931 1356 
Q 2931 1769 2642 2001 
Q 2353 2234 1838 2234 
L 1294 2234 
L 1294 2753 
L 1863 2753 
Q 2328 2753 2575 2939 
Q 2822 3125 2822 3475 
Q 2822 3834 2567 4026 
Q 2313 4219 1838 4219 
Q 1578 4219 1281 4162 
Q 984 4106 628 3988 
L 628 4550 
Q 988 4650 1302 4700 
Q 1616 4750 1894 4750 
Q 2613 4750 3031 4423 
Q 3450 4097 3450 3541 
Q 3450 3153 3228 2886 
Q 3006 2619 2597 2516 
z
" transform="scale(0.015625)"/>
      </defs>
      <use xlink:href="#DejaVuSans-43" transform="translate(0 0.765625)"/>
      <use xlink:href="#DejaVuSans-6f" transform="translate(69.824219 0.765625)"/>
      <use xlink:href="#DejaVuSans-6e" transform="translate(131.005859 0.765625)"/>
      <use xlink:href="#DejaVuSans-63" transform="translate(194.384766 0.765625)"/>
      <use xlink:href="#DejaVuSans-65" transform="translate(249.365234 0.765625)"/>
      <use xlink:href="#DejaVuSans-6e" transform="translate(310.888672 0.765625)"/>
      <use xlink:href="#DejaVuSans-74" transform="translate(374.267578 0.765625)"/>
      <use xlink:href="#DejaVuSans-72" transform="translate(413.476562 0.765625)"/>
      <use xlink:href="#DejaVuSans-61" transform="translate(454.589844 0.765625)"/>
      <use xlink:href="#DejaVuSans-74" transform="translate(515.869141 0.765625)"/>
      <use xlink:href="#DejaVuSans-69" transform="translate(555.078125 0.765625)"/>
      <use xlink:href="#DejaVuSans-6f" transform="translate(582.861328 0.765625)"/>
      <use xlink:href="#DejaVuSans-6e" transform="translate(644.042969 0.765625)"/>
      <use xlink:href="#DejaVuSans-20" transform="translate(707.421875 0.765625)"/>
      <use xlink:href="#DejaVuSans-28" transform="translate(739.208984 0.765625)"/>
      <use xlink:href="#DejaVuSans-6d" transform="translate(778.222656 0.765625)"/>
      <use xlink:href="#DejaVuSans-6f" transform="translate(875.634766 0.765625)"/>
      <use xlink:href="#DejaVuSans-6c" transform="translate(936.816406 0.765625)"/>
      <use xlink:href="#DejaVuSans-2f" transform="translate(964.599609 0.765625)"/>
      <use xlink:href="#DejaVuSans-6d" transform="translate(998.291016 0.765625)"/>
      <use xlink:href="#DejaVuSans-33" transform="translate(1096.660156 39.046875) scale(0.7)"/>
      <use xlink:href="#DejaVuSans-29" transform="translate(1143.930664 0.765625)"/>
     </g>
    </g>
   </g>
   <g id="line2d_15">
    <path d="M 80.754545 241.134703 
L 80.951818 241.280146 
L 82.727273 241.409047 
L 82.924545 241.201841 
L 84.897273 241.165997 
L 126.916364 241.1143 
L 134.807273 241.205012 
L 163.411818 240.996153 
L 168.146364 240.726634 
L 171.697273 240.313478 
L 174.656364 239.761303 
L 177.418182 239.026379 
L 179.982727 238.118219 
L 182.547273 236.964067 
L 184.914545 235.661211 
L 187.281818 234.11789 
L 189.846364 232.167211 
L 192.410909 229.926065 
L 195.172727 227.195712 
L 197.934545 224.154103 
L 201.090909 220.330029 
L 204.444545 215.912746 
L 208.39 210.339304 
L 213.519091 202.673916 
L 230.287273 177.278681 
L 234.824545 170.977354 
L 238.967273 165.600233 
L 242.715455 161.082449 
L 246.463636 156.916789 
L 250.014545 153.307606 
L 253.368182 150.207007 
L 256.721818 147.410039 
L 259.878182 145.058191 
L 263.034545 142.981651 
L 265.993636 141.2882 
L 268.952727 139.843505 
L 271.911818 138.651586 
L 274.673636 137.77095 
L 277.435455 137.117674 
L 278.816364 136.877327 
L 280 136.741148 
L 280 136.694992 
L 284.734545 136.508073 
L 286.707273 136.625262 
L 287.890909 136.7535 
L 287.890909 136.779094 
L 289.863636 136.958003 
L 289.469091 136.992041 
L 290.258182 137.140221 
L 289.863636 137.180277 
L 291.836364 137.3525 
L 291.441818 137.398559 
L 291.836364 137.445811 
L 291.836364 137.543906 
L 293.809091 137.754441 
L 293.02 137.810061 
L 293.809091 137.866867 
L 293.414545 137.924865 
L 293.809091 138.044418 
L 293.809091 138.105973 
L 294.203636 138.168713 
L 293.809091 138.23264 
L 295.781818 138.500145 
L 295.387273 138.569972 
L 295.781818 138.713134 
L 295.781818 138.786476 
L 296.176364 138.860983 
L 295.781818 138.936662 
L 297.754545 139.091514 
L 296.965455 139.170681 
L 297.754545 139.25102 
L 297.36 139.332509 
L 297.754545 139.498956 
L 297.754545 139.583913 
L 298.149091 139.670021 
L 297.754545 139.757273 
L 299.727273 139.935224 
L 298.938182 140.025909 
L 299.727273 140.117739 
L 299.332727 140.210705 
L 299.727273 140.400044 
L 299.727273 140.496402 
L 300.121818 140.593897 
L 299.727273 140.692516 
L 301.7 140.893118 
L 300.910909 140.995094 
L 301.7 141.098186 
L 301.305455 141.202395 
L 301.7 141.414129 
L 301.7 141.521654 
L 302.094545 141.630282 
L 301.7 141.740005 
L 303.672727 141.962734 
L 302.883636 142.075738 
L 303.672727 142.189825 
L 303.278182 142.304995 
L 303.672727 142.421239 
L 303.672727 142.656968 
L 304.067273 142.776431 
L 303.672727 142.89697 
L 305.645455 143.141226 
L 304.856364 143.264942 
L 305.645455 143.389706 
L 305.250909 143.515525 
L 305.645455 143.642392 
L 305.645455 143.899241 
L 306.04 144.029223 
L 305.645455 144.160233 
L 307.618182 144.42534 
L 306.829091 144.559423 
L 307.618182 144.69452 
L 307.223636 144.830631 
L 307.618182 144.967754 
L 307.618182 145.245007 
L 308.012727 145.385129 
L 307.618182 145.526243 
L 309.590909 145.811437 
L 308.801818 145.955501 
L 309.590909 146.100545 
L 309.196364 146.246561 
L 309.590909 146.393548 
L 309.590909 146.690398 
L 309.985455 146.840253 
L 309.590909 146.991066 
L 311.563636 147.295511 
L 310.774545 147.449144 
L 311.563636 147.603714 
L 311.169091 147.7592 
L 311.563636 147.915617 
L 311.563636 148.231195 
L 311.958182 148.390349 
L 311.563636 148.550406 
L 313.536364 148.873214 
L 312.747273 149.03596 
L 313.536364 149.199587 
L 313.141818 149.36409 
L 313.536364 149.529475 
L 313.536364 149.862844 
L 313.930909 150.03082 
L 313.536364 150.199652 
L 315.509091 150.539859 
L 314.72 150.71122 
L 315.509091 150.883422 
L 315.114545 151.056452 
L 315.509091 151.230302 
L 315.509091 151.580462 
L 315.903636 151.756752 
L 315.509091 151.933848 
L 317.481818 152.290433 
L 316.692727 152.469907 
L 317.481818 152.650161 
L 317.087273 152.831186 
L 317.481818 153.01299 
L 317.481818 153.378881 
L 317.876364 153.56296 
L 317.481818 153.747783 
L 319.454545 154.119663 
L 318.665455 154.3067 
L 319.454545 154.49446 
L 319.06 154.682943 
L 319.454545 154.872144 
L 319.454545 155.252661 
L 319.849091 155.443964 
L 319.454545 155.635963 
L 321.427273 156.022009 
L 320.638182 156.216041 
L 321.427273 156.410743 
L 321.032727 156.606113 
L 321.427273 156.80213 
L 321.427273 157.196117 
L 321.821818 157.394071 
L 321.427273 157.59266 
L 323.4 157.991699 
L 322.610909 158.192149 
L 323.4 158.393199 
L 323.005455 158.594855 
L 323.4 158.797111 
L 323.4 159.203374 
L 323.794545 159.407381 
L 323.4 159.611953 
L 325.372727 160.022786 
L 324.583636 160.22904 
L 325.372727 160.435839 
L 324.978182 160.643175 
L 325.372727 160.851042 
L 325.372727 161.268368 
L 325.767273 161.4778 
L 325.372727 161.687749 
L 327.345455 162.109142 
L 326.556364 162.320579 
L 327.345455 162.532492 
L 326.950909 162.744895 
L 327.345455 162.95776 
L 327.345455 163.384888 
L 327.74 163.599131 
L 327.345455 163.813815 
L 329.318182 164.244507 
L 328.529091 164.460501 
L 329.318182 164.676908 
L 328.923636 164.893729 
L 329.318182 165.110957 
L 329.318182 165.546619 
L 329.712727 165.765032 
L 329.318182 165.983831 
L 331.290909 166.42254 
L 330.501818 166.642449 
L 331.290909 166.862703 
L 330.896364 167.083315 
L 331.290909 167.304265 
L 331.290909 167.747178 
L 331.685455 167.969121 
L 331.290909 168.191381 
L 333.263636 168.63683 
L 332.474545 168.860007 
L 333.263636 169.08348 
L 332.869091 169.307228 
L 333.263636 169.531259 
L 333.263636 169.980135 
L 333.658182 170.204966 
L 333.263636 170.430052 
L 335.236364 170.880947 
L 334.447273 171.10675 
L 335.236364 171.332787 
L 334.841818 171.559038 
L 335.236364 171.785502 
L 335.236364 172.239058 
L 335.630909 172.466129 
L 335.236364 172.693393 
L 337.209091 173.148459 
L 336.42 173.376254 
L 337.209091 173.604207 
L 336.814545 173.832326 
L 337.209091 174.060589 
L 337.209091 174.517544 
L 337.603636 174.746221 
L 337.209091 174.975029 
L 339.181818 175.432997 
L 338.392727 175.662136 
L 339.181818 175.891385 
L 338.787273 176.120724 
L 339.181818 176.350152 
L 339.181818 176.809257 
L 339.576364 177.038913 
L 339.181818 177.268631 
L 341.154545 177.728239 
L 340.365455 177.958109 
L 341.154545 178.188027 
L 340.76 178.417972 
L 341.154545 178.647945 
L 341.154545 179.107946 
L 341.549091 179.337961 
L 341.154545 179.567982 
L 343.127273 180.028004 
L 342.338182 180.257991 
L 343.127273 180.487964 
L 342.732727 180.717902 
L 343.127273 180.947813 
L 343.127273 181.407504 
L 343.521818 181.637277 
L 343.127273 181.866995 
L 345.1 182.326231 
L 344.310909 182.555742 
L 345.1 182.785171 
L 344.705455 183.014516 
L 345.1 183.243766 
L 345.1 183.701975 
L 345.494545 183.930921 
L 345.1 184.159749 
L 347.072727 184.617041 
L 346.283636 184.845491 
L 347.072727 185.07381 
L 346.678182 185.301984 
L 347.072727 185.530006 
L 347.072727 185.985596 
L 347.467273 186.213142 
L 347.072727 186.440523 
L 349.045455 186.894755 
L 348.256364 187.121592 
L 349.045455 187.348235 
L 348.650909 187.574686 
L 349.045455 187.800937 
L 349.045455 188.252811 
L 349.44 188.478421 
L 349.045455 188.70381 
L 351.018182 189.153899 
L 350.229091 189.378592 
L 351.018182 189.603043 
L 350.623636 189.82724 
L 351.018182 190.051188 
L 351.018182 190.498306 
L 351.412727 190.721462 
L 351.018182 190.944349 
L 352.990909 191.389282 
L 352.201818 191.611321 
L 352.990909 191.833064 
L 352.596364 192.054517 
L 352.990909 192.27566 
L 352.990909 192.717036 
L 353.385455 192.937248 
L 352.990909 193.157144 
L 354.963636 193.595956 
L 354.174545 193.814858 
L 354.963636 194.03343 
L 354.569091 194.251651 
L 354.963636 194.469533 
L 354.963636 194.90423 
L 355.358182 195.121037 
L 354.963636 195.337486 
L 356.936364 195.76926 
L 356.147273 195.984592 
L 356.936364 196.199532 
L 356.541818 196.414092 
L 356.936364 196.628266 
L 356.936364 197.055415 
L 357.330909 197.268389 
L 356.936364 197.480964 
L 358.909091 197.904867 
L 358.12 198.116201 
L 358.909091 198.327107 
L 358.514545 198.537587 
L 358.909091 198.747639 
L 358.909091 199.166447 
L 359.303636 199.37519 
L 358.909091 199.583491 
L 360.881818 199.998749 
L 360.092727 200.205692 
L 360.881818 200.412181 
L 360.487273 200.618207 
L 360.881818 200.823772 
L 360.881818 201.233488 
L 361.276364 201.43764 
L 360.881818 201.641309 
L 362.854545 202.0472 
L 362.065455 202.249414 
L 362.854545 202.45114 
L 362.46 202.652369 
L 362.854545 202.853094 
L 362.854545 203.253057 
L 363.249091 203.45228 
L 362.854545 203.650986 
L 364.827273 204.046868 
L 364.038182 204.244037 
L 364.827273 204.440682 
L 364.432727 204.636803 
L 364.827273 204.832394 
L 364.827273 205.221996 
L 365.221818 205.415994 
L 364.827273 205.609455 
L 366.8 205.994756 
L 366.010909 206.18659 
L 366.8 206.377872 
L 366.405455 206.56861 
L 366.8 206.758796 
L 366.8 207.1375 
L 367.194545 207.326012 
L 366.8 207.513965 
L 368.772727 207.888182 
L 367.983636 208.074439 
L 368.772727 208.260124 
L 368.378182 208.445237 
L 368.772727 208.629771 
L 368.772727 208.997123 
L 369.167273 209.179926 
L 368.772727 209.362144 
L 370.745455 209.724836 
L 369.956364 209.905296 
L 370.745455 210.085177 
L 370.350909 210.264459 
L 370.745455 210.443148 
L 370.745455 210.798747 
L 371.14 210.975643 
L 370.745455 211.151947 
L 372.718182 211.502748 
L 371.929091 211.677239 
L 372.718182 211.85113 
L 372.323636 212.024414 
L 372.718182 212.197086 
L 372.718182 212.540601 
L 373.112727 212.711445 
L 372.718182 212.881669 
L 374.690909 213.220284 
L 373.901818 213.38866 
L 374.690909 213.556424 
L 374.296364 213.723566 
L 374.690909 213.890089 
L 374.690909 214.221266 
L 375.085455 214.38592 
L 374.690909 214.549954 
L 376.663636 214.87614 
L 375.874545 215.038293 
L 376.663636 215.199817 
L 376.269091 215.360715 
L 376.663636 215.520986 
L 376.663636 215.839631 
L 377.058182 215.998006 
L 376.663636 216.155753 
L 378.636364 216.469346 
L 377.847273 216.625191 
L 378.636364 216.780409 
L 378.241818 216.934986 
L 378.636364 217.088928 
L 378.636364 217.394911 
L 379.030909 217.546951 
L 378.636364 217.69835 
L 380.609091 217.999239 
L 379.82 218.148735 
L 380.609091 218.297584 
L 380.214545 218.445799 
L 380.609091 218.593379 
L 380.609091 218.886623 
L 381.003636 219.032287 
L 380.609091 219.177317 
L 382.581818 219.465461 
L 381.792727 219.608574 
L 382.581818 219.751047 
L 382.187273 219.892885 
L 382.581818 220.034089 
L 382.581818 220.314582 
L 382.976364 220.45387 
L 382.581818 220.592523 
L 384.554545 220.867922 
L 383.765455 221.004666 
L 384.554545 221.140769 
L 384.16 221.276245 
L 384.554545 221.411087 
L 384.554545 221.678862 
L 384.949091 221.811801 
L 384.554545 221.9441 
L 386.527273 222.206815 
L 385.738182 222.337225 
L 386.527273 222.467 
L 386.132727 222.596148 
L 386.527273 222.724669 
L 386.527273 222.979816 
L 386.921818 223.106448 
L 386.527273 223.232453 
L 388.5 223.482588 
L 387.710909 223.606718 
L 388.5 223.730228 
L 388.105455 223.853111 
L 388.5 223.975373 
L 388.5 224.218029 
L 388.894545 224.33843 
L 388.5 224.458211 
L 390.472727 224.695925 
L 389.683636 224.813851 
L 390.472727 224.931171 
L 390.078182 225.04787 
L 390.472727 225.279442 
L 390.472727 225.394308 
L 390.867273 225.508568 
L 390.472727 225.62222 
L 392.445455 225.847706 
L 391.656364 225.959539 
L 392.445455 226.070765 
L 392.050909 226.181392 
L 392.445455 226.400846 
L 392.445455 226.509673 
L 392.84 226.617908 
L 392.445455 226.725543 
L 394.418182 226.939028 
L 393.629091 227.044885 
L 394.418182 227.150149 
L 394.023636 227.25482 
L 394.418182 227.462411 
L 394.418182 227.565324 
L 394.812727 227.667658 
L 394.418182 227.769407 
L 396.390909 227.971167 
L 395.601818 228.071178 
L 396.390909 228.17061 
L 395.996364 228.26947 
L 396.390909 228.465474 
L 396.390909 228.562625 
L 396.785455 228.659197 
L 396.390909 228.75521 
L 398.363636 228.945534 
L 397.574545 229.039859 
L 398.363636 229.133618 
L 397.969091 229.226819 
L 398.363636 229.411546 
L 398.363636 229.503086 
L 398.758182 229.594068 
L 398.363636 229.684497 
L 400.336364 229.863717 
L 399.547273 229.952506 
L 400.336364 230.040758 
L 399.941818 230.128465 
L 400.336364 230.30226 
L 400.336364 230.388354 
L 400.730909 230.473911 
L 400.336364 230.558937 
L 402.309091 230.727396 
L 401.52 230.81083 
L 402.309091 230.893746 
L 401.914545 230.976132 
L 402.309091 231.139346 
L 402.309091 231.220174 
L 402.703636 231.300492 
L 402.309091 231.380286 
L 404.281818 231.53835 
L 403.492727 231.616621 
L 404.281818 231.694381 
L 403.887273 231.771639 
L 404.281818 231.924644 
L 404.281818 232.000399 
L 404.676364 232.075657 
L 404.281818 232.150419 
L 406.254545 232.444559 
L 405.86 232.516875 
L 406.254545 232.660064 
L 406.254545 232.730938 
L 406.649091 232.801337 
L 406.254545 232.87126 
L 408.227273 233.146231 
L 407.832727 233.213811 
L 408.227273 233.347577 
L 408.227273 233.413771 
L 408.621818 233.479503 
L 408.227273 233.544788 
L 410.2 233.801402 
L 409.805455 233.864439 
L 410.2 233.98919 
L 410.2 234.050903 
L 410.594545 234.112183 
L 410.2 234.173028 
L 412.172727 234.412099 
L 411.778182 234.470801 
L 412.172727 234.586942 
L 412.172727 234.644382 
L 412.567273 234.701408 
L 412.172727 234.75802 
L 414.145455 234.980377 
L 413.750909 235.034949 
L 414.145455 235.089121 
L 414.145455 235.196267 
L 416.118182 235.508281 
L 415.723636 235.558931 
L 416.118182 235.609202 
L 416.118182 235.7086 
L 418.090909 235.997874 
L 417.696364 236.044802 
L 418.090909 236.091372 
L 418.090909 236.183435 
L 420.063636 236.451175 
L 419.669091 236.494588 
L 420.063636 236.537656 
L 420.063636 236.622785 
L 422.036364 236.87019 
L 421.641818 236.91028 
L 422.036364 236.950053 
L 422.036364 237.028634 
L 424.009091 237.330515 
L 424.009091 237.402941 
L 425.981818 237.680945 
L 425.981818 237.747594 
L 427.954545 238.003209 
L 427.954545 238.06444 
L 429.927273 238.2991 
L 429.927273 238.355265 
L 431.9 238.596184 
L 431.9 238.621791 
L 433.872727 238.842259 
L 433.872727 238.865675 
L 435.845455 239.067117 
L 435.845455 239.067117 
" clip-path="url(#p44c05a8828)" style="fill: none; stroke-dasharray: 5.55,2.4; stroke-dashoffset: 0; stroke: #008000; stroke-width: 1.5"/>
   </g>
   <g id="line2d_16">
    <path d="M 80.754545 241.134703 
L 162.82 241.02855 
L 167.949091 240.756964 
L 171.5 240.355126 
L 174.656364 239.772249 
L 177.418182 239.036347 
L 179.982727 238.127504 
L 182.547273 236.972897 
L 184.914545 235.669806 
L 187.281818 234.126362 
L 189.846364 232.175634 
L 192.410909 229.93446 
L 195.172727 227.204039 
L 197.934545 224.162285 
L 201.090909 220.337908 
L 204.444545 215.920142 
L 208.39 210.345921 
L 213.519091 202.679252 
L 230.287273 177.279288 
L 234.824545 170.976885 
L 238.967273 165.59893 
L 242.715455 161.080498 
L 246.463636 156.914301 
L 250.014545 153.304698 
L 253.368182 150.203774 
L 256.721818 147.406545 
L 259.878182 145.054503 
L 263.034545 142.977805 
L 265.993636 141.284237 
L 268.952727 139.839459 
L 271.911818 138.647471 
L 274.673636 137.766786 
L 277.435455 137.113483 
L 278.816364 136.873122 
L 280 136.736943 
L 280 136.690787 
L 284.734545 136.503861 
L 286.707273 136.621057 
L 287.890909 136.749302 
L 287.890909 136.774903 
L 289.863636 136.953819 
L 289.469091 136.987857 
L 290.258182 137.136051 
L 289.863636 137.176107 
L 291.836364 137.348343 
L 291.441818 137.394396 
L 291.836364 137.441655 
L 291.836364 137.539757 
L 293.809091 137.750305 
L 293.02 137.805925 
L 293.809091 137.862731 
L 293.414545 137.920729 
L 293.809091 138.040289 
L 293.809091 138.101851 
L 294.203636 138.164598 
L 293.809091 138.228525 
L 295.781818 138.496044 
L 295.387273 138.565871 
L 295.781818 138.709039 
L 295.781818 138.782381 
L 296.176364 138.856895 
L 295.781818 138.932581 
L 297.754545 139.087441 
L 296.965455 139.166614 
L 297.754545 139.246946 
L 297.36 139.328442 
L 297.754545 139.494903 
L 297.754545 139.57986 
L 298.149091 139.665975 
L 297.754545 139.753234 
L 299.727273 139.931185 
L 298.938182 140.021877 
L 299.727273 140.113713 
L 299.332727 140.20668 
L 299.727273 140.396025 
L 299.727273 140.492397 
L 300.121818 140.589892 
L 299.727273 140.688511 
L 301.7 140.88912 
L 300.910909 140.991102 
L 301.7 141.094202 
L 301.305455 141.198411 
L 301.7 141.410159 
L 301.7 141.517691 
L 302.094545 141.626318 
L 301.7 141.736049 
L 303.672727 141.958791 
L 302.883636 142.071796 
L 303.672727 142.185889 
L 303.278182 142.301059 
L 303.672727 142.417317 
L 303.672727 142.653053 
L 304.067273 142.772523 
L 303.672727 142.893062 
L 305.645455 143.137331 
L 304.856364 143.261054 
L 305.645455 143.385826 
L 305.250909 143.511651 
L 305.645455 143.638518 
L 305.645455 143.895381 
L 306.04 144.02537 
L 305.645455 144.156386 
L 307.618182 144.4215 
L 306.829091 144.555591 
L 307.618182 144.690695 
L 307.223636 144.826812 
L 307.618182 144.963942 
L 307.618182 145.241202 
L 308.012727 145.381331 
L 307.618182 145.522452 
L 309.590909 145.807659 
L 308.801818 145.951731 
L 309.590909 146.096781 
L 309.196364 146.242804 
L 309.590909 146.389791 
L 309.590909 146.686655 
L 309.985455 146.836523 
L 309.590909 146.987337 
L 311.563636 147.291803 
L 310.774545 147.445435 
L 311.563636 147.600012 
L 311.169091 147.755506 
L 311.563636 147.91193 
L 311.563636 148.227521 
L 311.958182 148.386682 
L 311.563636 148.546746 
L 313.536364 148.869568 
L 312.747273 149.03232 
L 313.536364 149.195954 
L 313.141818 149.360464 
L 313.536364 149.525856 
L 313.536364 149.859238 
L 313.930909 150.027222 
L 313.536364 150.196061 
L 315.509091 150.536281 
L 314.72 150.707649 
L 315.509091 150.879859 
L 315.114545 151.052895 
L 315.509091 151.226752 
L 315.509091 151.576926 
L 315.903636 151.753229 
L 315.509091 151.930333 
L 317.481818 152.286924 
L 316.692727 152.466406 
L 317.481818 152.646666 
L 317.087273 152.827705 
L 317.481818 153.009516 
L 317.481818 153.37542 
L 317.876364 153.559506 
L 317.481818 153.744344 
L 319.454545 154.116231 
L 318.665455 154.303281 
L 319.454545 154.491047 
L 319.06 154.679538 
L 319.454545 154.868746 
L 319.454545 155.249277 
L 319.849091 155.440587 
L 319.454545 155.632593 
L 321.427273 156.018652 
L 320.638182 156.212698 
L 321.427273 156.407413 
L 321.032727 156.602783 
L 321.427273 156.798815 
L 321.427273 157.192815 
L 321.821818 157.390777 
L 321.427273 157.589372 
L 323.4 157.988432 
L 322.610909 158.188889 
L 323.4 158.389946 
L 323.005455 158.591609 
L 323.4 158.793872 
L 323.4 159.200155 
L 323.794545 159.404169 
L 323.4 159.608748 
L 325.372727 160.019602 
L 324.583636 160.225863 
L 325.372727 160.432668 
L 324.978182 160.640011 
L 325.372727 160.847892 
L 325.372727 161.265232 
L 325.767273 161.474677 
L 325.372727 161.684626 
L 327.345455 162.10604 
L 326.556364 162.317484 
L 327.345455 162.529411 
L 326.950909 162.741814 
L 327.345455 162.954692 
L 327.345455 163.381834 
L 327.74 163.596084 
L 327.345455 163.810782 
L 329.318182 164.241495 
L 328.529091 164.457488 
L 329.318182 164.67391 
L 328.923636 164.890738 
L 329.318182 165.107979 
L 329.318182 165.543655 
L 329.712727 165.762075 
L 329.318182 165.980881 
L 331.290909 166.419617 
L 330.501818 166.639526 
L 331.290909 166.859794 
L 330.896364 167.080413 
L 331.290909 167.301377 
L 331.290909 167.744304 
L 331.685455 167.966253 
L 331.290909 168.188527 
L 333.263636 168.633997 
L 332.474545 168.857181 
L 333.263636 169.080654 
L 332.869091 169.304416 
L 333.263636 169.528461 
L 333.263636 169.97735 
L 333.658182 170.202188 
L 333.263636 170.427281 
L 335.236364 170.878197 
L 334.447273 171.104013 
L 335.236364 171.33005 
L 334.841818 171.556315 
L 335.236364 171.782793 
L 335.236364 172.236363 
L 335.630909 172.463448 
L 335.236364 172.690719 
L 337.209091 173.145805 
L 336.42 173.373607 
L 337.209091 173.601567 
L 336.814545 173.829693 
L 337.209091 174.057963 
L 337.209091 174.514938 
L 337.603636 174.743629 
L 337.209091 174.972444 
L 339.181818 175.430426 
L 338.392727 175.659578 
L 339.181818 175.888834 
L 338.787273 176.118187 
L 339.181818 176.347622 
L 339.181818 176.806741 
L 339.576364 177.036404 
L 339.181818 177.266136 
L 341.154545 177.725765 
L 340.365455 177.955648 
L 341.154545 178.185566 
L 340.76 178.415525 
L 341.154545 178.645505 
L 341.154545 179.105527 
L 341.549091 179.335548 
L 341.154545 179.565576 
L 343.127273 180.025619 
L 342.338182 180.255619 
L 343.127273 180.485592 
L 342.732727 180.715545 
L 343.127273 180.945463 
L 343.127273 181.405174 
L 343.521818 181.634954 
L 343.127273 181.864679 
L 345.1 182.323936 
L 344.310909 182.553454 
L 345.1 182.782896 
L 344.705455 183.012249 
L 345.1 183.241512 
L 345.1 183.699734 
L 345.494545 183.928687 
L 345.1 184.15753 
L 347.072727 184.614836 
L 346.283636 184.843299 
L 347.072727 185.071625 
L 346.678182 185.299805 
L 347.072727 185.527842 
L 347.072727 185.983445 
L 347.467273 186.211005 
L 347.072727 186.438393 
L 349.045455 186.892639 
L 348.256364 187.119482 
L 349.045455 187.34614 
L 348.650909 187.572604 
L 349.045455 187.798862 
L 349.045455 188.25075 
L 349.44 188.476367 
L 349.045455 188.701769 
L 351.018182 189.151879 
L 350.229091 189.376579 
L 351.018182 189.601037 
L 350.623636 189.825241 
L 351.018182 190.049203 
L 351.018182 190.496335 
L 351.412727 190.719498 
L 351.018182 190.942398 
L 352.990909 191.387345 
L 352.201818 191.609391 
L 352.990909 191.831147 
L 352.596364 192.052608 
L 352.990909 192.273764 
L 352.990909 192.715147 
L 353.385455 192.935374 
L 352.990909 193.155276 
L 354.963636 193.594101 
L 354.174545 193.813018 
L 354.963636 194.031597 
L 354.569091 194.249831 
L 354.963636 194.467714 
L 354.963636 194.902431 
L 355.358182 195.119245 
L 354.963636 195.335701 
L 356.936364 195.767502 
L 356.147273 195.982835 
L 356.936364 196.197788 
L 356.541818 196.412355 
L 356.936364 196.626536 
L 356.936364 197.053705 
L 357.330909 197.266687 
L 356.936364 197.479269 
L 358.909091 197.903191 
L 358.12 198.114526 
L 358.909091 198.325439 
L 358.514545 198.535933 
L 358.909091 198.745992 
L 358.909091 199.164814 
L 359.303636 199.37357 
L 358.909091 199.581878 
L 360.881818 199.99715 
L 360.092727 200.2041 
L 360.881818 200.410602 
L 360.487273 200.616636 
L 360.881818 200.822207 
L 360.881818 201.231937 
L 361.276364 201.436096 
L 360.881818 201.639772 
L 362.854545 202.045683 
L 362.065455 202.247905 
L 362.854545 202.449637 
L 362.46 202.650873 
L 362.854545 202.851612 
L 362.854545 203.251582 
L 363.249091 203.450812 
L 362.854545 203.649532 
L 364.827273 204.045434 
L 364.038182 204.242603 
L 364.827273 204.439255 
L 364.432727 204.635383 
L 364.827273 204.830988 
L 364.827273 205.220597 
L 365.221818 205.414602 
L 364.827273 205.608076 
L 366.8 205.993391 
L 366.010909 206.185232 
L 366.8 206.376528 
L 366.405455 206.567272 
L 366.8 206.757459 
L 366.8 207.136184 
L 367.194545 207.324702 
L 366.8 207.512662 
L 368.772727 207.886893 
L 367.983636 208.07315 
L 368.772727 208.258842 
L 368.378182 208.443969 
L 368.772727 208.62851 
L 368.772727 208.995875 
L 369.167273 209.178686 
L 368.772727 209.36091 
L 370.745455 209.723616 
L 369.956364 209.90409 
L 370.745455 210.083971 
L 370.350909 210.26326 
L 370.745455 210.441955 
L 370.745455 210.797568 
L 371.14 210.974471 
L 370.745455 211.150782 
L 372.718182 211.501597 
L 371.929091 211.676095 
L 372.718182 211.849993 
L 372.323636 212.023284 
L 372.718182 212.195962 
L 372.718182 212.539491 
L 373.112727 212.710342 
L 372.718182 212.880573 
L 374.690909 213.219195 
L 373.901818 213.387585 
L 374.690909 213.555355 
L 374.296364 213.722505 
L 374.690909 213.889027 
L 374.690909 214.220225 
L 375.085455 214.384886 
L 374.690909 214.54892 
L 376.663636 214.87512 
L 375.874545 215.037279 
L 376.663636 215.198811 
L 376.269091 215.359716 
L 376.663636 215.519993 
L 376.663636 215.838652 
L 377.058182 215.997034 
L 376.663636 216.154788 
L 378.636364 216.468388 
L 377.847273 216.624247 
L 378.636364 216.779464 
L 378.241818 216.934048 
L 378.636364 217.087998 
L 378.636364 217.393994 
L 379.030909 217.546034 
L 378.636364 217.69744 
L 380.609091 217.998343 
L 379.82 218.147839 
L 380.609091 218.296702 
L 380.214545 218.444923 
L 380.609091 218.592503 
L 380.609091 218.885762 
L 381.003636 219.031432 
L 380.609091 219.176462 
L 382.581818 219.46462 
L 381.792727 219.60774 
L 382.581818 219.75022 
L 382.187273 219.892065 
L 382.581818 220.033269 
L 382.581818 220.313775 
L 382.976364 220.45307 
L 382.581818 220.591724 
L 384.554545 220.867136 
L 383.765455 221.00388 
L 384.554545 221.139997 
L 384.16 221.275473 
L 384.554545 221.410322 
L 384.554545 221.678111 
L 384.949091 221.81105 
L 384.554545 221.943362 
L 386.527273 222.206084 
L 385.738182 222.336494 
L 386.527273 222.466276 
L 386.132727 222.595431 
L 386.527273 222.723952 
L 386.527273 222.979113 
L 386.921818 223.105752 
L 386.527273 223.231764 
L 388.5 223.481906 
L 387.710909 223.606043 
L 388.5 223.729553 
L 388.105455 223.852442 
L 388.5 223.974704 
L 388.5 224.217374 
L 388.894545 224.337775 
L 388.5 224.457563 
L 390.472727 224.695284 
L 389.683636 224.813224 
L 390.472727 224.930543 
L 390.078182 225.04725 
L 390.472727 225.278829 
L 390.472727 225.393702 
L 390.867273 225.507968 
L 390.472727 225.621621 
L 392.445455 225.847113 
L 391.656364 225.958946 
L 392.445455 226.070186 
L 392.050909 226.180813 
L 392.445455 226.400274 
L 392.445455 226.509108 
L 392.84 226.617343 
L 392.445455 226.724985 
L 394.418182 226.938477 
L 393.629091 227.04434 
L 394.418182 227.149604 
L 394.023636 227.254282 
L 394.418182 227.46188 
L 394.418182 227.5648 
L 394.812727 227.667135 
L 394.418182 227.76889 
L 396.390909 227.970657 
L 395.601818 228.070668 
L 396.390909 228.170107 
L 395.996364 228.268974 
L 396.390909 228.464985 
L 396.390909 228.562136 
L 396.785455 228.658714 
L 396.390909 228.754728 
L 398.363636 228.945066 
L 397.574545 229.03939 
L 398.363636 229.13315 
L 397.969091 229.226357 
L 398.363636 229.411098 
L 398.363636 229.502631 
L 398.758182 229.593619 
L 398.363636 229.684056 
L 400.336364 229.863283 
L 399.547273 229.952079 
L 400.336364 230.040331 
L 399.941818 230.128038 
L 400.336364 230.30184 
L 400.336364 230.387934 
L 400.730909 230.473497 
L 400.336364 230.558523 
L 402.309091 230.726989 
L 401.52 230.81043 
L 402.309091 230.893346 
L 401.914545 230.975739 
L 402.309091 231.13896 
L 402.309091 231.219795 
L 402.703636 231.300106 
L 402.309091 231.379913 
L 404.281818 231.537978 
L 403.492727 231.616249 
L 404.281818 231.694016 
L 403.887273 231.771273 
L 404.281818 231.924285 
L 404.281818 232.000047 
L 404.676364 232.075305 
L 404.281818 232.150074 
L 406.254545 232.444222 
L 405.86 232.516544 
L 406.254545 232.65974 
L 406.254545 232.730614 
L 406.649091 232.801013 
L 406.254545 232.870936 
L 408.227273 233.145928 
L 407.832727 233.213507 
L 408.227273 233.347274 
L 408.227273 233.413468 
L 408.621818 233.479207 
L 408.227273 233.544491 
L 410.2 233.80112 
L 409.805455 233.864157 
L 410.2 233.988914 
L 410.2 234.050628 
L 410.594545 234.111914 
L 410.2 234.172759 
L 412.172727 234.411837 
L 411.778182 234.470546 
L 412.172727 234.586687 
L 412.172727 234.644133 
L 412.567273 234.70116 
L 412.172727 234.757779 
L 414.145455 234.980135 
L 413.750909 235.034715 
L 414.145455 235.088887 
L 414.145455 235.19604 
L 416.118182 235.508068 
L 415.723636 235.558718 
L 416.118182 235.608989 
L 416.118182 235.708393 
L 418.090909 235.997674 
L 417.696364 236.044609 
L 418.090909 236.091179 
L 418.090909 236.183242 
L 420.063636 236.450996 
L 419.669091 236.494409 
L 420.063636 236.537476 
L 420.063636 236.622613 
L 422.036364 236.870025 
L 421.641818 236.910122 
L 422.036364 236.949888 
L 422.036364 237.028476 
L 424.009091 237.330364 
L 424.009091 237.402796 
L 425.981818 237.680814 
L 425.981818 237.747463 
L 427.954545 238.003085 
L 427.954545 238.064323 
L 429.927273 238.29899 
L 429.927273 238.355161 
L 431.9 238.596087 
L 431.9 238.621695 
L 433.872727 238.842169 
L 433.872727 238.865585 
L 435.845455 239.067035 
L 435.845455 239.067035 
" clip-path="url(#p44c05a8828)" style="fill: none; stroke: #bf00bf; stroke-width: 1.5; stroke-linecap: square"/>
   </g>
   <g id="line2d_17">
    <path d="M 80.754545 241.134703 
L 81.149091 241.298068 
L 81.938182 241.522093 
L 82.727273 241.549665 
L 82.924545 241.249817 
L 84.108182 241.193983 
L 105.808182 240.83968 
L 108.175455 240.815555 
L 110.542727 241.035443 
L 113.896364 241.358727 
L 116.460909 241.338737 
L 124.351818 241.118366 
L 130.072727 240.953416 
L 132.242727 240.674936 
L 133.820909 240.273174 
L 135.201818 239.717629 
L 136.582727 238.916745 
L 137.963636 237.821329 
L 139.344545 236.389014 
L 140.725455 234.586976 
L 142.106364 232.393537 
L 143.487273 229.798757 
L 145.065455 226.344282 
L 146.840909 221.858219 
L 148.813636 216.187944 
L 150.983636 209.225855 
L 153.548182 200.216811 
L 156.901818 187.575506 
L 167.751818 146.004242 
L 170.908182 135.065219 
L 173.67 126.228908 
L 176.234545 118.705952 
L 178.799091 111.875617 
L 181.166364 106.200647 
L 183.336364 101.534111 
L 185.506364 97.379487 
L 187.479091 94.044958 
L 189.451818 91.129782 
L 191.227273 88.863366 
L 193.002727 86.934689 
L 194.778182 85.343517 
L 196.356364 84.212622 
L 197.934545 83.348756 
L 199.512727 82.752155 
L 200.893636 82.449399 
L 202.274545 82.351097 
L 203.655455 82.456781 
L 205.036364 82.765597 
L 206.614545 83.365596 
L 208.192727 84.226483 
L 209.770909 85.344585 
L 211.546364 86.903974 
L 213.321818 88.774528 
L 215.294545 91.205474 
L 217.267273 93.991523 
L 219.437273 97.443427 
L 221.804545 101.638665 
L 224.369091 106.641672 
L 227.328182 112.931316 
L 230.681818 120.611034 
L 234.824545 130.691927 
L 241.531818 147.712879 
L 248.633636 165.56756 
L 252.973636 175.905895 
L 256.721818 184.291303 
L 260.075455 191.284956 
L 263.231818 197.384165 
L 266.388182 202.990811 
L 269.347273 207.790631 
L 272.109091 211.872864 
L 274.870909 215.578563 
L 277.632727 218.920054 
L 278.027273 219.368592 
L 278.027273 219.590211 
L 278.421818 219.810079 
L 278.027273 220.028196 
L 280 220.459205 
L 279.210909 220.672117 
L 280 220.883307 
L 279.605455 221.092787 
L 280 221.300557 
L 280 221.711018 
L 280.394545 221.913715 
L 280 222.114737 
L 281.972727 222.511784 
L 281.183636 222.707823 
L 281.972727 222.902214 
L 281.578182 223.094971 
L 281.972727 223.286102 
L 281.972727 223.663497 
L 282.367273 223.849781 
L 281.972727 224.034467 
L 283.945455 224.399082 
L 283.156364 224.579025 
L 283.945455 224.757404 
L 283.550909 224.934224 
L 283.945455 225.109501 
L 283.945455 225.455429 
L 284.34 225.626108 
L 283.945455 225.79527 
L 285.918182 226.12908 
L 285.129091 226.293749 
L 285.918182 226.456935 
L 285.523636 226.618646 
L 285.918182 226.778896 
L 285.918182 227.095039 
L 286.312727 227.250946 
L 285.918182 227.405419 
L 287.890909 227.710127 
L 287.101818 227.860368 
L 287.890909 228.009209 
L 287.496364 228.156673 
L 287.890909 228.30275 
L 287.890909 228.590818 
L 288.285455 228.732822 
L 287.890909 228.873481 
L 289.863636 229.150803 
L 289.074545 229.287485 
L 289.863636 229.422858 
L 289.469091 229.556935 
L 289.863636 229.689716 
L 289.863636 229.951452 
L 290.258182 230.080414 
L 289.863636 230.208128 
L 291.836364 230.459815 
L 291.047273 230.583807 
L 291.836364 230.706586 
L 291.441818 230.828145 
L 291.836364 230.948505 
L 291.836364 231.185646 
L 292.230909 231.302449 
L 291.836364 231.41808 
L 293.809091 231.645868 
L 293.02 231.758046 
L 293.809091 231.869086 
L 293.414545 231.979003 
L 293.809091 232.195493 
L 293.809091 232.30208 
L 294.203636 232.407571 
L 293.809091 232.511987 
L 295.781818 232.717586 
L 294.992727 232.818797 
L 295.781818 232.91896 
L 295.387273 233.018075 
L 295.781818 233.213218 
L 295.781818 233.309259 
L 296.176364 233.404286 
L 295.781818 233.498321 
L 297.754545 233.683407 
L 296.965455 233.774485 
L 297.754545 233.864591 
L 297.36 233.953739 
L 297.754545 234.129181 
L 297.754545 234.215496 
L 298.149091 234.30088 
L 297.754545 234.38534 
L 299.727273 234.551532 
L 298.938182 234.633284 
L 299.727273 234.714139 
L 299.332727 234.794112 
L 299.727273 234.951446 
L 299.727273 235.028814 
L 300.121818 235.105341 
L 299.727273 235.181013 
L 301.7 235.475429 
L 301.305455 235.546993 
L 301.7 235.687735 
L 301.7 235.756927 
L 302.094545 235.825334 
L 301.7 235.892976 
L 303.672727 236.155953 
L 303.278182 236.219844 
L 303.672727 236.345436 
L 303.672727 236.407156 
L 304.067273 236.468167 
L 303.672727 236.528474 
L 305.645455 236.762824 
L 305.250909 236.819719 
L 306.04 237.040745 
L 305.645455 237.094394 
L 307.618182 237.302736 
L 307.223636 237.35329 
L 307.618182 237.403244 
L 307.618182 237.501374 
L 309.590909 237.781976 
L 309.196364 237.826795 
L 309.590909 237.871069 
L 309.590909 237.958018 
L 311.563636 238.206423 
L 311.169091 238.246072 
L 311.563636 238.285224 
L 311.563636 238.362096 
L 313.536364 238.651073 
L 313.536364 238.718887 
L 315.509091 238.973558 
L 315.509091 239.033259 
L 317.481818 239.283642 
L 317.481818 239.309698 
L 319.454545 239.529441 
L 319.454545 239.552285 
L 321.821818 239.784484 
L 321.427273 239.803944 
L 322.216364 239.823148 
L 323.4 239.950504 
L 327.345455 240.227074 
L 327.345455 240.253757 
L 331.685455 240.49296 
L 331.290909 240.50261 
L 333.263636 240.52191 
L 333.263636 240.557754 
L 333.263636 240.575676 
L 361.670909 241.079421 
L 435.845455 241.134644 
L 435.845455 241.134644 
" clip-path="url(#p44c05a8828)" style="fill: none; stroke-dasharray: 5.55,2.4; stroke-dashoffset: 0; stroke: #ff0000; stroke-width: 1.5"/>
   </g>
   <g id="line2d_18">
    <path d="M 80.754545 241.134703 
L 129.480909 241.031307 
L 131.848182 240.773507 
L 133.623636 240.352148 
L 135.004545 239.817109 
L 136.385455 239.044729 
L 137.766364 237.985955 
L 139.147273 236.597639 
L 140.528182 234.8455 
L 141.909091 232.706006 
L 143.29 230.167253 
L 144.868182 226.77689 
L 146.643636 222.360075 
L 148.616364 216.759881 
L 150.786364 209.863442 
L 153.350909 200.914016 
L 156.704545 188.320239 
L 168.146364 144.588078 
L 171.302727 133.756876 
L 174.064545 125.02809 
L 176.629091 117.611624 
L 178.996364 111.382949 
L 181.363636 105.759747 
L 183.533636 101.140572 
L 185.703636 97.033001 
L 187.676364 93.740926 
L 189.649091 90.867935 
L 191.424545 88.639321 
L 193.2 86.748335 
L 194.975455 85.194834 
L 196.553636 84.097404 
L 198.131818 83.267025 
L 199.71 82.703897 
L 201.090909 82.430408 
L 202.471818 82.361312 
L 203.852727 82.496092 
L 205.233636 82.833838 
L 206.811818 83.466614 
L 208.39 84.359857 
L 209.968182 85.50977 
L 211.743636 87.104127 
L 213.519091 89.008596 
L 215.491818 91.475751 
L 217.464545 94.296196 
L 219.634545 97.783531 
L 222.001818 102.014191 
L 224.566364 107.051381 
L 227.525455 113.374553 
L 230.879091 121.084132 
L 235.021818 131.189523 
L 242.123636 149.228793 
L 248.830909 166.053624 
L 253.170909 176.364283 
L 256.919091 184.719583 
L 260.272727 191.682823 
L 263.429091 197.751482 
L 266.388182 202.992844 
L 269.347273 207.79241 
L 272.109091 211.874428 
L 274.870909 215.579935 
L 277.632727 218.921247 
L 278.027273 219.369764 
L 278.027273 219.591369 
L 278.421818 219.811223 
L 278.027273 220.029326 
L 280 220.460321 
L 279.210909 220.67322 
L 280 220.884403 
L 279.605455 221.093869 
L 280 221.301633 
L 280 221.712066 
L 280.394545 221.914749 
L 280 222.115764 
L 281.972727 222.512784 
L 281.183636 222.708815 
L 281.972727 222.903199 
L 281.578182 223.095943 
L 281.972727 223.28706 
L 281.972727 223.664441 
L 282.367273 223.850712 
L 281.972727 224.035391 
L 283.945455 224.399985 
L 283.156364 224.579921 
L 283.945455 224.758293 
L 283.550909 224.9351 
L 283.945455 225.110363 
L 283.945455 225.456277 
L 284.34 225.626949 
L 283.945455 225.796098 
L 285.918182 226.129894 
L 285.129091 226.294555 
L 285.918182 226.457727 
L 285.523636 226.619432 
L 285.918182 226.779674 
L 285.918182 227.095797 
L 286.312727 227.251697 
L 285.918182 227.406164 
L 287.890909 227.71085 
L 287.101818 227.861085 
L 287.890909 228.009926 
L 287.496364 228.157376 
L 287.890909 228.303446 
L 287.890909 228.5915 
L 288.285455 228.73349 
L 287.890909 228.874143 
L 289.863636 229.151451 
L 289.074545 229.288126 
L 289.863636 229.423492 
L 289.469091 229.557562 
L 289.863636 229.690343 
L 289.863636 229.952058 
L 290.258182 230.08102 
L 289.863636 230.208721 
L 291.836364 230.460394 
L 291.047273 230.584386 
L 291.836364 230.707151 
L 291.441818 230.82871 
L 291.836364 230.949063 
L 291.836364 231.186191 
L 292.230909 231.302987 
L 291.836364 231.418611 
L 293.809091 231.646385 
L 293.02 231.758556 
L 293.809091 231.869596 
L 293.414545 231.979506 
L 293.809091 232.195975 
L 293.809091 232.302556 
L 294.203636 232.408047 
L 293.809091 232.512456 
L 295.781818 232.718048 
L 294.992727 232.819252 
L 295.781818 232.919408 
L 295.387273 233.018517 
L 295.781818 233.213652 
L 295.781818 233.309686 
L 296.176364 233.404714 
L 295.781818 233.498735 
L 297.754545 233.683814 
L 296.965455 233.774885 
L 297.754545 233.864991 
L 297.36 233.954132 
L 297.754545 234.129567 
L 297.754545 234.215875 
L 298.149091 234.301252 
L 297.754545 234.385713 
L 299.727273 234.551897 
L 298.938182 234.633635 
L 299.727273 234.714491 
L 299.332727 234.794457 
L 299.727273 234.951784 
L 299.727273 235.029152 
L 300.121818 235.105665 
L 299.727273 235.181344 
L 301.7 235.475739 
L 301.305455 235.547303 
L 301.7 235.688031 
L 301.7 235.757217 
L 302.094545 235.825624 
L 301.7 235.893258 
L 303.672727 236.156228 
L 303.278182 236.220113 
L 303.672727 236.345698 
L 303.672727 236.407418 
L 304.067273 236.468422 
L 303.672727 236.528729 
L 305.645455 236.763058 
L 305.250909 236.819954 
L 306.04 237.040966 
L 305.645455 237.094614 
L 307.618182 237.302943 
L 307.223636 237.353497 
L 307.618182 237.403444 
L 307.618182 237.501574 
L 309.590909 237.782162 
L 309.196364 237.826981 
L 309.590909 237.871248 
L 309.590909 237.958197 
L 311.563636 238.206588 
L 311.169091 238.24623 
L 311.563636 238.285383 
L 311.563636 238.362247 
L 313.536364 238.651204 
L 313.536364 238.719018 
L 315.509091 238.973675 
L 315.509091 239.033376 
L 317.481818 239.283745 
L 317.481818 239.309794 
L 319.454545 239.529531 
L 319.454545 239.552375 
L 321.821818 239.78456 
L 321.427273 239.804019 
L 322.216364 239.823217 
L 323.4 239.950573 
L 327.345455 240.227122 
L 327.345455 240.253805 
L 331.685455 240.49296 
L 331.290909 240.50261 
L 333.263636 240.52191 
L 333.263636 240.557754 
L 333.263636 240.575676 
L 361.670909 241.079421 
L 435.845455 241.134644 
L 435.845455 241.134644 
" clip-path="url(#p44c05a8828)" style="fill: none; stroke: #00bfbf; stroke-width: 1.5; stroke-linecap: square"/>
   </g>
   <g id="line2d_19">
    <path d="M 80.754545 241.134703 
L 81.346364 242.030283 
L 81.543636 242.116364 
L 81.938182 241.842868 
L 82.727273 241.012007 
L 82.924545 240.353741 
L 83.319091 239.97334 
L 83.713636 239.889176 
L 84.305455 240.066452 
L 86.672727 241.15104 
L 87.856364 241.375271 
L 89.631818 241.451784 
L 93.774545 241.298758 
L 100.087273 241.150971 
L 102.454545 241.179784 
L 107.386364 240.781089 
L 108.175455 240.471591 
L 108.964545 239.895966 
L 109.556364 239.205227 
L 110.148182 238.221918 
L 110.74 236.884707 
L 111.529091 234.460888 
L 112.318182 231.22393 
L 113.304545 225.975489 
L 114.290909 219.422779 
L 115.474545 210.027455 
L 117.052727 195.500155 
L 119.617273 169.379771 
L 122.970909 135.7337 
L 124.943636 118.054303 
L 126.719091 103.96423 
L 128.494545 91.68854 
L 130.072727 82.268387 
L 131.650909 74.173094 
L 133.229091 67.302717 
L 134.61 62.210576 
L 135.990909 57.900424 
L 137.371818 54.303007 
L 138.752727 51.354269 
L 139.936364 49.29898 
L 141.12 47.644854 
L 142.303636 46.36256 
L 143.487273 45.426028 
L 144.670909 44.812174 
L 145.657273 44.532336 
L 146.643636 44.451867 
L 147.63 44.561253 
L 148.813636 44.931058 
L 149.997273 45.548435 
L 151.180909 46.401202 
L 152.561818 47.67883 
L 153.942727 49.245463 
L 155.520909 51.37033 
L 157.296364 54.161548 
L 159.269091 57.725988 
L 161.439091 62.163978 
L 163.806364 67.562971 
L 166.370909 73.990048 
L 169.33 82.038773 
L 172.880909 92.403963 
L 177.418182 106.407342 
L 191.819091 151.433785 
L 195.764545 162.790141 
L 199.315455 172.361741 
L 202.669091 180.762673 
L 205.825455 188.0635 
L 208.784545 194.357721 
L 211.743636 200.116193 
L 214.505455 205.013323 
L 217.267273 209.461714 
L 220.029091 213.478511 
L 222.790909 217.08482 
L 225.552727 220.304711 
L 228.314545 223.164226 
L 231.076364 225.690606 
L 233.838182 227.9115 
L 236.6 229.854432 
L 239.559091 231.658145 
L 242.518182 233.205208 
L 245.674545 234.606125 
L 249.028182 235.849391 
L 252.579091 236.930332 
L 256.524545 237.893547 
L 260.864545 238.717184 
L 265.796364 239.416816 
L 271.517273 239.991255 
L 278.027273 240.434913 
L 284.34 240.692858 
L 283.945455 240.699751 
L 286.312727 240.754896 
L 285.918182 240.76041 
L 294.203636 240.928601 
L 293.809091 240.932047 
L 299.727273 240.991327 
L 298.938182 240.993395 
L 395.207273 241.134675 
L 435.845455 241.134702 
L 435.845455 241.134702 
" clip-path="url(#p44c05a8828)" style="fill: none; stroke-dasharray: 5.55,2.4; stroke-dashoffset: 0; stroke: #0000ff; stroke-width: 1.5"/>
   </g>
   <g id="line2d_20">
    <path d="M 80.754545 241.134703 
L 106.597273 241.027861 
L 107.583636 240.814865 
L 108.372727 240.441234 
L 108.964545 239.96744 
L 109.556364 239.262818 
L 110.148182 238.265558 
L 110.937273 236.378895 
L 111.726364 233.749008 
L 112.515455 230.297724 
L 113.501818 224.787809 
L 114.488182 217.998101 
L 115.671818 208.367738 
L 117.25 193.625472 
L 120.209091 163.302812 
L 123.168182 133.908309 
L 125.140909 116.41885 
L 126.916364 102.521458 
L 128.691818 90.441131 
L 130.27 81.188121 
L 131.848182 73.249314 
L 133.426364 66.522692 
L 134.807273 61.545423 
L 136.188182 57.340205 
L 137.569091 53.838374 
L 138.95 50.976695 
L 140.133636 48.989896 
L 141.317273 47.39922 
L 142.500909 46.175875 
L 143.684545 45.294308 
L 144.670909 44.804343 
L 145.657273 44.524292 
L 146.643636 44.443636 
L 147.63 44.552864 
L 148.813636 44.922504 
L 149.997273 45.539736 
L 151.180909 46.392386 
L 152.561818 47.669896 
L 153.942727 49.23644 
L 155.520909 51.361231 
L 157.296364 54.152408 
L 159.269091 57.716848 
L 161.439091 62.1549 
L 163.806364 67.55403 
L 166.370909 73.981329 
L 169.33 82.03037 
L 172.880909 92.396036 
L 177.418182 106.400084 
L 191.819091 151.428863 
L 195.764545 162.78584 
L 199.315455 172.357964 
L 202.669091 180.759357 
L 205.825455 188.060591 
L 208.784545 194.355157 
L 211.743636 200.113946 
L 214.505455 205.011344 
L 217.267273 209.459984 
L 220.029091 213.477002 
L 222.790909 217.083517 
L 225.552727 220.30358 
L 228.314545 223.163254 
L 231.076364 225.689772 
L 233.838182 227.91079 
L 236.6 229.853825 
L 239.559091 231.657635 
L 242.518182 233.204781 
L 245.674545 234.605774 
L 249.028182 235.849115 
L 252.579091 236.930112 
L 256.524545 237.893375 
L 260.864545 238.717054 
L 265.796364 239.416726 
L 271.517273 239.991193 
L 278.027273 240.434879 
L 284.34 240.692858 
L 283.945455 240.699751 
L 286.312727 240.754896 
L 285.918182 240.76041 
L 294.203636 240.928601 
L 293.809091 240.932047 
L 299.727273 240.991327 
L 298.938182 240.993395 
L 395.207273 241.134675 
L 435.845455 241.134702 
L 435.845455 241.134702 
" clip-path="url(#p44c05a8828)" style="fill: none; stroke: #bfbf00; stroke-width: 1.5; stroke-linecap: square"/>
   </g>
   <g id="patch_3">
    <path d="M 63 252 
L 63 34.56 
" style="fill: none; stroke: #000000; stroke-width: 0.8; stroke-linejoin: miter; stroke-linecap: square"/>
   </g>
   <g id="patch_4">
    <path d="M 453.6 252 
L 453.6 34.56 
" style="fill: none; stroke: #000000; stroke-width: 0.8; stroke-linejoin: miter; stroke-linecap: square"/>
   </g>
   <g id="patch_5">
    <path d="M 63 252 
L 453.6 252 
" style="fill: none; stroke: #000000; stroke-width: 0.8; stroke-linejoin: miter; stroke-linecap: square"/>
   </g>
   <g id="patch_6">
    <path d="M 63 34.56 
L 453.6 34.56 
" style="fill: none; stroke: #000000; stroke-width: 0.8; stroke-linejoin: miter; stroke-linecap: square"/>
   </g>
   <g id="legend_1">
    <g id="patch_7">
     <path d="M 364 145.16 
L 446.6 145.16 
Q 448.6 145.16 448.6 143.16 
L 448.6 41.56 
Q 448.6 39.56 446.6 39.56 
L 364 39.56 
Q 362 39.56 362 41.56 
L 362 143.16 
Q 362 145.16 364 145.16 
z
" style="fill: #ffffff; opacity: 0.8; stroke: #cccccc; stroke-linejoin: miter"/>
    </g>
    <g id="line2d_21">
     <path d="M 366 49.26 
L 376 49.26 
L 386 49.26 
" style="fill: none; stroke-dasharray: 5.55,2.4; stroke-dashoffset: 0; stroke: #008000; stroke-width: 1.5"/>
    </g>
    <g id="text_17">
     <!-- $c_1$, $N_e^b$ = 2 -->
     <g transform="translate(394 52.76) scale(0.1 -0.1)">
      <defs>
       <path id="DejaVuSans-Oblique-63" d="M 3431 3366 
L 3316 2797 
Q 3109 2947 2876 3022 
Q 2644 3097 2394 3097 
Q 2119 3097 1870 3000 
Q 1622 2903 1453 2725 
Q 1184 2453 1037 2087 
Q 891 1722 891 1331 
Q 891 859 1127 628 
Q 1363 397 1844 397 
Q 2081 397 2348 469 
Q 2616 541 2906 684 
L 2797 116 
Q 2547 13 2283 -39 
Q 2019 -91 1741 -91 
Q 1044 -91 669 257 
Q 294 606 294 1253 
Q 294 1797 489 2255 
Q 684 2713 1069 3078 
Q 1331 3328 1684 3456 
Q 2038 3584 2456 3584 
Q 2700 3584 2940 3529 
Q 3181 3475 3431 3366 
z
" transform="scale(0.015625)"/>
       <path id="DejaVuSans-2c" d="M 750 794 
L 1409 794 
L 1409 256 
L 897 -744 
L 494 -744 
L 750 256 
L 750 794 
z
" transform="scale(0.015625)"/>
       <path id="DejaVuSans-Oblique-4e" d="M 1081 4666 
L 1931 4666 
L 3219 666 
L 4000 4666 
L 4616 4666 
L 3706 0 
L 2853 0 
L 1569 4025 
L 788 0 
L 172 0 
L 1081 4666 
z
" transform="scale(0.015625)"/>
       <path id="DejaVuSans-Oblique-62" d="M 3169 2138 
Q 3169 2591 2961 2847 
Q 2753 3103 2388 3103 
Q 2122 3103 1889 2973 
Q 1656 2844 1484 2597 
Q 1303 2338 1198 1995 
Q 1094 1653 1094 1313 
Q 1094 881 1298 636 
Q 1503 391 1863 391 
Q 2134 391 2365 517 
Q 2597 644 2772 891 
Q 2950 1147 3059 1487 
Q 3169 1828 3169 2138 
z
M 1381 2969 
Q 1594 3256 1914 3420 
Q 2234 3584 2584 3584 
Q 3122 3584 3439 3221 
Q 3756 2859 3756 2241 
Q 3756 1734 3570 1259 
Q 3384 784 3041 416 
Q 2816 172 2522 40 
Q 2228 -91 1906 -91 
Q 1566 -91 1316 65 
Q 1066 222 909 531 
L 806 0 
L 231 0 
L 1178 4863 
L 1753 4863 
L 1381 2969 
z
" transform="scale(0.015625)"/>
       <path id="DejaVuSans-Oblique-65" d="M 3078 2063 
Q 3088 2113 3092 2166 
Q 3097 2219 3097 2272 
Q 3097 2653 2873 2875 
Q 2650 3097 2266 3097 
Q 1838 3097 1509 2826 
Q 1181 2556 1013 2059 
L 3078 2063 
z
M 3578 1613 
L 903 1613 
Q 884 1494 878 1425 
Q 872 1356 872 1306 
Q 872 872 1139 634 
Q 1406 397 1894 397 
Q 2269 397 2603 481 
Q 2938 566 3225 728 
L 3116 159 
Q 2806 34 2476 -28 
Q 2147 -91 1806 -91 
Q 1078 -91 686 257 
Q 294 606 294 1247 
Q 294 1794 489 2264 
Q 684 2734 1063 3103 
Q 1306 3334 1642 3459 
Q 1978 3584 2356 3584 
Q 2950 3584 3301 3228 
Q 3653 2872 3653 2272 
Q 3653 2128 3634 1964 
Q 3616 1800 3578 1613 
z
" transform="scale(0.015625)"/>
       <path id="DejaVuSans-3d" d="M 678 2906 
L 4684 2906 
L 4684 2381 
L 678 2381 
L 678 2906 
z
M 678 1631 
L 4684 1631 
L 4684 1100 
L 678 1100 
L 678 1631 
z
" transform="scale(0.015625)"/>
      </defs>
      <use xlink:href="#DejaVuSans-Oblique-63" transform="translate(0 0.529687)"/>
      <use xlink:href="#DejaVuSans-31" transform="translate(54.980469 -15.876563) scale(0.7)"/>
      <use xlink:href="#DejaVuSans-2c" transform="translate(102.250977 0.529687)"/>
      <use xlink:href="#DejaVuSans-20" transform="translate(134.038086 0.529687)"/>
      <use xlink:href="#DejaVuSans-Oblique-4e" transform="translate(165.825195 0.529687)"/>
      <use xlink:href="#DejaVuSans-Oblique-62" transform="translate(247.646654 38.810938) scale(0.7)"/>
      <use xlink:href="#DejaVuSans-Oblique-65" transform="translate(240.629883 -26.814063) scale(0.7)"/>
      <use xlink:href="#DejaVuSans-20" transform="translate(294.814622 0.529687)"/>
      <use xlink:href="#DejaVuSans-3d" transform="translate(326.601732 0.529687)"/>
      <use xlink:href="#DejaVuSans-20" transform="translate(410.390794 0.529687)"/>
      <use xlink:href="#DejaVuSans-32" transform="translate(442.177904 0.529687)"/>
     </g>
    </g>
    <g id="line2d_22">
     <path d="M 366 66.36 
L 376 66.36 
L 386 66.36 
" style="fill: none; stroke: #bf00bf; stroke-width: 1.5; stroke-linecap: square"/>
    </g>
    <g id="text_18">
     <!-- $c_1$, $N_e^b$ = 8 -->
     <g transform="translate(394 69.86) scale(0.1 -0.1)">
      <defs>
       <path id="DejaVuSans-38" d="M 2034 2216 
Q 1584 2216 1326 1975 
Q 1069 1734 1069 1313 
Q 1069 891 1326 650 
Q 1584 409 2034 409 
Q 2484 409 2743 651 
Q 3003 894 3003 1313 
Q 3003 1734 2745 1975 
Q 2488 2216 2034 2216 
z
M 1403 2484 
Q 997 2584 770 2862 
Q 544 3141 544 3541 
Q 544 4100 942 4425 
Q 1341 4750 2034 4750 
Q 2731 4750 3128 4425 
Q 3525 4100 3525 3541 
Q 3525 3141 3298 2862 
Q 3072 2584 2669 2484 
Q 3125 2378 3379 2068 
Q 3634 1759 3634 1313 
Q 3634 634 3220 271 
Q 2806 -91 2034 -91 
Q 1263 -91 848 271 
Q 434 634 434 1313 
Q 434 1759 690 2068 
Q 947 2378 1403 2484 
z
M 1172 3481 
Q 1172 3119 1398 2916 
Q 1625 2713 2034 2713 
Q 2441 2713 2670 2916 
Q 2900 3119 2900 3481 
Q 2900 3844 2670 4047 
Q 2441 4250 2034 4250 
Q 1625 4250 1398 4047 
Q 1172 3844 1172 3481 
z
" transform="scale(0.015625)"/>
      </defs>
      <use xlink:href="#DejaVuSans-Oblique-63" transform="translate(0 0.529687)"/>
      <use xlink:href="#DejaVuSans-31" transform="translate(54.980469 -15.876563) scale(0.7)"/>
      <use xlink:href="#DejaVuSans-2c" transform="translate(102.250977 0.529687)"/>
      <use xlink:href="#DejaVuSans-20" transform="translate(134.038086 0.529687)"/>
      <use xlink:href="#DejaVuSans-Oblique-4e" transform="translate(165.825195 0.529687)"/>
      <use xlink:href="#DejaVuSans-Oblique-62" transform="translate(247.646654 38.810938) scale(0.7)"/>
      <use xlink:href="#DejaVuSans-Oblique-65" transform="translate(240.629883 -26.814063) scale(0.7)"/>
      <use xlink:href="#DejaVuSans-20" transform="translate(294.814622 0.529687)"/>
      <use xlink:href="#DejaVuSans-3d" transform="translate(326.601732 0.529687)"/>
      <use xlink:href="#DejaVuSans-20" transform="translate(410.390794 0.529687)"/>
      <use xlink:href="#DejaVuSans-38" transform="translate(442.177904 0.529687)"/>
     </g>
    </g>
    <g id="line2d_23">
     <path d="M 366 83.46 
L 376 83.46 
L 386 83.46 
" style="fill: none; stroke-dasharray: 5.55,2.4; stroke-dashoffset: 0; stroke: #ff0000; stroke-width: 1.5"/>
    </g>
    <g id="text_19">
     <!-- $c_2$, $N_e^b$ = 2 -->
     <g transform="translate(394 86.96) scale(0.1 -0.1)">
      <use xlink:href="#DejaVuSans-Oblique-63" transform="translate(0 0.529687)"/>
      <use xlink:href="#DejaVuSans-32" transform="translate(54.980469 -15.876563) scale(0.7)"/>
      <use xlink:href="#DejaVuSans-2c" transform="translate(102.250977 0.529687)"/>
      <use xlink:href="#DejaVuSans-20" transform="translate(134.038086 0.529687)"/>
      <use xlink:href="#DejaVuSans-Oblique-4e" transform="translate(165.825195 0.529687)"/>
      <use xlink:href="#DejaVuSans-Oblique-62" transform="translate(247.646654 38.810938) scale(0.7)"/>
      <use xlink:href="#DejaVuSans-Oblique-65" transform="translate(240.629883 -26.814063) scale(0.7)"/>
      <use xlink:href="#DejaVuSans-20" transform="translate(294.814622 0.529687)"/>
      <use xlink:href="#DejaVuSans-3d" transform="translate(326.601732 0.529687)"/>
      <use xlink:href="#DejaVuSans-20" transform="translate(410.390794 0.529687)"/>
      <use xlink:href="#DejaVuSans-32" transform="translate(442.177904 0.529687)"/>
     </g>
    </g>
    <g id="line2d_24">
     <path d="M 366 100.56 
L 376 100.56 
L 386 100.56 
" style="fill: none; stroke: #00bfbf; stroke-width: 1.5; stroke-linecap: square"/>
    </g>
    <g id="text_20">
     <!-- $c_2$, $N_e^b$ = 8 -->
     <g transform="translate(394 104.06) scale(0.1 -0.1)">
      <use xlink:href="#DejaVuSans-Oblique-63" transform="translate(0 0.529687)"/>
      <use xlink:href="#DejaVuSans-32" transform="translate(54.980469 -15.876563) scale(0.7)"/>
      <use xlink:href="#DejaVuSans-2c" transform="translate(102.250977 0.529687)"/>
      <use xlink:href="#DejaVuSans-20" transform="translate(134.038086 0.529687)"/>
      <use xlink:href="#DejaVuSans-Oblique-4e" transform="translate(165.825195 0.529687)"/>
      <use xlink:href="#DejaVuSans-Oblique-62" transform="translate(247.646654 38.810938) scale(0.7)"/>
      <use xlink:href="#DejaVuSans-Oblique-65" transform="translate(240.629883 -26.814063) scale(0.7)"/>
      <use xlink:href="#DejaVuSans-20" transform="translate(294.814622 0.529687)"/>
      <use xlink:href="#DejaVuSans-3d" transform="translate(326.601732 0.529687)"/>
      <use xlink:href="#DejaVuSans-20" transform="translate(410.390794 0.529687)"/>
      <use xlink:href="#DejaVuSans-38" transform="translate(442.177904 0.529687)"/>
     </g>
    </g>
    <g id="line2d_25">
     <path d="M 366 117.66 
L 376 117.66 
L 386 117.66 
" style="fill: none; stroke-dasharray: 5.55,2.4; stroke-dashoffset: 0; stroke: #0000ff; stroke-width: 1.5"/>
    </g>
    <g id="text_21">
     <!-- $c_3$, $N_e^b$ = 2 -->
     <g transform="translate(394 121.16) scale(0.1 -0.1)">
      <use xlink:href="#DejaVuSans-Oblique-63" transform="translate(0 0.529687)"/>
      <use xlink:href="#DejaVuSans-33" transform="translate(54.980469 -15.876563) scale(0.7)"/>
      <use xlink:href="#DejaVuSans-2c" transform="translate(102.250977 0.529687)"/>
      <use xlink:href="#DejaVuSans-20" transform="translate(134.038086 0.529687)"/>
      <use xlink:href="#DejaVuSans-Oblique-4e" transform="translate(165.825195 0.529687)"/>
      <use xlink:href="#DejaVuSans-Oblique-62" transform="translate(247.646654 38.810938) scale(0.7)"/>
      <use xlink:href="#DejaVuSans-Oblique-65" transform="translate(240.629883 -26.814063) scale(0.7)"/>
      <use xlink:href="#DejaVuSans-20" transform="translate(294.814622 0.529687)"/>
      <use xlink:href="#DejaVuSans-3d" transform="translate(326.601732 0.529687)"/>
      <use xlink:href="#DejaVuSans-20" transform="translate(410.390794 0.529687)"/>
      <use xlink:href="#DejaVuSans-32" transform="translate(442.177904 0.529687)"/>
     </g>
    </g>
    <g id="line2d_26">
     <path d="M 366 134.76 
L 376 134.76 
L 386 134.76 
" style="fill: none; stroke: #bfbf00; stroke-width: 1.5; stroke-linecap: square"/>
    </g>
    <g id="text_22">
     <!-- $c_3$, $N_e^b$ = 8 -->
     <g transform="translate(394 138.26) scale(0.1 -0.1)">
      <use xlink:href="#DejaVuSans-Oblique-63" transform="translate(0 0.529687)"/>
      <use xlink:href="#DejaVuSans-33" transform="translate(54.980469 -15.876563) scale(0.7)"/>
      <use xlink:href="#DejaVuSans-2c" transform="translate(102.250977 0.529687)"/>
      <use xlink:href="#DejaVuSans-20" transform="translate(134.038086 0.529687)"/>
      <use xlink:href="#DejaVuSans-Oblique-4e" transform="translate(165.825195 0.529687)"/>
      <use xlink:href="#DejaVuSans-Oblique-62" transform="translate(247.646654 38.810938) scale(0.7)"/>
      <use xlink:href="#DejaVuSans-Oblique-65" transform="translate(240.629883 -26.814063) scale(0.7)"/>
      <use xlink:href="#DejaVuSans-20" transform="translate(294.814622 0.529687)"/>
      <use xlink:href="#DejaVuSans-3d" transform="translate(326.601732 0.529687)"/>
      <use xlink:href="#DejaVuSans-20" transform="translate(410.390794 0.529687)"/>
      <use xlink:href="#DejaVuSans-38" transform="translate(442.177904 0.529687)"/>
     </g>
    </g>
   </g>
  </g>
 </g>
 <defs>
  <clipPath id="p44c05a8828">
   <rect x="63" y="34.56" width="390.6" height="217.44"/>
  </clipPath>
 </defs>
</svg>
