<?xml version="1.0" encoding="utf-8" standalone="no"?>
<!DOCTYPE svg PUBLIC "-//W3C//DTD SVG 1.1//EN"
  "http://www.w3.org/Graphics/SVG/1.1/DTD/svg11.dtd">
<svg xmlns:xlink="http://www.w3.org/1999/xlink" width="504pt" height="288pt" viewBox="0 0 504 288" xmlns="http://www.w3.org/2000/svg" version="1.1">
 <metadata>
  <rdf:RDF xmlns:dc="http://purl.org/dc/elements/1.1/" xmlns:cc="http://creativecommons.org/ns#" xmlns:rdf="http://www.w3.org/1999/02/22-rdf-syntax-ns#">
   <cc:Work>
    <dc:type rdf:resource="http://purl.org/dc/dcmitype/StillImage"/>
    <dc:date>2024-06-18T15:13:36.315828</dc:date>
    <dc:format>image/svg+xml</dc:format>
    <dc:creator>
     <cc:Agent>
      <dc:title>Matplotlib v3.7.1, https://matplotlib.org/</dc:title>
     </cc:Agent>
    </dc:creator>
   </cc:Work>
  </rdf:RDF>
 </metadata>
 <defs>
  <style type="text/css">*{stroke-linejoin: round; stroke-linecap: butt}</style>
 </defs>
 <g id="figure_1">
  <g id="patch_1">
   <path d="M 0 288 
L 504 288 
L 504 0 
L 0 0 
z
" style="fill: #ffffff"/>
  </g>
  <g id="axes_1">
   <g id="patch_2">
    <path d="M 63 252 
L 453.6 252 
L 453.6 34.56 
L 63 34.56 
z
" style="fill: #ffffff"/>
   </g>
   <g id="matplotlib.axis_1">
    <g id="xtick_1">
     <g id="line2d_1">
      <defs>
       <path id="mbda4438527" d="M 0 0 
L 0 3.5 
" style="stroke: #000000; stroke-width: 0.8"/>
      </defs>
      <g>
       <use xlink:href="#mbda4438527" x="80.754545" y="252" style="stroke: #000000; stroke-width: 0.8"/>
      </g>
     </g>
     <g id="text_1">
      <!-- 0 -->
      <g transform="translate(77.573295 266.598437) scale(0.1 -0.1)">
       <defs>
        <path id="DejaVuSans-30" d="M 2034 4250 
Q 1547 4250 1301 3770 
Q 1056 3291 1056 2328 
Q 1056 1369 1301 889 
Q 1547 409 2034 409 
Q 2525 409 2770 889 
Q 3016 1369 3016 2328 
Q 3016 3291 2770 3770 
Q 2525 4250 2034 4250 
z
M 2034 4750 
Q 2819 4750 3233 4129 
Q 3647 3509 3647 2328 
Q 3647 1150 3233 529 
Q 2819 -91 2034 -91 
Q 1250 -91 836 529 
Q 422 1150 422 2328 
Q 422 3509 836 4129 
Q 1250 4750 2034 4750 
z
" transform="scale(0.015625)"/>
       </defs>
       <use xlink:href="#DejaVuSans-30"/>
      </g>
     </g>
    </g>
    <g id="xtick_2">
     <g id="line2d_2">
      <g>
       <use xlink:href="#mbda4438527" x="125.140909" y="252" style="stroke: #000000; stroke-width: 0.8"/>
      </g>
     </g>
     <g id="text_2">
      <!-- 5 -->
      <g transform="translate(121.959659 266.598437) scale(0.1 -0.1)">
       <defs>
        <path id="DejaVuSans-35" d="M 691 4666 
L 3169 4666 
L 3169 4134 
L 1269 4134 
L 1269 2991 
Q 1406 3038 1543 3061 
Q 1681 3084 1819 3084 
Q 2600 3084 3056 2656 
Q 3513 2228 3513 1497 
Q 3513 744 3044 326 
Q 2575 -91 1722 -91 
Q 1428 -91 1123 -41 
Q 819 9 494 109 
L 494 744 
Q 775 591 1075 516 
Q 1375 441 1709 441 
Q 2250 441 2565 725 
Q 2881 1009 2881 1497 
Q 2881 1984 2565 2268 
Q 2250 2553 1709 2553 
Q 1456 2553 1204 2497 
Q 953 2441 691 2322 
L 691 4666 
z
" transform="scale(0.015625)"/>
       </defs>
       <use xlink:href="#DejaVuSans-35"/>
      </g>
     </g>
    </g>
    <g id="xtick_3">
     <g id="line2d_3">
      <g>
       <use xlink:href="#mbda4438527" x="169.527273" y="252" style="stroke: #000000; stroke-width: 0.8"/>
      </g>
     </g>
     <g id="text_3">
      <!-- 10 -->
      <g transform="translate(163.164773 266.598437) scale(0.1 -0.1)">
       <defs>
        <path id="DejaVuSans-31" d="M 794 531 
L 1825 531 
L 1825 4091 
L 703 3866 
L 703 4441 
L 1819 4666 
L 2450 4666 
L 2450 531 
L 3481 531 
L 3481 0 
L 794 0 
L 794 531 
z
" transform="scale(0.015625)"/>
       </defs>
       <use xlink:href="#DejaVuSans-31"/>
       <use xlink:href="#DejaVuSans-30" x="63.623047"/>
      </g>
     </g>
    </g>
    <g id="xtick_4">
     <g id="line2d_4">
      <g>
       <use xlink:href="#mbda4438527" x="213.913636" y="252" style="stroke: #000000; stroke-width: 0.8"/>
      </g>
     </g>
     <g id="text_4">
      <!-- 15 -->
      <g transform="translate(207.551136 266.598437) scale(0.1 -0.1)">
       <use xlink:href="#DejaVuSans-31"/>
       <use xlink:href="#DejaVuSans-35" x="63.623047"/>
      </g>
     </g>
    </g>
    <g id="xtick_5">
     <g id="line2d_5">
      <g>
       <use xlink:href="#mbda4438527" x="258.3" y="252" style="stroke: #000000; stroke-width: 0.8"/>
      </g>
     </g>
     <g id="text_5">
      <!-- 20 -->
      <g transform="translate(251.9375 266.598437) scale(0.1 -0.1)">
       <defs>
        <path id="DejaVuSans-32" d="M 1228 531 
L 3431 531 
L 3431 0 
L 469 0 
L 469 531 
Q 828 903 1448 1529 
Q 2069 2156 2228 2338 
Q 2531 2678 2651 2914 
Q 2772 3150 2772 3378 
Q 2772 3750 2511 3984 
Q 2250 4219 1831 4219 
Q 1534 4219 1204 4116 
Q 875 4013 500 3803 
L 500 4441 
Q 881 4594 1212 4672 
Q 1544 4750 1819 4750 
Q 2544 4750 2975 4387 
Q 3406 4025 3406 3419 
Q 3406 3131 3298 2873 
Q 3191 2616 2906 2266 
Q 2828 2175 2409 1742 
Q 1991 1309 1228 531 
z
" transform="scale(0.015625)"/>
       </defs>
       <use xlink:href="#DejaVuSans-32"/>
       <use xlink:href="#DejaVuSans-30" x="63.623047"/>
      </g>
     </g>
    </g>
    <g id="xtick_6">
     <g id="line2d_6">
      <g>
       <use xlink:href="#mbda4438527" x="302.686364" y="252" style="stroke: #000000; stroke-width: 0.8"/>
      </g>
     </g>
     <g id="text_6">
      <!-- 25 -->
      <g transform="translate(296.323864 266.598437) scale(0.1 -0.1)">
       <use xlink:href="#DejaVuSans-32"/>
       <use xlink:href="#DejaVuSans-35" x="63.623047"/>
      </g>
     </g>
    </g>
    <g id="xtick_7">
     <g id="line2d_7">
      <g>
       <use xlink:href="#mbda4438527" x="347.072727" y="252" style="stroke: #000000; stroke-width: 0.8"/>
      </g>
     </g>
     <g id="text_7">
      <!-- 30 -->
      <g transform="translate(340.710227 266.598437) scale(0.1 -0.1)">
       <defs>
        <path id="DejaVuSans-33" d="M 2597 2516 
Q 3050 2419 3304 2112 
Q 3559 1806 3559 1356 
Q 3559 666 3084 287 
Q 2609 -91 1734 -91 
Q 1441 -91 1130 -33 
Q 819 25 488 141 
L 488 750 
Q 750 597 1062 519 
Q 1375 441 1716 441 
Q 2309 441 2620 675 
Q 2931 909 2931 1356 
Q 2931 1769 2642 2001 
Q 2353 2234 1838 2234 
L 1294 2234 
L 1294 2753 
L 1863 2753 
Q 2328 2753 2575 2939 
Q 2822 3125 2822 3475 
Q 2822 3834 2567 4026 
Q 2313 4219 1838 4219 
Q 1578 4219 1281 4162 
Q 984 4106 628 3988 
L 628 4550 
Q 988 4650 1302 4700 
Q 1616 4750 1894 4750 
Q 2613 4750 3031 4423 
Q 3450 4097 3450 3541 
Q 3450 3153 3228 2886 
Q 3006 2619 2597 2516 
z
" transform="scale(0.015625)"/>
       </defs>
       <use xlink:href="#DejaVuSans-33"/>
       <use xlink:href="#DejaVuSans-30" x="63.623047"/>
      </g>
     </g>
    </g>
    <g id="xtick_8">
     <g id="line2d_8">
      <g>
       <use xlink:href="#mbda4438527" x="391.459091" y="252" style="stroke: #000000; stroke-width: 0.8"/>
      </g>
     </g>
     <g id="text_8">
      <!-- 35 -->
      <g transform="translate(385.096591 266.598437) scale(0.1 -0.1)">
       <use xlink:href="#DejaVuSans-33"/>
       <use xlink:href="#DejaVuSans-35" x="63.623047"/>
      </g>
     </g>
    </g>
    <g id="xtick_9">
     <g id="line2d_9">
      <g>
       <use xlink:href="#mbda4438527" x="435.845455" y="252" style="stroke: #000000; stroke-width: 0.8"/>
      </g>
     </g>
     <g id="text_9">
      <!-- 40 -->
      <g transform="translate(429.482955 266.598437) scale(0.1 -0.1)">
       <defs>
        <path id="DejaVuSans-34" d="M 2419 4116 
L 825 1625 
L 2419 1625 
L 2419 4116 
z
M 2253 4666 
L 3047 4666 
L 3047 1625 
L 3713 1625 
L 3713 1100 
L 3047 1100 
L 3047 0 
L 2419 0 
L 2419 1100 
L 313 1100 
L 313 1709 
L 2253 4666 
z
" transform="scale(0.015625)"/>
       </defs>
       <use xlink:href="#DejaVuSans-34"/>
       <use xlink:href="#DejaVuSans-30" x="63.623047"/>
      </g>
     </g>
    </g>
    <g id="text_10">
     <!-- Time (s) -->
     <g transform="translate(227.806641 284.075781) scale(0.15 -0.15)">
      <defs>
       <path id="DejaVuSans-54" d="M -19 4666 
L 3928 4666 
L 3928 4134 
L 2272 4134 
L 2272 0 
L 1638 0 
L 1638 4134 
L -19 4134 
L -19 4666 
z
" transform="scale(0.015625)"/>
       <path id="DejaVuSans-69" d="M 603 3500 
L 1178 3500 
L 1178 0 
L 603 0 
L 603 3500 
z
M 603 4863 
L 1178 4863 
L 1178 4134 
L 603 4134 
L 603 4863 
z
" transform="scale(0.015625)"/>
       <path id="DejaVuSans-6d" d="M 3328 2828 
Q 3544 3216 3844 3400 
Q 4144 3584 4550 3584 
Q 5097 3584 5394 3201 
Q 5691 2819 5691 2113 
L 5691 0 
L 5113 0 
L 5113 2094 
Q 5113 2597 4934 2840 
Q 4756 3084 4391 3084 
Q 3944 3084 3684 2787 
Q 3425 2491 3425 1978 
L 3425 0 
L 2847 0 
L 2847 2094 
Q 2847 2600 2669 2842 
Q 2491 3084 2119 3084 
Q 1678 3084 1418 2786 
Q 1159 2488 1159 1978 
L 1159 0 
L 581 0 
L 581 3500 
L 1159 3500 
L 1159 2956 
Q 1356 3278 1631 3431 
Q 1906 3584 2284 3584 
Q 2666 3584 2933 3390 
Q 3200 3197 3328 2828 
z
" transform="scale(0.015625)"/>
       <path id="DejaVuSans-65" d="M 3597 1894 
L 3597 1613 
L 953 1613 
Q 991 1019 1311 708 
Q 1631 397 2203 397 
Q 2534 397 2845 478 
Q 3156 559 3463 722 
L 3463 178 
Q 3153 47 2828 -22 
Q 2503 -91 2169 -91 
Q 1331 -91 842 396 
Q 353 884 353 1716 
Q 353 2575 817 3079 
Q 1281 3584 2069 3584 
Q 2775 3584 3186 3129 
Q 3597 2675 3597 1894 
z
M 3022 2063 
Q 3016 2534 2758 2815 
Q 2500 3097 2075 3097 
Q 1594 3097 1305 2825 
Q 1016 2553 972 2059 
L 3022 2063 
z
" transform="scale(0.015625)"/>
       <path id="DejaVuSans-20" transform="scale(0.015625)"/>
       <path id="DejaVuSans-28" d="M 1984 4856 
Q 1566 4138 1362 3434 
Q 1159 2731 1159 2009 
Q 1159 1288 1364 580 
Q 1569 -128 1984 -844 
L 1484 -844 
Q 1016 -109 783 600 
Q 550 1309 550 2009 
Q 550 2706 781 3412 
Q 1013 4119 1484 4856 
L 1984 4856 
z
" transform="scale(0.015625)"/>
       <path id="DejaVuSans-73" d="M 2834 3397 
L 2834 2853 
Q 2591 2978 2328 3040 
Q 2066 3103 1784 3103 
Q 1356 3103 1142 2972 
Q 928 2841 928 2578 
Q 928 2378 1081 2264 
Q 1234 2150 1697 2047 
L 1894 2003 
Q 2506 1872 2764 1633 
Q 3022 1394 3022 966 
Q 3022 478 2636 193 
Q 2250 -91 1575 -91 
Q 1294 -91 989 -36 
Q 684 19 347 128 
L 347 722 
Q 666 556 975 473 
Q 1284 391 1588 391 
Q 1994 391 2212 530 
Q 2431 669 2431 922 
Q 2431 1156 2273 1281 
Q 2116 1406 1581 1522 
L 1381 1569 
Q 847 1681 609 1914 
Q 372 2147 372 2553 
Q 372 3047 722 3315 
Q 1072 3584 1716 3584 
Q 2034 3584 2315 3537 
Q 2597 3491 2834 3397 
z
" transform="scale(0.015625)"/>
       <path id="DejaVuSans-29" d="M 513 4856 
L 1013 4856 
Q 1481 4119 1714 3412 
Q 1947 2706 1947 2009 
Q 1947 1309 1714 600 
Q 1481 -109 1013 -844 
L 513 -844 
Q 928 -128 1133 580 
Q 1338 1288 1338 2009 
Q 1338 2731 1133 3434 
Q 928 4138 513 4856 
z
" transform="scale(0.015625)"/>
      </defs>
      <use xlink:href="#DejaVuSans-54"/>
      <use xlink:href="#DejaVuSans-69" x="57.958984"/>
      <use xlink:href="#DejaVuSans-6d" x="85.742188"/>
      <use xlink:href="#DejaVuSans-65" x="183.154297"/>
      <use xlink:href="#DejaVuSans-20" x="244.677734"/>
      <use xlink:href="#DejaVuSans-28" x="276.464844"/>
      <use xlink:href="#DejaVuSans-73" x="315.478516"/>
      <use xlink:href="#DejaVuSans-29" x="367.578125"/>
     </g>
    </g>
   </g>
   <g id="matplotlib.axis_2">
    <g id="ytick_1">
     <g id="line2d_10">
      <defs>
       <path id="mad62dd5f97" d="M 0 0 
L -3.5 0 
" style="stroke: #000000; stroke-width: 0.8"/>
      </defs>
      <g>
       <use xlink:href="#mad62dd5f97" x="63" y="236.869309" style="stroke: #000000; stroke-width: 0.8"/>
      </g>
     </g>
     <g id="text_11">
      <!-- −2.5 -->
      <g transform="translate(31.717187 240.668528) scale(0.1 -0.1)">
       <defs>
        <path id="DejaVuSans-2212" d="M 678 2272 
L 4684 2272 
L 4684 1741 
L 678 1741 
L 678 2272 
z
" transform="scale(0.015625)"/>
        <path id="DejaVuSans-2e" d="M 684 794 
L 1344 794 
L 1344 0 
L 684 0 
L 684 794 
z
" transform="scale(0.015625)"/>
       </defs>
       <use xlink:href="#DejaVuSans-2212"/>
       <use xlink:href="#DejaVuSans-32" x="83.789062"/>
       <use xlink:href="#DejaVuSans-2e" x="147.412109"/>
       <use xlink:href="#DejaVuSans-35" x="179.199219"/>
      </g>
     </g>
    </g>
    <g id="ytick_2">
     <g id="line2d_11">
      <g>
       <use xlink:href="#mad62dd5f97" x="63" y="212.269385" style="stroke: #000000; stroke-width: 0.8"/>
      </g>
     </g>
     <g id="text_12">
      <!-- 0.0 -->
      <g transform="translate(40.096875 216.068604) scale(0.1 -0.1)">
       <use xlink:href="#DejaVuSans-30"/>
       <use xlink:href="#DejaVuSans-2e" x="63.623047"/>
       <use xlink:href="#DejaVuSans-30" x="95.410156"/>
      </g>
     </g>
    </g>
    <g id="ytick_3">
     <g id="line2d_12">
      <g>
       <use xlink:href="#mad62dd5f97" x="63" y="187.669462" style="stroke: #000000; stroke-width: 0.8"/>
      </g>
     </g>
     <g id="text_13">
      <!-- 2.5 -->
      <g transform="translate(40.096875 191.468681) scale(0.1 -0.1)">
       <use xlink:href="#DejaVuSans-32"/>
       <use xlink:href="#DejaVuSans-2e" x="63.623047"/>
       <use xlink:href="#DejaVuSans-35" x="95.410156"/>
      </g>
     </g>
    </g>
    <g id="ytick_4">
     <g id="line2d_13">
      <g>
       <use xlink:href="#mad62dd5f97" x="63" y="163.069539" style="stroke: #000000; stroke-width: 0.8"/>
      </g>
     </g>
     <g id="text_14">
      <!-- 5.0 -->
      <g transform="translate(40.096875 166.868757) scale(0.1 -0.1)">
       <use xlink:href="#DejaVuSans-35"/>
       <use xlink:href="#DejaVuSans-2e" x="63.623047"/>
       <use xlink:href="#DejaVuSans-30" x="95.410156"/>
      </g>
     </g>
    </g>
    <g id="ytick_5">
     <g id="line2d_14">
      <g>
       <use xlink:href="#mad62dd5f97" x="63" y="138.469615" style="stroke: #000000; stroke-width: 0.8"/>
      </g>
     </g>
     <g id="text_15">
      <!-- 7.5 -->
      <g transform="translate(40.096875 142.268834) scale(0.1 -0.1)">
       <defs>
        <path id="DejaVuSans-37" d="M 525 4666 
L 3525 4666 
L 3525 4397 
L 1831 0 
L 1172 0 
L 2766 4134 
L 525 4134 
L 525 4666 
z
" transform="scale(0.015625)"/>
       </defs>
       <use xlink:href="#DejaVuSans-37"/>
       <use xlink:href="#DejaVuSans-2e" x="63.623047"/>
       <use xlink:href="#DejaVuSans-35" x="95.410156"/>
      </g>
     </g>
    </g>
    <g id="ytick_6">
     <g id="line2d_15">
      <g>
       <use xlink:href="#mad62dd5f97" x="63" y="113.869692" style="stroke: #000000; stroke-width: 0.8"/>
      </g>
     </g>
     <g id="text_16">
      <!-- 10.0 -->
      <g transform="translate(33.734375 117.668911) scale(0.1 -0.1)">
       <use xlink:href="#DejaVuSans-31"/>
       <use xlink:href="#DejaVuSans-30" x="63.623047"/>
       <use xlink:href="#DejaVuSans-2e" x="127.246094"/>
       <use xlink:href="#DejaVuSans-30" x="159.033203"/>
      </g>
     </g>
    </g>
    <g id="ytick_7">
     <g id="line2d_16">
      <g>
       <use xlink:href="#mad62dd5f97" x="63" y="89.269769" style="stroke: #000000; stroke-width: 0.8"/>
      </g>
     </g>
     <g id="text_17">
      <!-- 12.5 -->
      <g transform="translate(33.734375 93.068987) scale(0.1 -0.1)">
       <use xlink:href="#DejaVuSans-31"/>
       <use xlink:href="#DejaVuSans-32" x="63.623047"/>
       <use xlink:href="#DejaVuSans-2e" x="127.246094"/>
       <use xlink:href="#DejaVuSans-35" x="159.033203"/>
      </g>
     </g>
    </g>
    <g id="ytick_8">
     <g id="line2d_17">
      <g>
       <use xlink:href="#mad62dd5f97" x="63" y="64.669845" style="stroke: #000000; stroke-width: 0.8"/>
      </g>
     </g>
     <g id="text_18">
      <!-- 15.0 -->
      <g transform="translate(33.734375 68.469064) scale(0.1 -0.1)">
       <use xlink:href="#DejaVuSans-31"/>
       <use xlink:href="#DejaVuSans-35" x="63.623047"/>
       <use xlink:href="#DejaVuSans-2e" x="127.246094"/>
       <use xlink:href="#DejaVuSans-30" x="159.033203"/>
      </g>
     </g>
    </g>
    <g id="ytick_9">
     <g id="line2d_18">
      <g>
       <use xlink:href="#mad62dd5f97" x="63" y="40.069922" style="stroke: #000000; stroke-width: 0.8"/>
      </g>
     </g>
     <g id="text_19">
      <!-- 17.5 -->
      <g transform="translate(33.734375 43.869141) scale(0.1 -0.1)">
       <use xlink:href="#DejaVuSans-31"/>
       <use xlink:href="#DejaVuSans-37" x="63.623047"/>
       <use xlink:href="#DejaVuSans-2e" x="127.246094"/>
       <use xlink:href="#DejaVuSans-35" x="159.033203"/>
      </g>
     </g>
    </g>
    <g id="text_20">
     <!-- Concentration (mol/m$^3$) -->
     <g transform="translate(24.597656 232.005) rotate(-90) scale(0.15 -0.15)">
      <defs>
       <path id="DejaVuSans-43" d="M 4122 4306 
L 4122 3641 
Q 3803 3938 3442 4084 
Q 3081 4231 2675 4231 
Q 1875 4231 1450 3742 
Q 1025 3253 1025 2328 
Q 1025 1406 1450 917 
Q 1875 428 2675 428 
Q 3081 428 3442 575 
Q 3803 722 4122 1019 
L 4122 359 
Q 3791 134 3420 21 
Q 3050 -91 2638 -91 
Q 1578 -91 968 557 
Q 359 1206 359 2328 
Q 359 3453 968 4101 
Q 1578 4750 2638 4750 
Q 3056 4750 3426 4639 
Q 3797 4528 4122 4306 
z
" transform="scale(0.015625)"/>
       <path id="DejaVuSans-6f" d="M 1959 3097 
Q 1497 3097 1228 2736 
Q 959 2375 959 1747 
Q 959 1119 1226 758 
Q 1494 397 1959 397 
Q 2419 397 2687 759 
Q 2956 1122 2956 1747 
Q 2956 2369 2687 2733 
Q 2419 3097 1959 3097 
z
M 1959 3584 
Q 2709 3584 3137 3096 
Q 3566 2609 3566 1747 
Q 3566 888 3137 398 
Q 2709 -91 1959 -91 
Q 1206 -91 779 398 
Q 353 888 353 1747 
Q 353 2609 779 3096 
Q 1206 3584 1959 3584 
z
" transform="scale(0.015625)"/>
       <path id="DejaVuSans-6e" d="M 3513 2113 
L 3513 0 
L 2938 0 
L 2938 2094 
Q 2938 2591 2744 2837 
Q 2550 3084 2163 3084 
Q 1697 3084 1428 2787 
Q 1159 2491 1159 1978 
L 1159 0 
L 581 0 
L 581 3500 
L 1159 3500 
L 1159 2956 
Q 1366 3272 1645 3428 
Q 1925 3584 2291 3584 
Q 2894 3584 3203 3211 
Q 3513 2838 3513 2113 
z
" transform="scale(0.015625)"/>
       <path id="DejaVuSans-63" d="M 3122 3366 
L 3122 2828 
Q 2878 2963 2633 3030 
Q 2388 3097 2138 3097 
Q 1578 3097 1268 2742 
Q 959 2388 959 1747 
Q 959 1106 1268 751 
Q 1578 397 2138 397 
Q 2388 397 2633 464 
Q 2878 531 3122 666 
L 3122 134 
Q 2881 22 2623 -34 
Q 2366 -91 2075 -91 
Q 1284 -91 818 406 
Q 353 903 353 1747 
Q 353 2603 823 3093 
Q 1294 3584 2113 3584 
Q 2378 3584 2631 3529 
Q 2884 3475 3122 3366 
z
" transform="scale(0.015625)"/>
       <path id="DejaVuSans-74" d="M 1172 4494 
L 1172 3500 
L 2356 3500 
L 2356 3053 
L 1172 3053 
L 1172 1153 
Q 1172 725 1289 603 
Q 1406 481 1766 481 
L 2356 481 
L 2356 0 
L 1766 0 
Q 1100 0 847 248 
Q 594 497 594 1153 
L 594 3053 
L 172 3053 
L 172 3500 
L 594 3500 
L 594 4494 
L 1172 4494 
z
" transform="scale(0.015625)"/>
       <path id="DejaVuSans-72" d="M 2631 2963 
Q 2534 3019 2420 3045 
Q 2306 3072 2169 3072 
Q 1681 3072 1420 2755 
Q 1159 2438 1159 1844 
L 1159 0 
L 581 0 
L 581 3500 
L 1159 3500 
L 1159 2956 
Q 1341 3275 1631 3429 
Q 1922 3584 2338 3584 
Q 2397 3584 2469 3576 
Q 2541 3569 2628 3553 
L 2631 2963 
z
" transform="scale(0.015625)"/>
       <path id="DejaVuSans-61" d="M 2194 1759 
Q 1497 1759 1228 1600 
Q 959 1441 959 1056 
Q 959 750 1161 570 
Q 1363 391 1709 391 
Q 2188 391 2477 730 
Q 2766 1069 2766 1631 
L 2766 1759 
L 2194 1759 
z
M 3341 1997 
L 3341 0 
L 2766 0 
L 2766 531 
Q 2569 213 2275 61 
Q 1981 -91 1556 -91 
Q 1019 -91 701 211 
Q 384 513 384 1019 
Q 384 1609 779 1909 
Q 1175 2209 1959 2209 
L 2766 2209 
L 2766 2266 
Q 2766 2663 2505 2880 
Q 2244 3097 1772 3097 
Q 1472 3097 1187 3025 
Q 903 2953 641 2809 
L 641 3341 
Q 956 3463 1253 3523 
Q 1550 3584 1831 3584 
Q 2591 3584 2966 3190 
Q 3341 2797 3341 1997 
z
" transform="scale(0.015625)"/>
       <path id="DejaVuSans-6c" d="M 603 4863 
L 1178 4863 
L 1178 0 
L 603 0 
L 603 4863 
z
" transform="scale(0.015625)"/>
       <path id="DejaVuSans-2f" d="M 1625 4666 
L 2156 4666 
L 531 -594 
L 0 -594 
L 1625 4666 
z
" transform="scale(0.015625)"/>
      </defs>
      <use xlink:href="#DejaVuSans-43" transform="translate(0 0.765625)"/>
      <use xlink:href="#DejaVuSans-6f" transform="translate(69.824219 0.765625)"/>
      <use xlink:href="#DejaVuSans-6e" transform="translate(131.005859 0.765625)"/>
      <use xlink:href="#DejaVuSans-63" transform="translate(194.384766 0.765625)"/>
      <use xlink:href="#DejaVuSans-65" transform="translate(249.365234 0.765625)"/>
      <use xlink:href="#DejaVuSans-6e" transform="translate(310.888672 0.765625)"/>
      <use xlink:href="#DejaVuSans-74" transform="translate(374.267578 0.765625)"/>
      <use xlink:href="#DejaVuSans-72" transform="translate(413.476562 0.765625)"/>
      <use xlink:href="#DejaVuSans-61" transform="translate(454.589844 0.765625)"/>
      <use xlink:href="#DejaVuSans-74" transform="translate(515.869141 0.765625)"/>
      <use xlink:href="#DejaVuSans-69" transform="translate(555.078125 0.765625)"/>
      <use xlink:href="#DejaVuSans-6f" transform="translate(582.861328 0.765625)"/>
      <use xlink:href="#DejaVuSans-6e" transform="translate(644.042969 0.765625)"/>
      <use xlink:href="#DejaVuSans-20" transform="translate(707.421875 0.765625)"/>
      <use xlink:href="#DejaVuSans-28" transform="translate(739.208984 0.765625)"/>
      <use xlink:href="#DejaVuSans-6d" transform="translate(778.222656 0.765625)"/>
      <use xlink:href="#DejaVuSans-6f" transform="translate(875.634766 0.765625)"/>
      <use xlink:href="#DejaVuSans-6c" transform="translate(936.816406 0.765625)"/>
      <use xlink:href="#DejaVuSans-2f" transform="translate(964.599609 0.765625)"/>
      <use xlink:href="#DejaVuSans-6d" transform="translate(998.291016 0.765625)"/>
      <use xlink:href="#DejaVuSans-33" transform="translate(1096.660156 39.046875) scale(0.7)"/>
      <use xlink:href="#DejaVuSans-29" transform="translate(1143.930664 0.765625)"/>
     </g>
    </g>
   </g>
   <g id="line2d_19">
    <path d="M 80.754545 212.269385 
L 85.193182 212.032692 
L 87.856364 212.48703 
L 90.519545 212.919733 
L 92.295 213.000078 
L 94.070455 212.878722 
L 96.733636 212.375303 
L 102.947727 210.900437 
L 104.723182 210.784756 
L 106.498636 210.912658 
L 108.274091 211.27674 
L 110.937273 212.143517 
L 115.375909 213.725994 
L 117.151364 214.173695 
L 118.926818 214.43913 
L 120.702273 214.505191 
L 122.477727 214.376797 
L 124.253182 214.075619 
L 126.916364 213.37094 
L 130.467273 212.14094 
L 142.007727 207.886645 
L 143.783182 207.621166 
L 144.670909 207.63012 
L 145.558636 207.75885 
L 146.446364 208.0224 
L 147.334091 208.430271 
L 148.221818 208.98505 
L 149.997273 210.508367 
L 151.772727 212.470853 
L 157.099091 218.80212 
L 158.874545 220.272824 
L 159.762273 220.774578 
L 160.65 221.097023 
L 161.537727 221.22765 
L 162.425455 221.158606 
L 163.313182 220.88703 
L 164.200909 220.415267 
L 165.088636 219.750926 
L 165.976364 218.90674 
L 167.751818 216.753216 
L 169.527273 214.141879 
L 173.965909 207.153567 
L 175.741364 204.785917 
L 177.516818 202.945963 
L 178.404545 202.26322 
L 179.292273 201.752436 
L 180.18 201.419526 
L 181.067727 201.26705 
L 181.955455 201.294459 
L 182.843182 201.498398 
L 183.730909 201.873058 
L 184.618636 202.410541 
L 185.506364 203.101225 
L 187.281818 204.897185 
L 189.057273 207.360414 
L 194.383636 215.228393 
L 198.822273 222.565139 
L 200.597727 224.875417 
L 201.485455 225.713347 
L 202.373182 226.279799 
L 203.260909 226.533628 
L 204.148636 226.438778 
L 205.036364 225.966155 
L 205.924091 225.095411 
L 206.811818 223.816332 
L 207.699545 222.129585 
L 208.587273 220.04666 
L 209.475 217.588997 
L 211.250455 211.675205 
L 213.025909 204.690159 
L 215.689091 192.931354 
L 223.678636 156.225575 
L 226.341818 145.112359 
L 229.005 135.077144 
L 230.780455 129.13931 
L 232.555909 123.907867 
L 234.331364 119.455548 
L 236.106818 115.827333 
L 237.882273 113.03168 
L 238.77 111.937798 
L 239.657727 111.037398 
L 240.545455 110.320242 
L 241.433182 109.774809 
L 242.320909 109.387425 
L 243.208636 109.143012 
L 244.984091 109.019017 
L 246.759545 109.269266 
L 248.535 109.76094 
L 254.749091 111.801091 
L 257.412273 112.308397 
L 260.075455 112.493797 
L 263.626364 112.392378 
L 267.177273 112.248966 
L 269.840455 112.381196 
L 271.615909 112.677083 
L 273.391364 113.183354 
L 275.166818 113.925188 
L 276.942273 114.915975 
L 278.717727 116.157521 
L 280.493182 117.641224 
L 282.268636 119.349722 
L 284.931818 122.279714 
L 287.595 125.560373 
L 291.145909 130.291435 
L 301.798636 144.795041 
L 305.349545 149.223262 
L 308.900455 153.324814 
L 312.451364 157.087276 
L 316.002273 160.523782 
L 319.553182 163.663298 
L 323.104091 166.54308 
L 327.542727 169.838598 
L 331.981364 172.866552 
L 337.307727 176.240143 
L 344.409545 180.441798 
L 353.286818 185.399297 
L 362.164091 190.119159 
L 370.153636 194.145811 
L 377.255455 197.498688 
L 383.469545 200.216768 
L 389.683636 202.701339 
L 395.897727 204.927436 
L 401.224091 206.61588 
L 406.550455 208.093958 
L 411.876818 209.358825 
L 417.203182 210.412046 
L 422.529545 211.259786 
L 428.743636 212.003853 
L 434.957727 212.508309 
L 435.845455 212.562635 
L 435.845455 212.562635 
" clip-path="url(#pcec19a5b2e)" style="fill: none; stroke-dasharray: 5.55,2.4; stroke-dashoffset: 0; stroke: #008000; stroke-width: 1.5"/>
   </g>
   <g id="line2d_20">
    <path d="M 80.754545 212.269385 
L 194.383636 212.207206 
L 197.046818 212.058908 
L 198.822273 212.211535 
L 202.373182 212.839233 
L 203.260909 212.860885 
L 204.148636 212.730623 
L 205.036364 212.403076 
L 205.924091 211.874304 
L 207.699545 210.565822 
L 208.587273 210.122165 
L 209.475 210.070646 
L 210.362727 210.547772 
L 211.250455 211.598731 
L 212.138182 213.152908 
L 213.913636 216.881846 
L 214.801364 218.347768 
L 215.689091 218.953171 
L 216.576818 218.218734 
L 217.464545 215.700935 
L 218.352273 211.059121 
L 219.24 204.13281 
L 220.127727 195.01465 
L 221.903182 172.015758 
L 223.678636 147.733756 
L 224.566364 137.089966 
L 225.454091 128.175085 
L 226.341818 121.221504 
L 227.229545 116.226618 
L 228.117273 113.010687 
L 229.005 111.282832 
L 229.892727 110.703012 
L 230.780455 110.928751 
L 231.668182 111.647553 
L 234.331364 114.428153 
L 235.219091 115.076843 
L 236.106818 115.478278 
L 236.994545 115.632693 
L 237.882273 115.56983 
L 239.657727 114.997905 
L 242.320909 113.874525 
L 244.096364 113.424728 
L 245.871818 113.32868 
L 247.647273 113.493308 
L 252.085909 114.035877 
L 254.749091 114.044131 
L 261.850909 113.791419 
L 269.840455 113.918077 
L 274.279091 113.954373 
L 279.605455 113.831633 
L 281.380909 114.172387 
L 282.268636 114.516407 
L 283.156364 115.002748 
L 284.044091 115.645086 
L 284.931818 116.450851 
L 286.707273 118.549797 
L 288.482727 121.235699 
L 290.258182 124.375197 
L 293.809091 131.368111 
L 298.247727 140.095197 
L 300.910909 144.882126 
L 303.574091 149.232801 
L 306.237273 153.146937 
L 308.900455 156.650392 
L 311.563636 159.776867 
L 314.226818 162.560015 
L 316.89 165.03019 
L 319.553182 167.213214 
L 322.216364 169.130606 
L 324.879545 170.801713 
L 327.542727 172.248107 
L 331.093636 173.880499 
L 335.532273 175.606155 
L 342.634091 178.335319 
L 346.185 179.945139 
L 350.623636 182.246247 
L 356.837727 185.815699 
L 367.490455 191.992159 
L 373.704545 195.341089 
L 379.918636 198.445269 
L 386.132727 201.295373 
L 392.346818 203.884463 
L 397.673182 205.887015 
L 402.999545 207.673333 
L 408.325909 209.214889 
L 412.764545 210.282579 
L 417.203182 211.125183 
L 421.641818 211.726351 
L 426.080455 212.0931 
L 431.406818 212.279834 
L 435.845455 212.300981 
L 435.845455 212.300981 
" clip-path="url(#pcec19a5b2e)" style="fill: none; stroke: #bf00bf; stroke-width: 1.5; stroke-linecap: square"/>
   </g>
   <g id="line2d_21">
    <path d="M 80.754545 212.269385 
L 83.417727 211.953004 
L 84.305455 212.03842 
L 88.744091 213.057023 
L 90.519545 212.960327 
L 92.295 212.508299 
L 96.733636 211.023127 
L 98.509091 210.770982 
L 100.284545 210.888112 
L 102.06 211.382461 
L 103.835455 212.171544 
L 107.386364 213.961017 
L 109.161818 214.578435 
L 110.937273 214.818318 
L 112.712727 214.629008 
L 114.488182 214.039283 
L 116.263636 213.142822 
L 122.477727 209.591473 
L 124.253182 208.979652 
L 126.028636 208.68473 
L 127.804091 208.717653 
L 129.579545 209.056988 
L 131.355 209.660716 
L 133.130455 210.480061 
L 135.793636 212.027053 
L 138.456818 213.912329 
L 141.12 216.159308 
L 145.558636 220.172489 
L 146.446364 220.776256 
L 147.334091 221.215578 
L 148.221818 221.446821 
L 149.109545 221.431987 
L 149.997273 221.141636 
L 150.885 220.556856 
L 151.772727 219.670258 
L 152.660455 218.486139 
L 153.548182 217.020019 
L 155.323636 213.354486 
L 157.099091 208.984156 
L 160.65 199.86343 
L 162.425455 196.087407 
L 163.313182 194.601225 
L 164.200909 193.449381 
L 165.088636 192.672338 
L 165.976364 192.301411 
L 166.864091 192.357779 
L 167.751818 192.851885 
L 168.639545 193.783231 
L 169.527273 195.140593 
L 170.415 196.90258 
L 171.302727 199.038508 
L 173.078182 204.269701 
L 174.853636 210.447679 
L 180.18 230.003068 
L 181.955455 235.297742 
L 182.843182 237.477523 
L 183.730909 239.286506 
L 184.618636 240.685428 
L 185.506364 241.639108 
L 186.394091 242.116364 
L 187.281818 242.089847 
L 188.169545 241.641913 
L 189.057273 240.636141 
L 189.945 238.926168 
L 190.832727 236.515357 
L 191.720455 233.462632 
L 192.608182 229.835495 
L 194.383636 221.056036 
L 196.159091 210.375364 
L 197.934545 197.764762 
L 199.71 183.181493 
L 201.485455 166.783798 
L 208.587273 97.788568 
L 210.362727 84.918741 
L 211.250455 79.722162 
L 212.138182 75.40276 
L 213.025909 71.966545 
L 213.913636 69.395898 
L 214.801364 67.652729 
L 215.689091 66.682074 
L 216.576818 66.415899 
L 217.464545 66.776872 
L 218.352273 67.681932 
L 219.24 69.045598 
L 220.127727 70.782967 
L 221.903182 75.055835 
L 225.454091 84.900076 
L 228.117273 91.949424 
L 229.892727 96.142049 
L 231.668182 99.892154 
L 233.443636 103.247267 
L 236.106818 107.713526 
L 238.77 111.715867 
L 241.433182 115.359267 
L 244.096364 118.561567 
L 245.871818 120.34333 
L 247.647273 121.74698 
L 249.422727 122.694555 
L 250.310455 122.977516 
L 251.198182 123.125876 
L 252.085909 123.136585 
L 252.973636 123.008786 
L 253.861364 122.743907 
L 254.749091 122.345806 
L 256.524545 121.176927 
L 258.3 119.578589 
L 260.075455 117.659171 
L 266.289545 110.44518 
L 268.065 108.85681 
L 269.840455 107.72267 
L 270.728182 107.357671 
L 271.615909 107.140617 
L 272.503636 107.079283 
L 273.391364 107.179196 
L 274.279091 107.444224 
L 275.166818 107.876234 
L 276.054545 108.475303 
L 276.942273 109.239813 
L 278.717727 111.2509 
L 280.493182 113.867481 
L 282.268636 117.029481 
L 284.044091 120.663976 
L 286.707273 126.824157 
L 289.370455 133.583693 
L 301.798636 166.077648 
L 304.461818 172.229826 
L 307.125 177.907832 
L 309.788182 183.086727 
L 312.451364 187.761472 
L 315.114545 191.941291 
L 317.777727 195.645099 
L 320.440909 198.898002 
L 323.104091 201.728745 
L 325.767273 204.16794 
L 328.430455 206.246892 
L 331.093636 207.996857 
L 333.756818 209.448585 
L 336.42 210.632052 
L 339.083182 211.576292 
L 341.746364 212.309276 
L 345.297273 213.004109 
L 348.848182 213.430803 
L 352.399091 213.644724 
L 356.837727 213.688968 
L 363.051818 213.484217 
L 390.571364 212.187712 
L 401.224091 212.096654 
L 420.754091 212.227308 
L 435.845455 212.299672 
L 435.845455 212.299672 
" clip-path="url(#pcec19a5b2e)" style="fill: none; stroke-dasharray: 5.55,2.4; stroke-dashoffset: 0; stroke: #ff0000; stroke-width: 1.5"/>
   </g>
   <g id="line2d_22">
    <path d="M 80.754545 212.269385 
L 173.965909 212.335594 
L 176.629091 212.427157 
L 178.404545 212.339788 
L 181.067727 211.902524 
L 182.843182 211.708967 
L 183.730909 211.801833 
L 184.618636 212.067493 
L 186.394091 212.998991 
L 188.169545 213.869052 
L 189.057273 214.000649 
L 189.945 213.781225 
L 190.832727 213.095348 
L 191.720455 211.85943 
L 194.383636 206.576322 
L 195.271364 205.963921 
L 196.159091 206.890392 
L 197.046818 209.561782 
L 197.934545 213.714646 
L 199.71 223.108351 
L 200.597727 225.831213 
L 201.485455 225.278536 
L 202.373182 219.991387 
L 203.260909 208.784319 
L 204.148636 191.181598 
L 205.036364 167.986606 
L 207.699545 91.278548 
L 208.587273 72.397501 
L 209.475 58.915745 
L 210.362727 50.441838 
L 211.250455 46.005387 
L 212.138182 44.443636 
L 213.025909 44.676443 
L 213.913636 45.86432 
L 215.689091 49.258461 
L 216.576818 51.237898 
L 217.464545 53.595091 
L 218.352273 56.599351 
L 219.24 60.504947 
L 220.127727 65.456977 
L 221.015455 71.42193 
L 225.454091 104.424688 
L 226.341818 108.915318 
L 227.229545 112.230648 
L 228.117273 114.425974 
L 229.005 115.645141 
L 229.892727 116.083295 
L 230.780455 115.954826 
L 231.668182 115.46791 
L 234.331364 113.510648 
L 235.219091 113.05224 
L 236.106818 112.77281 
L 236.994545 112.67188 
L 237.882273 112.726121 
L 239.657727 113.142021 
L 242.320909 113.90604 
L 244.096364 114.183317 
L 245.871818 114.220274 
L 249.422727 113.928227 
L 252.973636 113.741698 
L 257.412273 113.852365 
L 261.850909 113.934068 
L 269.840455 113.870325 
L 274.279091 114.00169 
L 279.605455 113.827038 
L 280.493182 114.015686 
L 281.380909 114.366946 
L 282.268636 114.918534 
L 283.156364 115.701754 
L 284.044091 116.739029 
L 284.931818 118.042386 
L 285.819545 119.612968 
L 287.595 123.509812 
L 289.370455 128.258401 
L 292.033636 136.422601 
L 298.247727 156.271574 
L 300.910909 164.004923 
L 303.574091 171.045159 
L 306.237273 177.393602 
L 308.900455 183.089322 
L 311.563636 188.180608 
L 314.226818 192.71322 
L 316.89 196.725623 
L 319.553182 200.246675 
L 322.216364 203.294687 
L 324.879545 205.878337 
L 326.655 207.344242 
L 328.430455 208.605823 
L 330.205909 209.665465 
L 331.981364 210.528535 
L 333.756818 211.204639 
L 335.532273 211.708378 
L 338.195455 212.184904 
L 340.858636 212.400866 
L 344.409545 212.437706 
L 361.276364 212.238005 
L 384.357273 212.268466 
L 435.845455 212.26937 
L 435.845455 212.26937 
" clip-path="url(#pcec19a5b2e)" style="fill: none; stroke: #00bfbf; stroke-width: 1.5; stroke-linecap: square"/>
   </g>
   <g id="patch_3">
    <path d="M 63 252 
L 63 34.56 
" style="fill: none; stroke: #000000; stroke-width: 0.8; stroke-linejoin: miter; stroke-linecap: square"/>
   </g>
   <g id="patch_4">
    <path d="M 453.6 252 
L 453.6 34.56 
" style="fill: none; stroke: #000000; stroke-width: 0.8; stroke-linejoin: miter; stroke-linecap: square"/>
   </g>
   <g id="patch_5">
    <path d="M 63 252 
L 453.6 252 
" style="fill: none; stroke: #000000; stroke-width: 0.8; stroke-linejoin: miter; stroke-linecap: square"/>
   </g>
   <g id="patch_6">
    <path d="M 63 34.56 
L 453.6 34.56 
" style="fill: none; stroke: #000000; stroke-width: 0.8; stroke-linejoin: miter; stroke-linecap: square"/>
   </g>
   <g id="legend_1">
    <g id="patch_7">
     <path d="M 364 110.96 
L 446.6 110.96 
Q 448.6 110.96 448.6 108.96 
L 448.6 41.56 
Q 448.6 39.56 446.6 39.56 
L 364 39.56 
Q 362 39.56 362 41.56 
L 362 108.96 
Q 362 110.96 364 110.96 
z
" style="fill: #ffffff; opacity: 0.8; stroke: #cccccc; stroke-linejoin: miter"/>
    </g>
    <g id="line2d_23">
     <path d="M 366 49.26 
L 376 49.26 
L 386 49.26 
" style="fill: none; stroke-dasharray: 5.55,2.4; stroke-dashoffset: 0; stroke: #008000; stroke-width: 1.5"/>
    </g>
    <g id="text_21">
     <!-- $c_1$, $N_e^b$ = 2 -->
     <g transform="translate(394 52.76) scale(0.1 -0.1)">
      <defs>
       <path id="DejaVuSans-Oblique-63" d="M 3431 3366 
L 3316 2797 
Q 3109 2947 2876 3022 
Q 2644 3097 2394 3097 
Q 2119 3097 1870 3000 
Q 1622 2903 1453 2725 
Q 1184 2453 1037 2087 
Q 891 1722 891 1331 
Q 891 859 1127 628 
Q 1363 397 1844 397 
Q 2081 397 2348 469 
Q 2616 541 2906 684 
L 2797 116 
Q 2547 13 2283 -39 
Q 2019 -91 1741 -91 
Q 1044 -91 669 257 
Q 294 606 294 1253 
Q 294 1797 489 2255 
Q 684 2713 1069 3078 
Q 1331 3328 1684 3456 
Q 2038 3584 2456 3584 
Q 2700 3584 2940 3529 
Q 3181 3475 3431 3366 
z
" transform="scale(0.015625)"/>
       <path id="DejaVuSans-2c" d="M 750 794 
L 1409 794 
L 1409 256 
L 897 -744 
L 494 -744 
L 750 256 
L 750 794 
z
" transform="scale(0.015625)"/>
       <path id="DejaVuSans-Oblique-4e" d="M 1081 4666 
L 1931 4666 
L 3219 666 
L 4000 4666 
L 4616 4666 
L 3706 0 
L 2853 0 
L 1569 4025 
L 788 0 
L 172 0 
L 1081 4666 
z
" transform="scale(0.015625)"/>
       <path id="DejaVuSans-Oblique-62" d="M 3169 2138 
Q 3169 2591 2961 2847 
Q 2753 3103 2388 3103 
Q 2122 3103 1889 2973 
Q 1656 2844 1484 2597 
Q 1303 2338 1198 1995 
Q 1094 1653 1094 1313 
Q 1094 881 1298 636 
Q 1503 391 1863 391 
Q 2134 391 2365 517 
Q 2597 644 2772 891 
Q 2950 1147 3059 1487 
Q 3169 1828 3169 2138 
z
M 1381 2969 
Q 1594 3256 1914 3420 
Q 2234 3584 2584 3584 
Q 3122 3584 3439 3221 
Q 3756 2859 3756 2241 
Q 3756 1734 3570 1259 
Q 3384 784 3041 416 
Q 2816 172 2522 40 
Q 2228 -91 1906 -91 
Q 1566 -91 1316 65 
Q 1066 222 909 531 
L 806 0 
L 231 0 
L 1178 4863 
L 1753 4863 
L 1381 2969 
z
" transform="scale(0.015625)"/>
       <path id="DejaVuSans-Oblique-65" d="M 3078 2063 
Q 3088 2113 3092 2166 
Q 3097 2219 3097 2272 
Q 3097 2653 2873 2875 
Q 2650 3097 2266 3097 
Q 1838 3097 1509 2826 
Q 1181 2556 1013 2059 
L 3078 2063 
z
M 3578 1613 
L 903 1613 
Q 884 1494 878 1425 
Q 872 1356 872 1306 
Q 872 872 1139 634 
Q 1406 397 1894 397 
Q 2269 397 2603 481 
Q 2938 566 3225 728 
L 3116 159 
Q 2806 34 2476 -28 
Q 2147 -91 1806 -91 
Q 1078 -91 686 257 
Q 294 606 294 1247 
Q 294 1794 489 2264 
Q 684 2734 1063 3103 
Q 1306 3334 1642 3459 
Q 1978 3584 2356 3584 
Q 2950 3584 3301 3228 
Q 3653 2872 3653 2272 
Q 3653 2128 3634 1964 
Q 3616 1800 3578 1613 
z
" transform="scale(0.015625)"/>
       <path id="DejaVuSans-3d" d="M 678 2906 
L 4684 2906 
L 4684 2381 
L 678 2381 
L 678 2906 
z
M 678 1631 
L 4684 1631 
L 4684 1100 
L 678 1100 
L 678 1631 
z
" transform="scale(0.015625)"/>
      </defs>
      <use xlink:href="#DejaVuSans-Oblique-63" transform="translate(0 0.529687)"/>
      <use xlink:href="#DejaVuSans-31" transform="translate(54.980469 -15.876563) scale(0.7)"/>
      <use xlink:href="#DejaVuSans-2c" transform="translate(102.250977 0.529687)"/>
      <use xlink:href="#DejaVuSans-20" transform="translate(134.038086 0.529687)"/>
      <use xlink:href="#DejaVuSans-Oblique-4e" transform="translate(165.825195 0.529687)"/>
      <use xlink:href="#DejaVuSans-Oblique-62" transform="translate(247.646654 38.810938) scale(0.7)"/>
      <use xlink:href="#DejaVuSans-Oblique-65" transform="translate(240.629883 -26.814063) scale(0.7)"/>
      <use xlink:href="#DejaVuSans-20" transform="translate(294.814622 0.529687)"/>
      <use xlink:href="#DejaVuSans-3d" transform="translate(326.601732 0.529687)"/>
      <use xlink:href="#DejaVuSans-20" transform="translate(410.390794 0.529687)"/>
      <use xlink:href="#DejaVuSans-32" transform="translate(442.177904 0.529687)"/>
     </g>
    </g>
    <g id="line2d_24">
     <path d="M 366 66.36 
L 376 66.36 
L 386 66.36 
" style="fill: none; stroke: #bf00bf; stroke-width: 1.5; stroke-linecap: square"/>
    </g>
    <g id="text_22">
     <!-- $c_1$, $N_e^b$ = 8 -->
     <g transform="translate(394 69.86) scale(0.1 -0.1)">
      <defs>
       <path id="DejaVuSans-38" d="M 2034 2216 
Q 1584 2216 1326 1975 
Q 1069 1734 1069 1313 
Q 1069 891 1326 650 
Q 1584 409 2034 409 
Q 2484 409 2743 651 
Q 3003 894 3003 1313 
Q 3003 1734 2745 1975 
Q 2488 2216 2034 2216 
z
M 1403 2484 
Q 997 2584 770 2862 
Q 544 3141 544 3541 
Q 544 4100 942 4425 
Q 1341 4750 2034 4750 
Q 2731 4750 3128 4425 
Q 3525 4100 3525 3541 
Q 3525 3141 3298 2862 
Q 3072 2584 2669 2484 
Q 3125 2378 3379 2068 
Q 3634 1759 3634 1313 
Q 3634 634 3220 271 
Q 2806 -91 2034 -91 
Q 1263 -91 848 271 
Q 434 634 434 1313 
Q 434 1759 690 2068 
Q 947 2378 1403 2484 
z
M 1172 3481 
Q 1172 3119 1398 2916 
Q 1625 2713 2034 2713 
Q 2441 2713 2670 2916 
Q 2900 3119 2900 3481 
Q 2900 3844 2670 4047 
Q 2441 4250 2034 4250 
Q 1625 4250 1398 4047 
Q 1172 3844 1172 3481 
z
" transform="scale(0.015625)"/>
      </defs>
      <use xlink:href="#DejaVuSans-Oblique-63" transform="translate(0 0.529687)"/>
      <use xlink:href="#DejaVuSans-31" transform="translate(54.980469 -15.876563) scale(0.7)"/>
      <use xlink:href="#DejaVuSans-2c" transform="translate(102.250977 0.529687)"/>
      <use xlink:href="#DejaVuSans-20" transform="translate(134.038086 0.529687)"/>
      <use xlink:href="#DejaVuSans-Oblique-4e" transform="translate(165.825195 0.529687)"/>
      <use xlink:href="#DejaVuSans-Oblique-62" transform="translate(247.646654 38.810938) scale(0.7)"/>
      <use xlink:href="#DejaVuSans-Oblique-65" transform="translate(240.629883 -26.814063) scale(0.7)"/>
      <use xlink:href="#DejaVuSans-20" transform="translate(294.814622 0.529687)"/>
      <use xlink:href="#DejaVuSans-3d" transform="translate(326.601732 0.529687)"/>
      <use xlink:href="#DejaVuSans-20" transform="translate(410.390794 0.529687)"/>
      <use xlink:href="#DejaVuSans-38" transform="translate(442.177904 0.529687)"/>
     </g>
    </g>
    <g id="line2d_25">
     <path d="M 366 83.46 
L 376 83.46 
L 386 83.46 
" style="fill: none; stroke-dasharray: 5.55,2.4; stroke-dashoffset: 0; stroke: #ff0000; stroke-width: 1.5"/>
    </g>
    <g id="text_23">
     <!-- $c_2$, $N_e^b$ = 2 -->
     <g transform="translate(394 86.96) scale(0.1 -0.1)">
      <use xlink:href="#DejaVuSans-Oblique-63" transform="translate(0 0.529687)"/>
      <use xlink:href="#DejaVuSans-32" transform="translate(54.980469 -15.876563) scale(0.7)"/>
      <use xlink:href="#DejaVuSans-2c" transform="translate(102.250977 0.529687)"/>
      <use xlink:href="#DejaVuSans-20" transform="translate(134.038086 0.529687)"/>
      <use xlink:href="#DejaVuSans-Oblique-4e" transform="translate(165.825195 0.529687)"/>
      <use xlink:href="#DejaVuSans-Oblique-62" transform="translate(247.646654 38.810938) scale(0.7)"/>
      <use xlink:href="#DejaVuSans-Oblique-65" transform="translate(240.629883 -26.814063) scale(0.7)"/>
      <use xlink:href="#DejaVuSans-20" transform="translate(294.814622 0.529687)"/>
      <use xlink:href="#DejaVuSans-3d" transform="translate(326.601732 0.529687)"/>
      <use xlink:href="#DejaVuSans-20" transform="translate(410.390794 0.529687)"/>
      <use xlink:href="#DejaVuSans-32" transform="translate(442.177904 0.529687)"/>
     </g>
    </g>
    <g id="line2d_26">
     <path d="M 366 100.56 
L 376 100.56 
L 386 100.56 
" style="fill: none; stroke: #00bfbf; stroke-width: 1.5; stroke-linecap: square"/>
    </g>
    <g id="text_24">
     <!-- $c_2$, $N_e^b$ = 8 -->
     <g transform="translate(394 104.06) scale(0.1 -0.1)">
      <use xlink:href="#DejaVuSans-Oblique-63" transform="translate(0 0.529687)"/>
      <use xlink:href="#DejaVuSans-32" transform="translate(54.980469 -15.876563) scale(0.7)"/>
      <use xlink:href="#DejaVuSans-2c" transform="translate(102.250977 0.529687)"/>
      <use xlink:href="#DejaVuSans-20" transform="translate(134.038086 0.529687)"/>
      <use xlink:href="#DejaVuSans-Oblique-4e" transform="translate(165.825195 0.529687)"/>
      <use xlink:href="#DejaVuSans-Oblique-62" transform="translate(247.646654 38.810938) scale(0.7)"/>
      <use xlink:href="#DejaVuSans-Oblique-65" transform="translate(240.629883 -26.814063) scale(0.7)"/>
      <use xlink:href="#DejaVuSans-20" transform="translate(294.814622 0.529687)"/>
      <use xlink:href="#DejaVuSans-3d" transform="translate(326.601732 0.529687)"/>
      <use xlink:href="#DejaVuSans-20" transform="translate(410.390794 0.529687)"/>
      <use xlink:href="#DejaVuSans-38" transform="translate(442.177904 0.529687)"/>
     </g>
    </g>
   </g>
  </g>
 </g>
 <defs>
  <clipPath id="pcec19a5b2e">
   <rect x="63" y="34.56" width="390.6" height="217.44"/>
  </clipPath>
 </defs>
</svg>
