<?xml version="1.0" encoding="utf-8"?>
<svg xmlns="http://www.w3.org/2000/svg" xmlns:xlink="http://www.w3.org/1999/xlink" width="600" height="400" viewBox="0 0 2400 1600">
<defs>
  <clipPath id="clip610">
    <rect x="0" y="0" width="2400" height="1600"/>
  </clipPath>
</defs>
<path clip-path="url(#clip610)" d="M0 1600 L2400 1600 L2400 0 L0 0  Z" fill="#ffffff" fill-rule="evenodd" fill-opacity="1"/>
<defs>
  <clipPath id="clip611">
    <rect x="480" y="0" width="1681" height="1600"/>
  </clipPath>
</defs>
<path clip-path="url(#clip610)" d="M256.285 1410.9 L2352.76 1410.9 L2352.76 47.2441 L256.285 47.2441  Z" fill="#ffffff" fill-rule="evenodd" fill-opacity="1"/>
<defs>
  <clipPath id="clip612">
    <rect x="256" y="47" width="2097" height="1365"/>
  </clipPath>
</defs>
<polyline clip-path="url(#clip612)" style="stroke:#000000; stroke-linecap:round; stroke-linejoin:round; stroke-width:2; stroke-opacity:0.1; fill:none" points="660.719,1410.9 660.719,47.2441 "/>
<polyline clip-path="url(#clip612)" style="stroke:#000000; stroke-linecap:round; stroke-linejoin:round; stroke-width:2; stroke-opacity:0.1; fill:none" points="1755.74,1410.9 1755.74,47.2441 "/>
<polyline clip-path="url(#clip610)" style="stroke:#000000; stroke-linecap:round; stroke-linejoin:round; stroke-width:4; stroke-opacity:1; fill:none" points="256.285,1410.9 2352.76,1410.9 "/>
<polyline clip-path="url(#clip610)" style="stroke:#000000; stroke-linecap:round; stroke-linejoin:round; stroke-width:4; stroke-opacity:1; fill:none" points="660.719,1410.9 660.719,1392 "/>
<polyline clip-path="url(#clip610)" style="stroke:#000000; stroke-linecap:round; stroke-linejoin:round; stroke-width:4; stroke-opacity:1; fill:none" points="1755.74,1410.9 1755.74,1392 "/>
<path clip-path="url(#clip610)" d="M607.873 1485.02 L615.511 1485.02 L615.511 1458.66 L607.201 1460.32 L607.201 1456.06 L615.465 1454.4 L620.141 1454.4 L620.141 1485.02 L627.78 1485.02 L627.78 1488.96 L607.873 1488.96 L607.873 1485.02 Z" fill="#000000" fill-rule="nonzero" fill-opacity="1" /><path clip-path="url(#clip610)" d="M647.224 1457.48 Q643.613 1457.48 641.784 1461.04 Q639.979 1464.58 639.979 1471.71 Q639.979 1478.82 641.784 1482.38 Q643.613 1485.92 647.224 1485.92 Q650.858 1485.92 652.664 1482.38 Q654.493 1478.82 654.493 1471.71 Q654.493 1464.58 652.664 1461.04 Q650.858 1457.48 647.224 1457.48 M647.224 1453.77 Q653.034 1453.77 656.09 1458.38 Q659.169 1462.96 659.169 1471.71 Q659.169 1480.44 656.09 1485.04 Q653.034 1489.63 647.224 1489.63 Q641.414 1489.63 638.335 1485.04 Q635.28 1480.44 635.28 1471.71 Q635.28 1462.96 638.335 1458.38 Q641.414 1453.77 647.224 1453.77 Z" fill="#000000" fill-rule="nonzero" fill-opacity="1" /><path clip-path="url(#clip610)" d="M663.739 1458.35 L676.998 1458.35 L676.998 1461.55 L659.169 1461.55 L659.169 1458.35 Q661.331 1456.11 665.055 1452.35 Q668.798 1448.57 669.757 1447.48 Q671.582 1445.43 672.296 1444.02 Q673.03 1442.59 673.03 1441.22 Q673.03 1438.98 671.45 1437.57 Q669.889 1436.16 667.369 1436.16 Q665.582 1436.16 663.588 1436.78 Q661.614 1437.4 659.357 1438.66 L659.357 1434.82 Q661.651 1433.9 663.645 1433.43 Q665.638 1432.96 667.293 1432.96 Q671.657 1432.96 674.252 1435.14 Q676.848 1437.32 676.848 1440.97 Q676.848 1442.7 676.19 1444.26 Q675.55 1445.8 673.839 1447.91 Q673.368 1448.46 670.848 1451.07 Q668.328 1453.67 663.739 1458.35 Z" fill="#000000" fill-rule="nonzero" fill-opacity="1" /><path clip-path="url(#clip610)" d="M684.973 1456.77 L688.941 1456.77 L688.941 1461.55 L684.973 1461.55 L684.973 1456.77 Z" fill="#000000" fill-rule="nonzero" fill-opacity="1" /><path clip-path="url(#clip610)" d="M697.254 1433.47 L712.169 1433.47 L712.169 1436.66 L700.734 1436.66 L700.734 1443.55 Q701.561 1443.27 702.389 1443.13 Q703.216 1442.98 704.044 1442.98 Q708.746 1442.98 711.492 1445.56 Q714.238 1448.14 714.238 1452.54 Q714.238 1457.07 711.417 1459.59 Q708.595 1462.09 703.461 1462.09 Q701.693 1462.09 699.85 1461.79 Q698.025 1461.49 696.069 1460.89 L696.069 1457.07 Q697.762 1457.99 699.568 1458.44 Q701.373 1458.89 703.386 1458.89 Q706.639 1458.89 708.539 1457.18 Q710.439 1455.47 710.439 1452.54 Q710.439 1449.6 708.539 1447.89 Q706.639 1446.18 703.386 1446.18 Q701.862 1446.18 700.339 1446.52 Q698.834 1446.86 697.254 1447.57 L697.254 1433.47 Z" fill="#000000" fill-rule="nonzero" fill-opacity="1" /><path clip-path="url(#clip610)" d="M1702.54 1485.02 L1710.18 1485.02 L1710.18 1458.66 L1701.87 1460.32 L1701.87 1456.06 L1710.14 1454.4 L1714.81 1454.4 L1714.81 1485.02 L1722.45 1485.02 L1722.45 1488.96 L1702.54 1488.96 L1702.54 1485.02 Z" fill="#000000" fill-rule="nonzero" fill-opacity="1" /><path clip-path="url(#clip610)" d="M1741.9 1457.48 Q1738.28 1457.48 1736.46 1461.04 Q1734.65 1464.58 1734.65 1471.71 Q1734.65 1478.82 1736.46 1482.38 Q1738.28 1485.92 1741.9 1485.92 Q1745.53 1485.92 1747.34 1482.38 Q1749.16 1478.82 1749.16 1471.71 Q1749.16 1464.58 1747.34 1461.04 Q1745.53 1457.48 1741.9 1457.48 M1741.9 1453.77 Q1747.71 1453.77 1750.76 1458.38 Q1753.84 1462.96 1753.84 1471.71 Q1753.84 1480.44 1750.76 1485.04 Q1747.71 1489.63 1741.9 1489.63 Q1736.09 1489.63 1733.01 1485.04 Q1729.95 1480.44 1729.95 1471.71 Q1729.95 1462.96 1733.01 1458.38 Q1736.09 1453.77 1741.9 1453.77 Z" fill="#000000" fill-rule="nonzero" fill-opacity="1" /><path clip-path="url(#clip610)" d="M1766.54 1446.41 Q1769.26 1446.99 1770.79 1448.83 Q1772.33 1450.68 1772.33 1453.38 Q1772.33 1457.54 1769.47 1459.82 Q1766.61 1462.09 1761.34 1462.09 Q1759.58 1462.09 1757.7 1461.73 Q1755.83 1461.4 1753.84 1460.7 L1753.84 1457.03 Q1755.42 1457.95 1757.3 1458.42 Q1759.18 1458.89 1761.23 1458.89 Q1764.81 1458.89 1766.67 1457.48 Q1768.55 1456.07 1768.55 1453.38 Q1768.55 1450.9 1766.8 1449.51 Q1765.07 1448.1 1761.97 1448.1 L1758.69 1448.1 L1758.69 1444.98 L1762.12 1444.98 Q1764.92 1444.98 1766.4 1443.87 Q1767.89 1442.74 1767.89 1440.63 Q1767.89 1438.47 1766.35 1437.32 Q1764.82 1436.16 1761.97 1436.16 Q1760.4 1436.16 1758.62 1436.49 Q1756.83 1436.83 1754.69 1437.55 L1754.69 1434.16 Q1756.85 1433.56 1758.73 1433.26 Q1760.63 1432.96 1762.3 1432.96 Q1766.63 1432.96 1769.15 1434.93 Q1771.67 1436.89 1771.67 1440.24 Q1771.67 1442.57 1770.33 1444.19 Q1769 1445.79 1766.54 1446.41 Z" fill="#000000" fill-rule="nonzero" fill-opacity="1" /><path clip-path="url(#clip610)" d="M1779.53 1456.77 L1783.5 1456.77 L1783.5 1461.55 L1779.53 1461.55 L1779.53 1456.77 Z" fill="#000000" fill-rule="nonzero" fill-opacity="1" /><path clip-path="url(#clip610)" d="M1799.9 1435.97 Q1796.97 1435.97 1795.48 1438.86 Q1794.01 1441.74 1794.01 1447.53 Q1794.01 1453.31 1795.48 1456.2 Q1796.97 1459.08 1799.9 1459.08 Q1802.85 1459.08 1804.32 1456.2 Q1805.81 1453.31 1805.81 1447.53 Q1805.81 1441.74 1804.32 1438.86 Q1802.85 1435.97 1799.9 1435.97 M1799.9 1432.96 Q1804.62 1432.96 1807.1 1436.7 Q1809.61 1440.43 1809.61 1447.53 Q1809.61 1454.62 1807.1 1458.37 Q1804.62 1462.09 1799.9 1462.09 Q1795.18 1462.09 1792.68 1458.37 Q1790.2 1454.62 1790.2 1447.53 Q1790.2 1440.43 1792.68 1436.7 Q1795.18 1432.96 1799.9 1432.96 Z" fill="#000000" fill-rule="nonzero" fill-opacity="1" /><path clip-path="url(#clip610)" d="M992.537 1531.95 L992.537 1568.9 L1000.3 1568.9 Q1010.14 1568.9 1014.69 1564.45 Q1019.27 1559.99 1019.27 1550.38 Q1019.27 1540.83 1014.69 1536.4 Q1010.14 1531.95 1000.3 1531.95 L992.537 1531.95 M986.108 1526.67 L999.317 1526.67 Q1013.13 1526.67 1019.59 1532.43 Q1026.05 1538.16 1026.05 1550.38 Q1026.05 1562.66 1019.56 1568.42 Q1013.07 1574.19 999.317 1574.19 L986.108 1574.19 L986.108 1526.67 Z" fill="#000000" fill-rule="nonzero" fill-opacity="1" /><path clip-path="url(#clip610)" d="M1066.54 1554.9 L1066.54 1557.76 L1039.61 1557.76 Q1039.99 1563.81 1043.24 1566.99 Q1046.52 1570.14 1052.34 1570.14 Q1055.72 1570.14 1058.87 1569.32 Q1062.05 1568.49 1065.17 1566.83 L1065.17 1572.37 Q1062.02 1573.71 1058.71 1574.41 Q1055.4 1575.11 1051.99 1575.11 Q1043.46 1575.11 1038.47 1570.14 Q1033.5 1565.18 1033.5 1556.71 Q1033.5 1547.96 1038.21 1542.83 Q1042.95 1537.68 1050.97 1537.68 Q1058.17 1537.68 1062.34 1542.33 Q1066.54 1546.94 1066.54 1554.9 M1060.68 1553.18 Q1060.62 1548.37 1057.98 1545.51 Q1055.37 1542.64 1051.04 1542.64 Q1046.14 1542.64 1043.18 1545.41 Q1040.25 1548.18 1039.8 1553.21 L1060.68 1553.18 Z" fill="#000000" fill-rule="nonzero" fill-opacity="1" /><path clip-path="url(#clip610)" d="M1099.61 1555.95 Q1099.61 1549.58 1096.97 1546.08 Q1094.36 1542.58 1089.61 1542.58 Q1084.9 1542.58 1082.26 1546.08 Q1079.65 1549.58 1079.65 1555.95 Q1079.65 1562.28 1082.26 1565.78 Q1084.9 1569.28 1089.61 1569.28 Q1094.36 1569.28 1096.97 1565.78 Q1099.61 1562.28 1099.61 1555.95 M1105.46 1569.76 Q1105.46 1578.86 1101.42 1583.29 Q1097.38 1587.74 1089.04 1587.74 Q1085.95 1587.74 1083.22 1587.27 Q1080.48 1586.82 1077.9 1585.87 L1077.9 1580.17 Q1080.48 1581.57 1082.99 1582.24 Q1085.51 1582.91 1088.12 1582.91 Q1093.88 1582.91 1096.74 1579.88 Q1099.61 1576.89 1099.61 1570.81 L1099.61 1567.92 Q1097.79 1571.07 1094.96 1572.63 Q1092.13 1574.19 1088.18 1574.19 Q1081.63 1574.19 1077.61 1569.19 Q1073.6 1564.19 1073.6 1555.95 Q1073.6 1547.67 1077.61 1542.68 Q1081.63 1537.68 1088.18 1537.68 Q1092.13 1537.68 1094.96 1539.24 Q1097.79 1540.8 1099.61 1543.95 L1099.61 1538.54 L1105.46 1538.54 L1105.46 1569.76 Z" fill="#000000" fill-rule="nonzero" fill-opacity="1" /><path clip-path="url(#clip610)" d="M1138.18 1544.01 Q1137.2 1543.44 1136.02 1543.18 Q1134.87 1542.9 1133.47 1542.9 Q1128.51 1542.9 1125.83 1546.14 Q1123.19 1549.36 1123.19 1555.41 L1123.19 1574.19 L1117.3 1574.19 L1117.3 1538.54 L1123.19 1538.54 L1123.19 1544.08 Q1125.04 1540.83 1128 1539.27 Q1130.96 1537.68 1135.19 1537.68 Q1135.8 1537.68 1136.53 1537.77 Q1137.26 1537.84 1138.15 1538 L1138.18 1544.01 Z" fill="#000000" fill-rule="nonzero" fill-opacity="1" /><path clip-path="url(#clip610)" d="M1173.39 1554.9 L1173.39 1557.76 L1146.46 1557.76 Q1146.84 1563.81 1150.09 1566.99 Q1153.37 1570.14 1159.19 1570.14 Q1162.57 1570.14 1165.72 1569.32 Q1168.9 1568.49 1172.02 1566.83 L1172.02 1572.37 Q1168.87 1573.71 1165.56 1574.41 Q1162.25 1575.11 1158.84 1575.11 Q1150.31 1575.11 1145.31 1570.14 Q1140.35 1565.18 1140.35 1556.71 Q1140.35 1547.96 1145.06 1542.83 Q1149.8 1537.68 1157.82 1537.68 Q1165.02 1537.68 1169.19 1542.33 Q1173.39 1546.94 1173.39 1554.9 M1167.53 1553.18 Q1167.47 1548.37 1164.82 1545.51 Q1162.21 1542.64 1157.89 1542.64 Q1152.98 1542.64 1150.02 1545.41 Q1147.1 1548.18 1146.65 1553.21 L1167.53 1553.18 Z" fill="#000000" fill-rule="nonzero" fill-opacity="1" /><path clip-path="url(#clip610)" d="M1213.49 1554.9 L1213.49 1557.76 L1186.56 1557.76 Q1186.95 1563.81 1190.19 1566.99 Q1193.47 1570.14 1199.3 1570.14 Q1202.67 1570.14 1205.82 1569.32 Q1209 1568.49 1212.12 1566.83 L1212.12 1572.37 Q1208.97 1573.71 1205.66 1574.41 Q1202.35 1575.11 1198.95 1575.11 Q1190.42 1575.11 1185.42 1570.14 Q1180.45 1565.18 1180.45 1556.71 Q1180.45 1547.96 1185.16 1542.83 Q1189.91 1537.68 1197.93 1537.68 Q1205.12 1537.68 1209.29 1542.33 Q1213.49 1546.94 1213.49 1554.9 M1207.63 1553.18 Q1207.57 1548.37 1204.93 1545.51 Q1202.32 1542.64 1197.99 1542.64 Q1193.09 1542.64 1190.13 1545.41 Q1187.2 1548.18 1186.75 1553.21 L1207.63 1553.18 Z" fill="#000000" fill-rule="nonzero" fill-opacity="1" /><path clip-path="url(#clip610)" d="M1245.83 1539.59 L1245.83 1545.13 Q1243.35 1543.85 1240.67 1543.22 Q1238 1542.58 1235.13 1542.58 Q1230.77 1542.58 1228.58 1543.92 Q1226.41 1545.25 1226.41 1547.93 Q1226.41 1549.96 1227.97 1551.14 Q1229.53 1552.29 1234.24 1553.34 L1236.25 1553.78 Q1242.49 1555.12 1245.1 1557.57 Q1247.74 1559.99 1247.74 1564.35 Q1247.74 1569.32 1243.79 1572.21 Q1239.88 1575.11 1233 1575.11 Q1230.14 1575.11 1227.02 1574.54 Q1223.93 1573.99 1220.49 1572.88 L1220.49 1566.83 Q1223.74 1568.52 1226.89 1569.38 Q1230.04 1570.21 1233.13 1570.21 Q1237.27 1570.21 1239.49 1568.81 Q1241.72 1567.37 1241.72 1564.8 Q1241.72 1562.41 1240.1 1561.14 Q1238.51 1559.86 1233.07 1558.68 L1231.03 1558.21 Q1225.59 1557.06 1223.17 1554.71 Q1220.75 1552.32 1220.75 1548.18 Q1220.75 1543.15 1224.31 1540.42 Q1227.88 1537.68 1234.43 1537.68 Q1237.68 1537.68 1240.54 1538.16 Q1243.41 1538.63 1245.83 1539.59 Z" fill="#000000" fill-rule="nonzero" fill-opacity="1" /><path clip-path="url(#clip610)" d="M1291.6 1542.64 Q1286.89 1542.64 1284.15 1546.34 Q1281.41 1550 1281.41 1556.39 Q1281.41 1562.79 1284.12 1566.48 Q1286.86 1570.14 1291.6 1570.14 Q1296.28 1570.14 1299.01 1566.45 Q1301.75 1562.76 1301.75 1556.39 Q1301.75 1550.06 1299.01 1546.37 Q1296.28 1542.64 1291.6 1542.64 M1291.6 1537.68 Q1299.24 1537.68 1303.6 1542.64 Q1307.96 1547.61 1307.96 1556.39 Q1307.96 1565.15 1303.6 1570.14 Q1299.24 1575.11 1291.6 1575.11 Q1283.93 1575.11 1279.57 1570.14 Q1275.24 1565.15 1275.24 1556.39 Q1275.24 1547.61 1279.57 1542.64 Q1283.93 1537.68 1291.6 1537.68 Z" fill="#000000" fill-rule="nonzero" fill-opacity="1" /><path clip-path="url(#clip610)" d="M1335.71 1524.66 L1335.71 1529.53 L1330.11 1529.53 Q1326.96 1529.53 1325.72 1530.8 Q1324.51 1532.08 1324.51 1535.39 L1324.51 1538.54 L1334.15 1538.54 L1334.15 1543.09 L1324.51 1543.09 L1324.51 1574.19 L1318.62 1574.19 L1318.62 1543.09 L1313.02 1543.09 L1313.02 1538.54 L1318.62 1538.54 L1318.62 1536.05 Q1318.62 1530.1 1321.39 1527.4 Q1324.16 1524.66 1330.17 1524.66 L1335.71 1524.66 Z" fill="#000000" fill-rule="nonzero" fill-opacity="1" /><path clip-path="url(#clip610)" d="M1379.38 1524.66 L1379.38 1529.53 L1373.78 1529.53 Q1370.63 1529.53 1369.39 1530.8 Q1368.18 1532.08 1368.18 1535.39 L1368.18 1538.54 L1377.82 1538.54 L1377.82 1543.09 L1368.18 1543.09 L1368.18 1574.19 L1362.29 1574.19 L1362.29 1543.09 L1356.69 1543.09 L1356.69 1538.54 L1362.29 1538.54 L1362.29 1536.05 Q1362.29 1530.1 1365.06 1527.4 Q1367.83 1524.66 1373.84 1524.66 L1379.38 1524.66 Z" fill="#000000" fill-rule="nonzero" fill-opacity="1" /><path clip-path="url(#clip610)" d="M1404.94 1544.01 Q1403.95 1543.44 1402.78 1543.18 Q1401.63 1542.9 1400.23 1542.9 Q1395.26 1542.9 1392.59 1546.14 Q1389.95 1549.36 1389.95 1555.41 L1389.95 1574.19 L1384.06 1574.19 L1384.06 1538.54 L1389.95 1538.54 L1389.95 1544.08 Q1391.79 1540.83 1394.75 1539.27 Q1397.71 1537.68 1401.95 1537.68 Q1402.55 1537.68 1403.28 1537.77 Q1404.02 1537.84 1404.91 1538 L1404.94 1544.01 Z" fill="#000000" fill-rule="nonzero" fill-opacity="1" /><path clip-path="url(#clip610)" d="M1440.14 1554.9 L1440.14 1557.76 L1413.21 1557.76 Q1413.6 1563.81 1416.84 1566.99 Q1420.12 1570.14 1425.95 1570.14 Q1429.32 1570.14 1432.47 1569.32 Q1435.65 1568.49 1438.77 1566.83 L1438.77 1572.37 Q1435.62 1573.71 1432.31 1574.41 Q1429 1575.11 1425.6 1575.11 Q1417.07 1575.11 1412.07 1570.14 Q1407.1 1565.18 1407.1 1556.71 Q1407.1 1547.96 1411.81 1542.83 Q1416.56 1537.68 1424.58 1537.68 Q1431.77 1537.68 1435.94 1542.33 Q1440.14 1546.94 1440.14 1554.9 M1434.29 1553.18 Q1434.22 1548.37 1431.58 1545.51 Q1428.97 1542.64 1424.64 1542.64 Q1419.74 1542.64 1416.78 1545.41 Q1413.85 1548.18 1413.41 1553.21 L1434.29 1553.18 Z" fill="#000000" fill-rule="nonzero" fill-opacity="1" /><path clip-path="url(#clip610)" d="M1480.25 1554.9 L1480.25 1557.76 L1453.32 1557.76 Q1453.7 1563.81 1456.95 1566.99 Q1460.23 1570.14 1466.05 1570.14 Q1469.42 1570.14 1472.57 1569.32 Q1475.76 1568.49 1478.88 1566.83 L1478.88 1572.37 Q1475.73 1573.71 1472.42 1574.41 Q1469.11 1575.11 1465.7 1575.11 Q1457.17 1575.11 1452.17 1570.14 Q1447.21 1565.18 1447.21 1556.71 Q1447.21 1547.96 1451.92 1542.83 Q1456.66 1537.68 1464.68 1537.68 Q1471.87 1537.68 1476.04 1542.33 Q1480.25 1546.94 1480.25 1554.9 M1474.39 1553.18 Q1474.33 1548.37 1471.68 1545.51 Q1469.07 1542.64 1464.75 1542.64 Q1459.84 1542.64 1456.88 1545.41 Q1453.96 1548.18 1453.51 1553.21 L1474.39 1553.18 Z" fill="#000000" fill-rule="nonzero" fill-opacity="1" /><path clip-path="url(#clip610)" d="M1513.32 1543.95 L1513.32 1524.66 L1519.17 1524.66 L1519.17 1574.19 L1513.32 1574.19 L1513.32 1568.84 Q1511.47 1572.02 1508.64 1573.58 Q1505.84 1575.11 1501.89 1575.11 Q1495.43 1575.11 1491.35 1569.95 Q1487.31 1564.8 1487.31 1556.39 Q1487.31 1547.99 1491.35 1542.83 Q1495.43 1537.68 1501.89 1537.68 Q1505.84 1537.68 1508.64 1539.24 Q1511.47 1540.77 1513.32 1543.95 M1493.36 1556.39 Q1493.36 1562.85 1496 1566.55 Q1498.67 1570.21 1503.32 1570.21 Q1507.97 1570.21 1510.64 1566.55 Q1513.32 1562.85 1513.32 1556.39 Q1513.32 1549.93 1510.64 1546.27 Q1507.97 1542.58 1503.32 1542.58 Q1498.67 1542.58 1496 1546.27 Q1493.36 1549.93 1493.36 1556.39 Z" fill="#000000" fill-rule="nonzero" fill-opacity="1" /><path clip-path="url(#clip610)" d="M1545.05 1542.64 Q1540.34 1542.64 1537.6 1546.34 Q1534.86 1550 1534.86 1556.39 Q1534.86 1562.79 1537.57 1566.48 Q1540.31 1570.14 1545.05 1570.14 Q1549.73 1570.14 1552.46 1566.45 Q1555.2 1562.76 1555.2 1556.39 Q1555.2 1550.06 1552.46 1546.37 Q1549.73 1542.64 1545.05 1542.64 M1545.05 1537.68 Q1552.69 1537.68 1557.05 1542.64 Q1561.41 1547.61 1561.41 1556.39 Q1561.41 1565.15 1557.05 1570.14 Q1552.69 1575.11 1545.05 1575.11 Q1537.38 1575.11 1533.02 1570.14 Q1528.69 1565.15 1528.69 1556.39 Q1528.69 1547.61 1533.02 1542.64 Q1537.38 1537.68 1545.05 1537.68 Z" fill="#000000" fill-rule="nonzero" fill-opacity="1" /><path clip-path="url(#clip610)" d="M1598.87 1545.38 Q1601.07 1541.43 1604.12 1539.56 Q1607.18 1537.68 1611.32 1537.68 Q1616.89 1537.68 1619.91 1541.59 Q1622.93 1545.48 1622.93 1552.67 L1622.93 1574.19 L1617.04 1574.19 L1617.04 1552.86 Q1617.04 1547.74 1615.23 1545.25 Q1613.42 1542.77 1609.69 1542.77 Q1605.14 1542.77 1602.5 1545.79 Q1599.86 1548.82 1599.86 1554.04 L1599.86 1574.19 L1593.97 1574.19 L1593.97 1552.86 Q1593.97 1547.7 1592.15 1545.25 Q1590.34 1542.77 1586.55 1542.77 Q1582.07 1542.77 1579.42 1545.83 Q1576.78 1548.85 1576.78 1554.04 L1576.78 1574.19 L1570.89 1574.19 L1570.89 1538.54 L1576.78 1538.54 L1576.78 1544.08 Q1578.79 1540.8 1581.59 1539.24 Q1584.39 1537.68 1588.24 1537.68 Q1592.12 1537.68 1594.83 1539.65 Q1597.57 1541.62 1598.87 1545.38 Z" fill="#000000" fill-rule="nonzero" fill-opacity="1" /><polyline clip-path="url(#clip612)" style="stroke:#000000; stroke-linecap:round; stroke-linejoin:round; stroke-width:2; stroke-opacity:0.1; fill:none" points="256.285,937.252 2352.76,937.252 "/>
<polyline clip-path="url(#clip612)" style="stroke:#000000; stroke-linecap:round; stroke-linejoin:round; stroke-width:2; stroke-opacity:0.1; fill:none" points="256.285,325.994 2352.76,325.994 "/>
<polyline clip-path="url(#clip610)" style="stroke:#000000; stroke-linecap:round; stroke-linejoin:round; stroke-width:4; stroke-opacity:1; fill:none" points="256.285,1410.9 256.285,47.2441 "/>
<polyline clip-path="url(#clip610)" style="stroke:#000000; stroke-linecap:round; stroke-linejoin:round; stroke-width:4; stroke-opacity:1; fill:none" points="256.285,937.252 275.182,937.252 "/>
<polyline clip-path="url(#clip610)" style="stroke:#000000; stroke-linecap:round; stroke-linejoin:round; stroke-width:4; stroke-opacity:1; fill:none" points="256.285,325.994 275.182,325.994 "/>
<path clip-path="url(#clip610)" d="M119.844 957.045 L127.483 957.045 L127.483 930.679 L119.173 932.346 L119.173 928.087 L127.437 926.42 L132.113 926.42 L132.113 957.045 L139.751 957.045 L139.751 960.98 L119.844 960.98 L119.844 957.045 Z" fill="#000000" fill-rule="nonzero" fill-opacity="1" /><path clip-path="url(#clip610)" d="M159.196 929.499 Q155.585 929.499 153.756 933.064 Q151.95 936.605 151.95 943.735 Q151.95 950.841 153.756 954.406 Q155.585 957.948 159.196 957.948 Q162.83 957.948 164.635 954.406 Q166.464 950.841 166.464 943.735 Q166.464 936.605 164.635 933.064 Q162.83 929.499 159.196 929.499 M159.196 925.795 Q165.006 925.795 168.061 930.402 Q171.14 934.985 171.14 943.735 Q171.14 952.462 168.061 957.068 Q165.006 961.651 159.196 961.651 Q153.386 961.651 150.307 957.068 Q147.251 952.462 147.251 943.735 Q147.251 934.985 150.307 930.402 Q153.386 925.795 159.196 925.795 Z" fill="#000000" fill-rule="nonzero" fill-opacity="1" /><path clip-path="url(#clip610)" d="M171.14 919.896 L195.252 919.896 L195.252 923.094 L171.14 923.094 L171.14 919.896 Z" fill="#000000" fill-rule="nonzero" fill-opacity="1" /><path clip-path="url(#clip610)" d="M204.11 930.372 L210.317 930.372 L210.317 908.95 L203.565 910.304 L203.565 906.844 L210.279 905.49 L214.078 905.49 L214.078 930.372 L220.285 930.372 L220.285 933.57 L204.11 933.57 L204.11 930.372 Z" fill="#000000" fill-rule="nonzero" fill-opacity="1" /><path clip-path="url(#clip610)" d="M149.579 345.786 L157.218 345.786 L157.218 319.421 L148.908 321.087 L148.908 316.828 L157.172 315.162 L161.848 315.162 L161.848 345.786 L169.486 345.786 L169.486 349.722 L149.579 349.722 L149.579 345.786 Z" fill="#000000" fill-rule="nonzero" fill-opacity="1" /><path clip-path="url(#clip610)" d="M188.931 318.24 Q185.32 318.24 183.491 321.805 Q181.685 325.347 181.685 332.476 Q181.685 339.583 183.491 343.148 Q185.32 346.689 188.931 346.689 Q192.565 346.689 194.371 343.148 Q196.199 339.583 196.199 332.476 Q196.199 325.347 194.371 321.805 Q192.565 318.24 188.931 318.24 M188.931 314.537 Q194.741 314.537 197.796 319.143 Q200.875 323.726 200.875 332.476 Q200.875 341.203 197.796 345.81 Q194.741 350.393 188.931 350.393 Q183.121 350.393 180.042 345.81 Q176.986 341.203 176.986 332.476 Q176.986 323.726 180.042 319.143 Q183.121 314.537 188.931 314.537 Z" fill="#000000" fill-rule="nonzero" fill-opacity="1" /><path clip-path="url(#clip610)" d="M210.58 296.733 Q207.646 296.733 206.16 299.629 Q204.693 302.507 204.693 308.299 Q204.693 314.073 206.16 316.97 Q207.646 319.847 210.58 319.847 Q213.533 319.847 215 316.97 Q216.486 314.073 216.486 308.299 Q216.486 302.507 215 299.629 Q213.533 296.733 210.58 296.733 M210.58 293.723 Q215.301 293.723 217.783 297.466 Q220.285 301.19 220.285 308.299 Q220.285 315.39 217.783 319.133 Q215.301 322.857 210.58 322.857 Q205.859 322.857 203.358 319.133 Q200.875 315.39 200.875 308.299 Q200.875 301.19 203.358 297.466 Q205.859 293.723 210.58 293.723 Z" fill="#000000" fill-rule="nonzero" fill-opacity="1" /><path clip-path="url(#clip610)" d="M43.5177 1098.13 L43.5177 1088.55 L75.8554 1076.42 L43.5177 1064.23 L43.5177 1054.65 L91.0377 1054.65 L91.0377 1060.92 L49.3104 1060.92 L81.9029 1073.18 L81.9029 1079.64 L49.3104 1091.89 L91.0377 1091.89 L91.0377 1098.13 L43.5177 1098.13 Z" fill="#000000" fill-rule="nonzero" fill-opacity="1" /><path clip-path="url(#clip610)" d="M73.1182 1025.94 Q73.1182 1033.04 74.7414 1035.78 Q76.3647 1038.52 80.2796 1038.52 Q83.3988 1038.52 85.2449 1036.48 Q87.0591 1034.41 87.0591 1030.88 Q87.0591 1026.01 83.6216 1023.08 Q80.1523 1020.12 74.4232 1020.12 L73.1182 1020.12 L73.1182 1025.94 M70.6992 1014.26 L91.0377 1014.26 L91.0377 1020.12 L85.6268 1020.12 Q88.8733 1022.12 90.4329 1025.12 Q91.9607 1028.11 91.9607 1032.44 Q91.9607 1037.91 88.9051 1041.16 Q85.8178 1044.37 80.6616 1044.37 Q74.646 1044.37 71.5904 1040.36 Q68.5349 1036.32 68.5349 1028.33 L68.5349 1020.12 L67.962 1020.12 Q63.9197 1020.12 61.7236 1022.79 Q59.4956 1025.44 59.4956 1030.24 Q59.4956 1033.3 60.2276 1036.19 Q60.9597 1039.09 62.4238 1041.76 L57.013 1041.76 Q55.7716 1038.55 55.1669 1035.52 Q54.5303 1032.5 54.5303 1029.64 Q54.5303 1021.9 58.5407 1018.08 Q62.5511 1014.26 70.6992 1014.26 Z" fill="#000000" fill-rule="nonzero" fill-opacity="1" /><path clip-path="url(#clip610)" d="M55.3897 972.568 L72.7362 985.458 L91.0377 971.9 L91.0377 978.806 L77.0331 989.182 L91.0377 999.559 L91.0377 1006.47 L72.3861 992.62 L55.3897 1005.29 L55.3897 998.381 L68.0893 988.928 L55.3897 979.475 L55.3897 972.568 Z" fill="#000000" fill-rule="nonzero" fill-opacity="1" /><path clip-path="url(#clip610)" d="M73.1182 926.703 Q73.1182 933.801 74.7414 936.538 Q76.3647 939.275 80.2796 939.275 Q83.3988 939.275 85.2449 937.238 Q87.0591 935.169 87.0591 931.636 Q87.0591 926.767 83.6216 923.838 Q80.1523 920.878 74.4232 920.878 L73.1182 920.878 L73.1182 926.703 M70.6992 915.022 L91.0377 915.022 L91.0377 920.878 L85.6268 920.878 Q88.8733 922.884 90.4329 925.875 Q91.9607 928.867 91.9607 933.196 Q91.9607 938.671 88.9051 941.917 Q85.8178 945.132 80.6616 945.132 Q74.646 945.132 71.5904 941.121 Q68.5349 937.079 68.5349 929.09 L68.5349 920.878 L67.962 920.878 Q63.9197 920.878 61.7236 923.552 Q59.4956 926.194 59.4956 931 Q59.4956 934.055 60.2276 936.952 Q60.9597 939.848 62.4238 942.522 L57.013 942.522 Q55.7716 939.307 55.1669 936.283 Q54.5303 933.26 54.5303 930.395 Q54.5303 922.661 58.5407 918.841 Q62.5511 915.022 70.6992 915.022 Z" fill="#000000" fill-rule="nonzero" fill-opacity="1" /><path clip-path="url(#clip610)" d="M73.2455 877.369 Q66.7843 877.369 63.124 880.042 Q59.4319 882.684 59.4319 887.331 Q59.4319 891.978 63.124 894.652 Q66.7843 897.293 73.2455 897.293 Q79.7067 897.293 83.3988 894.652 Q87.0591 891.978 87.0591 887.331 Q87.0591 882.684 83.3988 880.042 Q79.7067 877.369 73.2455 877.369 M60.8005 897.293 Q57.6177 895.447 56.0899 892.646 Q54.5303 889.814 54.5303 885.899 Q54.5303 879.406 59.6865 875.364 Q64.8428 871.29 73.2455 871.29 Q81.6482 871.29 86.8045 875.364 Q91.9607 879.406 91.9607 885.899 Q91.9607 889.814 90.4329 892.646 Q88.8733 895.447 85.6905 897.293 L91.0377 897.293 L91.0377 903.182 L41.5125 903.182 L41.5125 897.293 L60.8005 897.293 Z" fill="#000000" fill-rule="nonzero" fill-opacity="1" /><path clip-path="url(#clip610)" d="M56.44 838.856 L61.9782 838.856 Q60.7051 841.339 60.0685 844.012 Q59.4319 846.686 59.4319 849.551 Q59.4319 853.911 60.7687 856.107 Q62.1055 858.272 64.7791 858.272 Q66.8161 858.272 67.9938 856.712 Q69.1396 855.152 70.19 850.442 L70.6356 848.437 Q71.9724 842.198 74.4232 839.588 Q76.8421 836.947 81.2026 836.947 Q86.1679 836.947 89.0643 840.893 Q91.9607 844.808 91.9607 851.683 Q91.9607 854.548 91.3878 857.667 Q90.8467 860.754 89.7327 864.192 L83.6853 864.192 Q85.3722 860.945 86.2315 857.794 Q87.0591 854.643 87.0591 851.556 Q87.0591 847.418 85.6586 845.19 Q84.2263 842.962 81.6482 842.962 Q79.2611 842.962 77.988 844.585 Q76.7148 846.177 75.5372 851.619 L75.0597 853.657 Q73.9139 859.099 71.5586 861.518 Q69.1714 863.937 65.0337 863.937 Q60.0048 863.937 57.2676 860.372 Q54.5303 856.808 54.5303 850.251 Q54.5303 847.004 55.0078 844.14 Q55.4852 841.275 56.44 838.856 Z" fill="#000000" fill-rule="nonzero" fill-opacity="1" /><path clip-path="url(#clip610)" d="M71.7496 776.409 L74.6141 776.409 L74.6141 803.336 Q80.6616 802.954 83.8444 799.707 Q86.9954 796.429 86.9954 790.604 Q86.9954 787.23 86.1679 784.079 Q85.3403 780.896 83.6853 777.777 L89.2234 777.777 Q90.5602 780.928 91.2605 784.238 Q91.9607 787.549 91.9607 790.954 Q91.9607 799.484 86.9954 804.481 Q82.0302 809.447 73.5638 809.447 Q64.8109 809.447 59.6865 804.736 Q54.5303 799.994 54.5303 791.973 Q54.5303 784.78 59.1773 780.61 Q63.7924 776.409 71.7496 776.409 M70.0308 782.265 Q65.2247 782.329 62.3601 784.971 Q59.4956 787.58 59.4956 791.909 Q59.4956 796.811 62.2647 799.771 Q65.0337 802.699 70.0626 803.145 L70.0308 782.265 Z" fill="#000000" fill-rule="nonzero" fill-opacity="1" /><path clip-path="url(#clip610)" d="M60.8642 746.14 Q60.2913 747.126 60.0367 748.304 Q59.7502 749.45 59.7502 750.85 Q59.7502 755.816 62.9967 758.489 Q66.2114 761.131 72.2588 761.131 L91.0377 761.131 L91.0377 767.019 L55.3897 767.019 L55.3897 761.131 L60.9279 761.131 Q57.6813 759.285 56.1218 756.325 Q54.5303 753.365 54.5303 749.132 Q54.5303 748.527 54.6258 747.795 Q54.6895 747.063 54.8486 746.172 L60.8642 746.14 Z" fill="#000000" fill-rule="nonzero" fill-opacity="1" /><path clip-path="url(#clip610)" d="M60.8642 720.486 Q60.2913 721.473 60.0367 722.65 Q59.7502 723.796 59.7502 725.197 Q59.7502 730.162 62.9967 732.835 Q66.2114 735.477 72.2588 735.477 L91.0377 735.477 L91.0377 741.365 L55.3897 741.365 L55.3897 735.477 L60.9279 735.477 Q57.6813 733.631 56.1218 730.671 Q54.5303 727.711 54.5303 723.478 Q54.5303 722.873 54.6258 722.141 Q54.6895 721.409 54.8486 720.518 L60.8642 720.486 Z" fill="#000000" fill-rule="nonzero" fill-opacity="1" /><path clip-path="url(#clip610)" d="M59.4956 701.962 Q59.4956 706.672 63.1877 709.41 Q66.848 712.147 73.2455 712.147 Q79.643 712.147 83.3351 709.441 Q86.9954 706.704 86.9954 701.962 Q86.9954 697.283 83.3033 694.546 Q79.6112 691.808 73.2455 691.808 Q66.9116 691.808 63.2195 694.546 Q59.4956 697.283 59.4956 701.962 M54.5303 701.962 Q54.5303 694.323 59.4956 689.962 Q64.4608 685.602 73.2455 685.602 Q81.9983 685.602 86.9954 689.962 Q91.9607 694.323 91.9607 701.962 Q91.9607 709.632 86.9954 713.993 Q81.9983 718.322 73.2455 718.322 Q64.4608 718.322 59.4956 713.993 Q54.5303 709.632 54.5303 701.962 Z" fill="#000000" fill-rule="nonzero" fill-opacity="1" /><path clip-path="url(#clip610)" d="M60.8642 655.237 Q60.2913 656.224 60.0367 657.402 Q59.7502 658.548 59.7502 659.948 Q59.7502 664.913 62.9967 667.587 Q66.2114 670.229 72.2588 670.229 L91.0377 670.229 L91.0377 676.117 L55.3897 676.117 L55.3897 670.229 L60.9279 670.229 Q57.6813 668.383 56.1218 665.423 Q54.5303 662.463 54.5303 658.229 Q54.5303 657.625 54.6258 656.893 Q54.6895 656.16 54.8486 655.269 L60.8642 655.237 Z" fill="#000000" fill-rule="nonzero" fill-opacity="1" /><path clip-path="url(#clip610)" d="M41.5761 614.306 Q48.8967 618.571 56.0581 620.64 Q63.2195 622.709 70.5719 622.709 Q77.9243 622.709 85.1494 620.64 Q92.3426 618.539 99.6314 614.306 L99.6314 619.399 Q92.1517 624.173 84.9266 626.56 Q77.7015 628.915 70.5719 628.915 Q63.4741 628.915 56.2809 626.56 Q49.0876 624.205 41.5761 619.399 L41.5761 614.306 Z" fill="#000000" fill-rule="nonzero" fill-opacity="1" /><path clip-path="url(#clip610)" d="M62.2328 575.189 Q58.2861 572.993 56.4082 569.937 Q54.5303 566.881 54.5303 562.744 Q54.5303 557.174 58.4452 554.15 Q62.3283 551.126 69.5216 551.126 L91.0377 551.126 L91.0377 557.015 L69.7125 557.015 Q64.5881 557.015 62.1055 558.829 Q59.6229 560.643 59.6229 564.367 Q59.6229 568.918 62.6466 571.56 Q65.6703 574.202 70.8902 574.202 L91.0377 574.202 L91.0377 580.09 L69.7125 580.09 Q64.5563 580.09 62.1055 581.905 Q59.6229 583.719 59.6229 587.506 Q59.6229 591.994 62.6784 594.636 Q65.7021 597.278 70.8902 597.278 L91.0377 597.278 L91.0377 603.166 L55.3897 603.166 L55.3897 597.278 L60.9279 597.278 Q57.6495 595.272 56.0899 592.472 Q54.5303 589.671 54.5303 585.819 Q54.5303 581.936 56.5037 579.231 Q58.4771 576.494 62.2328 575.189 Z" fill="#000000" fill-rule="nonzero" fill-opacity="1" /><path clip-path="url(#clip610)" d="M59.4956 525.632 Q59.4956 530.342 63.1877 533.08 Q66.848 535.817 73.2455 535.817 Q79.643 535.817 83.3351 533.111 Q86.9954 530.374 86.9954 525.632 Q86.9954 520.953 83.3033 518.216 Q79.6112 515.478 73.2455 515.478 Q66.9116 515.478 63.2195 518.216 Q59.4956 520.953 59.4956 525.632 M54.5303 525.632 Q54.5303 517.993 59.4956 513.632 Q64.4608 509.272 73.2455 509.272 Q81.9983 509.272 86.9954 513.632 Q91.9607 517.993 91.9607 525.632 Q91.9607 533.302 86.9954 537.663 Q81.9983 541.992 73.2455 541.992 Q64.4608 541.992 59.4956 537.663 Q54.5303 533.302 54.5303 525.632 Z" fill="#000000" fill-rule="nonzero" fill-opacity="1" /><path clip-path="url(#clip610)" d="M41.5125 499.564 L41.5125 493.708 L91.0377 493.708 L91.0377 499.564 L41.5125 499.564 Z" fill="#000000" fill-rule="nonzero" fill-opacity="1" /><path clip-path="url(#clip610)" d="M43.5177 471.046 L43.5177 465.635 L97.0851 482.186 L97.0851 487.597 L43.5177 471.046 Z" fill="#000000" fill-rule="nonzero" fill-opacity="1" /><path clip-path="url(#clip610)" d="M62.2328 431.737 Q58.2861 429.541 56.4082 426.486 Q54.5303 423.43 54.5303 419.293 Q54.5303 413.723 58.4452 410.699 Q62.3283 407.675 69.5216 407.675 L91.0377 407.675 L91.0377 413.563 L69.7125 413.563 Q64.5881 413.563 62.1055 415.378 Q59.6229 417.192 59.6229 420.916 Q59.6229 425.467 62.6466 428.109 Q65.6703 430.751 70.8902 430.751 L91.0377 430.751 L91.0377 436.639 L69.7125 436.639 Q64.5563 436.639 62.1055 438.453 Q59.6229 440.268 59.6229 444.055 Q59.6229 448.543 62.6784 451.185 Q65.7021 453.826 70.8902 453.826 L91.0377 453.826 L91.0377 459.715 L55.3897 459.715 L55.3897 453.826 L60.9279 453.826 Q57.6495 451.821 56.0899 449.02 Q54.5303 446.219 54.5303 442.368 Q54.5303 438.485 56.5037 435.78 Q58.4771 433.042 62.2328 431.737 Z" fill="#000000" fill-rule="nonzero" fill-opacity="1" /><path clip-path="url(#clip610)" d="M36.6275 400.635 Q35.2523 400.635 34.5985 399.846 Q33.9448 399.057 33.9448 398.043 Q33.9448 396.983 34.6436 396.239 Q35.32 395.473 36.5148 395.473 Q37.7998 395.473 38.5212 396.374 Q39.2426 397.253 39.0623 398.516 Q40.9109 397.411 41.745 395.382 Q42.5792 393.331 42.5792 391.437 Q42.5792 389.453 40.8658 387.853 Q39.1525 386.229 34.9592 386.229 Q31.3973 386.229 29.3458 387.627 Q27.2943 389.002 27.2943 391.73 L27.2943 393.759 Q27.2943 394.458 27.2266 394.661 Q27.159 394.864 26.7757 394.864 Q26.3249 394.864 26.2347 394.165 Q26.2347 393.466 26.0994 392.361 Q26.0092 389.679 23.6872 388.258 Q21.523 386.973 18.4344 386.973 Q15.6164 386.973 14.4441 388.326 Q13.2493 389.656 13.2493 391.392 Q13.2493 393.015 13.9256 394.796 Q14.6019 396.577 16.1124 397.547 Q16.1124 394.683 18.4344 394.683 Q19.4489 394.683 20.1252 395.337 Q20.779 395.968 20.779 397.028 Q20.779 398.043 20.1478 398.719 Q19.494 399.395 18.3893 399.395 Q15.7517 399.395 13.9256 397.051 Q12.0995 394.683 12.0995 391.212 Q12.0995 387.785 13.9031 385.26 Q15.7066 382.713 18.4795 382.713 Q21.2073 382.713 23.4392 384.516 Q25.6711 386.32 26.5954 389.183 Q27.2943 385.666 29.6839 383.569 Q32.0511 381.473 34.9592 381.473 Q38.5663 381.473 41.2265 384.313 Q43.8642 387.154 43.8642 391.302 Q43.8642 395.134 41.7901 397.885 Q39.7161 400.635 36.6275 400.635 Z" fill="#000000" fill-rule="nonzero" fill-opacity="1" /><path clip-path="url(#clip610)" d="M41.5761 374.619 L41.5761 369.526 Q49.0876 364.752 56.2809 362.396 Q63.4741 360.009 70.5719 360.009 Q77.7015 360.009 84.9266 362.396 Q92.1517 364.752 99.6314 369.526 L99.6314 374.619 Q92.3426 370.385 85.1494 368.317 Q77.9243 366.216 70.5719 366.216 Q63.2195 366.216 56.0581 368.317 Q48.8967 370.385 41.5761 374.619 Z" fill="#000000" fill-rule="nonzero" fill-opacity="1" /><polyline clip-path="url(#clip612)" style="stroke:#008000; stroke-linecap:round; stroke-linejoin:round; stroke-width:4; stroke-opacity:1; fill:none" stroke-dasharray="2, 4" points="315.619,85.838 974.887,989.379 1634.15,1372.3 2293.42,1370.88 "/>
<path clip-path="url(#clip612)" d="M315.619 105.838 L298.299 95.838 L298.299 75.838 L315.619 65.838 L332.939 75.838 L332.939 95.838 Z" fill="#008000" fill-rule="evenodd" fill-opacity="1" stroke="#000000" stroke-opacity="1" stroke-width="3.2"/>
<path clip-path="url(#clip612)" d="M974.887 1009.38 L957.567 999.379 L957.567 979.379 L974.887 969.379 L992.207 979.379 L992.207 999.379 Z" fill="#008000" fill-rule="evenodd" fill-opacity="1" stroke="#000000" stroke-opacity="1" stroke-width="3.2"/>
<path clip-path="url(#clip612)" d="M1634.15 1392.3 L1616.83 1382.3 L1616.83 1362.3 L1634.15 1352.3 L1651.47 1362.3 L1651.47 1382.3 Z" fill="#008000" fill-rule="evenodd" fill-opacity="1" stroke="#000000" stroke-opacity="1" stroke-width="3.2"/>
<path clip-path="url(#clip612)" d="M2293.42 1390.88 L2276.1 1380.88 L2276.1 1360.88 L2293.42 1350.88 L2310.74 1360.88 L2310.74 1380.88 Z" fill="#008000" fill-rule="evenodd" fill-opacity="1" stroke="#000000" stroke-opacity="1" stroke-width="3.2"/>
<polyline clip-path="url(#clip612)" style="stroke:#a92a00; stroke-linecap:round; stroke-linejoin:round; stroke-width:4; stroke-opacity:1; fill:none" stroke-dasharray="2, 4" points="315.619,85.838 974.887,989.379 1634.15,1372.3 2293.42,1370.88 "/>
<path clip-path="url(#clip612)" d="M315.619 105.838 L298.299 95.838 L298.299 75.838 L315.619 65.838 L332.939 75.838 L332.939 95.838 Z" fill="#a92a00" fill-rule="evenodd" fill-opacity="1" stroke="#000000" stroke-opacity="1" stroke-width="3.2"/>
<path clip-path="url(#clip612)" d="M974.887 1009.38 L957.567 999.379 L957.567 979.379 L974.887 969.379 L992.207 979.379 L992.207 999.379 Z" fill="#a92a00" fill-rule="evenodd" fill-opacity="1" stroke="#000000" stroke-opacity="1" stroke-width="3.2"/>
<path clip-path="url(#clip612)" d="M1634.15 1392.3 L1616.83 1382.3 L1616.83 1362.3 L1634.15 1352.3 L1651.47 1362.3 L1651.47 1382.3 Z" fill="#a92a00" fill-rule="evenodd" fill-opacity="1" stroke="#000000" stroke-opacity="1" stroke-width="3.2"/>
<path clip-path="url(#clip612)" d="M2293.42 1390.88 L2276.1 1380.88 L2276.1 1360.88 L2293.42 1350.88 L2310.74 1360.88 L2310.74 1380.88 Z" fill="#a92a00" fill-rule="evenodd" fill-opacity="1" stroke="#000000" stroke-opacity="1" stroke-width="3.2"/>
<polyline clip-path="url(#clip612)" style="stroke:#800080; stroke-linecap:round; stroke-linejoin:round; stroke-width:4; stroke-opacity:1; fill:none" stroke-dasharray="2, 4" points="315.619,85.838 974.887,989.378 1634.15,1372.3 2293.42,1370.88 "/>
<path clip-path="url(#clip612)" d="M315.619 65.838 L295.619 85.838 L315.619 105.838 L335.619 85.838 L315.619 65.838 Z" fill="#800080" fill-rule="evenodd" fill-opacity="1" stroke="#000000" stroke-opacity="1" stroke-width="3.2"/>
<path clip-path="url(#clip612)" d="M974.887 969.378 L954.887 989.378 L974.887 1009.38 L994.887 989.378 L974.887 969.378 Z" fill="#800080" fill-rule="evenodd" fill-opacity="1" stroke="#000000" stroke-opacity="1" stroke-width="3.2"/>
<path clip-path="url(#clip612)" d="M1634.15 1352.3 L1614.15 1372.3 L1634.15 1392.3 L1654.15 1372.3 L1634.15 1352.3 Z" fill="#800080" fill-rule="evenodd" fill-opacity="1" stroke="#000000" stroke-opacity="1" stroke-width="3.2"/>
<path clip-path="url(#clip612)" d="M2293.42 1350.88 L2273.42 1370.88 L2293.42 1390.88 L2313.42 1370.88 L2293.42 1350.88 Z" fill="#800080" fill-rule="evenodd" fill-opacity="1" stroke="#000000" stroke-opacity="1" stroke-width="3.2"/>
<polyline clip-path="url(#clip612)" style="stroke:#805580; stroke-linecap:round; stroke-linejoin:round; stroke-width:4; stroke-opacity:1; fill:none" stroke-dasharray="2, 4" points="315.619,85.838 974.887,989.378 1634.15,1372.3 2293.42,1370.88 "/>
<path clip-path="url(#clip612)" d="M315.619 65.838 L295.619 85.838 L315.619 105.838 L335.619 85.838 L315.619 65.838 Z" fill="#805580" fill-rule="evenodd" fill-opacity="1" stroke="#000000" stroke-opacity="1" stroke-width="3.2"/>
<path clip-path="url(#clip612)" d="M974.887 969.378 L954.887 989.378 L974.887 1009.38 L994.887 989.378 L974.887 969.378 Z" fill="#805580" fill-rule="evenodd" fill-opacity="1" stroke="#000000" stroke-opacity="1" stroke-width="3.2"/>
<path clip-path="url(#clip612)" d="M1634.15 1352.3 L1614.15 1372.3 L1634.15 1392.3 L1654.15 1372.3 L1634.15 1352.3 Z" fill="#805580" fill-rule="evenodd" fill-opacity="1" stroke="#000000" stroke-opacity="1" stroke-width="3.2"/>
<path clip-path="url(#clip612)" d="M2293.42 1350.88 L2273.42 1370.88 L2293.42 1390.88 L2313.42 1370.88 L2293.42 1350.88 Z" fill="#805580" fill-rule="evenodd" fill-opacity="1" stroke="#000000" stroke-opacity="1" stroke-width="3.2"/>
<polyline clip-path="url(#clip612)" style="stroke:#0000ff; stroke-linecap:round; stroke-linejoin:round; stroke-width:4; stroke-opacity:1; fill:none" stroke-dasharray="2, 4" points="315.619,85.838 974.887,989.378 1634.15,1372.3 2293.42,1370.88 "/>
<path clip-path="url(#clip612)" d="M315.619 65.838 L310.919 79.358 L296.599 79.658 L308.019 88.318 L303.859 102.018 L315.619 93.838 L327.379 102.018 L323.219 88.318 L334.639 79.658 L320.319 79.358 L315.619 65.838 Z" fill="#0000ff" fill-rule="evenodd" fill-opacity="1" stroke="#000000" stroke-opacity="1" stroke-width="3.2"/>
<path clip-path="url(#clip612)" d="M974.887 969.378 L970.187 982.898 L955.867 983.198 L967.287 991.858 L963.127 1005.56 L974.887 997.378 L986.647 1005.56 L982.487 991.858 L993.907 983.198 L979.587 982.898 L974.887 969.378 Z" fill="#0000ff" fill-rule="evenodd" fill-opacity="1" stroke="#000000" stroke-opacity="1" stroke-width="3.2"/>
<path clip-path="url(#clip612)" d="M1634.15 1352.3 L1629.45 1365.82 L1615.13 1366.12 L1626.55 1374.78 L1622.39 1388.48 L1634.15 1380.3 L1645.91 1388.48 L1641.75 1374.78 L1653.17 1366.12 L1638.85 1365.82 L1634.15 1352.3 Z" fill="#0000ff" fill-rule="evenodd" fill-opacity="1" stroke="#000000" stroke-opacity="1" stroke-width="3.2"/>
<path clip-path="url(#clip612)" d="M2293.42 1350.88 L2288.72 1364.4 L2274.4 1364.7 L2285.82 1373.36 L2281.66 1387.06 L2293.42 1378.88 L2305.18 1387.06 L2301.02 1373.36 L2312.44 1364.7 L2298.12 1364.4 L2293.42 1350.88 Z" fill="#0000ff" fill-rule="evenodd" fill-opacity="1" stroke="#000000" stroke-opacity="1" stroke-width="3.2"/>
<polyline clip-path="url(#clip612)" style="stroke:#a9a955; stroke-linecap:round; stroke-linejoin:round; stroke-width:4; stroke-opacity:1; fill:none" stroke-dasharray="2, 4" points="315.619,85.838 974.887,989.378 1634.15,1372.3 2293.42,1370.88 "/>
<path clip-path="url(#clip612)" d="M315.619 65.838 L310.919 79.358 L296.599 79.658 L308.019 88.318 L303.859 102.018 L315.619 93.838 L327.379 102.018 L323.219 88.318 L334.639 79.658 L320.319 79.358 L315.619 65.838 Z" fill="#a9a955" fill-rule="evenodd" fill-opacity="1" stroke="#000000" stroke-opacity="1" stroke-width="3.2"/>
<path clip-path="url(#clip612)" d="M974.887 969.378 L970.187 982.898 L955.867 983.198 L967.287 991.858 L963.127 1005.56 L974.887 997.378 L986.647 1005.56 L982.487 991.858 L993.907 983.198 L979.587 982.898 L974.887 969.378 Z" fill="#a9a955" fill-rule="evenodd" fill-opacity="1" stroke="#000000" stroke-opacity="1" stroke-width="3.2"/>
<path clip-path="url(#clip612)" d="M1634.15 1352.3 L1629.45 1365.82 L1615.13 1366.12 L1626.55 1374.78 L1622.39 1388.48 L1634.15 1380.3 L1645.91 1388.48 L1641.75 1374.78 L1653.17 1366.12 L1638.85 1365.82 L1634.15 1352.3 Z" fill="#a9a955" fill-rule="evenodd" fill-opacity="1" stroke="#000000" stroke-opacity="1" stroke-width="3.2"/>
<path clip-path="url(#clip612)" d="M2293.42 1350.88 L2288.72 1364.4 L2274.4 1364.7 L2285.82 1373.36 L2281.66 1387.06 L2293.42 1378.88 L2305.18 1387.06 L2301.02 1373.36 L2312.44 1364.7 L2298.12 1364.4 L2293.42 1350.88 Z" fill="#a9a955" fill-rule="evenodd" fill-opacity="1" stroke="#000000" stroke-opacity="1" stroke-width="3.2"/>
<path clip-path="url(#clip610)" d="M1814.8 455.579 L2282.87 455.579 L2282.87 92.6992 L1814.8 92.6992  Z" fill="#ffffff" fill-rule="evenodd" fill-opacity="1"/>
<polyline clip-path="url(#clip610)" style="stroke:#000000; stroke-linecap:round; stroke-linejoin:round; stroke-width:4; stroke-opacity:1; fill:none" points="1814.8,455.579 2282.87,455.579 2282.87,92.6992 1814.8,92.6992 1814.8,455.579 "/>
<polyline clip-path="url(#clip610)" style="stroke:#008000; stroke-linecap:round; stroke-linejoin:round; stroke-width:4; stroke-opacity:1; fill:none" stroke-dasharray="2, 4" points="1838.1,144.539 1977.86,144.539 "/>
<path clip-path="url(#clip610)" d="M1907.98 166.108 L1889.3 155.323 L1889.3 133.755 L1907.98 122.971 L1926.66 133.755 L1926.66 155.323 Z" fill="#008000" fill-rule="evenodd" fill-opacity="1" stroke="#000000" stroke-opacity="1" stroke-width="3.72364"/>
<path clip-path="url(#clip610)" d="M2001.15 127.259 L2021.02 127.259 L2021.02 131.194 L2005.83 131.194 L2005.83 141.379 L2019.53 141.379 L2019.53 145.315 L2005.83 145.315 L2005.83 161.819 L2001.15 161.819 L2001.15 127.259 Z" fill="#000000" fill-rule="nonzero" fill-opacity="1" /><path clip-path="url(#clip610)" d="M2033.1 145.315 L2033.1 157.977 L2040.6 157.977 Q2044.37 157.977 2046.18 156.426 Q2048.01 154.852 2048.01 151.634 Q2048.01 148.393 2046.18 146.866 Q2044.37 145.315 2040.6 145.315 L2033.1 145.315 M2033.1 131.102 L2033.1 141.518 L2040.02 141.518 Q2043.45 141.518 2045.11 140.245 Q2046.8 138.949 2046.8 136.31 Q2046.8 133.694 2045.11 132.398 Q2043.45 131.102 2040.02 131.102 L2033.1 131.102 M2028.42 127.259 L2040.37 127.259 Q2045.71 127.259 2048.61 129.481 Q2051.5 131.704 2051.5 135.801 Q2051.5 138.972 2050.02 140.847 Q2048.54 142.722 2045.67 143.185 Q2049.12 143.926 2051.02 146.287 Q2052.94 148.625 2052.94 152.143 Q2052.94 156.773 2049.79 159.296 Q2046.64 161.819 2040.83 161.819 L2028.42 161.819 L2028.42 127.259 Z" fill="#000000" fill-rule="nonzero" fill-opacity="1" /><path clip-path="url(#clip610)" d="M2065.62 131.102 L2065.62 157.977 L2071.27 157.977 Q2078.42 157.977 2081.73 154.736 Q2085.07 151.495 2085.07 144.504 Q2085.07 137.56 2081.73 134.342 Q2078.42 131.102 2071.27 131.102 L2065.62 131.102 M2060.95 127.259 L2070.55 127.259 Q2080.6 127.259 2085.3 131.449 Q2090 135.616 2090 144.504 Q2090 153.44 2085.27 157.629 Q2080.55 161.819 2070.55 161.819 L2060.95 161.819 L2060.95 127.259 Z" fill="#000000" fill-rule="nonzero" fill-opacity="1" /><path clip-path="url(#clip610)" d="M2097.45 127.259 L2117.31 127.259 L2117.31 131.194 L2102.13 131.194 L2102.13 141.379 L2115.83 141.379 L2115.83 145.315 L2102.13 145.315 L2102.13 161.819 L2097.45 161.819 L2097.45 127.259 Z" fill="#000000" fill-rule="nonzero" fill-opacity="1" /><polyline clip-path="url(#clip610)" style="stroke:#a92a00; stroke-linecap:round; stroke-linejoin:round; stroke-width:4; stroke-opacity:1; fill:none" stroke-dasharray="2, 4" points="1838.1,196.379 1977.86,196.379 "/>
<path clip-path="url(#clip610)" d="M1907.98 217.948 L1889.3 207.163 L1889.3 185.595 L1907.98 174.811 L1926.66 185.595 L1926.66 207.163 Z" fill="#a92a00" fill-rule="evenodd" fill-opacity="1" stroke="#000000" stroke-opacity="1" stroke-width="3.72364"/>
<path clip-path="url(#clip610)" d="M2001.15 179.099 L2021.02 179.099 L2021.02 183.034 L2005.83 183.034 L2005.83 193.219 L2019.53 193.219 L2019.53 197.155 L2005.83 197.155 L2005.83 213.659 L2001.15 213.659 L2001.15 179.099 Z" fill="#000000" fill-rule="nonzero" fill-opacity="1" /><path clip-path="url(#clip610)" d="M2033.1 197.155 L2033.1 209.817 L2040.6 209.817 Q2044.37 209.817 2046.18 208.266 Q2048.01 206.692 2048.01 203.474 Q2048.01 200.233 2046.18 198.706 Q2044.37 197.155 2040.6 197.155 L2033.1 197.155 M2033.1 182.942 L2033.1 193.358 L2040.02 193.358 Q2043.45 193.358 2045.11 192.085 Q2046.8 190.789 2046.8 188.15 Q2046.8 185.534 2045.11 184.238 Q2043.45 182.942 2040.02 182.942 L2033.1 182.942 M2028.42 179.099 L2040.37 179.099 Q2045.71 179.099 2048.61 181.321 Q2051.5 183.544 2051.5 187.641 Q2051.5 190.812 2050.02 192.687 Q2048.54 194.562 2045.67 195.025 Q2049.12 195.766 2051.02 198.127 Q2052.94 200.465 2052.94 203.983 Q2052.94 208.613 2049.79 211.136 Q2046.64 213.659 2040.83 213.659 L2028.42 213.659 L2028.42 179.099 Z" fill="#000000" fill-rule="nonzero" fill-opacity="1" /><path clip-path="url(#clip610)" d="M2065.62 182.942 L2065.62 209.817 L2071.27 209.817 Q2078.42 209.817 2081.73 206.576 Q2085.07 203.335 2085.07 196.344 Q2085.07 189.4 2081.73 186.182 Q2078.42 182.942 2071.27 182.942 L2065.62 182.942 M2060.95 179.099 L2070.55 179.099 Q2080.6 179.099 2085.3 183.289 Q2090 187.456 2090 196.344 Q2090 205.28 2085.27 209.469 Q2080.55 213.659 2070.55 213.659 L2060.95 213.659 L2060.95 179.099 Z" fill="#000000" fill-rule="nonzero" fill-opacity="1" /><path clip-path="url(#clip610)" d="M2097.45 179.099 L2117.31 179.099 L2117.31 183.034 L2102.13 183.034 L2102.13 193.219 L2115.83 193.219 L2115.83 197.155 L2102.13 197.155 L2102.13 213.659 L2097.45 213.659 L2097.45 179.099 Z" fill="#000000" fill-rule="nonzero" fill-opacity="1" /><path clip-path="url(#clip610)" d="M2144.23 221.53 L2144.23 224.84 L2119.6 224.84 L2119.6 221.53 L2144.23 221.53 Z" fill="#000000" fill-rule="nonzero" fill-opacity="1" /><path clip-path="url(#clip610)" d="M2152.36 209.77 L2152.36 223.52 L2148.08 223.52 L2148.08 187.733 L2152.36 187.733 L2152.36 191.669 Q2153.7 189.354 2155.74 188.243 Q2157.8 187.108 2160.64 187.108 Q2165.37 187.108 2168.31 190.858 Q2171.27 194.608 2171.27 200.719 Q2171.27 206.831 2168.31 210.58 Q2165.37 214.33 2160.64 214.33 Q2157.8 214.33 2155.74 213.219 Q2153.7 212.085 2152.36 209.77 M2166.85 200.719 Q2166.85 196.02 2164.9 193.358 Q2162.98 190.673 2159.6 190.673 Q2156.22 190.673 2154.28 193.358 Q2152.36 196.02 2152.36 200.719 Q2152.36 205.418 2154.28 208.104 Q2156.22 210.766 2159.6 210.766 Q2162.98 210.766 2164.9 208.104 Q2166.85 205.418 2166.85 200.719 Z" fill="#000000" fill-rule="nonzero" fill-opacity="1" /><path clip-path="url(#clip610)" d="M2193.35 191.715 Q2192.64 191.298 2191.78 191.113 Q2190.95 190.905 2189.93 190.905 Q2186.32 190.905 2184.37 193.266 Q2182.45 195.604 2182.45 200.002 L2182.45 213.659 L2178.17 213.659 L2178.17 187.733 L2182.45 187.733 L2182.45 191.761 Q2183.79 189.4 2185.95 188.266 Q2188.1 187.108 2191.18 187.108 Q2191.62 187.108 2192.15 187.178 Q2192.68 187.224 2193.33 187.34 L2193.35 191.715 Z" fill="#000000" fill-rule="nonzero" fill-opacity="1" /><path clip-path="url(#clip610)" d="M2218.95 199.631 L2218.95 201.715 L2199.37 201.715 Q2199.65 206.113 2202.01 208.428 Q2204.39 210.719 2208.63 210.719 Q2211.08 210.719 2213.38 210.118 Q2215.69 209.516 2217.96 208.312 L2217.96 212.34 Q2215.67 213.312 2213.26 213.821 Q2210.85 214.33 2208.38 214.33 Q2202.17 214.33 2198.54 210.719 Q2194.93 207.108 2194.93 200.951 Q2194.93 194.585 2198.35 190.858 Q2201.8 187.108 2207.64 187.108 Q2212.87 187.108 2215.9 190.488 Q2218.95 193.844 2218.95 199.631 M2214.7 198.381 Q2214.65 194.886 2212.73 192.803 Q2210.83 190.719 2207.68 190.719 Q2204.12 190.719 2201.96 192.733 Q2199.83 194.747 2199.51 198.405 L2214.7 198.381 Z" fill="#000000" fill-rule="nonzero" fill-opacity="1" /><path clip-path="url(#clip610)" d="M2244.6 188.729 L2244.6 192.71 Q2242.8 191.715 2240.97 191.229 Q2239.16 190.719 2237.31 190.719 Q2233.17 190.719 2230.88 193.358 Q2228.58 195.974 2228.58 200.719 Q2228.58 205.465 2230.88 208.104 Q2233.17 210.719 2237.31 210.719 Q2239.16 210.719 2240.97 210.233 Q2242.8 209.724 2244.6 208.729 L2244.6 212.664 Q2242.82 213.497 2240.9 213.914 Q2239 214.33 2236.85 214.33 Q2230.99 214.33 2227.54 210.65 Q2224.09 206.969 2224.09 200.719 Q2224.09 194.377 2227.57 190.743 Q2231.06 187.108 2237.13 187.108 Q2239.09 187.108 2240.97 187.525 Q2242.84 187.919 2244.6 188.729 Z" fill="#000000" fill-rule="nonzero" fill-opacity="1" /><polyline clip-path="url(#clip610)" style="stroke:#800080; stroke-linecap:round; stroke-linejoin:round; stroke-width:4; stroke-opacity:1; fill:none" stroke-dasharray="2, 4" points="1838.1,248.219 1977.86,248.219 "/>
<path clip-path="url(#clip610)" d="M1907.98 226.651 L1886.41 248.219 L1907.98 269.788 L1929.55 248.219 L1907.98 226.651 Z" fill="#800080" fill-rule="evenodd" fill-opacity="1" stroke="#000000" stroke-opacity="1" stroke-width="3.72364"/>
<path clip-path="url(#clip610)" d="M2017.17 234.11 Q2012.08 234.11 2009.07 237.907 Q2006.09 241.703 2006.09 248.254 Q2006.09 254.782 2009.07 258.578 Q2012.08 262.374 2017.17 262.374 Q2022.27 262.374 2025.23 258.578 Q2028.21 254.782 2028.21 248.254 Q2028.21 241.703 2025.23 237.907 Q2022.27 234.11 2017.17 234.11 M2023.72 264.874 L2029.88 271.61 L2024.23 271.61 L2019.12 266.078 Q2018.35 266.124 2017.94 266.147 Q2017.54 266.17 2017.17 266.17 Q2009.88 266.17 2005.51 261.309 Q2001.15 256.425 2001.15 248.254 Q2001.15 240.06 2005.51 235.198 Q2009.88 230.314 2017.17 230.314 Q2024.44 230.314 2028.79 235.198 Q2033.15 240.06 2033.15 248.254 Q2033.15 254.272 2030.71 258.555 Q2028.31 262.837 2023.72 264.874 Z" fill="#000000" fill-rule="nonzero" fill-opacity="1" /><path clip-path="url(#clip610)" d="M2040.46 230.939 L2046.76 230.939 L2062.08 259.851 L2062.08 230.939 L2066.62 230.939 L2066.62 265.499 L2060.32 265.499 L2045 236.587 L2045 265.499 L2040.46 265.499 L2040.46 230.939 Z" fill="#000000" fill-rule="nonzero" fill-opacity="1" /><path clip-path="url(#clip610)" d="M2080.6 234.782 L2080.6 261.657 L2086.25 261.657 Q2093.4 261.657 2096.71 258.416 Q2100.04 255.175 2100.04 248.184 Q2100.04 241.24 2096.71 238.022 Q2093.4 234.782 2086.25 234.782 L2080.6 234.782 M2075.92 230.939 L2085.53 230.939 Q2095.58 230.939 2100.27 235.129 Q2104.97 239.296 2104.97 248.184 Q2104.97 257.12 2100.25 261.309 Q2095.53 265.499 2085.53 265.499 L2075.92 265.499 L2075.92 230.939 Z" fill="#000000" fill-rule="nonzero" fill-opacity="1" /><path clip-path="url(#clip610)" d="M2112.43 230.939 L2132.29 230.939 L2132.29 234.874 L2117.1 234.874 L2117.1 245.059 L2130.81 245.059 L2130.81 248.995 L2117.1 248.995 L2117.1 265.499 L2112.43 265.499 L2112.43 230.939 Z" fill="#000000" fill-rule="nonzero" fill-opacity="1" /><polyline clip-path="url(#clip610)" style="stroke:#805580; stroke-linecap:round; stroke-linejoin:round; stroke-width:4; stroke-opacity:1; fill:none" stroke-dasharray="2, 4" points="1838.1,300.059 1977.86,300.059 "/>
<path clip-path="url(#clip610)" d="M1907.98 278.491 L1886.41 300.059 L1907.98 321.628 L1929.55 300.059 L1907.98 278.491 Z" fill="#805580" fill-rule="evenodd" fill-opacity="1" stroke="#000000" stroke-opacity="1" stroke-width="3.72364"/>
<path clip-path="url(#clip610)" d="M2017.17 285.95 Q2012.08 285.95 2009.07 289.747 Q2006.09 293.543 2006.09 300.094 Q2006.09 306.622 2009.07 310.418 Q2012.08 314.214 2017.17 314.214 Q2022.27 314.214 2025.23 310.418 Q2028.21 306.622 2028.21 300.094 Q2028.21 293.543 2025.23 289.747 Q2022.27 285.95 2017.17 285.95 M2023.72 316.714 L2029.88 323.45 L2024.23 323.45 L2019.12 317.918 Q2018.35 317.964 2017.94 317.987 Q2017.54 318.01 2017.17 318.01 Q2009.88 318.01 2005.51 313.149 Q2001.15 308.265 2001.15 300.094 Q2001.15 291.9 2005.51 287.038 Q2009.88 282.154 2017.17 282.154 Q2024.44 282.154 2028.79 287.038 Q2033.15 291.9 2033.15 300.094 Q2033.15 306.112 2030.71 310.395 Q2028.31 314.677 2023.72 316.714 Z" fill="#000000" fill-rule="nonzero" fill-opacity="1" /><path clip-path="url(#clip610)" d="M2040.46 282.779 L2046.76 282.779 L2062.08 311.691 L2062.08 282.779 L2066.62 282.779 L2066.62 317.339 L2060.32 317.339 L2045 288.427 L2045 317.339 L2040.46 317.339 L2040.46 282.779 Z" fill="#000000" fill-rule="nonzero" fill-opacity="1" /><path clip-path="url(#clip610)" d="M2080.6 286.622 L2080.6 313.497 L2086.25 313.497 Q2093.4 313.497 2096.71 310.256 Q2100.04 307.015 2100.04 300.024 Q2100.04 293.08 2096.71 289.862 Q2093.4 286.622 2086.25 286.622 L2080.6 286.622 M2075.92 282.779 L2085.53 282.779 Q2095.58 282.779 2100.27 286.969 Q2104.97 291.136 2104.97 300.024 Q2104.97 308.96 2100.25 313.149 Q2095.53 317.339 2085.53 317.339 L2075.92 317.339 L2075.92 282.779 Z" fill="#000000" fill-rule="nonzero" fill-opacity="1" /><path clip-path="url(#clip610)" d="M2112.43 282.779 L2132.29 282.779 L2132.29 286.714 L2117.1 286.714 L2117.1 296.899 L2130.81 296.899 L2130.81 300.835 L2117.1 300.835 L2117.1 317.339 L2112.43 317.339 L2112.43 282.779 Z" fill="#000000" fill-rule="nonzero" fill-opacity="1" /><path clip-path="url(#clip610)" d="M2159.21 325.21 L2159.21 328.52 L2134.58 328.52 L2134.58 325.21 L2159.21 325.21 Z" fill="#000000" fill-rule="nonzero" fill-opacity="1" /><path clip-path="url(#clip610)" d="M2167.33 313.45 L2167.33 327.2 L2163.05 327.2 L2163.05 291.413 L2167.33 291.413 L2167.33 295.349 Q2168.68 293.034 2170.71 291.923 Q2172.77 290.788 2175.62 290.788 Q2180.34 290.788 2183.28 294.538 Q2186.25 298.288 2186.25 304.399 Q2186.25 310.511 2183.28 314.26 Q2180.34 318.01 2175.62 318.01 Q2172.77 318.01 2170.71 316.899 Q2168.68 315.765 2167.33 313.45 M2181.83 304.399 Q2181.83 299.7 2179.88 297.038 Q2177.96 294.353 2174.58 294.353 Q2171.2 294.353 2169.26 297.038 Q2167.33 299.7 2167.33 304.399 Q2167.33 309.098 2169.26 311.784 Q2171.2 314.446 2174.58 314.446 Q2177.96 314.446 2179.88 311.784 Q2181.83 309.098 2181.83 304.399 Z" fill="#000000" fill-rule="nonzero" fill-opacity="1" /><path clip-path="url(#clip610)" d="M2208.33 295.395 Q2207.61 294.978 2206.76 294.793 Q2205.92 294.585 2204.9 294.585 Q2201.29 294.585 2199.35 296.946 Q2197.43 299.284 2197.43 303.682 L2197.43 317.339 L2193.14 317.339 L2193.14 291.413 L2197.43 291.413 L2197.43 295.441 Q2198.77 293.08 2200.92 291.946 Q2203.08 290.788 2206.15 290.788 Q2206.59 290.788 2207.13 290.858 Q2207.66 290.904 2208.31 291.02 L2208.33 295.395 Z" fill="#000000" fill-rule="nonzero" fill-opacity="1" /><path clip-path="url(#clip610)" d="M2233.93 303.311 L2233.93 305.395 L2214.35 305.395 Q2214.63 309.793 2216.99 312.108 Q2219.37 314.399 2223.61 314.399 Q2226.06 314.399 2228.35 313.798 Q2230.67 313.196 2232.94 311.992 L2232.94 316.02 Q2230.64 316.992 2228.24 317.501 Q2225.83 318.01 2223.35 318.01 Q2217.15 318.01 2213.51 314.399 Q2209.9 310.788 2209.9 304.631 Q2209.9 298.265 2213.33 294.538 Q2216.78 290.788 2222.61 290.788 Q2227.84 290.788 2230.88 294.168 Q2233.93 297.524 2233.93 303.311 M2229.67 302.061 Q2229.63 298.566 2227.7 296.483 Q2225.81 294.399 2222.66 294.399 Q2219.09 294.399 2216.94 296.413 Q2214.81 298.427 2214.49 302.085 L2229.67 302.061 Z" fill="#000000" fill-rule="nonzero" fill-opacity="1" /><path clip-path="url(#clip610)" d="M2259.58 292.409 L2259.58 296.39 Q2257.77 295.395 2255.95 294.909 Q2254.14 294.399 2252.29 294.399 Q2248.14 294.399 2245.85 297.038 Q2243.56 299.654 2243.56 304.399 Q2243.56 309.145 2245.85 311.784 Q2248.14 314.399 2252.29 314.399 Q2254.14 314.399 2255.95 313.913 Q2257.77 313.404 2259.58 312.409 L2259.58 316.344 Q2257.8 317.177 2255.88 317.594 Q2253.98 318.01 2251.82 318.01 Q2245.97 318.01 2242.52 314.33 Q2239.07 310.649 2239.07 304.399 Q2239.07 298.057 2242.54 294.423 Q2246.04 290.788 2252.1 290.788 Q2254.07 290.788 2255.95 291.205 Q2257.82 291.599 2259.58 292.409 Z" fill="#000000" fill-rule="nonzero" fill-opacity="1" /><polyline clip-path="url(#clip610)" style="stroke:#0000ff; stroke-linecap:round; stroke-linejoin:round; stroke-width:4; stroke-opacity:1; fill:none" stroke-dasharray="2, 4" points="1838.1,351.899 1977.86,351.899 "/>
<path clip-path="url(#clip610)" d="M1907.98 330.331 L1902.91 344.911 L1887.47 345.234 L1899.78 354.574 L1895.3 369.348 L1907.98 360.527 L1920.66 369.348 L1916.17 354.574 L1928.49 345.234 L1913.05 344.911 L1907.98 330.331 Z" fill="#0000ff" fill-rule="evenodd" fill-opacity="1" stroke="#000000" stroke-opacity="1" stroke-width="3.72364"/>
<path clip-path="url(#clip610)" d="M2017.17 337.79 Q2012.08 337.79 2009.07 341.587 Q2006.09 345.383 2006.09 351.934 Q2006.09 358.462 2009.07 362.258 Q2012.08 366.054 2017.17 366.054 Q2022.27 366.054 2025.23 362.258 Q2028.21 358.462 2028.21 351.934 Q2028.21 345.383 2025.23 341.587 Q2022.27 337.79 2017.17 337.79 M2023.72 368.554 L2029.88 375.29 L2024.23 375.29 L2019.12 369.758 Q2018.35 369.804 2017.94 369.827 Q2017.54 369.85 2017.17 369.85 Q2009.88 369.85 2005.51 364.989 Q2001.15 360.105 2001.15 351.934 Q2001.15 343.74 2005.51 338.878 Q2009.88 333.994 2017.17 333.994 Q2024.44 333.994 2028.79 338.878 Q2033.15 343.74 2033.15 351.934 Q2033.15 357.952 2030.71 362.235 Q2028.31 366.517 2023.72 368.554 Z" fill="#000000" fill-rule="nonzero" fill-opacity="1" /><path clip-path="url(#clip610)" d="M2045.14 352.675 L2045.14 365.337 L2052.64 365.337 Q2056.41 365.337 2058.21 363.786 Q2060.04 362.212 2060.04 358.994 Q2060.04 355.753 2058.21 354.226 Q2056.41 352.675 2052.64 352.675 L2045.14 352.675 M2045.14 338.462 L2045.14 348.878 L2052.06 348.878 Q2055.48 348.878 2057.15 347.605 Q2058.84 346.309 2058.84 343.67 Q2058.84 341.054 2057.15 339.758 Q2055.48 338.462 2052.06 338.462 L2045.14 338.462 M2040.46 334.619 L2052.4 334.619 Q2057.75 334.619 2060.65 336.841 Q2063.54 339.064 2063.54 343.161 Q2063.54 346.332 2062.06 348.207 Q2060.58 350.082 2057.71 350.545 Q2061.15 351.286 2063.05 353.647 Q2064.97 355.985 2064.97 359.503 Q2064.97 364.133 2061.83 366.656 Q2058.68 369.179 2052.87 369.179 L2040.46 369.179 L2040.46 334.619 Z" fill="#000000" fill-rule="nonzero" fill-opacity="1" /><path clip-path="url(#clip610)" d="M2077.66 338.462 L2077.66 365.337 L2083.31 365.337 Q2090.46 365.337 2093.77 362.096 Q2097.1 358.855 2097.1 351.864 Q2097.1 344.92 2093.77 341.702 Q2090.46 338.462 2083.31 338.462 L2077.66 338.462 M2072.98 334.619 L2082.59 334.619 Q2092.64 334.619 2097.33 338.809 Q2102.03 342.976 2102.03 351.864 Q2102.03 360.8 2097.31 364.989 Q2092.59 369.179 2082.59 369.179 L2072.98 369.179 L2072.98 334.619 Z" fill="#000000" fill-rule="nonzero" fill-opacity="1" /><path clip-path="url(#clip610)" d="M2109.49 334.619 L2129.35 334.619 L2129.35 338.554 L2114.16 338.554 L2114.16 348.739 L2127.87 348.739 L2127.87 352.675 L2114.16 352.675 L2114.16 369.179 L2109.49 369.179 L2109.49 334.619 Z" fill="#000000" fill-rule="nonzero" fill-opacity="1" /><polyline clip-path="url(#clip610)" style="stroke:#a9a955; stroke-linecap:round; stroke-linejoin:round; stroke-width:4; stroke-opacity:1; fill:none" stroke-dasharray="2, 4" points="1838.1,403.739 1977.86,403.739 "/>
<path clip-path="url(#clip610)" d="M1907.98 382.171 L1902.91 396.751 L1887.47 397.074 L1899.78 406.414 L1895.3 421.188 L1907.98 412.367 L1920.66 421.188 L1916.17 406.414 L1928.49 397.074 L1913.05 396.751 L1907.98 382.171 Z" fill="#a9a955" fill-rule="evenodd" fill-opacity="1" stroke="#000000" stroke-opacity="1" stroke-width="3.72364"/>
<path clip-path="url(#clip610)" d="M2017.17 389.63 Q2012.08 389.63 2009.07 393.427 Q2006.09 397.223 2006.09 403.774 Q2006.09 410.302 2009.07 414.098 Q2012.08 417.894 2017.17 417.894 Q2022.27 417.894 2025.23 414.098 Q2028.21 410.302 2028.21 403.774 Q2028.21 397.223 2025.23 393.427 Q2022.27 389.63 2017.17 389.63 M2023.72 420.394 L2029.88 427.13 L2024.23 427.13 L2019.12 421.598 Q2018.35 421.644 2017.94 421.667 Q2017.54 421.69 2017.17 421.69 Q2009.88 421.69 2005.51 416.829 Q2001.15 411.945 2001.15 403.774 Q2001.15 395.58 2005.51 390.718 Q2009.88 385.834 2017.17 385.834 Q2024.44 385.834 2028.79 390.718 Q2033.15 395.58 2033.15 403.774 Q2033.15 409.792 2030.71 414.075 Q2028.31 418.357 2023.72 420.394 Z" fill="#000000" fill-rule="nonzero" fill-opacity="1" /><path clip-path="url(#clip610)" d="M2045.14 404.515 L2045.14 417.177 L2052.64 417.177 Q2056.41 417.177 2058.21 415.626 Q2060.04 414.052 2060.04 410.834 Q2060.04 407.593 2058.21 406.066 Q2056.41 404.515 2052.64 404.515 L2045.14 404.515 M2045.14 390.302 L2045.14 400.718 L2052.06 400.718 Q2055.48 400.718 2057.15 399.445 Q2058.84 398.149 2058.84 395.51 Q2058.84 392.894 2057.15 391.598 Q2055.48 390.302 2052.06 390.302 L2045.14 390.302 M2040.46 386.459 L2052.4 386.459 Q2057.75 386.459 2060.65 388.681 Q2063.54 390.904 2063.54 395.001 Q2063.54 398.172 2062.06 400.047 Q2060.58 401.922 2057.71 402.385 Q2061.15 403.126 2063.05 405.487 Q2064.97 407.825 2064.97 411.343 Q2064.97 415.973 2061.83 418.496 Q2058.68 421.019 2052.87 421.019 L2040.46 421.019 L2040.46 386.459 Z" fill="#000000" fill-rule="nonzero" fill-opacity="1" /><path clip-path="url(#clip610)" d="M2077.66 390.302 L2077.66 417.177 L2083.31 417.177 Q2090.46 417.177 2093.77 413.936 Q2097.1 410.695 2097.1 403.704 Q2097.1 396.76 2093.77 393.542 Q2090.46 390.302 2083.31 390.302 L2077.66 390.302 M2072.98 386.459 L2082.59 386.459 Q2092.64 386.459 2097.33 390.649 Q2102.03 394.816 2102.03 403.704 Q2102.03 412.64 2097.31 416.829 Q2092.59 421.019 2082.59 421.019 L2072.98 421.019 L2072.98 386.459 Z" fill="#000000" fill-rule="nonzero" fill-opacity="1" /><path clip-path="url(#clip610)" d="M2109.49 386.459 L2129.35 386.459 L2129.35 390.394 L2114.16 390.394 L2114.16 400.579 L2127.87 400.579 L2127.87 404.515 L2114.16 404.515 L2114.16 421.019 L2109.49 421.019 L2109.49 386.459 Z" fill="#000000" fill-rule="nonzero" fill-opacity="1" /><path clip-path="url(#clip610)" d="M2156.27 428.89 L2156.27 432.2 L2131.64 432.2 L2131.64 428.89 L2156.27 428.89 Z" fill="#000000" fill-rule="nonzero" fill-opacity="1" /><path clip-path="url(#clip610)" d="M2164.39 417.13 L2164.39 430.88 L2160.11 430.88 L2160.11 395.093 L2164.39 395.093 L2164.39 399.029 Q2165.74 396.714 2167.77 395.603 Q2169.83 394.468 2172.68 394.468 Q2177.4 394.468 2180.34 398.218 Q2183.31 401.968 2183.31 408.079 Q2183.31 414.191 2180.34 417.94 Q2177.4 421.69 2172.68 421.69 Q2169.83 421.69 2167.77 420.579 Q2165.74 419.445 2164.39 417.13 M2178.89 408.079 Q2178.89 403.38 2176.94 400.718 Q2175.02 398.033 2171.64 398.033 Q2168.26 398.033 2166.32 400.718 Q2164.39 403.38 2164.39 408.079 Q2164.39 412.778 2166.32 415.464 Q2168.26 418.126 2171.64 418.126 Q2175.02 418.126 2176.94 415.464 Q2178.89 412.778 2178.89 408.079 Z" fill="#000000" fill-rule="nonzero" fill-opacity="1" /><path clip-path="url(#clip610)" d="M2205.39 399.075 Q2204.67 398.658 2203.82 398.473 Q2202.98 398.265 2201.96 398.265 Q2198.35 398.265 2196.41 400.626 Q2194.49 402.964 2194.49 407.362 L2194.49 421.019 L2190.2 421.019 L2190.2 395.093 L2194.49 395.093 L2194.49 399.121 Q2195.83 396.76 2197.98 395.626 Q2200.14 394.468 2203.21 394.468 Q2203.65 394.468 2204.19 394.538 Q2204.72 394.584 2205.37 394.7 L2205.39 399.075 Z" fill="#000000" fill-rule="nonzero" fill-opacity="1" /><path clip-path="url(#clip610)" d="M2230.99 406.991 L2230.99 409.075 L2211.41 409.075 Q2211.69 413.473 2214.05 415.788 Q2216.43 418.079 2220.67 418.079 Q2223.12 418.079 2225.41 417.478 Q2227.73 416.876 2230 415.672 L2230 419.7 Q2227.7 420.672 2225.3 421.181 Q2222.89 421.69 2220.41 421.69 Q2214.21 421.69 2210.58 418.079 Q2206.96 414.468 2206.96 408.311 Q2206.96 401.945 2210.39 398.218 Q2213.84 394.468 2219.67 394.468 Q2224.9 394.468 2227.94 397.848 Q2230.99 401.204 2230.99 406.991 M2226.73 405.741 Q2226.69 402.246 2224.76 400.163 Q2222.87 398.079 2219.72 398.079 Q2216.15 398.079 2214 400.093 Q2211.87 402.107 2211.55 405.765 L2226.73 405.741 Z" fill="#000000" fill-rule="nonzero" fill-opacity="1" /><path clip-path="url(#clip610)" d="M2256.64 396.089 L2256.64 400.07 Q2254.83 399.075 2253.01 398.589 Q2251.2 398.079 2249.35 398.079 Q2245.2 398.079 2242.91 400.718 Q2240.62 403.334 2240.62 408.079 Q2240.62 412.825 2242.91 415.464 Q2245.2 418.079 2249.35 418.079 Q2251.2 418.079 2253.01 417.593 Q2254.83 417.084 2256.64 416.089 L2256.64 420.024 Q2254.86 420.857 2252.94 421.274 Q2251.04 421.69 2248.89 421.69 Q2243.03 421.69 2239.58 418.01 Q2236.13 414.329 2236.13 408.079 Q2236.13 401.737 2239.6 398.103 Q2243.1 394.468 2249.16 394.468 Q2251.13 394.468 2253.01 394.885 Q2254.88 395.279 2256.64 396.089 Z" fill="#000000" fill-rule="nonzero" fill-opacity="1" /></svg>
