<?xml version="1.0" encoding="utf-8"?>
<svg xmlns="http://www.w3.org/2000/svg" xmlns:xlink="http://www.w3.org/1999/xlink" width="600" height="400" viewBox="0 0 2400 1600">
<defs>
  <clipPath id="clip970">
    <rect x="0" y="0" width="2400" height="1600"/>
  </clipPath>
</defs>
<path clip-path="url(#clip970)" d="M0 1600 L2400 1600 L2400 0 L0 0  Z" fill="#ffffff" fill-rule="evenodd" fill-opacity="1"/>
<defs>
  <clipPath id="clip971">
    <rect x="480" y="0" width="1681" height="1600"/>
  </clipPath>
</defs>
<path clip-path="url(#clip970)" d="M175.445 1423.18 L2352.76 1423.18 L2352.76 47.2441 L175.445 47.2441  Z" fill="#ffffff" fill-rule="evenodd" fill-opacity="1"/>
<defs>
  <clipPath id="clip972">
    <rect x="175" y="47" width="2178" height="1377"/>
  </clipPath>
</defs>
<polyline clip-path="url(#clip972)" style="stroke:#000000; stroke-linecap:round; stroke-linejoin:round; stroke-width:2; stroke-opacity:0.1; fill:none" points="329.732,1423.18 329.732,47.2441 "/>
<polyline clip-path="url(#clip972)" style="stroke:#000000; stroke-linecap:round; stroke-linejoin:round; stroke-width:2; stroke-opacity:0.1; fill:none" points="715.835,1423.18 715.835,47.2441 "/>
<polyline clip-path="url(#clip972)" style="stroke:#000000; stroke-linecap:round; stroke-linejoin:round; stroke-width:2; stroke-opacity:0.1; fill:none" points="1101.94,1423.18 1101.94,47.2441 "/>
<polyline clip-path="url(#clip972)" style="stroke:#000000; stroke-linecap:round; stroke-linejoin:round; stroke-width:2; stroke-opacity:0.1; fill:none" points="1488.04,1423.18 1488.04,47.2441 "/>
<polyline clip-path="url(#clip972)" style="stroke:#000000; stroke-linecap:round; stroke-linejoin:round; stroke-width:2; stroke-opacity:0.1; fill:none" points="1874.14,1423.18 1874.14,47.2441 "/>
<polyline clip-path="url(#clip972)" style="stroke:#000000; stroke-linecap:round; stroke-linejoin:round; stroke-width:2; stroke-opacity:0.1; fill:none" points="2260.25,1423.18 2260.25,47.2441 "/>
<polyline clip-path="url(#clip970)" style="stroke:#000000; stroke-linecap:round; stroke-linejoin:round; stroke-width:4; stroke-opacity:1; fill:none" points="175.445,1423.18 2352.76,1423.18 "/>
<polyline clip-path="url(#clip970)" style="stroke:#000000; stroke-linecap:round; stroke-linejoin:round; stroke-width:4; stroke-opacity:1; fill:none" points="329.732,1423.18 329.732,1404.28 "/>
<polyline clip-path="url(#clip970)" style="stroke:#000000; stroke-linecap:round; stroke-linejoin:round; stroke-width:4; stroke-opacity:1; fill:none" points="715.835,1423.18 715.835,1404.28 "/>
<polyline clip-path="url(#clip970)" style="stroke:#000000; stroke-linecap:round; stroke-linejoin:round; stroke-width:4; stroke-opacity:1; fill:none" points="1101.94,1423.18 1101.94,1404.28 "/>
<polyline clip-path="url(#clip970)" style="stroke:#000000; stroke-linecap:round; stroke-linejoin:round; stroke-width:4; stroke-opacity:1; fill:none" points="1488.04,1423.18 1488.04,1404.28 "/>
<polyline clip-path="url(#clip970)" style="stroke:#000000; stroke-linecap:round; stroke-linejoin:round; stroke-width:4; stroke-opacity:1; fill:none" points="1874.14,1423.18 1874.14,1404.28 "/>
<polyline clip-path="url(#clip970)" style="stroke:#000000; stroke-linecap:round; stroke-linejoin:round; stroke-width:4; stroke-opacity:1; fill:none" points="2260.25,1423.18 2260.25,1404.28 "/>
<path clip-path="url(#clip970)" d="M289.35 1451.02 L307.707 1451.02 L307.707 1454.96 L293.633 1454.96 L293.633 1463.43 Q294.651 1463.08 295.67 1462.92 Q296.688 1462.73 297.707 1462.73 Q303.494 1462.73 306.873 1465.9 Q310.253 1469.08 310.253 1474.49 Q310.253 1480.07 306.781 1483.17 Q303.308 1486.25 296.989 1486.25 Q294.813 1486.25 292.545 1485.88 Q290.299 1485.51 287.892 1484.77 L287.892 1480.07 Q289.975 1481.2 292.197 1481.76 Q294.42 1482.32 296.896 1482.32 Q300.901 1482.32 303.239 1480.21 Q305.577 1478.1 305.577 1474.49 Q305.577 1470.88 303.239 1468.77 Q300.901 1466.67 296.896 1466.67 Q295.021 1466.67 293.146 1467.08 Q291.295 1467.5 289.35 1468.38 L289.35 1451.02 Z" fill="#000000" fill-rule="nonzero" fill-opacity="1" /><path clip-path="url(#clip970)" d="M329.466 1454.1 Q325.855 1454.1 324.026 1457.66 Q322.22 1461.2 322.22 1468.33 Q322.22 1475.44 324.026 1479.01 Q325.855 1482.55 329.466 1482.55 Q333.1 1482.55 334.905 1479.01 Q336.734 1475.44 336.734 1468.33 Q336.734 1461.2 334.905 1457.66 Q333.1 1454.1 329.466 1454.1 M329.466 1450.39 Q335.276 1450.39 338.331 1455 Q341.41 1459.58 341.41 1468.33 Q341.41 1477.06 338.331 1481.67 Q335.276 1486.25 329.466 1486.25 Q323.656 1486.25 320.577 1481.67 Q317.521 1477.06 317.521 1468.33 Q317.521 1459.58 320.577 1455 Q323.656 1450.39 329.466 1450.39 Z" fill="#000000" fill-rule="nonzero" fill-opacity="1" /><path clip-path="url(#clip970)" d="M359.628 1454.1 Q356.016 1454.1 354.188 1457.66 Q352.382 1461.2 352.382 1468.33 Q352.382 1475.44 354.188 1479.01 Q356.016 1482.55 359.628 1482.55 Q363.262 1482.55 365.067 1479.01 Q366.896 1475.44 366.896 1468.33 Q366.896 1461.2 365.067 1457.66 Q363.262 1454.1 359.628 1454.1 M359.628 1450.39 Q365.438 1450.39 368.493 1455 Q371.572 1459.58 371.572 1468.33 Q371.572 1477.06 368.493 1481.67 Q365.438 1486.25 359.628 1486.25 Q353.817 1486.25 350.739 1481.67 Q347.683 1477.06 347.683 1468.33 Q347.683 1459.58 350.739 1455 Q353.817 1450.39 359.628 1450.39 Z" fill="#000000" fill-rule="nonzero" fill-opacity="1" /><path clip-path="url(#clip970)" d="M660.36 1481.64 L667.999 1481.64 L667.999 1455.28 L659.689 1456.95 L659.689 1452.69 L667.953 1451.02 L672.629 1451.02 L672.629 1481.64 L680.268 1481.64 L680.268 1485.58 L660.36 1485.58 L660.36 1481.64 Z" fill="#000000" fill-rule="nonzero" fill-opacity="1" /><path clip-path="url(#clip970)" d="M699.712 1454.1 Q696.101 1454.1 694.272 1457.66 Q692.467 1461.2 692.467 1468.33 Q692.467 1475.44 694.272 1479.01 Q696.101 1482.55 699.712 1482.55 Q703.346 1482.55 705.152 1479.01 Q706.981 1475.44 706.981 1468.33 Q706.981 1461.2 705.152 1457.66 Q703.346 1454.1 699.712 1454.1 M699.712 1450.39 Q705.522 1450.39 708.578 1455 Q711.656 1459.58 711.656 1468.33 Q711.656 1477.06 708.578 1481.67 Q705.522 1486.25 699.712 1486.25 Q693.902 1486.25 690.823 1481.67 Q687.768 1477.06 687.768 1468.33 Q687.768 1459.58 690.823 1455 Q693.902 1450.39 699.712 1450.39 Z" fill="#000000" fill-rule="nonzero" fill-opacity="1" /><path clip-path="url(#clip970)" d="M729.874 1454.1 Q726.263 1454.1 724.434 1457.66 Q722.629 1461.2 722.629 1468.33 Q722.629 1475.44 724.434 1479.01 Q726.263 1482.55 729.874 1482.55 Q733.508 1482.55 735.314 1479.01 Q737.142 1475.44 737.142 1468.33 Q737.142 1461.2 735.314 1457.66 Q733.508 1454.1 729.874 1454.1 M729.874 1450.39 Q735.684 1450.39 738.74 1455 Q741.818 1459.58 741.818 1468.33 Q741.818 1477.06 738.74 1481.67 Q735.684 1486.25 729.874 1486.25 Q724.064 1486.25 720.985 1481.67 Q717.93 1477.06 717.93 1468.33 Q717.93 1459.58 720.985 1455 Q724.064 1450.39 729.874 1450.39 Z" fill="#000000" fill-rule="nonzero" fill-opacity="1" /><path clip-path="url(#clip970)" d="M760.036 1454.1 Q756.425 1454.1 754.596 1457.66 Q752.79 1461.2 752.79 1468.33 Q752.79 1475.44 754.596 1479.01 Q756.425 1482.55 760.036 1482.55 Q763.67 1482.55 765.476 1479.01 Q767.304 1475.44 767.304 1468.33 Q767.304 1461.2 765.476 1457.66 Q763.67 1454.1 760.036 1454.1 M760.036 1450.39 Q765.846 1450.39 768.901 1455 Q771.98 1459.58 771.98 1468.33 Q771.98 1477.06 768.901 1481.67 Q765.846 1486.25 760.036 1486.25 Q754.226 1486.25 751.147 1481.67 Q748.091 1477.06 748.091 1468.33 Q748.091 1459.58 751.147 1455 Q754.226 1450.39 760.036 1450.39 Z" fill="#000000" fill-rule="nonzero" fill-opacity="1" /><path clip-path="url(#clip970)" d="M1046.46 1481.64 L1054.1 1481.64 L1054.1 1455.28 L1045.79 1456.95 L1045.79 1452.69 L1054.06 1451.02 L1058.73 1451.02 L1058.73 1481.64 L1066.37 1481.64 L1066.37 1485.58 L1046.46 1485.58 L1046.46 1481.64 Z" fill="#000000" fill-rule="nonzero" fill-opacity="1" /><path clip-path="url(#clip970)" d="M1075.86 1451.02 L1094.22 1451.02 L1094.22 1454.96 L1080.14 1454.96 L1080.14 1463.43 Q1081.16 1463.08 1082.18 1462.92 Q1083.2 1462.73 1084.22 1462.73 Q1090 1462.73 1093.38 1465.9 Q1096.76 1469.08 1096.76 1474.49 Q1096.76 1480.07 1093.29 1483.17 Q1089.82 1486.25 1083.5 1486.25 Q1081.32 1486.25 1079.06 1485.88 Q1076.81 1485.51 1074.4 1484.77 L1074.4 1480.07 Q1076.49 1481.2 1078.71 1481.76 Q1080.93 1482.32 1083.41 1482.32 Q1087.41 1482.32 1089.75 1480.21 Q1092.09 1478.1 1092.09 1474.49 Q1092.09 1470.88 1089.75 1468.77 Q1087.41 1466.67 1083.41 1466.67 Q1081.53 1466.67 1079.66 1467.08 Q1077.81 1467.5 1075.86 1468.38 L1075.86 1451.02 Z" fill="#000000" fill-rule="nonzero" fill-opacity="1" /><path clip-path="url(#clip970)" d="M1115.98 1454.1 Q1112.37 1454.1 1110.54 1457.66 Q1108.73 1461.2 1108.73 1468.33 Q1108.73 1475.44 1110.54 1479.01 Q1112.37 1482.55 1115.98 1482.55 Q1119.61 1482.55 1121.42 1479.01 Q1123.25 1475.44 1123.25 1468.33 Q1123.25 1461.2 1121.42 1457.66 Q1119.61 1454.1 1115.98 1454.1 M1115.98 1450.39 Q1121.79 1450.39 1124.84 1455 Q1127.92 1459.58 1127.92 1468.33 Q1127.92 1477.06 1124.84 1481.67 Q1121.79 1486.25 1115.98 1486.25 Q1110.17 1486.25 1107.09 1481.67 Q1104.03 1477.06 1104.03 1468.33 Q1104.03 1459.58 1107.09 1455 Q1110.17 1450.39 1115.98 1450.39 Z" fill="#000000" fill-rule="nonzero" fill-opacity="1" /><path clip-path="url(#clip970)" d="M1146.14 1454.1 Q1142.53 1454.1 1140.7 1457.66 Q1138.89 1461.2 1138.89 1468.33 Q1138.89 1475.44 1140.7 1479.01 Q1142.53 1482.55 1146.14 1482.55 Q1149.77 1482.55 1151.58 1479.01 Q1153.41 1475.44 1153.41 1468.33 Q1153.41 1461.2 1151.58 1457.66 Q1149.77 1454.1 1146.14 1454.1 M1146.14 1450.39 Q1151.95 1450.39 1155 1455 Q1158.08 1459.58 1158.08 1468.33 Q1158.08 1477.06 1155 1481.67 Q1151.95 1486.25 1146.14 1486.25 Q1140.33 1486.25 1137.25 1481.67 Q1134.19 1477.06 1134.19 1468.33 Q1134.19 1459.58 1137.25 1455 Q1140.33 1450.39 1146.14 1450.39 Z" fill="#000000" fill-rule="nonzero" fill-opacity="1" /><path clip-path="url(#clip970)" d="M1436.65 1481.64 L1452.97 1481.64 L1452.97 1485.58 L1431.03 1485.58 L1431.03 1481.64 Q1433.69 1478.89 1438.27 1474.26 Q1442.88 1469.61 1444.06 1468.27 Q1446.3 1465.74 1447.18 1464.01 Q1448.09 1462.25 1448.09 1460.56 Q1448.09 1457.8 1446.14 1456.07 Q1444.22 1454.33 1441.12 1454.33 Q1438.92 1454.33 1436.47 1455.09 Q1434.04 1455.86 1431.26 1457.41 L1431.26 1452.69 Q1434.08 1451.55 1436.54 1450.97 Q1438.99 1450.39 1441.03 1450.39 Q1446.4 1450.39 1449.59 1453.08 Q1452.79 1455.77 1452.79 1460.26 Q1452.79 1462.39 1451.98 1464.31 Q1451.19 1466.2 1449.08 1468.8 Q1448.5 1469.47 1445.4 1472.69 Q1442.3 1475.88 1436.65 1481.64 Z" fill="#000000" fill-rule="nonzero" fill-opacity="1" /><path clip-path="url(#clip970)" d="M1472.79 1454.1 Q1469.17 1454.1 1467.35 1457.66 Q1465.54 1461.2 1465.54 1468.33 Q1465.54 1475.44 1467.35 1479.01 Q1469.17 1482.55 1472.79 1482.55 Q1476.42 1482.55 1478.23 1479.01 Q1480.05 1475.44 1480.05 1468.33 Q1480.05 1461.2 1478.23 1457.66 Q1476.42 1454.1 1472.79 1454.1 M1472.79 1450.39 Q1478.6 1450.39 1481.65 1455 Q1484.73 1459.58 1484.73 1468.33 Q1484.73 1477.06 1481.65 1481.67 Q1478.6 1486.25 1472.79 1486.25 Q1466.98 1486.25 1463.9 1481.67 Q1460.84 1477.06 1460.84 1468.33 Q1460.84 1459.58 1463.9 1455 Q1466.98 1450.39 1472.79 1450.39 Z" fill="#000000" fill-rule="nonzero" fill-opacity="1" /><path clip-path="url(#clip970)" d="M1502.95 1454.1 Q1499.34 1454.1 1497.51 1457.66 Q1495.7 1461.2 1495.7 1468.33 Q1495.7 1475.44 1497.51 1479.01 Q1499.34 1482.55 1502.95 1482.55 Q1506.58 1482.55 1508.39 1479.01 Q1510.22 1475.44 1510.22 1468.33 Q1510.22 1461.2 1508.39 1457.66 Q1506.58 1454.1 1502.95 1454.1 M1502.95 1450.39 Q1508.76 1450.39 1511.81 1455 Q1514.89 1459.58 1514.89 1468.33 Q1514.89 1477.06 1511.81 1481.67 Q1508.76 1486.25 1502.95 1486.25 Q1497.14 1486.25 1494.06 1481.67 Q1491 1477.06 1491 1468.33 Q1491 1459.58 1494.06 1455 Q1497.14 1450.39 1502.95 1450.39 Z" fill="#000000" fill-rule="nonzero" fill-opacity="1" /><path clip-path="url(#clip970)" d="M1533.11 1454.1 Q1529.5 1454.1 1527.67 1457.66 Q1525.86 1461.2 1525.86 1468.33 Q1525.86 1475.44 1527.67 1479.01 Q1529.5 1482.55 1533.11 1482.55 Q1536.74 1482.55 1538.55 1479.01 Q1540.38 1475.44 1540.38 1468.33 Q1540.38 1461.2 1538.55 1457.66 Q1536.74 1454.1 1533.11 1454.1 M1533.11 1450.39 Q1538.92 1450.39 1541.98 1455 Q1545.05 1459.58 1545.05 1468.33 Q1545.05 1477.06 1541.98 1481.67 Q1538.92 1486.25 1533.11 1486.25 Q1527.3 1486.25 1524.22 1481.67 Q1521.16 1477.06 1521.16 1468.33 Q1521.16 1459.58 1524.22 1455 Q1527.3 1450.39 1533.11 1450.39 Z" fill="#000000" fill-rule="nonzero" fill-opacity="1" /><path clip-path="url(#clip970)" d="M1822.75 1481.64 L1839.07 1481.64 L1839.07 1485.58 L1817.13 1485.58 L1817.13 1481.64 Q1819.79 1478.89 1824.37 1474.26 Q1828.98 1469.61 1830.16 1468.27 Q1832.41 1465.74 1833.29 1464.01 Q1834.19 1462.25 1834.19 1460.56 Q1834.19 1457.8 1832.24 1456.07 Q1830.32 1454.33 1827.22 1454.33 Q1825.02 1454.33 1822.57 1455.09 Q1820.14 1455.86 1817.36 1457.41 L1817.36 1452.69 Q1820.18 1451.55 1822.64 1450.97 Q1825.09 1450.39 1827.13 1450.39 Q1832.5 1450.39 1835.69 1453.08 Q1838.89 1455.77 1838.89 1460.26 Q1838.89 1462.39 1838.08 1464.31 Q1837.29 1466.2 1835.18 1468.8 Q1834.61 1469.47 1831.5 1472.69 Q1828.4 1475.88 1822.75 1481.64 Z" fill="#000000" fill-rule="nonzero" fill-opacity="1" /><path clip-path="url(#clip970)" d="M1848.93 1451.02 L1867.29 1451.02 L1867.29 1454.96 L1853.22 1454.96 L1853.22 1463.43 Q1854.24 1463.08 1855.25 1462.92 Q1856.27 1462.73 1857.29 1462.73 Q1863.08 1462.73 1866.46 1465.9 Q1869.84 1469.08 1869.84 1474.49 Q1869.84 1480.07 1866.37 1483.17 Q1862.89 1486.25 1856.57 1486.25 Q1854.4 1486.25 1852.13 1485.88 Q1849.88 1485.51 1847.48 1484.77 L1847.48 1480.07 Q1849.56 1481.2 1851.78 1481.76 Q1854 1482.32 1856.48 1482.32 Q1860.49 1482.32 1862.82 1480.21 Q1865.16 1478.1 1865.16 1474.49 Q1865.16 1470.88 1862.82 1468.77 Q1860.49 1466.67 1856.48 1466.67 Q1854.61 1466.67 1852.73 1467.08 Q1850.88 1467.5 1848.93 1468.38 L1848.93 1451.02 Z" fill="#000000" fill-rule="nonzero" fill-opacity="1" /><path clip-path="url(#clip970)" d="M1889.05 1454.1 Q1885.44 1454.1 1883.61 1457.66 Q1881.8 1461.2 1881.8 1468.33 Q1881.8 1475.44 1883.61 1479.01 Q1885.44 1482.55 1889.05 1482.55 Q1892.68 1482.55 1894.49 1479.01 Q1896.32 1475.44 1896.32 1468.33 Q1896.32 1461.2 1894.49 1457.66 Q1892.68 1454.1 1889.05 1454.1 M1889.05 1450.39 Q1894.86 1450.39 1897.92 1455 Q1900.99 1459.58 1900.99 1468.33 Q1900.99 1477.06 1897.92 1481.67 Q1894.86 1486.25 1889.05 1486.25 Q1883.24 1486.25 1880.16 1481.67 Q1877.11 1477.06 1877.11 1468.33 Q1877.11 1459.58 1880.16 1455 Q1883.24 1450.39 1889.05 1450.39 Z" fill="#000000" fill-rule="nonzero" fill-opacity="1" /><path clip-path="url(#clip970)" d="M1919.21 1454.1 Q1915.6 1454.1 1913.77 1457.66 Q1911.97 1461.2 1911.97 1468.33 Q1911.97 1475.44 1913.77 1479.01 Q1915.6 1482.55 1919.21 1482.55 Q1922.85 1482.55 1924.65 1479.01 Q1926.48 1475.44 1926.48 1468.33 Q1926.48 1461.2 1924.65 1457.66 Q1922.85 1454.1 1919.21 1454.1 M1919.21 1450.39 Q1925.02 1450.39 1928.08 1455 Q1931.16 1459.58 1931.16 1468.33 Q1931.16 1477.06 1928.08 1481.67 Q1925.02 1486.25 1919.21 1486.25 Q1913.4 1486.25 1910.32 1481.67 Q1907.27 1477.06 1907.27 1468.33 Q1907.27 1459.58 1910.32 1455 Q1913.4 1450.39 1919.21 1450.39 Z" fill="#000000" fill-rule="nonzero" fill-opacity="1" /><path clip-path="url(#clip970)" d="M2218.93 1466.95 Q2222.28 1467.66 2224.16 1469.93 Q2226.06 1472.2 2226.06 1475.53 Q2226.06 1480.65 2222.54 1483.45 Q2219.02 1486.25 2212.54 1486.25 Q2210.36 1486.25 2208.05 1485.81 Q2205.76 1485.39 2203.3 1484.54 L2203.3 1480.02 Q2205.25 1481.16 2207.56 1481.74 Q2209.88 1482.32 2212.4 1482.32 Q2216.8 1482.32 2219.09 1480.58 Q2221.4 1478.84 2221.4 1475.53 Q2221.4 1472.48 2219.25 1470.77 Q2217.12 1469.03 2213.3 1469.03 L2209.27 1469.03 L2209.27 1465.19 L2213.49 1465.19 Q2216.94 1465.19 2218.76 1463.82 Q2220.59 1462.43 2220.59 1459.84 Q2220.59 1457.18 2218.69 1455.77 Q2216.82 1454.33 2213.3 1454.33 Q2211.38 1454.33 2209.18 1454.75 Q2206.98 1455.16 2204.34 1456.04 L2204.34 1451.88 Q2207.01 1451.14 2209.32 1450.77 Q2211.66 1450.39 2213.72 1450.39 Q2219.04 1450.39 2222.14 1452.83 Q2225.25 1455.23 2225.25 1459.35 Q2225.25 1462.22 2223.6 1464.21 Q2221.96 1466.18 2218.93 1466.95 Z" fill="#000000" fill-rule="nonzero" fill-opacity="1" /><path clip-path="url(#clip970)" d="M2244.92 1454.1 Q2241.31 1454.1 2239.48 1457.66 Q2237.68 1461.2 2237.68 1468.33 Q2237.68 1475.44 2239.48 1479.01 Q2241.31 1482.55 2244.92 1482.55 Q2248.56 1482.55 2250.36 1479.01 Q2252.19 1475.44 2252.19 1468.33 Q2252.19 1461.2 2250.36 1457.66 Q2248.56 1454.1 2244.92 1454.1 M2244.92 1450.39 Q2250.73 1450.39 2253.79 1455 Q2256.87 1459.58 2256.87 1468.33 Q2256.87 1477.06 2253.79 1481.67 Q2250.73 1486.25 2244.92 1486.25 Q2239.11 1486.25 2236.03 1481.67 Q2232.98 1477.06 2232.98 1468.33 Q2232.98 1459.58 2236.03 1455 Q2239.11 1450.39 2244.92 1450.39 Z" fill="#000000" fill-rule="nonzero" fill-opacity="1" /><path clip-path="url(#clip970)" d="M2275.08 1454.1 Q2271.47 1454.1 2269.64 1457.66 Q2267.84 1461.2 2267.84 1468.33 Q2267.84 1475.44 2269.64 1479.01 Q2271.47 1482.55 2275.08 1482.55 Q2278.72 1482.55 2280.52 1479.01 Q2282.35 1475.44 2282.35 1468.33 Q2282.35 1461.2 2280.52 1457.66 Q2278.72 1454.1 2275.08 1454.1 M2275.08 1450.39 Q2280.89 1450.39 2283.95 1455 Q2287.03 1459.58 2287.03 1468.33 Q2287.03 1477.06 2283.95 1481.67 Q2280.89 1486.25 2275.08 1486.25 Q2269.27 1486.25 2266.19 1481.67 Q2263.14 1477.06 2263.14 1468.33 Q2263.14 1459.58 2266.19 1455 Q2269.27 1450.39 2275.08 1450.39 Z" fill="#000000" fill-rule="nonzero" fill-opacity="1" /><path clip-path="url(#clip970)" d="M2305.25 1454.1 Q2301.63 1454.1 2299.81 1457.66 Q2298 1461.2 2298 1468.33 Q2298 1475.44 2299.81 1479.01 Q2301.63 1482.55 2305.25 1482.55 Q2308.88 1482.55 2310.69 1479.01 Q2312.51 1475.44 2312.51 1468.33 Q2312.51 1461.2 2310.69 1457.66 Q2308.88 1454.1 2305.25 1454.1 M2305.25 1450.39 Q2311.06 1450.39 2314.11 1455 Q2317.19 1459.58 2317.19 1468.33 Q2317.19 1477.06 2314.11 1481.67 Q2311.06 1486.25 2305.25 1486.25 Q2299.44 1486.25 2296.36 1481.67 Q2293.3 1477.06 2293.3 1468.33 Q2293.3 1459.58 2296.36 1455 Q2299.44 1450.39 2305.25 1450.39 Z" fill="#000000" fill-rule="nonzero" fill-opacity="1" /><path clip-path="url(#clip970)" d="M952.117 1525.81 L952.117 1562.76 L959.883 1562.76 Q969.718 1562.76 974.27 1558.3 Q978.853 1553.85 978.853 1544.24 Q978.853 1534.69 974.27 1530.26 Q969.718 1525.81 959.883 1525.81 L952.117 1525.81 M945.688 1520.52 L958.897 1520.52 Q972.71 1520.52 979.172 1526.28 Q985.633 1532.01 985.633 1544.24 Q985.633 1556.52 979.14 1562.28 Q972.647 1568.04 958.897 1568.04 L945.688 1568.04 L945.688 1520.52 Z" fill="#000000" fill-rule="nonzero" fill-opacity="1" /><path clip-path="url(#clip970)" d="M1026.12 1548.76 L1026.12 1551.62 L999.192 1551.62 Q999.574 1557.67 1002.82 1560.85 Q1006.1 1564 1011.92 1564 Q1015.3 1564 1018.45 1563.17 Q1021.63 1562.35 1024.75 1560.69 L1024.75 1566.23 Q1021.6 1567.57 1018.29 1568.27 Q1014.98 1568.97 1011.57 1568.97 Q1003.04 1568.97 998.046 1564 Q993.081 1559.04 993.081 1550.57 Q993.081 1541.82 997.791 1536.69 Q1002.53 1531.54 1010.55 1531.54 Q1017.75 1531.54 1021.92 1536.18 Q1026.12 1540.8 1026.12 1548.76 M1020.26 1547.04 Q1020.2 1542.23 1017.56 1539.37 Q1014.95 1536.5 1010.62 1536.5 Q1005.72 1536.5 1002.76 1539.27 Q999.828 1542.04 999.383 1547.07 L1020.26 1547.04 Z" fill="#000000" fill-rule="nonzero" fill-opacity="1" /><path clip-path="url(#clip970)" d="M1059.19 1549.81 Q1059.19 1543.44 1056.55 1539.94 Q1053.94 1536.44 1049.19 1536.44 Q1044.48 1536.44 1041.84 1539.94 Q1039.23 1543.44 1039.23 1549.81 Q1039.23 1556.14 1041.84 1559.64 Q1044.48 1563.14 1049.19 1563.14 Q1053.94 1563.14 1056.55 1559.64 Q1059.19 1556.14 1059.19 1549.81 M1065.04 1563.62 Q1065.04 1572.72 1061 1577.15 Q1056.96 1581.6 1048.62 1581.6 Q1045.53 1581.6 1042.8 1581.13 Q1040.06 1580.68 1037.48 1579.72 L1037.48 1574.03 Q1040.06 1575.43 1042.57 1576.1 Q1045.09 1576.76 1047.7 1576.76 Q1053.46 1576.76 1056.32 1573.74 Q1059.19 1570.75 1059.19 1564.67 L1059.19 1561.77 Q1057.37 1564.92 1054.54 1566.48 Q1051.71 1568.04 1047.76 1568.04 Q1041.21 1568.04 1037.19 1563.05 Q1033.18 1558.05 1033.18 1549.81 Q1033.18 1541.53 1037.19 1536.53 Q1041.21 1531.54 1047.76 1531.54 Q1051.71 1531.54 1054.54 1533.1 Q1057.37 1534.66 1059.19 1537.81 L1059.19 1532.4 L1065.04 1532.4 L1065.04 1563.62 Z" fill="#000000" fill-rule="nonzero" fill-opacity="1" /><path clip-path="url(#clip970)" d="M1097.76 1537.87 Q1096.78 1537.3 1095.6 1537.04 Q1094.45 1536.76 1093.05 1536.76 Q1088.09 1536.76 1085.42 1540 Q1082.77 1543.22 1082.77 1549.27 L1082.77 1568.04 L1076.89 1568.04 L1076.89 1532.4 L1082.77 1532.4 L1082.77 1537.93 Q1084.62 1534.69 1087.58 1533.13 Q1090.54 1531.54 1094.77 1531.54 Q1095.38 1531.54 1096.11 1531.63 Q1096.84 1531.7 1097.73 1531.85 L1097.76 1537.87 Z" fill="#000000" fill-rule="nonzero" fill-opacity="1" /><path clip-path="url(#clip970)" d="M1132.97 1548.76 L1132.97 1551.62 L1106.04 1551.62 Q1106.42 1557.67 1109.67 1560.85 Q1112.95 1564 1118.77 1564 Q1122.15 1564 1125.3 1563.17 Q1128.48 1562.35 1131.6 1560.69 L1131.6 1566.23 Q1128.45 1567.57 1125.14 1568.27 Q1121.83 1568.97 1118.42 1568.97 Q1109.89 1568.97 1104.89 1564 Q1099.93 1559.04 1099.93 1550.57 Q1099.93 1541.82 1104.64 1536.69 Q1109.38 1531.54 1117.4 1531.54 Q1124.6 1531.54 1128.77 1536.18 Q1132.97 1540.8 1132.97 1548.76 M1127.11 1547.04 Q1127.05 1542.23 1124.41 1539.37 Q1121.8 1536.5 1117.47 1536.5 Q1112.56 1536.5 1109.6 1539.27 Q1106.68 1542.04 1106.23 1547.07 L1127.11 1547.04 Z" fill="#000000" fill-rule="nonzero" fill-opacity="1" /><path clip-path="url(#clip970)" d="M1173.07 1548.76 L1173.07 1551.62 L1146.14 1551.62 Q1146.53 1557.67 1149.77 1560.85 Q1153.05 1564 1158.88 1564 Q1162.25 1564 1165.4 1563.17 Q1168.58 1562.35 1171.7 1560.69 L1171.7 1566.23 Q1168.55 1567.57 1165.24 1568.27 Q1161.93 1568.97 1158.53 1568.97 Q1150 1568.97 1145 1564 Q1140.03 1559.04 1140.03 1550.57 Q1140.03 1541.82 1144.74 1536.69 Q1149.49 1531.54 1157.51 1531.54 Q1164.7 1531.54 1168.87 1536.18 Q1173.07 1540.8 1173.07 1548.76 M1167.21 1547.04 Q1167.15 1542.23 1164.51 1539.37 Q1161.9 1536.5 1157.57 1536.5 Q1152.67 1536.5 1149.71 1539.27 Q1146.78 1542.04 1146.33 1547.07 L1167.21 1547.04 Z" fill="#000000" fill-rule="nonzero" fill-opacity="1" /><path clip-path="url(#clip970)" d="M1205.41 1533.45 L1205.41 1538.98 Q1202.93 1537.71 1200.25 1537.07 Q1197.58 1536.44 1194.71 1536.44 Q1190.35 1536.44 1188.16 1537.77 Q1185.99 1539.11 1185.99 1541.79 Q1185.99 1543.82 1187.55 1545 Q1189.11 1546.15 1193.82 1547.2 L1195.83 1547.64 Q1202.07 1548.98 1204.68 1551.43 Q1207.32 1553.85 1207.32 1558.21 Q1207.32 1563.17 1203.37 1566.07 Q1199.46 1568.97 1192.58 1568.97 Q1189.72 1568.97 1186.6 1568.39 Q1183.51 1567.85 1180.07 1566.74 L1180.07 1560.69 Q1183.32 1562.38 1186.47 1563.24 Q1189.62 1564.07 1192.71 1564.07 Q1196.85 1564.07 1199.07 1562.66 Q1201.3 1561.23 1201.3 1558.65 Q1201.3 1556.27 1199.68 1554.99 Q1198.09 1553.72 1192.65 1552.54 L1190.61 1552.07 Q1185.17 1550.92 1182.75 1548.56 Q1180.33 1546.18 1180.33 1542.04 Q1180.33 1537.01 1183.89 1534.27 Q1187.46 1531.54 1194.01 1531.54 Q1197.26 1531.54 1200.13 1532.01 Q1202.99 1532.49 1205.41 1533.45 Z" fill="#000000" fill-rule="nonzero" fill-opacity="1" /><path clip-path="url(#clip970)" d="M1251.18 1536.5 Q1246.47 1536.5 1243.73 1540.19 Q1240.99 1543.85 1240.99 1550.25 Q1240.99 1556.65 1243.7 1560.34 Q1246.44 1564 1251.18 1564 Q1255.86 1564 1258.59 1560.31 Q1261.33 1556.62 1261.33 1550.25 Q1261.33 1543.92 1258.59 1540.23 Q1255.86 1536.5 1251.18 1536.5 M1251.18 1531.54 Q1258.82 1531.54 1263.18 1536.5 Q1267.54 1541.47 1267.54 1550.25 Q1267.54 1559 1263.18 1564 Q1258.82 1568.97 1251.18 1568.97 Q1243.51 1568.97 1239.15 1564 Q1234.82 1559 1234.82 1550.25 Q1234.82 1541.47 1239.15 1536.5 Q1243.51 1531.54 1251.18 1531.54 Z" fill="#000000" fill-rule="nonzero" fill-opacity="1" /><path clip-path="url(#clip970)" d="M1295.29 1518.52 L1295.29 1523.39 L1289.69 1523.39 Q1286.54 1523.39 1285.3 1524.66 Q1284.09 1525.93 1284.09 1529.24 L1284.09 1532.4 L1293.73 1532.4 L1293.73 1536.95 L1284.09 1536.95 L1284.09 1568.04 L1278.2 1568.04 L1278.2 1536.95 L1272.6 1536.95 L1272.6 1532.4 L1278.2 1532.4 L1278.2 1529.91 Q1278.2 1523.96 1280.97 1521.26 Q1283.74 1518.52 1289.75 1518.52 L1295.29 1518.52 Z" fill="#000000" fill-rule="nonzero" fill-opacity="1" /><path clip-path="url(#clip970)" d="M1338.96 1518.52 L1338.96 1523.39 L1333.36 1523.39 Q1330.21 1523.39 1328.97 1524.66 Q1327.76 1525.93 1327.76 1529.24 L1327.76 1532.4 L1337.4 1532.4 L1337.4 1536.95 L1327.76 1536.95 L1327.76 1568.04 L1321.87 1568.04 L1321.87 1536.95 L1316.27 1536.95 L1316.27 1532.4 L1321.87 1532.4 L1321.87 1529.91 Q1321.87 1523.96 1324.64 1521.26 Q1327.41 1518.52 1333.42 1518.52 L1338.96 1518.52 Z" fill="#000000" fill-rule="nonzero" fill-opacity="1" /><path clip-path="url(#clip970)" d="M1364.52 1537.87 Q1363.53 1537.3 1362.36 1537.04 Q1361.21 1536.76 1359.81 1536.76 Q1354.84 1536.76 1352.17 1540 Q1349.53 1543.22 1349.53 1549.27 L1349.53 1568.04 L1343.64 1568.04 L1343.64 1532.4 L1349.53 1532.4 L1349.53 1537.93 Q1351.37 1534.69 1354.33 1533.13 Q1357.29 1531.54 1361.53 1531.54 Q1362.13 1531.54 1362.86 1531.63 Q1363.6 1531.7 1364.49 1531.85 L1364.52 1537.87 Z" fill="#000000" fill-rule="nonzero" fill-opacity="1" /><path clip-path="url(#clip970)" d="M1399.72 1548.76 L1399.72 1551.62 L1372.79 1551.62 Q1373.18 1557.67 1376.42 1560.85 Q1379.7 1564 1385.53 1564 Q1388.9 1564 1392.05 1563.17 Q1395.23 1562.35 1398.35 1560.69 L1398.35 1566.23 Q1395.2 1567.57 1391.89 1568.27 Q1388.58 1568.97 1385.18 1568.97 Q1376.65 1568.97 1371.65 1564 Q1366.68 1559.04 1366.68 1550.57 Q1366.68 1541.82 1371.39 1536.69 Q1376.14 1531.54 1384.16 1531.54 Q1391.35 1531.54 1395.52 1536.18 Q1399.72 1540.8 1399.72 1548.76 M1393.87 1547.04 Q1393.8 1542.23 1391.16 1539.37 Q1388.55 1536.5 1384.22 1536.5 Q1379.32 1536.5 1376.36 1539.27 Q1373.43 1542.04 1372.99 1547.07 L1393.87 1547.04 Z" fill="#000000" fill-rule="nonzero" fill-opacity="1" /><path clip-path="url(#clip970)" d="M1439.83 1548.76 L1439.83 1551.62 L1412.9 1551.62 Q1413.28 1557.67 1416.53 1560.85 Q1419.81 1564 1425.63 1564 Q1429 1564 1432.16 1563.17 Q1435.34 1562.35 1438.46 1560.69 L1438.46 1566.23 Q1435.31 1567.57 1432 1568.27 Q1428.69 1568.97 1425.28 1568.97 Q1416.75 1568.97 1411.75 1564 Q1406.79 1559.04 1406.79 1550.57 Q1406.79 1541.82 1411.5 1536.69 Q1416.24 1531.54 1424.26 1531.54 Q1431.45 1531.54 1435.62 1536.18 Q1439.83 1540.8 1439.83 1548.76 M1433.97 1547.04 Q1433.91 1542.23 1431.26 1539.37 Q1428.65 1536.5 1424.33 1536.5 Q1419.42 1536.5 1416.46 1539.27 Q1413.54 1542.04 1413.09 1547.07 L1433.97 1547.04 Z" fill="#000000" fill-rule="nonzero" fill-opacity="1" /><path clip-path="url(#clip970)" d="M1472.9 1537.81 L1472.9 1518.52 L1478.75 1518.52 L1478.75 1568.04 L1472.9 1568.04 L1472.9 1562.7 Q1471.05 1565.88 1468.22 1567.44 Q1465.42 1568.97 1461.47 1568.97 Q1455.01 1568.97 1450.93 1563.81 Q1446.89 1558.65 1446.89 1550.25 Q1446.89 1541.85 1450.93 1536.69 Q1455.01 1531.54 1461.47 1531.54 Q1465.42 1531.54 1468.22 1533.1 Q1471.05 1534.62 1472.9 1537.81 M1452.94 1550.25 Q1452.94 1556.71 1455.58 1560.4 Q1458.25 1564.07 1462.9 1564.07 Q1467.55 1564.07 1470.22 1560.4 Q1472.9 1556.71 1472.9 1550.25 Q1472.9 1543.79 1470.22 1540.13 Q1467.55 1536.44 1462.9 1536.44 Q1458.25 1536.44 1455.58 1540.13 Q1452.94 1543.79 1452.94 1550.25 Z" fill="#000000" fill-rule="nonzero" fill-opacity="1" /><path clip-path="url(#clip970)" d="M1504.63 1536.5 Q1499.92 1536.5 1497.18 1540.19 Q1494.44 1543.85 1494.44 1550.25 Q1494.44 1556.65 1497.15 1560.34 Q1499.89 1564 1504.63 1564 Q1509.31 1564 1512.04 1560.31 Q1514.78 1556.62 1514.78 1550.25 Q1514.78 1543.92 1512.04 1540.23 Q1509.31 1536.5 1504.63 1536.5 M1504.63 1531.54 Q1512.27 1531.54 1516.63 1536.5 Q1520.99 1541.47 1520.99 1550.25 Q1520.99 1559 1516.63 1564 Q1512.27 1568.97 1504.63 1568.97 Q1496.96 1568.97 1492.6 1564 Q1488.27 1559 1488.27 1550.25 Q1488.27 1541.47 1492.6 1536.5 Q1496.96 1531.54 1504.63 1531.54 Z" fill="#000000" fill-rule="nonzero" fill-opacity="1" /><path clip-path="url(#clip970)" d="M1558.45 1539.24 Q1560.65 1535.29 1563.7 1533.41 Q1566.76 1531.54 1570.9 1531.54 Q1576.47 1531.54 1579.49 1535.45 Q1582.51 1539.33 1582.51 1546.53 L1582.51 1568.04 L1576.62 1568.04 L1576.62 1546.72 Q1576.62 1541.59 1574.81 1539.11 Q1573 1536.63 1569.27 1536.63 Q1564.72 1536.63 1562.08 1539.65 Q1559.44 1542.68 1559.44 1547.9 L1559.44 1568.04 L1553.55 1568.04 L1553.55 1546.72 Q1553.55 1541.56 1551.74 1539.11 Q1549.92 1536.63 1546.13 1536.63 Q1541.65 1536.63 1539 1539.68 Q1536.36 1542.71 1536.36 1547.9 L1536.36 1568.04 L1530.47 1568.04 L1530.47 1532.4 L1536.36 1532.4 L1536.36 1537.93 Q1538.37 1534.66 1541.17 1533.1 Q1543.97 1531.54 1547.82 1531.54 Q1551.7 1531.54 1554.41 1533.51 Q1557.15 1535.48 1558.45 1539.24 Z" fill="#000000" fill-rule="nonzero" fill-opacity="1" /><polyline clip-path="url(#clip972)" style="stroke:#000000; stroke-linecap:round; stroke-linejoin:round; stroke-width:2; stroke-opacity:0.1; fill:none" points="175.445,1156.8 2352.76,1156.8 "/>
<polyline clip-path="url(#clip972)" style="stroke:#000000; stroke-linecap:round; stroke-linejoin:round; stroke-width:2; stroke-opacity:0.1; fill:none" points="175.445,860.774 2352.76,860.774 "/>
<polyline clip-path="url(#clip972)" style="stroke:#000000; stroke-linecap:round; stroke-linejoin:round; stroke-width:2; stroke-opacity:0.1; fill:none" points="175.445,564.746 2352.76,564.746 "/>
<polyline clip-path="url(#clip972)" style="stroke:#000000; stroke-linecap:round; stroke-linejoin:round; stroke-width:2; stroke-opacity:0.1; fill:none" points="175.445,268.719 2352.76,268.719 "/>
<polyline clip-path="url(#clip970)" style="stroke:#000000; stroke-linecap:round; stroke-linejoin:round; stroke-width:4; stroke-opacity:1; fill:none" points="175.445,1423.18 175.445,47.2441 "/>
<polyline clip-path="url(#clip970)" style="stroke:#000000; stroke-linecap:round; stroke-linejoin:round; stroke-width:4; stroke-opacity:1; fill:none" points="175.445,1156.8 194.343,1156.8 "/>
<polyline clip-path="url(#clip970)" style="stroke:#000000; stroke-linecap:round; stroke-linejoin:round; stroke-width:4; stroke-opacity:1; fill:none" points="175.445,860.774 194.343,860.774 "/>
<polyline clip-path="url(#clip970)" style="stroke:#000000; stroke-linecap:round; stroke-linejoin:round; stroke-width:4; stroke-opacity:1; fill:none" points="175.445,564.746 194.343,564.746 "/>
<polyline clip-path="url(#clip970)" style="stroke:#000000; stroke-linecap:round; stroke-linejoin:round; stroke-width:4; stroke-opacity:1; fill:none" points="175.445,268.719 194.343,268.719 "/>
<path clip-path="url(#clip970)" d="M123.126 1170.15 L139.445 1170.15 L139.445 1174.08 L117.501 1174.08 L117.501 1170.15 Q120.163 1167.39 124.746 1162.76 Q129.353 1158.11 130.533 1156.77 Q132.779 1154.24 133.658 1152.51 Q134.561 1150.75 134.561 1149.06 Q134.561 1146.3 132.617 1144.57 Q130.695 1142.83 127.593 1142.83 Q125.394 1142.83 122.941 1143.6 Q120.51 1144.36 117.732 1145.91 L117.732 1141.19 Q120.556 1140.05 123.01 1139.47 Q125.464 1138.9 127.501 1138.9 Q132.871 1138.9 136.066 1141.58 Q139.26 1144.27 139.26 1148.76 Q139.26 1150.89 138.45 1152.81 Q137.663 1154.71 135.556 1157.3 Q134.978 1157.97 131.876 1161.19 Q128.774 1164.38 123.126 1170.15 Z" fill="#000000" fill-rule="nonzero" fill-opacity="1" /><path clip-path="url(#clip970)" d="M129.862 847.568 L118.056 866.017 L129.862 866.017 L129.862 847.568 M128.635 843.494 L134.515 843.494 L134.515 866.017 L139.445 866.017 L139.445 869.906 L134.515 869.906 L134.515 878.054 L129.862 878.054 L129.862 869.906 L114.26 869.906 L114.26 865.392 L128.635 843.494 Z" fill="#000000" fill-rule="nonzero" fill-opacity="1" /><path clip-path="url(#clip970)" d="M127.917 562.883 Q124.769 562.883 122.918 565.036 Q121.089 567.188 121.089 570.938 Q121.089 574.665 122.918 576.841 Q124.769 578.994 127.917 578.994 Q131.066 578.994 132.894 576.841 Q134.746 574.665 134.746 570.938 Q134.746 567.188 132.894 565.036 Q131.066 562.883 127.917 562.883 M137.2 548.23 L137.2 552.489 Q135.441 551.656 133.635 551.216 Q131.853 550.777 130.093 550.777 Q125.464 550.777 123.01 553.902 Q120.58 557.026 120.232 563.346 Q121.598 561.332 123.658 560.267 Q125.718 559.179 128.195 559.179 Q133.404 559.179 136.413 562.351 Q139.445 565.499 139.445 570.938 Q139.445 576.263 136.297 579.48 Q133.149 582.698 127.917 582.698 Q121.922 582.698 118.751 578.114 Q115.58 573.508 115.58 564.781 Q115.58 556.587 119.468 551.726 Q123.357 546.841 129.908 546.841 Q131.667 546.841 133.45 547.189 Q135.255 547.536 137.2 548.23 Z" fill="#000000" fill-rule="nonzero" fill-opacity="1" /><path clip-path="url(#clip970)" d="M127.593 269.587 Q124.26 269.587 122.339 271.369 Q120.441 273.152 120.441 276.277 Q120.441 279.402 122.339 281.184 Q124.26 282.967 127.593 282.967 Q130.927 282.967 132.848 281.184 Q134.769 279.379 134.769 276.277 Q134.769 273.152 132.848 271.369 Q130.95 269.587 127.593 269.587 M122.918 267.596 Q119.908 266.856 118.218 264.795 Q116.552 262.735 116.552 259.772 Q116.552 255.629 119.492 253.221 Q122.455 250.814 127.593 250.814 Q132.755 250.814 135.695 253.221 Q138.635 255.629 138.635 259.772 Q138.635 262.735 136.945 264.795 Q135.279 266.856 132.292 267.596 Q135.672 268.383 137.547 270.675 Q139.445 272.967 139.445 276.277 Q139.445 281.3 136.367 283.985 Q133.311 286.67 127.593 286.67 Q121.876 286.67 118.797 283.985 Q115.742 281.3 115.742 276.277 Q115.742 272.967 117.64 270.675 Q119.538 268.383 122.918 267.596 M121.205 260.212 Q121.205 262.897 122.871 264.402 Q124.561 265.906 127.593 265.906 Q130.603 265.906 132.292 264.402 Q134.005 262.897 134.005 260.212 Q134.005 257.527 132.292 256.022 Q130.603 254.518 127.593 254.518 Q124.561 254.518 122.871 256.022 Q121.205 257.527 121.205 260.212 Z" fill="#000000" fill-rule="nonzero" fill-opacity="1" /><path clip-path="url(#clip970)" d="M18.0438 1010.05 L24.314 1010.05 Q22.5634 1013.71 21.704 1016.96 Q20.8447 1020.2 20.8447 1023.23 Q20.8447 1028.48 22.8817 1031.34 Q24.9187 1034.18 28.6745 1034.18 Q31.8255 1034.18 33.4488 1032.3 Q35.0402 1030.39 36.0269 1025.11 L36.8226 1021.22 Q38.1912 1014.03 41.6605 1010.62 Q45.098 1007.19 50.8908 1007.19 Q57.7976 1007.19 61.3624 1011.83 Q64.9272 1016.45 64.9272 1025.39 Q64.9272 1028.77 64.1633 1032.59 Q63.3994 1036.37 61.9035 1040.45 L55.2831 1040.45 Q57.4793 1036.53 58.5933 1032.78 Q59.7073 1029.02 59.7073 1025.39 Q59.7073 1019.89 57.543 1016.89 Q55.3786 1013.9 51.3682 1013.9 Q47.8671 1013.9 45.8937 1016.07 Q43.9204 1018.2 42.9337 1023.1 L42.1698 1027.02 Q40.7375 1034.21 37.682 1037.42 Q34.6264 1040.64 29.1837 1040.64 Q22.8817 1040.64 19.2532 1036.21 Q15.6248 1031.76 15.6248 1023.96 Q15.6248 1020.62 16.2295 1017.15 Q16.8343 1013.68 18.0438 1010.05 Z" fill="#000000" fill-rule="nonzero" fill-opacity="1" /><path clip-path="url(#clip970)" d="M28.3562 997.415 L28.3562 991.559 L64.0042 991.559 L64.0042 997.415 L28.3562 997.415 M14.479 997.415 L14.479 991.559 L21.895 991.559 L21.895 997.415 L14.479 997.415 Z" fill="#000000" fill-rule="nonzero" fill-opacity="1" /><path clip-path="url(#clip970)" d="M35.1993 951.551 Q31.2526 949.354 29.3747 946.299 Q27.4968 943.243 27.4968 939.106 Q27.4968 933.536 31.4117 930.512 Q35.2948 927.488 42.4881 927.488 L64.0042 927.488 L64.0042 933.376 L42.679 933.376 Q37.5546 933.376 35.072 935.191 Q32.5894 937.005 32.5894 940.729 Q32.5894 945.28 35.6131 947.922 Q38.6368 950.564 43.8567 950.564 L64.0042 950.564 L64.0042 956.452 L42.679 956.452 Q37.5228 956.452 35.072 958.266 Q32.5894 960.081 32.5894 963.868 Q32.5894 968.356 35.6449 970.998 Q38.6686 973.64 43.8567 973.64 L64.0042 973.64 L64.0042 979.528 L28.3562 979.528 L28.3562 973.64 L33.8944 973.64 Q30.616 971.634 29.0564 968.833 Q27.4968 966.032 27.4968 962.181 Q27.4968 958.298 29.4702 955.593 Q31.4436 952.855 35.1993 951.551 Z" fill="#000000" fill-rule="nonzero" fill-opacity="1" /><path clip-path="url(#clip970)" d="M49.9359 916.412 L28.3562 916.412 L28.3562 910.555 L49.7131 910.555 Q54.7739 910.555 57.3202 908.582 Q59.8346 906.609 59.8346 902.662 Q59.8346 897.919 56.8109 895.182 Q53.7872 892.413 48.5673 892.413 L28.3562 892.413 L28.3562 886.557 L64.0042 886.557 L64.0042 892.413 L58.5296 892.413 Q61.7762 894.546 63.3676 897.378 Q64.9272 900.179 64.9272 903.903 Q64.9272 910.046 61.1078 913.229 Q57.2883 916.412 49.9359 916.412 M27.4968 901.675 L27.4968 901.675 Z" fill="#000000" fill-rule="nonzero" fill-opacity="1" /><path clip-path="url(#clip970)" d="M14.479 874.494 L14.479 868.637 L64.0042 868.637 L64.0042 874.494 L14.479 874.494 Z" fill="#000000" fill-rule="nonzero" fill-opacity="1" /><path clip-path="url(#clip970)" d="M46.0847 840.182 Q46.0847 847.28 47.7079 850.017 Q49.3312 852.755 53.2461 852.755 Q56.3653 852.755 58.2114 850.718 Q60.0256 848.649 60.0256 845.116 Q60.0256 840.246 56.5881 837.318 Q53.1188 834.358 47.3897 834.358 L46.0847 834.358 L46.0847 840.182 M43.6657 828.501 L64.0042 828.501 L64.0042 834.358 L58.5933 834.358 Q61.8398 836.363 63.3994 839.355 Q64.9272 842.347 64.9272 846.675 Q64.9272 852.15 61.8716 855.397 Q58.7843 858.611 53.6281 858.611 Q47.6125 858.611 44.5569 854.601 Q41.5014 850.559 41.5014 842.57 L41.5014 834.358 L40.9285 834.358 Q36.8862 834.358 34.6901 837.031 Q32.4621 839.673 32.4621 844.479 Q32.4621 847.535 33.1941 850.431 Q33.9262 853.328 35.3903 856.001 L29.9795 856.001 Q28.7381 852.787 28.1334 849.763 Q27.4968 846.739 27.4968 843.875 Q27.4968 836.14 31.5072 832.321 Q35.5176 828.501 43.6657 828.501 Z" fill="#000000" fill-rule="nonzero" fill-opacity="1" /><path clip-path="url(#clip970)" d="M18.2347 810.646 L28.3562 810.646 L28.3562 798.583 L32.9077 798.583 L32.9077 810.646 L52.2594 810.646 Q56.6199 810.646 57.8613 809.468 Q59.1026 808.258 59.1026 804.598 L59.1026 798.583 L64.0042 798.583 L64.0042 804.598 Q64.0042 811.378 61.4897 813.956 Q58.9434 816.534 52.2594 816.534 L32.9077 816.534 L32.9077 820.831 L28.3562 820.831 L28.3562 816.534 L18.2347 816.534 L18.2347 810.646 Z" fill="#000000" fill-rule="nonzero" fill-opacity="1" /><path clip-path="url(#clip970)" d="M28.3562 790.88 L28.3562 785.024 L64.0042 785.024 L64.0042 790.88 L28.3562 790.88 M14.479 790.88 L14.479 785.024 L21.895 785.024 L21.895 790.88 L14.479 790.88 Z" fill="#000000" fill-rule="nonzero" fill-opacity="1" /><path clip-path="url(#clip970)" d="M32.4621 758.956 Q32.4621 763.667 36.1542 766.404 Q39.8145 769.141 46.212 769.141 Q52.6095 769.141 56.3017 766.436 Q59.9619 763.699 59.9619 758.956 Q59.9619 754.277 56.2698 751.54 Q52.5777 748.803 46.212 748.803 Q39.8781 748.803 36.186 751.54 Q32.4621 754.277 32.4621 758.956 M27.4968 758.956 Q27.4968 751.317 32.4621 746.957 Q37.4273 742.596 46.212 742.596 Q54.9649 742.596 59.9619 746.957 Q64.9272 751.317 64.9272 758.956 Q64.9272 766.627 59.9619 770.987 Q54.9649 775.316 46.212 775.316 Q37.4273 775.316 32.4621 770.987 Q27.4968 766.627 27.4968 758.956 Z" fill="#000000" fill-rule="nonzero" fill-opacity="1" /><path clip-path="url(#clip970)" d="M42.4881 703.256 L64.0042 703.256 L64.0042 709.113 L42.679 709.113 Q37.6183 709.113 35.1038 711.086 Q32.5894 713.059 32.5894 717.006 Q32.5894 721.748 35.6131 724.486 Q38.6368 727.223 43.8567 727.223 L64.0042 727.223 L64.0042 733.111 L28.3562 733.111 L28.3562 727.223 L33.8944 727.223 Q30.6797 725.122 29.0883 722.29 Q27.4968 719.425 27.4968 715.701 Q27.4968 709.558 31.3163 706.407 Q35.1038 703.256 42.4881 703.256 Z" fill="#000000" fill-rule="nonzero" fill-opacity="1" /><path clip-path="url(#clip970)" d="M18.2347 665.062 L28.3562 665.062 L28.3562 652.999 L32.9077 652.999 L32.9077 665.062 L52.2594 665.062 Q56.6199 665.062 57.8613 663.884 Q59.1026 662.675 59.1026 659.014 L59.1026 652.999 L64.0042 652.999 L64.0042 659.014 Q64.0042 665.794 61.4897 668.372 Q58.9434 670.95 52.2594 670.95 L32.9077 670.95 L32.9077 675.247 L28.3562 675.247 L28.3562 670.95 L18.2347 670.95 L18.2347 665.062 Z" fill="#000000" fill-rule="nonzero" fill-opacity="1" /><path clip-path="url(#clip970)" d="M28.3562 645.296 L28.3562 639.44 L64.0042 639.44 L64.0042 645.296 L28.3562 645.296 M14.479 645.296 L14.479 639.44 L21.895 639.44 L21.895 645.296 L14.479 645.296 Z" fill="#000000" fill-rule="nonzero" fill-opacity="1" /><path clip-path="url(#clip970)" d="M35.1993 599.431 Q31.2526 597.235 29.3747 594.18 Q27.4968 591.124 27.4968 586.986 Q27.4968 581.416 31.4117 578.393 Q35.2948 575.369 42.4881 575.369 L64.0042 575.369 L64.0042 581.257 L42.679 581.257 Q37.5546 581.257 35.072 583.072 Q32.5894 584.886 32.5894 588.61 Q32.5894 593.161 35.6131 595.803 Q38.6368 598.445 43.8567 598.445 L64.0042 598.445 L64.0042 604.333 L42.679 604.333 Q37.5228 604.333 35.072 606.147 Q32.5894 607.961 32.5894 611.749 Q32.5894 616.237 35.6449 618.879 Q38.6686 621.52 43.8567 621.52 L64.0042 621.52 L64.0042 627.409 L28.3562 627.409 L28.3562 621.52 L33.8944 621.52 Q30.616 619.515 29.0564 616.714 Q27.4968 613.913 27.4968 610.062 Q27.4968 606.179 29.4702 603.474 Q31.4436 600.736 35.1993 599.431 Z" fill="#000000" fill-rule="nonzero" fill-opacity="1" /><path clip-path="url(#clip970)" d="M44.7161 533.196 L47.5806 533.196 L47.5806 560.123 Q53.6281 559.741 56.8109 556.495 Q59.9619 553.216 59.9619 547.392 Q59.9619 544.018 59.1344 540.867 Q58.3069 537.684 56.6518 534.565 L62.1899 534.565 Q63.5267 537.716 64.227 541.026 Q64.9272 544.336 64.9272 547.742 Q64.9272 556.272 59.9619 561.269 Q54.9967 566.234 46.5303 566.234 Q37.7774 566.234 32.6531 561.524 Q27.4968 556.781 27.4968 548.76 Q27.4968 541.567 32.1438 537.398 Q36.7589 533.196 44.7161 533.196 M42.9973 539.053 Q38.1912 539.116 35.3266 541.758 Q32.4621 544.368 32.4621 548.697 Q32.4621 553.598 35.2312 556.558 Q38.0002 559.487 43.0292 559.932 L42.9973 539.053 Z" fill="#000000" fill-rule="nonzero" fill-opacity="1" /><path clip-path="url(#clip970)" d="M14.5426 488.795 Q21.8632 493.06 29.0246 495.129 Q36.186 497.198 43.5384 497.198 Q50.8908 497.198 58.1159 495.129 Q65.3091 493.029 72.5979 488.795 L72.5979 493.888 Q65.1182 498.662 57.8931 501.049 Q50.668 503.405 43.5384 503.405 Q36.4406 503.405 29.2474 501.049 Q22.0542 498.694 14.5426 493.888 L14.5426 488.795 Z" fill="#000000" fill-rule="nonzero" fill-opacity="1" /><path clip-path="url(#clip970)" d="M29.4065 454.707 L34.9447 454.707 Q33.6716 457.19 33.035 459.863 Q32.3984 462.537 32.3984 465.401 Q32.3984 469.762 33.7352 471.958 Q35.072 474.123 37.7456 474.123 Q39.7826 474.123 40.9603 472.563 Q42.1061 471.003 43.1565 466.293 L43.6021 464.287 Q44.9389 458.049 47.3897 455.439 Q49.8086 452.797 54.1691 452.797 Q59.1344 452.797 62.0308 456.744 Q64.9272 460.659 64.9272 467.534 Q64.9272 470.399 64.3543 473.518 Q63.8132 476.605 62.6992 480.043 L56.6518 480.043 Q58.3387 476.796 59.198 473.645 Q60.0256 470.494 60.0256 467.407 Q60.0256 463.269 58.6251 461.041 Q57.1929 458.813 54.6147 458.813 Q52.2276 458.813 50.9545 460.436 Q49.6813 462.028 48.5037 467.47 L48.0262 469.507 Q46.8804 474.95 44.5251 477.369 Q42.138 479.788 38.0002 479.788 Q32.9713 479.788 30.2341 476.223 Q27.4968 472.658 27.4968 466.102 Q27.4968 462.855 27.9743 459.991 Q28.4517 457.126 29.4065 454.707 Z" fill="#000000" fill-rule="nonzero" fill-opacity="1" /><path clip-path="url(#clip970)" d="M14.5426 444.395 L14.5426 439.302 Q22.0542 434.528 29.2474 432.173 Q36.4406 429.785 43.5384 429.785 Q50.668 429.785 57.8931 432.173 Q65.1182 434.528 72.5979 439.302 L72.5979 444.395 Q65.3091 440.161 58.1159 438.093 Q50.8908 435.992 43.5384 435.992 Q36.186 435.992 29.0246 438.093 Q21.8632 440.161 14.5426 444.395 Z" fill="#000000" fill-rule="nonzero" fill-opacity="1" /><polyline clip-path="url(#clip972)" style="stroke:#008000; stroke-linecap:round; stroke-linejoin:round; stroke-width:4; stroke-opacity:1; fill:none" stroke-dasharray="2, 4" points="237.067,1337.16 530.505,1196.86 1117.38,924.86 2291.13,86.1857 "/>
<path clip-path="url(#clip972)" d="M237.067 1357.16 L219.747 1347.16 L219.747 1327.16 L237.067 1317.16 L254.387 1327.16 L254.387 1347.16 Z" fill="#008000" fill-rule="evenodd" fill-opacity="1" stroke="#000000" stroke-opacity="1" stroke-width="3.2"/>
<path clip-path="url(#clip972)" d="M530.505 1216.86 L513.185 1206.86 L513.185 1186.86 L530.505 1176.86 L547.825 1186.86 L547.825 1206.86 Z" fill="#008000" fill-rule="evenodd" fill-opacity="1" stroke="#000000" stroke-opacity="1" stroke-width="3.2"/>
<path clip-path="url(#clip972)" d="M1117.38 944.86 L1100.06 934.86 L1100.06 914.86 L1117.38 904.86 L1134.7 914.86 L1134.7 934.86 Z" fill="#008000" fill-rule="evenodd" fill-opacity="1" stroke="#000000" stroke-opacity="1" stroke-width="3.2"/>
<path clip-path="url(#clip972)" d="M2291.13 106.186 L2273.81 96.1857 L2273.81 76.1857 L2291.13 66.1857 L2308.45 76.1857 L2308.45 96.1857 Z" fill="#008000" fill-rule="evenodd" fill-opacity="1" stroke="#000000" stroke-opacity="1" stroke-width="3.2"/>
<polyline clip-path="url(#clip972)" style="stroke:#a92a00; stroke-linecap:round; stroke-linejoin:round; stroke-width:4; stroke-opacity:1; fill:none" stroke-dasharray="2, 4" points="237.067,1274.46 530.505,1188.13 1117.38,877.897 2291.13,98.4908 "/>
<path clip-path="url(#clip972)" d="M237.067 1294.46 L219.747 1284.46 L219.747 1264.46 L237.067 1254.46 L254.387 1264.46 L254.387 1284.46 Z" fill="#a92a00" fill-rule="evenodd" fill-opacity="1" stroke="#000000" stroke-opacity="1" stroke-width="3.2"/>
<path clip-path="url(#clip972)" d="M530.505 1208.13 L513.185 1198.13 L513.185 1178.13 L530.505 1168.13 L547.825 1178.13 L547.825 1198.13 Z" fill="#a92a00" fill-rule="evenodd" fill-opacity="1" stroke="#000000" stroke-opacity="1" stroke-width="3.2"/>
<path clip-path="url(#clip972)" d="M1117.38 897.897 L1100.06 887.897 L1100.06 867.897 L1117.38 857.897 L1134.7 867.897 L1134.7 887.897 Z" fill="#a92a00" fill-rule="evenodd" fill-opacity="1" stroke="#000000" stroke-opacity="1" stroke-width="3.2"/>
<path clip-path="url(#clip972)" d="M2291.13 118.491 L2273.81 108.491 L2273.81 88.4908 L2291.13 78.4908 L2308.45 88.4908 L2308.45 108.491 Z" fill="#a92a00" fill-rule="evenodd" fill-opacity="1" stroke="#000000" stroke-opacity="1" stroke-width="3.2"/>
<polyline clip-path="url(#clip972)" style="stroke:#ffa500; stroke-linecap:round; stroke-linejoin:round; stroke-width:4; stroke-opacity:1; fill:none" stroke-dasharray="2, 4" points="237.067,1384.24 530.505,1298.9 1117.38,1085.26 2291.13,451.374 "/>
<path clip-path="url(#clip972)" d="M237.067 1364.24 L217.067 1384.24 L237.067 1404.24 L257.067 1384.24 L237.067 1364.24 Z" fill="#ffa500" fill-rule="evenodd" fill-opacity="1" stroke="#000000" stroke-opacity="1" stroke-width="3.2"/>
<path clip-path="url(#clip972)" d="M530.505 1278.9 L510.505 1298.9 L530.505 1318.9 L550.505 1298.9 L530.505 1278.9 Z" fill="#ffa500" fill-rule="evenodd" fill-opacity="1" stroke="#000000" stroke-opacity="1" stroke-width="3.2"/>
<path clip-path="url(#clip972)" d="M1117.38 1065.26 L1097.38 1085.26 L1117.38 1105.26 L1137.38 1085.26 L1117.38 1065.26 Z" fill="#ffa500" fill-rule="evenodd" fill-opacity="1" stroke="#000000" stroke-opacity="1" stroke-width="3.2"/>
<path clip-path="url(#clip972)" d="M2291.13 431.374 L2271.13 451.374 L2291.13 471.374 L2311.13 451.374 L2291.13 431.374 Z" fill="#ffa500" fill-rule="evenodd" fill-opacity="1" stroke="#000000" stroke-opacity="1" stroke-width="3.2"/>
<polyline clip-path="url(#clip972)" style="stroke:#aa8c55; stroke-linecap:round; stroke-linejoin:round; stroke-width:4; stroke-opacity:1; fill:none" stroke-dasharray="2, 4" points="237.067,1367.31 530.505,1267.66 1117.38,1018.98 2291.13,352.789 "/>
<path clip-path="url(#clip972)" d="M237.067 1347.31 L217.067 1367.31 L237.067 1387.31 L257.067 1367.31 L237.067 1347.31 Z" fill="#aa8c55" fill-rule="evenodd" fill-opacity="1" stroke="#000000" stroke-opacity="1" stroke-width="3.2"/>
<path clip-path="url(#clip972)" d="M530.505 1247.66 L510.505 1267.66 L530.505 1287.66 L550.505 1267.66 L530.505 1247.66 Z" fill="#aa8c55" fill-rule="evenodd" fill-opacity="1" stroke="#000000" stroke-opacity="1" stroke-width="3.2"/>
<path clip-path="url(#clip972)" d="M1117.38 998.981 L1097.38 1018.98 L1117.38 1038.98 L1137.38 1018.98 L1117.38 998.981 Z" fill="#aa8c55" fill-rule="evenodd" fill-opacity="1" stroke="#000000" stroke-opacity="1" stroke-width="3.2"/>
<path clip-path="url(#clip972)" d="M2291.13 332.789 L2271.13 352.789 L2291.13 372.789 L2311.13 352.789 L2291.13 332.789 Z" fill="#aa8c55" fill-rule="evenodd" fill-opacity="1" stroke="#000000" stroke-opacity="1" stroke-width="3.2"/>
<polyline clip-path="url(#clip972)" style="stroke:#0000ff; stroke-linecap:round; stroke-linejoin:round; stroke-width:4; stroke-opacity:1; fill:none" stroke-dasharray="2, 4" points="237.067,1382.08 530.505,1296.14 1117.38,1080.28 2291.13,508.422 "/>
<path clip-path="url(#clip972)" d="M237.067 1362.08 L232.367 1375.6 L218.047 1375.9 L229.467 1384.56 L225.307 1398.26 L237.067 1390.08 L248.827 1398.26 L244.667 1384.56 L256.087 1375.9 L241.767 1375.6 L237.067 1362.08 Z" fill="#0000ff" fill-rule="evenodd" fill-opacity="1" stroke="#000000" stroke-opacity="1" stroke-width="3.2"/>
<path clip-path="url(#clip972)" d="M530.505 1276.14 L525.805 1289.66 L511.485 1289.96 L522.905 1298.62 L518.745 1312.32 L530.505 1304.14 L542.265 1312.32 L538.105 1298.62 L549.525 1289.96 L535.205 1289.66 L530.505 1276.14 Z" fill="#0000ff" fill-rule="evenodd" fill-opacity="1" stroke="#000000" stroke-opacity="1" stroke-width="3.2"/>
<path clip-path="url(#clip972)" d="M1117.38 1060.28 L1112.68 1073.8 L1098.36 1074.1 L1109.78 1082.76 L1105.62 1096.46 L1117.38 1088.28 L1129.14 1096.46 L1124.98 1082.76 L1136.4 1074.1 L1122.08 1073.8 L1117.38 1060.28 Z" fill="#0000ff" fill-rule="evenodd" fill-opacity="1" stroke="#000000" stroke-opacity="1" stroke-width="3.2"/>
<path clip-path="url(#clip972)" d="M2291.13 488.422 L2286.43 501.942 L2272.11 502.242 L2283.53 510.902 L2279.37 524.602 L2291.13 516.422 L2302.89 524.602 L2298.73 510.902 L2310.15 502.242 L2295.83 501.942 L2291.13 488.422 Z" fill="#0000ff" fill-rule="evenodd" fill-opacity="1" stroke="#000000" stroke-opacity="1" stroke-width="3.2"/>
<polyline clip-path="url(#clip972)" style="stroke:#a9a955; stroke-linecap:round; stroke-linejoin:round; stroke-width:4; stroke-opacity:1; fill:none" stroke-dasharray="2, 4" points="237.067,1365.75 530.505,1266.65 1117.38,1019.51 2291.13,275.336 "/>
<path clip-path="url(#clip972)" d="M237.067 1345.75 L232.367 1359.27 L218.047 1359.57 L229.467 1368.23 L225.307 1381.93 L237.067 1373.75 L248.827 1381.93 L244.667 1368.23 L256.087 1359.57 L241.767 1359.27 L237.067 1345.75 Z" fill="#a9a955" fill-rule="evenodd" fill-opacity="1" stroke="#000000" stroke-opacity="1" stroke-width="3.2"/>
<path clip-path="url(#clip972)" d="M530.505 1246.65 L525.805 1260.17 L511.485 1260.47 L522.905 1269.13 L518.745 1282.83 L530.505 1274.65 L542.265 1282.83 L538.105 1269.13 L549.525 1260.47 L535.205 1260.17 L530.505 1246.65 Z" fill="#a9a955" fill-rule="evenodd" fill-opacity="1" stroke="#000000" stroke-opacity="1" stroke-width="3.2"/>
<path clip-path="url(#clip972)" d="M1117.38 999.515 L1112.68 1013.03 L1098.36 1013.33 L1109.78 1021.99 L1105.62 1035.69 L1117.38 1027.51 L1129.14 1035.69 L1124.98 1021.99 L1136.4 1013.33 L1122.08 1013.03 L1117.38 999.515 Z" fill="#a9a955" fill-rule="evenodd" fill-opacity="1" stroke="#000000" stroke-opacity="1" stroke-width="3.2"/>
<path clip-path="url(#clip972)" d="M2291.13 255.336 L2286.43 268.856 L2272.11 269.156 L2283.53 277.816 L2279.37 291.516 L2291.13 283.336 L2302.89 291.516 L2298.73 277.816 L2310.15 269.156 L2295.83 268.856 L2291.13 255.336 Z" fill="#a9a955" fill-rule="evenodd" fill-opacity="1" stroke="#000000" stroke-opacity="1" stroke-width="3.2"/>
<path clip-path="url(#clip970)" d="M248.022 455.989 L724.178 455.989 L724.178 93.1086 L248.022 93.1086  Z" fill="#ffffff" fill-rule="evenodd" fill-opacity="1"/>
<polyline clip-path="url(#clip970)" style="stroke:#000000; stroke-linecap:round; stroke-linejoin:round; stroke-width:4; stroke-opacity:1; fill:none" points="248.022,455.989 724.178,455.989 724.178,93.1086 248.022,93.1086 248.022,455.989 "/>
<polyline clip-path="url(#clip970)" style="stroke:#008000; stroke-linecap:round; stroke-linejoin:round; stroke-width:4; stroke-opacity:1; fill:none" stroke-dasharray="2, 4" points="272.215,144.949 417.369,144.949 "/>
<path clip-path="url(#clip970)" d="M344.792 167.349 L325.393 156.149 L325.393 133.748 L344.792 122.548 L364.19 133.748 L364.19 156.149 Z" fill="#008000" fill-rule="evenodd" fill-opacity="1" stroke="#000000" stroke-opacity="1" stroke-width="3.72364"/>
<path clip-path="url(#clip970)" d="M441.561 127.669 L461.422 127.669 L461.422 131.604 L446.237 131.604 L446.237 141.789 L459.94 141.789 L459.94 145.724 L446.237 145.724 L446.237 162.229 L441.561 162.229 L441.561 127.669 Z" fill="#000000" fill-rule="nonzero" fill-opacity="1" /><path clip-path="url(#clip970)" d="M473.505 145.724 L473.505 158.386 L481.005 158.386 Q484.778 158.386 486.584 156.835 Q488.413 155.261 488.413 152.043 Q488.413 148.803 486.584 147.275 Q484.778 145.724 481.005 145.724 L473.505 145.724 M473.505 131.511 L473.505 141.928 L480.426 141.928 Q483.852 141.928 485.519 140.655 Q487.209 139.358 487.209 136.719 Q487.209 134.104 485.519 132.807 Q483.852 131.511 480.426 131.511 L473.505 131.511 M468.829 127.669 L480.774 127.669 Q486.121 127.669 489.014 129.891 Q491.908 132.113 491.908 136.21 Q491.908 139.382 490.426 141.257 Q488.945 143.131 486.075 143.594 Q489.524 144.335 491.422 146.696 Q493.343 149.034 493.343 152.553 Q493.343 157.182 490.195 159.705 Q487.047 162.229 481.237 162.229 L468.829 162.229 L468.829 127.669 Z" fill="#000000" fill-rule="nonzero" fill-opacity="1" /><path clip-path="url(#clip970)" d="M506.028 131.511 L506.028 158.386 L511.676 158.386 Q518.829 158.386 522.139 155.145 Q525.473 151.905 525.473 144.914 Q525.473 137.969 522.139 134.752 Q518.829 131.511 511.676 131.511 L506.028 131.511 M501.352 127.669 L510.959 127.669 Q521.005 127.669 525.704 131.858 Q530.403 136.025 530.403 144.914 Q530.403 153.849 525.681 158.039 Q520.959 162.229 510.959 162.229 L501.352 162.229 L501.352 127.669 Z" fill="#000000" fill-rule="nonzero" fill-opacity="1" /><path clip-path="url(#clip970)" d="M537.857 127.669 L557.718 127.669 L557.718 131.604 L542.533 131.604 L542.533 141.789 L556.236 141.789 L556.236 145.724 L542.533 145.724 L542.533 162.229 L537.857 162.229 L537.857 127.669 Z" fill="#000000" fill-rule="nonzero" fill-opacity="1" /><polyline clip-path="url(#clip970)" style="stroke:#a92a00; stroke-linecap:round; stroke-linejoin:round; stroke-width:4; stroke-opacity:1; fill:none" stroke-dasharray="2, 4" points="272.215,196.789 417.369,196.789 "/>
<path clip-path="url(#clip970)" d="M344.792 219.189 L325.393 207.989 L325.393 185.588 L344.792 174.388 L364.19 185.588 L364.19 207.989 Z" fill="#a92a00" fill-rule="evenodd" fill-opacity="1" stroke="#000000" stroke-opacity="1" stroke-width="3.72364"/>
<path clip-path="url(#clip970)" d="M441.561 179.509 L461.422 179.509 L461.422 183.444 L446.237 183.444 L446.237 193.629 L459.94 193.629 L459.94 197.564 L446.237 197.564 L446.237 214.069 L441.561 214.069 L441.561 179.509 Z" fill="#000000" fill-rule="nonzero" fill-opacity="1" /><path clip-path="url(#clip970)" d="M473.505 197.564 L473.505 210.226 L481.005 210.226 Q484.778 210.226 486.584 208.675 Q488.413 207.101 488.413 203.883 Q488.413 200.643 486.584 199.115 Q484.778 197.564 481.005 197.564 L473.505 197.564 M473.505 183.351 L473.505 193.768 L480.426 193.768 Q483.852 193.768 485.519 192.495 Q487.209 191.198 487.209 188.559 Q487.209 185.944 485.519 184.647 Q483.852 183.351 480.426 183.351 L473.505 183.351 M468.829 179.509 L480.774 179.509 Q486.121 179.509 489.014 181.731 Q491.908 183.953 491.908 188.05 Q491.908 191.222 490.426 193.097 Q488.945 194.971 486.075 195.434 Q489.524 196.175 491.422 198.536 Q493.343 200.874 493.343 204.393 Q493.343 209.022 490.195 211.545 Q487.047 214.069 481.237 214.069 L468.829 214.069 L468.829 179.509 Z" fill="#000000" fill-rule="nonzero" fill-opacity="1" /><path clip-path="url(#clip970)" d="M506.028 183.351 L506.028 210.226 L511.676 210.226 Q518.829 210.226 522.139 206.985 Q525.473 203.745 525.473 196.754 Q525.473 189.809 522.139 186.592 Q518.829 183.351 511.676 183.351 L506.028 183.351 M501.352 179.509 L510.959 179.509 Q521.005 179.509 525.704 183.698 Q530.403 187.865 530.403 196.754 Q530.403 205.689 525.681 209.879 Q520.959 214.069 510.959 214.069 L501.352 214.069 L501.352 179.509 Z" fill="#000000" fill-rule="nonzero" fill-opacity="1" /><path clip-path="url(#clip970)" d="M537.857 179.509 L557.718 179.509 L557.718 183.444 L542.533 183.444 L542.533 193.629 L556.236 193.629 L556.236 197.564 L542.533 197.564 L542.533 214.069 L537.857 214.069 L537.857 179.509 Z" fill="#000000" fill-rule="nonzero" fill-opacity="1" /><path clip-path="url(#clip970)" d="M584.639 221.939 L584.639 225.249 L560.009 225.249 L560.009 221.939 L584.639 221.939 Z" fill="#000000" fill-rule="nonzero" fill-opacity="1" /><path clip-path="url(#clip970)" d="M592.764 210.18 L592.764 223.93 L588.481 223.93 L588.481 188.143 L592.764 188.143 L592.764 192.078 Q594.106 189.763 596.143 188.652 Q598.204 187.518 601.051 187.518 Q605.773 187.518 608.713 191.268 Q611.676 195.018 611.676 201.129 Q611.676 207.24 608.713 210.99 Q605.773 214.74 601.051 214.74 Q598.204 214.74 596.143 213.629 Q594.106 212.495 592.764 210.18 M607.255 201.129 Q607.255 196.43 605.31 193.768 Q603.389 191.083 600.009 191.083 Q596.63 191.083 594.685 193.768 Q592.764 196.43 592.764 201.129 Q592.764 205.828 594.685 208.513 Q596.63 211.175 600.009 211.175 Q603.389 211.175 605.31 208.513 Q607.255 205.828 607.255 201.129 Z" fill="#000000" fill-rule="nonzero" fill-opacity="1" /><path clip-path="url(#clip970)" d="M633.759 192.124 Q633.041 191.708 632.185 191.522 Q631.352 191.314 630.333 191.314 Q626.722 191.314 624.778 193.675 Q622.856 196.013 622.856 200.411 L622.856 214.069 L618.574 214.069 L618.574 188.143 L622.856 188.143 L622.856 192.171 Q624.199 189.809 626.352 188.675 Q628.504 187.518 631.583 187.518 Q632.023 187.518 632.555 187.587 Q633.088 187.634 633.736 187.749 L633.759 192.124 Z" fill="#000000" fill-rule="nonzero" fill-opacity="1" /><path clip-path="url(#clip970)" d="M659.361 200.041 L659.361 202.124 L639.777 202.124 Q640.055 206.522 642.416 208.837 Q644.801 211.129 649.037 211.129 Q651.49 211.129 653.782 210.527 Q656.097 209.925 658.365 208.721 L658.365 212.749 Q656.074 213.721 653.666 214.231 Q651.259 214.74 648.782 214.74 Q642.578 214.74 638.944 211.129 Q635.333 207.518 635.333 201.36 Q635.333 194.995 638.759 191.268 Q642.208 187.518 648.041 187.518 Q653.273 187.518 656.305 190.897 Q659.361 194.254 659.361 200.041 M655.101 198.791 Q655.055 195.296 653.134 193.212 Q651.236 191.129 648.088 191.129 Q644.523 191.129 642.37 193.143 Q640.24 195.157 639.916 198.814 L655.101 198.791 Z" fill="#000000" fill-rule="nonzero" fill-opacity="1" /><path clip-path="url(#clip970)" d="M685.009 189.138 L685.009 193.12 Q683.203 192.124 681.374 191.638 Q679.569 191.129 677.717 191.129 Q673.574 191.129 671.282 193.768 Q668.99 196.384 668.99 201.129 Q668.99 205.874 671.282 208.513 Q673.574 211.129 677.717 211.129 Q679.569 211.129 681.374 210.643 Q683.203 210.133 685.009 209.138 L685.009 213.073 Q683.226 213.907 681.305 214.323 Q679.407 214.74 677.254 214.74 Q671.398 214.74 667.949 211.059 Q664.5 207.379 664.5 201.129 Q664.5 194.786 667.972 191.152 Q671.467 187.518 677.532 187.518 Q679.499 187.518 681.374 187.935 Q683.249 188.328 685.009 189.138 Z" fill="#000000" fill-rule="nonzero" fill-opacity="1" /><polyline clip-path="url(#clip970)" style="stroke:#ffa500; stroke-linecap:round; stroke-linejoin:round; stroke-width:4; stroke-opacity:1; fill:none" stroke-dasharray="2, 4" points="272.215,248.629 417.369,248.629 "/>
<path clip-path="url(#clip970)" d="M344.792 226.228 L322.391 248.629 L344.792 271.029 L367.192 248.629 L344.792 226.228 Z" fill="#ffa500" fill-rule="evenodd" fill-opacity="1" stroke="#000000" stroke-opacity="1" stroke-width="3.72364"/>
<path clip-path="url(#clip970)" d="M457.579 234.52 Q452.487 234.52 449.478 238.316 Q446.491 242.112 446.491 248.663 Q446.491 255.191 449.478 258.987 Q452.487 262.784 457.579 262.784 Q462.672 262.784 465.635 258.987 Q468.621 255.191 468.621 248.663 Q468.621 242.112 465.635 238.316 Q462.672 234.52 457.579 234.52 M464.13 265.284 L470.288 272.02 L464.64 272.02 L459.524 266.487 Q458.76 266.534 458.343 266.557 Q457.95 266.58 457.579 266.58 Q450.288 266.58 445.913 261.719 Q441.561 256.835 441.561 248.663 Q441.561 240.469 445.913 235.608 Q450.288 230.724 457.579 230.724 Q464.848 230.724 469.2 235.608 Q473.552 240.469 473.552 248.663 Q473.552 254.682 471.121 258.964 Q468.714 263.247 464.13 265.284 Z" fill="#000000" fill-rule="nonzero" fill-opacity="1" /><path clip-path="url(#clip970)" d="M480.866 231.349 L487.163 231.349 L502.487 260.261 L502.487 231.349 L507.024 231.349 L507.024 265.909 L500.727 265.909 L485.403 236.997 L485.403 265.909 L480.866 265.909 L480.866 231.349 Z" fill="#000000" fill-rule="nonzero" fill-opacity="1" /><path clip-path="url(#clip970)" d="M521.005 235.191 L521.005 262.066 L526.653 262.066 Q533.806 262.066 537.116 258.825 Q540.449 255.585 540.449 248.594 Q540.449 241.649 537.116 238.432 Q533.806 235.191 526.653 235.191 L521.005 235.191 M516.329 231.349 L525.936 231.349 Q535.982 231.349 540.681 235.538 Q545.38 239.705 545.38 248.594 Q545.38 257.529 540.658 261.719 Q535.935 265.909 525.936 265.909 L516.329 265.909 L516.329 231.349 Z" fill="#000000" fill-rule="nonzero" fill-opacity="1" /><path clip-path="url(#clip970)" d="M552.834 231.349 L572.695 231.349 L572.695 235.284 L557.509 235.284 L557.509 245.469 L571.213 245.469 L571.213 249.404 L557.509 249.404 L557.509 265.909 L552.834 265.909 L552.834 231.349 Z" fill="#000000" fill-rule="nonzero" fill-opacity="1" /><polyline clip-path="url(#clip970)" style="stroke:#aa8c55; stroke-linecap:round; stroke-linejoin:round; stroke-width:4; stroke-opacity:1; fill:none" stroke-dasharray="2, 4" points="272.215,300.469 417.369,300.469 "/>
<path clip-path="url(#clip970)" d="M344.792 278.068 L322.391 300.469 L344.792 322.869 L367.192 300.469 L344.792 278.068 Z" fill="#aa8c55" fill-rule="evenodd" fill-opacity="1" stroke="#000000" stroke-opacity="1" stroke-width="3.72364"/>
<path clip-path="url(#clip970)" d="M457.579 286.36 Q452.487 286.36 449.478 290.156 Q446.491 293.952 446.491 300.503 Q446.491 307.031 449.478 310.827 Q452.487 314.624 457.579 314.624 Q462.672 314.624 465.635 310.827 Q468.621 307.031 468.621 300.503 Q468.621 293.952 465.635 290.156 Q462.672 286.36 457.579 286.36 M464.13 317.124 L470.288 323.86 L464.64 323.86 L459.524 318.327 Q458.76 318.374 458.343 318.397 Q457.95 318.42 457.579 318.42 Q450.288 318.42 445.913 313.559 Q441.561 308.675 441.561 300.503 Q441.561 292.309 445.913 287.448 Q450.288 282.564 457.579 282.564 Q464.848 282.564 469.2 287.448 Q473.552 292.309 473.552 300.503 Q473.552 306.522 471.121 310.804 Q468.714 315.087 464.13 317.124 Z" fill="#000000" fill-rule="nonzero" fill-opacity="1" /><path clip-path="url(#clip970)" d="M480.866 283.189 L487.163 283.189 L502.487 312.101 L502.487 283.189 L507.024 283.189 L507.024 317.749 L500.727 317.749 L485.403 288.837 L485.403 317.749 L480.866 317.749 L480.866 283.189 Z" fill="#000000" fill-rule="nonzero" fill-opacity="1" /><path clip-path="url(#clip970)" d="M521.005 287.031 L521.005 313.906 L526.653 313.906 Q533.806 313.906 537.116 310.665 Q540.449 307.425 540.449 300.434 Q540.449 293.489 537.116 290.272 Q533.806 287.031 526.653 287.031 L521.005 287.031 M516.329 283.189 L525.936 283.189 Q535.982 283.189 540.681 287.378 Q545.38 291.545 545.38 300.434 Q545.38 309.369 540.658 313.559 Q535.935 317.749 525.936 317.749 L516.329 317.749 L516.329 283.189 Z" fill="#000000" fill-rule="nonzero" fill-opacity="1" /><path clip-path="url(#clip970)" d="M552.834 283.189 L572.695 283.189 L572.695 287.124 L557.509 287.124 L557.509 297.309 L571.213 297.309 L571.213 301.244 L557.509 301.244 L557.509 317.749 L552.834 317.749 L552.834 283.189 Z" fill="#000000" fill-rule="nonzero" fill-opacity="1" /><path clip-path="url(#clip970)" d="M599.616 325.619 L599.616 328.929 L574.986 328.929 L574.986 325.619 L599.616 325.619 Z" fill="#000000" fill-rule="nonzero" fill-opacity="1" /><path clip-path="url(#clip970)" d="M607.741 313.86 L607.741 327.61 L603.458 327.61 L603.458 291.823 L607.741 291.823 L607.741 295.758 Q609.083 293.443 611.12 292.332 Q613.18 291.198 616.028 291.198 Q620.75 291.198 623.69 294.948 Q626.653 298.698 626.653 304.809 Q626.653 310.92 623.69 314.67 Q620.75 318.42 616.028 318.42 Q613.18 318.42 611.12 317.309 Q609.083 316.175 607.741 313.86 M622.231 304.809 Q622.231 300.11 620.287 297.448 Q618.366 294.763 614.986 294.763 Q611.606 294.763 609.662 297.448 Q607.741 300.11 607.741 304.809 Q607.741 309.508 609.662 312.193 Q611.606 314.855 614.986 314.855 Q618.366 314.855 620.287 312.193 Q622.231 309.508 622.231 304.809 Z" fill="#000000" fill-rule="nonzero" fill-opacity="1" /><path clip-path="url(#clip970)" d="M648.736 295.804 Q648.018 295.388 647.162 295.202 Q646.328 294.994 645.31 294.994 Q641.699 294.994 639.754 297.355 Q637.833 299.693 637.833 304.091 L637.833 317.749 L633.551 317.749 L633.551 291.823 L637.833 291.823 L637.833 295.851 Q639.176 293.489 641.328 292.355 Q643.481 291.198 646.56 291.198 Q647 291.198 647.532 291.267 Q648.064 291.314 648.713 291.429 L648.736 295.804 Z" fill="#000000" fill-rule="nonzero" fill-opacity="1" /><path clip-path="url(#clip970)" d="M674.337 303.721 L674.337 305.804 L654.754 305.804 Q655.032 310.202 657.393 312.517 Q659.777 314.809 664.013 314.809 Q666.467 314.809 668.759 314.207 Q671.074 313.605 673.342 312.401 L673.342 316.429 Q671.05 317.401 668.643 317.911 Q666.236 318.42 663.759 318.42 Q657.555 318.42 653.921 314.809 Q650.31 311.198 650.31 305.04 Q650.31 298.675 653.736 294.948 Q657.185 291.198 663.018 291.198 Q668.25 291.198 671.282 294.577 Q674.337 297.934 674.337 303.721 M670.078 302.471 Q670.032 298.976 668.111 296.892 Q666.213 294.809 663.064 294.809 Q659.5 294.809 657.347 296.823 Q655.217 298.837 654.893 302.494 L670.078 302.471 Z" fill="#000000" fill-rule="nonzero" fill-opacity="1" /><path clip-path="url(#clip970)" d="M699.986 292.818 L699.986 296.8 Q698.18 295.804 696.351 295.318 Q694.546 294.809 692.694 294.809 Q688.55 294.809 686.259 297.448 Q683.967 300.064 683.967 304.809 Q683.967 309.554 686.259 312.193 Q688.55 314.809 692.694 314.809 Q694.546 314.809 696.351 314.323 Q698.18 313.813 699.986 312.818 L699.986 316.753 Q698.203 317.587 696.282 318.003 Q694.384 318.42 692.231 318.42 Q686.374 318.42 682.925 314.739 Q679.476 311.059 679.476 304.809 Q679.476 298.466 682.949 294.832 Q686.444 291.198 692.509 291.198 Q694.476 291.198 696.351 291.615 Q698.226 292.008 699.986 292.818 Z" fill="#000000" fill-rule="nonzero" fill-opacity="1" /><polyline clip-path="url(#clip970)" style="stroke:#0000ff; stroke-linecap:round; stroke-linejoin:round; stroke-width:4; stroke-opacity:1; fill:none" stroke-dasharray="2, 4" points="272.215,352.309 417.369,352.309 "/>
<path clip-path="url(#clip970)" d="M344.792 329.908 L339.528 345.051 L323.489 345.387 L336.279 355.086 L331.62 370.43 L344.792 361.269 L357.963 370.43 L353.304 355.086 L366.094 345.387 L350.056 345.051 L344.792 329.908 Z" fill="#0000ff" fill-rule="evenodd" fill-opacity="1" stroke="#000000" stroke-opacity="1" stroke-width="3.72364"/>
<path clip-path="url(#clip970)" d="M457.579 338.2 Q452.487 338.2 449.478 341.996 Q446.491 345.792 446.491 352.343 Q446.491 358.871 449.478 362.667 Q452.487 366.464 457.579 366.464 Q462.672 366.464 465.635 362.667 Q468.621 358.871 468.621 352.343 Q468.621 345.792 465.635 341.996 Q462.672 338.2 457.579 338.2 M464.13 368.964 L470.288 375.7 L464.64 375.7 L459.524 370.167 Q458.76 370.214 458.343 370.237 Q457.95 370.26 457.579 370.26 Q450.288 370.26 445.913 365.399 Q441.561 360.515 441.561 352.343 Q441.561 344.149 445.913 339.288 Q450.288 334.404 457.579 334.404 Q464.848 334.404 469.2 339.288 Q473.552 344.149 473.552 352.343 Q473.552 358.362 471.121 362.644 Q468.714 366.927 464.13 368.964 Z" fill="#000000" fill-rule="nonzero" fill-opacity="1" /><path clip-path="url(#clip970)" d="M485.542 353.084 L485.542 365.746 L493.042 365.746 Q496.815 365.746 498.621 364.195 Q500.45 362.621 500.45 359.403 Q500.45 356.163 498.621 354.635 Q496.815 353.084 493.042 353.084 L485.542 353.084 M485.542 338.871 L485.542 349.288 L492.463 349.288 Q495.889 349.288 497.556 348.015 Q499.246 346.718 499.246 344.079 Q499.246 341.464 497.556 340.167 Q495.889 338.871 492.463 338.871 L485.542 338.871 M480.866 335.029 L492.811 335.029 Q498.158 335.029 501.051 337.251 Q503.945 339.473 503.945 343.57 Q503.945 346.742 502.463 348.617 Q500.982 350.491 498.112 350.954 Q501.561 351.695 503.459 354.056 Q505.38 356.394 505.38 359.913 Q505.38 364.542 502.232 367.065 Q499.084 369.589 493.274 369.589 L480.866 369.589 L480.866 335.029 Z" fill="#000000" fill-rule="nonzero" fill-opacity="1" /><path clip-path="url(#clip970)" d="M518.065 338.871 L518.065 365.746 L523.713 365.746 Q530.866 365.746 534.176 362.505 Q537.51 359.265 537.51 352.274 Q537.51 345.329 534.176 342.112 Q530.866 338.871 523.713 338.871 L518.065 338.871 M513.389 335.029 L522.996 335.029 Q533.042 335.029 537.741 339.218 Q542.44 343.385 542.44 352.274 Q542.44 361.209 537.718 365.399 Q532.996 369.589 522.996 369.589 L513.389 369.589 L513.389 335.029 Z" fill="#000000" fill-rule="nonzero" fill-opacity="1" /><path clip-path="url(#clip970)" d="M549.894 335.029 L569.755 335.029 L569.755 338.964 L554.57 338.964 L554.57 349.149 L568.273 349.149 L568.273 353.084 L554.57 353.084 L554.57 369.589 L549.894 369.589 L549.894 335.029 Z" fill="#000000" fill-rule="nonzero" fill-opacity="1" /><polyline clip-path="url(#clip970)" style="stroke:#a9a955; stroke-linecap:round; stroke-linejoin:round; stroke-width:4; stroke-opacity:1; fill:none" stroke-dasharray="2, 4" points="272.215,404.149 417.369,404.149 "/>
<path clip-path="url(#clip970)" d="M344.792 381.748 L339.528 396.891 L323.489 397.227 L336.279 406.926 L331.62 422.27 L344.792 413.109 L357.963 422.27 L353.304 406.926 L366.094 397.227 L350.056 396.891 L344.792 381.748 Z" fill="#a9a955" fill-rule="evenodd" fill-opacity="1" stroke="#000000" stroke-opacity="1" stroke-width="3.72364"/>
<path clip-path="url(#clip970)" d="M457.579 390.04 Q452.487 390.04 449.478 393.836 Q446.491 397.632 446.491 404.183 Q446.491 410.711 449.478 414.507 Q452.487 418.304 457.579 418.304 Q462.672 418.304 465.635 414.507 Q468.621 410.711 468.621 404.183 Q468.621 397.632 465.635 393.836 Q462.672 390.04 457.579 390.04 M464.13 420.804 L470.288 427.54 L464.64 427.54 L459.524 422.007 Q458.76 422.054 458.343 422.077 Q457.95 422.1 457.579 422.1 Q450.288 422.1 445.913 417.239 Q441.561 412.355 441.561 404.183 Q441.561 395.989 445.913 391.128 Q450.288 386.244 457.579 386.244 Q464.848 386.244 469.2 391.128 Q473.552 395.989 473.552 404.183 Q473.552 410.202 471.121 414.484 Q468.714 418.767 464.13 420.804 Z" fill="#000000" fill-rule="nonzero" fill-opacity="1" /><path clip-path="url(#clip970)" d="M485.542 404.924 L485.542 417.586 L493.042 417.586 Q496.815 417.586 498.621 416.035 Q500.45 414.461 500.45 411.243 Q500.45 408.003 498.621 406.475 Q496.815 404.924 493.042 404.924 L485.542 404.924 M485.542 390.711 L485.542 401.128 L492.463 401.128 Q495.889 401.128 497.556 399.855 Q499.246 398.558 499.246 395.919 Q499.246 393.304 497.556 392.007 Q495.889 390.711 492.463 390.711 L485.542 390.711 M480.866 386.869 L492.811 386.869 Q498.158 386.869 501.051 389.091 Q503.945 391.313 503.945 395.41 Q503.945 398.582 502.463 400.457 Q500.982 402.331 498.112 402.794 Q501.561 403.535 503.459 405.896 Q505.38 408.234 505.38 411.753 Q505.38 416.382 502.232 418.905 Q499.084 421.429 493.274 421.429 L480.866 421.429 L480.866 386.869 Z" fill="#000000" fill-rule="nonzero" fill-opacity="1" /><path clip-path="url(#clip970)" d="M518.065 390.711 L518.065 417.586 L523.713 417.586 Q530.866 417.586 534.176 414.345 Q537.51 411.105 537.51 404.114 Q537.51 397.169 534.176 393.952 Q530.866 390.711 523.713 390.711 L518.065 390.711 M513.389 386.869 L522.996 386.869 Q533.042 386.869 537.741 391.058 Q542.44 395.225 542.44 404.114 Q542.44 413.049 537.718 417.239 Q532.996 421.429 522.996 421.429 L513.389 421.429 L513.389 386.869 Z" fill="#000000" fill-rule="nonzero" fill-opacity="1" /><path clip-path="url(#clip970)" d="M549.894 386.869 L569.755 386.869 L569.755 390.804 L554.57 390.804 L554.57 400.989 L568.273 400.989 L568.273 404.924 L554.57 404.924 L554.57 421.429 L549.894 421.429 L549.894 386.869 Z" fill="#000000" fill-rule="nonzero" fill-opacity="1" /><path clip-path="url(#clip970)" d="M596.676 429.299 L596.676 432.609 L572.046 432.609 L572.046 429.299 L596.676 429.299 Z" fill="#000000" fill-rule="nonzero" fill-opacity="1" /><path clip-path="url(#clip970)" d="M604.801 417.54 L604.801 431.29 L600.518 431.29 L600.518 395.503 L604.801 395.503 L604.801 399.438 Q606.143 397.123 608.18 396.012 Q610.241 394.878 613.088 394.878 Q617.81 394.878 620.75 398.628 Q623.713 402.378 623.713 408.489 Q623.713 414.6 620.75 418.35 Q617.81 422.1 613.088 422.1 Q610.241 422.1 608.18 420.989 Q606.143 419.855 604.801 417.54 M619.291 408.489 Q619.291 403.79 617.347 401.128 Q615.426 398.443 612.046 398.443 Q608.667 398.443 606.722 401.128 Q604.801 403.79 604.801 408.489 Q604.801 413.188 606.722 415.873 Q608.667 418.535 612.046 418.535 Q615.426 418.535 617.347 415.873 Q619.291 413.188 619.291 408.489 Z" fill="#000000" fill-rule="nonzero" fill-opacity="1" /><path clip-path="url(#clip970)" d="M645.796 399.484 Q645.078 399.068 644.222 398.882 Q643.389 398.674 642.37 398.674 Q638.759 398.674 636.815 401.035 Q634.893 403.373 634.893 407.771 L634.893 421.429 L630.611 421.429 L630.611 395.503 L634.893 395.503 L634.893 399.531 Q636.236 397.169 638.389 396.035 Q640.541 394.878 643.62 394.878 Q644.06 394.878 644.592 394.947 Q645.125 394.994 645.773 395.109 L645.796 399.484 Z" fill="#000000" fill-rule="nonzero" fill-opacity="1" /><path clip-path="url(#clip970)" d="M671.398 407.401 L671.398 409.484 L651.814 409.484 Q652.092 413.882 654.453 416.197 Q656.838 418.489 661.074 418.489 Q663.527 418.489 665.819 417.887 Q668.134 417.285 670.402 416.081 L670.402 420.109 Q668.111 421.081 665.703 421.591 Q663.296 422.1 660.819 422.1 Q654.615 422.1 650.981 418.489 Q647.37 414.878 647.37 408.72 Q647.37 402.355 650.796 398.628 Q654.245 394.878 660.078 394.878 Q665.31 394.878 668.342 398.257 Q671.398 401.614 671.398 407.401 M667.138 406.151 Q667.092 402.656 665.171 400.572 Q663.273 398.489 660.125 398.489 Q656.56 398.489 654.407 400.503 Q652.277 402.517 651.953 406.174 L667.138 406.151 Z" fill="#000000" fill-rule="nonzero" fill-opacity="1" /><path clip-path="url(#clip970)" d="M697.046 396.498 L697.046 400.48 Q695.24 399.484 693.411 398.998 Q691.606 398.489 689.754 398.489 Q685.611 398.489 683.319 401.128 Q681.027 403.744 681.027 408.489 Q681.027 413.234 683.319 415.873 Q685.611 418.489 689.754 418.489 Q691.606 418.489 693.411 418.003 Q695.24 417.493 697.046 416.498 L697.046 420.433 Q695.263 421.267 693.342 421.683 Q691.444 422.1 689.291 422.1 Q683.435 422.1 679.986 418.419 Q676.537 414.739 676.537 408.489 Q676.537 402.146 680.009 398.512 Q683.504 394.878 689.569 394.878 Q691.536 394.878 693.411 395.295 Q695.286 395.688 697.046 396.498 Z" fill="#000000" fill-rule="nonzero" fill-opacity="1" /></svg>
