<?xml version="1.0" encoding="utf-8"?>
<svg xmlns="http://www.w3.org/2000/svg" xmlns:xlink="http://www.w3.org/1999/xlink" width="600" height="400" viewBox="0 0 2400 1600">
<defs>
  <clipPath id="clip010">
    <rect x="0" y="0" width="2400" height="1600"/>
  </clipPath>
</defs>
<path clip-path="url(#clip010)" d="M0 1600 L2400 1600 L2400 0 L0 0  Z" fill="#ffffff" fill-rule="evenodd" fill-opacity="1"/>
<defs>
  <clipPath id="clip011">
    <rect x="480" y="0" width="1681" height="1600"/>
  </clipPath>
</defs>
<path clip-path="url(#clip010)" d="M255.984 1410.9 L2352.76 1410.9 L2352.76 47.2441 L255.984 47.2441  Z" fill="#ffffff" fill-rule="evenodd" fill-opacity="1"/>
<defs>
  <clipPath id="clip012">
    <rect x="255" y="47" width="2098" height="1365"/>
  </clipPath>
</defs>
<polyline clip-path="url(#clip012)" style="stroke:#000000; stroke-linecap:round; stroke-linejoin:round; stroke-width:2; stroke-opacity:0.1; fill:none" points="823.84,1410.9 823.84,47.2441 "/>
<polyline clip-path="url(#clip012)" style="stroke:#000000; stroke-linecap:round; stroke-linejoin:round; stroke-width:2; stroke-opacity:0.1; fill:none" points="1585,1410.9 1585,47.2441 "/>
<polyline clip-path="url(#clip012)" style="stroke:#000000; stroke-linecap:round; stroke-linejoin:round; stroke-width:2; stroke-opacity:0.1; fill:none" points="2346.16,1410.9 2346.16,47.2441 "/>
<polyline clip-path="url(#clip010)" style="stroke:#000000; stroke-linecap:round; stroke-linejoin:round; stroke-width:4; stroke-opacity:1; fill:none" points="255.984,1410.9 2352.76,1410.9 "/>
<polyline clip-path="url(#clip010)" style="stroke:#000000; stroke-linecap:round; stroke-linejoin:round; stroke-width:4; stroke-opacity:1; fill:none" points="823.84,1410.9 823.84,1392 "/>
<polyline clip-path="url(#clip010)" style="stroke:#000000; stroke-linecap:round; stroke-linejoin:round; stroke-width:4; stroke-opacity:1; fill:none" points="1585,1410.9 1585,1392 "/>
<polyline clip-path="url(#clip010)" style="stroke:#000000; stroke-linecap:round; stroke-linejoin:round; stroke-width:4; stroke-opacity:1; fill:none" points="2346.16,1410.9 2346.16,1392 "/>
<path clip-path="url(#clip010)" d="M770.447 1485.02 L778.086 1485.02 L778.086 1458.66 L769.776 1460.32 L769.776 1456.06 L778.04 1454.4 L782.716 1454.4 L782.716 1485.02 L790.355 1485.02 L790.355 1488.96 L770.447 1488.96 L770.447 1485.02 Z" fill="#000000" fill-rule="nonzero" fill-opacity="1" /><path clip-path="url(#clip010)" d="M809.799 1457.48 Q806.188 1457.48 804.359 1461.04 Q802.554 1464.58 802.554 1471.71 Q802.554 1478.82 804.359 1482.38 Q806.188 1485.92 809.799 1485.92 Q813.433 1485.92 815.239 1482.38 Q817.068 1478.82 817.068 1471.71 Q817.068 1464.58 815.239 1461.04 Q813.433 1457.48 809.799 1457.48 M809.799 1453.77 Q815.609 1453.77 818.665 1458.38 Q821.744 1462.96 821.744 1471.71 Q821.744 1480.44 818.665 1485.04 Q815.609 1489.63 809.799 1489.63 Q803.989 1489.63 800.91 1485.04 Q797.855 1480.44 797.855 1471.71 Q797.855 1462.96 800.91 1458.38 Q803.989 1453.77 809.799 1453.77 Z" fill="#000000" fill-rule="nonzero" fill-opacity="1" /><path clip-path="url(#clip010)" d="M831.448 1435.97 Q828.514 1435.97 827.028 1438.86 Q825.561 1441.74 825.561 1447.53 Q825.561 1453.31 827.028 1456.2 Q828.514 1459.08 831.448 1459.08 Q834.401 1459.08 835.868 1456.2 Q837.354 1453.31 837.354 1447.53 Q837.354 1441.74 835.868 1438.86 Q834.401 1435.97 831.448 1435.97 M831.448 1432.96 Q836.169 1432.96 838.652 1436.7 Q841.153 1440.43 841.153 1447.53 Q841.153 1454.62 838.652 1458.37 Q836.169 1462.09 831.448 1462.09 Q826.728 1462.09 824.226 1458.37 Q821.744 1454.62 821.744 1447.53 Q821.744 1440.43 824.226 1436.7 Q826.728 1432.96 831.448 1432.96 Z" fill="#000000" fill-rule="nonzero" fill-opacity="1" /><path clip-path="url(#clip010)" d="M847.83 1456.77 L851.798 1456.77 L851.798 1461.55 L847.83 1461.55 L847.83 1456.77 Z" fill="#000000" fill-rule="nonzero" fill-opacity="1" /><path clip-path="url(#clip010)" d="M868.199 1435.97 Q865.265 1435.97 863.779 1438.86 Q862.312 1441.74 862.312 1447.53 Q862.312 1453.31 863.779 1456.2 Q865.265 1459.08 868.199 1459.08 Q871.152 1459.08 872.619 1456.2 Q874.104 1453.31 874.104 1447.53 Q874.104 1441.74 872.619 1438.86 Q871.152 1435.97 868.199 1435.97 M868.199 1432.96 Q872.919 1432.96 875.402 1436.7 Q877.904 1440.43 877.904 1447.53 Q877.904 1454.62 875.402 1458.37 Q872.919 1462.09 868.199 1462.09 Q863.478 1462.09 860.977 1458.37 Q858.494 1454.62 858.494 1447.53 Q858.494 1440.43 860.977 1436.7 Q863.478 1432.96 868.199 1432.96 Z" fill="#000000" fill-rule="nonzero" fill-opacity="1" /><path clip-path="url(#clip010)" d="M1532.01 1485.02 L1539.65 1485.02 L1539.65 1458.66 L1531.34 1460.32 L1531.34 1456.06 L1539.6 1454.4 L1544.28 1454.4 L1544.28 1485.02 L1551.92 1485.02 L1551.92 1488.96 L1532.01 1488.96 L1532.01 1485.02 Z" fill="#000000" fill-rule="nonzero" fill-opacity="1" /><path clip-path="url(#clip010)" d="M1571.36 1457.48 Q1567.75 1457.48 1565.92 1461.04 Q1564.12 1464.58 1564.12 1471.71 Q1564.12 1478.82 1565.92 1482.38 Q1567.75 1485.92 1571.36 1485.92 Q1575 1485.92 1576.8 1482.38 Q1578.63 1478.82 1578.63 1471.71 Q1578.63 1464.58 1576.8 1461.04 Q1575 1457.48 1571.36 1457.48 M1571.36 1453.77 Q1577.17 1453.77 1580.23 1458.38 Q1583.31 1462.96 1583.31 1471.71 Q1583.31 1480.44 1580.23 1485.04 Q1577.17 1489.63 1571.36 1489.63 Q1565.55 1489.63 1562.47 1485.04 Q1559.42 1480.44 1559.42 1471.71 Q1559.42 1462.96 1562.47 1458.38 Q1565.55 1453.77 1571.36 1453.77 Z" fill="#000000" fill-rule="nonzero" fill-opacity="1" /><path clip-path="url(#clip010)" d="M1593.01 1435.97 Q1590.08 1435.97 1588.59 1438.86 Q1587.12 1441.74 1587.12 1447.53 Q1587.12 1453.31 1588.59 1456.2 Q1590.08 1459.08 1593.01 1459.08 Q1595.96 1459.08 1597.43 1456.2 Q1598.92 1453.31 1598.92 1447.53 Q1598.92 1441.74 1597.43 1438.86 Q1595.96 1435.97 1593.01 1435.97 M1593.01 1432.96 Q1597.73 1432.96 1600.21 1436.7 Q1602.72 1440.43 1602.72 1447.53 Q1602.72 1454.62 1600.21 1458.37 Q1597.73 1462.09 1593.01 1462.09 Q1588.29 1462.09 1585.79 1458.37 Q1583.31 1454.62 1583.31 1447.53 Q1583.31 1440.43 1585.79 1436.7 Q1588.29 1432.96 1593.01 1432.96 Z" fill="#000000" fill-rule="nonzero" fill-opacity="1" /><path clip-path="url(#clip010)" d="M1609.39 1456.77 L1613.36 1456.77 L1613.36 1461.55 L1609.39 1461.55 L1609.39 1456.77 Z" fill="#000000" fill-rule="nonzero" fill-opacity="1" /><path clip-path="url(#clip010)" d="M1621.67 1433.47 L1636.59 1433.47 L1636.59 1436.66 L1625.15 1436.66 L1625.15 1443.55 Q1625.98 1443.27 1626.81 1443.13 Q1627.64 1442.98 1628.46 1442.98 Q1633.17 1442.98 1635.91 1445.56 Q1638.66 1448.14 1638.66 1452.54 Q1638.66 1457.07 1635.84 1459.59 Q1633.02 1462.09 1627.88 1462.09 Q1626.11 1462.09 1624.27 1461.79 Q1622.45 1461.49 1620.49 1460.89 L1620.49 1457.07 Q1622.18 1457.99 1623.99 1458.44 Q1625.79 1458.89 1627.81 1458.89 Q1631.06 1458.89 1632.96 1457.18 Q1634.86 1455.47 1634.86 1452.54 Q1634.86 1449.6 1632.96 1447.89 Q1631.06 1446.18 1627.81 1446.18 Q1626.28 1446.18 1624.76 1446.52 Q1623.25 1446.86 1621.67 1447.57 L1621.67 1433.47 Z" fill="#000000" fill-rule="nonzero" fill-opacity="1" /><path clip-path="url(#clip010)" d="M2293.61 1485.02 L2301.25 1485.02 L2301.25 1458.66 L2292.94 1460.32 L2292.94 1456.06 L2301.2 1454.4 L2305.88 1454.4 L2305.88 1485.02 L2313.52 1485.02 L2313.52 1488.96 L2293.61 1488.96 L2293.61 1485.02 Z" fill="#000000" fill-rule="nonzero" fill-opacity="1" /><path clip-path="url(#clip010)" d="M2332.96 1457.48 Q2329.35 1457.48 2327.52 1461.04 Q2325.72 1464.58 2325.72 1471.71 Q2325.72 1478.82 2327.52 1482.38 Q2329.35 1485.92 2332.96 1485.92 Q2336.6 1485.92 2338.4 1482.38 Q2340.23 1478.82 2340.23 1471.71 Q2340.23 1464.58 2338.4 1461.04 Q2336.6 1457.48 2332.96 1457.48 M2332.96 1453.77 Q2338.77 1453.77 2341.83 1458.38 Q2344.91 1462.96 2344.91 1471.71 Q2344.91 1480.44 2341.83 1485.04 Q2338.77 1489.63 2332.96 1489.63 Q2327.15 1489.63 2324.07 1485.04 Q2321.02 1480.44 2321.02 1471.71 Q2321.02 1462.96 2324.07 1458.38 Q2327.15 1453.77 2332.96 1453.77 Z" fill="#000000" fill-rule="nonzero" fill-opacity="1" /><path clip-path="url(#clip010)" d="M2345.45 1458.35 L2351.66 1458.35 L2351.66 1436.93 L2344.91 1438.28 L2344.91 1434.82 L2351.62 1433.47 L2355.42 1433.47 L2355.42 1458.35 L2361.63 1458.35 L2361.63 1461.55 L2345.45 1461.55 L2345.45 1458.35 Z" fill="#000000" fill-rule="nonzero" fill-opacity="1" /><path clip-path="url(#clip010)" d="M2369.3 1456.77 L2373.27 1456.77 L2373.27 1461.55 L2369.3 1461.55 L2369.3 1456.77 Z" fill="#000000" fill-rule="nonzero" fill-opacity="1" /><path clip-path="url(#clip010)" d="M2389.67 1435.97 Q2386.74 1435.97 2385.25 1438.86 Q2383.78 1441.74 2383.78 1447.53 Q2383.78 1453.31 2385.25 1456.2 Q2386.74 1459.08 2389.67 1459.08 Q2392.62 1459.08 2394.09 1456.2 Q2395.57 1453.31 2395.57 1447.53 Q2395.57 1441.74 2394.09 1438.86 Q2392.62 1435.97 2389.67 1435.97 M2389.67 1432.96 Q2394.39 1432.96 2396.87 1436.7 Q2399.37 1440.43 2399.37 1447.53 Q2399.37 1454.62 2396.87 1458.37 Q2394.39 1462.09 2389.67 1462.09 Q2384.95 1462.09 2382.45 1458.37 Q2379.96 1454.62 2379.96 1447.53 Q2379.96 1440.43 2382.45 1436.7 Q2384.95 1432.96 2389.67 1432.96 Z" fill="#000000" fill-rule="nonzero" fill-opacity="1" /><path clip-path="url(#clip010)" d="M1029.53 1528.23 L1029.53 1534.5 Q1025.87 1532.74 1022.62 1531.89 Q1019.38 1531.03 1016.35 1531.03 Q1011.1 1531.03 1008.24 1533.06 Q1005.4 1535.1 1005.4 1538.86 Q1005.4 1542.01 1007.28 1543.63 Q1009.19 1545.22 1014.48 1546.21 L1018.36 1547 Q1025.55 1548.37 1028.96 1551.84 Q1032.4 1555.28 1032.4 1561.07 Q1032.4 1567.98 1027.75 1571.54 Q1023.13 1575.11 1014.19 1575.11 Q1010.82 1575.11 1007 1574.34 Q1003.21 1573.58 999.134 1572.08 L999.134 1565.46 Q1003.05 1567.66 1006.8 1568.77 Q1010.56 1569.89 1014.19 1569.89 Q1019.7 1569.89 1022.69 1567.72 Q1025.68 1565.56 1025.68 1561.55 Q1025.68 1558.05 1023.51 1556.08 Q1021.38 1554.1 1016.48 1553.11 L1012.57 1552.35 Q1005.37 1550.92 1002.16 1547.86 Q998.943 1544.81 998.943 1539.37 Q998.943 1533.06 1003.37 1529.43 Q1007.82 1525.81 1015.62 1525.81 Q1018.96 1525.81 1022.43 1526.41 Q1025.9 1527.02 1029.53 1528.23 Z" fill="#000000" fill-rule="nonzero" fill-opacity="1" /><path clip-path="url(#clip010)" d="M1042.17 1538.54 L1048.02 1538.54 L1048.02 1574.19 L1042.17 1574.19 L1042.17 1538.54 M1042.17 1524.66 L1048.02 1524.66 L1048.02 1532.08 L1042.17 1532.08 L1042.17 1524.66 Z" fill="#000000" fill-rule="nonzero" fill-opacity="1" /><path clip-path="url(#clip010)" d="M1088.03 1545.38 Q1090.23 1541.43 1093.28 1539.56 Q1096.34 1537.68 1100.48 1537.68 Q1106.05 1537.68 1109.07 1541.59 Q1112.09 1545.48 1112.09 1552.67 L1112.09 1574.19 L1106.21 1574.19 L1106.21 1552.86 Q1106.21 1547.74 1104.39 1545.25 Q1102.58 1542.77 1098.85 1542.77 Q1094.3 1542.77 1091.66 1545.79 Q1089.02 1548.82 1089.02 1554.04 L1089.02 1574.19 L1083.13 1574.19 L1083.13 1552.86 Q1083.13 1547.7 1081.32 1545.25 Q1079.5 1542.77 1075.71 1542.77 Q1071.23 1542.77 1068.58 1545.83 Q1065.94 1548.85 1065.94 1554.04 L1065.94 1574.19 L1060.05 1574.19 L1060.05 1538.54 L1065.94 1538.54 L1065.94 1544.08 Q1067.95 1540.8 1070.75 1539.24 Q1073.55 1537.68 1077.4 1537.68 Q1081.28 1537.68 1083.99 1539.65 Q1086.73 1541.62 1088.03 1545.38 Z" fill="#000000" fill-rule="nonzero" fill-opacity="1" /><path clip-path="url(#clip010)" d="M1123.17 1560.12 L1123.17 1538.54 L1129.03 1538.54 L1129.03 1559.89 Q1129.03 1564.96 1131 1567.5 Q1132.97 1570.02 1136.92 1570.02 Q1141.66 1570.02 1144.4 1566.99 Q1147.17 1563.97 1147.17 1558.75 L1147.17 1538.54 L1153.03 1538.54 L1153.03 1574.19 L1147.17 1574.19 L1147.17 1568.71 Q1145.04 1571.96 1142.2 1573.55 Q1139.4 1575.11 1135.68 1575.11 Q1129.54 1575.11 1126.35 1571.29 Q1123.17 1567.47 1123.17 1560.12 M1137.91 1537.68 L1137.91 1537.68 Z" fill="#000000" fill-rule="nonzero" fill-opacity="1" /><path clip-path="url(#clip010)" d="M1165.09 1524.66 L1170.94 1524.66 L1170.94 1574.19 L1165.09 1574.19 L1165.09 1524.66 Z" fill="#000000" fill-rule="nonzero" fill-opacity="1" /><path clip-path="url(#clip010)" d="M1199.4 1556.27 Q1192.3 1556.27 1189.56 1557.89 Q1186.83 1559.51 1186.83 1563.43 Q1186.83 1566.55 1188.86 1568.39 Q1190.93 1570.21 1194.47 1570.21 Q1199.34 1570.21 1202.26 1566.77 Q1205.22 1563.3 1205.22 1557.57 L1205.22 1556.27 L1199.4 1556.27 M1211.08 1553.85 L1211.08 1574.19 L1205.22 1574.19 L1205.22 1568.77 Q1203.22 1572.02 1200.23 1573.58 Q1197.24 1575.11 1192.91 1575.11 Q1187.43 1575.11 1184.19 1572.05 Q1180.97 1568.97 1180.97 1563.81 Q1180.97 1557.79 1184.98 1554.74 Q1189.02 1551.68 1197.01 1551.68 L1205.22 1551.68 L1205.22 1551.11 Q1205.22 1547.07 1202.55 1544.87 Q1199.91 1542.64 1195.1 1542.64 Q1192.05 1542.64 1189.15 1543.38 Q1186.25 1544.11 1183.58 1545.57 L1183.58 1540.16 Q1186.8 1538.92 1189.82 1538.31 Q1192.84 1537.68 1195.71 1537.68 Q1203.44 1537.68 1207.26 1541.69 Q1211.08 1545.7 1211.08 1553.85 Z" fill="#000000" fill-rule="nonzero" fill-opacity="1" /><path clip-path="url(#clip010)" d="M1228.94 1528.42 L1228.94 1538.54 L1241 1538.54 L1241 1543.09 L1228.94 1543.09 L1228.94 1562.44 Q1228.94 1566.8 1230.11 1568.04 Q1231.32 1569.28 1234.98 1569.28 L1241 1569.28 L1241 1574.19 L1234.98 1574.19 Q1228.2 1574.19 1225.63 1571.67 Q1223.05 1569.12 1223.05 1562.44 L1223.05 1543.09 L1218.75 1543.09 L1218.75 1538.54 L1223.05 1538.54 L1223.05 1528.42 L1228.94 1528.42 Z" fill="#000000" fill-rule="nonzero" fill-opacity="1" /><path clip-path="url(#clip010)" d="M1248.7 1538.54 L1254.56 1538.54 L1254.56 1574.19 L1248.7 1574.19 L1248.7 1538.54 M1248.7 1524.66 L1254.56 1524.66 L1254.56 1532.08 L1248.7 1532.08 L1248.7 1524.66 Z" fill="#000000" fill-rule="nonzero" fill-opacity="1" /><path clip-path="url(#clip010)" d="M1280.63 1542.64 Q1275.92 1542.64 1273.18 1546.34 Q1270.44 1550 1270.44 1556.39 Q1270.44 1562.79 1273.15 1566.48 Q1275.88 1570.14 1280.63 1570.14 Q1285.3 1570.14 1288.04 1566.45 Q1290.78 1562.76 1290.78 1556.39 Q1290.78 1550.06 1288.04 1546.37 Q1285.3 1542.64 1280.63 1542.64 M1280.63 1537.68 Q1288.26 1537.68 1292.63 1542.64 Q1296.99 1547.61 1296.99 1556.39 Q1296.99 1565.15 1292.63 1570.14 Q1288.26 1575.11 1280.63 1575.11 Q1272.96 1575.11 1268.59 1570.14 Q1264.27 1565.15 1264.27 1556.39 Q1264.27 1547.61 1268.59 1542.64 Q1272.96 1537.68 1280.63 1537.68 Z" fill="#000000" fill-rule="nonzero" fill-opacity="1" /><path clip-path="url(#clip010)" d="M1336.33 1552.67 L1336.33 1574.19 L1330.47 1574.19 L1330.47 1552.86 Q1330.47 1547.8 1328.5 1545.29 Q1326.52 1542.77 1322.58 1542.77 Q1317.83 1542.77 1315.1 1545.79 Q1312.36 1548.82 1312.36 1554.04 L1312.36 1574.19 L1306.47 1574.19 L1306.47 1538.54 L1312.36 1538.54 L1312.36 1544.08 Q1314.46 1540.86 1317.29 1539.27 Q1320.16 1537.68 1323.88 1537.68 Q1330.02 1537.68 1333.17 1541.5 Q1336.33 1545.29 1336.33 1552.67 Z" fill="#000000" fill-rule="nonzero" fill-opacity="1" /><path clip-path="url(#clip010)" d="M1374.52 1528.42 L1374.52 1538.54 L1386.58 1538.54 L1386.58 1543.09 L1374.52 1543.09 L1374.52 1562.44 Q1374.52 1566.8 1375.7 1568.04 Q1376.91 1569.28 1380.57 1569.28 L1386.58 1569.28 L1386.58 1574.19 L1380.57 1574.19 Q1373.79 1574.19 1371.21 1571.67 Q1368.63 1569.12 1368.63 1562.44 L1368.63 1543.09 L1364.33 1543.09 L1364.33 1538.54 L1368.63 1538.54 L1368.63 1528.42 L1374.52 1528.42 Z" fill="#000000" fill-rule="nonzero" fill-opacity="1" /><path clip-path="url(#clip010)" d="M1394.29 1538.54 L1400.14 1538.54 L1400.14 1574.19 L1394.29 1574.19 L1394.29 1538.54 M1394.29 1524.66 L1400.14 1524.66 L1400.14 1532.08 L1394.29 1532.08 L1394.29 1524.66 Z" fill="#000000" fill-rule="nonzero" fill-opacity="1" /><path clip-path="url(#clip010)" d="M1440.15 1545.38 Q1442.35 1541.43 1445.4 1539.56 Q1448.46 1537.68 1452.6 1537.68 Q1458.17 1537.68 1461.19 1541.59 Q1464.21 1545.48 1464.21 1552.67 L1464.21 1574.19 L1458.32 1574.19 L1458.32 1552.86 Q1458.32 1547.74 1456.51 1545.25 Q1454.7 1542.77 1450.97 1542.77 Q1446.42 1542.77 1443.78 1545.79 Q1441.14 1548.82 1441.14 1554.04 L1441.14 1574.19 L1435.25 1574.19 L1435.25 1552.86 Q1435.25 1547.7 1433.43 1545.25 Q1431.62 1542.77 1427.83 1542.77 Q1423.34 1542.77 1420.7 1545.83 Q1418.06 1548.85 1418.06 1554.04 L1418.06 1574.19 L1412.17 1574.19 L1412.17 1538.54 L1418.06 1538.54 L1418.06 1544.08 Q1420.07 1540.8 1422.87 1539.24 Q1425.67 1537.68 1429.52 1537.68 Q1433.4 1537.68 1436.11 1539.65 Q1438.85 1541.62 1440.15 1545.38 Z" fill="#000000" fill-rule="nonzero" fill-opacity="1" /><path clip-path="url(#clip010)" d="M1506.39 1554.9 L1506.39 1557.76 L1479.46 1557.76 Q1479.84 1563.81 1483.09 1566.99 Q1486.37 1570.14 1492.19 1570.14 Q1495.56 1570.14 1498.71 1569.32 Q1501.9 1568.49 1505.02 1566.83 L1505.02 1572.37 Q1501.87 1573.71 1498.56 1574.41 Q1495.25 1575.11 1491.84 1575.11 Q1483.31 1575.11 1478.31 1570.14 Q1473.35 1565.18 1473.35 1556.71 Q1473.35 1547.96 1478.06 1542.83 Q1482.8 1537.68 1490.82 1537.68 Q1498.01 1537.68 1502.18 1542.33 Q1506.39 1546.94 1506.39 1554.9 M1500.53 1553.18 Q1500.47 1548.37 1497.82 1545.51 Q1495.21 1542.64 1490.89 1542.64 Q1485.98 1542.64 1483.02 1545.41 Q1480.1 1548.18 1479.65 1553.21 L1500.53 1553.18 Z" fill="#000000" fill-rule="nonzero" fill-opacity="1" /><path clip-path="url(#clip010)" d="M1550.79 1524.72 Q1546.52 1532.04 1544.45 1539.21 Q1542.38 1546.37 1542.38 1553.72 Q1542.38 1561.07 1544.45 1568.3 Q1546.55 1575.49 1550.79 1582.78 L1545.69 1582.78 Q1540.92 1575.3 1538.53 1568.07 Q1536.18 1560.85 1536.18 1553.72 Q1536.18 1546.62 1538.53 1539.43 Q1540.89 1532.24 1545.69 1524.72 L1550.79 1524.72 Z" fill="#000000" fill-rule="nonzero" fill-opacity="1" /><path clip-path="url(#clip010)" d="M1584.87 1539.59 L1584.87 1545.13 Q1582.39 1543.85 1579.72 1543.22 Q1577.04 1542.58 1574.18 1542.58 Q1569.82 1542.58 1567.62 1543.92 Q1565.46 1545.25 1565.46 1547.93 Q1565.46 1549.96 1567.02 1551.14 Q1568.58 1552.29 1573.29 1553.34 L1575.29 1553.78 Q1581.53 1555.12 1584.14 1557.57 Q1586.78 1559.99 1586.78 1564.35 Q1586.78 1569.32 1582.84 1572.21 Q1578.92 1575.11 1572.05 1575.11 Q1569.18 1575.11 1566.06 1574.54 Q1562.98 1573.99 1559.54 1572.88 L1559.54 1566.83 Q1562.79 1568.52 1565.94 1569.38 Q1569.09 1570.21 1572.18 1570.21 Q1576.31 1570.21 1578.54 1568.81 Q1580.77 1567.37 1580.77 1564.8 Q1580.77 1562.41 1579.15 1561.14 Q1577.55 1559.86 1572.11 1558.68 L1570.07 1558.21 Q1564.63 1557.06 1562.21 1554.71 Q1559.79 1552.32 1559.79 1548.18 Q1559.79 1543.15 1563.36 1540.42 Q1566.92 1537.68 1573.48 1537.68 Q1576.73 1537.68 1579.59 1538.16 Q1582.46 1538.63 1584.87 1539.59 Z" fill="#000000" fill-rule="nonzero" fill-opacity="1" /><path clip-path="url(#clip010)" d="M1595.19 1524.72 L1600.28 1524.72 Q1605.05 1532.24 1607.41 1539.43 Q1609.8 1546.62 1609.8 1553.72 Q1609.8 1560.85 1607.41 1568.07 Q1605.05 1575.3 1600.28 1582.78 L1595.19 1582.78 Q1599.42 1575.49 1601.49 1568.3 Q1603.59 1561.07 1603.59 1553.72 Q1603.59 1546.37 1601.49 1539.21 Q1599.42 1532.04 1595.19 1524.72 Z" fill="#000000" fill-rule="nonzero" fill-opacity="1" /><polyline clip-path="url(#clip012)" style="stroke:#000000; stroke-linecap:round; stroke-linejoin:round; stroke-width:2; stroke-opacity:0.1; fill:none" points="255.984,951.683 2352.76,951.683 "/>
<polyline clip-path="url(#clip012)" style="stroke:#000000; stroke-linecap:round; stroke-linejoin:round; stroke-width:2; stroke-opacity:0.1; fill:none" points="255.984,227.953 2352.76,227.953 "/>
<polyline clip-path="url(#clip010)" style="stroke:#000000; stroke-linecap:round; stroke-linejoin:round; stroke-width:4; stroke-opacity:1; fill:none" points="255.984,1410.9 255.984,47.2441 "/>
<polyline clip-path="url(#clip010)" style="stroke:#000000; stroke-linecap:round; stroke-linejoin:round; stroke-width:4; stroke-opacity:1; fill:none" points="255.984,951.683 274.881,951.683 "/>
<polyline clip-path="url(#clip010)" style="stroke:#000000; stroke-linecap:round; stroke-linejoin:round; stroke-width:4; stroke-opacity:1; fill:none" points="255.984,227.953 274.881,227.953 "/>
<path clip-path="url(#clip010)" d="M119.844 971.476 L127.483 971.476 L127.483 945.11 L119.173 946.777 L119.173 942.518 L127.437 940.851 L132.113 940.851 L132.113 971.476 L139.751 971.476 L139.751 975.411 L119.844 975.411 L119.844 971.476 Z" fill="#000000" fill-rule="nonzero" fill-opacity="1" /><path clip-path="url(#clip010)" d="M159.196 943.93 Q155.585 943.93 153.756 947.494 Q151.95 951.036 151.95 958.166 Q151.95 965.272 153.756 968.837 Q155.585 972.379 159.196 972.379 Q162.83 972.379 164.635 968.837 Q166.464 965.272 166.464 958.166 Q166.464 951.036 164.635 947.494 Q162.83 943.93 159.196 943.93 M159.196 940.226 Q165.006 940.226 168.061 944.832 Q171.14 949.416 171.14 958.166 Q171.14 966.893 168.061 971.499 Q165.006 976.082 159.196 976.082 Q153.386 976.082 150.307 971.499 Q147.251 966.893 147.251 958.166 Q147.251 949.416 150.307 944.832 Q153.386 940.226 159.196 940.226 Z" fill="#000000" fill-rule="nonzero" fill-opacity="1" /><path clip-path="url(#clip010)" d="M171.14 934.327 L195.252 934.327 L195.252 937.525 L171.14 937.525 L171.14 934.327 Z" fill="#000000" fill-rule="nonzero" fill-opacity="1" /><path clip-path="url(#clip010)" d="M206.724 944.803 L219.984 944.803 L219.984 948.001 L202.154 948.001 L202.154 944.803 Q204.317 942.565 208.041 938.804 Q211.784 935.023 212.743 933.932 Q214.567 931.882 215.282 930.472 Q216.015 929.042 216.015 927.669 Q216.015 925.431 214.436 924.021 Q212.875 922.61 210.354 922.61 Q208.568 922.61 206.574 923.231 Q204.599 923.851 202.342 925.112 L202.342 921.275 Q204.637 920.353 206.63 919.883 Q208.624 919.413 210.279 919.413 Q214.642 919.413 217.238 921.594 Q219.833 923.776 219.833 927.425 Q219.833 929.155 219.175 930.716 Q218.536 932.258 216.824 934.365 Q216.354 934.91 213.834 937.525 Q211.313 940.12 206.724 944.803 Z" fill="#000000" fill-rule="nonzero" fill-opacity="1" /><path clip-path="url(#clip010)" d="M149.278 247.745 L156.917 247.745 L156.917 221.38 L148.607 223.046 L148.607 218.787 L156.871 217.12 L161.547 217.12 L161.547 247.745 L169.186 247.745 L169.186 251.68 L149.278 251.68 L149.278 247.745 Z" fill="#000000" fill-rule="nonzero" fill-opacity="1" /><path clip-path="url(#clip010)" d="M188.63 220.199 Q185.019 220.199 183.19 223.764 Q181.385 227.305 181.385 234.435 Q181.385 241.541 183.19 245.106 Q185.019 248.648 188.63 248.648 Q192.264 248.648 194.07 245.106 Q195.898 241.541 195.898 234.435 Q195.898 227.305 194.07 223.764 Q192.264 220.199 188.63 220.199 M188.63 216.495 Q194.44 216.495 197.496 221.102 Q200.574 225.685 200.574 234.435 Q200.574 243.162 197.496 247.768 Q194.44 252.352 188.63 252.352 Q182.82 252.352 179.741 247.768 Q176.685 243.162 176.685 234.435 Q176.685 225.685 179.741 221.102 Q182.82 216.495 188.63 216.495 Z" fill="#000000" fill-rule="nonzero" fill-opacity="1" /><path clip-path="url(#clip010)" d="M210.279 198.691 Q207.345 198.691 205.859 201.588 Q204.392 204.465 204.392 210.258 Q204.392 216.032 205.859 218.929 Q207.345 221.806 210.279 221.806 Q213.232 221.806 214.699 218.929 Q216.185 216.032 216.185 210.258 Q216.185 204.465 214.699 201.588 Q213.232 198.691 210.279 198.691 M210.279 195.682 Q215 195.682 217.482 199.425 Q219.984 203.149 219.984 210.258 Q219.984 217.349 217.482 221.091 Q215 224.815 210.279 224.815 Q205.558 224.815 203.057 221.091 Q200.574 217.349 200.574 210.258 Q200.574 203.149 203.057 199.425 Q205.558 195.682 210.279 195.682 Z" fill="#000000" fill-rule="nonzero" fill-opacity="1" /><path clip-path="url(#clip010)" d="M43.5177 1098.13 L43.5177 1088.55 L75.8554 1076.42 L43.5177 1064.23 L43.5177 1054.65 L91.0377 1054.65 L91.0377 1060.92 L49.3104 1060.92 L81.9029 1073.18 L81.9029 1079.64 L49.3104 1091.89 L91.0377 1091.89 L91.0377 1098.13 L43.5177 1098.13 Z" fill="#000000" fill-rule="nonzero" fill-opacity="1" /><path clip-path="url(#clip010)" d="M73.1182 1025.94 Q73.1182 1033.04 74.7414 1035.78 Q76.3647 1038.52 80.2796 1038.52 Q83.3988 1038.52 85.2449 1036.48 Q87.0591 1034.41 87.0591 1030.88 Q87.0591 1026.01 83.6216 1023.08 Q80.1523 1020.12 74.4232 1020.12 L73.1182 1020.12 L73.1182 1025.94 M70.6992 1014.26 L91.0377 1014.26 L91.0377 1020.12 L85.6268 1020.12 Q88.8733 1022.12 90.4329 1025.12 Q91.9607 1028.11 91.9607 1032.44 Q91.9607 1037.91 88.9051 1041.16 Q85.8178 1044.37 80.6616 1044.37 Q74.646 1044.37 71.5904 1040.36 Q68.5349 1036.32 68.5349 1028.33 L68.5349 1020.12 L67.962 1020.12 Q63.9197 1020.12 61.7236 1022.79 Q59.4956 1025.44 59.4956 1030.24 Q59.4956 1033.3 60.2276 1036.19 Q60.9597 1039.09 62.4238 1041.76 L57.013 1041.76 Q55.7716 1038.55 55.1669 1035.52 Q54.5303 1032.5 54.5303 1029.64 Q54.5303 1021.9 58.5407 1018.08 Q62.5511 1014.26 70.6992 1014.26 Z" fill="#000000" fill-rule="nonzero" fill-opacity="1" /><path clip-path="url(#clip010)" d="M55.3897 972.568 L72.7362 985.458 L91.0377 971.9 L91.0377 978.806 L77.0331 989.182 L91.0377 999.559 L91.0377 1006.47 L72.3861 992.62 L55.3897 1005.29 L55.3897 998.381 L68.0893 988.928 L55.3897 979.475 L55.3897 972.568 Z" fill="#000000" fill-rule="nonzero" fill-opacity="1" /><path clip-path="url(#clip010)" d="M73.1182 926.703 Q73.1182 933.801 74.7414 936.538 Q76.3647 939.275 80.2796 939.275 Q83.3988 939.275 85.2449 937.238 Q87.0591 935.169 87.0591 931.636 Q87.0591 926.767 83.6216 923.838 Q80.1523 920.878 74.4232 920.878 L73.1182 920.878 L73.1182 926.703 M70.6992 915.022 L91.0377 915.022 L91.0377 920.878 L85.6268 920.878 Q88.8733 922.884 90.4329 925.875 Q91.9607 928.867 91.9607 933.196 Q91.9607 938.671 88.9051 941.917 Q85.8178 945.132 80.6616 945.132 Q74.646 945.132 71.5904 941.121 Q68.5349 937.079 68.5349 929.09 L68.5349 920.878 L67.962 920.878 Q63.9197 920.878 61.7236 923.552 Q59.4956 926.194 59.4956 931 Q59.4956 934.055 60.2276 936.952 Q60.9597 939.848 62.4238 942.522 L57.013 942.522 Q55.7716 939.307 55.1669 936.283 Q54.5303 933.26 54.5303 930.395 Q54.5303 922.661 58.5407 918.841 Q62.5511 915.022 70.6992 915.022 Z" fill="#000000" fill-rule="nonzero" fill-opacity="1" /><path clip-path="url(#clip010)" d="M73.2455 877.369 Q66.7843 877.369 63.124 880.042 Q59.4319 882.684 59.4319 887.331 Q59.4319 891.978 63.124 894.652 Q66.7843 897.293 73.2455 897.293 Q79.7067 897.293 83.3988 894.652 Q87.0591 891.978 87.0591 887.331 Q87.0591 882.684 83.3988 880.042 Q79.7067 877.369 73.2455 877.369 M60.8005 897.293 Q57.6177 895.447 56.0899 892.646 Q54.5303 889.814 54.5303 885.899 Q54.5303 879.406 59.6865 875.364 Q64.8428 871.29 73.2455 871.29 Q81.6482 871.29 86.8045 875.364 Q91.9607 879.406 91.9607 885.899 Q91.9607 889.814 90.4329 892.646 Q88.8733 895.447 85.6905 897.293 L91.0377 897.293 L91.0377 903.182 L41.5125 903.182 L41.5125 897.293 L60.8005 897.293 Z" fill="#000000" fill-rule="nonzero" fill-opacity="1" /><path clip-path="url(#clip010)" d="M56.44 838.856 L61.9782 838.856 Q60.7051 841.339 60.0685 844.012 Q59.4319 846.686 59.4319 849.551 Q59.4319 853.911 60.7687 856.107 Q62.1055 858.272 64.7791 858.272 Q66.8161 858.272 67.9938 856.712 Q69.1396 855.152 70.19 850.442 L70.6356 848.437 Q71.9724 842.198 74.4232 839.588 Q76.8421 836.947 81.2026 836.947 Q86.1679 836.947 89.0643 840.893 Q91.9607 844.808 91.9607 851.683 Q91.9607 854.548 91.3878 857.667 Q90.8467 860.754 89.7327 864.192 L83.6853 864.192 Q85.3722 860.945 86.2315 857.794 Q87.0591 854.643 87.0591 851.556 Q87.0591 847.418 85.6586 845.19 Q84.2263 842.962 81.6482 842.962 Q79.2611 842.962 77.988 844.585 Q76.7148 846.177 75.5372 851.619 L75.0597 853.657 Q73.9139 859.099 71.5586 861.518 Q69.1714 863.937 65.0337 863.937 Q60.0048 863.937 57.2676 860.372 Q54.5303 856.808 54.5303 850.251 Q54.5303 847.004 55.0078 844.14 Q55.4852 841.275 56.44 838.856 Z" fill="#000000" fill-rule="nonzero" fill-opacity="1" /><path clip-path="url(#clip010)" d="M71.7496 776.409 L74.6141 776.409 L74.6141 803.336 Q80.6616 802.954 83.8444 799.707 Q86.9954 796.429 86.9954 790.604 Q86.9954 787.23 86.1679 784.079 Q85.3403 780.896 83.6853 777.777 L89.2234 777.777 Q90.5602 780.928 91.2605 784.238 Q91.9607 787.549 91.9607 790.954 Q91.9607 799.484 86.9954 804.481 Q82.0302 809.447 73.5638 809.447 Q64.8109 809.447 59.6865 804.736 Q54.5303 799.994 54.5303 791.973 Q54.5303 784.78 59.1773 780.61 Q63.7924 776.409 71.7496 776.409 M70.0308 782.265 Q65.2247 782.329 62.3601 784.971 Q59.4956 787.58 59.4956 791.909 Q59.4956 796.811 62.2647 799.771 Q65.0337 802.699 70.0626 803.145 L70.0308 782.265 Z" fill="#000000" fill-rule="nonzero" fill-opacity="1" /><path clip-path="url(#clip010)" d="M60.8642 746.14 Q60.2913 747.126 60.0367 748.304 Q59.7502 749.45 59.7502 750.85 Q59.7502 755.816 62.9967 758.489 Q66.2114 761.131 72.2588 761.131 L91.0377 761.131 L91.0377 767.019 L55.3897 767.019 L55.3897 761.131 L60.9279 761.131 Q57.6813 759.285 56.1218 756.325 Q54.5303 753.365 54.5303 749.132 Q54.5303 748.527 54.6258 747.795 Q54.6895 747.063 54.8486 746.172 L60.8642 746.14 Z" fill="#000000" fill-rule="nonzero" fill-opacity="1" /><path clip-path="url(#clip010)" d="M60.8642 720.486 Q60.2913 721.473 60.0367 722.65 Q59.7502 723.796 59.7502 725.197 Q59.7502 730.162 62.9967 732.835 Q66.2114 735.477 72.2588 735.477 L91.0377 735.477 L91.0377 741.365 L55.3897 741.365 L55.3897 735.477 L60.9279 735.477 Q57.6813 733.631 56.1218 730.671 Q54.5303 727.711 54.5303 723.478 Q54.5303 722.873 54.6258 722.141 Q54.6895 721.409 54.8486 720.518 L60.8642 720.486 Z" fill="#000000" fill-rule="nonzero" fill-opacity="1" /><path clip-path="url(#clip010)" d="M59.4956 701.962 Q59.4956 706.672 63.1877 709.41 Q66.848 712.147 73.2455 712.147 Q79.643 712.147 83.3351 709.441 Q86.9954 706.704 86.9954 701.962 Q86.9954 697.283 83.3033 694.546 Q79.6112 691.808 73.2455 691.808 Q66.9116 691.808 63.2195 694.546 Q59.4956 697.283 59.4956 701.962 M54.5303 701.962 Q54.5303 694.323 59.4956 689.962 Q64.4608 685.602 73.2455 685.602 Q81.9983 685.602 86.9954 689.962 Q91.9607 694.323 91.9607 701.962 Q91.9607 709.632 86.9954 713.993 Q81.9983 718.322 73.2455 718.322 Q64.4608 718.322 59.4956 713.993 Q54.5303 709.632 54.5303 701.962 Z" fill="#000000" fill-rule="nonzero" fill-opacity="1" /><path clip-path="url(#clip010)" d="M60.8642 655.237 Q60.2913 656.224 60.0367 657.402 Q59.7502 658.548 59.7502 659.948 Q59.7502 664.913 62.9967 667.587 Q66.2114 670.229 72.2588 670.229 L91.0377 670.229 L91.0377 676.117 L55.3897 676.117 L55.3897 670.229 L60.9279 670.229 Q57.6813 668.383 56.1218 665.423 Q54.5303 662.463 54.5303 658.229 Q54.5303 657.625 54.6258 656.893 Q54.6895 656.16 54.8486 655.269 L60.8642 655.237 Z" fill="#000000" fill-rule="nonzero" fill-opacity="1" /><path clip-path="url(#clip010)" d="M41.5761 614.306 Q48.8967 618.571 56.0581 620.64 Q63.2195 622.709 70.5719 622.709 Q77.9243 622.709 85.1494 620.64 Q92.3426 618.539 99.6314 614.306 L99.6314 619.399 Q92.1517 624.173 84.9266 626.56 Q77.7015 628.915 70.5719 628.915 Q63.4741 628.915 56.2809 626.56 Q49.0876 624.205 41.5761 619.399 L41.5761 614.306 Z" fill="#000000" fill-rule="nonzero" fill-opacity="1" /><path clip-path="url(#clip010)" d="M62.2328 575.189 Q58.2861 572.993 56.4082 569.937 Q54.5303 566.881 54.5303 562.744 Q54.5303 557.174 58.4452 554.15 Q62.3283 551.126 69.5216 551.126 L91.0377 551.126 L91.0377 557.015 L69.7125 557.015 Q64.5881 557.015 62.1055 558.829 Q59.6229 560.643 59.6229 564.367 Q59.6229 568.918 62.6466 571.56 Q65.6703 574.202 70.8902 574.202 L91.0377 574.202 L91.0377 580.09 L69.7125 580.09 Q64.5563 580.09 62.1055 581.905 Q59.6229 583.719 59.6229 587.506 Q59.6229 591.994 62.6784 594.636 Q65.7021 597.278 70.8902 597.278 L91.0377 597.278 L91.0377 603.166 L55.3897 603.166 L55.3897 597.278 L60.9279 597.278 Q57.6495 595.272 56.0899 592.472 Q54.5303 589.671 54.5303 585.819 Q54.5303 581.936 56.5037 579.231 Q58.4771 576.494 62.2328 575.189 Z" fill="#000000" fill-rule="nonzero" fill-opacity="1" /><path clip-path="url(#clip010)" d="M59.4956 525.632 Q59.4956 530.342 63.1877 533.08 Q66.848 535.817 73.2455 535.817 Q79.643 535.817 83.3351 533.111 Q86.9954 530.374 86.9954 525.632 Q86.9954 520.953 83.3033 518.216 Q79.6112 515.478 73.2455 515.478 Q66.9116 515.478 63.2195 518.216 Q59.4956 520.953 59.4956 525.632 M54.5303 525.632 Q54.5303 517.993 59.4956 513.632 Q64.4608 509.272 73.2455 509.272 Q81.9983 509.272 86.9954 513.632 Q91.9607 517.993 91.9607 525.632 Q91.9607 533.302 86.9954 537.663 Q81.9983 541.992 73.2455 541.992 Q64.4608 541.992 59.4956 537.663 Q54.5303 533.302 54.5303 525.632 Z" fill="#000000" fill-rule="nonzero" fill-opacity="1" /><path clip-path="url(#clip010)" d="M41.5125 499.564 L41.5125 493.708 L91.0377 493.708 L91.0377 499.564 L41.5125 499.564 Z" fill="#000000" fill-rule="nonzero" fill-opacity="1" /><path clip-path="url(#clip010)" d="M43.5177 471.046 L43.5177 465.635 L97.0851 482.186 L97.0851 487.597 L43.5177 471.046 Z" fill="#000000" fill-rule="nonzero" fill-opacity="1" /><path clip-path="url(#clip010)" d="M62.2328 431.737 Q58.2861 429.541 56.4082 426.486 Q54.5303 423.43 54.5303 419.293 Q54.5303 413.723 58.4452 410.699 Q62.3283 407.675 69.5216 407.675 L91.0377 407.675 L91.0377 413.563 L69.7125 413.563 Q64.5881 413.563 62.1055 415.378 Q59.6229 417.192 59.6229 420.916 Q59.6229 425.467 62.6466 428.109 Q65.6703 430.751 70.8902 430.751 L91.0377 430.751 L91.0377 436.639 L69.7125 436.639 Q64.5563 436.639 62.1055 438.453 Q59.6229 440.268 59.6229 444.055 Q59.6229 448.543 62.6784 451.185 Q65.7021 453.826 70.8902 453.826 L91.0377 453.826 L91.0377 459.715 L55.3897 459.715 L55.3897 453.826 L60.9279 453.826 Q57.6495 451.821 56.0899 449.02 Q54.5303 446.219 54.5303 442.368 Q54.5303 438.485 56.5037 435.78 Q58.4771 433.042 62.2328 431.737 Z" fill="#000000" fill-rule="nonzero" fill-opacity="1" /><path clip-path="url(#clip010)" d="M36.6275 400.635 Q35.2523 400.635 34.5985 399.846 Q33.9448 399.057 33.9448 398.043 Q33.9448 396.983 34.6436 396.239 Q35.32 395.473 36.5148 395.473 Q37.7998 395.473 38.5212 396.374 Q39.2426 397.253 39.0623 398.516 Q40.9109 397.411 41.745 395.382 Q42.5792 393.331 42.5792 391.437 Q42.5792 389.453 40.8658 387.853 Q39.1525 386.229 34.9592 386.229 Q31.3973 386.229 29.3458 387.627 Q27.2943 389.002 27.2943 391.73 L27.2943 393.759 Q27.2943 394.458 27.2266 394.661 Q27.159 394.864 26.7757 394.864 Q26.3249 394.864 26.2347 394.165 Q26.2347 393.466 26.0994 392.361 Q26.0092 389.679 23.6872 388.258 Q21.523 386.973 18.4344 386.973 Q15.6164 386.973 14.4441 388.326 Q13.2493 389.656 13.2493 391.392 Q13.2493 393.015 13.9256 394.796 Q14.6019 396.577 16.1124 397.547 Q16.1124 394.683 18.4344 394.683 Q19.4489 394.683 20.1252 395.337 Q20.779 395.968 20.779 397.028 Q20.779 398.043 20.1478 398.719 Q19.494 399.395 18.3893 399.395 Q15.7517 399.395 13.9256 397.051 Q12.0995 394.683 12.0995 391.212 Q12.0995 387.785 13.9031 385.26 Q15.7066 382.713 18.4795 382.713 Q21.2073 382.713 23.4392 384.516 Q25.6711 386.32 26.5954 389.183 Q27.2943 385.666 29.6839 383.569 Q32.0511 381.473 34.9592 381.473 Q38.5663 381.473 41.2265 384.313 Q43.8642 387.154 43.8642 391.302 Q43.8642 395.134 41.7901 397.885 Q39.7161 400.635 36.6275 400.635 Z" fill="#000000" fill-rule="nonzero" fill-opacity="1" /><path clip-path="url(#clip010)" d="M41.5761 374.619 L41.5761 369.526 Q49.0876 364.752 56.2809 362.396 Q63.4741 360.009 70.5719 360.009 Q77.7015 360.009 84.9266 362.396 Q92.1517 364.752 99.6314 369.526 L99.6314 374.619 Q92.3426 370.385 85.1494 368.317 Q77.9243 366.216 70.5719 366.216 Q63.2195 366.216 56.0581 368.317 Q48.8967 370.385 41.5761 374.619 Z" fill="#000000" fill-rule="nonzero" fill-opacity="1" /><polyline clip-path="url(#clip012)" style="stroke:#008000; stroke-linecap:round; stroke-linejoin:round; stroke-width:4; stroke-opacity:1; fill:none" stroke-dasharray="2, 4" points="660.801,85.838 1185.98,620.271 1664.62,1359.95 2293.41,1372.3 "/>
<path clip-path="url(#clip012)" d="M660.801 105.838 L643.481 95.838 L643.481 75.838 L660.801 65.838 L678.121 75.838 L678.121 95.838 Z" fill="#008000" fill-rule="evenodd" fill-opacity="1" stroke="#000000" stroke-opacity="1" stroke-width="3.2"/>
<path clip-path="url(#clip012)" d="M1185.98 640.271 L1168.66 630.271 L1168.66 610.271 L1185.98 600.271 L1203.3 610.271 L1203.3 630.271 Z" fill="#008000" fill-rule="evenodd" fill-opacity="1" stroke="#000000" stroke-opacity="1" stroke-width="3.2"/>
<path clip-path="url(#clip012)" d="M1664.62 1379.95 L1647.3 1369.95 L1647.3 1349.95 L1664.62 1339.95 L1681.94 1349.95 L1681.94 1369.95 Z" fill="#008000" fill-rule="evenodd" fill-opacity="1" stroke="#000000" stroke-opacity="1" stroke-width="3.2"/>
<path clip-path="url(#clip012)" d="M2293.41 1392.3 L2276.09 1382.3 L2276.09 1362.3 L2293.41 1352.3 L2310.73 1362.3 L2310.73 1382.3 Z" fill="#008000" fill-rule="evenodd" fill-opacity="1" stroke="#000000" stroke-opacity="1" stroke-width="3.2"/>
<polyline clip-path="url(#clip012)" style="stroke:#a92a00; stroke-linecap:round; stroke-linejoin:round; stroke-width:4; stroke-opacity:1; fill:none" stroke-dasharray="2, 4" points="947.189,85.838 1208.15,620.271 1720.96,1359.95 2287.43,1372.3 "/>
<path clip-path="url(#clip012)" d="M947.189 105.838 L929.869 95.838 L929.869 75.838 L947.189 65.838 L964.509 75.838 L964.509 95.838 Z" fill="#a92a00" fill-rule="evenodd" fill-opacity="1" stroke="#000000" stroke-opacity="1" stroke-width="3.2"/>
<path clip-path="url(#clip012)" d="M1208.15 640.271 L1190.83 630.271 L1190.83 610.271 L1208.15 600.271 L1225.47 610.271 L1225.47 630.271 Z" fill="#a92a00" fill-rule="evenodd" fill-opacity="1" stroke="#000000" stroke-opacity="1" stroke-width="3.2"/>
<path clip-path="url(#clip012)" d="M1720.96 1379.95 L1703.64 1369.95 L1703.64 1349.95 L1720.96 1339.95 L1738.28 1349.95 L1738.28 1369.95 Z" fill="#a92a00" fill-rule="evenodd" fill-opacity="1" stroke="#000000" stroke-opacity="1" stroke-width="3.2"/>
<path clip-path="url(#clip012)" d="M2287.43 1392.3 L2270.11 1382.3 L2270.11 1362.3 L2287.43 1352.3 L2304.75 1362.3 L2304.75 1382.3 Z" fill="#a92a00" fill-rule="evenodd" fill-opacity="1" stroke="#000000" stroke-opacity="1" stroke-width="3.2"/>
<polyline clip-path="url(#clip012)" style="stroke:#ffa500; stroke-linecap:round; stroke-linejoin:round; stroke-width:4; stroke-opacity:1; fill:none" stroke-dasharray="2, 4" points="315.326,85.838 849.745,620.271 1425.21,1359.95 2087.86,1372.3 "/>
<path clip-path="url(#clip012)" d="M315.326 65.838 L295.326 85.838 L315.326 105.838 L335.326 85.838 L315.326 65.838 Z" fill="#ffa500" fill-rule="evenodd" fill-opacity="1" stroke="#000000" stroke-opacity="1" stroke-width="3.2"/>
<path clip-path="url(#clip012)" d="M849.745 600.271 L829.745 620.271 L849.745 640.271 L869.745 620.271 L849.745 600.271 Z" fill="#ffa500" fill-rule="evenodd" fill-opacity="1" stroke="#000000" stroke-opacity="1" stroke-width="3.2"/>
<path clip-path="url(#clip012)" d="M1425.21 1339.95 L1405.21 1359.95 L1425.21 1379.95 L1445.21 1359.95 L1425.21 1339.95 Z" fill="#ffa500" fill-rule="evenodd" fill-opacity="1" stroke="#000000" stroke-opacity="1" stroke-width="3.2"/>
<path clip-path="url(#clip012)" d="M2087.86 1352.3 L2067.86 1372.3 L2087.86 1392.3 L2107.86 1372.3 L2087.86 1352.3 Z" fill="#ffa500" fill-rule="evenodd" fill-opacity="1" stroke="#000000" stroke-opacity="1" stroke-width="3.2"/>
<polyline clip-path="url(#clip012)" style="stroke:#aa8c55; stroke-linecap:round; stroke-linejoin:round; stroke-width:4; stroke-opacity:1; fill:none" stroke-dasharray="2, 4" points="461.188,85.838 971.908,620.271 1534.82,1359.95 2149.94,1372.3 "/>
<path clip-path="url(#clip012)" d="M461.188 65.838 L441.188 85.838 L461.188 105.838 L481.188 85.838 L461.188 65.838 Z" fill="#aa8c55" fill-rule="evenodd" fill-opacity="1" stroke="#000000" stroke-opacity="1" stroke-width="3.2"/>
<path clip-path="url(#clip012)" d="M971.908 600.271 L951.908 620.271 L971.908 640.271 L991.908 620.271 L971.908 600.271 Z" fill="#aa8c55" fill-rule="evenodd" fill-opacity="1" stroke="#000000" stroke-opacity="1" stroke-width="3.2"/>
<path clip-path="url(#clip012)" d="M1534.82 1339.95 L1514.82 1359.95 L1534.82 1379.95 L1554.82 1359.95 L1534.82 1339.95 Z" fill="#aa8c55" fill-rule="evenodd" fill-opacity="1" stroke="#000000" stroke-opacity="1" stroke-width="3.2"/>
<path clip-path="url(#clip012)" d="M2149.94 1352.3 L2129.94 1372.3 L2149.94 1392.3 L2169.94 1372.3 L2149.94 1352.3 Z" fill="#aa8c55" fill-rule="evenodd" fill-opacity="1" stroke="#000000" stroke-opacity="1" stroke-width="3.2"/>
<polyline clip-path="url(#clip012)" style="stroke:#0000ff; stroke-linecap:round; stroke-linejoin:round; stroke-width:4; stroke-opacity:1; fill:none" stroke-dasharray="2, 4" points="335.826,85.838 861.499,620.271 1434.11,1359.95 2049.09,1372.3 "/>
<path clip-path="url(#clip012)" d="M335.826 65.838 L331.126 79.358 L316.806 79.658 L328.226 88.318 L324.066 102.018 L335.826 93.838 L347.586 102.018 L343.426 88.318 L354.846 79.658 L340.526 79.358 L335.826 65.838 Z" fill="#0000ff" fill-rule="evenodd" fill-opacity="1" stroke="#000000" stroke-opacity="1" stroke-width="3.2"/>
<path clip-path="url(#clip012)" d="M861.499 600.271 L856.799 613.791 L842.479 614.091 L853.899 622.751 L849.739 636.451 L861.499 628.271 L873.259 636.451 L869.099 622.751 L880.519 614.091 L866.199 613.791 L861.499 600.271 Z" fill="#0000ff" fill-rule="evenodd" fill-opacity="1" stroke="#000000" stroke-opacity="1" stroke-width="3.2"/>
<path clip-path="url(#clip012)" d="M1434.11 1339.95 L1429.41 1353.47 L1415.09 1353.77 L1426.51 1362.43 L1422.35 1376.13 L1434.11 1367.95 L1445.87 1376.13 L1441.71 1362.43 L1453.13 1353.77 L1438.81 1353.47 L1434.11 1339.95 Z" fill="#0000ff" fill-rule="evenodd" fill-opacity="1" stroke="#000000" stroke-opacity="1" stroke-width="3.2"/>
<path clip-path="url(#clip012)" d="M2049.09 1352.3 L2044.39 1365.82 L2030.07 1366.12 L2041.49 1374.78 L2037.33 1388.48 L2049.09 1380.3 L2060.85 1388.48 L2056.69 1374.78 L2068.11 1366.12 L2053.79 1365.82 L2049.09 1352.3 Z" fill="#0000ff" fill-rule="evenodd" fill-opacity="1" stroke="#000000" stroke-opacity="1" stroke-width="3.2"/>
<polyline clip-path="url(#clip012)" style="stroke:#a9a955; stroke-linecap:round; stroke-linejoin:round; stroke-width:4; stroke-opacity:1; fill:none" stroke-dasharray="2, 4" points="473.082,85.838 975.506,620.271 1534,1359.95 2194.92,1372.3 "/>
<path clip-path="url(#clip012)" d="M473.082 65.838 L468.382 79.358 L454.062 79.658 L465.482 88.318 L461.322 102.018 L473.082 93.838 L484.842 102.018 L480.682 88.318 L492.102 79.658 L477.782 79.358 L473.082 65.838 Z" fill="#a9a955" fill-rule="evenodd" fill-opacity="1" stroke="#000000" stroke-opacity="1" stroke-width="3.2"/>
<path clip-path="url(#clip012)" d="M975.506 600.271 L970.806 613.791 L956.486 614.091 L967.906 622.751 L963.746 636.451 L975.506 628.271 L987.266 636.451 L983.106 622.751 L994.526 614.091 L980.206 613.791 L975.506 600.271 Z" fill="#a9a955" fill-rule="evenodd" fill-opacity="1" stroke="#000000" stroke-opacity="1" stroke-width="3.2"/>
<path clip-path="url(#clip012)" d="M1534 1339.95 L1529.3 1353.47 L1514.98 1353.77 L1526.4 1362.43 L1522.24 1376.13 L1534 1367.95 L1545.76 1376.13 L1541.6 1362.43 L1553.02 1353.77 L1538.7 1353.47 L1534 1339.95 Z" fill="#a9a955" fill-rule="evenodd" fill-opacity="1" stroke="#000000" stroke-opacity="1" stroke-width="3.2"/>
<path clip-path="url(#clip012)" d="M2194.92 1352.3 L2190.22 1365.82 L2175.9 1366.12 L2187.32 1374.78 L2183.16 1388.48 L2194.92 1380.3 L2206.68 1388.48 L2202.52 1374.78 L2213.94 1366.12 L2199.62 1365.82 L2194.92 1352.3 Z" fill="#a9a955" fill-rule="evenodd" fill-opacity="1" stroke="#000000" stroke-opacity="1" stroke-width="3.2"/>
<path clip-path="url(#clip010)" d="M1814.76 455.579 L2282.86 455.579 L2282.86 92.6992 L1814.76 92.6992  Z" fill="#ffffff" fill-rule="evenodd" fill-opacity="1"/>
<polyline clip-path="url(#clip010)" style="stroke:#000000; stroke-linecap:round; stroke-linejoin:round; stroke-width:4; stroke-opacity:1; fill:none" points="1814.76,455.579 2282.86,455.579 2282.86,92.6992 1814.76,92.6992 1814.76,455.579 "/>
<polyline clip-path="url(#clip010)" style="stroke:#008000; stroke-linecap:round; stroke-linejoin:round; stroke-width:4; stroke-opacity:1; fill:none" stroke-dasharray="2, 4" points="1838.06,144.539 1977.84,144.539 "/>
<path clip-path="url(#clip010)" d="M1907.95 166.111 L1889.27 155.325 L1889.27 133.753 L1907.95 122.967 L1926.63 133.753 L1926.63 155.325 Z" fill="#008000" fill-rule="evenodd" fill-opacity="1" stroke="#000000" stroke-opacity="1" stroke-width="3.72364"/>
<path clip-path="url(#clip010)" d="M2001.14 127.259 L2021 127.259 L2021 131.194 L2005.82 131.194 L2005.82 141.379 L2019.52 141.379 L2019.52 145.315 L2005.82 145.315 L2005.82 161.819 L2001.14 161.819 L2001.14 127.259 Z" fill="#000000" fill-rule="nonzero" fill-opacity="1" /><path clip-path="url(#clip010)" d="M2033.09 145.315 L2033.09 157.977 L2040.59 157.977 Q2044.36 157.977 2046.16 156.426 Q2047.99 154.852 2047.99 151.634 Q2047.99 148.393 2046.16 146.866 Q2044.36 145.315 2040.59 145.315 L2033.09 145.315 M2033.09 131.102 L2033.09 141.518 L2040.01 141.518 Q2043.43 141.518 2045.1 140.245 Q2046.79 138.949 2046.79 136.31 Q2046.79 133.694 2045.1 132.398 Q2043.43 131.102 2040.01 131.102 L2033.09 131.102 M2028.41 127.259 L2040.35 127.259 Q2045.7 127.259 2048.59 129.481 Q2051.49 131.704 2051.49 135.801 Q2051.49 138.972 2050.01 140.847 Q2048.53 142.722 2045.66 143.185 Q2049.1 143.926 2051 146.287 Q2052.92 148.625 2052.92 152.143 Q2052.92 156.773 2049.78 159.296 Q2046.63 161.819 2040.82 161.819 L2028.41 161.819 L2028.41 127.259 Z" fill="#000000" fill-rule="nonzero" fill-opacity="1" /><path clip-path="url(#clip010)" d="M2065.61 131.102 L2065.61 157.977 L2071.26 157.977 Q2078.41 157.977 2081.72 154.736 Q2085.05 151.495 2085.05 144.504 Q2085.05 137.56 2081.72 134.342 Q2078.41 131.102 2071.26 131.102 L2065.61 131.102 M2060.93 127.259 L2070.54 127.259 Q2080.59 127.259 2085.28 131.449 Q2089.98 135.616 2089.98 144.504 Q2089.98 153.44 2085.26 157.629 Q2080.54 161.819 2070.54 161.819 L2060.93 161.819 L2060.93 127.259 Z" fill="#000000" fill-rule="nonzero" fill-opacity="1" /><path clip-path="url(#clip010)" d="M2097.44 127.259 L2117.3 127.259 L2117.3 131.194 L2102.11 131.194 L2102.11 141.379 L2115.82 141.379 L2115.82 145.315 L2102.11 145.315 L2102.11 161.819 L2097.44 161.819 L2097.44 127.259 Z" fill="#000000" fill-rule="nonzero" fill-opacity="1" /><polyline clip-path="url(#clip010)" style="stroke:#a92a00; stroke-linecap:round; stroke-linejoin:round; stroke-width:4; stroke-opacity:1; fill:none" stroke-dasharray="2, 4" points="1838.06,196.379 1977.84,196.379 "/>
<path clip-path="url(#clip010)" d="M1907.95 217.951 L1889.27 207.165 L1889.27 185.593 L1907.95 174.807 L1926.63 185.593 L1926.63 207.165 Z" fill="#a92a00" fill-rule="evenodd" fill-opacity="1" stroke="#000000" stroke-opacity="1" stroke-width="3.72364"/>
<path clip-path="url(#clip010)" d="M2001.14 179.099 L2021 179.099 L2021 183.034 L2005.82 183.034 L2005.82 193.219 L2019.52 193.219 L2019.52 197.155 L2005.82 197.155 L2005.82 213.659 L2001.14 213.659 L2001.14 179.099 Z" fill="#000000" fill-rule="nonzero" fill-opacity="1" /><path clip-path="url(#clip010)" d="M2033.09 197.155 L2033.09 209.817 L2040.59 209.817 Q2044.36 209.817 2046.16 208.266 Q2047.99 206.692 2047.99 203.474 Q2047.99 200.233 2046.16 198.706 Q2044.36 197.155 2040.59 197.155 L2033.09 197.155 M2033.09 182.942 L2033.09 193.358 L2040.01 193.358 Q2043.43 193.358 2045.1 192.085 Q2046.79 190.789 2046.79 188.15 Q2046.79 185.534 2045.1 184.238 Q2043.43 182.942 2040.01 182.942 L2033.09 182.942 M2028.41 179.099 L2040.35 179.099 Q2045.7 179.099 2048.59 181.321 Q2051.49 183.544 2051.49 187.641 Q2051.49 190.812 2050.01 192.687 Q2048.53 194.562 2045.66 195.025 Q2049.1 195.766 2051 198.127 Q2052.92 200.465 2052.92 203.983 Q2052.92 208.613 2049.78 211.136 Q2046.63 213.659 2040.82 213.659 L2028.41 213.659 L2028.41 179.099 Z" fill="#000000" fill-rule="nonzero" fill-opacity="1" /><path clip-path="url(#clip010)" d="M2065.61 182.942 L2065.61 209.817 L2071.26 209.817 Q2078.41 209.817 2081.72 206.576 Q2085.05 203.335 2085.05 196.344 Q2085.05 189.4 2081.72 186.182 Q2078.41 182.942 2071.26 182.942 L2065.61 182.942 M2060.93 179.099 L2070.54 179.099 Q2080.59 179.099 2085.28 183.289 Q2089.98 187.456 2089.98 196.344 Q2089.98 205.28 2085.26 209.469 Q2080.54 213.659 2070.54 213.659 L2060.93 213.659 L2060.93 179.099 Z" fill="#000000" fill-rule="nonzero" fill-opacity="1" /><path clip-path="url(#clip010)" d="M2097.44 179.099 L2117.3 179.099 L2117.3 183.034 L2102.11 183.034 L2102.11 193.219 L2115.82 193.219 L2115.82 197.155 L2102.11 197.155 L2102.11 213.659 L2097.44 213.659 L2097.44 179.099 Z" fill="#000000" fill-rule="nonzero" fill-opacity="1" /><path clip-path="url(#clip010)" d="M2144.22 221.53 L2144.22 224.84 L2119.59 224.84 L2119.59 221.53 L2144.22 221.53 Z" fill="#000000" fill-rule="nonzero" fill-opacity="1" /><path clip-path="url(#clip010)" d="M2152.34 209.77 L2152.34 223.52 L2148.06 223.52 L2148.06 187.733 L2152.34 187.733 L2152.34 191.669 Q2153.69 189.354 2155.72 188.243 Q2157.78 187.108 2160.63 187.108 Q2165.35 187.108 2168.29 190.858 Q2171.26 194.608 2171.26 200.719 Q2171.26 206.831 2168.29 210.58 Q2165.35 214.33 2160.63 214.33 Q2157.78 214.33 2155.72 213.219 Q2153.69 212.085 2152.34 209.77 M2166.84 200.719 Q2166.84 196.02 2164.89 193.358 Q2162.97 190.673 2159.59 190.673 Q2156.21 190.673 2154.27 193.358 Q2152.34 196.02 2152.34 200.719 Q2152.34 205.418 2154.27 208.104 Q2156.21 210.766 2159.59 210.766 Q2162.97 210.766 2164.89 208.104 Q2166.84 205.418 2166.84 200.719 Z" fill="#000000" fill-rule="nonzero" fill-opacity="1" /><path clip-path="url(#clip010)" d="M2193.34 191.715 Q2192.62 191.298 2191.77 191.113 Q2190.93 190.905 2189.91 190.905 Q2186.3 190.905 2184.36 193.266 Q2182.44 195.604 2182.44 200.002 L2182.44 213.659 L2178.15 213.659 L2178.15 187.733 L2182.44 187.733 L2182.44 191.761 Q2183.78 189.4 2185.93 188.266 Q2188.08 187.108 2191.16 187.108 Q2191.6 187.108 2192.14 187.178 Q2192.67 187.224 2193.32 187.34 L2193.34 191.715 Z" fill="#000000" fill-rule="nonzero" fill-opacity="1" /><path clip-path="url(#clip010)" d="M2218.94 199.631 L2218.94 201.715 L2199.36 201.715 Q2199.64 206.113 2202 208.428 Q2204.38 210.719 2208.62 210.719 Q2211.07 210.719 2213.36 210.118 Q2215.68 209.516 2217.95 208.312 L2217.95 212.34 Q2215.65 213.312 2213.25 213.821 Q2210.84 214.33 2208.36 214.33 Q2202.16 214.33 2198.52 210.719 Q2194.91 207.108 2194.91 200.951 Q2194.91 194.585 2198.34 190.858 Q2201.79 187.108 2207.62 187.108 Q2212.85 187.108 2215.89 190.488 Q2218.94 193.844 2218.94 199.631 M2214.68 198.381 Q2214.64 194.886 2212.71 192.803 Q2210.82 190.719 2207.67 190.719 Q2204.1 190.719 2201.95 192.733 Q2199.82 194.747 2199.5 198.405 L2214.68 198.381 Z" fill="#000000" fill-rule="nonzero" fill-opacity="1" /><path clip-path="url(#clip010)" d="M2244.59 188.729 L2244.59 192.71 Q2242.78 191.715 2240.96 191.229 Q2239.15 190.719 2237.3 190.719 Q2233.15 190.719 2230.86 193.358 Q2228.57 195.974 2228.57 200.719 Q2228.57 205.465 2230.86 208.104 Q2233.15 210.719 2237.3 210.719 Q2239.15 210.719 2240.96 210.233 Q2242.78 209.724 2244.59 208.729 L2244.59 212.664 Q2242.81 213.497 2240.89 213.914 Q2238.99 214.33 2236.83 214.33 Q2230.98 214.33 2227.53 210.65 Q2224.08 206.969 2224.08 200.719 Q2224.08 194.377 2227.55 190.743 Q2231.05 187.108 2237.11 187.108 Q2239.08 187.108 2240.96 187.525 Q2242.83 187.919 2244.59 188.729 Z" fill="#000000" fill-rule="nonzero" fill-opacity="1" /><polyline clip-path="url(#clip010)" style="stroke:#ffa500; stroke-linecap:round; stroke-linejoin:round; stroke-width:4; stroke-opacity:1; fill:none" stroke-dasharray="2, 4" points="1838.06,248.219 1977.84,248.219 "/>
<path clip-path="url(#clip010)" d="M1907.95 226.647 L1886.38 248.219 L1907.95 269.791 L1929.52 248.219 L1907.95 226.647 Z" fill="#ffa500" fill-rule="evenodd" fill-opacity="1" stroke="#000000" stroke-opacity="1" stroke-width="3.72364"/>
<path clip-path="url(#clip010)" d="M2017.16 234.11 Q2012.07 234.11 2009.06 237.907 Q2006.07 241.703 2006.07 248.254 Q2006.07 254.782 2009.06 258.578 Q2012.07 262.374 2017.16 262.374 Q2022.25 262.374 2025.22 258.578 Q2028.2 254.782 2028.2 248.254 Q2028.2 241.703 2025.22 237.907 Q2022.25 234.11 2017.16 234.11 M2023.71 264.874 L2029.87 271.61 L2024.22 271.61 L2019.1 266.078 Q2018.34 266.124 2017.92 266.147 Q2017.53 266.17 2017.16 266.17 Q2009.87 266.17 2005.49 261.309 Q2001.14 256.425 2001.14 248.254 Q2001.14 240.06 2005.49 235.198 Q2009.87 230.314 2017.16 230.314 Q2024.43 230.314 2028.78 235.198 Q2033.13 240.06 2033.13 248.254 Q2033.13 254.272 2030.7 258.555 Q2028.29 262.837 2023.71 264.874 Z" fill="#000000" fill-rule="nonzero" fill-opacity="1" /><path clip-path="url(#clip010)" d="M2040.45 230.939 L2046.74 230.939 L2062.07 259.851 L2062.07 230.939 L2066.6 230.939 L2066.6 265.499 L2060.31 265.499 L2044.98 236.587 L2044.98 265.499 L2040.45 265.499 L2040.45 230.939 Z" fill="#000000" fill-rule="nonzero" fill-opacity="1" /><path clip-path="url(#clip010)" d="M2080.59 234.782 L2080.59 261.657 L2086.23 261.657 Q2093.39 261.657 2096.7 258.416 Q2100.03 255.175 2100.03 248.184 Q2100.03 241.24 2096.7 238.022 Q2093.39 234.782 2086.23 234.782 L2080.59 234.782 M2075.91 230.939 L2085.52 230.939 Q2095.56 230.939 2100.26 235.129 Q2104.96 239.296 2104.96 248.184 Q2104.96 257.12 2100.24 261.309 Q2095.52 265.499 2085.52 265.499 L2075.91 265.499 L2075.91 230.939 Z" fill="#000000" fill-rule="nonzero" fill-opacity="1" /><path clip-path="url(#clip010)" d="M2112.41 230.939 L2132.28 230.939 L2132.28 234.874 L2117.09 234.874 L2117.09 245.059 L2130.79 245.059 L2130.79 248.995 L2117.09 248.995 L2117.09 265.499 L2112.41 265.499 L2112.41 230.939 Z" fill="#000000" fill-rule="nonzero" fill-opacity="1" /><polyline clip-path="url(#clip010)" style="stroke:#aa8c55; stroke-linecap:round; stroke-linejoin:round; stroke-width:4; stroke-opacity:1; fill:none" stroke-dasharray="2, 4" points="1838.06,300.059 1977.84,300.059 "/>
<path clip-path="url(#clip010)" d="M1907.95 278.487 L1886.38 300.059 L1907.95 321.631 L1929.52 300.059 L1907.95 278.487 Z" fill="#aa8c55" fill-rule="evenodd" fill-opacity="1" stroke="#000000" stroke-opacity="1" stroke-width="3.72364"/>
<path clip-path="url(#clip010)" d="M2017.16 285.95 Q2012.07 285.95 2009.06 289.747 Q2006.07 293.543 2006.07 300.094 Q2006.07 306.622 2009.06 310.418 Q2012.07 314.214 2017.16 314.214 Q2022.25 314.214 2025.22 310.418 Q2028.2 306.622 2028.2 300.094 Q2028.2 293.543 2025.22 289.747 Q2022.25 285.95 2017.16 285.95 M2023.71 316.714 L2029.87 323.45 L2024.22 323.45 L2019.1 317.918 Q2018.34 317.964 2017.92 317.987 Q2017.53 318.01 2017.16 318.01 Q2009.87 318.01 2005.49 313.149 Q2001.14 308.265 2001.14 300.094 Q2001.14 291.9 2005.49 287.038 Q2009.87 282.154 2017.16 282.154 Q2024.43 282.154 2028.78 287.038 Q2033.13 291.9 2033.13 300.094 Q2033.13 306.112 2030.7 310.395 Q2028.29 314.677 2023.71 316.714 Z" fill="#000000" fill-rule="nonzero" fill-opacity="1" /><path clip-path="url(#clip010)" d="M2040.45 282.779 L2046.74 282.779 L2062.07 311.691 L2062.07 282.779 L2066.6 282.779 L2066.6 317.339 L2060.31 317.339 L2044.98 288.427 L2044.98 317.339 L2040.45 317.339 L2040.45 282.779 Z" fill="#000000" fill-rule="nonzero" fill-opacity="1" /><path clip-path="url(#clip010)" d="M2080.59 286.622 L2080.59 313.497 L2086.23 313.497 Q2093.39 313.497 2096.7 310.256 Q2100.03 307.015 2100.03 300.024 Q2100.03 293.08 2096.7 289.862 Q2093.39 286.622 2086.23 286.622 L2080.59 286.622 M2075.91 282.779 L2085.52 282.779 Q2095.56 282.779 2100.26 286.969 Q2104.96 291.136 2104.96 300.024 Q2104.96 308.96 2100.24 313.149 Q2095.52 317.339 2085.52 317.339 L2075.91 317.339 L2075.91 282.779 Z" fill="#000000" fill-rule="nonzero" fill-opacity="1" /><path clip-path="url(#clip010)" d="M2112.41 282.779 L2132.28 282.779 L2132.28 286.714 L2117.09 286.714 L2117.09 296.899 L2130.79 296.899 L2130.79 300.835 L2117.09 300.835 L2117.09 317.339 L2112.41 317.339 L2112.41 282.779 Z" fill="#000000" fill-rule="nonzero" fill-opacity="1" /><path clip-path="url(#clip010)" d="M2159.2 325.21 L2159.2 328.52 L2134.57 328.52 L2134.57 325.21 L2159.2 325.21 Z" fill="#000000" fill-rule="nonzero" fill-opacity="1" /><path clip-path="url(#clip010)" d="M2167.32 313.45 L2167.32 327.2 L2163.04 327.2 L2163.04 291.413 L2167.32 291.413 L2167.32 295.349 Q2168.66 293.034 2170.7 291.923 Q2172.76 290.788 2175.61 290.788 Q2180.33 290.788 2183.27 294.538 Q2186.23 298.288 2186.23 304.399 Q2186.23 310.511 2183.27 314.26 Q2180.33 318.01 2175.61 318.01 Q2172.76 318.01 2170.7 316.899 Q2168.66 315.765 2167.32 313.45 M2181.81 304.399 Q2181.81 299.7 2179.87 297.038 Q2177.95 294.353 2174.57 294.353 Q2171.19 294.353 2169.24 297.038 Q2167.32 299.7 2167.32 304.399 Q2167.32 309.098 2169.24 311.784 Q2171.19 314.446 2174.57 314.446 Q2177.95 314.446 2179.87 311.784 Q2181.81 309.098 2181.81 304.399 Z" fill="#000000" fill-rule="nonzero" fill-opacity="1" /><path clip-path="url(#clip010)" d="M2208.32 295.395 Q2207.6 294.978 2206.74 294.793 Q2205.91 294.585 2204.89 294.585 Q2201.28 294.585 2199.33 296.946 Q2197.41 299.284 2197.41 303.682 L2197.41 317.339 L2193.13 317.339 L2193.13 291.413 L2197.41 291.413 L2197.41 295.441 Q2198.76 293.08 2200.91 291.946 Q2203.06 290.788 2206.14 290.788 Q2206.58 290.788 2207.11 290.858 Q2207.65 290.904 2208.29 291.02 L2208.32 295.395 Z" fill="#000000" fill-rule="nonzero" fill-opacity="1" /><path clip-path="url(#clip010)" d="M2233.92 303.311 L2233.92 305.395 L2214.33 305.395 Q2214.61 309.793 2216.97 312.108 Q2219.36 314.399 2223.59 314.399 Q2226.05 314.399 2228.34 313.798 Q2230.65 313.196 2232.92 311.992 L2232.92 316.02 Q2230.63 316.992 2228.22 317.501 Q2225.82 318.01 2223.34 318.01 Q2217.14 318.01 2213.5 314.399 Q2209.89 310.788 2209.89 304.631 Q2209.89 298.265 2213.32 294.538 Q2216.77 290.788 2222.6 290.788 Q2227.83 290.788 2230.86 294.168 Q2233.92 297.524 2233.92 303.311 M2229.66 302.061 Q2229.61 298.566 2227.69 296.483 Q2225.79 294.399 2222.64 294.399 Q2219.08 294.399 2216.93 296.413 Q2214.8 298.427 2214.47 302.085 L2229.66 302.061 Z" fill="#000000" fill-rule="nonzero" fill-opacity="1" /><path clip-path="url(#clip010)" d="M2259.57 292.409 L2259.57 296.39 Q2257.76 295.395 2255.93 294.909 Q2254.13 294.399 2252.27 294.399 Q2248.13 294.399 2245.84 297.038 Q2243.55 299.654 2243.55 304.399 Q2243.55 309.145 2245.84 311.784 Q2248.13 314.399 2252.27 314.399 Q2254.13 314.399 2255.93 313.913 Q2257.76 313.404 2259.57 312.409 L2259.57 316.344 Q2257.78 317.177 2255.86 317.594 Q2253.96 318.01 2251.81 318.01 Q2245.95 318.01 2242.51 314.33 Q2239.06 310.649 2239.06 304.399 Q2239.06 298.057 2242.53 294.423 Q2246.02 290.788 2252.09 290.788 Q2254.06 290.788 2255.93 291.205 Q2257.81 291.599 2259.57 292.409 Z" fill="#000000" fill-rule="nonzero" fill-opacity="1" /><polyline clip-path="url(#clip010)" style="stroke:#0000ff; stroke-linecap:round; stroke-linejoin:round; stroke-width:4; stroke-opacity:1; fill:none" stroke-dasharray="2, 4" points="1838.06,351.899 1977.84,351.899 "/>
<path clip-path="url(#clip010)" d="M1907.95 330.327 L1902.88 344.91 L1887.44 345.234 L1899.75 354.574 L1895.27 369.351 L1907.95 360.528 L1920.64 369.351 L1916.15 354.574 L1928.47 345.234 L1913.02 344.91 L1907.95 330.327 Z" fill="#0000ff" fill-rule="evenodd" fill-opacity="1" stroke="#000000" stroke-opacity="1" stroke-width="3.72364"/>
<path clip-path="url(#clip010)" d="M2017.16 337.79 Q2012.07 337.79 2009.06 341.587 Q2006.07 345.383 2006.07 351.934 Q2006.07 358.462 2009.06 362.258 Q2012.07 366.054 2017.16 366.054 Q2022.25 366.054 2025.22 362.258 Q2028.2 358.462 2028.2 351.934 Q2028.2 345.383 2025.22 341.587 Q2022.25 337.79 2017.16 337.79 M2023.71 368.554 L2029.87 375.29 L2024.22 375.29 L2019.1 369.758 Q2018.34 369.804 2017.92 369.827 Q2017.53 369.85 2017.16 369.85 Q2009.87 369.85 2005.49 364.989 Q2001.14 360.105 2001.14 351.934 Q2001.14 343.74 2005.49 338.878 Q2009.87 333.994 2017.16 333.994 Q2024.43 333.994 2028.78 338.878 Q2033.13 343.74 2033.13 351.934 Q2033.13 357.952 2030.7 362.235 Q2028.29 366.517 2023.71 368.554 Z" fill="#000000" fill-rule="nonzero" fill-opacity="1" /><path clip-path="url(#clip010)" d="M2045.12 352.675 L2045.12 365.337 L2052.62 365.337 Q2056.4 365.337 2058.2 363.786 Q2060.03 362.212 2060.03 358.994 Q2060.03 355.753 2058.2 354.226 Q2056.4 352.675 2052.62 352.675 L2045.12 352.675 M2045.12 338.462 L2045.12 348.878 L2052.04 348.878 Q2055.47 348.878 2057.14 347.605 Q2058.83 346.309 2058.83 343.67 Q2058.83 341.054 2057.14 339.758 Q2055.47 338.462 2052.04 338.462 L2045.12 338.462 M2040.45 334.619 L2052.39 334.619 Q2057.74 334.619 2060.63 336.841 Q2063.53 339.064 2063.53 343.161 Q2063.53 346.332 2062.04 348.207 Q2060.56 350.082 2057.69 350.545 Q2061.14 351.286 2063.04 353.647 Q2064.96 355.985 2064.96 359.503 Q2064.96 364.133 2061.81 366.656 Q2058.66 369.179 2052.85 369.179 L2040.45 369.179 L2040.45 334.619 Z" fill="#000000" fill-rule="nonzero" fill-opacity="1" /><path clip-path="url(#clip010)" d="M2077.65 338.462 L2077.65 365.337 L2083.29 365.337 Q2090.45 365.337 2093.76 362.096 Q2097.09 358.855 2097.09 351.864 Q2097.09 344.92 2093.76 341.702 Q2090.45 338.462 2083.29 338.462 L2077.65 338.462 M2072.97 334.619 L2082.58 334.619 Q2092.62 334.619 2097.32 338.809 Q2102.02 342.976 2102.02 351.864 Q2102.02 360.8 2097.3 364.989 Q2092.58 369.179 2082.58 369.179 L2072.97 369.179 L2072.97 334.619 Z" fill="#000000" fill-rule="nonzero" fill-opacity="1" /><path clip-path="url(#clip010)" d="M2109.47 334.619 L2129.34 334.619 L2129.34 338.554 L2114.15 338.554 L2114.15 348.739 L2127.85 348.739 L2127.85 352.675 L2114.15 352.675 L2114.15 369.179 L2109.47 369.179 L2109.47 334.619 Z" fill="#000000" fill-rule="nonzero" fill-opacity="1" /><polyline clip-path="url(#clip010)" style="stroke:#a9a955; stroke-linecap:round; stroke-linejoin:round; stroke-width:4; stroke-opacity:1; fill:none" stroke-dasharray="2, 4" points="1838.06,403.739 1977.84,403.739 "/>
<path clip-path="url(#clip010)" d="M1907.95 382.167 L1902.88 396.75 L1887.44 397.074 L1899.75 406.414 L1895.27 421.191 L1907.95 412.368 L1920.64 421.191 L1916.15 406.414 L1928.47 397.074 L1913.02 396.75 L1907.95 382.167 Z" fill="#a9a955" fill-rule="evenodd" fill-opacity="1" stroke="#000000" stroke-opacity="1" stroke-width="3.72364"/>
<path clip-path="url(#clip010)" d="M2017.16 389.63 Q2012.07 389.63 2009.06 393.427 Q2006.07 397.223 2006.07 403.774 Q2006.07 410.302 2009.06 414.098 Q2012.07 417.894 2017.16 417.894 Q2022.25 417.894 2025.22 414.098 Q2028.2 410.302 2028.2 403.774 Q2028.2 397.223 2025.22 393.427 Q2022.25 389.63 2017.16 389.63 M2023.71 420.394 L2029.87 427.13 L2024.22 427.13 L2019.1 421.598 Q2018.34 421.644 2017.92 421.667 Q2017.53 421.69 2017.16 421.69 Q2009.87 421.69 2005.49 416.829 Q2001.14 411.945 2001.14 403.774 Q2001.14 395.58 2005.49 390.718 Q2009.87 385.834 2017.16 385.834 Q2024.43 385.834 2028.78 390.718 Q2033.13 395.58 2033.13 403.774 Q2033.13 409.792 2030.7 414.075 Q2028.29 418.357 2023.71 420.394 Z" fill="#000000" fill-rule="nonzero" fill-opacity="1" /><path clip-path="url(#clip010)" d="M2045.12 404.515 L2045.12 417.177 L2052.62 417.177 Q2056.4 417.177 2058.2 415.626 Q2060.03 414.052 2060.03 410.834 Q2060.03 407.593 2058.2 406.066 Q2056.4 404.515 2052.62 404.515 L2045.12 404.515 M2045.12 390.302 L2045.12 400.718 L2052.04 400.718 Q2055.47 400.718 2057.14 399.445 Q2058.83 398.149 2058.83 395.51 Q2058.83 392.894 2057.14 391.598 Q2055.47 390.302 2052.04 390.302 L2045.12 390.302 M2040.45 386.459 L2052.39 386.459 Q2057.74 386.459 2060.63 388.681 Q2063.53 390.904 2063.53 395.001 Q2063.53 398.172 2062.04 400.047 Q2060.56 401.922 2057.69 402.385 Q2061.14 403.126 2063.04 405.487 Q2064.96 407.825 2064.96 411.343 Q2064.96 415.973 2061.81 418.496 Q2058.66 421.019 2052.85 421.019 L2040.45 421.019 L2040.45 386.459 Z" fill="#000000" fill-rule="nonzero" fill-opacity="1" /><path clip-path="url(#clip010)" d="M2077.65 390.302 L2077.65 417.177 L2083.29 417.177 Q2090.45 417.177 2093.76 413.936 Q2097.09 410.695 2097.09 403.704 Q2097.09 396.76 2093.76 393.542 Q2090.45 390.302 2083.29 390.302 L2077.65 390.302 M2072.97 386.459 L2082.58 386.459 Q2092.62 386.459 2097.32 390.649 Q2102.02 394.816 2102.02 403.704 Q2102.02 412.64 2097.3 416.829 Q2092.58 421.019 2082.58 421.019 L2072.97 421.019 L2072.97 386.459 Z" fill="#000000" fill-rule="nonzero" fill-opacity="1" /><path clip-path="url(#clip010)" d="M2109.47 386.459 L2129.34 386.459 L2129.34 390.394 L2114.15 390.394 L2114.15 400.579 L2127.85 400.579 L2127.85 404.515 L2114.15 404.515 L2114.15 421.019 L2109.47 421.019 L2109.47 386.459 Z" fill="#000000" fill-rule="nonzero" fill-opacity="1" /><path clip-path="url(#clip010)" d="M2156.26 428.89 L2156.26 432.2 L2131.63 432.2 L2131.63 428.89 L2156.26 428.89 Z" fill="#000000" fill-rule="nonzero" fill-opacity="1" /><path clip-path="url(#clip010)" d="M2164.38 417.13 L2164.38 430.88 L2160.1 430.88 L2160.1 395.093 L2164.38 395.093 L2164.38 399.029 Q2165.72 396.714 2167.76 395.603 Q2169.82 394.468 2172.67 394.468 Q2177.39 394.468 2180.33 398.218 Q2183.29 401.968 2183.29 408.079 Q2183.29 414.191 2180.33 417.94 Q2177.39 421.69 2172.67 421.69 Q2169.82 421.69 2167.76 420.579 Q2165.72 419.445 2164.38 417.13 M2178.87 408.079 Q2178.87 403.38 2176.93 400.718 Q2175.01 398.033 2171.63 398.033 Q2168.25 398.033 2166.3 400.718 Q2164.38 403.38 2164.38 408.079 Q2164.38 412.778 2166.3 415.464 Q2168.25 418.126 2171.63 418.126 Q2175.01 418.126 2176.93 415.464 Q2178.87 412.778 2178.87 408.079 Z" fill="#000000" fill-rule="nonzero" fill-opacity="1" /><path clip-path="url(#clip010)" d="M2205.38 399.075 Q2204.66 398.658 2203.8 398.473 Q2202.97 398.265 2201.95 398.265 Q2198.34 398.265 2196.4 400.626 Q2194.47 402.964 2194.47 407.362 L2194.47 421.019 L2190.19 421.019 L2190.19 395.093 L2194.47 395.093 L2194.47 399.121 Q2195.82 396.76 2197.97 395.626 Q2200.12 394.468 2203.2 394.468 Q2203.64 394.468 2204.17 394.538 Q2204.71 394.584 2205.35 394.7 L2205.38 399.075 Z" fill="#000000" fill-rule="nonzero" fill-opacity="1" /><path clip-path="url(#clip010)" d="M2230.98 406.991 L2230.98 409.075 L2211.39 409.075 Q2211.67 413.473 2214.03 415.788 Q2216.42 418.079 2220.65 418.079 Q2223.11 418.079 2225.4 417.478 Q2227.71 416.876 2229.98 415.672 L2229.98 419.7 Q2227.69 420.672 2225.28 421.181 Q2222.88 421.69 2220.4 421.69 Q2214.2 421.69 2210.56 418.079 Q2206.95 414.468 2206.95 408.311 Q2206.95 401.945 2210.38 398.218 Q2213.83 394.468 2219.66 394.468 Q2224.89 394.468 2227.92 397.848 Q2230.98 401.204 2230.98 406.991 M2226.72 405.741 Q2226.67 402.246 2224.75 400.163 Q2222.85 398.079 2219.71 398.079 Q2216.14 398.079 2213.99 400.093 Q2211.86 402.107 2211.53 405.765 L2226.72 405.741 Z" fill="#000000" fill-rule="nonzero" fill-opacity="1" /><path clip-path="url(#clip010)" d="M2256.63 396.089 L2256.63 400.07 Q2254.82 399.075 2252.99 398.589 Q2251.19 398.079 2249.33 398.079 Q2245.19 398.079 2242.9 400.718 Q2240.61 403.334 2240.61 408.079 Q2240.61 412.825 2242.9 415.464 Q2245.19 418.079 2249.33 418.079 Q2251.19 418.079 2252.99 417.593 Q2254.82 417.084 2256.63 416.089 L2256.63 420.024 Q2254.84 420.857 2252.92 421.274 Q2251.02 421.69 2248.87 421.69 Q2243.02 421.69 2239.57 418.01 Q2236.12 414.329 2236.12 408.079 Q2236.12 401.737 2239.59 398.103 Q2243.08 394.468 2249.15 394.468 Q2251.12 394.468 2252.99 394.885 Q2254.87 395.279 2256.63 396.089 Z" fill="#000000" fill-rule="nonzero" fill-opacity="1" /></svg>
