<?xml version="1.0" encoding="utf-8"?>
<svg xmlns="http://www.w3.org/2000/svg" xmlns:xlink="http://www.w3.org/1999/xlink" width="600" height="400" viewBox="0 0 2400 1600">
<defs>
  <clipPath id="clip690">
    <rect x="0" y="0" width="2400" height="1600"/>
  </clipPath>
</defs>
<path clip-path="url(#clip690)" d="M0 1600 L2400 1600 L2400 0 L0 0  Z" fill="#ffffff" fill-rule="evenodd" fill-opacity="1"/>
<defs>
  <clipPath id="clip691">
    <rect x="480" y="0" width="1681" height="1600"/>
  </clipPath>
</defs>
<path clip-path="url(#clip690)" d="M256.285 1410.9 L2352.76 1410.9 L2352.76 47.2441 L256.285 47.2441  Z" fill="#ffffff" fill-rule="evenodd" fill-opacity="1"/>
<defs>
  <clipPath id="clip692">
    <rect x="256" y="47" width="2097" height="1365"/>
  </clipPath>
</defs>
<polyline clip-path="url(#clip692)" style="stroke:#000000; stroke-linecap:round; stroke-linejoin:round; stroke-width:2; stroke-opacity:0.1; fill:none" points="450.461,1410.9 450.461,47.2441 "/>
<polyline clip-path="url(#clip692)" style="stroke:#000000; stroke-linecap:round; stroke-linejoin:round; stroke-width:2; stroke-opacity:0.1; fill:none" points="926.227,1410.9 926.227,47.2441 "/>
<polyline clip-path="url(#clip692)" style="stroke:#000000; stroke-linecap:round; stroke-linejoin:round; stroke-width:2; stroke-opacity:0.1; fill:none" points="1401.99,1410.9 1401.99,47.2441 "/>
<polyline clip-path="url(#clip692)" style="stroke:#000000; stroke-linecap:round; stroke-linejoin:round; stroke-width:2; stroke-opacity:0.1; fill:none" points="1877.76,1410.9 1877.76,47.2441 "/>
<polyline clip-path="url(#clip690)" style="stroke:#000000; stroke-linecap:round; stroke-linejoin:round; stroke-width:4; stroke-opacity:1; fill:none" points="256.285,1410.9 2352.76,1410.9 "/>
<polyline clip-path="url(#clip690)" style="stroke:#000000; stroke-linecap:round; stroke-linejoin:round; stroke-width:4; stroke-opacity:1; fill:none" points="450.461,1410.9 450.461,1392 "/>
<polyline clip-path="url(#clip690)" style="stroke:#000000; stroke-linecap:round; stroke-linejoin:round; stroke-width:4; stroke-opacity:1; fill:none" points="926.227,1410.9 926.227,1392 "/>
<polyline clip-path="url(#clip690)" style="stroke:#000000; stroke-linecap:round; stroke-linejoin:round; stroke-width:4; stroke-opacity:1; fill:none" points="1401.99,1410.9 1401.99,1392 "/>
<polyline clip-path="url(#clip690)" style="stroke:#000000; stroke-linecap:round; stroke-linejoin:round; stroke-width:4; stroke-opacity:1; fill:none" points="1877.76,1410.9 1877.76,1392 "/>
<path clip-path="url(#clip690)" d="M381.637 1485.02 L389.276 1485.02 L389.276 1458.66 L380.966 1460.32 L380.966 1456.06 L389.23 1454.4 L393.906 1454.4 L393.906 1485.02 L401.545 1485.02 L401.545 1488.96 L381.637 1488.96 L381.637 1485.02 Z" fill="#000000" fill-rule="nonzero" fill-opacity="1" /><path clip-path="url(#clip690)" d="M420.989 1457.48 Q417.378 1457.48 415.549 1461.04 Q413.744 1464.58 413.744 1471.71 Q413.744 1478.82 415.549 1482.38 Q417.378 1485.92 420.989 1485.92 Q424.623 1485.92 426.429 1482.38 Q428.257 1478.82 428.257 1471.71 Q428.257 1464.58 426.429 1461.04 Q424.623 1457.48 420.989 1457.48 M420.989 1453.77 Q426.799 1453.77 429.855 1458.38 Q432.933 1462.96 432.933 1471.71 Q432.933 1480.44 429.855 1485.04 Q426.799 1489.63 420.989 1489.63 Q415.179 1489.63 412.1 1485.04 Q409.045 1480.44 409.045 1471.71 Q409.045 1462.96 412.1 1458.38 Q415.179 1453.77 420.989 1453.77 Z" fill="#000000" fill-rule="nonzero" fill-opacity="1" /><path clip-path="url(#clip690)" d="M432.933 1447.87 L457.045 1447.87 L457.045 1451.07 L432.933 1451.07 L432.933 1447.87 Z" fill="#000000" fill-rule="nonzero" fill-opacity="1" /><path clip-path="url(#clip690)" d="M473.37 1435.97 Q470.436 1435.97 468.95 1438.86 Q467.483 1441.74 467.483 1447.53 Q467.483 1453.31 468.95 1456.2 Q470.436 1459.08 473.37 1459.08 Q476.323 1459.08 477.79 1456.2 Q479.276 1453.31 479.276 1447.53 Q479.276 1441.74 477.79 1438.86 Q476.323 1435.97 473.37 1435.97 M473.37 1432.96 Q478.091 1432.96 480.573 1436.7 Q483.075 1440.43 483.075 1447.53 Q483.075 1454.62 480.573 1458.37 Q478.091 1462.09 473.37 1462.09 Q468.649 1462.09 466.148 1458.37 Q463.665 1454.62 463.665 1447.53 Q463.665 1440.43 466.148 1436.7 Q468.649 1432.96 473.37 1432.96 Z" fill="#000000" fill-rule="nonzero" fill-opacity="1" /><path clip-path="url(#clip690)" d="M489.752 1456.77 L493.72 1456.77 L493.72 1461.55 L489.752 1461.55 L489.752 1456.77 Z" fill="#000000" fill-rule="nonzero" fill-opacity="1" /><path clip-path="url(#clip690)" d="M510.591 1445.99 Q508.033 1445.99 506.528 1447.74 Q505.042 1449.49 505.042 1452.54 Q505.042 1455.57 506.528 1457.33 Q508.033 1459.08 510.591 1459.08 Q513.148 1459.08 514.634 1457.33 Q516.139 1455.57 516.139 1452.54 Q516.139 1449.49 514.634 1447.74 Q513.148 1445.99 510.591 1445.99 M518.132 1434.09 L518.132 1437.55 Q516.703 1436.87 515.236 1436.51 Q513.788 1436.16 512.359 1436.16 Q508.597 1436.16 506.603 1438.69 Q504.629 1441.23 504.346 1446.37 Q505.456 1444.73 507.13 1443.87 Q508.804 1442.98 510.816 1442.98 Q515.048 1442.98 517.493 1445.56 Q519.957 1448.12 519.957 1452.54 Q519.957 1456.86 517.399 1459.48 Q514.841 1462.09 510.591 1462.09 Q505.719 1462.09 503.143 1458.37 Q500.566 1454.62 500.566 1447.53 Q500.566 1440.88 503.726 1436.93 Q506.885 1432.96 512.208 1432.96 Q513.637 1432.96 515.086 1433.24 Q516.553 1433.52 518.132 1434.09 Z" fill="#000000" fill-rule="nonzero" fill-opacity="1" /><path clip-path="url(#clip690)" d="M857.732 1485.02 L865.37 1485.02 L865.37 1458.66 L857.06 1460.32 L857.06 1456.06 L865.324 1454.4 L870 1454.4 L870 1485.02 L877.639 1485.02 L877.639 1488.96 L857.732 1488.96 L857.732 1485.02 Z" fill="#000000" fill-rule="nonzero" fill-opacity="1" /><path clip-path="url(#clip690)" d="M897.083 1457.48 Q893.472 1457.48 891.643 1461.04 Q889.838 1464.58 889.838 1471.71 Q889.838 1478.82 891.643 1482.38 Q893.472 1485.92 897.083 1485.92 Q900.717 1485.92 902.523 1482.38 Q904.352 1478.82 904.352 1471.71 Q904.352 1464.58 902.523 1461.04 Q900.717 1457.48 897.083 1457.48 M897.083 1453.77 Q902.893 1453.77 905.949 1458.38 Q909.028 1462.96 909.028 1471.71 Q909.028 1480.44 905.949 1485.04 Q902.893 1489.63 897.083 1489.63 Q891.273 1489.63 888.194 1485.04 Q885.139 1480.44 885.139 1471.71 Q885.139 1462.96 888.194 1458.38 Q891.273 1453.77 897.083 1453.77 Z" fill="#000000" fill-rule="nonzero" fill-opacity="1" /><path clip-path="url(#clip690)" d="M909.028 1447.87 L933.139 1447.87 L933.139 1451.07 L909.028 1451.07 L909.028 1447.87 Z" fill="#000000" fill-rule="nonzero" fill-opacity="1" /><path clip-path="url(#clip690)" d="M949.464 1435.97 Q946.53 1435.97 945.045 1438.86 Q943.578 1441.74 943.578 1447.53 Q943.578 1453.31 945.045 1456.2 Q946.53 1459.08 949.464 1459.08 Q952.417 1459.08 953.884 1456.2 Q955.37 1453.31 955.37 1447.53 Q955.37 1441.74 953.884 1438.86 Q952.417 1435.97 949.464 1435.97 M949.464 1432.96 Q954.185 1432.96 956.668 1436.7 Q959.169 1440.43 959.169 1447.53 Q959.169 1454.62 956.668 1458.37 Q954.185 1462.09 949.464 1462.09 Q944.744 1462.09 942.242 1458.37 Q939.76 1454.62 939.76 1447.53 Q939.76 1440.43 942.242 1436.7 Q944.744 1432.96 949.464 1432.96 Z" fill="#000000" fill-rule="nonzero" fill-opacity="1" /><path clip-path="url(#clip690)" d="M965.846 1456.77 L969.814 1456.77 L969.814 1461.55 L965.846 1461.55 L965.846 1456.77 Z" fill="#000000" fill-rule="nonzero" fill-opacity="1" /><path clip-path="url(#clip690)" d="M989.6 1446.41 Q992.327 1446.99 993.851 1448.83 Q995.393 1450.68 995.393 1453.38 Q995.393 1457.54 992.534 1459.82 Q989.675 1462.09 984.409 1462.09 Q982.641 1462.09 980.76 1461.73 Q978.899 1461.4 976.905 1460.7 L976.905 1457.03 Q978.485 1457.95 980.366 1458.42 Q982.246 1458.89 984.296 1458.89 Q987.87 1458.89 989.732 1457.48 Q991.613 1456.07 991.613 1453.38 Q991.613 1450.9 989.863 1449.51 Q988.133 1448.1 985.03 1448.1 L981.757 1448.1 L981.757 1444.98 L985.18 1444.98 Q987.983 1444.98 989.468 1443.87 Q990.954 1442.74 990.954 1440.63 Q990.954 1438.47 989.412 1437.32 Q987.889 1436.16 985.03 1436.16 Q983.469 1436.16 981.682 1436.49 Q979.895 1436.83 977.751 1437.55 L977.751 1434.16 Q979.914 1433.56 981.795 1433.26 Q983.694 1432.96 985.368 1432.96 Q989.694 1432.96 992.214 1434.93 Q994.735 1436.89 994.735 1440.24 Q994.735 1442.57 993.399 1444.19 Q992.064 1445.79 989.6 1446.41 Z" fill="#000000" fill-rule="nonzero" fill-opacity="1" /><path clip-path="url(#clip690)" d="M1348.6 1485.02 L1356.24 1485.02 L1356.24 1458.66 L1347.93 1460.32 L1347.93 1456.06 L1356.19 1454.4 L1360.87 1454.4 L1360.87 1485.02 L1368.51 1485.02 L1368.51 1488.96 L1348.6 1488.96 L1348.6 1485.02 Z" fill="#000000" fill-rule="nonzero" fill-opacity="1" /><path clip-path="url(#clip690)" d="M1387.95 1457.48 Q1384.34 1457.48 1382.51 1461.04 Q1380.71 1464.58 1380.71 1471.71 Q1380.71 1478.82 1382.51 1482.38 Q1384.34 1485.92 1387.95 1485.92 Q1391.59 1485.92 1393.39 1482.38 Q1395.22 1478.82 1395.22 1471.71 Q1395.22 1464.58 1393.39 1461.04 Q1391.59 1457.48 1387.95 1457.48 M1387.95 1453.77 Q1393.76 1453.77 1396.82 1458.38 Q1399.9 1462.96 1399.9 1471.71 Q1399.9 1480.44 1396.82 1485.04 Q1393.76 1489.63 1387.95 1489.63 Q1382.14 1489.63 1379.06 1485.04 Q1376.01 1480.44 1376.01 1471.71 Q1376.01 1462.96 1379.06 1458.38 Q1382.14 1453.77 1387.95 1453.77 Z" fill="#000000" fill-rule="nonzero" fill-opacity="1" /><path clip-path="url(#clip690)" d="M1409.6 1435.97 Q1406.67 1435.97 1405.18 1438.86 Q1403.71 1441.74 1403.71 1447.53 Q1403.71 1453.31 1405.18 1456.2 Q1406.67 1459.08 1409.6 1459.08 Q1412.55 1459.08 1414.02 1456.2 Q1415.51 1453.31 1415.51 1447.53 Q1415.51 1441.74 1414.02 1438.86 Q1412.55 1435.97 1409.6 1435.97 M1409.6 1432.96 Q1414.32 1432.96 1416.8 1436.7 Q1419.31 1440.43 1419.31 1447.53 Q1419.31 1454.62 1416.8 1458.37 Q1414.32 1462.09 1409.6 1462.09 Q1404.88 1462.09 1402.38 1458.37 Q1399.9 1454.62 1399.9 1447.53 Q1399.9 1440.43 1402.38 1436.7 Q1404.88 1432.96 1409.6 1432.96 Z" fill="#000000" fill-rule="nonzero" fill-opacity="1" /><path clip-path="url(#clip690)" d="M1425.98 1456.77 L1429.95 1456.77 L1429.95 1461.55 L1425.98 1461.55 L1425.98 1456.77 Z" fill="#000000" fill-rule="nonzero" fill-opacity="1" /><path clip-path="url(#clip690)" d="M1446.35 1435.97 Q1443.42 1435.97 1441.93 1438.86 Q1440.46 1441.74 1440.46 1447.53 Q1440.46 1453.31 1441.93 1456.2 Q1443.42 1459.08 1446.35 1459.08 Q1449.3 1459.08 1450.77 1456.2 Q1452.26 1453.31 1452.26 1447.53 Q1452.26 1441.74 1450.77 1438.86 Q1449.3 1435.97 1446.35 1435.97 M1446.35 1432.96 Q1451.07 1432.96 1453.55 1436.7 Q1456.06 1440.43 1456.06 1447.53 Q1456.06 1454.62 1453.55 1458.37 Q1451.07 1462.09 1446.35 1462.09 Q1441.63 1462.09 1439.13 1458.37 Q1436.65 1454.62 1436.65 1447.53 Q1436.65 1440.43 1439.13 1436.7 Q1441.63 1432.96 1446.35 1432.96 Z" fill="#000000" fill-rule="nonzero" fill-opacity="1" /><path clip-path="url(#clip690)" d="M1824.63 1485.02 L1832.27 1485.02 L1832.27 1458.66 L1823.96 1460.32 L1823.96 1456.06 L1832.22 1454.4 L1836.9 1454.4 L1836.9 1485.02 L1844.54 1485.02 L1844.54 1488.96 L1824.63 1488.96 L1824.63 1485.02 Z" fill="#000000" fill-rule="nonzero" fill-opacity="1" /><path clip-path="url(#clip690)" d="M1863.98 1457.48 Q1860.37 1457.48 1858.54 1461.04 Q1856.73 1464.58 1856.73 1471.71 Q1856.73 1478.82 1858.54 1482.38 Q1860.37 1485.92 1863.98 1485.92 Q1867.61 1485.92 1869.42 1482.38 Q1871.25 1478.82 1871.25 1471.71 Q1871.25 1464.58 1869.42 1461.04 Q1867.61 1457.48 1863.98 1457.48 M1863.98 1453.77 Q1869.79 1453.77 1872.85 1458.38 Q1875.92 1462.96 1875.92 1471.71 Q1875.92 1480.44 1872.85 1485.04 Q1869.79 1489.63 1863.98 1489.63 Q1858.17 1489.63 1855.09 1485.04 Q1852.04 1480.44 1852.04 1471.71 Q1852.04 1462.96 1855.09 1458.38 Q1858.17 1453.77 1863.98 1453.77 Z" fill="#000000" fill-rule="nonzero" fill-opacity="1" /><path clip-path="url(#clip690)" d="M1885.63 1435.97 Q1882.69 1435.97 1881.21 1438.86 Q1879.74 1441.74 1879.74 1447.53 Q1879.74 1453.31 1881.21 1456.2 Q1882.69 1459.08 1885.63 1459.08 Q1888.58 1459.08 1890.05 1456.2 Q1891.53 1453.31 1891.53 1447.53 Q1891.53 1441.74 1890.05 1438.86 Q1888.58 1435.97 1885.63 1435.97 M1885.63 1432.96 Q1890.35 1432.96 1892.83 1436.7 Q1895.33 1440.43 1895.33 1447.53 Q1895.33 1454.62 1892.83 1458.37 Q1890.35 1462.09 1885.63 1462.09 Q1880.91 1462.09 1878.41 1458.37 Q1875.92 1454.62 1875.92 1447.53 Q1875.92 1440.43 1878.41 1436.7 Q1880.91 1432.96 1885.63 1432.96 Z" fill="#000000" fill-rule="nonzero" fill-opacity="1" /><path clip-path="url(#clip690)" d="M1902.01 1456.77 L1905.98 1456.77 L1905.98 1461.55 L1902.01 1461.55 L1902.01 1456.77 Z" fill="#000000" fill-rule="nonzero" fill-opacity="1" /><path clip-path="url(#clip690)" d="M1925.76 1446.41 Q1928.49 1446.99 1930.02 1448.83 Q1931.56 1450.68 1931.56 1453.38 Q1931.56 1457.54 1928.7 1459.82 Q1925.84 1462.09 1920.57 1462.09 Q1918.81 1462.09 1916.92 1461.73 Q1915.06 1461.4 1913.07 1460.7 L1913.07 1457.03 Q1914.65 1457.95 1916.53 1458.42 Q1918.41 1458.89 1920.46 1458.89 Q1924.03 1458.89 1925.9 1457.48 Q1927.78 1456.07 1927.78 1453.38 Q1927.78 1450.9 1926.03 1449.51 Q1924.3 1448.1 1921.19 1448.1 L1917.92 1448.1 L1917.92 1444.98 L1921.34 1444.98 Q1924.15 1444.98 1925.63 1443.87 Q1927.12 1442.74 1927.12 1440.63 Q1927.12 1438.47 1925.58 1437.32 Q1924.05 1436.16 1921.19 1436.16 Q1919.63 1436.16 1917.85 1436.49 Q1916.06 1436.83 1913.92 1437.55 L1913.92 1434.16 Q1916.08 1433.56 1917.96 1433.26 Q1919.86 1432.96 1921.53 1432.96 Q1925.86 1432.96 1928.38 1434.93 Q1930.9 1436.89 1930.9 1440.24 Q1930.9 1442.57 1929.56 1444.19 Q1928.23 1445.79 1925.76 1446.41 Z" fill="#000000" fill-rule="nonzero" fill-opacity="1" /><path clip-path="url(#clip690)" d="M1029.68 1528.23 L1029.68 1534.5 Q1026.02 1532.74 1022.77 1531.89 Q1019.53 1531.03 1016.5 1531.03 Q1011.25 1531.03 1008.39 1533.06 Q1005.55 1535.1 1005.55 1538.86 Q1005.55 1542.01 1007.43 1543.63 Q1009.34 1545.22 1014.63 1546.21 L1018.51 1547 Q1025.7 1548.37 1029.11 1551.84 Q1032.55 1555.28 1032.55 1561.07 Q1032.55 1567.98 1027.9 1571.54 Q1023.28 1575.11 1014.34 1575.11 Q1010.97 1575.11 1007.15 1574.34 Q1003.36 1573.58 999.285 1572.08 L999.285 1565.46 Q1003.2 1567.66 1006.96 1568.77 Q1010.71 1569.89 1014.34 1569.89 Q1019.85 1569.89 1022.84 1567.72 Q1025.83 1565.56 1025.83 1561.55 Q1025.83 1558.05 1023.67 1556.08 Q1021.53 1554.1 1016.63 1553.11 L1012.72 1552.35 Q1005.52 1550.92 1002.31 1547.86 Q999.094 1544.81 999.094 1539.37 Q999.094 1533.06 1003.52 1529.43 Q1007.97 1525.81 1015.77 1525.81 Q1019.11 1525.81 1022.58 1526.41 Q1026.05 1527.02 1029.68 1528.23 Z" fill="#000000" fill-rule="nonzero" fill-opacity="1" /><path clip-path="url(#clip690)" d="M1042.32 1538.54 L1048.17 1538.54 L1048.17 1574.19 L1042.32 1574.19 L1042.32 1538.54 M1042.32 1524.66 L1048.17 1524.66 L1048.17 1532.08 L1042.32 1532.08 L1042.32 1524.66 Z" fill="#000000" fill-rule="nonzero" fill-opacity="1" /><path clip-path="url(#clip690)" d="M1088.18 1545.38 Q1090.38 1541.43 1093.43 1539.56 Q1096.49 1537.68 1100.63 1537.68 Q1106.2 1537.68 1109.22 1541.59 Q1112.24 1545.48 1112.24 1552.67 L1112.24 1574.19 L1106.36 1574.19 L1106.36 1552.86 Q1106.36 1547.74 1104.54 1545.25 Q1102.73 1542.77 1099 1542.77 Q1094.45 1542.77 1091.81 1545.79 Q1089.17 1548.82 1089.17 1554.04 L1089.17 1574.19 L1083.28 1574.19 L1083.28 1552.86 Q1083.28 1547.7 1081.47 1545.25 Q1079.65 1542.77 1075.86 1542.77 Q1071.38 1542.77 1068.73 1545.83 Q1066.09 1548.85 1066.09 1554.04 L1066.09 1574.19 L1060.2 1574.19 L1060.2 1538.54 L1066.09 1538.54 L1066.09 1544.08 Q1068.1 1540.8 1070.9 1539.24 Q1073.7 1537.68 1077.55 1537.68 Q1081.43 1537.68 1084.14 1539.65 Q1086.88 1541.62 1088.18 1545.38 Z" fill="#000000" fill-rule="nonzero" fill-opacity="1" /><path clip-path="url(#clip690)" d="M1123.32 1560.12 L1123.32 1538.54 L1129.18 1538.54 L1129.18 1559.89 Q1129.18 1564.96 1131.15 1567.5 Q1133.12 1570.02 1137.07 1570.02 Q1141.81 1570.02 1144.55 1566.99 Q1147.32 1563.97 1147.32 1558.75 L1147.32 1538.54 L1153.18 1538.54 L1153.18 1574.19 L1147.32 1574.19 L1147.32 1568.71 Q1145.19 1571.96 1142.35 1573.55 Q1139.55 1575.11 1135.83 1575.11 Q1129.69 1575.11 1126.5 1571.29 Q1123.32 1567.47 1123.32 1560.12 M1138.06 1537.68 L1138.06 1537.68 Z" fill="#000000" fill-rule="nonzero" fill-opacity="1" /><path clip-path="url(#clip690)" d="M1165.24 1524.66 L1171.1 1524.66 L1171.1 1574.19 L1165.24 1574.19 L1165.24 1524.66 Z" fill="#000000" fill-rule="nonzero" fill-opacity="1" /><path clip-path="url(#clip690)" d="M1199.55 1556.27 Q1192.45 1556.27 1189.71 1557.89 Q1186.98 1559.51 1186.98 1563.43 Q1186.98 1566.55 1189.01 1568.39 Q1191.08 1570.21 1194.62 1570.21 Q1199.49 1570.21 1202.41 1566.77 Q1205.37 1563.3 1205.37 1557.57 L1205.37 1556.27 L1199.55 1556.27 M1211.23 1553.85 L1211.23 1574.19 L1205.37 1574.19 L1205.37 1568.77 Q1203.37 1572.02 1200.38 1573.58 Q1197.39 1575.11 1193.06 1575.11 Q1187.58 1575.11 1184.34 1572.05 Q1181.12 1568.97 1181.12 1563.81 Q1181.12 1557.79 1185.13 1554.74 Q1189.17 1551.68 1197.16 1551.68 L1205.37 1551.68 L1205.37 1551.11 Q1205.37 1547.07 1202.7 1544.87 Q1200.06 1542.64 1195.25 1542.64 Q1192.2 1542.64 1189.3 1543.38 Q1186.4 1544.11 1183.73 1545.57 L1183.73 1540.16 Q1186.95 1538.92 1189.97 1538.31 Q1192.99 1537.68 1195.86 1537.68 Q1203.59 1537.68 1207.41 1541.69 Q1211.23 1545.7 1211.23 1553.85 Z" fill="#000000" fill-rule="nonzero" fill-opacity="1" /><path clip-path="url(#clip690)" d="M1229.09 1528.42 L1229.09 1538.54 L1241.15 1538.54 L1241.15 1543.09 L1229.09 1543.09 L1229.09 1562.44 Q1229.09 1566.8 1230.26 1568.04 Q1231.47 1569.28 1235.13 1569.28 L1241.15 1569.28 L1241.15 1574.19 L1235.13 1574.19 Q1228.35 1574.19 1225.78 1571.67 Q1223.2 1569.12 1223.2 1562.44 L1223.2 1543.09 L1218.9 1543.09 L1218.9 1538.54 L1223.2 1538.54 L1223.2 1528.42 L1229.09 1528.42 Z" fill="#000000" fill-rule="nonzero" fill-opacity="1" /><path clip-path="url(#clip690)" d="M1248.85 1538.54 L1254.71 1538.54 L1254.71 1574.19 L1248.85 1574.19 L1248.85 1538.54 M1248.85 1524.66 L1254.71 1524.66 L1254.71 1532.08 L1248.85 1532.08 L1248.85 1524.66 Z" fill="#000000" fill-rule="nonzero" fill-opacity="1" /><path clip-path="url(#clip690)" d="M1280.78 1542.64 Q1276.07 1542.64 1273.33 1546.34 Q1270.59 1550 1270.59 1556.39 Q1270.59 1562.79 1273.3 1566.48 Q1276.03 1570.14 1280.78 1570.14 Q1285.46 1570.14 1288.19 1566.45 Q1290.93 1562.76 1290.93 1556.39 Q1290.93 1550.06 1288.19 1546.37 Q1285.46 1542.64 1280.78 1542.64 M1280.78 1537.68 Q1288.42 1537.68 1292.78 1542.64 Q1297.14 1547.61 1297.14 1556.39 Q1297.14 1565.15 1292.78 1570.14 Q1288.42 1575.11 1280.78 1575.11 Q1273.11 1575.11 1268.75 1570.14 Q1264.42 1565.15 1264.42 1556.39 Q1264.42 1547.61 1268.75 1542.64 Q1273.11 1537.68 1280.78 1537.68 Z" fill="#000000" fill-rule="nonzero" fill-opacity="1" /><path clip-path="url(#clip690)" d="M1336.48 1552.67 L1336.48 1574.19 L1330.62 1574.19 L1330.62 1552.86 Q1330.62 1547.8 1328.65 1545.29 Q1326.67 1542.77 1322.73 1542.77 Q1317.98 1542.77 1315.25 1545.79 Q1312.51 1548.82 1312.51 1554.04 L1312.51 1574.19 L1306.62 1574.19 L1306.62 1538.54 L1312.51 1538.54 L1312.51 1544.08 Q1314.61 1540.86 1317.44 1539.27 Q1320.31 1537.68 1324.03 1537.68 Q1330.17 1537.68 1333.33 1541.5 Q1336.48 1545.29 1336.48 1552.67 Z" fill="#000000" fill-rule="nonzero" fill-opacity="1" /><path clip-path="url(#clip690)" d="M1374.67 1528.42 L1374.67 1538.54 L1386.73 1538.54 L1386.73 1543.09 L1374.67 1543.09 L1374.67 1562.44 Q1374.67 1566.8 1375.85 1568.04 Q1377.06 1569.28 1380.72 1569.28 L1386.73 1569.28 L1386.73 1574.19 L1380.72 1574.19 Q1373.94 1574.19 1371.36 1571.67 Q1368.78 1569.12 1368.78 1562.44 L1368.78 1543.09 L1364.49 1543.09 L1364.49 1538.54 L1368.78 1538.54 L1368.78 1528.42 L1374.67 1528.42 Z" fill="#000000" fill-rule="nonzero" fill-opacity="1" /><path clip-path="url(#clip690)" d="M1394.44 1538.54 L1400.29 1538.54 L1400.29 1574.19 L1394.44 1574.19 L1394.44 1538.54 M1394.44 1524.66 L1400.29 1524.66 L1400.29 1532.08 L1394.44 1532.08 L1394.44 1524.66 Z" fill="#000000" fill-rule="nonzero" fill-opacity="1" /><path clip-path="url(#clip690)" d="M1440.3 1545.38 Q1442.5 1541.43 1445.55 1539.56 Q1448.61 1537.68 1452.75 1537.68 Q1458.32 1537.68 1461.34 1541.59 Q1464.36 1545.48 1464.36 1552.67 L1464.36 1574.19 L1458.47 1574.19 L1458.47 1552.86 Q1458.47 1547.74 1456.66 1545.25 Q1454.85 1542.77 1451.12 1542.77 Q1446.57 1542.77 1443.93 1545.79 Q1441.29 1548.82 1441.29 1554.04 L1441.29 1574.19 L1435.4 1574.19 L1435.4 1552.86 Q1435.4 1547.7 1433.59 1545.25 Q1431.77 1542.77 1427.98 1542.77 Q1423.5 1542.77 1420.85 1545.83 Q1418.21 1548.85 1418.21 1554.04 L1418.21 1574.19 L1412.32 1574.19 L1412.32 1538.54 L1418.21 1538.54 L1418.21 1544.08 Q1420.22 1540.8 1423.02 1539.24 Q1425.82 1537.68 1429.67 1537.68 Q1433.55 1537.68 1436.26 1539.65 Q1439 1541.62 1440.3 1545.38 Z" fill="#000000" fill-rule="nonzero" fill-opacity="1" /><path clip-path="url(#clip690)" d="M1506.54 1554.9 L1506.54 1557.76 L1479.61 1557.76 Q1479.99 1563.81 1483.24 1566.99 Q1486.52 1570.14 1492.34 1570.14 Q1495.71 1570.14 1498.87 1569.32 Q1502.05 1568.49 1505.17 1566.83 L1505.17 1572.37 Q1502.02 1573.71 1498.71 1574.41 Q1495.4 1575.11 1491.99 1575.11 Q1483.46 1575.11 1478.46 1570.14 Q1473.5 1565.18 1473.5 1556.71 Q1473.5 1547.96 1478.21 1542.83 Q1482.95 1537.68 1490.97 1537.68 Q1498.17 1537.68 1502.33 1542.33 Q1506.54 1546.94 1506.54 1554.9 M1500.68 1553.18 Q1500.62 1548.37 1497.97 1545.51 Q1495.36 1542.64 1491.04 1542.64 Q1486.13 1542.64 1483.17 1545.41 Q1480.25 1548.18 1479.8 1553.21 L1500.68 1553.18 Z" fill="#000000" fill-rule="nonzero" fill-opacity="1" /><path clip-path="url(#clip690)" d="M1550.94 1524.72 Q1546.67 1532.04 1544.6 1539.21 Q1542.53 1546.37 1542.53 1553.72 Q1542.53 1561.07 1544.6 1568.3 Q1546.7 1575.49 1550.94 1582.78 L1545.84 1582.78 Q1541.07 1575.3 1538.68 1568.07 Q1536.33 1560.85 1536.33 1553.72 Q1536.33 1546.62 1538.68 1539.43 Q1541.04 1532.24 1545.84 1524.72 L1550.94 1524.72 Z" fill="#000000" fill-rule="nonzero" fill-opacity="1" /><path clip-path="url(#clip690)" d="M1585.03 1539.59 L1585.03 1545.13 Q1582.54 1543.85 1579.87 1543.22 Q1577.2 1542.58 1574.33 1542.58 Q1569.97 1542.58 1567.77 1543.92 Q1565.61 1545.25 1565.61 1547.93 Q1565.61 1549.96 1567.17 1551.14 Q1568.73 1552.29 1573.44 1553.34 L1575.44 1553.78 Q1581.68 1555.12 1584.29 1557.57 Q1586.93 1559.99 1586.93 1564.35 Q1586.93 1569.32 1582.99 1572.21 Q1579.07 1575.11 1572.2 1575.11 Q1569.33 1575.11 1566.21 1574.54 Q1563.13 1573.99 1559.69 1572.88 L1559.69 1566.83 Q1562.94 1568.52 1566.09 1569.38 Q1569.24 1570.21 1572.33 1570.21 Q1576.46 1570.21 1578.69 1568.81 Q1580.92 1567.37 1580.92 1564.8 Q1580.92 1562.41 1579.3 1561.14 Q1577.7 1559.86 1572.26 1558.68 L1570.22 1558.21 Q1564.78 1557.06 1562.36 1554.71 Q1559.94 1552.32 1559.94 1548.18 Q1559.94 1543.15 1563.51 1540.42 Q1567.07 1537.68 1573.63 1537.68 Q1576.88 1537.68 1579.74 1538.16 Q1582.61 1538.63 1585.03 1539.59 Z" fill="#000000" fill-rule="nonzero" fill-opacity="1" /><path clip-path="url(#clip690)" d="M1595.34 1524.72 L1600.43 1524.72 Q1605.2 1532.24 1607.56 1539.43 Q1609.95 1546.62 1609.95 1553.72 Q1609.95 1560.85 1607.56 1568.07 Q1605.2 1575.3 1600.43 1582.78 L1595.34 1582.78 Q1599.57 1575.49 1601.64 1568.3 Q1603.74 1561.07 1603.74 1553.72 Q1603.74 1546.37 1601.64 1539.21 Q1599.57 1532.04 1595.34 1524.72 Z" fill="#000000" fill-rule="nonzero" fill-opacity="1" /><polyline clip-path="url(#clip692)" style="stroke:#000000; stroke-linecap:round; stroke-linejoin:round; stroke-width:2; stroke-opacity:0.1; fill:none" points="256.285,937.252 2352.76,937.252 "/>
<polyline clip-path="url(#clip692)" style="stroke:#000000; stroke-linecap:round; stroke-linejoin:round; stroke-width:2; stroke-opacity:0.1; fill:none" points="256.285,325.994 2352.76,325.994 "/>
<polyline clip-path="url(#clip690)" style="stroke:#000000; stroke-linecap:round; stroke-linejoin:round; stroke-width:4; stroke-opacity:1; fill:none" points="256.285,1410.9 256.285,47.2441 "/>
<polyline clip-path="url(#clip690)" style="stroke:#000000; stroke-linecap:round; stroke-linejoin:round; stroke-width:4; stroke-opacity:1; fill:none" points="256.285,937.252 275.182,937.252 "/>
<polyline clip-path="url(#clip690)" style="stroke:#000000; stroke-linecap:round; stroke-linejoin:round; stroke-width:4; stroke-opacity:1; fill:none" points="256.285,325.994 275.182,325.994 "/>
<path clip-path="url(#clip690)" d="M119.844 957.045 L127.483 957.045 L127.483 930.679 L119.173 932.346 L119.173 928.087 L127.437 926.42 L132.113 926.42 L132.113 957.045 L139.751 957.045 L139.751 960.98 L119.844 960.98 L119.844 957.045 Z" fill="#000000" fill-rule="nonzero" fill-opacity="1" /><path clip-path="url(#clip690)" d="M159.196 929.499 Q155.585 929.499 153.756 933.064 Q151.95 936.605 151.95 943.735 Q151.95 950.841 153.756 954.406 Q155.585 957.948 159.196 957.948 Q162.83 957.948 164.635 954.406 Q166.464 950.841 166.464 943.735 Q166.464 936.605 164.635 933.064 Q162.83 929.499 159.196 929.499 M159.196 925.795 Q165.006 925.795 168.061 930.402 Q171.14 934.985 171.14 943.735 Q171.14 952.462 168.061 957.068 Q165.006 961.651 159.196 961.651 Q153.386 961.651 150.307 957.068 Q147.251 952.462 147.251 943.735 Q147.251 934.985 150.307 930.402 Q153.386 925.795 159.196 925.795 Z" fill="#000000" fill-rule="nonzero" fill-opacity="1" /><path clip-path="url(#clip690)" d="M171.14 919.896 L195.252 919.896 L195.252 923.094 L171.14 923.094 L171.14 919.896 Z" fill="#000000" fill-rule="nonzero" fill-opacity="1" /><path clip-path="url(#clip690)" d="M204.11 930.372 L210.317 930.372 L210.317 908.95 L203.565 910.304 L203.565 906.844 L210.279 905.49 L214.078 905.49 L214.078 930.372 L220.285 930.372 L220.285 933.57 L204.11 933.57 L204.11 930.372 Z" fill="#000000" fill-rule="nonzero" fill-opacity="1" /><path clip-path="url(#clip690)" d="M149.579 345.786 L157.218 345.786 L157.218 319.421 L148.908 321.087 L148.908 316.828 L157.172 315.162 L161.848 315.162 L161.848 345.786 L169.486 345.786 L169.486 349.722 L149.579 349.722 L149.579 345.786 Z" fill="#000000" fill-rule="nonzero" fill-opacity="1" /><path clip-path="url(#clip690)" d="M188.931 318.24 Q185.32 318.24 183.491 321.805 Q181.685 325.347 181.685 332.476 Q181.685 339.583 183.491 343.148 Q185.32 346.689 188.931 346.689 Q192.565 346.689 194.371 343.148 Q196.199 339.583 196.199 332.476 Q196.199 325.347 194.371 321.805 Q192.565 318.24 188.931 318.24 M188.931 314.537 Q194.741 314.537 197.796 319.143 Q200.875 323.726 200.875 332.476 Q200.875 341.203 197.796 345.81 Q194.741 350.393 188.931 350.393 Q183.121 350.393 180.042 345.81 Q176.986 341.203 176.986 332.476 Q176.986 323.726 180.042 319.143 Q183.121 314.537 188.931 314.537 Z" fill="#000000" fill-rule="nonzero" fill-opacity="1" /><path clip-path="url(#clip690)" d="M210.58 296.733 Q207.646 296.733 206.16 299.629 Q204.693 302.507 204.693 308.299 Q204.693 314.073 206.16 316.97 Q207.646 319.847 210.58 319.847 Q213.533 319.847 215 316.97 Q216.486 314.073 216.486 308.299 Q216.486 302.507 215 299.629 Q213.533 296.733 210.58 296.733 M210.58 293.723 Q215.301 293.723 217.783 297.466 Q220.285 301.19 220.285 308.299 Q220.285 315.39 217.783 319.133 Q215.301 322.857 210.58 322.857 Q205.859 322.857 203.358 319.133 Q200.875 315.39 200.875 308.299 Q200.875 301.19 203.358 297.466 Q205.859 293.723 210.58 293.723 Z" fill="#000000" fill-rule="nonzero" fill-opacity="1" /><path clip-path="url(#clip690)" d="M49.8515 1085.26 L73.5001 1093.98 L73.5001 1076.5 L49.8515 1085.26 M43.5177 1088.89 L43.5177 1081.6 L91.0377 1063.49 L91.0377 1070.17 L78.8473 1074.5 L78.8473 1095.92 L91.0377 1100.25 L91.0377 1107.03 L43.5177 1088.89 Z" fill="#000000" fill-rule="nonzero" fill-opacity="1" /><path clip-path="url(#clip690)" d="M73.2455 1031.21 Q66.7843 1031.21 63.124 1033.89 Q59.4319 1036.53 59.4319 1041.17 Q59.4319 1045.82 63.124 1048.49 Q66.7843 1051.14 73.2455 1051.14 Q79.7067 1051.14 83.3988 1048.49 Q87.0591 1045.82 87.0591 1041.17 Q87.0591 1036.53 83.3988 1033.89 Q79.7067 1031.21 73.2455 1031.21 M60.8005 1051.14 Q57.6177 1049.29 56.0899 1046.49 Q54.5303 1043.66 54.5303 1039.74 Q54.5303 1033.25 59.6865 1029.21 Q64.8428 1025.13 73.2455 1025.13 Q81.6482 1025.13 86.8045 1029.21 Q91.9607 1033.25 91.9607 1039.74 Q91.9607 1043.66 90.4329 1046.49 Q88.8733 1049.29 85.6905 1051.14 L91.0377 1051.14 L91.0377 1057.02 L41.5125 1057.02 L41.5125 1051.14 L60.8005 1051.14 Z" fill="#000000" fill-rule="nonzero" fill-opacity="1" /><path clip-path="url(#clip690)" d="M56.44 992.699 L61.9782 992.699 Q60.7051 995.182 60.0685 997.856 Q59.4319 1000.53 59.4319 1003.39 Q59.4319 1007.75 60.7687 1009.95 Q62.1055 1012.11 64.7791 1012.11 Q66.8161 1012.11 67.9938 1010.56 Q69.1396 1009 70.19 1004.29 L70.6356 1002.28 Q71.9724 996.041 74.4232 993.432 Q76.8421 990.79 81.2026 990.79 Q86.1679 990.79 89.0643 994.736 Q91.9607 998.651 91.9607 1005.53 Q91.9607 1008.39 91.3878 1011.51 Q90.8467 1014.6 89.7327 1018.03 L83.6853 1018.03 Q85.3722 1014.79 86.2315 1011.64 Q87.0591 1008.49 87.0591 1005.4 Q87.0591 1001.26 85.6586 999.033 Q84.2263 996.805 81.6482 996.805 Q79.2611 996.805 77.988 998.429 Q76.7148 1000.02 75.5372 1005.46 L75.0597 1007.5 Q73.9139 1012.94 71.5586 1015.36 Q69.1714 1017.78 65.0337 1017.78 Q60.0048 1017.78 57.2676 1014.22 Q54.5303 1010.65 54.5303 1004.09 Q54.5303 1000.85 55.0078 997.983 Q55.4852 995.118 56.44 992.699 Z" fill="#000000" fill-rule="nonzero" fill-opacity="1" /><path clip-path="url(#clip690)" d="M62.2328 932.989 Q58.2861 930.793 56.4082 927.737 Q54.5303 924.682 54.5303 920.544 Q54.5303 914.974 58.4452 911.95 Q62.3283 908.927 69.5216 908.927 L91.0377 908.927 L91.0377 914.815 L69.7125 914.815 Q64.5881 914.815 62.1055 916.629 Q59.6229 918.443 59.6229 922.167 Q59.6229 926.719 62.6466 929.361 Q65.6703 932.002 70.8902 932.002 L91.0377 932.002 L91.0377 937.891 L69.7125 937.891 Q64.5563 937.891 62.1055 939.705 Q59.6229 941.519 59.6229 945.307 Q59.6229 949.795 62.6784 952.436 Q65.7021 955.078 70.8902 955.078 L91.0377 955.078 L91.0377 960.966 L55.3897 960.966 L55.3897 955.078 L60.9279 955.078 Q57.6495 953.073 56.0899 950.272 Q54.5303 947.471 54.5303 943.62 Q54.5303 939.737 56.5037 937.031 Q58.4771 934.294 62.2328 932.989 Z" fill="#000000" fill-rule="nonzero" fill-opacity="1" /><path clip-path="url(#clip690)" d="M73.1182 881.045 Q73.1182 888.143 74.7414 890.88 Q76.3647 893.617 80.2796 893.617 Q83.3988 893.617 85.2449 891.58 Q87.0591 889.511 87.0591 885.978 Q87.0591 881.109 83.6216 878.18 Q80.1523 875.22 74.4232 875.22 L73.1182 875.22 L73.1182 881.045 M70.6992 869.364 L91.0377 869.364 L91.0377 875.22 L85.6268 875.22 Q88.8733 877.226 90.4329 880.217 Q91.9607 883.209 91.9607 887.538 Q91.9607 893.013 88.9051 896.259 Q85.8178 899.474 80.6616 899.474 Q74.646 899.474 71.5904 895.463 Q68.5349 891.421 68.5349 883.432 L68.5349 875.22 L67.962 875.22 Q63.9197 875.22 61.7236 877.894 Q59.4956 880.536 59.4956 885.342 Q59.4956 888.397 60.2276 891.294 Q60.9597 894.19 62.4238 896.864 L57.013 896.864 Q55.7716 893.649 55.1669 890.625 Q54.5303 887.602 54.5303 884.737 Q54.5303 877.003 58.5407 873.183 Q62.5511 869.364 70.6992 869.364 Z" fill="#000000" fill-rule="nonzero" fill-opacity="1" /><path clip-path="url(#clip690)" d="M55.3897 827.669 L72.7362 840.559 L91.0377 827 L91.0377 833.907 L77.0331 844.283 L91.0377 854.659 L91.0377 861.566 L72.3861 847.72 L55.3897 860.388 L55.3897 853.481 L68.0893 844.028 L55.3897 834.575 L55.3897 827.669 Z" fill="#000000" fill-rule="nonzero" fill-opacity="1" /><path clip-path="url(#clip690)" d="M71.7496 767.513 L74.6141 767.513 L74.6141 794.44 Q80.6616 794.058 83.8444 790.811 Q86.9954 787.533 86.9954 781.708 Q86.9954 778.334 86.1679 775.183 Q85.3403 772 83.6853 768.881 L89.2234 768.881 Q90.5602 772.032 91.2605 775.342 Q91.9607 778.653 91.9607 782.058 Q91.9607 790.588 86.9954 795.585 Q82.0302 800.551 73.5638 800.551 Q64.8109 800.551 59.6865 795.84 Q54.5303 791.098 54.5303 783.077 Q54.5303 775.883 59.1773 771.714 Q63.7924 767.513 71.7496 767.513 M70.0308 773.369 Q65.2247 773.433 62.3601 776.074 Q59.4956 778.684 59.4956 783.013 Q59.4956 787.915 62.2647 790.875 Q65.0337 793.803 70.0626 794.249 L70.0308 773.369 Z" fill="#000000" fill-rule="nonzero" fill-opacity="1" /><path clip-path="url(#clip690)" d="M60.8642 737.244 Q60.2913 738.23 60.0367 739.408 Q59.7502 740.554 59.7502 741.954 Q59.7502 746.92 62.9967 749.593 Q66.2114 752.235 72.2588 752.235 L91.0377 752.235 L91.0377 758.123 L55.3897 758.123 L55.3897 752.235 L60.9279 752.235 Q57.6813 750.389 56.1218 747.429 Q54.5303 744.469 54.5303 740.236 Q54.5303 739.631 54.6258 738.899 Q54.6895 738.167 54.8486 737.275 L60.8642 737.244 Z" fill="#000000" fill-rule="nonzero" fill-opacity="1" /><path clip-path="url(#clip690)" d="M60.8642 711.59 Q60.2913 712.577 60.0367 713.754 Q59.7502 714.9 59.7502 716.3 Q59.7502 721.266 62.9967 723.939 Q66.2114 726.581 72.2588 726.581 L91.0377 726.581 L91.0377 732.469 L55.3897 732.469 L55.3897 726.581 L60.9279 726.581 Q57.6813 724.735 56.1218 721.775 Q54.5303 718.815 54.5303 714.582 Q54.5303 713.977 54.6258 713.245 Q54.6895 712.513 54.8486 711.622 L60.8642 711.59 Z" fill="#000000" fill-rule="nonzero" fill-opacity="1" /><path clip-path="url(#clip690)" d="M59.4956 693.066 Q59.4956 697.776 63.1877 700.514 Q66.848 703.251 73.2455 703.251 Q79.643 703.251 83.3351 700.545 Q86.9954 697.808 86.9954 693.066 Q86.9954 688.387 83.3033 685.65 Q79.6112 682.912 73.2455 682.912 Q66.9116 682.912 63.2195 685.65 Q59.4956 688.387 59.4956 693.066 M54.5303 693.066 Q54.5303 685.427 59.4956 681.066 Q64.4608 676.706 73.2455 676.706 Q81.9983 676.706 86.9954 681.066 Q91.9607 685.427 91.9607 693.066 Q91.9607 700.736 86.9954 705.097 Q81.9983 709.426 73.2455 709.426 Q64.4608 709.426 59.4956 705.097 Q54.5303 700.736 54.5303 693.066 Z" fill="#000000" fill-rule="nonzero" fill-opacity="1" /><path clip-path="url(#clip690)" d="M60.8642 646.341 Q60.2913 647.328 60.0367 648.506 Q59.7502 649.652 59.7502 651.052 Q59.7502 656.017 62.9967 658.691 Q66.2114 661.333 72.2588 661.333 L91.0377 661.333 L91.0377 667.221 L55.3897 667.221 L55.3897 661.333 L60.9279 661.333 Q57.6813 659.487 56.1218 656.526 Q54.5303 653.566 54.5303 649.333 Q54.5303 648.729 54.6258 647.996 Q54.6895 647.264 54.8486 646.373 L60.8642 646.341 Z" fill="#000000" fill-rule="nonzero" fill-opacity="1" /><path clip-path="url(#clip690)" d="M41.5761 605.41 Q48.8967 609.675 56.0581 611.744 Q63.2195 613.813 70.5719 613.813 Q77.9243 613.813 85.1494 611.744 Q92.3426 609.643 99.6314 605.41 L99.6314 610.502 Q92.1517 615.277 84.9266 617.664 Q77.7015 620.019 70.5719 620.019 Q63.4741 620.019 56.2809 617.664 Q49.0876 615.309 41.5761 610.502 L41.5761 605.41 Z" fill="#000000" fill-rule="nonzero" fill-opacity="1" /><path clip-path="url(#clip690)" d="M62.2328 566.293 Q58.2861 564.096 56.4082 561.041 Q54.5303 557.985 54.5303 553.848 Q54.5303 548.278 58.4452 545.254 Q62.3283 542.23 69.5216 542.23 L91.0377 542.23 L91.0377 548.119 L69.7125 548.119 Q64.5881 548.119 62.1055 549.933 Q59.6229 551.747 59.6229 555.471 Q59.6229 560.022 62.6466 562.664 Q65.6703 565.306 70.8902 565.306 L91.0377 565.306 L91.0377 571.194 L69.7125 571.194 Q64.5563 571.194 62.1055 573.008 Q59.6229 574.823 59.6229 578.61 Q59.6229 583.098 62.6784 585.74 Q65.7021 588.382 70.8902 588.382 L91.0377 588.382 L91.0377 594.27 L55.3897 594.27 L55.3897 588.382 L60.9279 588.382 Q57.6495 586.376 56.0899 583.576 Q54.5303 580.775 54.5303 576.923 Q54.5303 573.04 56.5037 570.335 Q58.4771 567.598 62.2328 566.293 Z" fill="#000000" fill-rule="nonzero" fill-opacity="1" /><path clip-path="url(#clip690)" d="M59.4956 516.736 Q59.4956 521.446 63.1877 524.183 Q66.848 526.921 73.2455 526.921 Q79.643 526.921 83.3351 524.215 Q86.9954 521.478 86.9954 516.736 Q86.9954 512.057 83.3033 509.32 Q79.6112 506.582 73.2455 506.582 Q66.9116 506.582 63.2195 509.32 Q59.4956 512.057 59.4956 516.736 M54.5303 516.736 Q54.5303 509.097 59.4956 504.736 Q64.4608 500.376 73.2455 500.376 Q81.9983 500.376 86.9954 504.736 Q91.9607 509.097 91.9607 516.736 Q91.9607 524.406 86.9954 528.767 Q81.9983 533.095 73.2455 533.095 Q64.4608 533.095 59.4956 528.767 Q54.5303 524.406 54.5303 516.736 Z" fill="#000000" fill-rule="nonzero" fill-opacity="1" /><path clip-path="url(#clip690)" d="M41.5125 490.668 L41.5125 484.812 L91.0377 484.812 L91.0377 490.668 L41.5125 490.668 Z" fill="#000000" fill-rule="nonzero" fill-opacity="1" /><path clip-path="url(#clip690)" d="M43.5177 462.15 L43.5177 456.739 L97.0851 473.29 L97.0851 478.7 L43.5177 462.15 Z" fill="#000000" fill-rule="nonzero" fill-opacity="1" /><path clip-path="url(#clip690)" d="M62.2328 422.841 Q58.2861 420.645 56.4082 417.59 Q54.5303 414.534 54.5303 410.396 Q54.5303 404.826 58.4452 401.803 Q62.3283 398.779 69.5216 398.779 L91.0377 398.779 L91.0377 404.667 L69.7125 404.667 Q64.5881 404.667 62.1055 406.482 Q59.6229 408.296 59.6229 412.02 Q59.6229 416.571 62.6466 419.213 Q65.6703 421.855 70.8902 421.855 L91.0377 421.855 L91.0377 427.743 L69.7125 427.743 Q64.5563 427.743 62.1055 429.557 Q59.6229 431.371 59.6229 435.159 Q59.6229 439.647 62.6784 442.289 Q65.7021 444.93 70.8902 444.93 L91.0377 444.93 L91.0377 450.819 L55.3897 450.819 L55.3897 444.93 L60.9279 444.93 Q57.6495 442.925 56.0899 440.124 Q54.5303 437.323 54.5303 433.472 Q54.5303 429.589 56.5037 426.884 Q58.4771 424.146 62.2328 422.841 Z" fill="#000000" fill-rule="nonzero" fill-opacity="1" /><path clip-path="url(#clip690)" d="M36.6275 391.739 Q35.2523 391.739 34.5985 390.95 Q33.9448 390.161 33.9448 389.146 Q33.9448 388.087 34.6436 387.343 Q35.32 386.576 36.5148 386.576 Q37.7998 386.576 38.5212 387.478 Q39.2426 388.357 39.0623 389.62 Q40.9109 388.515 41.745 386.486 Q42.5792 384.435 42.5792 382.541 Q42.5792 380.557 40.8658 378.957 Q39.1525 377.333 34.9592 377.333 Q31.3973 377.333 29.3458 378.731 Q27.2943 380.106 27.2943 382.834 L27.2943 384.863 Q27.2943 385.562 27.2266 385.765 Q27.159 385.968 26.7757 385.968 Q26.3249 385.968 26.2347 385.269 Q26.2347 384.57 26.0994 383.465 Q26.0092 380.783 23.6872 379.362 Q21.523 378.077 18.4344 378.077 Q15.6164 378.077 14.4441 379.43 Q13.2493 380.76 13.2493 382.496 Q13.2493 384.119 13.9256 385.9 Q14.6019 387.681 16.1124 388.65 Q16.1124 385.787 18.4344 385.787 Q19.4489 385.787 20.1252 386.441 Q20.779 387.072 20.779 388.132 Q20.779 389.146 20.1478 389.823 Q19.494 390.499 18.3893 390.499 Q15.7517 390.499 13.9256 388.155 Q12.0995 385.787 12.0995 382.316 Q12.0995 378.889 13.9031 376.364 Q15.7066 373.816 18.4795 373.816 Q21.2073 373.816 23.4392 375.62 Q25.6711 377.424 26.5954 380.287 Q27.2943 376.77 29.6839 374.673 Q32.0511 372.577 34.9592 372.577 Q38.5663 372.577 41.2265 375.417 Q43.8642 378.258 43.8642 382.406 Q43.8642 386.238 41.7901 388.989 Q39.7161 391.739 36.6275 391.739 Z" fill="#000000" fill-rule="nonzero" fill-opacity="1" /><path clip-path="url(#clip690)" d="M41.5761 365.722 L41.5761 360.63 Q49.0876 355.856 56.2809 353.5 Q63.4741 351.113 70.5719 351.113 Q77.7015 351.113 84.9266 353.5 Q92.1517 355.856 99.6314 360.63 L99.6314 365.722 Q92.3426 361.489 85.1494 359.42 Q77.9243 357.32 70.5719 357.32 Q63.2195 357.32 56.0581 359.42 Q48.8967 361.489 41.5761 365.722 Z" fill="#000000" fill-rule="nonzero" fill-opacity="1" /><polyline clip-path="url(#clip692)" style="stroke:#008000; stroke-linecap:round; stroke-linejoin:round; stroke-width:4; stroke-opacity:1; fill:none" stroke-dasharray="2, 4" points="695.618,85.838 1209.4,989.379 1733.23,1372.3 2266.49,1370.88 "/>
<path clip-path="url(#clip692)" d="M695.618 105.838 L678.298 95.838 L678.298 75.838 L695.618 65.838 L712.938 75.838 L712.938 95.838 Z" fill="#008000" fill-rule="evenodd" fill-opacity="1" stroke="#000000" stroke-opacity="1" stroke-width="3.2"/>
<path clip-path="url(#clip692)" d="M1209.4 1009.38 L1192.08 999.379 L1192.08 979.379 L1209.4 969.379 L1226.72 979.379 L1226.72 999.379 Z" fill="#008000" fill-rule="evenodd" fill-opacity="1" stroke="#000000" stroke-opacity="1" stroke-width="3.2"/>
<path clip-path="url(#clip692)" d="M1733.23 1392.3 L1715.91 1382.3 L1715.91 1362.3 L1733.23 1352.3 L1750.55 1362.3 L1750.55 1382.3 Z" fill="#008000" fill-rule="evenodd" fill-opacity="1" stroke="#000000" stroke-opacity="1" stroke-width="3.2"/>
<path clip-path="url(#clip692)" d="M2266.49 1390.88 L2249.17 1380.88 L2249.17 1360.88 L2266.49 1350.88 L2283.81 1360.88 L2283.81 1380.88 Z" fill="#008000" fill-rule="evenodd" fill-opacity="1" stroke="#000000" stroke-opacity="1" stroke-width="3.2"/>
<polyline clip-path="url(#clip692)" style="stroke:#a92a00; stroke-linecap:round; stroke-linejoin:round; stroke-width:4; stroke-opacity:1; fill:none" stroke-dasharray="2, 4" points="785.533,85.838 1228.15,989.379 1739.29,1372.3 2293.42,1370.88 "/>
<path clip-path="url(#clip692)" d="M785.533 105.838 L768.213 95.838 L768.213 75.838 L785.533 65.838 L802.853 75.838 L802.853 95.838 Z" fill="#a92a00" fill-rule="evenodd" fill-opacity="1" stroke="#000000" stroke-opacity="1" stroke-width="3.2"/>
<path clip-path="url(#clip692)" d="M1228.15 1009.38 L1210.83 999.379 L1210.83 979.379 L1228.15 969.379 L1245.47 979.379 L1245.47 999.379 Z" fill="#a92a00" fill-rule="evenodd" fill-opacity="1" stroke="#000000" stroke-opacity="1" stroke-width="3.2"/>
<path clip-path="url(#clip692)" d="M1739.29 1392.3 L1721.97 1382.3 L1721.97 1362.3 L1739.29 1352.3 L1756.61 1362.3 L1756.61 1382.3 Z" fill="#a92a00" fill-rule="evenodd" fill-opacity="1" stroke="#000000" stroke-opacity="1" stroke-width="3.2"/>
<path clip-path="url(#clip692)" d="M2293.42 1390.88 L2276.1 1380.88 L2276.1 1360.88 L2293.42 1350.88 L2310.74 1360.88 L2310.74 1380.88 Z" fill="#a92a00" fill-rule="evenodd" fill-opacity="1" stroke="#000000" stroke-opacity="1" stroke-width="3.2"/>
<polyline clip-path="url(#clip692)" style="stroke:#800080; stroke-linecap:round; stroke-linejoin:round; stroke-width:4; stroke-opacity:1; fill:none" stroke-dasharray="2, 4" points="315.619,85.838 855.827,989.378 1438.57,1372.3 2009.1,1370.88 "/>
<path clip-path="url(#clip692)" d="M315.619 65.838 L295.619 85.838 L315.619 105.838 L335.619 85.838 L315.619 65.838 Z" fill="#800080" fill-rule="evenodd" fill-opacity="1" stroke="#000000" stroke-opacity="1" stroke-width="3.2"/>
<path clip-path="url(#clip692)" d="M855.827 969.378 L835.827 989.378 L855.827 1009.38 L875.827 989.378 L855.827 969.378 Z" fill="#800080" fill-rule="evenodd" fill-opacity="1" stroke="#000000" stroke-opacity="1" stroke-width="3.2"/>
<path clip-path="url(#clip692)" d="M1438.57 1352.3 L1418.57 1372.3 L1438.57 1392.3 L1458.57 1372.3 L1438.57 1352.3 Z" fill="#800080" fill-rule="evenodd" fill-opacity="1" stroke="#000000" stroke-opacity="1" stroke-width="3.2"/>
<path clip-path="url(#clip692)" d="M2009.1 1350.88 L1989.1 1370.88 L2009.1 1390.88 L2029.1 1370.88 L2009.1 1350.88 Z" fill="#800080" fill-rule="evenodd" fill-opacity="1" stroke="#000000" stroke-opacity="1" stroke-width="3.2"/>
<polyline clip-path="url(#clip692)" style="stroke:#805580; stroke-linecap:round; stroke-linejoin:round; stroke-width:4; stroke-opacity:1; fill:none" stroke-dasharray="2, 4" points="405.07,85.838 911.093,989.378 1470.22,1372.3 2051.01,1370.88 "/>
<path clip-path="url(#clip692)" d="M405.07 65.838 L385.07 85.838 L405.07 105.838 L425.07 85.838 L405.07 65.838 Z" fill="#805580" fill-rule="evenodd" fill-opacity="1" stroke="#000000" stroke-opacity="1" stroke-width="3.2"/>
<path clip-path="url(#clip692)" d="M911.093 969.378 L891.093 989.378 L911.093 1009.38 L931.093 989.378 L911.093 969.378 Z" fill="#805580" fill-rule="evenodd" fill-opacity="1" stroke="#000000" stroke-opacity="1" stroke-width="3.2"/>
<path clip-path="url(#clip692)" d="M1470.22 1352.3 L1450.22 1372.3 L1470.22 1392.3 L1490.22 1372.3 L1470.22 1352.3 Z" fill="#805580" fill-rule="evenodd" fill-opacity="1" stroke="#000000" stroke-opacity="1" stroke-width="3.2"/>
<path clip-path="url(#clip692)" d="M2051.01 1350.88 L2031.01 1370.88 L2051.01 1390.88 L2071.01 1370.88 L2051.01 1350.88 Z" fill="#805580" fill-rule="evenodd" fill-opacity="1" stroke="#000000" stroke-opacity="1" stroke-width="3.2"/>
<polyline clip-path="url(#clip692)" style="stroke:#0000ff; stroke-linecap:round; stroke-linejoin:round; stroke-width:4; stroke-opacity:1; fill:none" stroke-dasharray="2, 4" points="344.145,85.838 863.263,989.378 1445.07,1372.3 2038.99,1370.88 "/>
<path clip-path="url(#clip692)" d="M344.145 65.838 L339.445 79.358 L325.125 79.658 L336.545 88.318 L332.385 102.018 L344.145 93.838 L355.905 102.018 L351.745 88.318 L363.165 79.658 L348.845 79.358 L344.145 65.838 Z" fill="#0000ff" fill-rule="evenodd" fill-opacity="1" stroke="#000000" stroke-opacity="1" stroke-width="3.2"/>
<path clip-path="url(#clip692)" d="M863.263 969.378 L858.563 982.898 L844.243 983.198 L855.663 991.858 L851.503 1005.56 L863.263 997.378 L875.023 1005.56 L870.863 991.858 L882.283 983.198 L867.963 982.898 L863.263 969.378 Z" fill="#0000ff" fill-rule="evenodd" fill-opacity="1" stroke="#000000" stroke-opacity="1" stroke-width="3.2"/>
<path clip-path="url(#clip692)" d="M1445.07 1352.3 L1440.37 1365.82 L1426.05 1366.12 L1437.47 1374.78 L1433.31 1388.48 L1445.07 1380.3 L1456.83 1388.48 L1452.67 1374.78 L1464.09 1366.12 L1449.77 1365.82 L1445.07 1352.3 Z" fill="#0000ff" fill-rule="evenodd" fill-opacity="1" stroke="#000000" stroke-opacity="1" stroke-width="3.2"/>
<path clip-path="url(#clip692)" d="M2038.99 1350.88 L2034.29 1364.4 L2019.97 1364.7 L2031.39 1373.36 L2027.23 1387.06 L2038.99 1378.88 L2050.75 1387.06 L2046.59 1373.36 L2058.01 1364.7 L2043.69 1364.4 L2038.99 1350.88 Z" fill="#0000ff" fill-rule="evenodd" fill-opacity="1" stroke="#000000" stroke-opacity="1" stroke-width="3.2"/>
<polyline clip-path="url(#clip692)" style="stroke:#a9a955; stroke-linecap:round; stroke-linejoin:round; stroke-width:4; stroke-opacity:1; fill:none" stroke-dasharray="2, 4" points="422.492,85.838 937.503,989.378 1499.28,1372.3 2224.83,1370.88 "/>
<path clip-path="url(#clip692)" d="M422.492 65.838 L417.792 79.358 L403.472 79.658 L414.892 88.318 L410.732 102.018 L422.492 93.838 L434.252 102.018 L430.092 88.318 L441.512 79.658 L427.192 79.358 L422.492 65.838 Z" fill="#a9a955" fill-rule="evenodd" fill-opacity="1" stroke="#000000" stroke-opacity="1" stroke-width="3.2"/>
<path clip-path="url(#clip692)" d="M937.503 969.378 L932.803 982.898 L918.483 983.198 L929.903 991.858 L925.743 1005.56 L937.503 997.378 L949.263 1005.56 L945.103 991.858 L956.523 983.198 L942.203 982.898 L937.503 969.378 Z" fill="#a9a955" fill-rule="evenodd" fill-opacity="1" stroke="#000000" stroke-opacity="1" stroke-width="3.2"/>
<path clip-path="url(#clip692)" d="M1499.28 1352.3 L1494.58 1365.82 L1480.26 1366.12 L1491.68 1374.78 L1487.52 1388.48 L1499.28 1380.3 L1511.04 1388.48 L1506.88 1374.78 L1518.3 1366.12 L1503.98 1365.82 L1499.28 1352.3 Z" fill="#a9a955" fill-rule="evenodd" fill-opacity="1" stroke="#000000" stroke-opacity="1" stroke-width="3.2"/>
<path clip-path="url(#clip692)" d="M2224.83 1350.88 L2220.13 1364.4 L2205.81 1364.7 L2217.23 1373.36 L2213.07 1387.06 L2224.83 1378.88 L2236.59 1387.06 L2232.43 1373.36 L2243.85 1364.7 L2229.53 1364.4 L2224.83 1350.88 Z" fill="#a9a955" fill-rule="evenodd" fill-opacity="1" stroke="#000000" stroke-opacity="1" stroke-width="3.2"/>
<path clip-path="url(#clip690)" d="M1814.8 455.579 L2282.87 455.579 L2282.87 92.6992 L1814.8 92.6992  Z" fill="#ffffff" fill-rule="evenodd" fill-opacity="1"/>
<polyline clip-path="url(#clip690)" style="stroke:#000000; stroke-linecap:round; stroke-linejoin:round; stroke-width:4; stroke-opacity:1; fill:none" points="1814.8,455.579 2282.87,455.579 2282.87,92.6992 1814.8,92.6992 1814.8,455.579 "/>
<polyline clip-path="url(#clip690)" style="stroke:#008000; stroke-linecap:round; stroke-linejoin:round; stroke-width:4; stroke-opacity:1; fill:none" stroke-dasharray="2, 4" points="1838.1,144.539 1977.86,144.539 "/>
<path clip-path="url(#clip690)" d="M1907.98 166.108 L1889.3 155.323 L1889.3 133.755 L1907.98 122.971 L1926.66 133.755 L1926.66 155.323 Z" fill="#008000" fill-rule="evenodd" fill-opacity="1" stroke="#000000" stroke-opacity="1" stroke-width="3.72364"/>
<path clip-path="url(#clip690)" d="M2001.15 127.259 L2021.02 127.259 L2021.02 131.194 L2005.83 131.194 L2005.83 141.379 L2019.53 141.379 L2019.53 145.315 L2005.83 145.315 L2005.83 161.819 L2001.15 161.819 L2001.15 127.259 Z" fill="#000000" fill-rule="nonzero" fill-opacity="1" /><path clip-path="url(#clip690)" d="M2033.1 145.315 L2033.1 157.977 L2040.6 157.977 Q2044.37 157.977 2046.18 156.426 Q2048.01 154.852 2048.01 151.634 Q2048.01 148.393 2046.18 146.866 Q2044.37 145.315 2040.6 145.315 L2033.1 145.315 M2033.1 131.102 L2033.1 141.518 L2040.02 141.518 Q2043.45 141.518 2045.11 140.245 Q2046.8 138.949 2046.8 136.31 Q2046.8 133.694 2045.11 132.398 Q2043.45 131.102 2040.02 131.102 L2033.1 131.102 M2028.42 127.259 L2040.37 127.259 Q2045.71 127.259 2048.61 129.481 Q2051.5 131.704 2051.5 135.801 Q2051.5 138.972 2050.02 140.847 Q2048.54 142.722 2045.67 143.185 Q2049.12 143.926 2051.02 146.287 Q2052.94 148.625 2052.94 152.143 Q2052.94 156.773 2049.79 159.296 Q2046.64 161.819 2040.83 161.819 L2028.42 161.819 L2028.42 127.259 Z" fill="#000000" fill-rule="nonzero" fill-opacity="1" /><path clip-path="url(#clip690)" d="M2065.62 131.102 L2065.62 157.977 L2071.27 157.977 Q2078.42 157.977 2081.73 154.736 Q2085.07 151.495 2085.07 144.504 Q2085.07 137.56 2081.73 134.342 Q2078.42 131.102 2071.27 131.102 L2065.62 131.102 M2060.95 127.259 L2070.55 127.259 Q2080.6 127.259 2085.3 131.449 Q2090 135.616 2090 144.504 Q2090 153.44 2085.27 157.629 Q2080.55 161.819 2070.55 161.819 L2060.95 161.819 L2060.95 127.259 Z" fill="#000000" fill-rule="nonzero" fill-opacity="1" /><path clip-path="url(#clip690)" d="M2097.45 127.259 L2117.31 127.259 L2117.31 131.194 L2102.13 131.194 L2102.13 141.379 L2115.83 141.379 L2115.83 145.315 L2102.13 145.315 L2102.13 161.819 L2097.45 161.819 L2097.45 127.259 Z" fill="#000000" fill-rule="nonzero" fill-opacity="1" /><polyline clip-path="url(#clip690)" style="stroke:#a92a00; stroke-linecap:round; stroke-linejoin:round; stroke-width:4; stroke-opacity:1; fill:none" stroke-dasharray="2, 4" points="1838.1,196.379 1977.86,196.379 "/>
<path clip-path="url(#clip690)" d="M1907.98 217.948 L1889.3 207.163 L1889.3 185.595 L1907.98 174.811 L1926.66 185.595 L1926.66 207.163 Z" fill="#a92a00" fill-rule="evenodd" fill-opacity="1" stroke="#000000" stroke-opacity="1" stroke-width="3.72364"/>
<path clip-path="url(#clip690)" d="M2001.15 179.099 L2021.02 179.099 L2021.02 183.034 L2005.83 183.034 L2005.83 193.219 L2019.53 193.219 L2019.53 197.155 L2005.83 197.155 L2005.83 213.659 L2001.15 213.659 L2001.15 179.099 Z" fill="#000000" fill-rule="nonzero" fill-opacity="1" /><path clip-path="url(#clip690)" d="M2033.1 197.155 L2033.1 209.817 L2040.6 209.817 Q2044.37 209.817 2046.18 208.266 Q2048.01 206.692 2048.01 203.474 Q2048.01 200.233 2046.18 198.706 Q2044.37 197.155 2040.6 197.155 L2033.1 197.155 M2033.1 182.942 L2033.1 193.358 L2040.02 193.358 Q2043.45 193.358 2045.11 192.085 Q2046.8 190.789 2046.8 188.15 Q2046.8 185.534 2045.11 184.238 Q2043.45 182.942 2040.02 182.942 L2033.1 182.942 M2028.42 179.099 L2040.37 179.099 Q2045.71 179.099 2048.61 181.321 Q2051.5 183.544 2051.5 187.641 Q2051.5 190.812 2050.02 192.687 Q2048.54 194.562 2045.67 195.025 Q2049.12 195.766 2051.02 198.127 Q2052.94 200.465 2052.94 203.983 Q2052.94 208.613 2049.79 211.136 Q2046.64 213.659 2040.83 213.659 L2028.42 213.659 L2028.42 179.099 Z" fill="#000000" fill-rule="nonzero" fill-opacity="1" /><path clip-path="url(#clip690)" d="M2065.62 182.942 L2065.62 209.817 L2071.27 209.817 Q2078.42 209.817 2081.73 206.576 Q2085.07 203.335 2085.07 196.344 Q2085.07 189.4 2081.73 186.182 Q2078.42 182.942 2071.27 182.942 L2065.62 182.942 M2060.95 179.099 L2070.55 179.099 Q2080.6 179.099 2085.3 183.289 Q2090 187.456 2090 196.344 Q2090 205.28 2085.27 209.469 Q2080.55 213.659 2070.55 213.659 L2060.95 213.659 L2060.95 179.099 Z" fill="#000000" fill-rule="nonzero" fill-opacity="1" /><path clip-path="url(#clip690)" d="M2097.45 179.099 L2117.31 179.099 L2117.31 183.034 L2102.13 183.034 L2102.13 193.219 L2115.83 193.219 L2115.83 197.155 L2102.13 197.155 L2102.13 213.659 L2097.45 213.659 L2097.45 179.099 Z" fill="#000000" fill-rule="nonzero" fill-opacity="1" /><path clip-path="url(#clip690)" d="M2144.23 221.53 L2144.23 224.84 L2119.6 224.84 L2119.6 221.53 L2144.23 221.53 Z" fill="#000000" fill-rule="nonzero" fill-opacity="1" /><path clip-path="url(#clip690)" d="M2152.36 209.77 L2152.36 223.52 L2148.08 223.52 L2148.08 187.733 L2152.36 187.733 L2152.36 191.669 Q2153.7 189.354 2155.74 188.243 Q2157.8 187.108 2160.64 187.108 Q2165.37 187.108 2168.31 190.858 Q2171.27 194.608 2171.27 200.719 Q2171.27 206.831 2168.31 210.58 Q2165.37 214.33 2160.64 214.33 Q2157.8 214.33 2155.74 213.219 Q2153.7 212.085 2152.36 209.77 M2166.85 200.719 Q2166.85 196.02 2164.9 193.358 Q2162.98 190.673 2159.6 190.673 Q2156.22 190.673 2154.28 193.358 Q2152.36 196.02 2152.36 200.719 Q2152.36 205.418 2154.28 208.104 Q2156.22 210.766 2159.6 210.766 Q2162.98 210.766 2164.9 208.104 Q2166.85 205.418 2166.85 200.719 Z" fill="#000000" fill-rule="nonzero" fill-opacity="1" /><path clip-path="url(#clip690)" d="M2193.35 191.715 Q2192.64 191.298 2191.78 191.113 Q2190.95 190.905 2189.93 190.905 Q2186.32 190.905 2184.37 193.266 Q2182.45 195.604 2182.45 200.002 L2182.45 213.659 L2178.17 213.659 L2178.17 187.733 L2182.45 187.733 L2182.45 191.761 Q2183.79 189.4 2185.95 188.266 Q2188.1 187.108 2191.18 187.108 Q2191.62 187.108 2192.15 187.178 Q2192.68 187.224 2193.33 187.34 L2193.35 191.715 Z" fill="#000000" fill-rule="nonzero" fill-opacity="1" /><path clip-path="url(#clip690)" d="M2218.95 199.631 L2218.95 201.715 L2199.37 201.715 Q2199.65 206.113 2202.01 208.428 Q2204.39 210.719 2208.63 210.719 Q2211.08 210.719 2213.38 210.118 Q2215.69 209.516 2217.96 208.312 L2217.96 212.34 Q2215.67 213.312 2213.26 213.821 Q2210.85 214.33 2208.38 214.33 Q2202.17 214.33 2198.54 210.719 Q2194.93 207.108 2194.93 200.951 Q2194.93 194.585 2198.35 190.858 Q2201.8 187.108 2207.64 187.108 Q2212.87 187.108 2215.9 190.488 Q2218.95 193.844 2218.95 199.631 M2214.7 198.381 Q2214.65 194.886 2212.73 192.803 Q2210.83 190.719 2207.68 190.719 Q2204.12 190.719 2201.96 192.733 Q2199.83 194.747 2199.51 198.405 L2214.7 198.381 Z" fill="#000000" fill-rule="nonzero" fill-opacity="1" /><path clip-path="url(#clip690)" d="M2244.6 188.729 L2244.6 192.71 Q2242.8 191.715 2240.97 191.229 Q2239.16 190.719 2237.31 190.719 Q2233.17 190.719 2230.88 193.358 Q2228.58 195.974 2228.58 200.719 Q2228.58 205.465 2230.88 208.104 Q2233.17 210.719 2237.31 210.719 Q2239.16 210.719 2240.97 210.233 Q2242.8 209.724 2244.6 208.729 L2244.6 212.664 Q2242.82 213.497 2240.9 213.914 Q2239 214.33 2236.85 214.33 Q2230.99 214.33 2227.54 210.65 Q2224.09 206.969 2224.09 200.719 Q2224.09 194.377 2227.57 190.743 Q2231.06 187.108 2237.13 187.108 Q2239.09 187.108 2240.97 187.525 Q2242.84 187.919 2244.6 188.729 Z" fill="#000000" fill-rule="nonzero" fill-opacity="1" /><polyline clip-path="url(#clip690)" style="stroke:#800080; stroke-linecap:round; stroke-linejoin:round; stroke-width:4; stroke-opacity:1; fill:none" stroke-dasharray="2, 4" points="1838.1,248.219 1977.86,248.219 "/>
<path clip-path="url(#clip690)" d="M1907.98 226.651 L1886.41 248.219 L1907.98 269.788 L1929.55 248.219 L1907.98 226.651 Z" fill="#800080" fill-rule="evenodd" fill-opacity="1" stroke="#000000" stroke-opacity="1" stroke-width="3.72364"/>
<path clip-path="url(#clip690)" d="M2017.17 234.11 Q2012.08 234.11 2009.07 237.907 Q2006.09 241.703 2006.09 248.254 Q2006.09 254.782 2009.07 258.578 Q2012.08 262.374 2017.17 262.374 Q2022.27 262.374 2025.23 258.578 Q2028.21 254.782 2028.21 248.254 Q2028.21 241.703 2025.23 237.907 Q2022.27 234.11 2017.17 234.11 M2023.72 264.874 L2029.88 271.61 L2024.23 271.61 L2019.12 266.078 Q2018.35 266.124 2017.94 266.147 Q2017.54 266.17 2017.17 266.17 Q2009.88 266.17 2005.51 261.309 Q2001.15 256.425 2001.15 248.254 Q2001.15 240.06 2005.51 235.198 Q2009.88 230.314 2017.17 230.314 Q2024.44 230.314 2028.79 235.198 Q2033.15 240.06 2033.15 248.254 Q2033.15 254.272 2030.71 258.555 Q2028.31 262.837 2023.72 264.874 Z" fill="#000000" fill-rule="nonzero" fill-opacity="1" /><path clip-path="url(#clip690)" d="M2040.46 230.939 L2046.76 230.939 L2062.08 259.851 L2062.08 230.939 L2066.62 230.939 L2066.62 265.499 L2060.32 265.499 L2045 236.587 L2045 265.499 L2040.46 265.499 L2040.46 230.939 Z" fill="#000000" fill-rule="nonzero" fill-opacity="1" /><path clip-path="url(#clip690)" d="M2080.6 234.782 L2080.6 261.657 L2086.25 261.657 Q2093.4 261.657 2096.71 258.416 Q2100.04 255.175 2100.04 248.184 Q2100.04 241.24 2096.71 238.022 Q2093.4 234.782 2086.25 234.782 L2080.6 234.782 M2075.92 230.939 L2085.53 230.939 Q2095.58 230.939 2100.27 235.129 Q2104.97 239.296 2104.97 248.184 Q2104.97 257.12 2100.25 261.309 Q2095.53 265.499 2085.53 265.499 L2075.92 265.499 L2075.92 230.939 Z" fill="#000000" fill-rule="nonzero" fill-opacity="1" /><path clip-path="url(#clip690)" d="M2112.43 230.939 L2132.29 230.939 L2132.29 234.874 L2117.1 234.874 L2117.1 245.059 L2130.81 245.059 L2130.81 248.995 L2117.1 248.995 L2117.1 265.499 L2112.43 265.499 L2112.43 230.939 Z" fill="#000000" fill-rule="nonzero" fill-opacity="1" /><polyline clip-path="url(#clip690)" style="stroke:#805580; stroke-linecap:round; stroke-linejoin:round; stroke-width:4; stroke-opacity:1; fill:none" stroke-dasharray="2, 4" points="1838.1,300.059 1977.86,300.059 "/>
<path clip-path="url(#clip690)" d="M1907.98 278.491 L1886.41 300.059 L1907.98 321.628 L1929.55 300.059 L1907.98 278.491 Z" fill="#805580" fill-rule="evenodd" fill-opacity="1" stroke="#000000" stroke-opacity="1" stroke-width="3.72364"/>
<path clip-path="url(#clip690)" d="M2017.17 285.95 Q2012.08 285.95 2009.07 289.747 Q2006.09 293.543 2006.09 300.094 Q2006.09 306.622 2009.07 310.418 Q2012.08 314.214 2017.17 314.214 Q2022.27 314.214 2025.23 310.418 Q2028.21 306.622 2028.21 300.094 Q2028.21 293.543 2025.23 289.747 Q2022.27 285.95 2017.17 285.95 M2023.72 316.714 L2029.88 323.45 L2024.23 323.45 L2019.12 317.918 Q2018.35 317.964 2017.94 317.987 Q2017.54 318.01 2017.17 318.01 Q2009.88 318.01 2005.51 313.149 Q2001.15 308.265 2001.15 300.094 Q2001.15 291.9 2005.51 287.038 Q2009.88 282.154 2017.17 282.154 Q2024.44 282.154 2028.79 287.038 Q2033.15 291.9 2033.15 300.094 Q2033.15 306.112 2030.71 310.395 Q2028.31 314.677 2023.72 316.714 Z" fill="#000000" fill-rule="nonzero" fill-opacity="1" /><path clip-path="url(#clip690)" d="M2040.46 282.779 L2046.76 282.779 L2062.08 311.691 L2062.08 282.779 L2066.62 282.779 L2066.62 317.339 L2060.32 317.339 L2045 288.427 L2045 317.339 L2040.46 317.339 L2040.46 282.779 Z" fill="#000000" fill-rule="nonzero" fill-opacity="1" /><path clip-path="url(#clip690)" d="M2080.6 286.622 L2080.6 313.497 L2086.25 313.497 Q2093.4 313.497 2096.71 310.256 Q2100.04 307.015 2100.04 300.024 Q2100.04 293.08 2096.71 289.862 Q2093.4 286.622 2086.25 286.622 L2080.6 286.622 M2075.92 282.779 L2085.53 282.779 Q2095.58 282.779 2100.27 286.969 Q2104.97 291.136 2104.97 300.024 Q2104.97 308.96 2100.25 313.149 Q2095.53 317.339 2085.53 317.339 L2075.92 317.339 L2075.92 282.779 Z" fill="#000000" fill-rule="nonzero" fill-opacity="1" /><path clip-path="url(#clip690)" d="M2112.43 282.779 L2132.29 282.779 L2132.29 286.714 L2117.1 286.714 L2117.1 296.899 L2130.81 296.899 L2130.81 300.835 L2117.1 300.835 L2117.1 317.339 L2112.43 317.339 L2112.43 282.779 Z" fill="#000000" fill-rule="nonzero" fill-opacity="1" /><path clip-path="url(#clip690)" d="M2159.21 325.21 L2159.21 328.52 L2134.58 328.52 L2134.58 325.21 L2159.21 325.21 Z" fill="#000000" fill-rule="nonzero" fill-opacity="1" /><path clip-path="url(#clip690)" d="M2167.33 313.45 L2167.33 327.2 L2163.05 327.2 L2163.05 291.413 L2167.33 291.413 L2167.33 295.349 Q2168.68 293.034 2170.71 291.923 Q2172.77 290.788 2175.62 290.788 Q2180.34 290.788 2183.28 294.538 Q2186.25 298.288 2186.25 304.399 Q2186.25 310.511 2183.28 314.26 Q2180.34 318.01 2175.62 318.01 Q2172.77 318.01 2170.71 316.899 Q2168.68 315.765 2167.33 313.45 M2181.83 304.399 Q2181.83 299.7 2179.88 297.038 Q2177.96 294.353 2174.58 294.353 Q2171.2 294.353 2169.26 297.038 Q2167.33 299.7 2167.33 304.399 Q2167.33 309.098 2169.26 311.784 Q2171.2 314.446 2174.58 314.446 Q2177.96 314.446 2179.88 311.784 Q2181.83 309.098 2181.83 304.399 Z" fill="#000000" fill-rule="nonzero" fill-opacity="1" /><path clip-path="url(#clip690)" d="M2208.33 295.395 Q2207.61 294.978 2206.76 294.793 Q2205.92 294.585 2204.9 294.585 Q2201.29 294.585 2199.35 296.946 Q2197.43 299.284 2197.43 303.682 L2197.43 317.339 L2193.14 317.339 L2193.14 291.413 L2197.43 291.413 L2197.43 295.441 Q2198.77 293.08 2200.92 291.946 Q2203.08 290.788 2206.15 290.788 Q2206.59 290.788 2207.13 290.858 Q2207.66 290.904 2208.31 291.02 L2208.33 295.395 Z" fill="#000000" fill-rule="nonzero" fill-opacity="1" /><path clip-path="url(#clip690)" d="M2233.93 303.311 L2233.93 305.395 L2214.35 305.395 Q2214.63 309.793 2216.99 312.108 Q2219.37 314.399 2223.61 314.399 Q2226.06 314.399 2228.35 313.798 Q2230.67 313.196 2232.94 311.992 L2232.94 316.02 Q2230.64 316.992 2228.24 317.501 Q2225.83 318.01 2223.35 318.01 Q2217.15 318.01 2213.51 314.399 Q2209.9 310.788 2209.9 304.631 Q2209.9 298.265 2213.33 294.538 Q2216.78 290.788 2222.61 290.788 Q2227.84 290.788 2230.88 294.168 Q2233.93 297.524 2233.93 303.311 M2229.67 302.061 Q2229.63 298.566 2227.7 296.483 Q2225.81 294.399 2222.66 294.399 Q2219.09 294.399 2216.94 296.413 Q2214.81 298.427 2214.49 302.085 L2229.67 302.061 Z" fill="#000000" fill-rule="nonzero" fill-opacity="1" /><path clip-path="url(#clip690)" d="M2259.58 292.409 L2259.58 296.39 Q2257.77 295.395 2255.95 294.909 Q2254.14 294.399 2252.29 294.399 Q2248.14 294.399 2245.85 297.038 Q2243.56 299.654 2243.56 304.399 Q2243.56 309.145 2245.85 311.784 Q2248.14 314.399 2252.29 314.399 Q2254.14 314.399 2255.95 313.913 Q2257.77 313.404 2259.58 312.409 L2259.58 316.344 Q2257.8 317.177 2255.88 317.594 Q2253.98 318.01 2251.82 318.01 Q2245.97 318.01 2242.52 314.33 Q2239.07 310.649 2239.07 304.399 Q2239.07 298.057 2242.54 294.423 Q2246.04 290.788 2252.1 290.788 Q2254.07 290.788 2255.95 291.205 Q2257.82 291.599 2259.58 292.409 Z" fill="#000000" fill-rule="nonzero" fill-opacity="1" /><polyline clip-path="url(#clip690)" style="stroke:#0000ff; stroke-linecap:round; stroke-linejoin:round; stroke-width:4; stroke-opacity:1; fill:none" stroke-dasharray="2, 4" points="1838.1,351.899 1977.86,351.899 "/>
<path clip-path="url(#clip690)" d="M1907.98 330.331 L1902.91 344.911 L1887.47 345.234 L1899.78 354.574 L1895.3 369.348 L1907.98 360.527 L1920.66 369.348 L1916.17 354.574 L1928.49 345.234 L1913.05 344.911 L1907.98 330.331 Z" fill="#0000ff" fill-rule="evenodd" fill-opacity="1" stroke="#000000" stroke-opacity="1" stroke-width="3.72364"/>
<path clip-path="url(#clip690)" d="M2017.17 337.79 Q2012.08 337.79 2009.07 341.587 Q2006.09 345.383 2006.09 351.934 Q2006.09 358.462 2009.07 362.258 Q2012.08 366.054 2017.17 366.054 Q2022.27 366.054 2025.23 362.258 Q2028.21 358.462 2028.21 351.934 Q2028.21 345.383 2025.23 341.587 Q2022.27 337.79 2017.17 337.79 M2023.72 368.554 L2029.88 375.29 L2024.23 375.29 L2019.12 369.758 Q2018.35 369.804 2017.94 369.827 Q2017.54 369.85 2017.17 369.85 Q2009.88 369.85 2005.51 364.989 Q2001.15 360.105 2001.15 351.934 Q2001.15 343.74 2005.51 338.878 Q2009.88 333.994 2017.17 333.994 Q2024.44 333.994 2028.79 338.878 Q2033.15 343.74 2033.15 351.934 Q2033.15 357.952 2030.71 362.235 Q2028.31 366.517 2023.72 368.554 Z" fill="#000000" fill-rule="nonzero" fill-opacity="1" /><path clip-path="url(#clip690)" d="M2045.14 352.675 L2045.14 365.337 L2052.64 365.337 Q2056.41 365.337 2058.21 363.786 Q2060.04 362.212 2060.04 358.994 Q2060.04 355.753 2058.21 354.226 Q2056.41 352.675 2052.64 352.675 L2045.14 352.675 M2045.14 338.462 L2045.14 348.878 L2052.06 348.878 Q2055.48 348.878 2057.15 347.605 Q2058.84 346.309 2058.84 343.67 Q2058.84 341.054 2057.15 339.758 Q2055.48 338.462 2052.06 338.462 L2045.14 338.462 M2040.46 334.619 L2052.4 334.619 Q2057.75 334.619 2060.65 336.841 Q2063.54 339.064 2063.54 343.161 Q2063.54 346.332 2062.06 348.207 Q2060.58 350.082 2057.71 350.545 Q2061.15 351.286 2063.05 353.647 Q2064.97 355.985 2064.97 359.503 Q2064.97 364.133 2061.83 366.656 Q2058.68 369.179 2052.87 369.179 L2040.46 369.179 L2040.46 334.619 Z" fill="#000000" fill-rule="nonzero" fill-opacity="1" /><path clip-path="url(#clip690)" d="M2077.66 338.462 L2077.66 365.337 L2083.31 365.337 Q2090.46 365.337 2093.77 362.096 Q2097.1 358.855 2097.1 351.864 Q2097.1 344.92 2093.77 341.702 Q2090.46 338.462 2083.31 338.462 L2077.66 338.462 M2072.98 334.619 L2082.59 334.619 Q2092.64 334.619 2097.33 338.809 Q2102.03 342.976 2102.03 351.864 Q2102.03 360.8 2097.31 364.989 Q2092.59 369.179 2082.59 369.179 L2072.98 369.179 L2072.98 334.619 Z" fill="#000000" fill-rule="nonzero" fill-opacity="1" /><path clip-path="url(#clip690)" d="M2109.49 334.619 L2129.35 334.619 L2129.35 338.554 L2114.16 338.554 L2114.16 348.739 L2127.87 348.739 L2127.87 352.675 L2114.16 352.675 L2114.16 369.179 L2109.49 369.179 L2109.49 334.619 Z" fill="#000000" fill-rule="nonzero" fill-opacity="1" /><polyline clip-path="url(#clip690)" style="stroke:#a9a955; stroke-linecap:round; stroke-linejoin:round; stroke-width:4; stroke-opacity:1; fill:none" stroke-dasharray="2, 4" points="1838.1,403.739 1977.86,403.739 "/>
<path clip-path="url(#clip690)" d="M1907.98 382.171 L1902.91 396.751 L1887.47 397.074 L1899.78 406.414 L1895.3 421.188 L1907.98 412.367 L1920.66 421.188 L1916.17 406.414 L1928.49 397.074 L1913.05 396.751 L1907.98 382.171 Z" fill="#a9a955" fill-rule="evenodd" fill-opacity="1" stroke="#000000" stroke-opacity="1" stroke-width="3.72364"/>
<path clip-path="url(#clip690)" d="M2017.17 389.63 Q2012.08 389.63 2009.07 393.427 Q2006.09 397.223 2006.09 403.774 Q2006.09 410.302 2009.07 414.098 Q2012.08 417.894 2017.17 417.894 Q2022.27 417.894 2025.23 414.098 Q2028.21 410.302 2028.21 403.774 Q2028.21 397.223 2025.23 393.427 Q2022.27 389.63 2017.17 389.63 M2023.72 420.394 L2029.88 427.13 L2024.23 427.13 L2019.12 421.598 Q2018.35 421.644 2017.94 421.667 Q2017.54 421.69 2017.17 421.69 Q2009.88 421.69 2005.51 416.829 Q2001.15 411.945 2001.15 403.774 Q2001.15 395.58 2005.51 390.718 Q2009.88 385.834 2017.17 385.834 Q2024.44 385.834 2028.79 390.718 Q2033.15 395.58 2033.15 403.774 Q2033.15 409.792 2030.71 414.075 Q2028.31 418.357 2023.72 420.394 Z" fill="#000000" fill-rule="nonzero" fill-opacity="1" /><path clip-path="url(#clip690)" d="M2045.14 404.515 L2045.14 417.177 L2052.64 417.177 Q2056.41 417.177 2058.21 415.626 Q2060.04 414.052 2060.04 410.834 Q2060.04 407.593 2058.21 406.066 Q2056.41 404.515 2052.64 404.515 L2045.14 404.515 M2045.14 390.302 L2045.14 400.718 L2052.06 400.718 Q2055.48 400.718 2057.15 399.445 Q2058.84 398.149 2058.84 395.51 Q2058.84 392.894 2057.15 391.598 Q2055.48 390.302 2052.06 390.302 L2045.14 390.302 M2040.46 386.459 L2052.4 386.459 Q2057.75 386.459 2060.65 388.681 Q2063.54 390.904 2063.54 395.001 Q2063.54 398.172 2062.06 400.047 Q2060.58 401.922 2057.71 402.385 Q2061.15 403.126 2063.05 405.487 Q2064.97 407.825 2064.97 411.343 Q2064.97 415.973 2061.83 418.496 Q2058.68 421.019 2052.87 421.019 L2040.46 421.019 L2040.46 386.459 Z" fill="#000000" fill-rule="nonzero" fill-opacity="1" /><path clip-path="url(#clip690)" d="M2077.66 390.302 L2077.66 417.177 L2083.31 417.177 Q2090.46 417.177 2093.77 413.936 Q2097.1 410.695 2097.1 403.704 Q2097.1 396.76 2093.77 393.542 Q2090.46 390.302 2083.31 390.302 L2077.66 390.302 M2072.98 386.459 L2082.59 386.459 Q2092.64 386.459 2097.33 390.649 Q2102.03 394.816 2102.03 403.704 Q2102.03 412.64 2097.31 416.829 Q2092.59 421.019 2082.59 421.019 L2072.98 421.019 L2072.98 386.459 Z" fill="#000000" fill-rule="nonzero" fill-opacity="1" /><path clip-path="url(#clip690)" d="M2109.49 386.459 L2129.35 386.459 L2129.35 390.394 L2114.16 390.394 L2114.16 400.579 L2127.87 400.579 L2127.87 404.515 L2114.16 404.515 L2114.16 421.019 L2109.49 421.019 L2109.49 386.459 Z" fill="#000000" fill-rule="nonzero" fill-opacity="1" /><path clip-path="url(#clip690)" d="M2156.27 428.89 L2156.27 432.2 L2131.64 432.2 L2131.64 428.89 L2156.27 428.89 Z" fill="#000000" fill-rule="nonzero" fill-opacity="1" /><path clip-path="url(#clip690)" d="M2164.39 417.13 L2164.39 430.88 L2160.11 430.88 L2160.11 395.093 L2164.39 395.093 L2164.39 399.029 Q2165.74 396.714 2167.77 395.603 Q2169.83 394.468 2172.68 394.468 Q2177.4 394.468 2180.34 398.218 Q2183.31 401.968 2183.31 408.079 Q2183.31 414.191 2180.34 417.94 Q2177.4 421.69 2172.68 421.69 Q2169.83 421.69 2167.77 420.579 Q2165.74 419.445 2164.39 417.13 M2178.89 408.079 Q2178.89 403.38 2176.94 400.718 Q2175.02 398.033 2171.64 398.033 Q2168.26 398.033 2166.32 400.718 Q2164.39 403.38 2164.39 408.079 Q2164.39 412.778 2166.32 415.464 Q2168.26 418.126 2171.64 418.126 Q2175.02 418.126 2176.94 415.464 Q2178.89 412.778 2178.89 408.079 Z" fill="#000000" fill-rule="nonzero" fill-opacity="1" /><path clip-path="url(#clip690)" d="M2205.39 399.075 Q2204.67 398.658 2203.82 398.473 Q2202.98 398.265 2201.96 398.265 Q2198.35 398.265 2196.41 400.626 Q2194.49 402.964 2194.49 407.362 L2194.49 421.019 L2190.2 421.019 L2190.2 395.093 L2194.49 395.093 L2194.49 399.121 Q2195.83 396.76 2197.98 395.626 Q2200.14 394.468 2203.21 394.468 Q2203.65 394.468 2204.19 394.538 Q2204.72 394.584 2205.37 394.7 L2205.39 399.075 Z" fill="#000000" fill-rule="nonzero" fill-opacity="1" /><path clip-path="url(#clip690)" d="M2230.99 406.991 L2230.99 409.075 L2211.41 409.075 Q2211.69 413.473 2214.05 415.788 Q2216.43 418.079 2220.67 418.079 Q2223.12 418.079 2225.41 417.478 Q2227.73 416.876 2230 415.672 L2230 419.7 Q2227.7 420.672 2225.3 421.181 Q2222.89 421.69 2220.41 421.69 Q2214.21 421.69 2210.58 418.079 Q2206.96 414.468 2206.96 408.311 Q2206.96 401.945 2210.39 398.218 Q2213.84 394.468 2219.67 394.468 Q2224.9 394.468 2227.94 397.848 Q2230.99 401.204 2230.99 406.991 M2226.73 405.741 Q2226.69 402.246 2224.76 400.163 Q2222.87 398.079 2219.72 398.079 Q2216.15 398.079 2214 400.093 Q2211.87 402.107 2211.55 405.765 L2226.73 405.741 Z" fill="#000000" fill-rule="nonzero" fill-opacity="1" /><path clip-path="url(#clip690)" d="M2256.64 396.089 L2256.64 400.07 Q2254.83 399.075 2253.01 398.589 Q2251.2 398.079 2249.35 398.079 Q2245.2 398.079 2242.91 400.718 Q2240.62 403.334 2240.62 408.079 Q2240.62 412.825 2242.91 415.464 Q2245.2 418.079 2249.35 418.079 Q2251.2 418.079 2253.01 417.593 Q2254.83 417.084 2256.64 416.089 L2256.64 420.024 Q2254.86 420.857 2252.94 421.274 Q2251.04 421.69 2248.89 421.69 Q2243.03 421.69 2239.58 418.01 Q2236.13 414.329 2236.13 408.079 Q2236.13 401.737 2239.6 398.103 Q2243.1 394.468 2249.16 394.468 Q2251.13 394.468 2253.01 394.885 Q2254.88 395.279 2256.64 396.089 Z" fill="#000000" fill-rule="nonzero" fill-opacity="1" /></svg>
