<?xml version="1.0" encoding="utf-8"?>
<svg xmlns="http://www.w3.org/2000/svg" xmlns:xlink="http://www.w3.org/1999/xlink" width="600" height="400" viewBox="0 0 2400 1600">
<defs>
  <clipPath id="clip650">
    <rect x="0" y="0" width="2400" height="1600"/>
  </clipPath>
</defs>
<path clip-path="url(#clip650)" d="M0 1600 L2400 1600 L2400 0 L0 0  Z" fill="#ffffff" fill-rule="evenodd" fill-opacity="1"/>
<defs>
  <clipPath id="clip651">
    <rect x="480" y="0" width="1681" height="1600"/>
  </clipPath>
</defs>
<path clip-path="url(#clip650)" d="M219.033 1423.18 L2352.76 1423.18 L2352.76 47.2441 L219.033 47.2441  Z" fill="#ffffff" fill-rule="evenodd" fill-opacity="1"/>
<defs>
  <clipPath id="clip652">
    <rect x="219" y="47" width="2135" height="1377"/>
  </clipPath>
</defs>
<polyline clip-path="url(#clip652)" style="stroke:#000000; stroke-linecap:round; stroke-linejoin:round; stroke-width:2; stroke-opacity:0.1; fill:none" points="318.635,1423.18 318.635,47.2441 "/>
<polyline clip-path="url(#clip652)" style="stroke:#000000; stroke-linecap:round; stroke-linejoin:round; stroke-width:2; stroke-opacity:0.1; fill:none" points="645.412,1423.18 645.412,47.2441 "/>
<polyline clip-path="url(#clip652)" style="stroke:#000000; stroke-linecap:round; stroke-linejoin:round; stroke-width:2; stroke-opacity:0.1; fill:none" points="972.189,1423.18 972.189,47.2441 "/>
<polyline clip-path="url(#clip652)" style="stroke:#000000; stroke-linecap:round; stroke-linejoin:round; stroke-width:2; stroke-opacity:0.1; fill:none" points="1298.97,1423.18 1298.97,47.2441 "/>
<polyline clip-path="url(#clip652)" style="stroke:#000000; stroke-linecap:round; stroke-linejoin:round; stroke-width:2; stroke-opacity:0.1; fill:none" points="1625.74,1423.18 1625.74,47.2441 "/>
<polyline clip-path="url(#clip652)" style="stroke:#000000; stroke-linecap:round; stroke-linejoin:round; stroke-width:2; stroke-opacity:0.1; fill:none" points="1952.52,1423.18 1952.52,47.2441 "/>
<polyline clip-path="url(#clip652)" style="stroke:#000000; stroke-linecap:round; stroke-linejoin:round; stroke-width:2; stroke-opacity:0.1; fill:none" points="2279.3,1423.18 2279.3,47.2441 "/>
<polyline clip-path="url(#clip650)" style="stroke:#000000; stroke-linecap:round; stroke-linejoin:round; stroke-width:4; stroke-opacity:1; fill:none" points="219.033,1423.18 2352.76,1423.18 "/>
<polyline clip-path="url(#clip650)" style="stroke:#000000; stroke-linecap:round; stroke-linejoin:round; stroke-width:4; stroke-opacity:1; fill:none" points="318.635,1423.18 318.635,1404.28 "/>
<polyline clip-path="url(#clip650)" style="stroke:#000000; stroke-linecap:round; stroke-linejoin:round; stroke-width:4; stroke-opacity:1; fill:none" points="645.412,1423.18 645.412,1404.28 "/>
<polyline clip-path="url(#clip650)" style="stroke:#000000; stroke-linecap:round; stroke-linejoin:round; stroke-width:4; stroke-opacity:1; fill:none" points="972.189,1423.18 972.189,1404.28 "/>
<polyline clip-path="url(#clip650)" style="stroke:#000000; stroke-linecap:round; stroke-linejoin:round; stroke-width:4; stroke-opacity:1; fill:none" points="1298.97,1423.18 1298.97,1404.28 "/>
<polyline clip-path="url(#clip650)" style="stroke:#000000; stroke-linecap:round; stroke-linejoin:round; stroke-width:4; stroke-opacity:1; fill:none" points="1625.74,1423.18 1625.74,1404.28 "/>
<polyline clip-path="url(#clip650)" style="stroke:#000000; stroke-linecap:round; stroke-linejoin:round; stroke-width:4; stroke-opacity:1; fill:none" points="1952.52,1423.18 1952.52,1404.28 "/>
<polyline clip-path="url(#clip650)" style="stroke:#000000; stroke-linecap:round; stroke-linejoin:round; stroke-width:4; stroke-opacity:1; fill:none" points="2279.3,1423.18 2279.3,1404.28 "/>
<path clip-path="url(#clip650)" d="M282.327 1481.64 L298.646 1481.64 L298.646 1485.58 L276.702 1485.58 L276.702 1481.64 Q279.364 1478.89 283.947 1474.26 Q288.554 1469.61 289.734 1468.27 Q291.98 1465.74 292.859 1464.01 Q293.762 1462.25 293.762 1460.56 Q293.762 1457.8 291.818 1456.07 Q289.896 1454.33 286.794 1454.33 Q284.595 1454.33 282.142 1455.09 Q279.711 1455.86 276.933 1457.41 L276.933 1452.69 Q279.757 1451.55 282.211 1450.97 Q284.665 1450.39 286.702 1450.39 Q292.072 1450.39 295.267 1453.08 Q298.461 1455.77 298.461 1460.26 Q298.461 1462.39 297.651 1464.31 Q296.864 1466.2 294.757 1468.8 Q294.179 1469.47 291.077 1472.69 Q287.975 1475.88 282.327 1481.64 Z" fill="#000000" fill-rule="nonzero" fill-opacity="1" /><path clip-path="url(#clip650)" d="M308.507 1451.02 L326.864 1451.02 L326.864 1454.96 L312.79 1454.96 L312.79 1463.43 Q313.808 1463.08 314.827 1462.92 Q315.845 1462.73 316.864 1462.73 Q322.651 1462.73 326.03 1465.9 Q329.41 1469.08 329.41 1474.49 Q329.41 1480.07 325.938 1483.17 Q322.466 1486.25 316.146 1486.25 Q313.97 1486.25 311.702 1485.88 Q309.456 1485.51 307.049 1484.77 L307.049 1480.07 Q309.132 1481.2 311.355 1481.76 Q313.577 1482.32 316.054 1482.32 Q320.058 1482.32 322.396 1480.21 Q324.734 1478.1 324.734 1474.49 Q324.734 1470.88 322.396 1468.77 Q320.058 1466.67 316.054 1466.67 Q314.179 1466.67 312.304 1467.08 Q310.452 1467.5 308.507 1468.38 L308.507 1451.02 Z" fill="#000000" fill-rule="nonzero" fill-opacity="1" /><path clip-path="url(#clip650)" d="M348.623 1454.1 Q345.012 1454.1 343.183 1457.66 Q341.377 1461.2 341.377 1468.33 Q341.377 1475.44 343.183 1479.01 Q345.012 1482.55 348.623 1482.55 Q352.257 1482.55 354.063 1479.01 Q355.891 1475.44 355.891 1468.33 Q355.891 1461.2 354.063 1457.66 Q352.257 1454.1 348.623 1454.1 M348.623 1450.39 Q354.433 1450.39 357.489 1455 Q360.567 1459.58 360.567 1468.33 Q360.567 1477.06 357.489 1481.67 Q354.433 1486.25 348.623 1486.25 Q342.813 1486.25 339.734 1481.67 Q336.678 1477.06 336.678 1468.33 Q336.678 1459.58 339.734 1455 Q342.813 1450.39 348.623 1450.39 Z" fill="#000000" fill-rule="nonzero" fill-opacity="1" /><path clip-path="url(#clip650)" d="M605.03 1451.02 L623.386 1451.02 L623.386 1454.96 L609.312 1454.96 L609.312 1463.43 Q610.331 1463.08 611.349 1462.92 Q612.368 1462.73 613.386 1462.73 Q619.173 1462.73 622.553 1465.9 Q625.932 1469.08 625.932 1474.49 Q625.932 1480.07 622.46 1483.17 Q618.988 1486.25 612.669 1486.25 Q610.493 1486.25 608.224 1485.88 Q605.979 1485.51 603.571 1484.77 L603.571 1480.07 Q605.655 1481.2 607.877 1481.76 Q610.099 1482.32 612.576 1482.32 Q616.581 1482.32 618.919 1480.21 Q621.257 1478.1 621.257 1474.49 Q621.257 1470.88 618.919 1468.77 Q616.581 1466.67 612.576 1466.67 Q610.701 1466.67 608.826 1467.08 Q606.974 1467.5 605.03 1468.38 L605.03 1451.02 Z" fill="#000000" fill-rule="nonzero" fill-opacity="1" /><path clip-path="url(#clip650)" d="M645.145 1454.1 Q641.534 1454.1 639.706 1457.66 Q637.9 1461.2 637.9 1468.33 Q637.9 1475.44 639.706 1479.01 Q641.534 1482.55 645.145 1482.55 Q648.78 1482.55 650.585 1479.01 Q652.414 1475.44 652.414 1468.33 Q652.414 1461.2 650.585 1457.66 Q648.78 1454.1 645.145 1454.1 M645.145 1450.39 Q650.955 1450.39 654.011 1455 Q657.09 1459.58 657.09 1468.33 Q657.09 1477.06 654.011 1481.67 Q650.955 1486.25 645.145 1486.25 Q639.335 1486.25 636.256 1481.67 Q633.201 1477.06 633.201 1468.33 Q633.201 1459.58 636.256 1455 Q639.335 1450.39 645.145 1450.39 Z" fill="#000000" fill-rule="nonzero" fill-opacity="1" /><path clip-path="url(#clip650)" d="M675.307 1454.1 Q671.696 1454.1 669.867 1457.66 Q668.062 1461.2 668.062 1468.33 Q668.062 1475.44 669.867 1479.01 Q671.696 1482.55 675.307 1482.55 Q678.941 1482.55 680.747 1479.01 Q682.576 1475.44 682.576 1468.33 Q682.576 1461.2 680.747 1457.66 Q678.941 1454.1 675.307 1454.1 M675.307 1450.39 Q681.117 1450.39 684.173 1455 Q687.252 1459.58 687.252 1468.33 Q687.252 1477.06 684.173 1481.67 Q681.117 1486.25 675.307 1486.25 Q669.497 1486.25 666.418 1481.67 Q663.363 1477.06 663.363 1468.33 Q663.363 1459.58 666.418 1455 Q669.497 1450.39 675.307 1450.39 Z" fill="#000000" fill-rule="nonzero" fill-opacity="1" /><path clip-path="url(#clip650)" d="M930.464 1451.02 L952.686 1451.02 L952.686 1453.01 L940.14 1485.58 L935.256 1485.58 L947.061 1454.96 L930.464 1454.96 L930.464 1451.02 Z" fill="#000000" fill-rule="nonzero" fill-opacity="1" /><path clip-path="url(#clip650)" d="M961.853 1451.02 L980.209 1451.02 L980.209 1454.96 L966.135 1454.96 L966.135 1463.43 Q967.154 1463.08 968.172 1462.92 Q969.191 1462.73 970.209 1462.73 Q975.996 1462.73 979.376 1465.9 Q982.756 1469.08 982.756 1474.49 Q982.756 1480.07 979.283 1483.17 Q975.811 1486.25 969.492 1486.25 Q967.316 1486.25 965.047 1485.88 Q962.802 1485.51 960.395 1484.77 L960.395 1480.07 Q962.478 1481.2 964.7 1481.76 Q966.922 1482.32 969.399 1482.32 Q973.404 1482.32 975.742 1480.21 Q978.08 1478.1 978.08 1474.49 Q978.08 1470.88 975.742 1468.77 Q973.404 1466.67 969.399 1466.67 Q967.524 1466.67 965.649 1467.08 Q963.797 1467.5 961.853 1468.38 L961.853 1451.02 Z" fill="#000000" fill-rule="nonzero" fill-opacity="1" /><path clip-path="url(#clip650)" d="M1001.97 1454.1 Q998.357 1454.1 996.529 1457.66 Q994.723 1461.2 994.723 1468.33 Q994.723 1475.44 996.529 1479.01 Q998.357 1482.55 1001.97 1482.55 Q1005.6 1482.55 1007.41 1479.01 Q1009.24 1475.44 1009.24 1468.33 Q1009.24 1461.2 1007.41 1457.66 Q1005.6 1454.1 1001.97 1454.1 M1001.97 1450.39 Q1007.78 1450.39 1010.83 1455 Q1013.91 1459.58 1013.91 1468.33 Q1013.91 1477.06 1010.83 1481.67 Q1007.78 1486.25 1001.97 1486.25 Q996.158 1486.25 993.08 1481.67 Q990.024 1477.06 990.024 1468.33 Q990.024 1459.58 993.08 1455 Q996.158 1450.39 1001.97 1450.39 Z" fill="#000000" fill-rule="nonzero" fill-opacity="1" /><path clip-path="url(#clip650)" d="M1243.49 1481.64 L1251.13 1481.64 L1251.13 1455.28 L1242.82 1456.95 L1242.82 1452.69 L1251.08 1451.02 L1255.76 1451.02 L1255.76 1481.64 L1263.4 1481.64 L1263.4 1485.58 L1243.49 1485.58 L1243.49 1481.64 Z" fill="#000000" fill-rule="nonzero" fill-opacity="1" /><path clip-path="url(#clip650)" d="M1282.84 1454.1 Q1279.23 1454.1 1277.4 1457.66 Q1275.6 1461.2 1275.6 1468.33 Q1275.6 1475.44 1277.4 1479.01 Q1279.23 1482.55 1282.84 1482.55 Q1286.48 1482.55 1288.28 1479.01 Q1290.11 1475.44 1290.11 1468.33 Q1290.11 1461.2 1288.28 1457.66 Q1286.48 1454.1 1282.84 1454.1 M1282.84 1450.39 Q1288.65 1450.39 1291.71 1455 Q1294.79 1459.58 1294.79 1468.33 Q1294.79 1477.06 1291.71 1481.67 Q1288.65 1486.25 1282.84 1486.25 Q1277.03 1486.25 1273.95 1481.67 Q1270.9 1477.06 1270.9 1468.33 Q1270.9 1459.58 1273.95 1455 Q1277.03 1450.39 1282.84 1450.39 Z" fill="#000000" fill-rule="nonzero" fill-opacity="1" /><path clip-path="url(#clip650)" d="M1313 1454.1 Q1309.39 1454.1 1307.56 1457.66 Q1305.76 1461.2 1305.76 1468.33 Q1305.76 1475.44 1307.56 1479.01 Q1309.39 1482.55 1313 1482.55 Q1316.64 1482.55 1318.44 1479.01 Q1320.27 1475.44 1320.27 1468.33 Q1320.27 1461.2 1318.44 1457.66 Q1316.64 1454.1 1313 1454.1 M1313 1450.39 Q1318.81 1450.39 1321.87 1455 Q1324.95 1459.58 1324.95 1468.33 Q1324.95 1477.06 1321.87 1481.67 Q1318.81 1486.25 1313 1486.25 Q1307.19 1486.25 1304.12 1481.67 Q1301.06 1477.06 1301.06 1468.33 Q1301.06 1459.58 1304.12 1455 Q1307.19 1450.39 1313 1450.39 Z" fill="#000000" fill-rule="nonzero" fill-opacity="1" /><path clip-path="url(#clip650)" d="M1343.17 1454.1 Q1339.56 1454.1 1337.73 1457.66 Q1335.92 1461.2 1335.92 1468.33 Q1335.92 1475.44 1337.73 1479.01 Q1339.56 1482.55 1343.17 1482.55 Q1346.8 1482.55 1348.61 1479.01 Q1350.44 1475.44 1350.44 1468.33 Q1350.44 1461.2 1348.61 1457.66 Q1346.8 1454.1 1343.17 1454.1 M1343.17 1450.39 Q1348.98 1450.39 1352.03 1455 Q1355.11 1459.58 1355.11 1468.33 Q1355.11 1477.06 1352.03 1481.67 Q1348.98 1486.25 1343.17 1486.25 Q1337.36 1486.25 1334.28 1481.67 Q1331.22 1477.06 1331.22 1468.33 Q1331.22 1459.58 1334.28 1455 Q1337.36 1450.39 1343.17 1450.39 Z" fill="#000000" fill-rule="nonzero" fill-opacity="1" /><path clip-path="url(#clip650)" d="M1570.27 1481.64 L1577.91 1481.64 L1577.91 1455.28 L1569.6 1456.95 L1569.6 1452.69 L1577.86 1451.02 L1582.54 1451.02 L1582.54 1481.64 L1590.18 1481.64 L1590.18 1485.58 L1570.27 1485.58 L1570.27 1481.64 Z" fill="#000000" fill-rule="nonzero" fill-opacity="1" /><path clip-path="url(#clip650)" d="M1603.65 1481.64 L1619.97 1481.64 L1619.97 1485.58 L1598.02 1485.58 L1598.02 1481.64 Q1600.68 1478.89 1605.27 1474.26 Q1609.87 1469.61 1611.06 1468.27 Q1613.3 1465.74 1614.18 1464.01 Q1615.08 1462.25 1615.08 1460.56 Q1615.08 1457.8 1613.14 1456.07 Q1611.22 1454.33 1608.12 1454.33 Q1605.92 1454.33 1603.46 1455.09 Q1601.03 1455.86 1598.25 1457.41 L1598.25 1452.69 Q1601.08 1451.55 1603.53 1450.97 Q1605.99 1450.39 1608.02 1450.39 Q1613.39 1450.39 1616.59 1453.08 Q1619.78 1455.77 1619.78 1460.26 Q1619.78 1462.39 1618.97 1464.31 Q1618.18 1466.2 1616.08 1468.8 Q1615.5 1469.47 1612.4 1472.69 Q1609.3 1475.88 1603.65 1481.64 Z" fill="#000000" fill-rule="nonzero" fill-opacity="1" /><path clip-path="url(#clip650)" d="M1629.83 1451.02 L1648.18 1451.02 L1648.18 1454.96 L1634.11 1454.96 L1634.11 1463.43 Q1635.13 1463.08 1636.15 1462.92 Q1637.17 1462.73 1638.18 1462.73 Q1643.97 1462.73 1647.35 1465.9 Q1650.73 1469.08 1650.73 1474.49 Q1650.73 1480.07 1647.26 1483.17 Q1643.79 1486.25 1637.47 1486.25 Q1635.29 1486.25 1633.02 1485.88 Q1630.78 1485.51 1628.37 1484.77 L1628.37 1480.07 Q1630.45 1481.2 1632.68 1481.76 Q1634.9 1482.32 1637.37 1482.32 Q1641.38 1482.32 1643.72 1480.21 Q1646.05 1478.1 1646.05 1474.49 Q1646.05 1470.88 1643.72 1468.77 Q1641.38 1466.67 1637.37 1466.67 Q1635.5 1466.67 1633.62 1467.08 Q1631.77 1467.5 1629.83 1468.38 L1629.83 1451.02 Z" fill="#000000" fill-rule="nonzero" fill-opacity="1" /><path clip-path="url(#clip650)" d="M1669.94 1454.1 Q1666.33 1454.1 1664.5 1457.66 Q1662.7 1461.2 1662.7 1468.33 Q1662.7 1475.44 1664.5 1479.01 Q1666.33 1482.55 1669.94 1482.55 Q1673.58 1482.55 1675.38 1479.01 Q1677.21 1475.44 1677.21 1468.33 Q1677.21 1461.2 1675.38 1457.66 Q1673.58 1454.1 1669.94 1454.1 M1669.94 1450.39 Q1675.75 1450.39 1678.81 1455 Q1681.89 1459.58 1681.89 1468.33 Q1681.89 1477.06 1678.81 1481.67 Q1675.75 1486.25 1669.94 1486.25 Q1664.13 1486.25 1661.05 1481.67 Q1658 1477.06 1658 1468.33 Q1658 1459.58 1661.05 1455 Q1664.13 1450.39 1669.94 1450.39 Z" fill="#000000" fill-rule="nonzero" fill-opacity="1" /><path clip-path="url(#clip650)" d="M1897.05 1481.64 L1904.68 1481.64 L1904.68 1455.28 L1896.37 1456.95 L1896.37 1452.69 L1904.64 1451.02 L1909.31 1451.02 L1909.31 1481.64 L1916.95 1481.64 L1916.95 1485.58 L1897.05 1485.58 L1897.05 1481.64 Z" fill="#000000" fill-rule="nonzero" fill-opacity="1" /><path clip-path="url(#clip650)" d="M1926.44 1451.02 L1944.8 1451.02 L1944.8 1454.96 L1930.73 1454.96 L1930.73 1463.43 Q1931.74 1463.08 1932.76 1462.92 Q1933.78 1462.73 1934.8 1462.73 Q1940.59 1462.73 1943.97 1465.9 Q1947.35 1469.08 1947.35 1474.49 Q1947.35 1480.07 1943.87 1483.17 Q1940.4 1486.25 1934.08 1486.25 Q1931.91 1486.25 1929.64 1485.88 Q1927.39 1485.51 1924.98 1484.77 L1924.98 1480.07 Q1927.07 1481.2 1929.29 1481.76 Q1931.51 1482.32 1933.99 1482.32 Q1937.99 1482.32 1940.33 1480.21 Q1942.67 1478.1 1942.67 1474.49 Q1942.67 1470.88 1940.33 1468.77 Q1937.99 1466.67 1933.99 1466.67 Q1932.11 1466.67 1930.24 1467.08 Q1928.39 1467.5 1926.44 1468.38 L1926.44 1451.02 Z" fill="#000000" fill-rule="nonzero" fill-opacity="1" /><path clip-path="url(#clip650)" d="M1966.56 1454.1 Q1962.95 1454.1 1961.12 1457.66 Q1959.31 1461.2 1959.31 1468.33 Q1959.31 1475.44 1961.12 1479.01 Q1962.95 1482.55 1966.56 1482.55 Q1970.19 1482.55 1972 1479.01 Q1973.83 1475.44 1973.83 1468.33 Q1973.83 1461.2 1972 1457.66 Q1970.19 1454.1 1966.56 1454.1 M1966.56 1450.39 Q1972.37 1450.39 1975.42 1455 Q1978.5 1459.58 1978.5 1468.33 Q1978.5 1477.06 1975.42 1481.67 Q1972.37 1486.25 1966.56 1486.25 Q1960.75 1486.25 1957.67 1481.67 Q1954.61 1477.06 1954.61 1468.33 Q1954.61 1459.58 1957.67 1455 Q1960.75 1450.39 1966.56 1450.39 Z" fill="#000000" fill-rule="nonzero" fill-opacity="1" /><path clip-path="url(#clip650)" d="M1996.72 1454.1 Q1993.11 1454.1 1991.28 1457.66 Q1989.48 1461.2 1989.48 1468.33 Q1989.48 1475.44 1991.28 1479.01 Q1993.11 1482.55 1996.72 1482.55 Q2000.35 1482.55 2002.16 1479.01 Q2003.99 1475.44 2003.99 1468.33 Q2003.99 1461.2 2002.16 1457.66 Q2000.35 1454.1 1996.72 1454.1 M1996.72 1450.39 Q2002.53 1450.39 2005.59 1455 Q2008.66 1459.58 2008.66 1468.33 Q2008.66 1477.06 2005.59 1481.67 Q2002.53 1486.25 1996.72 1486.25 Q1990.91 1486.25 1987.83 1481.67 Q1984.78 1477.06 1984.78 1468.33 Q1984.78 1459.58 1987.83 1455 Q1990.91 1450.39 1996.72 1450.39 Z" fill="#000000" fill-rule="nonzero" fill-opacity="1" /><path clip-path="url(#clip650)" d="M2223.82 1481.64 L2231.46 1481.64 L2231.46 1455.28 L2223.15 1456.95 L2223.15 1452.69 L2231.41 1451.02 L2236.09 1451.02 L2236.09 1481.64 L2243.73 1481.64 L2243.73 1485.58 L2223.82 1485.58 L2223.82 1481.64 Z" fill="#000000" fill-rule="nonzero" fill-opacity="1" /><path clip-path="url(#clip650)" d="M2251.99 1451.02 L2274.22 1451.02 L2274.22 1453.01 L2261.67 1485.58 L2256.78 1485.58 L2268.59 1454.96 L2251.99 1454.96 L2251.99 1451.02 Z" fill="#000000" fill-rule="nonzero" fill-opacity="1" /><path clip-path="url(#clip650)" d="M2283.38 1451.02 L2301.74 1451.02 L2301.74 1454.96 L2287.66 1454.96 L2287.66 1463.43 Q2288.68 1463.08 2289.7 1462.92 Q2290.72 1462.73 2291.74 1462.73 Q2297.53 1462.73 2300.91 1465.9 Q2304.28 1469.08 2304.28 1474.49 Q2304.28 1480.07 2300.81 1483.17 Q2297.34 1486.25 2291.02 1486.25 Q2288.85 1486.25 2286.58 1485.88 Q2284.33 1485.51 2281.92 1484.77 L2281.92 1480.07 Q2284.01 1481.2 2286.23 1481.76 Q2288.45 1482.32 2290.93 1482.32 Q2294.93 1482.32 2297.27 1480.21 Q2299.61 1478.1 2299.61 1474.49 Q2299.61 1470.88 2297.27 1468.77 Q2294.93 1466.67 2290.93 1466.67 Q2289.05 1466.67 2287.18 1467.08 Q2285.33 1467.5 2283.38 1468.38 L2283.38 1451.02 Z" fill="#000000" fill-rule="nonzero" fill-opacity="1" /><path clip-path="url(#clip650)" d="M2323.5 1454.1 Q2319.89 1454.1 2318.06 1457.66 Q2316.25 1461.2 2316.25 1468.33 Q2316.25 1475.44 2318.06 1479.01 Q2319.89 1482.55 2323.5 1482.55 Q2327.13 1482.55 2328.94 1479.01 Q2330.77 1475.44 2330.77 1468.33 Q2330.77 1461.2 2328.94 1457.66 Q2327.13 1454.1 2323.5 1454.1 M2323.5 1450.39 Q2329.31 1450.39 2332.36 1455 Q2335.44 1459.58 2335.44 1468.33 Q2335.44 1477.06 2332.36 1481.67 Q2329.31 1486.25 2323.5 1486.25 Q2317.69 1486.25 2314.61 1481.67 Q2311.55 1477.06 2311.55 1468.33 Q2311.55 1459.58 2314.61 1455 Q2317.69 1450.39 2323.5 1450.39 Z" fill="#000000" fill-rule="nonzero" fill-opacity="1" /><path clip-path="url(#clip650)" d="M973.911 1525.81 L973.911 1562.76 L981.677 1562.76 Q991.512 1562.76 996.064 1558.3 Q1000.65 1553.85 1000.65 1544.24 Q1000.65 1534.69 996.064 1530.26 Q991.512 1525.81 981.677 1525.81 L973.911 1525.81 M967.482 1520.52 L980.691 1520.52 Q994.504 1520.52 1000.97 1526.28 Q1007.43 1532.01 1007.43 1544.24 Q1007.43 1556.52 1000.93 1562.28 Q994.441 1568.04 980.691 1568.04 L967.482 1568.04 L967.482 1520.52 Z" fill="#000000" fill-rule="nonzero" fill-opacity="1" /><path clip-path="url(#clip650)" d="M1047.91 1548.76 L1047.91 1551.62 L1020.99 1551.62 Q1021.37 1557.67 1024.61 1560.85 Q1027.89 1564 1033.72 1564 Q1037.09 1564 1040.24 1563.17 Q1043.42 1562.35 1046.54 1560.69 L1046.54 1566.23 Q1043.39 1567.57 1040.08 1568.27 Q1036.77 1568.97 1033.37 1568.97 Q1024.84 1568.97 1019.84 1564 Q1014.87 1559.04 1014.87 1550.57 Q1014.87 1541.82 1019.59 1536.69 Q1024.33 1531.54 1032.35 1531.54 Q1039.54 1531.54 1043.71 1536.18 Q1047.91 1540.8 1047.91 1548.76 M1042.06 1547.04 Q1041.99 1542.23 1039.35 1539.37 Q1036.74 1536.5 1032.41 1536.5 Q1027.51 1536.5 1024.55 1539.27 Q1021.62 1542.04 1021.18 1547.07 L1042.06 1547.04 Z" fill="#000000" fill-rule="nonzero" fill-opacity="1" /><path clip-path="url(#clip650)" d="M1080.98 1549.81 Q1080.98 1543.44 1078.34 1539.94 Q1075.73 1536.44 1070.99 1536.44 Q1066.28 1536.44 1063.64 1539.94 Q1061.03 1543.44 1061.03 1549.81 Q1061.03 1556.14 1063.64 1559.64 Q1066.28 1563.14 1070.99 1563.14 Q1075.73 1563.14 1078.34 1559.64 Q1080.98 1556.14 1080.98 1549.81 M1086.84 1563.62 Q1086.84 1572.72 1082.8 1577.15 Q1078.75 1581.6 1070.42 1581.6 Q1067.33 1581.6 1064.59 1581.13 Q1061.85 1580.68 1059.28 1579.72 L1059.28 1574.03 Q1061.85 1575.43 1064.37 1576.1 Q1066.88 1576.76 1069.49 1576.76 Q1075.25 1576.76 1078.12 1573.74 Q1080.98 1570.75 1080.98 1564.67 L1080.98 1561.77 Q1079.17 1564.92 1076.34 1566.48 Q1073.5 1568.04 1069.56 1568.04 Q1063 1568.04 1058.99 1563.05 Q1054.98 1558.05 1054.98 1549.81 Q1054.98 1541.53 1058.99 1536.53 Q1063 1531.54 1069.56 1531.54 Q1073.5 1531.54 1076.34 1533.1 Q1079.17 1534.66 1080.98 1537.81 L1080.98 1532.4 L1086.84 1532.4 L1086.84 1563.62 Z" fill="#000000" fill-rule="nonzero" fill-opacity="1" /><path clip-path="url(#clip650)" d="M1119.56 1537.87 Q1118.57 1537.3 1117.39 1537.04 Q1116.25 1536.76 1114.85 1536.76 Q1109.88 1536.76 1107.21 1540 Q1104.57 1543.22 1104.57 1549.27 L1104.57 1568.04 L1098.68 1568.04 L1098.68 1532.4 L1104.57 1532.4 L1104.57 1537.93 Q1106.41 1534.69 1109.37 1533.13 Q1112.33 1531.54 1116.57 1531.54 Q1117.17 1531.54 1117.9 1531.63 Q1118.64 1531.7 1119.53 1531.85 L1119.56 1537.87 Z" fill="#000000" fill-rule="nonzero" fill-opacity="1" /><path clip-path="url(#clip650)" d="M1154.76 1548.76 L1154.76 1551.62 L1127.83 1551.62 Q1128.22 1557.67 1131.46 1560.85 Q1134.74 1564 1140.57 1564 Q1143.94 1564 1147.09 1563.17 Q1150.27 1562.35 1153.39 1560.69 L1153.39 1566.23 Q1150.24 1567.57 1146.93 1568.27 Q1143.62 1568.97 1140.22 1568.97 Q1131.69 1568.97 1126.69 1564 Q1121.72 1559.04 1121.72 1550.57 Q1121.72 1541.82 1126.43 1536.69 Q1131.18 1531.54 1139.2 1531.54 Q1146.39 1531.54 1150.56 1536.18 Q1154.76 1540.8 1154.76 1548.76 M1148.9 1547.04 Q1148.84 1542.23 1146.2 1539.37 Q1143.59 1536.5 1139.26 1536.5 Q1134.36 1536.5 1131.4 1539.27 Q1128.47 1542.04 1128.02 1547.07 L1148.9 1547.04 Z" fill="#000000" fill-rule="nonzero" fill-opacity="1" /><path clip-path="url(#clip650)" d="M1194.86 1548.76 L1194.86 1551.62 L1167.94 1551.62 Q1168.32 1557.67 1171.57 1560.85 Q1174.84 1564 1180.67 1564 Q1184.04 1564 1187.19 1563.17 Q1190.38 1562.35 1193.5 1560.69 L1193.5 1566.23 Q1190.35 1567.57 1187.03 1568.27 Q1183.72 1568.97 1180.32 1568.97 Q1171.79 1568.97 1166.79 1564 Q1161.83 1559.04 1161.83 1550.57 Q1161.83 1541.82 1166.54 1536.69 Q1171.28 1531.54 1179.3 1531.54 Q1186.49 1531.54 1190.66 1536.18 Q1194.86 1540.8 1194.86 1548.76 M1189.01 1547.04 Q1188.94 1542.23 1186.3 1539.37 Q1183.69 1536.5 1179.36 1536.5 Q1174.46 1536.5 1171.5 1539.27 Q1168.57 1542.04 1168.13 1547.07 L1189.01 1547.04 Z" fill="#000000" fill-rule="nonzero" fill-opacity="1" /><path clip-path="url(#clip650)" d="M1227.2 1533.45 L1227.2 1538.98 Q1224.72 1537.71 1222.05 1537.07 Q1219.37 1536.44 1216.51 1536.44 Q1212.15 1536.44 1209.95 1537.77 Q1207.79 1539.11 1207.79 1541.79 Q1207.79 1543.82 1209.35 1545 Q1210.91 1546.15 1215.62 1547.2 L1217.62 1547.64 Q1223.86 1548.98 1226.47 1551.43 Q1229.11 1553.85 1229.11 1558.21 Q1229.11 1563.17 1225.17 1566.07 Q1221.25 1568.97 1214.38 1568.97 Q1211.51 1568.97 1208.39 1568.39 Q1205.3 1567.85 1201.87 1566.74 L1201.87 1560.69 Q1205.11 1562.38 1208.26 1563.24 Q1211.42 1564.07 1214.5 1564.07 Q1218.64 1564.07 1220.87 1562.66 Q1223.1 1561.23 1223.1 1558.65 Q1223.1 1556.27 1221.47 1554.99 Q1219.88 1553.72 1214.44 1552.54 L1212.4 1552.07 Q1206.96 1550.92 1204.54 1548.56 Q1202.12 1546.18 1202.12 1542.04 Q1202.12 1537.01 1205.69 1534.27 Q1209.25 1531.54 1215.81 1531.54 Q1219.05 1531.54 1221.92 1532.01 Q1224.78 1532.49 1227.2 1533.45 Z" fill="#000000" fill-rule="nonzero" fill-opacity="1" /><path clip-path="url(#clip650)" d="M1272.97 1536.5 Q1268.26 1536.5 1265.52 1540.19 Q1262.79 1543.85 1262.79 1550.25 Q1262.79 1556.65 1265.49 1560.34 Q1268.23 1564 1272.97 1564 Q1277.65 1564 1280.39 1560.31 Q1283.13 1556.62 1283.13 1550.25 Q1283.13 1543.92 1280.39 1540.23 Q1277.65 1536.5 1272.97 1536.5 M1272.97 1531.54 Q1280.61 1531.54 1284.97 1536.5 Q1289.33 1541.47 1289.33 1550.25 Q1289.33 1559 1284.97 1564 Q1280.61 1568.97 1272.97 1568.97 Q1265.3 1568.97 1260.94 1564 Q1256.61 1559 1256.61 1550.25 Q1256.61 1541.47 1260.94 1536.5 Q1265.3 1531.54 1272.97 1531.54 Z" fill="#000000" fill-rule="nonzero" fill-opacity="1" /><path clip-path="url(#clip650)" d="M1317.09 1518.52 L1317.09 1523.39 L1311.48 1523.39 Q1308.33 1523.39 1307.09 1524.66 Q1305.88 1525.93 1305.88 1529.24 L1305.88 1532.4 L1315.53 1532.4 L1315.53 1536.95 L1305.88 1536.95 L1305.88 1568.04 L1299.99 1568.04 L1299.99 1536.95 L1294.39 1536.95 L1294.39 1532.4 L1299.99 1532.4 L1299.99 1529.91 Q1299.99 1523.96 1302.76 1521.26 Q1305.53 1518.52 1311.55 1518.52 L1317.09 1518.52 Z" fill="#000000" fill-rule="nonzero" fill-opacity="1" /><path clip-path="url(#clip650)" d="M1360.76 1518.52 L1360.76 1523.39 L1355.15 1523.39 Q1352 1523.39 1350.76 1524.66 Q1349.55 1525.93 1349.55 1529.24 L1349.55 1532.4 L1359.2 1532.4 L1359.2 1536.95 L1349.55 1536.95 L1349.55 1568.04 L1343.66 1568.04 L1343.66 1536.95 L1338.06 1536.95 L1338.06 1532.4 L1343.66 1532.4 L1343.66 1529.91 Q1343.66 1523.96 1346.43 1521.26 Q1349.2 1518.52 1355.22 1518.52 L1360.76 1518.52 Z" fill="#000000" fill-rule="nonzero" fill-opacity="1" /><path clip-path="url(#clip650)" d="M1386.31 1537.87 Q1385.33 1537.3 1384.15 1537.04 Q1383 1536.76 1381.6 1536.76 Q1376.64 1536.76 1373.96 1540 Q1371.32 1543.22 1371.32 1549.27 L1371.32 1568.04 L1365.43 1568.04 L1365.43 1532.4 L1371.32 1532.4 L1371.32 1537.93 Q1373.17 1534.69 1376.13 1533.13 Q1379.09 1531.54 1383.32 1531.54 Q1383.93 1531.54 1384.66 1531.63 Q1385.39 1531.7 1386.28 1531.85 L1386.31 1537.87 Z" fill="#000000" fill-rule="nonzero" fill-opacity="1" /><path clip-path="url(#clip650)" d="M1421.52 1548.76 L1421.52 1551.62 L1394.59 1551.62 Q1394.97 1557.67 1398.22 1560.85 Q1401.5 1564 1407.32 1564 Q1410.69 1564 1413.85 1563.17 Q1417.03 1562.35 1420.15 1560.69 L1420.15 1566.23 Q1417 1567.57 1413.69 1568.27 Q1410.38 1568.97 1406.97 1568.97 Q1398.44 1568.97 1393.44 1564 Q1388.48 1559.04 1388.48 1550.57 Q1388.48 1541.82 1393.19 1536.69 Q1397.93 1531.54 1405.95 1531.54 Q1413.14 1531.54 1417.31 1536.18 Q1421.52 1540.8 1421.52 1548.76 M1415.66 1547.04 Q1415.6 1542.23 1412.95 1539.37 Q1410.34 1536.5 1406.02 1536.5 Q1401.11 1536.5 1398.15 1539.27 Q1395.23 1542.04 1394.78 1547.07 L1415.66 1547.04 Z" fill="#000000" fill-rule="nonzero" fill-opacity="1" /><path clip-path="url(#clip650)" d="M1461.62 1548.76 L1461.62 1551.62 L1434.69 1551.62 Q1435.07 1557.67 1438.32 1560.85 Q1441.6 1564 1447.42 1564 Q1450.8 1564 1453.95 1563.17 Q1457.13 1562.35 1460.25 1560.69 L1460.25 1566.23 Q1457.1 1567.57 1453.79 1568.27 Q1450.48 1568.97 1447.07 1568.97 Q1438.54 1568.97 1433.55 1564 Q1428.58 1559.04 1428.58 1550.57 Q1428.58 1541.82 1433.29 1536.69 Q1438.03 1531.54 1446.06 1531.54 Q1453.25 1531.54 1457.42 1536.18 Q1461.62 1540.8 1461.62 1548.76 M1455.76 1547.04 Q1455.7 1542.23 1453.06 1539.37 Q1450.45 1536.5 1446.12 1536.5 Q1441.22 1536.5 1438.26 1539.27 Q1435.33 1542.04 1434.88 1547.07 L1455.76 1547.04 Z" fill="#000000" fill-rule="nonzero" fill-opacity="1" /><path clip-path="url(#clip650)" d="M1494.69 1537.81 L1494.69 1518.52 L1500.55 1518.52 L1500.55 1568.04 L1494.69 1568.04 L1494.69 1562.7 Q1492.84 1565.88 1490.01 1567.44 Q1487.21 1568.97 1483.26 1568.97 Q1476.8 1568.97 1472.73 1563.81 Q1468.69 1558.65 1468.69 1550.25 Q1468.69 1541.85 1472.73 1536.69 Q1476.8 1531.54 1483.26 1531.54 Q1487.21 1531.54 1490.01 1533.1 Q1492.84 1534.62 1494.69 1537.81 M1474.73 1550.25 Q1474.73 1556.71 1477.37 1560.4 Q1480.05 1564.07 1484.7 1564.07 Q1489.34 1564.07 1492.02 1560.4 Q1494.69 1556.71 1494.69 1550.25 Q1494.69 1543.79 1492.02 1540.13 Q1489.34 1536.44 1484.7 1536.44 Q1480.05 1536.44 1477.37 1540.13 Q1474.73 1543.79 1474.73 1550.25 Z" fill="#000000" fill-rule="nonzero" fill-opacity="1" /><path clip-path="url(#clip650)" d="M1526.42 1536.5 Q1521.71 1536.5 1518.97 1540.19 Q1516.24 1543.85 1516.24 1550.25 Q1516.24 1556.65 1518.94 1560.34 Q1521.68 1564 1526.42 1564 Q1531.1 1564 1533.84 1560.31 Q1536.58 1556.62 1536.58 1550.25 Q1536.58 1543.92 1533.84 1540.23 Q1531.1 1536.5 1526.42 1536.5 M1526.42 1531.54 Q1534.06 1531.54 1538.42 1536.5 Q1542.78 1541.47 1542.78 1550.25 Q1542.78 1559 1538.42 1564 Q1534.06 1568.97 1526.42 1568.97 Q1518.75 1568.97 1514.39 1564 Q1510.06 1559 1510.06 1550.25 Q1510.06 1541.47 1514.39 1536.5 Q1518.75 1531.54 1526.42 1531.54 Z" fill="#000000" fill-rule="nonzero" fill-opacity="1" /><path clip-path="url(#clip650)" d="M1580.24 1539.24 Q1582.44 1535.29 1585.5 1533.41 Q1588.55 1531.54 1592.69 1531.54 Q1598.26 1531.54 1601.28 1535.45 Q1604.31 1539.33 1604.31 1546.53 L1604.31 1568.04 L1598.42 1568.04 L1598.42 1546.72 Q1598.42 1541.59 1596.6 1539.11 Q1594.79 1536.63 1591.07 1536.63 Q1586.51 1536.63 1583.87 1539.65 Q1581.23 1542.68 1581.23 1547.9 L1581.23 1568.04 L1575.34 1568.04 L1575.34 1546.72 Q1575.34 1541.56 1573.53 1539.11 Q1571.71 1536.63 1567.93 1536.63 Q1563.44 1536.63 1560.8 1539.68 Q1558.16 1542.71 1558.16 1547.9 L1558.16 1568.04 L1552.27 1568.04 L1552.27 1532.4 L1558.16 1532.4 L1558.16 1537.93 Q1560.16 1534.66 1562.96 1533.1 Q1565.76 1531.54 1569.61 1531.54 Q1573.5 1531.54 1576.2 1533.51 Q1578.94 1535.48 1580.24 1539.24 Z" fill="#000000" fill-rule="nonzero" fill-opacity="1" /><polyline clip-path="url(#clip652)" style="stroke:#000000; stroke-linecap:round; stroke-linejoin:round; stroke-width:2; stroke-opacity:0.1; fill:none" points="219.033,1273.56 2352.76,1273.56 "/>
<polyline clip-path="url(#clip652)" style="stroke:#000000; stroke-linecap:round; stroke-linejoin:round; stroke-width:2; stroke-opacity:0.1; fill:none" points="219.033,1084.99 2352.76,1084.99 "/>
<polyline clip-path="url(#clip652)" style="stroke:#000000; stroke-linecap:round; stroke-linejoin:round; stroke-width:2; stroke-opacity:0.1; fill:none" points="219.033,896.424 2352.76,896.424 "/>
<polyline clip-path="url(#clip652)" style="stroke:#000000; stroke-linecap:round; stroke-linejoin:round; stroke-width:2; stroke-opacity:0.1; fill:none" points="219.033,707.856 2352.76,707.856 "/>
<polyline clip-path="url(#clip652)" style="stroke:#000000; stroke-linecap:round; stroke-linejoin:round; stroke-width:2; stroke-opacity:0.1; fill:none" points="219.033,519.289 2352.76,519.289 "/>
<polyline clip-path="url(#clip652)" style="stroke:#000000; stroke-linecap:round; stroke-linejoin:round; stroke-width:2; stroke-opacity:0.1; fill:none" points="219.033,330.721 2352.76,330.721 "/>
<polyline clip-path="url(#clip652)" style="stroke:#000000; stroke-linecap:round; stroke-linejoin:round; stroke-width:2; stroke-opacity:0.1; fill:none" points="219.033,142.154 2352.76,142.154 "/>
<polyline clip-path="url(#clip650)" style="stroke:#000000; stroke-linecap:round; stroke-linejoin:round; stroke-width:4; stroke-opacity:1; fill:none" points="219.033,1423.18 219.033,47.2441 "/>
<polyline clip-path="url(#clip650)" style="stroke:#000000; stroke-linecap:round; stroke-linejoin:round; stroke-width:4; stroke-opacity:1; fill:none" points="219.033,1273.56 237.931,1273.56 "/>
<polyline clip-path="url(#clip650)" style="stroke:#000000; stroke-linecap:round; stroke-linejoin:round; stroke-width:4; stroke-opacity:1; fill:none" points="219.033,1084.99 237.931,1084.99 "/>
<polyline clip-path="url(#clip650)" style="stroke:#000000; stroke-linecap:round; stroke-linejoin:round; stroke-width:4; stroke-opacity:1; fill:none" points="219.033,896.424 237.931,896.424 "/>
<polyline clip-path="url(#clip650)" style="stroke:#000000; stroke-linecap:round; stroke-linejoin:round; stroke-width:4; stroke-opacity:1; fill:none" points="219.033,707.856 237.931,707.856 "/>
<polyline clip-path="url(#clip650)" style="stroke:#000000; stroke-linecap:round; stroke-linejoin:round; stroke-width:4; stroke-opacity:1; fill:none" points="219.033,519.289 237.931,519.289 "/>
<polyline clip-path="url(#clip650)" style="stroke:#000000; stroke-linecap:round; stroke-linejoin:round; stroke-width:4; stroke-opacity:1; fill:none" points="219.033,330.721 237.931,330.721 "/>
<polyline clip-path="url(#clip650)" style="stroke:#000000; stroke-linecap:round; stroke-linejoin:round; stroke-width:4; stroke-opacity:1; fill:none" points="219.033,142.154 237.931,142.154 "/>
<path clip-path="url(#clip650)" d="M126.853 1259.36 Q123.242 1259.36 121.413 1262.92 Q119.607 1266.46 119.607 1273.59 Q119.607 1280.7 121.413 1284.26 Q123.242 1287.81 126.853 1287.81 Q130.487 1287.81 132.292 1284.26 Q134.121 1280.7 134.121 1273.59 Q134.121 1266.46 132.292 1262.92 Q130.487 1259.36 126.853 1259.36 M126.853 1255.65 Q132.663 1255.65 135.718 1260.26 Q138.797 1264.84 138.797 1273.59 Q138.797 1282.32 135.718 1286.93 Q132.663 1291.51 126.853 1291.51 Q121.043 1291.51 117.964 1286.93 Q114.908 1282.32 114.908 1273.59 Q114.908 1264.84 117.964 1260.26 Q121.043 1255.65 126.853 1255.65 Z" fill="#000000" fill-rule="nonzero" fill-opacity="1" /><path clip-path="url(#clip650)" d="M147.015 1284.96 L151.899 1284.96 L151.899 1290.84 L147.015 1290.84 L147.015 1284.96 Z" fill="#000000" fill-rule="nonzero" fill-opacity="1" /><path clip-path="url(#clip650)" d="M162.13 1256.28 L180.487 1256.28 L180.487 1260.21 L166.413 1260.21 L166.413 1268.69 Q167.431 1268.34 168.45 1268.18 Q169.468 1267.99 170.487 1267.99 Q176.274 1267.99 179.653 1271.16 Q183.033 1274.33 183.033 1279.75 Q183.033 1285.33 179.561 1288.43 Q176.089 1291.51 169.769 1291.51 Q167.593 1291.51 165.325 1291.14 Q163.079 1290.77 160.672 1290.03 L160.672 1285.33 Q162.755 1286.46 164.977 1287.02 Q167.2 1287.57 169.677 1287.57 Q173.681 1287.57 176.019 1285.47 Q178.357 1283.36 178.357 1279.75 Q178.357 1276.14 176.019 1274.03 Q173.681 1271.93 169.677 1271.93 Q167.802 1271.93 165.927 1272.34 Q164.075 1272.76 162.13 1273.64 L162.13 1256.28 Z" fill="#000000" fill-rule="nonzero" fill-opacity="1" /><path clip-path="url(#clip650)" d="M116.668 1098.34 L124.306 1098.34 L124.306 1071.97 L115.996 1073.64 L115.996 1069.38 L124.26 1067.71 L128.936 1067.71 L128.936 1098.34 L136.575 1098.34 L136.575 1102.27 L116.668 1102.27 L116.668 1098.34 Z" fill="#000000" fill-rule="nonzero" fill-opacity="1" /><path clip-path="url(#clip650)" d="M146.019 1096.39 L150.903 1096.39 L150.903 1102.27 L146.019 1102.27 L146.019 1096.39 Z" fill="#000000" fill-rule="nonzero" fill-opacity="1" /><path clip-path="url(#clip650)" d="M171.089 1070.79 Q167.477 1070.79 165.649 1074.35 Q163.843 1077.9 163.843 1085.03 Q163.843 1092.13 165.649 1095.7 Q167.477 1099.24 171.089 1099.24 Q174.723 1099.24 176.528 1095.7 Q178.357 1092.13 178.357 1085.03 Q178.357 1077.9 176.528 1074.35 Q174.723 1070.79 171.089 1070.79 M171.089 1067.09 Q176.899 1067.09 179.954 1071.69 Q183.033 1076.28 183.033 1085.03 Q183.033 1093.75 179.954 1098.36 Q176.899 1102.94 171.089 1102.94 Q165.278 1102.94 162.2 1098.36 Q159.144 1093.75 159.144 1085.03 Q159.144 1076.28 162.2 1071.69 Q165.278 1067.09 171.089 1067.09 Z" fill="#000000" fill-rule="nonzero" fill-opacity="1" /><path clip-path="url(#clip650)" d="M117.663 909.769 L125.302 909.769 L125.302 883.403 L116.992 885.07 L116.992 880.81 L125.255 879.144 L129.931 879.144 L129.931 909.769 L137.57 909.769 L137.57 913.704 L117.663 913.704 L117.663 909.769 Z" fill="#000000" fill-rule="nonzero" fill-opacity="1" /><path clip-path="url(#clip650)" d="M147.015 907.824 L151.899 907.824 L151.899 913.704 L147.015 913.704 L147.015 907.824 Z" fill="#000000" fill-rule="nonzero" fill-opacity="1" /><path clip-path="url(#clip650)" d="M162.13 879.144 L180.487 879.144 L180.487 883.079 L166.413 883.079 L166.413 891.551 Q167.431 891.204 168.45 891.042 Q169.468 890.857 170.487 890.857 Q176.274 890.857 179.653 894.028 Q183.033 897.199 183.033 902.616 Q183.033 908.195 179.561 911.296 Q176.089 914.375 169.769 914.375 Q167.593 914.375 165.325 914.005 Q163.079 913.634 160.672 912.894 L160.672 908.195 Q162.755 909.329 164.977 909.884 Q167.2 910.44 169.677 910.44 Q173.681 910.44 176.019 908.333 Q178.357 906.227 178.357 902.616 Q178.357 899.005 176.019 896.898 Q173.681 894.792 169.677 894.792 Q167.802 894.792 165.927 895.208 Q164.075 895.625 162.13 896.505 L162.13 879.144 Z" fill="#000000" fill-rule="nonzero" fill-opacity="1" /><path clip-path="url(#clip650)" d="M119.885 721.201 L136.204 721.201 L136.204 725.136 L114.26 725.136 L114.26 721.201 Q116.922 718.447 121.505 713.817 Q126.112 709.164 127.292 707.822 Q129.538 705.298 130.417 703.562 Q131.32 701.803 131.32 700.113 Q131.32 697.359 129.376 695.623 Q127.455 693.886 124.353 693.886 Q122.154 693.886 119.7 694.65 Q117.269 695.414 114.492 696.965 L114.492 692.243 Q117.316 691.109 119.769 690.53 Q122.223 689.951 124.26 689.951 Q129.63 689.951 132.825 692.636 Q136.019 695.322 136.019 699.812 Q136.019 701.942 135.209 703.863 Q134.422 705.761 132.316 708.354 Q131.737 709.025 128.635 712.243 Q125.533 715.437 119.885 721.201 Z" fill="#000000" fill-rule="nonzero" fill-opacity="1" /><path clip-path="url(#clip650)" d="M146.019 719.257 L150.903 719.257 L150.903 725.136 L146.019 725.136 L146.019 719.257 Z" fill="#000000" fill-rule="nonzero" fill-opacity="1" /><path clip-path="url(#clip650)" d="M171.089 693.655 Q167.477 693.655 165.649 697.22 Q163.843 700.761 163.843 707.891 Q163.843 714.997 165.649 718.562 Q167.477 722.104 171.089 722.104 Q174.723 722.104 176.528 718.562 Q178.357 714.997 178.357 707.891 Q178.357 700.761 176.528 697.22 Q174.723 693.655 171.089 693.655 M171.089 689.951 Q176.899 689.951 179.954 694.558 Q183.033 699.141 183.033 707.891 Q183.033 716.618 179.954 721.224 Q176.899 725.808 171.089 725.808 Q165.278 725.808 162.2 721.224 Q159.144 716.618 159.144 707.891 Q159.144 699.141 162.2 694.558 Q165.278 689.951 171.089 689.951 Z" fill="#000000" fill-rule="nonzero" fill-opacity="1" /><path clip-path="url(#clip650)" d="M120.88 532.634 L137.2 532.634 L137.2 536.569 L115.256 536.569 L115.256 532.634 Q117.918 529.879 122.501 525.249 Q127.107 520.597 128.288 519.254 Q130.533 516.731 131.413 514.995 Q132.316 513.236 132.316 511.546 Q132.316 508.791 130.371 507.055 Q128.45 505.319 125.348 505.319 Q123.149 505.319 120.695 506.083 Q118.265 506.847 115.487 508.398 L115.487 503.675 Q118.311 502.541 120.765 501.963 Q123.218 501.384 125.255 501.384 Q130.626 501.384 133.82 504.069 Q137.015 506.754 137.015 511.245 Q137.015 513.375 136.204 515.296 Q135.417 517.194 133.311 519.787 Q132.732 520.458 129.63 523.675 Q126.529 526.87 120.88 532.634 Z" fill="#000000" fill-rule="nonzero" fill-opacity="1" /><path clip-path="url(#clip650)" d="M147.015 530.689 L151.899 530.689 L151.899 536.569 L147.015 536.569 L147.015 530.689 Z" fill="#000000" fill-rule="nonzero" fill-opacity="1" /><path clip-path="url(#clip650)" d="M162.13 502.009 L180.487 502.009 L180.487 505.944 L166.413 505.944 L166.413 514.416 Q167.431 514.069 168.45 513.907 Q169.468 513.722 170.487 513.722 Q176.274 513.722 179.653 516.893 Q183.033 520.064 183.033 525.481 Q183.033 531.06 179.561 534.161 Q176.089 537.24 169.769 537.24 Q167.593 537.24 165.325 536.87 Q163.079 536.499 160.672 535.759 L160.672 531.06 Q162.755 532.194 164.977 532.749 Q167.2 533.305 169.677 533.305 Q173.681 533.305 176.019 531.198 Q178.357 529.092 178.357 525.481 Q178.357 521.87 176.019 519.763 Q173.681 517.657 169.677 517.657 Q167.802 517.657 165.927 518.074 Q164.075 518.49 162.13 519.37 L162.13 502.009 Z" fill="#000000" fill-rule="nonzero" fill-opacity="1" /><path clip-path="url(#clip650)" d="M130.024 329.367 Q133.38 330.085 135.255 332.353 Q137.154 334.622 137.154 337.955 Q137.154 343.071 133.635 345.872 Q130.117 348.673 123.635 348.673 Q121.459 348.673 119.144 348.233 Q116.853 347.816 114.399 346.96 L114.399 342.446 Q116.343 343.58 118.658 344.159 Q120.973 344.737 123.496 344.737 Q127.894 344.737 130.186 343.001 Q132.501 341.265 132.501 337.955 Q132.501 334.9 130.348 333.187 Q128.218 331.451 124.399 331.451 L120.371 331.451 L120.371 327.608 L124.584 327.608 Q128.033 327.608 129.862 326.242 Q131.691 324.853 131.691 322.261 Q131.691 319.599 129.792 318.187 Q127.917 316.752 124.399 316.752 Q122.478 316.752 120.279 317.168 Q118.08 317.585 115.441 318.464 L115.441 314.298 Q118.103 313.557 120.418 313.187 Q122.755 312.816 124.816 312.816 Q130.14 312.816 133.242 315.247 Q136.343 317.654 136.343 321.775 Q136.343 324.645 134.7 326.636 Q133.056 328.603 130.024 329.367 Z" fill="#000000" fill-rule="nonzero" fill-opacity="1" /><path clip-path="url(#clip650)" d="M146.019 342.122 L150.903 342.122 L150.903 348.001 L146.019 348.001 L146.019 342.122 Z" fill="#000000" fill-rule="nonzero" fill-opacity="1" /><path clip-path="url(#clip650)" d="M171.089 316.52 Q167.477 316.52 165.649 320.085 Q163.843 323.626 163.843 330.756 Q163.843 337.863 165.649 341.427 Q167.477 344.969 171.089 344.969 Q174.723 344.969 176.528 341.427 Q178.357 337.863 178.357 330.756 Q178.357 323.626 176.528 320.085 Q174.723 316.52 171.089 316.52 M171.089 312.816 Q176.899 312.816 179.954 317.423 Q183.033 322.006 183.033 330.756 Q183.033 339.483 179.954 344.089 Q176.899 348.673 171.089 348.673 Q165.278 348.673 162.2 344.089 Q159.144 339.483 159.144 330.756 Q159.144 322.006 162.2 317.423 Q165.278 312.816 171.089 312.816 Z" fill="#000000" fill-rule="nonzero" fill-opacity="1" /><path clip-path="url(#clip650)" d="M131.019 140.8 Q134.376 141.517 136.251 143.786 Q138.149 146.054 138.149 149.388 Q138.149 154.503 134.63 157.304 Q131.112 160.105 124.63 160.105 Q122.455 160.105 120.14 159.665 Q117.848 159.249 115.394 158.392 L115.394 153.878 Q117.339 155.013 119.654 155.591 Q121.968 156.17 124.492 156.17 Q128.89 156.17 131.181 154.434 Q133.496 152.698 133.496 149.388 Q133.496 146.332 131.343 144.619 Q129.214 142.883 125.394 142.883 L121.367 142.883 L121.367 139.04 L125.58 139.04 Q129.029 139.04 130.857 137.675 Q132.686 136.286 132.686 133.693 Q132.686 131.031 130.788 129.619 Q128.913 128.184 125.394 128.184 Q123.473 128.184 121.274 128.601 Q119.075 129.017 116.436 129.897 L116.436 125.73 Q119.098 124.99 121.413 124.619 Q123.751 124.249 125.811 124.249 Q131.135 124.249 134.237 126.679 Q137.339 129.087 137.339 133.207 Q137.339 136.078 135.695 138.068 Q134.052 140.036 131.019 140.8 Z" fill="#000000" fill-rule="nonzero" fill-opacity="1" /><path clip-path="url(#clip650)" d="M147.015 153.554 L151.899 153.554 L151.899 159.434 L147.015 159.434 L147.015 153.554 Z" fill="#000000" fill-rule="nonzero" fill-opacity="1" /><path clip-path="url(#clip650)" d="M162.13 124.874 L180.487 124.874 L180.487 128.809 L166.413 128.809 L166.413 137.281 Q167.431 136.934 168.45 136.772 Q169.468 136.587 170.487 136.587 Q176.274 136.587 179.653 139.758 Q183.033 142.929 183.033 148.346 Q183.033 153.925 179.561 157.026 Q176.089 160.105 169.769 160.105 Q167.593 160.105 165.325 159.735 Q163.079 159.364 160.672 158.624 L160.672 153.925 Q162.755 155.059 164.977 155.614 Q167.2 156.17 169.677 156.17 Q173.681 156.17 176.019 154.064 Q178.357 151.957 178.357 148.346 Q178.357 144.735 176.019 142.628 Q173.681 140.522 169.677 140.522 Q167.802 140.522 165.927 140.939 Q164.075 141.355 162.13 142.235 L162.13 124.874 Z" fill="#000000" fill-rule="nonzero" fill-opacity="1" /><path clip-path="url(#clip650)" d="M18.0438 1010.05 L24.314 1010.05 Q22.5634 1013.71 21.704 1016.96 Q20.8447 1020.2 20.8447 1023.23 Q20.8447 1028.48 22.8817 1031.34 Q24.9187 1034.18 28.6745 1034.18 Q31.8255 1034.18 33.4488 1032.3 Q35.0402 1030.39 36.0269 1025.11 L36.8226 1021.22 Q38.1912 1014.03 41.6605 1010.62 Q45.098 1007.19 50.8908 1007.19 Q57.7976 1007.19 61.3624 1011.83 Q64.9272 1016.45 64.9272 1025.39 Q64.9272 1028.77 64.1633 1032.59 Q63.3994 1036.37 61.9035 1040.45 L55.2831 1040.45 Q57.4793 1036.53 58.5933 1032.78 Q59.7073 1029.02 59.7073 1025.39 Q59.7073 1019.89 57.543 1016.89 Q55.3786 1013.9 51.3682 1013.9 Q47.8671 1013.9 45.8937 1016.07 Q43.9204 1018.2 42.9337 1023.1 L42.1698 1027.02 Q40.7375 1034.21 37.682 1037.42 Q34.6264 1040.64 29.1837 1040.64 Q22.8817 1040.64 19.2532 1036.21 Q15.6248 1031.76 15.6248 1023.96 Q15.6248 1020.62 16.2295 1017.15 Q16.8343 1013.68 18.0438 1010.05 Z" fill="#000000" fill-rule="nonzero" fill-opacity="1" /><path clip-path="url(#clip650)" d="M28.3562 997.415 L28.3562 991.559 L64.0042 991.559 L64.0042 997.415 L28.3562 997.415 M14.479 997.415 L14.479 991.559 L21.895 991.559 L21.895 997.415 L14.479 997.415 Z" fill="#000000" fill-rule="nonzero" fill-opacity="1" /><path clip-path="url(#clip650)" d="M35.1993 951.551 Q31.2526 949.354 29.3747 946.299 Q27.4968 943.243 27.4968 939.106 Q27.4968 933.536 31.4117 930.512 Q35.2948 927.488 42.4881 927.488 L64.0042 927.488 L64.0042 933.376 L42.679 933.376 Q37.5546 933.376 35.072 935.191 Q32.5894 937.005 32.5894 940.729 Q32.5894 945.28 35.6131 947.922 Q38.6368 950.564 43.8567 950.564 L64.0042 950.564 L64.0042 956.452 L42.679 956.452 Q37.5228 956.452 35.072 958.266 Q32.5894 960.081 32.5894 963.868 Q32.5894 968.356 35.6449 970.998 Q38.6686 973.64 43.8567 973.64 L64.0042 973.64 L64.0042 979.528 L28.3562 979.528 L28.3562 973.64 L33.8944 973.64 Q30.616 971.634 29.0564 968.833 Q27.4968 966.032 27.4968 962.181 Q27.4968 958.298 29.4702 955.593 Q31.4436 952.855 35.1993 951.551 Z" fill="#000000" fill-rule="nonzero" fill-opacity="1" /><path clip-path="url(#clip650)" d="M49.9359 916.412 L28.3562 916.412 L28.3562 910.555 L49.7131 910.555 Q54.7739 910.555 57.3202 908.582 Q59.8346 906.609 59.8346 902.662 Q59.8346 897.919 56.8109 895.182 Q53.7872 892.413 48.5673 892.413 L28.3562 892.413 L28.3562 886.557 L64.0042 886.557 L64.0042 892.413 L58.5296 892.413 Q61.7762 894.546 63.3676 897.378 Q64.9272 900.179 64.9272 903.903 Q64.9272 910.046 61.1078 913.229 Q57.2883 916.412 49.9359 916.412 M27.4968 901.675 L27.4968 901.675 Z" fill="#000000" fill-rule="nonzero" fill-opacity="1" /><path clip-path="url(#clip650)" d="M14.479 874.494 L14.479 868.637 L64.0042 868.637 L64.0042 874.494 L14.479 874.494 Z" fill="#000000" fill-rule="nonzero" fill-opacity="1" /><path clip-path="url(#clip650)" d="M46.0847 840.182 Q46.0847 847.28 47.7079 850.017 Q49.3312 852.755 53.2461 852.755 Q56.3653 852.755 58.2114 850.718 Q60.0256 848.649 60.0256 845.116 Q60.0256 840.246 56.5881 837.318 Q53.1188 834.358 47.3897 834.358 L46.0847 834.358 L46.0847 840.182 M43.6657 828.501 L64.0042 828.501 L64.0042 834.358 L58.5933 834.358 Q61.8398 836.363 63.3994 839.355 Q64.9272 842.347 64.9272 846.675 Q64.9272 852.15 61.8716 855.397 Q58.7843 858.611 53.6281 858.611 Q47.6125 858.611 44.5569 854.601 Q41.5014 850.559 41.5014 842.57 L41.5014 834.358 L40.9285 834.358 Q36.8862 834.358 34.6901 837.031 Q32.4621 839.673 32.4621 844.479 Q32.4621 847.535 33.1941 850.431 Q33.9262 853.328 35.3903 856.001 L29.9795 856.001 Q28.7381 852.787 28.1334 849.763 Q27.4968 846.739 27.4968 843.875 Q27.4968 836.14 31.5072 832.321 Q35.5176 828.501 43.6657 828.501 Z" fill="#000000" fill-rule="nonzero" fill-opacity="1" /><path clip-path="url(#clip650)" d="M18.2347 810.646 L28.3562 810.646 L28.3562 798.583 L32.9077 798.583 L32.9077 810.646 L52.2594 810.646 Q56.6199 810.646 57.8613 809.468 Q59.1026 808.258 59.1026 804.598 L59.1026 798.583 L64.0042 798.583 L64.0042 804.598 Q64.0042 811.378 61.4897 813.956 Q58.9434 816.534 52.2594 816.534 L32.9077 816.534 L32.9077 820.831 L28.3562 820.831 L28.3562 816.534 L18.2347 816.534 L18.2347 810.646 Z" fill="#000000" fill-rule="nonzero" fill-opacity="1" /><path clip-path="url(#clip650)" d="M28.3562 790.88 L28.3562 785.024 L64.0042 785.024 L64.0042 790.88 L28.3562 790.88 M14.479 790.88 L14.479 785.024 L21.895 785.024 L21.895 790.88 L14.479 790.88 Z" fill="#000000" fill-rule="nonzero" fill-opacity="1" /><path clip-path="url(#clip650)" d="M32.4621 758.956 Q32.4621 763.667 36.1542 766.404 Q39.8145 769.141 46.212 769.141 Q52.6095 769.141 56.3017 766.436 Q59.9619 763.699 59.9619 758.956 Q59.9619 754.277 56.2698 751.54 Q52.5777 748.803 46.212 748.803 Q39.8781 748.803 36.186 751.54 Q32.4621 754.277 32.4621 758.956 M27.4968 758.956 Q27.4968 751.317 32.4621 746.957 Q37.4273 742.596 46.212 742.596 Q54.9649 742.596 59.9619 746.957 Q64.9272 751.317 64.9272 758.956 Q64.9272 766.627 59.9619 770.987 Q54.9649 775.316 46.212 775.316 Q37.4273 775.316 32.4621 770.987 Q27.4968 766.627 27.4968 758.956 Z" fill="#000000" fill-rule="nonzero" fill-opacity="1" /><path clip-path="url(#clip650)" d="M42.4881 703.256 L64.0042 703.256 L64.0042 709.113 L42.679 709.113 Q37.6183 709.113 35.1038 711.086 Q32.5894 713.059 32.5894 717.006 Q32.5894 721.748 35.6131 724.486 Q38.6368 727.223 43.8567 727.223 L64.0042 727.223 L64.0042 733.111 L28.3562 733.111 L28.3562 727.223 L33.8944 727.223 Q30.6797 725.122 29.0883 722.29 Q27.4968 719.425 27.4968 715.701 Q27.4968 709.558 31.3163 706.407 Q35.1038 703.256 42.4881 703.256 Z" fill="#000000" fill-rule="nonzero" fill-opacity="1" /><path clip-path="url(#clip650)" d="M18.2347 665.062 L28.3562 665.062 L28.3562 652.999 L32.9077 652.999 L32.9077 665.062 L52.2594 665.062 Q56.6199 665.062 57.8613 663.884 Q59.1026 662.675 59.1026 659.014 L59.1026 652.999 L64.0042 652.999 L64.0042 659.014 Q64.0042 665.794 61.4897 668.372 Q58.9434 670.95 52.2594 670.95 L32.9077 670.95 L32.9077 675.247 L28.3562 675.247 L28.3562 670.95 L18.2347 670.95 L18.2347 665.062 Z" fill="#000000" fill-rule="nonzero" fill-opacity="1" /><path clip-path="url(#clip650)" d="M28.3562 645.296 L28.3562 639.44 L64.0042 639.44 L64.0042 645.296 L28.3562 645.296 M14.479 645.296 L14.479 639.44 L21.895 639.44 L21.895 645.296 L14.479 645.296 Z" fill="#000000" fill-rule="nonzero" fill-opacity="1" /><path clip-path="url(#clip650)" d="M35.1993 599.431 Q31.2526 597.235 29.3747 594.18 Q27.4968 591.124 27.4968 586.986 Q27.4968 581.416 31.4117 578.393 Q35.2948 575.369 42.4881 575.369 L64.0042 575.369 L64.0042 581.257 L42.679 581.257 Q37.5546 581.257 35.072 583.072 Q32.5894 584.886 32.5894 588.61 Q32.5894 593.161 35.6131 595.803 Q38.6368 598.445 43.8567 598.445 L64.0042 598.445 L64.0042 604.333 L42.679 604.333 Q37.5228 604.333 35.072 606.147 Q32.5894 607.961 32.5894 611.749 Q32.5894 616.237 35.6449 618.879 Q38.6686 621.52 43.8567 621.52 L64.0042 621.52 L64.0042 627.409 L28.3562 627.409 L28.3562 621.52 L33.8944 621.52 Q30.616 619.515 29.0564 616.714 Q27.4968 613.913 27.4968 610.062 Q27.4968 606.179 29.4702 603.474 Q31.4436 600.736 35.1993 599.431 Z" fill="#000000" fill-rule="nonzero" fill-opacity="1" /><path clip-path="url(#clip650)" d="M44.7161 533.196 L47.5806 533.196 L47.5806 560.123 Q53.6281 559.741 56.8109 556.495 Q59.9619 553.216 59.9619 547.392 Q59.9619 544.018 59.1344 540.867 Q58.3069 537.684 56.6518 534.565 L62.1899 534.565 Q63.5267 537.716 64.227 541.026 Q64.9272 544.336 64.9272 547.742 Q64.9272 556.272 59.9619 561.269 Q54.9967 566.234 46.5303 566.234 Q37.7774 566.234 32.6531 561.524 Q27.4968 556.781 27.4968 548.76 Q27.4968 541.567 32.1438 537.398 Q36.7589 533.196 44.7161 533.196 M42.9973 539.053 Q38.1912 539.116 35.3266 541.758 Q32.4621 544.368 32.4621 548.697 Q32.4621 553.598 35.2312 556.558 Q38.0002 559.487 43.0292 559.932 L42.9973 539.053 Z" fill="#000000" fill-rule="nonzero" fill-opacity="1" /><path clip-path="url(#clip650)" d="M14.5426 488.795 Q21.8632 493.06 29.0246 495.129 Q36.186 497.198 43.5384 497.198 Q50.8908 497.198 58.1159 495.129 Q65.3091 493.029 72.5979 488.795 L72.5979 493.888 Q65.1182 498.662 57.8931 501.049 Q50.668 503.405 43.5384 503.405 Q36.4406 503.405 29.2474 501.049 Q22.0542 498.694 14.5426 493.888 L14.5426 488.795 Z" fill="#000000" fill-rule="nonzero" fill-opacity="1" /><path clip-path="url(#clip650)" d="M29.4065 454.707 L34.9447 454.707 Q33.6716 457.19 33.035 459.863 Q32.3984 462.537 32.3984 465.401 Q32.3984 469.762 33.7352 471.958 Q35.072 474.123 37.7456 474.123 Q39.7826 474.123 40.9603 472.563 Q42.1061 471.003 43.1565 466.293 L43.6021 464.287 Q44.9389 458.049 47.3897 455.439 Q49.8086 452.797 54.1691 452.797 Q59.1344 452.797 62.0308 456.744 Q64.9272 460.659 64.9272 467.534 Q64.9272 470.399 64.3543 473.518 Q63.8132 476.605 62.6992 480.043 L56.6518 480.043 Q58.3387 476.796 59.198 473.645 Q60.0256 470.494 60.0256 467.407 Q60.0256 463.269 58.6251 461.041 Q57.1929 458.813 54.6147 458.813 Q52.2276 458.813 50.9545 460.436 Q49.6813 462.028 48.5037 467.47 L48.0262 469.507 Q46.8804 474.95 44.5251 477.369 Q42.138 479.788 38.0002 479.788 Q32.9713 479.788 30.2341 476.223 Q27.4968 472.658 27.4968 466.102 Q27.4968 462.855 27.9743 459.991 Q28.4517 457.126 29.4065 454.707 Z" fill="#000000" fill-rule="nonzero" fill-opacity="1" /><path clip-path="url(#clip650)" d="M14.5426 444.395 L14.5426 439.302 Q22.0542 434.528 29.2474 432.173 Q36.4406 429.785 43.5384 429.785 Q50.668 429.785 57.8931 432.173 Q65.1182 434.528 72.5979 439.302 L72.5979 444.395 Q65.3091 440.161 58.1159 438.093 Q50.8908 435.992 43.5384 435.992 Q36.186 435.992 29.0246 438.093 Q21.8632 440.161 14.5426 444.395 Z" fill="#000000" fill-rule="nonzero" fill-opacity="1" /><polyline clip-path="url(#clip652)" style="stroke:#008000; stroke-linecap:round; stroke-linejoin:round; stroke-width:4; stroke-opacity:1; fill:none" stroke-dasharray="2, 4" points="279.421,1326.89 566.985,1176.99 1142.11,852.081 2292.37,138.945 "/>
<path clip-path="url(#clip652)" d="M279.421 1346.89 L262.101 1336.89 L262.101 1316.89 L279.421 1306.89 L296.741 1316.89 L296.741 1336.89 Z" fill="#008000" fill-rule="evenodd" fill-opacity="1" stroke="#000000" stroke-opacity="1" stroke-width="3.2"/>
<path clip-path="url(#clip652)" d="M566.985 1196.99 L549.665 1186.99 L549.665 1166.99 L566.985 1156.99 L584.305 1166.99 L584.305 1186.99 Z" fill="#008000" fill-rule="evenodd" fill-opacity="1" stroke="#000000" stroke-opacity="1" stroke-width="3.2"/>
<path clip-path="url(#clip652)" d="M1142.11 872.081 L1124.79 862.081 L1124.79 842.081 L1142.11 832.081 L1159.43 842.081 L1159.43 862.081 Z" fill="#008000" fill-rule="evenodd" fill-opacity="1" stroke="#000000" stroke-opacity="1" stroke-width="3.2"/>
<path clip-path="url(#clip652)" d="M2292.37 158.945 L2275.05 148.945 L2275.05 128.945 L2292.37 118.945 L2309.69 128.945 L2309.69 148.945 Z" fill="#008000" fill-rule="evenodd" fill-opacity="1" stroke="#000000" stroke-opacity="1" stroke-width="3.2"/>
<polyline clip-path="url(#clip652)" style="stroke:#a92a00; stroke-linecap:round; stroke-linejoin:round; stroke-width:4; stroke-opacity:1; fill:none" stroke-dasharray="2, 4" points="279.421,1308.03 566.985,1169.12 1142.11,846.689 2292.37,86.1857 "/>
<path clip-path="url(#clip652)" d="M279.421 1328.03 L262.101 1318.03 L262.101 1298.03 L279.421 1288.03 L296.741 1298.03 L296.741 1318.03 Z" fill="#a92a00" fill-rule="evenodd" fill-opacity="1" stroke="#000000" stroke-opacity="1" stroke-width="3.2"/>
<path clip-path="url(#clip652)" d="M566.985 1189.12 L549.665 1179.12 L549.665 1159.12 L566.985 1149.12 L584.305 1159.12 L584.305 1179.12 Z" fill="#a92a00" fill-rule="evenodd" fill-opacity="1" stroke="#000000" stroke-opacity="1" stroke-width="3.2"/>
<path clip-path="url(#clip652)" d="M1142.11 866.689 L1124.79 856.689 L1124.79 836.689 L1142.11 826.689 L1159.43 836.689 L1159.43 856.689 Z" fill="#a92a00" fill-rule="evenodd" fill-opacity="1" stroke="#000000" stroke-opacity="1" stroke-width="3.2"/>
<path clip-path="url(#clip652)" d="M2292.37 106.186 L2275.05 96.1857 L2275.05 76.1857 L2292.37 66.1857 L2309.69 76.1857 L2309.69 96.1857 Z" fill="#a92a00" fill-rule="evenodd" fill-opacity="1" stroke="#000000" stroke-opacity="1" stroke-width="3.2"/>
<polyline clip-path="url(#clip652)" style="stroke:#800080; stroke-linecap:round; stroke-linejoin:round; stroke-width:4; stroke-opacity:1; fill:none" stroke-dasharray="2, 4" points="279.421,1384.24 566.985,1291.48 1142.11,1064.42 2292.37,551.548 "/>
<path clip-path="url(#clip652)" d="M279.421 1364.24 L259.421 1384.24 L279.421 1404.24 L299.421 1384.24 L279.421 1364.24 Z" fill="#800080" fill-rule="evenodd" fill-opacity="1" stroke="#000000" stroke-opacity="1" stroke-width="3.2"/>
<path clip-path="url(#clip652)" d="M566.985 1271.48 L546.985 1291.48 L566.985 1311.48 L586.985 1291.48 L566.985 1271.48 Z" fill="#800080" fill-rule="evenodd" fill-opacity="1" stroke="#000000" stroke-opacity="1" stroke-width="3.2"/>
<path clip-path="url(#clip652)" d="M1142.11 1044.42 L1122.11 1064.42 L1142.11 1084.42 L1162.11 1064.42 L1142.11 1044.42 Z" fill="#800080" fill-rule="evenodd" fill-opacity="1" stroke="#000000" stroke-opacity="1" stroke-width="3.2"/>
<path clip-path="url(#clip652)" d="M2292.37 531.548 L2272.37 551.548 L2292.37 571.548 L2312.37 551.548 L2292.37 531.548 Z" fill="#800080" fill-rule="evenodd" fill-opacity="1" stroke="#000000" stroke-opacity="1" stroke-width="3.2"/>
<polyline clip-path="url(#clip652)" style="stroke:#805580; stroke-linecap:round; stroke-linejoin:round; stroke-width:4; stroke-opacity:1; fill:none" stroke-dasharray="2, 4" points="279.421,1373.44 566.985,1277.22 1142.11,1045.72 2292.37,494.422 "/>
<path clip-path="url(#clip652)" d="M279.421 1353.44 L259.421 1373.44 L279.421 1393.44 L299.421 1373.44 L279.421 1353.44 Z" fill="#805580" fill-rule="evenodd" fill-opacity="1" stroke="#000000" stroke-opacity="1" stroke-width="3.2"/>
<path clip-path="url(#clip652)" d="M566.985 1257.22 L546.985 1277.22 L566.985 1297.22 L586.985 1277.22 L566.985 1257.22 Z" fill="#805580" fill-rule="evenodd" fill-opacity="1" stroke="#000000" stroke-opacity="1" stroke-width="3.2"/>
<path clip-path="url(#clip652)" d="M1142.11 1025.72 L1122.11 1045.72 L1142.11 1065.72 L1162.11 1045.72 L1142.11 1025.72 Z" fill="#805580" fill-rule="evenodd" fill-opacity="1" stroke="#000000" stroke-opacity="1" stroke-width="3.2"/>
<path clip-path="url(#clip652)" d="M2292.37 474.422 L2272.37 494.422 L2292.37 514.422 L2312.37 494.422 L2292.37 474.422 Z" fill="#805580" fill-rule="evenodd" fill-opacity="1" stroke="#000000" stroke-opacity="1" stroke-width="3.2"/>
<polyline clip-path="url(#clip652)" style="stroke:#0000ff; stroke-linecap:round; stroke-linejoin:round; stroke-width:4; stroke-opacity:1; fill:none" stroke-dasharray="2, 4" points="279.421,1380.94 566.985,1289.62 1142.11,1060.65 2292.37,511.167 "/>
<path clip-path="url(#clip652)" d="M279.421 1360.94 L274.721 1374.46 L260.401 1374.76 L271.821 1383.42 L267.661 1397.12 L279.421 1388.94 L291.181 1397.12 L287.021 1383.42 L298.441 1374.76 L284.121 1374.46 L279.421 1360.94 Z" fill="#0000ff" fill-rule="evenodd" fill-opacity="1" stroke="#000000" stroke-opacity="1" stroke-width="3.2"/>
<path clip-path="url(#clip652)" d="M566.985 1269.62 L562.285 1283.14 L547.965 1283.44 L559.385 1292.1 L555.225 1305.8 L566.985 1297.62 L578.745 1305.8 L574.585 1292.1 L586.005 1283.44 L571.685 1283.14 L566.985 1269.62 Z" fill="#0000ff" fill-rule="evenodd" fill-opacity="1" stroke="#000000" stroke-opacity="1" stroke-width="3.2"/>
<path clip-path="url(#clip652)" d="M1142.11 1040.65 L1137.41 1054.17 L1123.09 1054.47 L1134.51 1063.13 L1130.35 1076.83 L1142.11 1068.65 L1153.87 1076.83 L1149.71 1063.13 L1161.13 1054.47 L1146.81 1054.17 L1142.11 1040.65 Z" fill="#0000ff" fill-rule="evenodd" fill-opacity="1" stroke="#000000" stroke-opacity="1" stroke-width="3.2"/>
<path clip-path="url(#clip652)" d="M2292.37 491.167 L2287.67 504.687 L2273.35 504.987 L2284.77 513.647 L2280.61 527.347 L2292.37 519.167 L2304.13 527.347 L2299.97 513.647 L2311.39 504.987 L2297.07 504.687 L2292.37 491.167 Z" fill="#0000ff" fill-rule="evenodd" fill-opacity="1" stroke="#000000" stroke-opacity="1" stroke-width="3.2"/>
<polyline clip-path="url(#clip652)" style="stroke:#a9a955; stroke-linecap:round; stroke-linejoin:round; stroke-width:4; stroke-opacity:1; fill:none" stroke-dasharray="2, 4" points="279.421,1371.16 566.985,1269.99 1142.11,1027.77 2292.37,216.614 "/>
<path clip-path="url(#clip652)" d="M279.421 1351.16 L274.721 1364.68 L260.401 1364.98 L271.821 1373.64 L267.661 1387.34 L279.421 1379.16 L291.181 1387.34 L287.021 1373.64 L298.441 1364.98 L284.121 1364.68 L279.421 1351.16 Z" fill="#a9a955" fill-rule="evenodd" fill-opacity="1" stroke="#000000" stroke-opacity="1" stroke-width="3.2"/>
<path clip-path="url(#clip652)" d="M566.985 1249.99 L562.285 1263.51 L547.965 1263.81 L559.385 1272.47 L555.225 1286.17 L566.985 1277.99 L578.745 1286.17 L574.585 1272.47 L586.005 1263.81 L571.685 1263.51 L566.985 1249.99 Z" fill="#a9a955" fill-rule="evenodd" fill-opacity="1" stroke="#000000" stroke-opacity="1" stroke-width="3.2"/>
<path clip-path="url(#clip652)" d="M1142.11 1007.77 L1137.41 1021.29 L1123.09 1021.59 L1134.51 1030.25 L1130.35 1043.95 L1142.11 1035.77 L1153.87 1043.95 L1149.71 1030.25 L1161.13 1021.59 L1146.81 1021.29 L1142.11 1007.77 Z" fill="#a9a955" fill-rule="evenodd" fill-opacity="1" stroke="#000000" stroke-opacity="1" stroke-width="3.2"/>
<path clip-path="url(#clip652)" d="M2292.37 196.614 L2287.67 210.134 L2273.35 210.434 L2284.77 219.094 L2280.61 232.794 L2292.37 224.614 L2304.13 232.794 L2299.97 219.094 L2311.39 210.434 L2297.07 210.134 L2292.37 196.614 Z" fill="#a9a955" fill-rule="evenodd" fill-opacity="1" stroke="#000000" stroke-opacity="1" stroke-width="3.2"/>
<path clip-path="url(#clip650)" d="M290.157 455.989 L761.954 455.989 L761.954 93.1086 L290.157 93.1086  Z" fill="#ffffff" fill-rule="evenodd" fill-opacity="1"/>
<polyline clip-path="url(#clip650)" style="stroke:#000000; stroke-linecap:round; stroke-linejoin:round; stroke-width:4; stroke-opacity:1; fill:none" points="290.157,455.989 761.954,455.989 761.954,93.1086 290.157,93.1086 290.157,455.989 "/>
<polyline clip-path="url(#clip650)" style="stroke:#008000; stroke-linecap:round; stroke-linejoin:round; stroke-width:4; stroke-opacity:1; fill:none" stroke-dasharray="2, 4" points="313.865,144.949 456.113,144.949 "/>
<path clip-path="url(#clip650)" d="M384.989 166.901 L365.979 155.925 L365.979 133.973 L384.989 122.997 L403.999 133.973 L403.999 155.925 Z" fill="#008000" fill-rule="evenodd" fill-opacity="1" stroke="#000000" stroke-opacity="1" stroke-width="3.72364"/>
<path clip-path="url(#clip650)" d="M479.821 127.669 L499.682 127.669 L499.682 131.604 L484.497 131.604 L484.497 141.789 L498.201 141.789 L498.201 145.724 L484.497 145.724 L484.497 162.229 L479.821 162.229 L479.821 127.669 Z" fill="#000000" fill-rule="nonzero" fill-opacity="1" /><path clip-path="url(#clip650)" d="M511.766 145.724 L511.766 158.386 L519.266 158.386 Q523.039 158.386 524.844 156.835 Q526.673 155.261 526.673 152.043 Q526.673 148.803 524.844 147.275 Q523.039 145.724 519.266 145.724 L511.766 145.724 M511.766 131.511 L511.766 141.928 L518.687 141.928 Q522.113 141.928 523.779 140.655 Q525.469 139.358 525.469 136.719 Q525.469 134.104 523.779 132.807 Q522.113 131.511 518.687 131.511 L511.766 131.511 M507.09 127.669 L519.034 127.669 Q524.381 127.669 527.275 129.891 Q530.168 132.113 530.168 136.21 Q530.168 139.382 528.687 141.257 Q527.205 143.131 524.335 143.594 Q527.784 144.335 529.682 146.696 Q531.603 149.034 531.603 152.553 Q531.603 157.182 528.455 159.705 Q525.307 162.229 519.497 162.229 L507.09 162.229 L507.09 127.669 Z" fill="#000000" fill-rule="nonzero" fill-opacity="1" /><path clip-path="url(#clip650)" d="M544.289 131.511 L544.289 158.386 L549.937 158.386 Q557.089 158.386 560.4 155.145 Q563.733 151.905 563.733 144.914 Q563.733 137.969 560.4 134.752 Q557.089 131.511 549.937 131.511 L544.289 131.511 M539.613 127.669 L549.219 127.669 Q559.265 127.669 563.964 131.858 Q568.663 136.025 568.663 144.914 Q568.663 153.849 563.941 158.039 Q559.219 162.229 549.219 162.229 L539.613 162.229 L539.613 127.669 Z" fill="#000000" fill-rule="nonzero" fill-opacity="1" /><path clip-path="url(#clip650)" d="M576.117 127.669 L595.978 127.669 L595.978 131.604 L580.793 131.604 L580.793 141.789 L594.497 141.789 L594.497 145.724 L580.793 145.724 L580.793 162.229 L576.117 162.229 L576.117 127.669 Z" fill="#000000" fill-rule="nonzero" fill-opacity="1" /><polyline clip-path="url(#clip650)" style="stroke:#a92a00; stroke-linecap:round; stroke-linejoin:round; stroke-width:4; stroke-opacity:1; fill:none" stroke-dasharray="2, 4" points="313.865,196.789 456.113,196.789 "/>
<path clip-path="url(#clip650)" d="M384.989 218.741 L365.979 207.765 L365.979 185.813 L384.989 174.837 L403.999 185.813 L403.999 207.765 Z" fill="#a92a00" fill-rule="evenodd" fill-opacity="1" stroke="#000000" stroke-opacity="1" stroke-width="3.72364"/>
<path clip-path="url(#clip650)" d="M479.821 179.509 L499.682 179.509 L499.682 183.444 L484.497 183.444 L484.497 193.629 L498.201 193.629 L498.201 197.564 L484.497 197.564 L484.497 214.069 L479.821 214.069 L479.821 179.509 Z" fill="#000000" fill-rule="nonzero" fill-opacity="1" /><path clip-path="url(#clip650)" d="M511.766 197.564 L511.766 210.226 L519.266 210.226 Q523.039 210.226 524.844 208.675 Q526.673 207.101 526.673 203.883 Q526.673 200.643 524.844 199.115 Q523.039 197.564 519.266 197.564 L511.766 197.564 M511.766 183.351 L511.766 193.768 L518.687 193.768 Q522.113 193.768 523.779 192.495 Q525.469 191.198 525.469 188.559 Q525.469 185.944 523.779 184.647 Q522.113 183.351 518.687 183.351 L511.766 183.351 M507.09 179.509 L519.034 179.509 Q524.381 179.509 527.275 181.731 Q530.168 183.953 530.168 188.05 Q530.168 191.222 528.687 193.097 Q527.205 194.971 524.335 195.434 Q527.784 196.175 529.682 198.536 Q531.603 200.874 531.603 204.393 Q531.603 209.022 528.455 211.545 Q525.307 214.069 519.497 214.069 L507.09 214.069 L507.09 179.509 Z" fill="#000000" fill-rule="nonzero" fill-opacity="1" /><path clip-path="url(#clip650)" d="M544.289 183.351 L544.289 210.226 L549.937 210.226 Q557.089 210.226 560.4 206.985 Q563.733 203.745 563.733 196.754 Q563.733 189.809 560.4 186.592 Q557.089 183.351 549.937 183.351 L544.289 183.351 M539.613 179.509 L549.219 179.509 Q559.265 179.509 563.964 183.698 Q568.663 187.865 568.663 196.754 Q568.663 205.689 563.941 209.879 Q559.219 214.069 549.219 214.069 L539.613 214.069 L539.613 179.509 Z" fill="#000000" fill-rule="nonzero" fill-opacity="1" /><path clip-path="url(#clip650)" d="M576.117 179.509 L595.978 179.509 L595.978 183.444 L580.793 183.444 L580.793 193.629 L594.497 193.629 L594.497 197.564 L580.793 197.564 L580.793 214.069 L576.117 214.069 L576.117 179.509 Z" fill="#000000" fill-rule="nonzero" fill-opacity="1" /><path clip-path="url(#clip650)" d="M622.899 221.939 L622.899 225.249 L598.27 225.249 L598.27 221.939 L622.899 221.939 Z" fill="#000000" fill-rule="nonzero" fill-opacity="1" /><path clip-path="url(#clip650)" d="M631.024 210.18 L631.024 223.93 L626.742 223.93 L626.742 188.143 L631.024 188.143 L631.024 192.078 Q632.367 189.763 634.404 188.652 Q636.464 187.518 639.311 187.518 Q644.033 187.518 646.973 191.268 Q649.936 195.018 649.936 201.129 Q649.936 207.24 646.973 210.99 Q644.033 214.74 639.311 214.74 Q636.464 214.74 634.404 213.629 Q632.367 212.495 631.024 210.18 M645.515 201.129 Q645.515 196.43 643.57 193.768 Q641.649 191.083 638.27 191.083 Q634.89 191.083 632.945 193.768 Q631.024 196.43 631.024 201.129 Q631.024 205.828 632.945 208.513 Q634.89 211.175 638.27 211.175 Q641.649 211.175 643.57 208.513 Q645.515 205.828 645.515 201.129 Z" fill="#000000" fill-rule="nonzero" fill-opacity="1" /><path clip-path="url(#clip650)" d="M672.019 192.124 Q671.302 191.708 670.445 191.522 Q669.612 191.314 668.593 191.314 Q664.982 191.314 663.038 193.675 Q661.117 196.013 661.117 200.411 L661.117 214.069 L656.834 214.069 L656.834 188.143 L661.117 188.143 L661.117 192.171 Q662.459 189.809 664.612 188.675 Q666.765 187.518 669.843 187.518 Q670.283 187.518 670.816 187.587 Q671.348 187.634 671.996 187.749 L672.019 192.124 Z" fill="#000000" fill-rule="nonzero" fill-opacity="1" /><path clip-path="url(#clip650)" d="M697.621 200.041 L697.621 202.124 L678.038 202.124 Q678.316 206.522 680.677 208.837 Q683.061 211.129 687.297 211.129 Q689.751 211.129 692.042 210.527 Q694.357 209.925 696.626 208.721 L696.626 212.749 Q694.334 213.721 691.927 214.231 Q689.519 214.74 687.042 214.74 Q680.839 214.74 677.205 211.129 Q673.593 207.518 673.593 201.36 Q673.593 194.995 677.019 191.268 Q680.468 187.518 686.302 187.518 Q691.533 187.518 694.566 190.897 Q697.621 194.254 697.621 200.041 M693.362 198.791 Q693.316 195.296 691.394 193.212 Q689.496 191.129 686.348 191.129 Q682.783 191.129 680.63 193.143 Q678.501 195.157 678.177 198.814 L693.362 198.791 Z" fill="#000000" fill-rule="nonzero" fill-opacity="1" /><path clip-path="url(#clip650)" d="M723.269 189.138 L723.269 193.12 Q721.464 192.124 719.635 191.638 Q717.829 191.129 715.977 191.129 Q711.834 191.129 709.542 193.768 Q707.251 196.384 707.251 201.129 Q707.251 205.874 709.542 208.513 Q711.834 211.129 715.977 211.129 Q717.829 211.129 719.635 210.643 Q721.464 210.133 723.269 209.138 L723.269 213.073 Q721.487 213.907 719.565 214.323 Q717.667 214.74 715.514 214.74 Q709.658 214.74 706.209 211.059 Q702.76 207.379 702.76 201.129 Q702.76 194.786 706.232 191.152 Q709.727 187.518 715.792 187.518 Q717.76 187.518 719.635 187.935 Q721.51 188.328 723.269 189.138 Z" fill="#000000" fill-rule="nonzero" fill-opacity="1" /><polyline clip-path="url(#clip650)" style="stroke:#800080; stroke-linecap:round; stroke-linejoin:round; stroke-width:4; stroke-opacity:1; fill:none" stroke-dasharray="2, 4" points="313.865,248.629 456.113,248.629 "/>
<path clip-path="url(#clip650)" d="M384.989 226.677 L363.037 248.629 L384.989 270.581 L406.941 248.629 L384.989 226.677 Z" fill="#800080" fill-rule="evenodd" fill-opacity="1" stroke="#000000" stroke-opacity="1" stroke-width="3.72364"/>
<path clip-path="url(#clip650)" d="M495.84 234.52 Q490.747 234.52 487.738 238.316 Q484.752 242.112 484.752 248.663 Q484.752 255.191 487.738 258.987 Q490.747 262.784 495.84 262.784 Q500.932 262.784 503.895 258.987 Q506.881 255.191 506.881 248.663 Q506.881 242.112 503.895 238.316 Q500.932 234.52 495.84 234.52 M502.391 265.284 L508.548 272.02 L502.9 272.02 L497.784 266.487 Q497.02 266.534 496.604 266.557 Q496.21 266.58 495.84 266.58 Q488.548 266.58 484.173 261.719 Q479.821 256.835 479.821 248.663 Q479.821 240.469 484.173 235.608 Q488.548 230.724 495.84 230.724 Q503.108 230.724 507.46 235.608 Q511.812 240.469 511.812 248.663 Q511.812 254.682 509.381 258.964 Q506.974 263.247 502.391 265.284 Z" fill="#000000" fill-rule="nonzero" fill-opacity="1" /><path clip-path="url(#clip650)" d="M519.127 231.349 L525.423 231.349 L540.747 260.261 L540.747 231.349 L545.284 231.349 L545.284 265.909 L538.988 265.909 L523.664 236.997 L523.664 265.909 L519.127 265.909 L519.127 231.349 Z" fill="#000000" fill-rule="nonzero" fill-opacity="1" /><path clip-path="url(#clip650)" d="M559.265 235.191 L559.265 262.066 L564.913 262.066 Q572.066 262.066 575.376 258.825 Q578.71 255.585 578.71 248.594 Q578.71 241.649 575.376 238.432 Q572.066 235.191 564.913 235.191 L559.265 235.191 M554.589 231.349 L564.196 231.349 Q574.242 231.349 578.941 235.538 Q583.64 239.705 583.64 248.594 Q583.64 257.529 578.918 261.719 Q574.196 265.909 564.196 265.909 L554.589 265.909 L554.589 231.349 Z" fill="#000000" fill-rule="nonzero" fill-opacity="1" /><path clip-path="url(#clip650)" d="M591.094 231.349 L610.955 231.349 L610.955 235.284 L595.77 235.284 L595.77 245.469 L609.473 245.469 L609.473 249.404 L595.77 249.404 L595.77 265.909 L591.094 265.909 L591.094 231.349 Z" fill="#000000" fill-rule="nonzero" fill-opacity="1" /><polyline clip-path="url(#clip650)" style="stroke:#805580; stroke-linecap:round; stroke-linejoin:round; stroke-width:4; stroke-opacity:1; fill:none" stroke-dasharray="2, 4" points="313.865,300.469 456.113,300.469 "/>
<path clip-path="url(#clip650)" d="M384.989 278.517 L363.037 300.469 L384.989 322.421 L406.941 300.469 L384.989 278.517 Z" fill="#805580" fill-rule="evenodd" fill-opacity="1" stroke="#000000" stroke-opacity="1" stroke-width="3.72364"/>
<path clip-path="url(#clip650)" d="M495.84 286.36 Q490.747 286.36 487.738 290.156 Q484.752 293.952 484.752 300.503 Q484.752 307.031 487.738 310.827 Q490.747 314.624 495.84 314.624 Q500.932 314.624 503.895 310.827 Q506.881 307.031 506.881 300.503 Q506.881 293.952 503.895 290.156 Q500.932 286.36 495.84 286.36 M502.391 317.124 L508.548 323.86 L502.9 323.86 L497.784 318.327 Q497.02 318.374 496.604 318.397 Q496.21 318.42 495.84 318.42 Q488.548 318.42 484.173 313.559 Q479.821 308.675 479.821 300.503 Q479.821 292.309 484.173 287.448 Q488.548 282.564 495.84 282.564 Q503.108 282.564 507.46 287.448 Q511.812 292.309 511.812 300.503 Q511.812 306.522 509.381 310.804 Q506.974 315.087 502.391 317.124 Z" fill="#000000" fill-rule="nonzero" fill-opacity="1" /><path clip-path="url(#clip650)" d="M519.127 283.189 L525.423 283.189 L540.747 312.101 L540.747 283.189 L545.284 283.189 L545.284 317.749 L538.988 317.749 L523.664 288.837 L523.664 317.749 L519.127 317.749 L519.127 283.189 Z" fill="#000000" fill-rule="nonzero" fill-opacity="1" /><path clip-path="url(#clip650)" d="M559.265 287.031 L559.265 313.906 L564.913 313.906 Q572.066 313.906 575.376 310.665 Q578.71 307.425 578.71 300.434 Q578.71 293.489 575.376 290.272 Q572.066 287.031 564.913 287.031 L559.265 287.031 M554.589 283.189 L564.196 283.189 Q574.242 283.189 578.941 287.378 Q583.64 291.545 583.64 300.434 Q583.64 309.369 578.918 313.559 Q574.196 317.749 564.196 317.749 L554.589 317.749 L554.589 283.189 Z" fill="#000000" fill-rule="nonzero" fill-opacity="1" /><path clip-path="url(#clip650)" d="M591.094 283.189 L610.955 283.189 L610.955 287.124 L595.77 287.124 L595.77 297.309 L609.473 297.309 L609.473 301.244 L595.77 301.244 L595.77 317.749 L591.094 317.749 L591.094 283.189 Z" fill="#000000" fill-rule="nonzero" fill-opacity="1" /><path clip-path="url(#clip650)" d="M637.876 325.619 L637.876 328.929 L613.247 328.929 L613.247 325.619 L637.876 325.619 Z" fill="#000000" fill-rule="nonzero" fill-opacity="1" /><path clip-path="url(#clip650)" d="M646.001 313.86 L646.001 327.61 L641.719 327.61 L641.719 291.823 L646.001 291.823 L646.001 295.758 Q647.344 293.443 649.381 292.332 Q651.441 291.198 654.288 291.198 Q659.01 291.198 661.95 294.948 Q664.913 298.698 664.913 304.809 Q664.913 310.92 661.95 314.67 Q659.01 318.42 654.288 318.42 Q651.441 318.42 649.381 317.309 Q647.344 316.175 646.001 313.86 M660.492 304.809 Q660.492 300.11 658.547 297.448 Q656.626 294.763 653.246 294.763 Q649.867 294.763 647.922 297.448 Q646.001 300.11 646.001 304.809 Q646.001 309.508 647.922 312.193 Q649.867 314.855 653.246 314.855 Q656.626 314.855 658.547 312.193 Q660.492 309.508 660.492 304.809 Z" fill="#000000" fill-rule="nonzero" fill-opacity="1" /><path clip-path="url(#clip650)" d="M686.996 295.804 Q686.279 295.388 685.422 295.202 Q684.589 294.994 683.57 294.994 Q679.959 294.994 678.015 297.355 Q676.093 299.693 676.093 304.091 L676.093 317.749 L671.811 317.749 L671.811 291.823 L676.093 291.823 L676.093 295.851 Q677.436 293.489 679.589 292.355 Q681.742 291.198 684.82 291.198 Q685.26 291.198 685.792 291.267 Q686.325 291.314 686.973 291.429 L686.996 295.804 Z" fill="#000000" fill-rule="nonzero" fill-opacity="1" /><path clip-path="url(#clip650)" d="M712.598 303.721 L712.598 305.804 L693.015 305.804 Q693.292 310.202 695.653 312.517 Q698.038 314.809 702.274 314.809 Q704.728 314.809 707.019 314.207 Q709.334 313.605 711.602 312.401 L711.602 316.429 Q709.311 317.401 706.903 317.911 Q704.496 318.42 702.019 318.42 Q695.816 318.42 692.181 314.809 Q688.57 311.198 688.57 305.04 Q688.57 298.675 691.996 294.948 Q695.445 291.198 701.278 291.198 Q706.51 291.198 709.542 294.577 Q712.598 297.934 712.598 303.721 M708.339 302.471 Q708.292 298.976 706.371 296.892 Q704.473 294.809 701.325 294.809 Q697.76 294.809 695.607 296.823 Q693.478 298.837 693.153 302.494 L708.339 302.471 Z" fill="#000000" fill-rule="nonzero" fill-opacity="1" /><path clip-path="url(#clip650)" d="M738.246 292.818 L738.246 296.8 Q736.44 295.804 734.612 295.318 Q732.806 294.809 730.954 294.809 Q726.811 294.809 724.519 297.448 Q722.227 300.064 722.227 304.809 Q722.227 309.554 724.519 312.193 Q726.811 314.809 730.954 314.809 Q732.806 314.809 734.612 314.323 Q736.44 313.813 738.246 312.818 L738.246 316.753 Q736.463 317.587 734.542 318.003 Q732.644 318.42 730.491 318.42 Q724.635 318.42 721.186 314.739 Q717.737 311.059 717.737 304.809 Q717.737 298.466 721.209 294.832 Q724.704 291.198 730.769 291.198 Q732.737 291.198 734.612 291.615 Q736.487 292.008 738.246 292.818 Z" fill="#000000" fill-rule="nonzero" fill-opacity="1" /><polyline clip-path="url(#clip650)" style="stroke:#0000ff; stroke-linecap:round; stroke-linejoin:round; stroke-width:4; stroke-opacity:1; fill:none" stroke-dasharray="2, 4" points="313.865,352.309 456.113,352.309 "/>
<path clip-path="url(#clip650)" d="M384.989 330.357 L379.83 345.196 L364.113 345.525 L376.647 355.031 L372.081 370.068 L384.989 361.089 L397.897 370.068 L393.331 355.031 L405.865 345.525 L390.148 345.196 L384.989 330.357 Z" fill="#0000ff" fill-rule="evenodd" fill-opacity="1" stroke="#000000" stroke-opacity="1" stroke-width="3.72364"/>
<path clip-path="url(#clip650)" d="M495.84 338.2 Q490.747 338.2 487.738 341.996 Q484.752 345.792 484.752 352.343 Q484.752 358.871 487.738 362.667 Q490.747 366.464 495.84 366.464 Q500.932 366.464 503.895 362.667 Q506.881 358.871 506.881 352.343 Q506.881 345.792 503.895 341.996 Q500.932 338.2 495.84 338.2 M502.391 368.964 L508.548 375.7 L502.9 375.7 L497.784 370.167 Q497.02 370.214 496.604 370.237 Q496.21 370.26 495.84 370.26 Q488.548 370.26 484.173 365.399 Q479.821 360.515 479.821 352.343 Q479.821 344.149 484.173 339.288 Q488.548 334.404 495.84 334.404 Q503.108 334.404 507.46 339.288 Q511.812 344.149 511.812 352.343 Q511.812 358.362 509.381 362.644 Q506.974 366.927 502.391 368.964 Z" fill="#000000" fill-rule="nonzero" fill-opacity="1" /><path clip-path="url(#clip650)" d="M523.803 353.084 L523.803 365.746 L531.303 365.746 Q535.076 365.746 536.881 364.195 Q538.71 362.621 538.71 359.403 Q538.71 356.163 536.881 354.635 Q535.076 353.084 531.303 353.084 L523.803 353.084 M523.803 338.871 L523.803 349.288 L530.724 349.288 Q534.15 349.288 535.816 348.015 Q537.506 346.718 537.506 344.079 Q537.506 341.464 535.816 340.167 Q534.15 338.871 530.724 338.871 L523.803 338.871 M519.127 335.029 L531.071 335.029 Q536.418 335.029 539.312 337.251 Q542.205 339.473 542.205 343.57 Q542.205 346.742 540.724 348.617 Q539.242 350.491 536.372 350.954 Q539.821 351.695 541.719 354.056 Q543.64 356.394 543.64 359.913 Q543.64 364.542 540.492 367.065 Q537.344 369.589 531.534 369.589 L519.127 369.589 L519.127 335.029 Z" fill="#000000" fill-rule="nonzero" fill-opacity="1" /><path clip-path="url(#clip650)" d="M556.326 338.871 L556.326 365.746 L561.974 365.746 Q569.126 365.746 572.437 362.505 Q575.77 359.265 575.77 352.274 Q575.77 345.329 572.437 342.112 Q569.126 338.871 561.974 338.871 L556.326 338.871 M551.65 335.029 L561.256 335.029 Q571.302 335.029 576.001 339.218 Q580.7 343.385 580.7 352.274 Q580.7 361.209 575.978 365.399 Q571.256 369.589 561.256 369.589 L551.65 369.589 L551.65 335.029 Z" fill="#000000" fill-rule="nonzero" fill-opacity="1" /><path clip-path="url(#clip650)" d="M588.154 335.029 L608.015 335.029 L608.015 338.964 L592.83 338.964 L592.83 349.149 L606.534 349.149 L606.534 353.084 L592.83 353.084 L592.83 369.589 L588.154 369.589 L588.154 335.029 Z" fill="#000000" fill-rule="nonzero" fill-opacity="1" /><polyline clip-path="url(#clip650)" style="stroke:#a9a955; stroke-linecap:round; stroke-linejoin:round; stroke-width:4; stroke-opacity:1; fill:none" stroke-dasharray="2, 4" points="313.865,404.149 456.113,404.149 "/>
<path clip-path="url(#clip650)" d="M384.989 382.197 L379.83 397.036 L364.113 397.365 L376.647 406.871 L372.081 421.908 L384.989 412.929 L397.897 421.908 L393.331 406.871 L405.865 397.365 L390.148 397.036 L384.989 382.197 Z" fill="#a9a955" fill-rule="evenodd" fill-opacity="1" stroke="#000000" stroke-opacity="1" stroke-width="3.72364"/>
<path clip-path="url(#clip650)" d="M495.84 390.04 Q490.747 390.04 487.738 393.836 Q484.752 397.632 484.752 404.183 Q484.752 410.711 487.738 414.507 Q490.747 418.304 495.84 418.304 Q500.932 418.304 503.895 414.507 Q506.881 410.711 506.881 404.183 Q506.881 397.632 503.895 393.836 Q500.932 390.04 495.84 390.04 M502.391 420.804 L508.548 427.54 L502.9 427.54 L497.784 422.007 Q497.02 422.054 496.604 422.077 Q496.21 422.1 495.84 422.1 Q488.548 422.1 484.173 417.239 Q479.821 412.355 479.821 404.183 Q479.821 395.989 484.173 391.128 Q488.548 386.244 495.84 386.244 Q503.108 386.244 507.46 391.128 Q511.812 395.989 511.812 404.183 Q511.812 410.202 509.381 414.484 Q506.974 418.767 502.391 420.804 Z" fill="#000000" fill-rule="nonzero" fill-opacity="1" /><path clip-path="url(#clip650)" d="M523.803 404.924 L523.803 417.586 L531.303 417.586 Q535.076 417.586 536.881 416.035 Q538.71 414.461 538.71 411.243 Q538.71 408.003 536.881 406.475 Q535.076 404.924 531.303 404.924 L523.803 404.924 M523.803 390.711 L523.803 401.128 L530.724 401.128 Q534.15 401.128 535.816 399.855 Q537.506 398.558 537.506 395.919 Q537.506 393.304 535.816 392.007 Q534.15 390.711 530.724 390.711 L523.803 390.711 M519.127 386.869 L531.071 386.869 Q536.418 386.869 539.312 389.091 Q542.205 391.313 542.205 395.41 Q542.205 398.582 540.724 400.457 Q539.242 402.331 536.372 402.794 Q539.821 403.535 541.719 405.896 Q543.64 408.234 543.64 411.753 Q543.64 416.382 540.492 418.905 Q537.344 421.429 531.534 421.429 L519.127 421.429 L519.127 386.869 Z" fill="#000000" fill-rule="nonzero" fill-opacity="1" /><path clip-path="url(#clip650)" d="M556.326 390.711 L556.326 417.586 L561.974 417.586 Q569.126 417.586 572.437 414.345 Q575.77 411.105 575.77 404.114 Q575.77 397.169 572.437 393.952 Q569.126 390.711 561.974 390.711 L556.326 390.711 M551.65 386.869 L561.256 386.869 Q571.302 386.869 576.001 391.058 Q580.7 395.225 580.7 404.114 Q580.7 413.049 575.978 417.239 Q571.256 421.429 561.256 421.429 L551.65 421.429 L551.65 386.869 Z" fill="#000000" fill-rule="nonzero" fill-opacity="1" /><path clip-path="url(#clip650)" d="M588.154 386.869 L608.015 386.869 L608.015 390.804 L592.83 390.804 L592.83 400.989 L606.534 400.989 L606.534 404.924 L592.83 404.924 L592.83 421.429 L588.154 421.429 L588.154 386.869 Z" fill="#000000" fill-rule="nonzero" fill-opacity="1" /><path clip-path="url(#clip650)" d="M634.936 429.299 L634.936 432.609 L610.307 432.609 L610.307 429.299 L634.936 429.299 Z" fill="#000000" fill-rule="nonzero" fill-opacity="1" /><path clip-path="url(#clip650)" d="M643.061 417.54 L643.061 431.29 L638.779 431.29 L638.779 395.503 L643.061 395.503 L643.061 399.438 Q644.404 397.123 646.441 396.012 Q648.501 394.878 651.348 394.878 Q656.07 394.878 659.01 398.628 Q661.973 402.378 661.973 408.489 Q661.973 414.6 659.01 418.35 Q656.07 422.1 651.348 422.1 Q648.501 422.1 646.441 420.989 Q644.404 419.855 643.061 417.54 M657.552 408.489 Q657.552 403.79 655.607 401.128 Q653.686 398.443 650.306 398.443 Q646.927 398.443 644.982 401.128 Q643.061 403.79 643.061 408.489 Q643.061 413.188 644.982 415.873 Q646.927 418.535 650.306 418.535 Q653.686 418.535 655.607 415.873 Q657.552 413.188 657.552 408.489 Z" fill="#000000" fill-rule="nonzero" fill-opacity="1" /><path clip-path="url(#clip650)" d="M684.056 399.484 Q683.339 399.068 682.482 398.882 Q681.649 398.674 680.63 398.674 Q677.019 398.674 675.075 401.035 Q673.154 403.373 673.154 407.771 L673.154 421.429 L668.871 421.429 L668.871 395.503 L673.154 395.503 L673.154 399.531 Q674.496 397.169 676.649 396.035 Q678.802 394.878 681.88 394.878 Q682.32 394.878 682.853 394.947 Q683.385 394.994 684.033 395.109 L684.056 399.484 Z" fill="#000000" fill-rule="nonzero" fill-opacity="1" /><path clip-path="url(#clip650)" d="M709.658 407.401 L709.658 409.484 L690.075 409.484 Q690.353 413.882 692.714 416.197 Q695.098 418.489 699.334 418.489 Q701.788 418.489 704.079 417.887 Q706.394 417.285 708.663 416.081 L708.663 420.109 Q706.371 421.081 703.964 421.591 Q701.556 422.1 699.079 422.1 Q692.876 422.1 689.241 418.489 Q685.63 414.878 685.63 408.72 Q685.63 402.355 689.056 398.628 Q692.505 394.878 698.339 394.878 Q703.57 394.878 706.602 398.257 Q709.658 401.614 709.658 407.401 M705.399 406.151 Q705.352 402.656 703.431 400.572 Q701.533 398.489 698.385 398.489 Q694.82 398.489 692.667 400.503 Q690.538 402.517 690.214 406.174 L705.399 406.151 Z" fill="#000000" fill-rule="nonzero" fill-opacity="1" /><path clip-path="url(#clip650)" d="M735.306 396.498 L735.306 400.48 Q733.5 399.484 731.672 398.998 Q729.866 398.489 728.014 398.489 Q723.871 398.489 721.579 401.128 Q719.288 403.744 719.288 408.489 Q719.288 413.234 721.579 415.873 Q723.871 418.489 728.014 418.489 Q729.866 418.489 731.672 418.003 Q733.5 417.493 735.306 416.498 L735.306 420.433 Q733.524 421.267 731.602 421.683 Q729.704 422.1 727.551 422.1 Q721.695 422.1 718.246 418.419 Q714.797 414.739 714.797 408.489 Q714.797 402.146 718.269 398.512 Q721.764 394.878 727.829 394.878 Q729.797 394.878 731.672 395.295 Q733.547 395.688 735.306 396.498 Z" fill="#000000" fill-rule="nonzero" fill-opacity="1" /></svg>
