<?xml version="1.0" encoding="utf-8" standalone="no"?>
<!DOCTYPE svg PUBLIC "-//W3C//DTD SVG 1.1//EN"
  "http://www.w3.org/Graphics/SVG/1.1/DTD/svg11.dtd">
<svg xmlns:xlink="http://www.w3.org/1999/xlink" width="504pt" height="288pt" viewBox="0 0 504 288" xmlns="http://www.w3.org/2000/svg" version="1.1">
 <metadata>
  <rdf:RDF xmlns:dc="http://purl.org/dc/elements/1.1/" xmlns:cc="http://creativecommons.org/ns#" xmlns:rdf="http://www.w3.org/1999/02/22-rdf-syntax-ns#">
   <cc:Work>
    <dc:type rdf:resource="http://purl.org/dc/dcmitype/StillImage"/>
    <dc:date>2024-09-21T18:21:21.812841</dc:date>
    <dc:format>image/svg+xml</dc:format>
    <dc:creator>
     <cc:Agent>
      <dc:title>Matplotlib v3.9.1, https://matplotlib.org/</dc:title>
     </cc:Agent>
    </dc:creator>
   </cc:Work>
  </rdf:RDF>
 </metadata>
 <defs>
  <style type="text/css">*{stroke-linejoin: round; stroke-linecap: butt}</style>
 </defs>
 <g id="figure_1">
  <g id="patch_1">
   <path d="M 0 288 
L 504 288 
L 504 0 
L 0 0 
z
" style="fill: #ffffff"/>
  </g>
  <g id="axes_1">
   <g id="patch_2">
    <path d="M 63 252 
L 453.6 252 
L 453.6 34.56 
L 63 34.56 
z
" style="fill: #ffffff"/>
   </g>
   <g id="matplotlib.axis_1">
    <g id="xtick_1">
     <g id="line2d_1">
      <defs>
       <path id="m2c9108ecdd" d="M 0 0 
L 0 3.5 
" style="stroke: #000000; stroke-width: 0.8"/>
      </defs>
      <g>
       <use xlink:href="#m2c9108ecdd" x="80.754545" y="252" style="stroke: #000000; stroke-width: 0.8"/>
      </g>
     </g>
     <g id="text_1">
      <!-- 0 -->
      <g transform="translate(77.573295 266.598437) scale(0.1 -0.1)">
       <defs>
        <path id="DejaVuSans-30" d="M 2034 4250 
Q 1547 4250 1301 3770 
Q 1056 3291 1056 2328 
Q 1056 1369 1301 889 
Q 1547 409 2034 409 
Q 2525 409 2770 889 
Q 3016 1369 3016 2328 
Q 3016 3291 2770 3770 
Q 2525 4250 2034 4250 
z
M 2034 4750 
Q 2819 4750 3233 4129 
Q 3647 3509 3647 2328 
Q 3647 1150 3233 529 
Q 2819 -91 2034 -91 
Q 1250 -91 836 529 
Q 422 1150 422 2328 
Q 422 3509 836 4129 
Q 1250 4750 2034 4750 
z
" transform="scale(0.015625)"/>
       </defs>
       <use xlink:href="#DejaVuSans-30"/>
      </g>
     </g>
    </g>
    <g id="xtick_2">
     <g id="line2d_2">
      <g>
       <use xlink:href="#m2c9108ecdd" x="128.1" y="252" style="stroke: #000000; stroke-width: 0.8"/>
      </g>
     </g>
     <g id="text_2">
      <!-- 200 -->
      <g transform="translate(118.55625 266.598437) scale(0.1 -0.1)">
       <defs>
        <path id="DejaVuSans-32" d="M 1228 531 
L 3431 531 
L 3431 0 
L 469 0 
L 469 531 
Q 828 903 1448 1529 
Q 2069 2156 2228 2338 
Q 2531 2678 2651 2914 
Q 2772 3150 2772 3378 
Q 2772 3750 2511 3984 
Q 2250 4219 1831 4219 
Q 1534 4219 1204 4116 
Q 875 4013 500 3803 
L 500 4441 
Q 881 4594 1212 4672 
Q 1544 4750 1819 4750 
Q 2544 4750 2975 4387 
Q 3406 4025 3406 3419 
Q 3406 3131 3298 2873 
Q 3191 2616 2906 2266 
Q 2828 2175 2409 1742 
Q 1991 1309 1228 531 
z
" transform="scale(0.015625)"/>
       </defs>
       <use xlink:href="#DejaVuSans-32"/>
       <use xlink:href="#DejaVuSans-30" x="63.623047"/>
       <use xlink:href="#DejaVuSans-30" x="127.246094"/>
      </g>
     </g>
    </g>
    <g id="xtick_3">
     <g id="line2d_3">
      <g>
       <use xlink:href="#m2c9108ecdd" x="175.445455" y="252" style="stroke: #000000; stroke-width: 0.8"/>
      </g>
     </g>
     <g id="text_3">
      <!-- 400 -->
      <g transform="translate(165.901705 266.598437) scale(0.1 -0.1)">
       <defs>
        <path id="DejaVuSans-34" d="M 2419 4116 
L 825 1625 
L 2419 1625 
L 2419 4116 
z
M 2253 4666 
L 3047 4666 
L 3047 1625 
L 3713 1625 
L 3713 1100 
L 3047 1100 
L 3047 0 
L 2419 0 
L 2419 1100 
L 313 1100 
L 313 1709 
L 2253 4666 
z
" transform="scale(0.015625)"/>
       </defs>
       <use xlink:href="#DejaVuSans-34"/>
       <use xlink:href="#DejaVuSans-30" x="63.623047"/>
       <use xlink:href="#DejaVuSans-30" x="127.246094"/>
      </g>
     </g>
    </g>
    <g id="xtick_4">
     <g id="line2d_4">
      <g>
       <use xlink:href="#m2c9108ecdd" x="222.790909" y="252" style="stroke: #000000; stroke-width: 0.8"/>
      </g>
     </g>
     <g id="text_4">
      <!-- 600 -->
      <g transform="translate(213.247159 266.598437) scale(0.1 -0.1)">
       <defs>
        <path id="DejaVuSans-36" d="M 2113 2584 
Q 1688 2584 1439 2293 
Q 1191 2003 1191 1497 
Q 1191 994 1439 701 
Q 1688 409 2113 409 
Q 2538 409 2786 701 
Q 3034 994 3034 1497 
Q 3034 2003 2786 2293 
Q 2538 2584 2113 2584 
z
M 3366 4563 
L 3366 3988 
Q 3128 4100 2886 4159 
Q 2644 4219 2406 4219 
Q 1781 4219 1451 3797 
Q 1122 3375 1075 2522 
Q 1259 2794 1537 2939 
Q 1816 3084 2150 3084 
Q 2853 3084 3261 2657 
Q 3669 2231 3669 1497 
Q 3669 778 3244 343 
Q 2819 -91 2113 -91 
Q 1303 -91 875 529 
Q 447 1150 447 2328 
Q 447 3434 972 4092 
Q 1497 4750 2381 4750 
Q 2619 4750 2861 4703 
Q 3103 4656 3366 4563 
z
" transform="scale(0.015625)"/>
       </defs>
       <use xlink:href="#DejaVuSans-36"/>
       <use xlink:href="#DejaVuSans-30" x="63.623047"/>
       <use xlink:href="#DejaVuSans-30" x="127.246094"/>
      </g>
     </g>
    </g>
    <g id="xtick_5">
     <g id="line2d_5">
      <g>
       <use xlink:href="#m2c9108ecdd" x="270.136364" y="252" style="stroke: #000000; stroke-width: 0.8"/>
      </g>
     </g>
     <g id="text_5">
      <!-- 800 -->
      <g transform="translate(260.592614 266.598437) scale(0.1 -0.1)">
       <defs>
        <path id="DejaVuSans-38" d="M 2034 2216 
Q 1584 2216 1326 1975 
Q 1069 1734 1069 1313 
Q 1069 891 1326 650 
Q 1584 409 2034 409 
Q 2484 409 2743 651 
Q 3003 894 3003 1313 
Q 3003 1734 2745 1975 
Q 2488 2216 2034 2216 
z
M 1403 2484 
Q 997 2584 770 2862 
Q 544 3141 544 3541 
Q 544 4100 942 4425 
Q 1341 4750 2034 4750 
Q 2731 4750 3128 4425 
Q 3525 4100 3525 3541 
Q 3525 3141 3298 2862 
Q 3072 2584 2669 2484 
Q 3125 2378 3379 2068 
Q 3634 1759 3634 1313 
Q 3634 634 3220 271 
Q 2806 -91 2034 -91 
Q 1263 -91 848 271 
Q 434 634 434 1313 
Q 434 1759 690 2068 
Q 947 2378 1403 2484 
z
M 1172 3481 
Q 1172 3119 1398 2916 
Q 1625 2713 2034 2713 
Q 2441 2713 2670 2916 
Q 2900 3119 2900 3481 
Q 2900 3844 2670 4047 
Q 2441 4250 2034 4250 
Q 1625 4250 1398 4047 
Q 1172 3844 1172 3481 
z
" transform="scale(0.015625)"/>
       </defs>
       <use xlink:href="#DejaVuSans-38"/>
       <use xlink:href="#DejaVuSans-30" x="63.623047"/>
       <use xlink:href="#DejaVuSans-30" x="127.246094"/>
      </g>
     </g>
    </g>
    <g id="xtick_6">
     <g id="line2d_6">
      <g>
       <use xlink:href="#m2c9108ecdd" x="317.481818" y="252" style="stroke: #000000; stroke-width: 0.8"/>
      </g>
     </g>
     <g id="text_6">
      <!-- 1000 -->
      <g transform="translate(304.756818 266.598437) scale(0.1 -0.1)">
       <defs>
        <path id="DejaVuSans-31" d="M 794 531 
L 1825 531 
L 1825 4091 
L 703 3866 
L 703 4441 
L 1819 4666 
L 2450 4666 
L 2450 531 
L 3481 531 
L 3481 0 
L 794 0 
L 794 531 
z
" transform="scale(0.015625)"/>
       </defs>
       <use xlink:href="#DejaVuSans-31"/>
       <use xlink:href="#DejaVuSans-30" x="63.623047"/>
       <use xlink:href="#DejaVuSans-30" x="127.246094"/>
       <use xlink:href="#DejaVuSans-30" x="190.869141"/>
      </g>
     </g>
    </g>
    <g id="xtick_7">
     <g id="line2d_7">
      <g>
       <use xlink:href="#m2c9108ecdd" x="364.827273" y="252" style="stroke: #000000; stroke-width: 0.8"/>
      </g>
     </g>
     <g id="text_7">
      <!-- 1200 -->
      <g transform="translate(352.102273 266.598437) scale(0.1 -0.1)">
       <use xlink:href="#DejaVuSans-31"/>
       <use xlink:href="#DejaVuSans-32" x="63.623047"/>
       <use xlink:href="#DejaVuSans-30" x="127.246094"/>
       <use xlink:href="#DejaVuSans-30" x="190.869141"/>
      </g>
     </g>
    </g>
    <g id="xtick_8">
     <g id="line2d_8">
      <g>
       <use xlink:href="#m2c9108ecdd" x="412.172727" y="252" style="stroke: #000000; stroke-width: 0.8"/>
      </g>
     </g>
     <g id="text_8">
      <!-- 1400 -->
      <g transform="translate(399.447727 266.598437) scale(0.1 -0.1)">
       <use xlink:href="#DejaVuSans-31"/>
       <use xlink:href="#DejaVuSans-34" x="63.623047"/>
       <use xlink:href="#DejaVuSans-30" x="127.246094"/>
       <use xlink:href="#DejaVuSans-30" x="190.869141"/>
      </g>
     </g>
    </g>
    <g id="text_9">
     <!-- Time (s) -->
     <g transform="translate(227.806641 284.075781) scale(0.15 -0.15)">
      <defs>
       <path id="DejaVuSans-54" d="M -19 4666 
L 3928 4666 
L 3928 4134 
L 2272 4134 
L 2272 0 
L 1638 0 
L 1638 4134 
L -19 4134 
L -19 4666 
z
" transform="scale(0.015625)"/>
       <path id="DejaVuSans-69" d="M 603 3500 
L 1178 3500 
L 1178 0 
L 603 0 
L 603 3500 
z
M 603 4863 
L 1178 4863 
L 1178 4134 
L 603 4134 
L 603 4863 
z
" transform="scale(0.015625)"/>
       <path id="DejaVuSans-6d" d="M 3328 2828 
Q 3544 3216 3844 3400 
Q 4144 3584 4550 3584 
Q 5097 3584 5394 3201 
Q 5691 2819 5691 2113 
L 5691 0 
L 5113 0 
L 5113 2094 
Q 5113 2597 4934 2840 
Q 4756 3084 4391 3084 
Q 3944 3084 3684 2787 
Q 3425 2491 3425 1978 
L 3425 0 
L 2847 0 
L 2847 2094 
Q 2847 2600 2669 2842 
Q 2491 3084 2119 3084 
Q 1678 3084 1418 2786 
Q 1159 2488 1159 1978 
L 1159 0 
L 581 0 
L 581 3500 
L 1159 3500 
L 1159 2956 
Q 1356 3278 1631 3431 
Q 1906 3584 2284 3584 
Q 2666 3584 2933 3390 
Q 3200 3197 3328 2828 
z
" transform="scale(0.015625)"/>
       <path id="DejaVuSans-65" d="M 3597 1894 
L 3597 1613 
L 953 1613 
Q 991 1019 1311 708 
Q 1631 397 2203 397 
Q 2534 397 2845 478 
Q 3156 559 3463 722 
L 3463 178 
Q 3153 47 2828 -22 
Q 2503 -91 2169 -91 
Q 1331 -91 842 396 
Q 353 884 353 1716 
Q 353 2575 817 3079 
Q 1281 3584 2069 3584 
Q 2775 3584 3186 3129 
Q 3597 2675 3597 1894 
z
M 3022 2063 
Q 3016 2534 2758 2815 
Q 2500 3097 2075 3097 
Q 1594 3097 1305 2825 
Q 1016 2553 972 2059 
L 3022 2063 
z
" transform="scale(0.015625)"/>
       <path id="DejaVuSans-20" transform="scale(0.015625)"/>
       <path id="DejaVuSans-28" d="M 1984 4856 
Q 1566 4138 1362 3434 
Q 1159 2731 1159 2009 
Q 1159 1288 1364 580 
Q 1569 -128 1984 -844 
L 1484 -844 
Q 1016 -109 783 600 
Q 550 1309 550 2009 
Q 550 2706 781 3412 
Q 1013 4119 1484 4856 
L 1984 4856 
z
" transform="scale(0.015625)"/>
       <path id="DejaVuSans-73" d="M 2834 3397 
L 2834 2853 
Q 2591 2978 2328 3040 
Q 2066 3103 1784 3103 
Q 1356 3103 1142 2972 
Q 928 2841 928 2578 
Q 928 2378 1081 2264 
Q 1234 2150 1697 2047 
L 1894 2003 
Q 2506 1872 2764 1633 
Q 3022 1394 3022 966 
Q 3022 478 2636 193 
Q 2250 -91 1575 -91 
Q 1294 -91 989 -36 
Q 684 19 347 128 
L 347 722 
Q 666 556 975 473 
Q 1284 391 1588 391 
Q 1994 391 2212 530 
Q 2431 669 2431 922 
Q 2431 1156 2273 1281 
Q 2116 1406 1581 1522 
L 1381 1569 
Q 847 1681 609 1914 
Q 372 2147 372 2553 
Q 372 3047 722 3315 
Q 1072 3584 1716 3584 
Q 2034 3584 2315 3537 
Q 2597 3491 2834 3397 
z
" transform="scale(0.015625)"/>
       <path id="DejaVuSans-29" d="M 513 4856 
L 1013 4856 
Q 1481 4119 1714 3412 
Q 1947 2706 1947 2009 
Q 1947 1309 1714 600 
Q 1481 -109 1013 -844 
L 513 -844 
Q 928 -128 1133 580 
Q 1338 1288 1338 2009 
Q 1338 2731 1133 3434 
Q 928 4138 513 4856 
z
" transform="scale(0.015625)"/>
      </defs>
      <use xlink:href="#DejaVuSans-54"/>
      <use xlink:href="#DejaVuSans-69" x="57.958984"/>
      <use xlink:href="#DejaVuSans-6d" x="85.742188"/>
      <use xlink:href="#DejaVuSans-65" x="183.154297"/>
      <use xlink:href="#DejaVuSans-20" x="244.677734"/>
      <use xlink:href="#DejaVuSans-28" x="276.464844"/>
      <use xlink:href="#DejaVuSans-73" x="315.478516"/>
      <use xlink:href="#DejaVuSans-29" x="367.578125"/>
     </g>
    </g>
   </g>
   <g id="matplotlib.axis_2">
    <g id="ytick_1">
     <g id="line2d_9">
      <defs>
       <path id="m3094e24e2f" d="M 0 0 
L -3.5 0 
" style="stroke: #000000; stroke-width: 0.8"/>
      </defs>
      <g>
       <use xlink:href="#m3094e24e2f" x="63" y="242.04481" style="stroke: #000000; stroke-width: 0.8"/>
      </g>
     </g>
     <g id="text_10">
      <!-- 0.000 -->
      <g transform="translate(27.371875 245.844028) scale(0.1 -0.1)">
       <defs>
        <path id="DejaVuSans-2e" d="M 684 794 
L 1344 794 
L 1344 0 
L 684 0 
L 684 794 
z
" transform="scale(0.015625)"/>
       </defs>
       <use xlink:href="#DejaVuSans-30"/>
       <use xlink:href="#DejaVuSans-2e" x="63.623047"/>
       <use xlink:href="#DejaVuSans-30" x="95.410156"/>
       <use xlink:href="#DejaVuSans-30" x="159.033203"/>
       <use xlink:href="#DejaVuSans-30" x="222.65625"/>
      </g>
     </g>
    </g>
    <g id="ytick_2">
     <g id="line2d_10">
      <g>
       <use xlink:href="#m3094e24e2f" x="63" y="216.846288" style="stroke: #000000; stroke-width: 0.8"/>
      </g>
     </g>
     <g id="text_11">
      <!-- 0.005 -->
      <g transform="translate(27.371875 220.645507) scale(0.1 -0.1)">
       <defs>
        <path id="DejaVuSans-35" d="M 691 4666 
L 3169 4666 
L 3169 4134 
L 1269 4134 
L 1269 2991 
Q 1406 3038 1543 3061 
Q 1681 3084 1819 3084 
Q 2600 3084 3056 2656 
Q 3513 2228 3513 1497 
Q 3513 744 3044 326 
Q 2575 -91 1722 -91 
Q 1428 -91 1123 -41 
Q 819 9 494 109 
L 494 744 
Q 775 591 1075 516 
Q 1375 441 1709 441 
Q 2250 441 2565 725 
Q 2881 1009 2881 1497 
Q 2881 1984 2565 2268 
Q 2250 2553 1709 2553 
Q 1456 2553 1204 2497 
Q 953 2441 691 2322 
L 691 4666 
z
" transform="scale(0.015625)"/>
       </defs>
       <use xlink:href="#DejaVuSans-30"/>
       <use xlink:href="#DejaVuSans-2e" x="63.623047"/>
       <use xlink:href="#DejaVuSans-30" x="95.410156"/>
       <use xlink:href="#DejaVuSans-30" x="159.033203"/>
       <use xlink:href="#DejaVuSans-35" x="222.65625"/>
      </g>
     </g>
    </g>
    <g id="ytick_3">
     <g id="line2d_11">
      <g>
       <use xlink:href="#m3094e24e2f" x="63" y="191.647767" style="stroke: #000000; stroke-width: 0.8"/>
      </g>
     </g>
     <g id="text_12">
      <!-- 0.010 -->
      <g transform="translate(27.371875 195.446986) scale(0.1 -0.1)">
       <use xlink:href="#DejaVuSans-30"/>
       <use xlink:href="#DejaVuSans-2e" x="63.623047"/>
       <use xlink:href="#DejaVuSans-30" x="95.410156"/>
       <use xlink:href="#DejaVuSans-31" x="159.033203"/>
       <use xlink:href="#DejaVuSans-30" x="222.65625"/>
      </g>
     </g>
    </g>
    <g id="ytick_4">
     <g id="line2d_12">
      <g>
       <use xlink:href="#m3094e24e2f" x="63" y="166.449246" style="stroke: #000000; stroke-width: 0.8"/>
      </g>
     </g>
     <g id="text_13">
      <!-- 0.015 -->
      <g transform="translate(27.371875 170.248465) scale(0.1 -0.1)">
       <use xlink:href="#DejaVuSans-30"/>
       <use xlink:href="#DejaVuSans-2e" x="63.623047"/>
       <use xlink:href="#DejaVuSans-30" x="95.410156"/>
       <use xlink:href="#DejaVuSans-31" x="159.033203"/>
       <use xlink:href="#DejaVuSans-35" x="222.65625"/>
      </g>
     </g>
    </g>
    <g id="ytick_5">
     <g id="line2d_13">
      <g>
       <use xlink:href="#m3094e24e2f" x="63" y="141.250725" style="stroke: #000000; stroke-width: 0.8"/>
      </g>
     </g>
     <g id="text_14">
      <!-- 0.020 -->
      <g transform="translate(27.371875 145.049943) scale(0.1 -0.1)">
       <use xlink:href="#DejaVuSans-30"/>
       <use xlink:href="#DejaVuSans-2e" x="63.623047"/>
       <use xlink:href="#DejaVuSans-30" x="95.410156"/>
       <use xlink:href="#DejaVuSans-32" x="159.033203"/>
       <use xlink:href="#DejaVuSans-30" x="222.65625"/>
      </g>
     </g>
    </g>
    <g id="ytick_6">
     <g id="line2d_14">
      <g>
       <use xlink:href="#m3094e24e2f" x="63" y="116.052203" style="stroke: #000000; stroke-width: 0.8"/>
      </g>
     </g>
     <g id="text_15">
      <!-- 0.025 -->
      <g transform="translate(27.371875 119.851422) scale(0.1 -0.1)">
       <use xlink:href="#DejaVuSans-30"/>
       <use xlink:href="#DejaVuSans-2e" x="63.623047"/>
       <use xlink:href="#DejaVuSans-30" x="95.410156"/>
       <use xlink:href="#DejaVuSans-32" x="159.033203"/>
       <use xlink:href="#DejaVuSans-35" x="222.65625"/>
      </g>
     </g>
    </g>
    <g id="ytick_7">
     <g id="line2d_15">
      <g>
       <use xlink:href="#m3094e24e2f" x="63" y="90.853682" style="stroke: #000000; stroke-width: 0.8"/>
      </g>
     </g>
     <g id="text_16">
      <!-- 0.030 -->
      <g transform="translate(27.371875 94.652901) scale(0.1 -0.1)">
       <defs>
        <path id="DejaVuSans-33" d="M 2597 2516 
Q 3050 2419 3304 2112 
Q 3559 1806 3559 1356 
Q 3559 666 3084 287 
Q 2609 -91 1734 -91 
Q 1441 -91 1130 -33 
Q 819 25 488 141 
L 488 750 
Q 750 597 1062 519 
Q 1375 441 1716 441 
Q 2309 441 2620 675 
Q 2931 909 2931 1356 
Q 2931 1769 2642 2001 
Q 2353 2234 1838 2234 
L 1294 2234 
L 1294 2753 
L 1863 2753 
Q 2328 2753 2575 2939 
Q 2822 3125 2822 3475 
Q 2822 3834 2567 4026 
Q 2313 4219 1838 4219 
Q 1578 4219 1281 4162 
Q 984 4106 628 3988 
L 628 4550 
Q 988 4650 1302 4700 
Q 1616 4750 1894 4750 
Q 2613 4750 3031 4423 
Q 3450 4097 3450 3541 
Q 3450 3153 3228 2886 
Q 3006 2619 2597 2516 
z
" transform="scale(0.015625)"/>
       </defs>
       <use xlink:href="#DejaVuSans-30"/>
       <use xlink:href="#DejaVuSans-2e" x="63.623047"/>
       <use xlink:href="#DejaVuSans-30" x="95.410156"/>
       <use xlink:href="#DejaVuSans-33" x="159.033203"/>
       <use xlink:href="#DejaVuSans-30" x="222.65625"/>
      </g>
     </g>
    </g>
    <g id="ytick_8">
     <g id="line2d_16">
      <g>
       <use xlink:href="#m3094e24e2f" x="63" y="65.655161" style="stroke: #000000; stroke-width: 0.8"/>
      </g>
     </g>
     <g id="text_17">
      <!-- 0.035 -->
      <g transform="translate(27.371875 69.45438) scale(0.1 -0.1)">
       <use xlink:href="#DejaVuSans-30"/>
       <use xlink:href="#DejaVuSans-2e" x="63.623047"/>
       <use xlink:href="#DejaVuSans-30" x="95.410156"/>
       <use xlink:href="#DejaVuSans-33" x="159.033203"/>
       <use xlink:href="#DejaVuSans-35" x="222.65625"/>
      </g>
     </g>
    </g>
    <g id="ytick_9">
     <g id="line2d_17">
      <g>
       <use xlink:href="#m3094e24e2f" x="63" y="40.45664" style="stroke: #000000; stroke-width: 0.8"/>
      </g>
     </g>
     <g id="text_18">
      <!-- 0.040 -->
      <g transform="translate(27.371875 44.255858) scale(0.1 -0.1)">
       <use xlink:href="#DejaVuSans-30"/>
       <use xlink:href="#DejaVuSans-2e" x="63.623047"/>
       <use xlink:href="#DejaVuSans-30" x="95.410156"/>
       <use xlink:href="#DejaVuSans-34" x="159.033203"/>
       <use xlink:href="#DejaVuSans-30" x="222.65625"/>
      </g>
     </g>
    </g>
    <g id="text_19">
     <!-- Concentration (mol/m$^3$) -->
     <g transform="translate(20.252344 232.005) rotate(-90) scale(0.15 -0.15)">
      <defs>
       <path id="DejaVuSans-43" d="M 4122 4306 
L 4122 3641 
Q 3803 3938 3442 4084 
Q 3081 4231 2675 4231 
Q 1875 4231 1450 3742 
Q 1025 3253 1025 2328 
Q 1025 1406 1450 917 
Q 1875 428 2675 428 
Q 3081 428 3442 575 
Q 3803 722 4122 1019 
L 4122 359 
Q 3791 134 3420 21 
Q 3050 -91 2638 -91 
Q 1578 -91 968 557 
Q 359 1206 359 2328 
Q 359 3453 968 4101 
Q 1578 4750 2638 4750 
Q 3056 4750 3426 4639 
Q 3797 4528 4122 4306 
z
" transform="scale(0.015625)"/>
       <path id="DejaVuSans-6f" d="M 1959 3097 
Q 1497 3097 1228 2736 
Q 959 2375 959 1747 
Q 959 1119 1226 758 
Q 1494 397 1959 397 
Q 2419 397 2687 759 
Q 2956 1122 2956 1747 
Q 2956 2369 2687 2733 
Q 2419 3097 1959 3097 
z
M 1959 3584 
Q 2709 3584 3137 3096 
Q 3566 2609 3566 1747 
Q 3566 888 3137 398 
Q 2709 -91 1959 -91 
Q 1206 -91 779 398 
Q 353 888 353 1747 
Q 353 2609 779 3096 
Q 1206 3584 1959 3584 
z
" transform="scale(0.015625)"/>
       <path id="DejaVuSans-6e" d="M 3513 2113 
L 3513 0 
L 2938 0 
L 2938 2094 
Q 2938 2591 2744 2837 
Q 2550 3084 2163 3084 
Q 1697 3084 1428 2787 
Q 1159 2491 1159 1978 
L 1159 0 
L 581 0 
L 581 3500 
L 1159 3500 
L 1159 2956 
Q 1366 3272 1645 3428 
Q 1925 3584 2291 3584 
Q 2894 3584 3203 3211 
Q 3513 2838 3513 2113 
z
" transform="scale(0.015625)"/>
       <path id="DejaVuSans-63" d="M 3122 3366 
L 3122 2828 
Q 2878 2963 2633 3030 
Q 2388 3097 2138 3097 
Q 1578 3097 1268 2742 
Q 959 2388 959 1747 
Q 959 1106 1268 751 
Q 1578 397 2138 397 
Q 2388 397 2633 464 
Q 2878 531 3122 666 
L 3122 134 
Q 2881 22 2623 -34 
Q 2366 -91 2075 -91 
Q 1284 -91 818 406 
Q 353 903 353 1747 
Q 353 2603 823 3093 
Q 1294 3584 2113 3584 
Q 2378 3584 2631 3529 
Q 2884 3475 3122 3366 
z
" transform="scale(0.015625)"/>
       <path id="DejaVuSans-74" d="M 1172 4494 
L 1172 3500 
L 2356 3500 
L 2356 3053 
L 1172 3053 
L 1172 1153 
Q 1172 725 1289 603 
Q 1406 481 1766 481 
L 2356 481 
L 2356 0 
L 1766 0 
Q 1100 0 847 248 
Q 594 497 594 1153 
L 594 3053 
L 172 3053 
L 172 3500 
L 594 3500 
L 594 4494 
L 1172 4494 
z
" transform="scale(0.015625)"/>
       <path id="DejaVuSans-72" d="M 2631 2963 
Q 2534 3019 2420 3045 
Q 2306 3072 2169 3072 
Q 1681 3072 1420 2755 
Q 1159 2438 1159 1844 
L 1159 0 
L 581 0 
L 581 3500 
L 1159 3500 
L 1159 2956 
Q 1341 3275 1631 3429 
Q 1922 3584 2338 3584 
Q 2397 3584 2469 3576 
Q 2541 3569 2628 3553 
L 2631 2963 
z
" transform="scale(0.015625)"/>
       <path id="DejaVuSans-61" d="M 2194 1759 
Q 1497 1759 1228 1600 
Q 959 1441 959 1056 
Q 959 750 1161 570 
Q 1363 391 1709 391 
Q 2188 391 2477 730 
Q 2766 1069 2766 1631 
L 2766 1759 
L 2194 1759 
z
M 3341 1997 
L 3341 0 
L 2766 0 
L 2766 531 
Q 2569 213 2275 61 
Q 1981 -91 1556 -91 
Q 1019 -91 701 211 
Q 384 513 384 1019 
Q 384 1609 779 1909 
Q 1175 2209 1959 2209 
L 2766 2209 
L 2766 2266 
Q 2766 2663 2505 2880 
Q 2244 3097 1772 3097 
Q 1472 3097 1187 3025 
Q 903 2953 641 2809 
L 641 3341 
Q 956 3463 1253 3523 
Q 1550 3584 1831 3584 
Q 2591 3584 2966 3190 
Q 3341 2797 3341 1997 
z
" transform="scale(0.015625)"/>
       <path id="DejaVuSans-6c" d="M 603 4863 
L 1178 4863 
L 1178 0 
L 603 0 
L 603 4863 
z
" transform="scale(0.015625)"/>
       <path id="DejaVuSans-2f" d="M 1625 4666 
L 2156 4666 
L 531 -594 
L 0 -594 
L 1625 4666 
z
" transform="scale(0.015625)"/>
      </defs>
      <use xlink:href="#DejaVuSans-43" transform="translate(0 0.765625)"/>
      <use xlink:href="#DejaVuSans-6f" transform="translate(69.824219 0.765625)"/>
      <use xlink:href="#DejaVuSans-6e" transform="translate(131.005859 0.765625)"/>
      <use xlink:href="#DejaVuSans-63" transform="translate(194.384766 0.765625)"/>
      <use xlink:href="#DejaVuSans-65" transform="translate(249.365234 0.765625)"/>
      <use xlink:href="#DejaVuSans-6e" transform="translate(310.888672 0.765625)"/>
      <use xlink:href="#DejaVuSans-74" transform="translate(374.267578 0.765625)"/>
      <use xlink:href="#DejaVuSans-72" transform="translate(413.476562 0.765625)"/>
      <use xlink:href="#DejaVuSans-61" transform="translate(454.589844 0.765625)"/>
      <use xlink:href="#DejaVuSans-74" transform="translate(515.869141 0.765625)"/>
      <use xlink:href="#DejaVuSans-69" transform="translate(555.078125 0.765625)"/>
      <use xlink:href="#DejaVuSans-6f" transform="translate(582.861328 0.765625)"/>
      <use xlink:href="#DejaVuSans-6e" transform="translate(644.042969 0.765625)"/>
      <use xlink:href="#DejaVuSans-20" transform="translate(707.421875 0.765625)"/>
      <use xlink:href="#DejaVuSans-28" transform="translate(739.208984 0.765625)"/>
      <use xlink:href="#DejaVuSans-6d" transform="translate(778.222656 0.765625)"/>
      <use xlink:href="#DejaVuSans-6f" transform="translate(875.634766 0.765625)"/>
      <use xlink:href="#DejaVuSans-6c" transform="translate(936.816406 0.765625)"/>
      <use xlink:href="#DejaVuSans-2f" transform="translate(964.599609 0.765625)"/>
      <use xlink:href="#DejaVuSans-6d" transform="translate(998.291016 0.765625)"/>
      <use xlink:href="#DejaVuSans-33" transform="translate(1096.660156 39.046875) scale(0.7)"/>
      <use xlink:href="#DejaVuSans-29" transform="translate(1143.930664 0.765625)"/>
     </g>
    </g>
   </g>
   <g id="line2d_18">
    <path d="M 80.754545 242.04481 
L 115.316727 242.010097 
L 117.920727 241.834754 
L 120.051273 241.48314 
L 122.181818 240.917049 
L 124.785818 239.973877 
L 128.1 238.501328 
L 133.781455 235.678089 
L 142.303636 231.493055 
L 149.642182 228.160861 
L 166.213091 220.732023 
L 172.841455 217.453329 
L 179.469818 213.921083 
L 186.334909 210.001343 
L 193.673455 205.547073 
L 201.958909 200.2499 
L 213.321818 192.691023 
L 228.945818 182.315161 
L 236.047636 177.882026 
L 241.729091 174.588153 
L 246.700364 171.953231 
L 251.198182 169.812342 
L 255.459273 168.031904 
L 259.483636 166.599497 
L 263.271273 165.494152 
L 266.822182 164.688086 
L 270.373091 164.118139 
L 273.687273 163.808972 
L 277.001455 163.72229 
L 280.315636 163.863394 
L 283.629818 164.235578 
L 286.944 164.84003 
L 290.258182 165.675759 
L 293.572364 166.739567 
L 297.123273 168.126266 
L 300.674182 169.759111 
L 304.461818 171.758303 
L 308.249455 174.005483 
L 312.510545 176.803355 
L 317.008364 180.029589 
L 322.216364 184.056646 
L 328.371273 189.118878 
L 337.366909 196.844107 
L 349.44 207.169812 
L 355.831636 212.339378 
L 361.276364 216.472034 
L 366.247636 219.981066 
L 370.982182 223.061369 
L 375.48 225.7362 
L 379.977818 228.158805 
L 384.475636 230.3283 
L 388.973455 232.249311 
L 393.471273 233.931209 
L 398.205818 235.457906 
L 402.940364 236.753313 
L 407.911636 237.888002 
L 413.356364 238.896439 
L 419.274545 239.754401 
L 425.666182 240.450937 
L 433.004727 241.018926 
L 435.845455 241.185814 
L 435.845455 241.185814 
" clip-path="url(#pdc458ff766)" style="fill: none; stroke-dasharray: 5.55,2.4; stroke-dashoffset: 0; stroke: #008000; stroke-width: 1.5"/>
   </g>
   <g id="line2d_19">
    <path d="M 80.754545 242.04481 
L 116.737091 241.945915 
L 119.104364 241.667476 
L 121.234909 241.195032 
L 123.602182 240.432767 
L 126.442909 239.266576 
L 130.467273 237.347039 
L 144.434182 230.502082 
L 152.956364 226.706926 
L 164.319273 221.625106 
L 171.184364 218.296345 
L 177.812727 214.827974 
L 184.441091 211.107927 
L 191.542909 206.865847 
L 199.591636 201.78772 
L 209.534182 195.233199 
L 230.602909 181.255777 
L 237.231273 177.174284 
L 242.676 174.066645 
L 247.647273 171.481861 
L 252.145091 169.394613 
L 256.169455 167.760699 
L 259.957091 166.447938 
L 263.744727 165.373377 
L 267.295636 164.598082 
L 270.846545 164.060496 
L 274.160727 163.782716 
L 277.474909 163.728296 
L 280.789091 163.902259 
L 284.103273 164.307603 
L 287.417455 164.945207 
L 290.731636 165.813768 
L 294.045818 166.909771 
L 297.596727 168.329898 
L 301.147636 169.994702 
L 304.935273 172.025955 
L 308.959636 174.45267 
L 313.220727 177.295103 
L 317.718545 180.561688 
L 322.926545 184.626058 
L 329.318182 189.918939 
L 339.734182 198.896349 
L 349.676727 207.366282 
L 356.068364 212.524698 
L 361.513091 216.645108 
L 366.484364 220.141292 
L 371.218909 223.208328 
L 375.716727 225.870007 
L 380.214545 228.279264 
L 384.712364 230.435523 
L 389.210182 232.343681 
L 393.708 234.013332 
L 398.442545 235.527992 
L 403.177091 236.812382 
L 408.148364 237.936703 
L 413.593091 238.935243 
L 419.511273 239.784154 
L 425.902909 240.47279 
L 433.241455 241.033841 
L 435.845455 241.185813 
L 435.845455 241.185813 
" clip-path="url(#pdc458ff766)" style="fill: none; stroke: #bf00bf; stroke-width: 1.5; stroke-linecap: square"/>
   </g>
   <g id="line2d_20">
    <path d="M 80.754545 242.04481 
L 82.885091 242.026928 
L 83.832 241.896646 
L 88.566545 242.078378 
L 107.741455 241.96221 
L 108.688364 241.720405 
L 109.398545 241.278744 
L 110.108727 240.503475 
L 110.818909 239.337567 
L 111.765818 237.182894 
L 112.949455 233.728541 
L 115.553455 225.005235 
L 117.447273 219.069411 
L 119.104364 214.571616 
L 120.761455 210.720892 
L 122.418545 207.399618 
L 124.549091 203.673568 
L 127.389818 199.236029 
L 143.250545 175.260994 
L 151.536 161.875246 
L 159.584727 148.994812 
L 164.082545 142.214236 
L 167.633455 137.23598 
L 170.710909 133.273292 
L 173.551636 129.964378 
L 176.155636 127.269117 
L 178.522909 125.131055 
L 180.653455 123.483003 
L 182.784 122.114525 
L 184.677818 121.145426 
L 186.571636 120.419205 
L 188.465455 119.944181 
L 190.122545 119.740021 
L 191.779636 119.737058 
L 193.436727 119.93792 
L 195.093818 120.344212 
L 196.750909 120.956486 
L 198.644727 121.907717 
L 200.538545 123.124697 
L 202.432364 124.602982 
L 204.562909 126.57044 
L 206.693455 128.848742 
L 209.060727 131.726824 
L 211.428 134.946439 
L 214.032 138.849124 
L 217.109455 143.893154 
L 220.423636 149.764455 
L 224.448 157.359969 
L 230.366182 169.069079 
L 239.361818 186.850441 
L 243.859636 195.217034 
L 247.647273 201.800852 
L 250.961455 207.146122 
L 254.275636 212.063111 
L 257.353091 216.224869 
L 260.193818 219.713928 
L 263.034545 222.865469 
L 265.875273 225.686623 
L 268.716 228.189671 
L 271.556727 230.391074 
L 274.397455 232.31048 
L 277.238182 233.969762 
L 280.315636 235.500699 
L 283.393091 236.783742 
L 286.707273 237.922473 
L 290.258182 238.902536 
L 294.045818 239.719269 
L 298.306909 240.410138 
L 303.278182 240.98093 
L 309.196364 241.422589 
L 316.534909 241.736372 
L 326.950909 241.938238 
L 345.178909 242.030868 
L 422.588727 242.044809 
L 435.845455 242.044809 
L 435.845455 242.044809 
" clip-path="url(#pdc458ff766)" style="fill: none; stroke-dasharray: 5.55,2.4; stroke-dashoffset: 0; stroke: #ff0000; stroke-width: 1.5"/>
   </g>
   <g id="line2d_21">
    <path d="M 80.754545 242.04481 
L 107.978182 241.935592 
L 108.688364 241.724522 
L 109.398545 241.279989 
L 110.108727 240.504246 
L 110.818909 239.33928 
L 111.765818 237.186127 
L 112.949455 233.732628 
L 115.553455 225.008352 
L 117.447273 219.071403 
L 119.104364 214.572839 
L 120.761455 210.721569 
L 122.418545 207.399933 
L 124.549091 203.67361 
L 127.389818 199.235904 
L 143.250545 175.260745 
L 151.536 161.874957 
L 159.584727 148.994477 
L 164.082545 142.213876 
L 167.633455 137.235602 
L 170.710909 133.272902 
L 173.551636 129.963977 
L 176.155636 127.268708 
L 178.522909 125.13064 
L 180.653455 123.482584 
L 182.784 122.114103 
L 184.677818 121.145002 
L 186.571636 120.418781 
L 188.465455 119.943758 
L 190.122545 119.7396 
L 191.779636 119.736639 
L 193.436727 119.937504 
L 195.093818 120.343799 
L 196.750909 120.956078 
L 198.644727 121.907314 
L 200.538545 123.124301 
L 202.432364 124.602593 
L 204.562909 126.570061 
L 206.693455 128.848374 
L 209.060727 131.726468 
L 211.428 134.946096 
L 214.032 138.848797 
L 217.109455 143.892846 
L 220.423636 149.764168 
L 224.448 157.35971 
L 230.366182 169.06886 
L 239.361818 186.85028 
L 243.859636 195.216899 
L 247.647273 201.800737 
L 250.961455 207.146024 
L 254.275636 212.063027 
L 257.353091 216.224798 
L 260.193818 219.713866 
L 263.034545 222.865417 
L 265.875273 225.686578 
L 268.716 228.189633 
L 271.556727 230.391043 
L 274.397455 232.310454 
L 277.238182 233.969741 
L 280.315636 235.500682 
L 283.393091 236.783728 
L 286.707273 237.922462 
L 290.258182 238.902527 
L 294.045818 239.719263 
L 298.306909 240.410133 
L 303.278182 240.980928 
L 309.196364 241.422587 
L 316.534909 241.736371 
L 326.950909 241.938238 
L 345.178909 242.030868 
L 422.588727 242.044809 
L 435.845455 242.044809 
L 435.845455 242.044809 
" clip-path="url(#pdc458ff766)" style="fill: none; stroke: #00bfbf; stroke-width: 1.5; stroke-linecap: square"/>
   </g>
   <g id="line2d_22">
    <path d="M 80.754545 242.04481 
L 81.464727 242.017913 
L 82.411636 242.084411 
L 83.358545 242.09832 
L 84.542182 241.253081 
L 85.252364 240.09635 
L 86.909455 236.458115 
L 88.093091 234.159058 
L 89.276727 232.373841 
L 90.460364 231.039214 
L 91.644 230.05177 
L 93.064364 229.19939 
L 94.484727 228.602169 
L 96.378545 228.069917 
L 98.745818 227.670394 
L 101.823273 227.399873 
L 102.06 227.386484 
L 102.296727 225.808328 
L 103.243636 215.020664 
L 104.427273 198.57291 
L 109.398545 125.420671 
L 110.818909 108.693316 
L 112.239273 94.530292 
L 113.659636 82.786018 
L 114.843273 74.647859 
L 116.026909 67.824554 
L 117.210545 62.154638 
L 118.394182 57.49341 
L 119.577818 53.714111 
L 120.761455 50.707414 
L 121.945091 48.380032 
L 122.892 46.95365 
L 123.838909 45.87638 
L 124.785818 45.117801 
L 125.732727 44.651296 
L 126.679636 44.45354 
L 127.626545 44.504055 
L 128.573455 44.784817 
L 129.520364 45.279913 
L 130.704 46.17885 
L 131.887636 47.366532 
L 133.308 49.143288 
L 134.728364 51.273566 
L 136.385455 54.168492 
L 138.279273 57.969065 
L 140.409818 62.808991 
L 142.777091 68.806176 
L 145.381091 76.052486 
L 148.458545 85.339839 
L 152.009455 96.797526 
L 156.980727 113.659143 
L 167.16 148.376577 
L 171.184364 161.260008 
L 174.735273 171.923416 
L 178.049455 181.170669 
L 181.126909 189.088347 
L 183.967636 195.796926 
L 186.808364 201.91878 
L 189.412364 207.016698 
L 192.016364 211.632844 
L 194.620364 215.78313 
L 197.224364 219.488658 
L 199.591636 222.492454 
L 201.958909 225.170416 
L 204.326182 227.544899 
L 206.930182 229.833921 
L 209.534182 231.814816 
L 212.138182 233.518339 
L 214.978909 235.095406 
L 217.819636 236.414682 
L 220.897091 237.59276 
L 224.211273 238.613849 
L 227.762182 239.472075 
L 231.786545 240.208127 
L 236.284364 240.801184 
L 241.729091 241.283192 
L 248.357455 241.636428 
L 257.353091 241.877138 
L 271.556727 242.007516 
L 308.012727 242.044319 
L 435.845455 242.04481 
L 435.845455 242.04481 
" clip-path="url(#pdc458ff766)" style="fill: none; stroke-dasharray: 5.55,2.4; stroke-dashoffset: 0; stroke: #0000ff; stroke-width: 1.5"/>
   </g>
   <g id="line2d_23">
    <path d="M 80.754545 242.04481 
L 83.595273 241.955823 
L 84.068727 241.735946 
L 84.542182 241.276736 
L 85.252364 240.098322 
L 88.803273 233.004038 
L 89.986909 231.505111 
L 91.170545 230.395069 
L 92.354182 229.574999 
L 93.774545 228.865815 
L 95.431636 228.299948 
L 97.562182 227.838972 
L 100.166182 227.519009 
L 102.06 227.386291 
L 102.296727 225.807706 
L 103.243636 215.021187 
L 104.427273 198.575062 
L 109.398545 125.424719 
L 110.818909 108.696341 
L 112.239273 94.532465 
L 113.659636 82.787834 
L 114.843273 74.649689 
L 116.026909 67.826539 
L 117.210545 62.156809 
L 118.394182 57.495745 
L 119.577818 53.716569 
L 120.761455 50.709958 
L 121.945091 48.382634 
L 122.892 46.956283 
L 123.838909 45.879031 
L 124.785818 45.120463 
L 125.732727 44.653962 
L 126.679636 44.456205 
L 127.626545 44.506715 
L 128.573455 44.787468 
L 129.520364 45.282553 
L 130.704 46.181473 
L 131.887636 47.369133 
L 133.308 49.145861 
L 134.728364 51.276106 
L 136.385455 54.17099 
L 138.279273 57.971509 
L 140.409818 62.811367 
L 142.777091 68.80847 
L 145.381091 76.054682 
L 148.458545 85.341911 
L 152.009455 96.799446 
L 156.980727 113.660841 
L 167.16 148.377822 
L 171.184364 161.261084 
L 174.735273 171.924353 
L 178.049455 181.171484 
L 181.126909 189.089058 
L 183.967636 195.797549 
L 186.808364 201.919322 
L 189.412364 207.017172 
L 192.016364 211.633257 
L 194.620364 215.783488 
L 197.224364 219.488965 
L 199.591636 222.492721 
L 201.958909 225.170647 
L 204.326182 227.545098 
L 206.930182 229.834089 
L 209.534182 231.814957 
L 212.138182 233.518457 
L 214.978909 235.095503 
L 217.819636 236.41476 
L 220.897091 237.592821 
L 224.211273 238.613897 
L 227.762182 239.472111 
L 231.786545 240.208153 
L 236.284364 240.801201 
L 241.729091 241.283203 
L 248.357455 241.636434 
L 257.353091 241.877141 
L 271.556727 242.007516 
L 308.012727 242.044319 
L 435.845455 242.04481 
L 435.845455 242.04481 
" clip-path="url(#pdc458ff766)" style="fill: none; stroke: #bfbf00; stroke-width: 1.5; stroke-linecap: square"/>
   </g>
   <g id="patch_3">
    <path d="M 63 252 
L 63 34.56 
" style="fill: none; stroke: #000000; stroke-width: 0.8; stroke-linejoin: miter; stroke-linecap: square"/>
   </g>
   <g id="patch_4">
    <path d="M 453.6 252 
L 453.6 34.56 
" style="fill: none; stroke: #000000; stroke-width: 0.8; stroke-linejoin: miter; stroke-linecap: square"/>
   </g>
   <g id="patch_5">
    <path d="M 63 252 
L 453.6 252 
" style="fill: none; stroke: #000000; stroke-width: 0.8; stroke-linejoin: miter; stroke-linecap: square"/>
   </g>
   <g id="patch_6">
    <path d="M 63 34.56 
L 453.6 34.56 
" style="fill: none; stroke: #000000; stroke-width: 0.8; stroke-linejoin: miter; stroke-linecap: square"/>
   </g>
   <g id="legend_1">
    <g id="patch_7">
     <path d="M 364 145.16 
L 446.6 145.16 
Q 448.6 145.16 448.6 143.16 
L 448.6 41.56 
Q 448.6 39.56 446.6 39.56 
L 364 39.56 
Q 362 39.56 362 41.56 
L 362 143.16 
Q 362 145.16 364 145.16 
z
" style="fill: #ffffff; opacity: 0.8; stroke: #cccccc; stroke-linejoin: miter"/>
    </g>
    <g id="line2d_24">
     <path d="M 366 49.26 
L 376 49.26 
L 386 49.26 
" style="fill: none; stroke-dasharray: 5.55,2.4; stroke-dashoffset: 0; stroke: #008000; stroke-width: 1.5"/>
    </g>
    <g id="text_20">
     <!-- $c_1$, $N_e^b$ = 2 -->
     <g transform="translate(394 52.76) scale(0.1 -0.1)">
      <defs>
       <path id="DejaVuSans-Oblique-63" d="M 3431 3366 
L 3316 2797 
Q 3109 2947 2876 3022 
Q 2644 3097 2394 3097 
Q 2119 3097 1870 3000 
Q 1622 2903 1453 2725 
Q 1184 2453 1037 2087 
Q 891 1722 891 1331 
Q 891 859 1127 628 
Q 1363 397 1844 397 
Q 2081 397 2348 469 
Q 2616 541 2906 684 
L 2797 116 
Q 2547 13 2283 -39 
Q 2019 -91 1741 -91 
Q 1044 -91 669 257 
Q 294 606 294 1253 
Q 294 1797 489 2255 
Q 684 2713 1069 3078 
Q 1331 3328 1684 3456 
Q 2038 3584 2456 3584 
Q 2700 3584 2940 3529 
Q 3181 3475 3431 3366 
z
" transform="scale(0.015625)"/>
       <path id="DejaVuSans-2c" d="M 750 794 
L 1409 794 
L 1409 256 
L 897 -744 
L 494 -744 
L 750 256 
L 750 794 
z
" transform="scale(0.015625)"/>
       <path id="DejaVuSans-Oblique-4e" d="M 1081 4666 
L 1931 4666 
L 3219 666 
L 4000 4666 
L 4616 4666 
L 3706 0 
L 2853 0 
L 1569 4025 
L 788 0 
L 172 0 
L 1081 4666 
z
" transform="scale(0.015625)"/>
       <path id="DejaVuSans-Oblique-62" d="M 3169 2138 
Q 3169 2591 2961 2847 
Q 2753 3103 2388 3103 
Q 2122 3103 1889 2973 
Q 1656 2844 1484 2597 
Q 1303 2338 1198 1995 
Q 1094 1653 1094 1313 
Q 1094 881 1298 636 
Q 1503 391 1863 391 
Q 2134 391 2365 517 
Q 2597 644 2772 891 
Q 2950 1147 3059 1487 
Q 3169 1828 3169 2138 
z
M 1381 2969 
Q 1594 3256 1914 3420 
Q 2234 3584 2584 3584 
Q 3122 3584 3439 3221 
Q 3756 2859 3756 2241 
Q 3756 1734 3570 1259 
Q 3384 784 3041 416 
Q 2816 172 2522 40 
Q 2228 -91 1906 -91 
Q 1566 -91 1316 65 
Q 1066 222 909 531 
L 806 0 
L 231 0 
L 1178 4863 
L 1753 4863 
L 1381 2969 
z
" transform="scale(0.015625)"/>
       <path id="DejaVuSans-Oblique-65" d="M 3078 2063 
Q 3088 2113 3092 2166 
Q 3097 2219 3097 2272 
Q 3097 2653 2873 2875 
Q 2650 3097 2266 3097 
Q 1838 3097 1509 2826 
Q 1181 2556 1013 2059 
L 3078 2063 
z
M 3578 1613 
L 903 1613 
Q 884 1494 878 1425 
Q 872 1356 872 1306 
Q 872 872 1139 634 
Q 1406 397 1894 397 
Q 2269 397 2603 481 
Q 2938 566 3225 728 
L 3116 159 
Q 2806 34 2476 -28 
Q 2147 -91 1806 -91 
Q 1078 -91 686 257 
Q 294 606 294 1247 
Q 294 1794 489 2264 
Q 684 2734 1063 3103 
Q 1306 3334 1642 3459 
Q 1978 3584 2356 3584 
Q 2950 3584 3301 3228 
Q 3653 2872 3653 2272 
Q 3653 2128 3634 1964 
Q 3616 1800 3578 1613 
z
" transform="scale(0.015625)"/>
       <path id="DejaVuSans-3d" d="M 678 2906 
L 4684 2906 
L 4684 2381 
L 678 2381 
L 678 2906 
z
M 678 1631 
L 4684 1631 
L 4684 1100 
L 678 1100 
L 678 1631 
z
" transform="scale(0.015625)"/>
      </defs>
      <use xlink:href="#DejaVuSans-Oblique-63" transform="translate(0 0.529687)"/>
      <use xlink:href="#DejaVuSans-31" transform="translate(54.980469 -15.876563) scale(0.7)"/>
      <use xlink:href="#DejaVuSans-2c" transform="translate(102.250977 0.529687)"/>
      <use xlink:href="#DejaVuSans-20" transform="translate(134.038086 0.529687)"/>
      <use xlink:href="#DejaVuSans-Oblique-4e" transform="translate(165.825195 0.529687)"/>
      <use xlink:href="#DejaVuSans-Oblique-62" transform="translate(247.646654 38.810938) scale(0.7)"/>
      <use xlink:href="#DejaVuSans-Oblique-65" transform="translate(240.629883 -26.814063) scale(0.7)"/>
      <use xlink:href="#DejaVuSans-20" transform="translate(294.814622 0.529687)"/>
      <use xlink:href="#DejaVuSans-3d" transform="translate(326.601732 0.529687)"/>
      <use xlink:href="#DejaVuSans-20" transform="translate(410.390794 0.529687)"/>
      <use xlink:href="#DejaVuSans-32" transform="translate(442.177904 0.529687)"/>
     </g>
    </g>
    <g id="line2d_25">
     <path d="M 366 66.36 
L 376 66.36 
L 386 66.36 
" style="fill: none; stroke: #bf00bf; stroke-width: 1.5; stroke-linecap: square"/>
    </g>
    <g id="text_21">
     <!-- $c_1$, $N_e^b$ = 8 -->
     <g transform="translate(394 69.86) scale(0.1 -0.1)">
      <use xlink:href="#DejaVuSans-Oblique-63" transform="translate(0 0.529687)"/>
      <use xlink:href="#DejaVuSans-31" transform="translate(54.980469 -15.876563) scale(0.7)"/>
      <use xlink:href="#DejaVuSans-2c" transform="translate(102.250977 0.529687)"/>
      <use xlink:href="#DejaVuSans-20" transform="translate(134.038086 0.529687)"/>
      <use xlink:href="#DejaVuSans-Oblique-4e" transform="translate(165.825195 0.529687)"/>
      <use xlink:href="#DejaVuSans-Oblique-62" transform="translate(247.646654 38.810938) scale(0.7)"/>
      <use xlink:href="#DejaVuSans-Oblique-65" transform="translate(240.629883 -26.814063) scale(0.7)"/>
      <use xlink:href="#DejaVuSans-20" transform="translate(294.814622 0.529687)"/>
      <use xlink:href="#DejaVuSans-3d" transform="translate(326.601732 0.529687)"/>
      <use xlink:href="#DejaVuSans-20" transform="translate(410.390794 0.529687)"/>
      <use xlink:href="#DejaVuSans-38" transform="translate(442.177904 0.529687)"/>
     </g>
    </g>
    <g id="line2d_26">
     <path d="M 366 83.46 
L 376 83.46 
L 386 83.46 
" style="fill: none; stroke-dasharray: 5.55,2.4; stroke-dashoffset: 0; stroke: #ff0000; stroke-width: 1.5"/>
    </g>
    <g id="text_22">
     <!-- $c_2$, $N_e^b$ = 2 -->
     <g transform="translate(394 86.96) scale(0.1 -0.1)">
      <use xlink:href="#DejaVuSans-Oblique-63" transform="translate(0 0.529687)"/>
      <use xlink:href="#DejaVuSans-32" transform="translate(54.980469 -15.876563) scale(0.7)"/>
      <use xlink:href="#DejaVuSans-2c" transform="translate(102.250977 0.529687)"/>
      <use xlink:href="#DejaVuSans-20" transform="translate(134.038086 0.529687)"/>
      <use xlink:href="#DejaVuSans-Oblique-4e" transform="translate(165.825195 0.529687)"/>
      <use xlink:href="#DejaVuSans-Oblique-62" transform="translate(247.646654 38.810938) scale(0.7)"/>
      <use xlink:href="#DejaVuSans-Oblique-65" transform="translate(240.629883 -26.814063) scale(0.7)"/>
      <use xlink:href="#DejaVuSans-20" transform="translate(294.814622 0.529687)"/>
      <use xlink:href="#DejaVuSans-3d" transform="translate(326.601732 0.529687)"/>
      <use xlink:href="#DejaVuSans-20" transform="translate(410.390794 0.529687)"/>
      <use xlink:href="#DejaVuSans-32" transform="translate(442.177904 0.529687)"/>
     </g>
    </g>
    <g id="line2d_27">
     <path d="M 366 100.56 
L 376 100.56 
L 386 100.56 
" style="fill: none; stroke: #00bfbf; stroke-width: 1.5; stroke-linecap: square"/>
    </g>
    <g id="text_23">
     <!-- $c_2$, $N_e^b$ = 8 -->
     <g transform="translate(394 104.06) scale(0.1 -0.1)">
      <use xlink:href="#DejaVuSans-Oblique-63" transform="translate(0 0.529687)"/>
      <use xlink:href="#DejaVuSans-32" transform="translate(54.980469 -15.876563) scale(0.7)"/>
      <use xlink:href="#DejaVuSans-2c" transform="translate(102.250977 0.529687)"/>
      <use xlink:href="#DejaVuSans-20" transform="translate(134.038086 0.529687)"/>
      <use xlink:href="#DejaVuSans-Oblique-4e" transform="translate(165.825195 0.529687)"/>
      <use xlink:href="#DejaVuSans-Oblique-62" transform="translate(247.646654 38.810938) scale(0.7)"/>
      <use xlink:href="#DejaVuSans-Oblique-65" transform="translate(240.629883 -26.814063) scale(0.7)"/>
      <use xlink:href="#DejaVuSans-20" transform="translate(294.814622 0.529687)"/>
      <use xlink:href="#DejaVuSans-3d" transform="translate(326.601732 0.529687)"/>
      <use xlink:href="#DejaVuSans-20" transform="translate(410.390794 0.529687)"/>
      <use xlink:href="#DejaVuSans-38" transform="translate(442.177904 0.529687)"/>
     </g>
    </g>
    <g id="line2d_28">
     <path d="M 366 117.66 
L 376 117.66 
L 386 117.66 
" style="fill: none; stroke-dasharray: 5.55,2.4; stroke-dashoffset: 0; stroke: #0000ff; stroke-width: 1.5"/>
    </g>
    <g id="text_24">
     <!-- $c_3$, $N_e^b$ = 2 -->
     <g transform="translate(394 121.16) scale(0.1 -0.1)">
      <use xlink:href="#DejaVuSans-Oblique-63" transform="translate(0 0.529687)"/>
      <use xlink:href="#DejaVuSans-33" transform="translate(54.980469 -15.876563) scale(0.7)"/>
      <use xlink:href="#DejaVuSans-2c" transform="translate(102.250977 0.529687)"/>
      <use xlink:href="#DejaVuSans-20" transform="translate(134.038086 0.529687)"/>
      <use xlink:href="#DejaVuSans-Oblique-4e" transform="translate(165.825195 0.529687)"/>
      <use xlink:href="#DejaVuSans-Oblique-62" transform="translate(247.646654 38.810938) scale(0.7)"/>
      <use xlink:href="#DejaVuSans-Oblique-65" transform="translate(240.629883 -26.814063) scale(0.7)"/>
      <use xlink:href="#DejaVuSans-20" transform="translate(294.814622 0.529687)"/>
      <use xlink:href="#DejaVuSans-3d" transform="translate(326.601732 0.529687)"/>
      <use xlink:href="#DejaVuSans-20" transform="translate(410.390794 0.529687)"/>
      <use xlink:href="#DejaVuSans-32" transform="translate(442.177904 0.529687)"/>
     </g>
    </g>
    <g id="line2d_29">
     <path d="M 366 134.76 
L 376 134.76 
L 386 134.76 
" style="fill: none; stroke: #bfbf00; stroke-width: 1.5; stroke-linecap: square"/>
    </g>
    <g id="text_25">
     <!-- $c_3$, $N_e^b$ = 8 -->
     <g transform="translate(394 138.26) scale(0.1 -0.1)">
      <use xlink:href="#DejaVuSans-Oblique-63" transform="translate(0 0.529687)"/>
      <use xlink:href="#DejaVuSans-33" transform="translate(54.980469 -15.876563) scale(0.7)"/>
      <use xlink:href="#DejaVuSans-2c" transform="translate(102.250977 0.529687)"/>
      <use xlink:href="#DejaVuSans-20" transform="translate(134.038086 0.529687)"/>
      <use xlink:href="#DejaVuSans-Oblique-4e" transform="translate(165.825195 0.529687)"/>
      <use xlink:href="#DejaVuSans-Oblique-62" transform="translate(247.646654 38.810938) scale(0.7)"/>
      <use xlink:href="#DejaVuSans-Oblique-65" transform="translate(240.629883 -26.814063) scale(0.7)"/>
      <use xlink:href="#DejaVuSans-20" transform="translate(294.814622 0.529687)"/>
      <use xlink:href="#DejaVuSans-3d" transform="translate(326.601732 0.529687)"/>
      <use xlink:href="#DejaVuSans-20" transform="translate(410.390794 0.529687)"/>
      <use xlink:href="#DejaVuSans-38" transform="translate(442.177904 0.529687)"/>
     </g>
    </g>
   </g>
  </g>
 </g>
 <defs>
  <clipPath id="pdc458ff766">
   <rect x="63" y="34.56" width="390.6" height="217.44"/>
  </clipPath>
 </defs>
</svg>
