<?xml version="1.0" encoding="utf-8" standalone="no"?>
<!DOCTYPE svg PUBLIC "-//W3C//DTD SVG 1.1//EN"
  "http://www.w3.org/Graphics/SVG/1.1/DTD/svg11.dtd">
<svg xmlns:xlink="http://www.w3.org/1999/xlink" width="828pt" height="720pt" viewBox="0 0 828 720" xmlns="http://www.w3.org/2000/svg" version="1.1">
 <metadata>
  <rdf:RDF xmlns:dc="http://purl.org/dc/elements/1.1/" xmlns:cc="http://creativecommons.org/ns#" xmlns:rdf="http://www.w3.org/1999/02/22-rdf-syntax-ns#">
   <cc:Work>
    <dc:type rdf:resource="http://purl.org/dc/dcmitype/StillImage"/>
    <dc:date>2024-09-21T18:22:15.348875</dc:date>
    <dc:format>image/svg+xml</dc:format>
    <dc:creator>
     <cc:Agent>
      <dc:title>Matplotlib v3.9.1, https://matplotlib.org/</dc:title>
     </cc:Agent>
    </dc:creator>
   </cc:Work>
  </rdf:RDF>
 </metadata>
 <defs>
  <style type="text/css">*{stroke-linejoin: round; stroke-linecap: butt}</style>
 </defs>
 <g id="figure_1">
  <g id="patch_1">
   <path d="M 0 720 
L 828 720 
L 828 0 
L 0 0 
z
" style="fill: #ffffff"/>
  </g>
  <g id="axes_1">
   <g id="patch_2">
    <path d="M 103.5 446.4 
L 745.2 446.4 
L 745.2 86.4 
L 103.5 86.4 
z
" style="fill: #ffffff"/>
   </g>
   <g id="matplotlib.axis_1">
    <g id="xtick_1">
     <g id="line2d_1">
      <path d="M 139.199169 446.4 
L 139.199169 86.4 
" clip-path="url(#pb7879bc328)" style="fill: none; stroke-dasharray: 1.85,0.8; stroke-dashoffset: 0; stroke: #b0b0b0; stroke-width: 0.5"/>
     </g>
     <g id="line2d_2">
      <defs>
       <path id="m7575f51a86" d="M 0 0 
L 0 3.5 
" style="stroke: #000000; stroke-width: 0.8"/>
      </defs>
      <g>
       <use xlink:href="#m7575f51a86" x="139.199169" y="446.4" style="stroke: #000000; stroke-width: 0.8"/>
      </g>
     </g>
     <g id="text_1">
      <!-- $\mathdefault{10^{2}}$ -->
      <g transform="translate(119.839169 470.116562) scale(0.22 -0.22)">
       <defs>
        <path id="DejaVuSans-31" d="M 794 531 
L 1825 531 
L 1825 4091 
L 703 3866 
L 703 4441 
L 1819 4666 
L 2450 4666 
L 2450 531 
L 3481 531 
L 3481 0 
L 794 0 
L 794 531 
z
" transform="scale(0.015625)"/>
        <path id="DejaVuSans-30" d="M 2034 4250 
Q 1547 4250 1301 3770 
Q 1056 3291 1056 2328 
Q 1056 1369 1301 889 
Q 1547 409 2034 409 
Q 2525 409 2770 889 
Q 3016 1369 3016 2328 
Q 3016 3291 2770 3770 
Q 2525 4250 2034 4250 
z
M 2034 4750 
Q 2819 4750 3233 4129 
Q 3647 3509 3647 2328 
Q 3647 1150 3233 529 
Q 2819 -91 2034 -91 
Q 1250 -91 836 529 
Q 422 1150 422 2328 
Q 422 3509 836 4129 
Q 1250 4750 2034 4750 
z
" transform="scale(0.015625)"/>
        <path id="DejaVuSans-32" d="M 1228 531 
L 3431 531 
L 3431 0 
L 469 0 
L 469 531 
Q 828 903 1448 1529 
Q 2069 2156 2228 2338 
Q 2531 2678 2651 2914 
Q 2772 3150 2772 3378 
Q 2772 3750 2511 3984 
Q 2250 4219 1831 4219 
Q 1534 4219 1204 4116 
Q 875 4013 500 3803 
L 500 4441 
Q 881 4594 1212 4672 
Q 1544 4750 1819 4750 
Q 2544 4750 2975 4387 
Q 3406 4025 3406 3419 
Q 3406 3131 3298 2873 
Q 3191 2616 2906 2266 
Q 2828 2175 2409 1742 
Q 1991 1309 1228 531 
z
" transform="scale(0.015625)"/>
       </defs>
       <use xlink:href="#DejaVuSans-31" transform="translate(0 0.765625)"/>
       <use xlink:href="#DejaVuSans-30" transform="translate(63.623047 0.765625)"/>
       <use xlink:href="#DejaVuSans-32" transform="translate(128.203125 39.046875) scale(0.7)"/>
      </g>
     </g>
    </g>
    <g id="xtick_2">
     <g id="line2d_3">
      <path d="M 507.582764 446.4 
L 507.582764 86.4 
" clip-path="url(#pb7879bc328)" style="fill: none; stroke-dasharray: 1.85,0.8; stroke-dashoffset: 0; stroke: #b0b0b0; stroke-width: 0.5"/>
     </g>
     <g id="line2d_4">
      <g>
       <use xlink:href="#m7575f51a86" x="507.582764" y="446.4" style="stroke: #000000; stroke-width: 0.8"/>
      </g>
     </g>
     <g id="text_2">
      <!-- $\mathdefault{10^{3}}$ -->
      <g transform="translate(488.222764 470.116562) scale(0.22 -0.22)">
       <defs>
        <path id="DejaVuSans-33" d="M 2597 2516 
Q 3050 2419 3304 2112 
Q 3559 1806 3559 1356 
Q 3559 666 3084 287 
Q 2609 -91 1734 -91 
Q 1441 -91 1130 -33 
Q 819 25 488 141 
L 488 750 
Q 750 597 1062 519 
Q 1375 441 1716 441 
Q 2309 441 2620 675 
Q 2931 909 2931 1356 
Q 2931 1769 2642 2001 
Q 2353 2234 1838 2234 
L 1294 2234 
L 1294 2753 
L 1863 2753 
Q 2328 2753 2575 2939 
Q 2822 3125 2822 3475 
Q 2822 3834 2567 4026 
Q 2313 4219 1838 4219 
Q 1578 4219 1281 4162 
Q 984 4106 628 3988 
L 628 4550 
Q 988 4650 1302 4700 
Q 1616 4750 1894 4750 
Q 2613 4750 3031 4423 
Q 3450 4097 3450 3541 
Q 3450 3153 3228 2886 
Q 3006 2619 2597 2516 
z
" transform="scale(0.015625)"/>
       </defs>
       <use xlink:href="#DejaVuSans-31" transform="translate(0 0.765625)"/>
       <use xlink:href="#DejaVuSans-30" transform="translate(63.623047 0.765625)"/>
       <use xlink:href="#DejaVuSans-33" transform="translate(128.203125 39.046875) scale(0.7)"/>
      </g>
     </g>
    </g>
    <g id="xtick_3">
     <g id="line2d_5">
      <path d="M 122.34286 446.4 
L 122.34286 86.4 
" clip-path="url(#pb7879bc328)" style="fill: none; stroke-dasharray: 1.85,0.8; stroke-dashoffset: 0; stroke: #b0b0b0; stroke-width: 0.5"/>
     </g>
     <g id="line2d_6">
      <defs>
       <path id="m649a49411b" d="M 0 0 
L 0 2 
" style="stroke: #000000; stroke-width: 0.6"/>
      </defs>
      <g>
       <use xlink:href="#m649a49411b" x="122.34286" y="446.4" style="stroke: #000000; stroke-width: 0.6"/>
      </g>
     </g>
    </g>
    <g id="xtick_4">
     <g id="line2d_7">
      <path d="M 250.093681 446.4 
L 250.093681 86.4 
" clip-path="url(#pb7879bc328)" style="fill: none; stroke-dasharray: 1.85,0.8; stroke-dashoffset: 0; stroke: #b0b0b0; stroke-width: 0.5"/>
     </g>
     <g id="line2d_8">
      <g>
       <use xlink:href="#m649a49411b" x="250.093681" y="446.4" style="stroke: #000000; stroke-width: 0.6"/>
      </g>
     </g>
    </g>
    <g id="xtick_5">
     <g id="line2d_9">
      <path d="M 314.962812 446.4 
L 314.962812 86.4 
" clip-path="url(#pb7879bc328)" style="fill: none; stroke-dasharray: 1.85,0.8; stroke-dashoffset: 0; stroke: #b0b0b0; stroke-width: 0.5"/>
     </g>
     <g id="line2d_10">
      <g>
       <use xlink:href="#m649a49411b" x="314.962812" y="446.4" style="stroke: #000000; stroke-width: 0.6"/>
      </g>
     </g>
    </g>
    <g id="xtick_6">
     <g id="line2d_11">
      <path d="M 360.988193 446.4 
L 360.988193 86.4 
" clip-path="url(#pb7879bc328)" style="fill: none; stroke-dasharray: 1.85,0.8; stroke-dashoffset: 0; stroke: #b0b0b0; stroke-width: 0.5"/>
     </g>
     <g id="line2d_12">
      <g>
       <use xlink:href="#m649a49411b" x="360.988193" y="446.4" style="stroke: #000000; stroke-width: 0.6"/>
      </g>
     </g>
    </g>
    <g id="xtick_7">
     <g id="line2d_13">
      <path d="M 396.688252 446.4 
L 396.688252 86.4 
" clip-path="url(#pb7879bc328)" style="fill: none; stroke-dasharray: 1.85,0.8; stroke-dashoffset: 0; stroke: #b0b0b0; stroke-width: 0.5"/>
     </g>
     <g id="line2d_14">
      <g>
       <use xlink:href="#m649a49411b" x="396.688252" y="446.4" style="stroke: #000000; stroke-width: 0.6"/>
      </g>
     </g>
    </g>
    <g id="xtick_8">
     <g id="line2d_15">
      <path d="M 425.857324 446.4 
L 425.857324 86.4 
" clip-path="url(#pb7879bc328)" style="fill: none; stroke-dasharray: 1.85,0.8; stroke-dashoffset: 0; stroke: #b0b0b0; stroke-width: 0.5"/>
     </g>
     <g id="line2d_16">
      <g>
       <use xlink:href="#m649a49411b" x="425.857324" y="446.4" style="stroke: #000000; stroke-width: 0.6"/>
      </g>
     </g>
    </g>
    <g id="xtick_9">
     <g id="line2d_17">
      <path d="M 450.519423 446.4 
L 450.519423 86.4 
" clip-path="url(#pb7879bc328)" style="fill: none; stroke-dasharray: 1.85,0.8; stroke-dashoffset: 0; stroke: #b0b0b0; stroke-width: 0.5"/>
     </g>
     <g id="line2d_18">
      <g>
       <use xlink:href="#m649a49411b" x="450.519423" y="446.4" style="stroke: #000000; stroke-width: 0.6"/>
      </g>
     </g>
    </g>
    <g id="xtick_10">
     <g id="line2d_19">
      <path d="M 471.882705 446.4 
L 471.882705 86.4 
" clip-path="url(#pb7879bc328)" style="fill: none; stroke-dasharray: 1.85,0.8; stroke-dashoffset: 0; stroke: #b0b0b0; stroke-width: 0.5"/>
     </g>
     <g id="line2d_20">
      <g>
       <use xlink:href="#m649a49411b" x="471.882705" y="446.4" style="stroke: #000000; stroke-width: 0.6"/>
      </g>
     </g>
    </g>
    <g id="xtick_11">
     <g id="line2d_21">
      <path d="M 490.726455 446.4 
L 490.726455 86.4 
" clip-path="url(#pb7879bc328)" style="fill: none; stroke-dasharray: 1.85,0.8; stroke-dashoffset: 0; stroke: #b0b0b0; stroke-width: 0.5"/>
     </g>
     <g id="line2d_22">
      <g>
       <use xlink:href="#m649a49411b" x="490.726455" y="446.4" style="stroke: #000000; stroke-width: 0.6"/>
      </g>
     </g>
    </g>
    <g id="xtick_12">
     <g id="line2d_23">
      <path d="M 618.477276 446.4 
L 618.477276 86.4 
" clip-path="url(#pb7879bc328)" style="fill: none; stroke-dasharray: 1.85,0.8; stroke-dashoffset: 0; stroke: #b0b0b0; stroke-width: 0.5"/>
     </g>
     <g id="line2d_24">
      <g>
       <use xlink:href="#m649a49411b" x="618.477276" y="446.4" style="stroke: #000000; stroke-width: 0.6"/>
      </g>
     </g>
    </g>
    <g id="xtick_13">
     <g id="line2d_25">
      <path d="M 683.346408 446.4 
L 683.346408 86.4 
" clip-path="url(#pb7879bc328)" style="fill: none; stroke-dasharray: 1.85,0.8; stroke-dashoffset: 0; stroke: #b0b0b0; stroke-width: 0.5"/>
     </g>
     <g id="line2d_26">
      <g>
       <use xlink:href="#m649a49411b" x="683.346408" y="446.4" style="stroke: #000000; stroke-width: 0.6"/>
      </g>
     </g>
    </g>
    <g id="xtick_14">
     <g id="line2d_27">
      <path d="M 729.371789 446.4 
L 729.371789 86.4 
" clip-path="url(#pb7879bc328)" style="fill: none; stroke-dasharray: 1.85,0.8; stroke-dashoffset: 0; stroke: #b0b0b0; stroke-width: 0.5"/>
     </g>
     <g id="line2d_28">
      <g>
       <use xlink:href="#m649a49411b" x="729.371789" y="446.4" style="stroke: #000000; stroke-width: 0.6"/>
      </g>
     </g>
    </g>
    <g id="text_3">
     <!-- Degrees of freedom -->
     <g transform="translate(299.951563 497.687969) scale(0.25 -0.25)">
      <defs>
       <path id="DejaVuSans-44" d="M 1259 4147 
L 1259 519 
L 2022 519 
Q 2988 519 3436 956 
Q 3884 1394 3884 2338 
Q 3884 3275 3436 3711 
Q 2988 4147 2022 4147 
L 1259 4147 
z
M 628 4666 
L 1925 4666 
Q 3281 4666 3915 4102 
Q 4550 3538 4550 2338 
Q 4550 1131 3912 565 
Q 3275 0 1925 0 
L 628 0 
L 628 4666 
z
" transform="scale(0.015625)"/>
       <path id="DejaVuSans-65" d="M 3597 1894 
L 3597 1613 
L 953 1613 
Q 991 1019 1311 708 
Q 1631 397 2203 397 
Q 2534 397 2845 478 
Q 3156 559 3463 722 
L 3463 178 
Q 3153 47 2828 -22 
Q 2503 -91 2169 -91 
Q 1331 -91 842 396 
Q 353 884 353 1716 
Q 353 2575 817 3079 
Q 1281 3584 2069 3584 
Q 2775 3584 3186 3129 
Q 3597 2675 3597 1894 
z
M 3022 2063 
Q 3016 2534 2758 2815 
Q 2500 3097 2075 3097 
Q 1594 3097 1305 2825 
Q 1016 2553 972 2059 
L 3022 2063 
z
" transform="scale(0.015625)"/>
       <path id="DejaVuSans-67" d="M 2906 1791 
Q 2906 2416 2648 2759 
Q 2391 3103 1925 3103 
Q 1463 3103 1205 2759 
Q 947 2416 947 1791 
Q 947 1169 1205 825 
Q 1463 481 1925 481 
Q 2391 481 2648 825 
Q 2906 1169 2906 1791 
z
M 3481 434 
Q 3481 -459 3084 -895 
Q 2688 -1331 1869 -1331 
Q 1566 -1331 1297 -1286 
Q 1028 -1241 775 -1147 
L 775 -588 
Q 1028 -725 1275 -790 
Q 1522 -856 1778 -856 
Q 2344 -856 2625 -561 
Q 2906 -266 2906 331 
L 2906 616 
Q 2728 306 2450 153 
Q 2172 0 1784 0 
Q 1141 0 747 490 
Q 353 981 353 1791 
Q 353 2603 747 3093 
Q 1141 3584 1784 3584 
Q 2172 3584 2450 3431 
Q 2728 3278 2906 2969 
L 2906 3500 
L 3481 3500 
L 3481 434 
z
" transform="scale(0.015625)"/>
       <path id="DejaVuSans-72" d="M 2631 2963 
Q 2534 3019 2420 3045 
Q 2306 3072 2169 3072 
Q 1681 3072 1420 2755 
Q 1159 2438 1159 1844 
L 1159 0 
L 581 0 
L 581 3500 
L 1159 3500 
L 1159 2956 
Q 1341 3275 1631 3429 
Q 1922 3584 2338 3584 
Q 2397 3584 2469 3576 
Q 2541 3569 2628 3553 
L 2631 2963 
z
" transform="scale(0.015625)"/>
       <path id="DejaVuSans-73" d="M 2834 3397 
L 2834 2853 
Q 2591 2978 2328 3040 
Q 2066 3103 1784 3103 
Q 1356 3103 1142 2972 
Q 928 2841 928 2578 
Q 928 2378 1081 2264 
Q 1234 2150 1697 2047 
L 1894 2003 
Q 2506 1872 2764 1633 
Q 3022 1394 3022 966 
Q 3022 478 2636 193 
Q 2250 -91 1575 -91 
Q 1294 -91 989 -36 
Q 684 19 347 128 
L 347 722 
Q 666 556 975 473 
Q 1284 391 1588 391 
Q 1994 391 2212 530 
Q 2431 669 2431 922 
Q 2431 1156 2273 1281 
Q 2116 1406 1581 1522 
L 1381 1569 
Q 847 1681 609 1914 
Q 372 2147 372 2553 
Q 372 3047 722 3315 
Q 1072 3584 1716 3584 
Q 2034 3584 2315 3537 
Q 2597 3491 2834 3397 
z
" transform="scale(0.015625)"/>
       <path id="DejaVuSans-20" transform="scale(0.015625)"/>
       <path id="DejaVuSans-6f" d="M 1959 3097 
Q 1497 3097 1228 2736 
Q 959 2375 959 1747 
Q 959 1119 1226 758 
Q 1494 397 1959 397 
Q 2419 397 2687 759 
Q 2956 1122 2956 1747 
Q 2956 2369 2687 2733 
Q 2419 3097 1959 3097 
z
M 1959 3584 
Q 2709 3584 3137 3096 
Q 3566 2609 3566 1747 
Q 3566 888 3137 398 
Q 2709 -91 1959 -91 
Q 1206 -91 779 398 
Q 353 888 353 1747 
Q 353 2609 779 3096 
Q 1206 3584 1959 3584 
z
" transform="scale(0.015625)"/>
       <path id="DejaVuSans-66" d="M 2375 4863 
L 2375 4384 
L 1825 4384 
Q 1516 4384 1395 4259 
Q 1275 4134 1275 3809 
L 1275 3500 
L 2222 3500 
L 2222 3053 
L 1275 3053 
L 1275 0 
L 697 0 
L 697 3053 
L 147 3053 
L 147 3500 
L 697 3500 
L 697 3744 
Q 697 4328 969 4595 
Q 1241 4863 1831 4863 
L 2375 4863 
z
" transform="scale(0.015625)"/>
       <path id="DejaVuSans-64" d="M 2906 2969 
L 2906 4863 
L 3481 4863 
L 3481 0 
L 2906 0 
L 2906 525 
Q 2725 213 2448 61 
Q 2172 -91 1784 -91 
Q 1150 -91 751 415 
Q 353 922 353 1747 
Q 353 2572 751 3078 
Q 1150 3584 1784 3584 
Q 2172 3584 2448 3432 
Q 2725 3281 2906 2969 
z
M 947 1747 
Q 947 1113 1208 752 
Q 1469 391 1925 391 
Q 2381 391 2643 752 
Q 2906 1113 2906 1747 
Q 2906 2381 2643 2742 
Q 2381 3103 1925 3103 
Q 1469 3103 1208 2742 
Q 947 2381 947 1747 
z
" transform="scale(0.015625)"/>
       <path id="DejaVuSans-6d" d="M 3328 2828 
Q 3544 3216 3844 3400 
Q 4144 3584 4550 3584 
Q 5097 3584 5394 3201 
Q 5691 2819 5691 2113 
L 5691 0 
L 5113 0 
L 5113 2094 
Q 5113 2597 4934 2840 
Q 4756 3084 4391 3084 
Q 3944 3084 3684 2787 
Q 3425 2491 3425 1978 
L 3425 0 
L 2847 0 
L 2847 2094 
Q 2847 2600 2669 2842 
Q 2491 3084 2119 3084 
Q 1678 3084 1418 2786 
Q 1159 2488 1159 1978 
L 1159 0 
L 581 0 
L 581 3500 
L 1159 3500 
L 1159 2956 
Q 1356 3278 1631 3431 
Q 1906 3584 2284 3584 
Q 2666 3584 2933 3390 
Q 3200 3197 3328 2828 
z
" transform="scale(0.015625)"/>
      </defs>
      <use xlink:href="#DejaVuSans-44"/>
      <use xlink:href="#DejaVuSans-65" x="77.001953"/>
      <use xlink:href="#DejaVuSans-67" x="138.525391"/>
      <use xlink:href="#DejaVuSans-72" x="202.001953"/>
      <use xlink:href="#DejaVuSans-65" x="240.865234"/>
      <use xlink:href="#DejaVuSans-65" x="302.388672"/>
      <use xlink:href="#DejaVuSans-73" x="363.912109"/>
      <use xlink:href="#DejaVuSans-20" x="416.011719"/>
      <use xlink:href="#DejaVuSans-6f" x="447.798828"/>
      <use xlink:href="#DejaVuSans-66" x="508.980469"/>
      <use xlink:href="#DejaVuSans-20" x="544.185547"/>
      <use xlink:href="#DejaVuSans-66" x="575.972656"/>
      <use xlink:href="#DejaVuSans-72" x="611.177734"/>
      <use xlink:href="#DejaVuSans-65" x="650.041016"/>
      <use xlink:href="#DejaVuSans-65" x="711.564453"/>
      <use xlink:href="#DejaVuSans-64" x="773.087891"/>
      <use xlink:href="#DejaVuSans-6f" x="836.564453"/>
      <use xlink:href="#DejaVuSans-6d" x="897.746094"/>
     </g>
    </g>
   </g>
   <g id="matplotlib.axis_2">
    <g id="ytick_1">
     <g id="line2d_29">
      <path d="M 103.5 363.621505 
L 745.2 363.621505 
" clip-path="url(#pb7879bc328)" style="fill: none; stroke-dasharray: 1.85,0.8; stroke-dashoffset: 0; stroke: #b0b0b0; stroke-width: 0.5"/>
     </g>
     <g id="line2d_30">
      <defs>
       <path id="m6973ac639b" d="M 0 0 
L -3.5 0 
" style="stroke: #000000; stroke-width: 0.8"/>
      </defs>
      <g>
       <use xlink:href="#m6973ac639b" x="103.5" y="363.621505" style="stroke: #000000; stroke-width: 0.8"/>
      </g>
     </g>
     <g id="text_4">
      <!-- $\mathdefault{10^{0}}$ -->
      <g transform="translate(57.78 371.979787) scale(0.22 -0.22)">
       <use xlink:href="#DejaVuSans-31" transform="translate(0 0.765625)"/>
       <use xlink:href="#DejaVuSans-30" transform="translate(63.623047 0.765625)"/>
       <use xlink:href="#DejaVuSans-30" transform="translate(128.203125 39.046875) scale(0.7)"/>
      </g>
     </g>
    </g>
    <g id="ytick_2">
     <g id="line2d_31">
      <path d="M 103.5 223.070168 
L 745.2 223.070168 
" clip-path="url(#pb7879bc328)" style="fill: none; stroke-dasharray: 1.85,0.8; stroke-dashoffset: 0; stroke: #b0b0b0; stroke-width: 0.5"/>
     </g>
     <g id="line2d_32">
      <g>
       <use xlink:href="#m6973ac639b" x="103.5" y="223.070168" style="stroke: #000000; stroke-width: 0.8"/>
      </g>
     </g>
     <g id="text_5">
      <!-- $\mathdefault{10^{1}}$ -->
      <g transform="translate(57.78 231.428449) scale(0.22 -0.22)">
       <use xlink:href="#DejaVuSans-31" transform="translate(0 0.684375)"/>
       <use xlink:href="#DejaVuSans-30" transform="translate(63.623047 0.684375)"/>
       <use xlink:href="#DejaVuSans-31" transform="translate(128.203125 38.965625) scale(0.7)"/>
      </g>
     </g>
    </g>
    <g id="ytick_3">
     <g id="line2d_33">
      <path d="M 103.5 437.112812 
L 745.2 437.112812 
" clip-path="url(#pb7879bc328)" style="fill: none; stroke-dasharray: 1.85,0.8; stroke-dashoffset: 0; stroke: #b0b0b0; stroke-width: 0.5"/>
     </g>
     <g id="line2d_34">
      <defs>
       <path id="m9469e20d87" d="M 0 0 
L -2 0 
" style="stroke: #000000; stroke-width: 0.6"/>
      </defs>
      <g>
       <use xlink:href="#m9469e20d87" x="103.5" y="437.112812" style="stroke: #000000; stroke-width: 0.6"/>
      </g>
     </g>
    </g>
    <g id="ytick_4">
     <g id="line2d_35">
      <path d="M 103.5 419.552506 
L 745.2 419.552506 
" clip-path="url(#pb7879bc328)" style="fill: none; stroke-dasharray: 1.85,0.8; stroke-dashoffset: 0; stroke: #b0b0b0; stroke-width: 0.5"/>
     </g>
     <g id="line2d_36">
      <g>
       <use xlink:href="#m9469e20d87" x="103.5" y="419.552506" style="stroke: #000000; stroke-width: 0.6"/>
      </g>
     </g>
    </g>
    <g id="ytick_5">
     <g id="line2d_37">
      <path d="M 103.5 405.931674 
L 745.2 405.931674 
" clip-path="url(#pb7879bc328)" style="fill: none; stroke-dasharray: 1.85,0.8; stroke-dashoffset: 0; stroke: #b0b0b0; stroke-width: 0.5"/>
     </g>
     <g id="line2d_38">
      <g>
       <use xlink:href="#m9469e20d87" x="103.5" y="405.931674" style="stroke: #000000; stroke-width: 0.6"/>
      </g>
     </g>
    </g>
    <g id="ytick_6">
     <g id="line2d_39">
      <path d="M 103.5 394.802644 
L 745.2 394.802644 
" clip-path="url(#pb7879bc328)" style="fill: none; stroke-dasharray: 1.85,0.8; stroke-dashoffset: 0; stroke: #b0b0b0; stroke-width: 0.5"/>
     </g>
     <g id="line2d_40">
      <g>
       <use xlink:href="#m9469e20d87" x="103.5" y="394.802644" style="stroke: #000000; stroke-width: 0.6"/>
      </g>
     </g>
    </g>
    <g id="ytick_7">
     <g id="line2d_41">
      <path d="M 103.5 385.393183 
L 745.2 385.393183 
" clip-path="url(#pb7879bc328)" style="fill: none; stroke-dasharray: 1.85,0.8; stroke-dashoffset: 0; stroke: #b0b0b0; stroke-width: 0.5"/>
     </g>
     <g id="line2d_42">
      <g>
       <use xlink:href="#m9469e20d87" x="103.5" y="385.393183" style="stroke: #000000; stroke-width: 0.6"/>
      </g>
     </g>
    </g>
    <g id="ytick_8">
     <g id="line2d_43">
      <path d="M 103.5 377.242337 
L 745.2 377.242337 
" clip-path="url(#pb7879bc328)" style="fill: none; stroke-dasharray: 1.85,0.8; stroke-dashoffset: 0; stroke: #b0b0b0; stroke-width: 0.5"/>
     </g>
     <g id="line2d_44">
      <g>
       <use xlink:href="#m9469e20d87" x="103.5" y="377.242337" style="stroke: #000000; stroke-width: 0.6"/>
      </g>
     </g>
    </g>
    <g id="ytick_9">
     <g id="line2d_45">
      <path d="M 103.5 370.052782 
L 745.2 370.052782 
" clip-path="url(#pb7879bc328)" style="fill: none; stroke-dasharray: 1.85,0.8; stroke-dashoffset: 0; stroke: #b0b0b0; stroke-width: 0.5"/>
     </g>
     <g id="line2d_46">
      <g>
       <use xlink:href="#m9469e20d87" x="103.5" y="370.052782" style="stroke: #000000; stroke-width: 0.6"/>
      </g>
     </g>
    </g>
    <g id="ytick_10">
     <g id="line2d_47">
      <path d="M 103.5 321.311337 
L 745.2 321.311337 
" clip-path="url(#pb7879bc328)" style="fill: none; stroke-dasharray: 1.85,0.8; stroke-dashoffset: 0; stroke: #b0b0b0; stroke-width: 0.5"/>
     </g>
     <g id="line2d_48">
      <g>
       <use xlink:href="#m9469e20d87" x="103.5" y="321.311337" style="stroke: #000000; stroke-width: 0.6"/>
      </g>
     </g>
    </g>
    <g id="ytick_11">
     <g id="line2d_49">
      <path d="M 103.5 296.561475 
L 745.2 296.561475 
" clip-path="url(#pb7879bc328)" style="fill: none; stroke-dasharray: 1.85,0.8; stroke-dashoffset: 0; stroke: #b0b0b0; stroke-width: 0.5"/>
     </g>
     <g id="line2d_50">
      <g>
       <use xlink:href="#m9469e20d87" x="103.5" y="296.561475" style="stroke: #000000; stroke-width: 0.6"/>
      </g>
     </g>
    </g>
    <g id="ytick_12">
     <g id="line2d_51">
      <path d="M 103.5 279.001168 
L 745.2 279.001168 
" clip-path="url(#pb7879bc328)" style="fill: none; stroke-dasharray: 1.85,0.8; stroke-dashoffset: 0; stroke: #b0b0b0; stroke-width: 0.5"/>
     </g>
     <g id="line2d_52">
      <g>
       <use xlink:href="#m9469e20d87" x="103.5" y="279.001168" style="stroke: #000000; stroke-width: 0.6"/>
      </g>
     </g>
    </g>
    <g id="ytick_13">
     <g id="line2d_53">
      <path d="M 103.5 265.380336 
L 745.2 265.380336 
" clip-path="url(#pb7879bc328)" style="fill: none; stroke-dasharray: 1.85,0.8; stroke-dashoffset: 0; stroke: #b0b0b0; stroke-width: 0.5"/>
     </g>
     <g id="line2d_54">
      <g>
       <use xlink:href="#m9469e20d87" x="103.5" y="265.380336" style="stroke: #000000; stroke-width: 0.6"/>
      </g>
     </g>
    </g>
    <g id="ytick_14">
     <g id="line2d_55">
      <path d="M 103.5 254.251306 
L 745.2 254.251306 
" clip-path="url(#pb7879bc328)" style="fill: none; stroke-dasharray: 1.85,0.8; stroke-dashoffset: 0; stroke: #b0b0b0; stroke-width: 0.5"/>
     </g>
     <g id="line2d_56">
      <g>
       <use xlink:href="#m9469e20d87" x="103.5" y="254.251306" style="stroke: #000000; stroke-width: 0.6"/>
      </g>
     </g>
    </g>
    <g id="ytick_15">
     <g id="line2d_57">
      <path d="M 103.5 244.841846 
L 745.2 244.841846 
" clip-path="url(#pb7879bc328)" style="fill: none; stroke-dasharray: 1.85,0.8; stroke-dashoffset: 0; stroke: #b0b0b0; stroke-width: 0.5"/>
     </g>
     <g id="line2d_58">
      <g>
       <use xlink:href="#m9469e20d87" x="103.5" y="244.841846" style="stroke: #000000; stroke-width: 0.6"/>
      </g>
     </g>
    </g>
    <g id="ytick_16">
     <g id="line2d_59">
      <path d="M 103.5 236.691 
L 745.2 236.691 
" clip-path="url(#pb7879bc328)" style="fill: none; stroke-dasharray: 1.85,0.8; stroke-dashoffset: 0; stroke: #b0b0b0; stroke-width: 0.5"/>
     </g>
     <g id="line2d_60">
      <g>
       <use xlink:href="#m9469e20d87" x="103.5" y="236.691" style="stroke: #000000; stroke-width: 0.6"/>
      </g>
     </g>
    </g>
    <g id="ytick_17">
     <g id="line2d_61">
      <path d="M 103.5 229.501444 
L 745.2 229.501444 
" clip-path="url(#pb7879bc328)" style="fill: none; stroke-dasharray: 1.85,0.8; stroke-dashoffset: 0; stroke: #b0b0b0; stroke-width: 0.5"/>
     </g>
     <g id="line2d_62">
      <g>
       <use xlink:href="#m9469e20d87" x="103.5" y="229.501444" style="stroke: #000000; stroke-width: 0.6"/>
      </g>
     </g>
    </g>
    <g id="ytick_18">
     <g id="line2d_63">
      <path d="M 103.5 180.759999 
L 745.2 180.759999 
" clip-path="url(#pb7879bc328)" style="fill: none; stroke-dasharray: 1.85,0.8; stroke-dashoffset: 0; stroke: #b0b0b0; stroke-width: 0.5"/>
     </g>
     <g id="line2d_64">
      <g>
       <use xlink:href="#m9469e20d87" x="103.5" y="180.759999" style="stroke: #000000; stroke-width: 0.6"/>
      </g>
     </g>
    </g>
    <g id="ytick_19">
     <g id="line2d_65">
      <path d="M 103.5 156.010138 
L 745.2 156.010138 
" clip-path="url(#pb7879bc328)" style="fill: none; stroke-dasharray: 1.85,0.8; stroke-dashoffset: 0; stroke: #b0b0b0; stroke-width: 0.5"/>
     </g>
     <g id="line2d_66">
      <g>
       <use xlink:href="#m9469e20d87" x="103.5" y="156.010138" style="stroke: #000000; stroke-width: 0.6"/>
      </g>
     </g>
    </g>
    <g id="ytick_20">
     <g id="line2d_67">
      <path d="M 103.5 138.449831 
L 745.2 138.449831 
" clip-path="url(#pb7879bc328)" style="fill: none; stroke-dasharray: 1.85,0.8; stroke-dashoffset: 0; stroke: #b0b0b0; stroke-width: 0.5"/>
     </g>
     <g id="line2d_68">
      <g>
       <use xlink:href="#m9469e20d87" x="103.5" y="138.449831" style="stroke: #000000; stroke-width: 0.6"/>
      </g>
     </g>
    </g>
    <g id="ytick_21">
     <g id="line2d_69">
      <path d="M 103.5 124.828999 
L 745.2 124.828999 
" clip-path="url(#pb7879bc328)" style="fill: none; stroke-dasharray: 1.85,0.8; stroke-dashoffset: 0; stroke: #b0b0b0; stroke-width: 0.5"/>
     </g>
     <g id="line2d_70">
      <g>
       <use xlink:href="#m9469e20d87" x="103.5" y="124.828999" style="stroke: #000000; stroke-width: 0.6"/>
      </g>
     </g>
    </g>
    <g id="ytick_22">
     <g id="line2d_71">
      <path d="M 103.5 113.699969 
L 745.2 113.699969 
" clip-path="url(#pb7879bc328)" style="fill: none; stroke-dasharray: 1.85,0.8; stroke-dashoffset: 0; stroke: #b0b0b0; stroke-width: 0.5"/>
     </g>
     <g id="line2d_72">
      <g>
       <use xlink:href="#m9469e20d87" x="103.5" y="113.699969" style="stroke: #000000; stroke-width: 0.6"/>
      </g>
     </g>
    </g>
    <g id="ytick_23">
     <g id="line2d_73">
      <path d="M 103.5 104.290508 
L 745.2 104.290508 
" clip-path="url(#pb7879bc328)" style="fill: none; stroke-dasharray: 1.85,0.8; stroke-dashoffset: 0; stroke: #b0b0b0; stroke-width: 0.5"/>
     </g>
     <g id="line2d_74">
      <g>
       <use xlink:href="#m9469e20d87" x="103.5" y="104.290508" style="stroke: #000000; stroke-width: 0.6"/>
      </g>
     </g>
    </g>
    <g id="ytick_24">
     <g id="line2d_75">
      <path d="M 103.5 96.139663 
L 745.2 96.139663 
" clip-path="url(#pb7879bc328)" style="fill: none; stroke-dasharray: 1.85,0.8; stroke-dashoffset: 0; stroke: #b0b0b0; stroke-width: 0.5"/>
     </g>
     <g id="line2d_76">
      <g>
       <use xlink:href="#m9469e20d87" x="103.5" y="96.139663" style="stroke: #000000; stroke-width: 0.6"/>
      </g>
     </g>
    </g>
    <g id="ytick_25">
     <g id="line2d_77">
      <path d="M 103.5 88.950107 
L 745.2 88.950107 
" clip-path="url(#pb7879bc328)" style="fill: none; stroke-dasharray: 1.85,0.8; stroke-dashoffset: 0; stroke: #b0b0b0; stroke-width: 0.5"/>
     </g>
     <g id="line2d_78">
      <g>
       <use xlink:href="#m9469e20d87" x="103.5" y="88.950107" style="stroke: #000000; stroke-width: 0.6"/>
      </g>
     </g>
    </g>
    <g id="text_6">
     <!-- Simulation time (s) -->
     <g transform="translate(48.580781 385.433203) rotate(-90) scale(0.25 -0.25)">
      <defs>
       <path id="DejaVuSans-53" d="M 3425 4513 
L 3425 3897 
Q 3066 4069 2747 4153 
Q 2428 4238 2131 4238 
Q 1616 4238 1336 4038 
Q 1056 3838 1056 3469 
Q 1056 3159 1242 3001 
Q 1428 2844 1947 2747 
L 2328 2669 
Q 3034 2534 3370 2195 
Q 3706 1856 3706 1288 
Q 3706 609 3251 259 
Q 2797 -91 1919 -91 
Q 1588 -91 1214 -16 
Q 841 59 441 206 
L 441 856 
Q 825 641 1194 531 
Q 1563 422 1919 422 
Q 2459 422 2753 634 
Q 3047 847 3047 1241 
Q 3047 1584 2836 1778 
Q 2625 1972 2144 2069 
L 1759 2144 
Q 1053 2284 737 2584 
Q 422 2884 422 3419 
Q 422 4038 858 4394 
Q 1294 4750 2059 4750 
Q 2388 4750 2728 4690 
Q 3069 4631 3425 4513 
z
" transform="scale(0.015625)"/>
       <path id="DejaVuSans-69" d="M 603 3500 
L 1178 3500 
L 1178 0 
L 603 0 
L 603 3500 
z
M 603 4863 
L 1178 4863 
L 1178 4134 
L 603 4134 
L 603 4863 
z
" transform="scale(0.015625)"/>
       <path id="DejaVuSans-75" d="M 544 1381 
L 544 3500 
L 1119 3500 
L 1119 1403 
Q 1119 906 1312 657 
Q 1506 409 1894 409 
Q 2359 409 2629 706 
Q 2900 1003 2900 1516 
L 2900 3500 
L 3475 3500 
L 3475 0 
L 2900 0 
L 2900 538 
Q 2691 219 2414 64 
Q 2138 -91 1772 -91 
Q 1169 -91 856 284 
Q 544 659 544 1381 
z
M 1991 3584 
L 1991 3584 
z
" transform="scale(0.015625)"/>
       <path id="DejaVuSans-6c" d="M 603 4863 
L 1178 4863 
L 1178 0 
L 603 0 
L 603 4863 
z
" transform="scale(0.015625)"/>
       <path id="DejaVuSans-61" d="M 2194 1759 
Q 1497 1759 1228 1600 
Q 959 1441 959 1056 
Q 959 750 1161 570 
Q 1363 391 1709 391 
Q 2188 391 2477 730 
Q 2766 1069 2766 1631 
L 2766 1759 
L 2194 1759 
z
M 3341 1997 
L 3341 0 
L 2766 0 
L 2766 531 
Q 2569 213 2275 61 
Q 1981 -91 1556 -91 
Q 1019 -91 701 211 
Q 384 513 384 1019 
Q 384 1609 779 1909 
Q 1175 2209 1959 2209 
L 2766 2209 
L 2766 2266 
Q 2766 2663 2505 2880 
Q 2244 3097 1772 3097 
Q 1472 3097 1187 3025 
Q 903 2953 641 2809 
L 641 3341 
Q 956 3463 1253 3523 
Q 1550 3584 1831 3584 
Q 2591 3584 2966 3190 
Q 3341 2797 3341 1997 
z
" transform="scale(0.015625)"/>
       <path id="DejaVuSans-74" d="M 1172 4494 
L 1172 3500 
L 2356 3500 
L 2356 3053 
L 1172 3053 
L 1172 1153 
Q 1172 725 1289 603 
Q 1406 481 1766 481 
L 2356 481 
L 2356 0 
L 1766 0 
Q 1100 0 847 248 
Q 594 497 594 1153 
L 594 3053 
L 172 3053 
L 172 3500 
L 594 3500 
L 594 4494 
L 1172 4494 
z
" transform="scale(0.015625)"/>
       <path id="DejaVuSans-6e" d="M 3513 2113 
L 3513 0 
L 2938 0 
L 2938 2094 
Q 2938 2591 2744 2837 
Q 2550 3084 2163 3084 
Q 1697 3084 1428 2787 
Q 1159 2491 1159 1978 
L 1159 0 
L 581 0 
L 581 3500 
L 1159 3500 
L 1159 2956 
Q 1366 3272 1645 3428 
Q 1925 3584 2291 3584 
Q 2894 3584 3203 3211 
Q 3513 2838 3513 2113 
z
" transform="scale(0.015625)"/>
       <path id="DejaVuSans-28" d="M 1984 4856 
Q 1566 4138 1362 3434 
Q 1159 2731 1159 2009 
Q 1159 1288 1364 580 
Q 1569 -128 1984 -844 
L 1484 -844 
Q 1016 -109 783 600 
Q 550 1309 550 2009 
Q 550 2706 781 3412 
Q 1013 4119 1484 4856 
L 1984 4856 
z
" transform="scale(0.015625)"/>
       <path id="DejaVuSans-29" d="M 513 4856 
L 1013 4856 
Q 1481 4119 1714 3412 
Q 1947 2706 1947 2009 
Q 1947 1309 1714 600 
Q 1481 -109 1013 -844 
L 513 -844 
Q 928 -128 1133 580 
Q 1338 1288 1338 2009 
Q 1338 2731 1133 3434 
Q 928 4138 513 4856 
z
" transform="scale(0.015625)"/>
      </defs>
      <use xlink:href="#DejaVuSans-53"/>
      <use xlink:href="#DejaVuSans-69" x="63.476562"/>
      <use xlink:href="#DejaVuSans-6d" x="91.259766"/>
      <use xlink:href="#DejaVuSans-75" x="188.671875"/>
      <use xlink:href="#DejaVuSans-6c" x="252.050781"/>
      <use xlink:href="#DejaVuSans-61" x="279.833984"/>
      <use xlink:href="#DejaVuSans-74" x="341.113281"/>
      <use xlink:href="#DejaVuSans-69" x="380.322266"/>
      <use xlink:href="#DejaVuSans-6f" x="408.105469"/>
      <use xlink:href="#DejaVuSans-6e" x="469.287109"/>
      <use xlink:href="#DejaVuSans-20" x="532.666016"/>
      <use xlink:href="#DejaVuSans-74" x="564.453125"/>
      <use xlink:href="#DejaVuSans-69" x="603.662109"/>
      <use xlink:href="#DejaVuSans-6d" x="631.445312"/>
      <use xlink:href="#DejaVuSans-65" x="728.857422"/>
      <use xlink:href="#DejaVuSans-20" x="790.380859"/>
      <use xlink:href="#DejaVuSans-28" x="822.167969"/>
      <use xlink:href="#DejaVuSans-73" x="861.181641"/>
      <use xlink:href="#DejaVuSans-29" x="913.28125"/>
     </g>
    </g>
   </g>
   <g id="line2d_79">
    <path d="M 132.668182 348.509396 
L 243.562694 272.466023 
L 354.457206 193.872294 
L 465.351718 102.763636 
" clip-path="url(#pb7879bc328)" style="fill: none; stroke-dasharray: 2,3.3; stroke-dashoffset: 0; stroke: #ff1493; stroke-width: 2"/>
    <defs>
     <path id="m15d594a3c5" d="M 0 -6 
L -6 6 
L 6 6 
z
" style="stroke: #ff1493; stroke-linejoin: miter"/>
    </defs>
    <g clip-path="url(#pb7879bc328)">
     <use xlink:href="#m15d594a3c5" x="132.668182" y="348.509396" style="fill: #ff1493; stroke: #ff1493; stroke-linejoin: miter"/>
     <use xlink:href="#m15d594a3c5" x="243.562694" y="272.466023" style="fill: #ff1493; stroke: #ff1493; stroke-linejoin: miter"/>
     <use xlink:href="#m15d594a3c5" x="354.457206" y="193.872294" style="fill: #ff1493; stroke: #ff1493; stroke-linejoin: miter"/>
     <use xlink:href="#m15d594a3c5" x="465.351718" y="102.763636" style="fill: #ff1493; stroke: #ff1493; stroke-linejoin: miter"/>
    </g>
   </g>
   <g id="line2d_80">
    <path d="M 265.342067 430.036364 
L 376.236579 387.560634 
L 487.131091 338.39556 
L 598.025604 289.788006 
" clip-path="url(#pb7879bc328)" style="fill: none; stroke-dasharray: 7.4,3.2; stroke-dashoffset: 0; stroke: #3f007d; stroke-width: 2"/>
    <defs>
     <path id="m3641a1867b" d="M 0 3 
C 0.795609 3 1.55874 2.683901 2.12132 2.12132 
C 2.683901 1.55874 3 0.795609 3 0 
C 3 -0.795609 2.683901 -1.55874 2.12132 -2.12132 
C 1.55874 -2.683901 0.795609 -3 0 -3 
C -0.795609 -3 -1.55874 -2.683901 -2.12132 -2.12132 
C -2.683901 -1.55874 -3 -0.795609 -3 0 
C -3 0.795609 -2.683901 1.55874 -2.12132 2.12132 
C -1.55874 2.683901 -0.795609 3 0 3 
z
" style="stroke: #3f007d"/>
    </defs>
    <g clip-path="url(#pb7879bc328)">
     <use xlink:href="#m3641a1867b" x="265.342067" y="430.036364" style="fill: #3f007d; stroke: #3f007d"/>
     <use xlink:href="#m3641a1867b" x="376.236579" y="387.560634" style="fill: #3f007d; stroke: #3f007d"/>
     <use xlink:href="#m3641a1867b" x="487.131091" y="338.39556" style="fill: #3f007d; stroke: #3f007d"/>
     <use xlink:href="#m3641a1867b" x="598.025604" y="289.788006" style="fill: #3f007d; stroke: #3f007d"/>
    </g>
   </g>
   <g id="line2d_81">
    <path d="M 314.962812 415.844786 
L 425.857324 369.473664 
L 536.751836 312.711417 
L 647.646349 258.662182 
" clip-path="url(#pb7879bc328)" style="fill: none; stroke-dasharray: 7.4,3.2; stroke-dashoffset: 0; stroke: #53258e; stroke-width: 2"/>
    <defs>
     <path id="mec0efc44a5" d="M 0 3 
C 0.795609 3 1.55874 2.683901 2.12132 2.12132 
C 2.683901 1.55874 3 0.795609 3 0 
C 3 -0.795609 2.683901 -1.55874 2.12132 -2.12132 
C 1.55874 -2.683901 0.795609 -3 0 -3 
C -0.795609 -3 -1.55874 -2.683901 -2.12132 -2.12132 
C -2.683901 -1.55874 -3 -0.795609 -3 0 
C -3 0.795609 -2.683901 1.55874 -2.12132 2.12132 
C -1.55874 2.683901 -0.795609 3 0 3 
z
" style="stroke: #53258e"/>
    </defs>
    <g clip-path="url(#pb7879bc328)">
     <use xlink:href="#mec0efc44a5" x="314.962812" y="415.844786" style="fill: #53258e; stroke: #53258e"/>
     <use xlink:href="#mec0efc44a5" x="425.857324" y="369.473664" style="fill: #53258e; stroke: #53258e"/>
     <use xlink:href="#mec0efc44a5" x="536.751836" y="312.711417" style="fill: #53258e; stroke: #53258e"/>
     <use xlink:href="#mec0efc44a5" x="647.646349" y="258.662182" style="fill: #53258e; stroke: #53258e"/>
    </g>
   </g>
   <g id="line2d_82">
    <path d="M 352.781935 389.035096 
L 463.676447 340.669301 
L 574.570959 288.653159 
L 685.465471 228.271679 
" clip-path="url(#pb7879bc328)" style="fill: none; stroke-dasharray: 7.4,3.2; stroke-dashoffset: 0; stroke: #674ca1; stroke-width: 2"/>
    <defs>
     <path id="m1d229a1d6f" d="M 0 3 
C 0.795609 3 1.55874 2.683901 2.12132 2.12132 
C 2.683901 1.55874 3 0.795609 3 0 
C 3 -0.795609 2.683901 -1.55874 2.12132 -2.12132 
C 1.55874 -2.683901 0.795609 -3 0 -3 
C -0.795609 -3 -1.55874 -2.683901 -2.12132 -2.12132 
C -2.683901 -1.55874 -3 -0.795609 -3 0 
C -3 0.795609 -2.683901 1.55874 -2.12132 2.12132 
C -1.55874 2.683901 -0.795609 3 0 3 
z
" style="stroke: #674ca1"/>
    </defs>
    <g clip-path="url(#pb7879bc328)">
     <use xlink:href="#m1d229a1d6f" x="352.781935" y="389.035096" style="fill: #674ca1; stroke: #674ca1"/>
     <use xlink:href="#m1d229a1d6f" x="463.676447" y="340.669301" style="fill: #674ca1; stroke: #674ca1"/>
     <use xlink:href="#m1d229a1d6f" x="574.570959" y="288.653159" style="fill: #674ca1; stroke: #674ca1"/>
     <use xlink:href="#m1d229a1d6f" x="685.465471" y="228.271679" style="fill: #674ca1; stroke: #674ca1"/>
    </g>
   </g>
   <g id="line2d_83">
    <path d="M 383.348282 375.995321 
L 494.242794 320.194644 
L 605.137306 268.82935 
L 716.031818 208.154475 
" clip-path="url(#pb7879bc328)" style="fill: none; stroke-dasharray: 7.4,3.2; stroke-dashoffset: 0; stroke: #7c75b6; stroke-width: 2"/>
    <defs>
     <path id="m7448134dbb" d="M 0 3 
C 0.795609 3 1.55874 2.683901 2.12132 2.12132 
C 2.683901 1.55874 3 0.795609 3 0 
C 3 -0.795609 2.683901 -1.55874 2.12132 -2.12132 
C 1.55874 -2.683901 0.795609 -3 0 -3 
C -0.795609 -3 -1.55874 -2.683901 -2.12132 -2.12132 
C -2.683901 -1.55874 -3 -0.795609 -3 0 
C -3 0.795609 -2.683901 1.55874 -2.12132 2.12132 
C -1.55874 2.683901 -0.795609 3 0 3 
z
" style="stroke: #7c75b6"/>
    </defs>
    <g clip-path="url(#pb7879bc328)">
     <use xlink:href="#m7448134dbb" x="383.348282" y="375.995321" style="fill: #7c75b6; stroke: #7c75b6"/>
     <use xlink:href="#m7448134dbb" x="494.242794" y="320.194644" style="fill: #7c75b6; stroke: #7c75b6"/>
     <use xlink:href="#m7448134dbb" x="605.137306" y="268.82935" style="fill: #7c75b6; stroke: #7c75b6"/>
     <use xlink:href="#m7448134dbb" x="716.031818" y="208.154475" style="fill: #7c75b6; stroke: #7c75b6"/>
    </g>
   </g>
   <g id="line2d_84">
    <path d="M 265.342067 393.865133 
L 376.236579 350.417109 
L 487.131091 305.148597 
L 598.025604 264.084711 
" clip-path="url(#pb7879bc328)" style="fill: none; stroke: #67000d; stroke-width: 2; stroke-linecap: square"/>
    <defs>
     <path id="mc0188caaa9" d="M 0 -6 
L -1.347084 -1.854102 
L -5.706339 -1.854102 
L -2.179628 0.708204 
L -3.526712 4.854102 
L -0 2.291796 
L 3.526712 4.854102 
L 2.179628 0.708204 
L 5.706339 -1.854102 
L 1.347084 -1.854102 
z
" style="stroke: #67000d; stroke-linejoin: bevel"/>
    </defs>
    <g clip-path="url(#pb7879bc328)">
     <use xlink:href="#mc0188caaa9" x="265.342067" y="393.865133" style="fill: #67000d; stroke: #67000d; stroke-linejoin: bevel"/>
     <use xlink:href="#mc0188caaa9" x="376.236579" y="350.417109" style="fill: #67000d; stroke: #67000d; stroke-linejoin: bevel"/>
     <use xlink:href="#mc0188caaa9" x="487.131091" y="305.148597" style="fill: #67000d; stroke: #67000d; stroke-linejoin: bevel"/>
     <use xlink:href="#mc0188caaa9" x="598.025604" y="264.084711" style="fill: #67000d; stroke: #67000d; stroke-linejoin: bevel"/>
    </g>
   </g>
   <g id="line2d_85">
    <path d="M 314.962812 365.993423 
L 425.857324 323.507959 
L 536.751836 273.936223 
L 647.646349 229.494881 
" clip-path="url(#pb7879bc328)" style="fill: none; stroke: #af1117; stroke-width: 2; stroke-linecap: square"/>
    <defs>
     <path id="m1173ed12ae" d="M 0 -6 
L -1.347084 -1.854102 
L -5.706339 -1.854102 
L -2.179628 0.708204 
L -3.526712 4.854102 
L -0 2.291796 
L 3.526712 4.854102 
L 2.179628 0.708204 
L 5.706339 -1.854102 
L 1.347084 -1.854102 
z
" style="stroke: #af1117; stroke-linejoin: bevel"/>
    </defs>
    <g clip-path="url(#pb7879bc328)">
     <use xlink:href="#m1173ed12ae" x="314.962812" y="365.993423" style="fill: #af1117; stroke: #af1117; stroke-linejoin: bevel"/>
     <use xlink:href="#m1173ed12ae" x="425.857324" y="323.507959" style="fill: #af1117; stroke: #af1117; stroke-linejoin: bevel"/>
     <use xlink:href="#m1173ed12ae" x="536.751836" y="273.936223" style="fill: #af1117; stroke: #af1117; stroke-linejoin: bevel"/>
     <use xlink:href="#m1173ed12ae" x="647.646349" y="229.494881" style="fill: #af1117; stroke: #af1117; stroke-linejoin: bevel"/>
    </g>
   </g>
   <g id="line2d_86">
    <path d="M 352.781935 349.699685 
L 463.676447 297.954288 
L 574.570959 251.349756 
L 685.465471 207.769955 
" clip-path="url(#pb7879bc328)" style="fill: none; stroke: #dd2a25; stroke-width: 2; stroke-linecap: square"/>
    <defs>
     <path id="mc53c6e8f02" d="M 0 -6 
L -1.347084 -1.854102 
L -5.706339 -1.854102 
L -2.179628 0.708204 
L -3.526712 4.854102 
L -0 2.291796 
L 3.526712 4.854102 
L 2.179628 0.708204 
L 5.706339 -1.854102 
L 1.347084 -1.854102 
z
" style="stroke: #dd2a25; stroke-linejoin: bevel"/>
    </defs>
    <g clip-path="url(#pb7879bc328)">
     <use xlink:href="#mc53c6e8f02" x="352.781935" y="349.699685" style="fill: #dd2a25; stroke: #dd2a25; stroke-linejoin: bevel"/>
     <use xlink:href="#mc53c6e8f02" x="463.676447" y="297.954288" style="fill: #dd2a25; stroke: #dd2a25; stroke-linejoin: bevel"/>
     <use xlink:href="#mc53c6e8f02" x="574.570959" y="251.349756" style="fill: #dd2a25; stroke: #dd2a25; stroke-linejoin: bevel"/>
     <use xlink:href="#mc53c6e8f02" x="685.465471" y="207.769955" style="fill: #dd2a25; stroke: #dd2a25; stroke-linejoin: bevel"/>
    </g>
   </g>
   <g id="line2d_87">
    <path d="M 383.348282 328.718326 
L 494.242794 279.831686 
L 605.137306 232.694661 
L 716.031818 187.198919 
" clip-path="url(#pb7879bc328)" style="fill: none; stroke: #f85f43; stroke-width: 2; stroke-linecap: square"/>
    <defs>
     <path id="m3956190a24" d="M 0 -6 
L -1.347084 -1.854102 
L -5.706339 -1.854102 
L -2.179628 0.708204 
L -3.526712 4.854102 
L -0 2.291796 
L 3.526712 4.854102 
L 2.179628 0.708204 
L 5.706339 -1.854102 
L 1.347084 -1.854102 
z
" style="stroke: #f85f43; stroke-linejoin: bevel"/>
    </defs>
    <g clip-path="url(#pb7879bc328)">
     <use xlink:href="#m3956190a24" x="383.348282" y="328.718326" style="fill: #f85f43; stroke: #f85f43; stroke-linejoin: bevel"/>
     <use xlink:href="#m3956190a24" x="494.242794" y="279.831686" style="fill: #f85f43; stroke: #f85f43; stroke-linejoin: bevel"/>
     <use xlink:href="#m3956190a24" x="605.137306" y="232.694661" style="fill: #f85f43; stroke: #f85f43; stroke-linejoin: bevel"/>
     <use xlink:href="#m3956190a24" x="716.031818" y="187.198919" style="fill: #f85f43; stroke: #f85f43; stroke-linejoin: bevel"/>
    </g>
   </g>
   <g id="patch_3">
    <path d="M 103.5 446.4 
L 103.5 86.4 
" style="fill: none; stroke: #000000; stroke-width: 0.8; stroke-linejoin: miter; stroke-linecap: square"/>
   </g>
   <g id="patch_4">
    <path d="M 745.2 446.4 
L 745.2 86.4 
" style="fill: none; stroke: #000000; stroke-width: 0.8; stroke-linejoin: miter; stroke-linecap: square"/>
   </g>
   <g id="patch_5">
    <path d="M 103.5 446.4 
L 745.2 446.4 
" style="fill: none; stroke: #000000; stroke-width: 0.8; stroke-linejoin: miter; stroke-linecap: square"/>
   </g>
   <g id="patch_6">
    <path d="M 103.5 86.4 
L 745.2 86.4 
" style="fill: none; stroke: #000000; stroke-width: 0.8; stroke-linejoin: miter; stroke-linecap: square"/>
   </g>
   <g id="legend_1">
    <g id="patch_7">
     <path d="M 152.05 686.759375 
L 696.65 686.759375 
Q 700.65 686.759375 700.65 682.759375 
L 700.65 514.4 
Q 700.65 510.4 696.65 510.4 
L 152.05 510.4 
Q 148.05 510.4 148.05 514.4 
L 148.05 682.759375 
Q 148.05 686.759375 152.05 686.759375 
z
" style="fill: #ffffff; stroke: #cccccc; stroke-linejoin: miter"/>
    </g>
    <g id="line2d_88">
     <path d="M 156.05 530 
L 176.05 530 
L 196.05 530 
" style="fill: none; stroke-dasharray: 2,3.3; stroke-dashoffset: 0; stroke: #ff1493; stroke-width: 2"/>
     <g>
      <use xlink:href="#m15d594a3c5" x="176.05" y="530" style="fill: #ff1493; stroke: #ff1493; stroke-linejoin: miter"/>
     </g>
    </g>
    <g id="text_7">
     <!-- CADET-FV -->
     <g transform="translate(212.05 537) scale(0.2 -0.2)">
      <defs>
       <path id="DejaVuSans-43" d="M 4122 4306 
L 4122 3641 
Q 3803 3938 3442 4084 
Q 3081 4231 2675 4231 
Q 1875 4231 1450 3742 
Q 1025 3253 1025 2328 
Q 1025 1406 1450 917 
Q 1875 428 2675 428 
Q 3081 428 3442 575 
Q 3803 722 4122 1019 
L 4122 359 
Q 3791 134 3420 21 
Q 3050 -91 2638 -91 
Q 1578 -91 968 557 
Q 359 1206 359 2328 
Q 359 3453 968 4101 
Q 1578 4750 2638 4750 
Q 3056 4750 3426 4639 
Q 3797 4528 4122 4306 
z
" transform="scale(0.015625)"/>
       <path id="DejaVuSans-41" d="M 2188 4044 
L 1331 1722 
L 3047 1722 
L 2188 4044 
z
M 1831 4666 
L 2547 4666 
L 4325 0 
L 3669 0 
L 3244 1197 
L 1141 1197 
L 716 0 
L 50 0 
L 1831 4666 
z
" transform="scale(0.015625)"/>
       <path id="DejaVuSans-45" d="M 628 4666 
L 3578 4666 
L 3578 4134 
L 1259 4134 
L 1259 2753 
L 3481 2753 
L 3481 2222 
L 1259 2222 
L 1259 531 
L 3634 531 
L 3634 0 
L 628 0 
L 628 4666 
z
" transform="scale(0.015625)"/>
       <path id="DejaVuSans-54" d="M -19 4666 
L 3928 4666 
L 3928 4134 
L 2272 4134 
L 2272 0 
L 1638 0 
L 1638 4134 
L -19 4134 
L -19 4666 
z
" transform="scale(0.015625)"/>
       <path id="DejaVuSans-2d" d="M 313 2009 
L 1997 2009 
L 1997 1497 
L 313 1497 
L 313 2009 
z
" transform="scale(0.015625)"/>
       <path id="DejaVuSans-46" d="M 628 4666 
L 3309 4666 
L 3309 4134 
L 1259 4134 
L 1259 2759 
L 3109 2759 
L 3109 2228 
L 1259 2228 
L 1259 0 
L 628 0 
L 628 4666 
z
" transform="scale(0.015625)"/>
       <path id="DejaVuSans-56" d="M 1831 0 
L 50 4666 
L 709 4666 
L 2188 738 
L 3669 4666 
L 4325 4666 
L 2547 0 
L 1831 0 
z
" transform="scale(0.015625)"/>
      </defs>
      <use xlink:href="#DejaVuSans-43"/>
      <use xlink:href="#DejaVuSans-41" x="69.824219"/>
      <use xlink:href="#DejaVuSans-44" x="138.232422"/>
      <use xlink:href="#DejaVuSans-45" x="215.234375"/>
      <use xlink:href="#DejaVuSans-54" x="278.417969"/>
      <use xlink:href="#DejaVuSans-2d" x="330.376953"/>
      <use xlink:href="#DejaVuSans-46" x="366.460938"/>
      <use xlink:href="#DejaVuSans-56" x="423.980469"/>
     </g>
    </g>
    <g id="line2d_89">
     <path d="M 156.05 562.759375 
L 176.05 562.759375 
L 196.05 562.759375 
" style="fill: none; stroke-dasharray: 7.4,3.2; stroke-dashoffset: 0; stroke: #3f007d; stroke-width: 2"/>
     <g>
      <use xlink:href="#m3641a1867b" x="176.05" y="562.759375" style="fill: #3f007d; stroke: #3f007d"/>
     </g>
    </g>
    <g id="text_8">
     <!-- CADET-Julia, $N_d^p$=4 -->
     <g transform="translate(212.05 569.759375) scale(0.2 -0.2)">
      <defs>
       <path id="DejaVuSans-4a" d="M 628 4666 
L 1259 4666 
L 1259 325 
Q 1259 -519 939 -900 
Q 619 -1281 -91 -1281 
L -331 -1281 
L -331 -750 
L -134 -750 
Q 284 -750 456 -515 
Q 628 -281 628 325 
L 628 4666 
z
" transform="scale(0.015625)"/>
       <path id="DejaVuSans-2c" d="M 750 794 
L 1409 794 
L 1409 256 
L 897 -744 
L 494 -744 
L 750 256 
L 750 794 
z
" transform="scale(0.015625)"/>
       <path id="DejaVuSans-Oblique-4e" d="M 1081 4666 
L 1931 4666 
L 3219 666 
L 4000 4666 
L 4616 4666 
L 3706 0 
L 2853 0 
L 1569 4025 
L 788 0 
L 172 0 
L 1081 4666 
z
" transform="scale(0.015625)"/>
       <path id="DejaVuSans-Oblique-70" d="M 3175 2156 
Q 3175 2616 2975 2859 
Q 2775 3103 2400 3103 
Q 2144 3103 1911 2972 
Q 1678 2841 1497 2591 
Q 1319 2344 1212 1994 
Q 1106 1644 1106 1300 
Q 1106 863 1306 627 
Q 1506 391 1875 391 
Q 2147 391 2380 519 
Q 2613 647 2778 891 
Q 2956 1147 3065 1494 
Q 3175 1841 3175 2156 
z
M 1394 2969 
Q 1625 3272 1939 3428 
Q 2253 3584 2638 3584 
Q 3175 3584 3472 3232 
Q 3769 2881 3769 2247 
Q 3769 1728 3584 1258 
Q 3400 788 3053 416 
Q 2822 169 2531 39 
Q 2241 -91 1919 -91 
Q 1547 -91 1294 64 
Q 1041 219 916 525 
L 556 -1331 
L -19 -1331 
L 922 3500 
L 1497 3500 
L 1394 2969 
z
" transform="scale(0.015625)"/>
       <path id="DejaVuSans-Oblique-64" d="M 2675 525 
Q 2444 222 2128 65 
Q 1813 -91 1428 -91 
Q 903 -91 598 267 
Q 294 625 294 1247 
Q 294 1766 478 2236 
Q 663 2706 1013 3078 
Q 1244 3325 1534 3454 
Q 1825 3584 2144 3584 
Q 2481 3584 2739 3421 
Q 2997 3259 3138 2956 
L 3513 4863 
L 4091 4863 
L 3144 0 
L 2566 0 
L 2675 525 
z
M 891 1350 
Q 891 897 1095 644 
Q 1300 391 1663 391 
Q 1931 391 2161 520 
Q 2391 650 2566 903 
Q 2750 1166 2856 1509 
Q 2963 1853 2963 2188 
Q 2963 2622 2758 2865 
Q 2553 3109 2194 3109 
Q 1922 3109 1687 2981 
Q 1453 2853 1288 2613 
Q 1106 2353 998 2009 
Q 891 1666 891 1350 
z
" transform="scale(0.015625)"/>
       <path id="DejaVuSans-3d" d="M 678 2906 
L 4684 2906 
L 4684 2381 
L 678 2381 
L 678 2906 
z
M 678 1631 
L 4684 1631 
L 4684 1100 
L 678 1100 
L 678 1631 
z
" transform="scale(0.015625)"/>
       <path id="DejaVuSans-34" d="M 2419 4116 
L 825 1625 
L 2419 1625 
L 2419 4116 
z
M 2253 4666 
L 3047 4666 
L 3047 1625 
L 3713 1625 
L 3713 1100 
L 3047 1100 
L 3047 0 
L 2419 0 
L 2419 1100 
L 313 1100 
L 313 1709 
L 2253 4666 
z
" transform="scale(0.015625)"/>
      </defs>
      <use xlink:href="#DejaVuSans-43" transform="translate(0 0.896875)"/>
      <use xlink:href="#DejaVuSans-41" transform="translate(69.824219 0.896875)"/>
      <use xlink:href="#DejaVuSans-44" transform="translate(138.232422 0.896875)"/>
      <use xlink:href="#DejaVuSans-45" transform="translate(215.234375 0.896875)"/>
      <use xlink:href="#DejaVuSans-54" transform="translate(278.417969 0.896875)"/>
      <use xlink:href="#DejaVuSans-2d" transform="translate(339.501953 0.896875)"/>
      <use xlink:href="#DejaVuSans-4a" transform="translate(375.585938 0.896875)"/>
      <use xlink:href="#DejaVuSans-75" transform="translate(405.078125 0.896875)"/>
      <use xlink:href="#DejaVuSans-6c" transform="translate(468.457031 0.896875)"/>
      <use xlink:href="#DejaVuSans-69" transform="translate(496.240234 0.896875)"/>
      <use xlink:href="#DejaVuSans-61" transform="translate(524.023438 0.896875)"/>
      <use xlink:href="#DejaVuSans-2c" transform="translate(585.302734 0.896875)"/>
      <use xlink:href="#DejaVuSans-20" transform="translate(617.089844 0.896875)"/>
      <use xlink:href="#DejaVuSans-Oblique-4e" transform="translate(648.876953 0.896875)"/>
      <use xlink:href="#DejaVuSans-Oblique-70" transform="translate(730.698411 53.8) scale(0.7)"/>
      <use xlink:href="#DejaVuSans-Oblique-64" transform="translate(723.681641 -26.446875) scale(0.7)"/>
      <use xlink:href="#DejaVuSans-3d" transform="translate(777.86638 0.896875)"/>
      <use xlink:href="#DejaVuSans-34" transform="translate(861.655443 0.896875)"/>
     </g>
    </g>
    <g id="line2d_90">
     <path d="M 156.05 597.159375 
L 176.05 597.159375 
L 196.05 597.159375 
" style="fill: none; stroke-dasharray: 7.4,3.2; stroke-dashoffset: 0; stroke: #53258e; stroke-width: 2"/>
     <g>
      <use xlink:href="#mec0efc44a5" x="176.05" y="597.159375" style="fill: #53258e; stroke: #53258e"/>
     </g>
    </g>
    <g id="text_9">
     <!-- CADET-Julia, $N_d^p$=6 -->
     <g transform="translate(212.05 604.159375) scale(0.2 -0.2)">
      <defs>
       <path id="DejaVuSans-36" d="M 2113 2584 
Q 1688 2584 1439 2293 
Q 1191 2003 1191 1497 
Q 1191 994 1439 701 
Q 1688 409 2113 409 
Q 2538 409 2786 701 
Q 3034 994 3034 1497 
Q 3034 2003 2786 2293 
Q 2538 2584 2113 2584 
z
M 3366 4563 
L 3366 3988 
Q 3128 4100 2886 4159 
Q 2644 4219 2406 4219 
Q 1781 4219 1451 3797 
Q 1122 3375 1075 2522 
Q 1259 2794 1537 2939 
Q 1816 3084 2150 3084 
Q 2853 3084 3261 2657 
Q 3669 2231 3669 1497 
Q 3669 778 3244 343 
Q 2819 -91 2113 -91 
Q 1303 -91 875 529 
Q 447 1150 447 2328 
Q 447 3434 972 4092 
Q 1497 4750 2381 4750 
Q 2619 4750 2861 4703 
Q 3103 4656 3366 4563 
z
" transform="scale(0.015625)"/>
      </defs>
      <use xlink:href="#DejaVuSans-43" transform="translate(0 0.896875)"/>
      <use xlink:href="#DejaVuSans-41" transform="translate(69.824219 0.896875)"/>
      <use xlink:href="#DejaVuSans-44" transform="translate(138.232422 0.896875)"/>
      <use xlink:href="#DejaVuSans-45" transform="translate(215.234375 0.896875)"/>
      <use xlink:href="#DejaVuSans-54" transform="translate(278.417969 0.896875)"/>
      <use xlink:href="#DejaVuSans-2d" transform="translate(339.501953 0.896875)"/>
      <use xlink:href="#DejaVuSans-4a" transform="translate(375.585938 0.896875)"/>
      <use xlink:href="#DejaVuSans-75" transform="translate(405.078125 0.896875)"/>
      <use xlink:href="#DejaVuSans-6c" transform="translate(468.457031 0.896875)"/>
      <use xlink:href="#DejaVuSans-69" transform="translate(496.240234 0.896875)"/>
      <use xlink:href="#DejaVuSans-61" transform="translate(524.023438 0.896875)"/>
      <use xlink:href="#DejaVuSans-2c" transform="translate(585.302734 0.896875)"/>
      <use xlink:href="#DejaVuSans-20" transform="translate(617.089844 0.896875)"/>
      <use xlink:href="#DejaVuSans-Oblique-4e" transform="translate(648.876953 0.896875)"/>
      <use xlink:href="#DejaVuSans-Oblique-70" transform="translate(730.698411 53.8) scale(0.7)"/>
      <use xlink:href="#DejaVuSans-Oblique-64" transform="translate(723.681641 -26.446875) scale(0.7)"/>
      <use xlink:href="#DejaVuSans-3d" transform="translate(777.86638 0.896875)"/>
      <use xlink:href="#DejaVuSans-36" transform="translate(861.655443 0.896875)"/>
     </g>
    </g>
    <g id="line2d_91">
     <path d="M 156.05 631.559375 
L 176.05 631.559375 
L 196.05 631.559375 
" style="fill: none; stroke-dasharray: 7.4,3.2; stroke-dashoffset: 0; stroke: #674ca1; stroke-width: 2"/>
     <g>
      <use xlink:href="#m1d229a1d6f" x="176.05" y="631.559375" style="fill: #674ca1; stroke: #674ca1"/>
     </g>
    </g>
    <g id="text_10">
     <!-- CADET-Julia, $N_d^p$=8 -->
     <g transform="translate(212.05 638.559375) scale(0.2 -0.2)">
      <defs>
       <path id="DejaVuSans-38" d="M 2034 2216 
Q 1584 2216 1326 1975 
Q 1069 1734 1069 1313 
Q 1069 891 1326 650 
Q 1584 409 2034 409 
Q 2484 409 2743 651 
Q 3003 894 3003 1313 
Q 3003 1734 2745 1975 
Q 2488 2216 2034 2216 
z
M 1403 2484 
Q 997 2584 770 2862 
Q 544 3141 544 3541 
Q 544 4100 942 4425 
Q 1341 4750 2034 4750 
Q 2731 4750 3128 4425 
Q 3525 4100 3525 3541 
Q 3525 3141 3298 2862 
Q 3072 2584 2669 2484 
Q 3125 2378 3379 2068 
Q 3634 1759 3634 1313 
Q 3634 634 3220 271 
Q 2806 -91 2034 -91 
Q 1263 -91 848 271 
Q 434 634 434 1313 
Q 434 1759 690 2068 
Q 947 2378 1403 2484 
z
M 1172 3481 
Q 1172 3119 1398 2916 
Q 1625 2713 2034 2713 
Q 2441 2713 2670 2916 
Q 2900 3119 2900 3481 
Q 2900 3844 2670 4047 
Q 2441 4250 2034 4250 
Q 1625 4250 1398 4047 
Q 1172 3844 1172 3481 
z
" transform="scale(0.015625)"/>
      </defs>
      <use xlink:href="#DejaVuSans-43" transform="translate(0 0.896875)"/>
      <use xlink:href="#DejaVuSans-41" transform="translate(69.824219 0.896875)"/>
      <use xlink:href="#DejaVuSans-44" transform="translate(138.232422 0.896875)"/>
      <use xlink:href="#DejaVuSans-45" transform="translate(215.234375 0.896875)"/>
      <use xlink:href="#DejaVuSans-54" transform="translate(278.417969 0.896875)"/>
      <use xlink:href="#DejaVuSans-2d" transform="translate(339.501953 0.896875)"/>
      <use xlink:href="#DejaVuSans-4a" transform="translate(375.585938 0.896875)"/>
      <use xlink:href="#DejaVuSans-75" transform="translate(405.078125 0.896875)"/>
      <use xlink:href="#DejaVuSans-6c" transform="translate(468.457031 0.896875)"/>
      <use xlink:href="#DejaVuSans-69" transform="translate(496.240234 0.896875)"/>
      <use xlink:href="#DejaVuSans-61" transform="translate(524.023438 0.896875)"/>
      <use xlink:href="#DejaVuSans-2c" transform="translate(585.302734 0.896875)"/>
      <use xlink:href="#DejaVuSans-20" transform="translate(617.089844 0.896875)"/>
      <use xlink:href="#DejaVuSans-Oblique-4e" transform="translate(648.876953 0.896875)"/>
      <use xlink:href="#DejaVuSans-Oblique-70" transform="translate(730.698411 53.8) scale(0.7)"/>
      <use xlink:href="#DejaVuSans-Oblique-64" transform="translate(723.681641 -26.446875) scale(0.7)"/>
      <use xlink:href="#DejaVuSans-3d" transform="translate(777.86638 0.896875)"/>
      <use xlink:href="#DejaVuSans-38" transform="translate(861.655443 0.896875)"/>
     </g>
    </g>
    <g id="line2d_92">
     <path d="M 156.05 665.959375 
L 176.05 665.959375 
L 196.05 665.959375 
" style="fill: none; stroke-dasharray: 7.4,3.2; stroke-dashoffset: 0; stroke: #7c75b6; stroke-width: 2"/>
     <g>
      <use xlink:href="#m7448134dbb" x="176.05" y="665.959375" style="fill: #7c75b6; stroke: #7c75b6"/>
     </g>
    </g>
    <g id="text_11">
     <!-- CADET-Julia, $N_d^p$=10 -->
     <g transform="translate(212.05 672.959375) scale(0.2 -0.2)">
      <use xlink:href="#DejaVuSans-43" transform="translate(0 0.896875)"/>
      <use xlink:href="#DejaVuSans-41" transform="translate(69.824219 0.896875)"/>
      <use xlink:href="#DejaVuSans-44" transform="translate(138.232422 0.896875)"/>
      <use xlink:href="#DejaVuSans-45" transform="translate(215.234375 0.896875)"/>
      <use xlink:href="#DejaVuSans-54" transform="translate(278.417969 0.896875)"/>
      <use xlink:href="#DejaVuSans-2d" transform="translate(339.501953 0.896875)"/>
      <use xlink:href="#DejaVuSans-4a" transform="translate(375.585938 0.896875)"/>
      <use xlink:href="#DejaVuSans-75" transform="translate(405.078125 0.896875)"/>
      <use xlink:href="#DejaVuSans-6c" transform="translate(468.457031 0.896875)"/>
      <use xlink:href="#DejaVuSans-69" transform="translate(496.240234 0.896875)"/>
      <use xlink:href="#DejaVuSans-61" transform="translate(524.023438 0.896875)"/>
      <use xlink:href="#DejaVuSans-2c" transform="translate(585.302734 0.896875)"/>
      <use xlink:href="#DejaVuSans-20" transform="translate(617.089844 0.896875)"/>
      <use xlink:href="#DejaVuSans-Oblique-4e" transform="translate(648.876953 0.896875)"/>
      <use xlink:href="#DejaVuSans-Oblique-70" transform="translate(730.698411 53.8) scale(0.7)"/>
      <use xlink:href="#DejaVuSans-Oblique-64" transform="translate(723.681641 -26.446875) scale(0.7)"/>
      <use xlink:href="#DejaVuSans-3d" transform="translate(777.86638 0.896875)"/>
      <use xlink:href="#DejaVuSans-31" transform="translate(861.655443 0.896875)"/>
      <use xlink:href="#DejaVuSans-30" transform="translate(925.27849 0.896875)"/>
     </g>
    </g>
    <g id="line2d_93">
     <path d="M 449.85 530 
L 469.85 530 
L 489.85 530 
" style="fill: none; stroke: #67000d; stroke-width: 2; stroke-linecap: square"/>
     <g>
      <use xlink:href="#mc0188caaa9" x="469.85" y="530" style="fill: #67000d; stroke: #67000d; stroke-linejoin: bevel"/>
     </g>
    </g>
    <g id="text_12">
     <!-- CADET-DG, $N_d^p$=4 -->
     <g transform="translate(505.85 537) scale(0.2 -0.2)">
      <defs>
       <path id="DejaVuSans-47" d="M 3809 666 
L 3809 1919 
L 2778 1919 
L 2778 2438 
L 4434 2438 
L 4434 434 
Q 4069 175 3628 42 
Q 3188 -91 2688 -91 
Q 1594 -91 976 548 
Q 359 1188 359 2328 
Q 359 3472 976 4111 
Q 1594 4750 2688 4750 
Q 3144 4750 3555 4637 
Q 3966 4525 4313 4306 
L 4313 3634 
Q 3963 3931 3569 4081 
Q 3175 4231 2741 4231 
Q 1884 4231 1454 3753 
Q 1025 3275 1025 2328 
Q 1025 1384 1454 906 
Q 1884 428 2741 428 
Q 3075 428 3337 486 
Q 3600 544 3809 666 
z
" transform="scale(0.015625)"/>
      </defs>
      <use xlink:href="#DejaVuSans-43" transform="translate(0 0.896875)"/>
      <use xlink:href="#DejaVuSans-41" transform="translate(69.824219 0.896875)"/>
      <use xlink:href="#DejaVuSans-44" transform="translate(138.232422 0.896875)"/>
      <use xlink:href="#DejaVuSans-45" transform="translate(215.234375 0.896875)"/>
      <use xlink:href="#DejaVuSans-54" transform="translate(278.417969 0.896875)"/>
      <use xlink:href="#DejaVuSans-2d" transform="translate(339.501953 0.896875)"/>
      <use xlink:href="#DejaVuSans-44" transform="translate(375.585938 0.896875)"/>
      <use xlink:href="#DejaVuSans-47" transform="translate(452.587891 0.896875)"/>
      <use xlink:href="#DejaVuSans-2c" transform="translate(530.078125 0.896875)"/>
      <use xlink:href="#DejaVuSans-20" transform="translate(561.865234 0.896875)"/>
      <use xlink:href="#DejaVuSans-Oblique-4e" transform="translate(593.652344 0.896875)"/>
      <use xlink:href="#DejaVuSans-Oblique-70" transform="translate(675.473802 53.8) scale(0.7)"/>
      <use xlink:href="#DejaVuSans-Oblique-64" transform="translate(668.457031 -26.446875) scale(0.7)"/>
      <use xlink:href="#DejaVuSans-3d" transform="translate(722.641771 0.896875)"/>
      <use xlink:href="#DejaVuSans-34" transform="translate(806.430833 0.896875)"/>
     </g>
    </g>
    <g id="line2d_94">
     <path d="M 449.85 564.4 
L 469.85 564.4 
L 489.85 564.4 
" style="fill: none; stroke: #af1117; stroke-width: 2; stroke-linecap: square"/>
     <g>
      <use xlink:href="#m1173ed12ae" x="469.85" y="564.4" style="fill: #af1117; stroke: #af1117; stroke-linejoin: bevel"/>
     </g>
    </g>
    <g id="text_13">
     <!-- CADET-DG, $N_d^p$=6 -->
     <g transform="translate(505.85 571.4) scale(0.2 -0.2)">
      <use xlink:href="#DejaVuSans-43" transform="translate(0 0.896875)"/>
      <use xlink:href="#DejaVuSans-41" transform="translate(69.824219 0.896875)"/>
      <use xlink:href="#DejaVuSans-44" transform="translate(138.232422 0.896875)"/>
      <use xlink:href="#DejaVuSans-45" transform="translate(215.234375 0.896875)"/>
      <use xlink:href="#DejaVuSans-54" transform="translate(278.417969 0.896875)"/>
      <use xlink:href="#DejaVuSans-2d" transform="translate(339.501953 0.896875)"/>
      <use xlink:href="#DejaVuSans-44" transform="translate(375.585938 0.896875)"/>
      <use xlink:href="#DejaVuSans-47" transform="translate(452.587891 0.896875)"/>
      <use xlink:href="#DejaVuSans-2c" transform="translate(530.078125 0.896875)"/>
      <use xlink:href="#DejaVuSans-20" transform="translate(561.865234 0.896875)"/>
      <use xlink:href="#DejaVuSans-Oblique-4e" transform="translate(593.652344 0.896875)"/>
      <use xlink:href="#DejaVuSans-Oblique-70" transform="translate(675.473802 53.8) scale(0.7)"/>
      <use xlink:href="#DejaVuSans-Oblique-64" transform="translate(668.457031 -26.446875) scale(0.7)"/>
      <use xlink:href="#DejaVuSans-3d" transform="translate(722.641771 0.896875)"/>
      <use xlink:href="#DejaVuSans-36" transform="translate(806.430833 0.896875)"/>
     </g>
    </g>
    <g id="line2d_95">
     <path d="M 449.85 598.8 
L 469.85 598.8 
L 489.85 598.8 
" style="fill: none; stroke: #dd2a25; stroke-width: 2; stroke-linecap: square"/>
     <g>
      <use xlink:href="#mc53c6e8f02" x="469.85" y="598.8" style="fill: #dd2a25; stroke: #dd2a25; stroke-linejoin: bevel"/>
     </g>
    </g>
    <g id="text_14">
     <!-- CADET-DG, $N_d^p$=8 -->
     <g transform="translate(505.85 605.8) scale(0.2 -0.2)">
      <use xlink:href="#DejaVuSans-43" transform="translate(0 0.896875)"/>
      <use xlink:href="#DejaVuSans-41" transform="translate(69.824219 0.896875)"/>
      <use xlink:href="#DejaVuSans-44" transform="translate(138.232422 0.896875)"/>
      <use xlink:href="#DejaVuSans-45" transform="translate(215.234375 0.896875)"/>
      <use xlink:href="#DejaVuSans-54" transform="translate(278.417969 0.896875)"/>
      <use xlink:href="#DejaVuSans-2d" transform="translate(339.501953 0.896875)"/>
      <use xlink:href="#DejaVuSans-44" transform="translate(375.585938 0.896875)"/>
      <use xlink:href="#DejaVuSans-47" transform="translate(452.587891 0.896875)"/>
      <use xlink:href="#DejaVuSans-2c" transform="translate(530.078125 0.896875)"/>
      <use xlink:href="#DejaVuSans-20" transform="translate(561.865234 0.896875)"/>
      <use xlink:href="#DejaVuSans-Oblique-4e" transform="translate(593.652344 0.896875)"/>
      <use xlink:href="#DejaVuSans-Oblique-70" transform="translate(675.473802 53.8) scale(0.7)"/>
      <use xlink:href="#DejaVuSans-Oblique-64" transform="translate(668.457031 -26.446875) scale(0.7)"/>
      <use xlink:href="#DejaVuSans-3d" transform="translate(722.641771 0.896875)"/>
      <use xlink:href="#DejaVuSans-38" transform="translate(806.430833 0.896875)"/>
     </g>
    </g>
    <g id="line2d_96">
     <path d="M 449.85 633.2 
L 469.85 633.2 
L 489.85 633.2 
" style="fill: none; stroke: #f85f43; stroke-width: 2; stroke-linecap: square"/>
     <g>
      <use xlink:href="#m3956190a24" x="469.85" y="633.2" style="fill: #f85f43; stroke: #f85f43; stroke-linejoin: bevel"/>
     </g>
    </g>
    <g id="text_15">
     <!-- CADET-DG, $N_d^p$=10 -->
     <g transform="translate(505.85 640.2) scale(0.2 -0.2)">
      <use xlink:href="#DejaVuSans-43" transform="translate(0 0.896875)"/>
      <use xlink:href="#DejaVuSans-41" transform="translate(69.824219 0.896875)"/>
      <use xlink:href="#DejaVuSans-44" transform="translate(138.232422 0.896875)"/>
      <use xlink:href="#DejaVuSans-45" transform="translate(215.234375 0.896875)"/>
      <use xlink:href="#DejaVuSans-54" transform="translate(278.417969 0.896875)"/>
      <use xlink:href="#DejaVuSans-2d" transform="translate(339.501953 0.896875)"/>
      <use xlink:href="#DejaVuSans-44" transform="translate(375.585938 0.896875)"/>
      <use xlink:href="#DejaVuSans-47" transform="translate(452.587891 0.896875)"/>
      <use xlink:href="#DejaVuSans-2c" transform="translate(530.078125 0.896875)"/>
      <use xlink:href="#DejaVuSans-20" transform="translate(561.865234 0.896875)"/>
      <use xlink:href="#DejaVuSans-Oblique-4e" transform="translate(593.652344 0.896875)"/>
      <use xlink:href="#DejaVuSans-Oblique-70" transform="translate(675.473802 53.8) scale(0.7)"/>
      <use xlink:href="#DejaVuSans-Oblique-64" transform="translate(668.457031 -26.446875) scale(0.7)"/>
      <use xlink:href="#DejaVuSans-3d" transform="translate(722.641771 0.896875)"/>
      <use xlink:href="#DejaVuSans-31" transform="translate(806.430833 0.896875)"/>
      <use xlink:href="#DejaVuSans-30" transform="translate(870.05388 0.896875)"/>
     </g>
    </g>
   </g>
  </g>
 </g>
 <defs>
  <clipPath id="pb7879bc328">
   <rect x="103.5" y="86.4" width="641.7" height="360"/>
  </clipPath>
 </defs>
</svg>
