<?xml version="1.0" encoding="utf-8" standalone="no"?>
<!DOCTYPE svg PUBLIC "-//W3C//DTD SVG 1.1//EN"
  "http://www.w3.org/Graphics/SVG/1.1/DTD/svg11.dtd">
<svg xmlns:xlink="http://www.w3.org/1999/xlink" width="828pt" height="720pt" viewBox="0 0 828 720" xmlns="http://www.w3.org/2000/svg" version="1.1">
 <metadata>
  <rdf:RDF xmlns:dc="http://purl.org/dc/elements/1.1/" xmlns:cc="http://creativecommons.org/ns#" xmlns:rdf="http://www.w3.org/1999/02/22-rdf-syntax-ns#">
   <cc:Work>
    <dc:type rdf:resource="http://purl.org/dc/dcmitype/StillImage"/>
    <dc:date>2024-04-16T10:47:58.734839</dc:date>
    <dc:format>image/svg+xml</dc:format>
    <dc:creator>
     <cc:Agent>
      <dc:title>Matplotlib v3.7.1, https://matplotlib.org/</dc:title>
     </cc:Agent>
    </dc:creator>
   </cc:Work>
  </rdf:RDF>
 </metadata>
 <defs>
  <style type="text/css">*{stroke-linejoin: round; stroke-linecap: butt}</style>
 </defs>
 <g id="figure_1">
  <g id="patch_1">
   <path d="M 0 720 
L 828 720 
L 828 0 
L 0 0 
z
" style="fill: #ffffff"/>
  </g>
  <g id="axes_1">
   <g id="patch_2">
    <path d="M 103.5 489.6 
L 745.2 489.6 
L 745.2 86.4 
L 103.5 86.4 
z
" style="fill: #ffffff"/>
   </g>
   <g id="matplotlib.axis_1">
    <g id="xtick_1">
     <g id="line2d_1">
      <path d="M 182.09538 489.6 
L 182.09538 86.4 
" clip-path="url(#p5cf3c4ee06)" style="fill: none; stroke-dasharray: 1.85,0.8; stroke-dashoffset: 0; stroke: #b0b0b0; stroke-width: 0.5"/>
     </g>
     <g id="line2d_2">
      <defs>
       <path id="m67bcde9fed" d="M 0 0 
L 0 3.5 
" style="stroke: #000000; stroke-width: 0.8"/>
      </defs>
      <g>
       <use xlink:href="#m67bcde9fed" x="182.09538" y="489.6" style="stroke: #000000; stroke-width: 0.8"/>
      </g>
     </g>
     <g id="text_1">
      <!-- $\mathdefault{10^{-2}}$ -->
      <g transform="translate(156.24538 513.316563) scale(0.22 -0.22)">
       <defs>
        <path id="DejaVuSans-31" d="M 794 531 
L 1825 531 
L 1825 4091 
L 703 3866 
L 703 4441 
L 1819 4666 
L 2450 4666 
L 2450 531 
L 3481 531 
L 3481 0 
L 794 0 
L 794 531 
z
" transform="scale(0.015625)"/>
        <path id="DejaVuSans-30" d="M 2034 4250 
Q 1547 4250 1301 3770 
Q 1056 3291 1056 2328 
Q 1056 1369 1301 889 
Q 1547 409 2034 409 
Q 2525 409 2770 889 
Q 3016 1369 3016 2328 
Q 3016 3291 2770 3770 
Q 2525 4250 2034 4250 
z
M 2034 4750 
Q 2819 4750 3233 4129 
Q 3647 3509 3647 2328 
Q 3647 1150 3233 529 
Q 2819 -91 2034 -91 
Q 1250 -91 836 529 
Q 422 1150 422 2328 
Q 422 3509 836 4129 
Q 1250 4750 2034 4750 
z
" transform="scale(0.015625)"/>
        <path id="DejaVuSans-2212" d="M 678 2272 
L 4684 2272 
L 4684 1741 
L 678 1741 
L 678 2272 
z
" transform="scale(0.015625)"/>
        <path id="DejaVuSans-32" d="M 1228 531 
L 3431 531 
L 3431 0 
L 469 0 
L 469 531 
Q 828 903 1448 1529 
Q 2069 2156 2228 2338 
Q 2531 2678 2651 2914 
Q 2772 3150 2772 3378 
Q 2772 3750 2511 3984 
Q 2250 4219 1831 4219 
Q 1534 4219 1204 4116 
Q 875 4013 500 3803 
L 500 4441 
Q 881 4594 1212 4672 
Q 1544 4750 1819 4750 
Q 2544 4750 2975 4387 
Q 3406 4025 3406 3419 
Q 3406 3131 3298 2873 
Q 3191 2616 2906 2266 
Q 2828 2175 2409 1742 
Q 1991 1309 1228 531 
z
" transform="scale(0.015625)"/>
       </defs>
       <use xlink:href="#DejaVuSans-31" transform="translate(0 0.765625)"/>
       <use xlink:href="#DejaVuSans-30" transform="translate(63.623047 0.765625)"/>
       <use xlink:href="#DejaVuSans-2212" transform="translate(128.203125 39.046875) scale(0.7)"/>
       <use xlink:href="#DejaVuSans-32" transform="translate(186.855469 39.046875) scale(0.7)"/>
      </g>
     </g>
    </g>
    <g id="xtick_2">
     <g id="line2d_3">
      <path d="M 376.377054 489.6 
L 376.377054 86.4 
" clip-path="url(#p5cf3c4ee06)" style="fill: none; stroke-dasharray: 1.85,0.8; stroke-dashoffset: 0; stroke: #b0b0b0; stroke-width: 0.5"/>
     </g>
     <g id="line2d_4">
      <g>
       <use xlink:href="#m67bcde9fed" x="376.377054" y="489.6" style="stroke: #000000; stroke-width: 0.8"/>
      </g>
     </g>
     <g id="text_2">
      <!-- $\mathdefault{10^{-1}}$ -->
      <g transform="translate(350.527054 513.316563) scale(0.22 -0.22)">
       <use xlink:href="#DejaVuSans-31" transform="translate(0 0.684375)"/>
       <use xlink:href="#DejaVuSans-30" transform="translate(63.623047 0.684375)"/>
       <use xlink:href="#DejaVuSans-2212" transform="translate(128.203125 38.965625) scale(0.7)"/>
       <use xlink:href="#DejaVuSans-31" transform="translate(186.855469 38.965625) scale(0.7)"/>
      </g>
     </g>
    </g>
    <g id="xtick_3">
     <g id="line2d_5">
      <path d="M 570.658729 489.6 
L 570.658729 86.4 
" clip-path="url(#p5cf3c4ee06)" style="fill: none; stroke-dasharray: 1.85,0.8; stroke-dashoffset: 0; stroke: #b0b0b0; stroke-width: 0.5"/>
     </g>
     <g id="line2d_6">
      <g>
       <use xlink:href="#m67bcde9fed" x="570.658729" y="489.6" style="stroke: #000000; stroke-width: 0.8"/>
      </g>
     </g>
     <g id="text_3">
      <!-- $\mathdefault{10^{0}}$ -->
      <g transform="translate(551.298729 513.316563) scale(0.22 -0.22)">
       <use xlink:href="#DejaVuSans-31" transform="translate(0 0.765625)"/>
       <use xlink:href="#DejaVuSans-30" transform="translate(63.623047 0.765625)"/>
       <use xlink:href="#DejaVuSans-30" transform="translate(128.203125 39.046875) scale(0.7)"/>
      </g>
     </g>
    </g>
    <g id="xtick_4">
     <g id="line2d_7">
      <path d="M 104.782928 489.6 
L 104.782928 86.4 
" clip-path="url(#p5cf3c4ee06)" style="fill: none; stroke-dasharray: 1.85,0.8; stroke-dashoffset: 0; stroke: #b0b0b0; stroke-width: 0.5"/>
     </g>
     <g id="line2d_8">
      <defs>
       <path id="m503d8c810c" d="M 0 0 
L 0 2 
" style="stroke: #000000; stroke-width: 0.6"/>
      </defs>
      <g>
       <use xlink:href="#m503d8c810c" x="104.782928" y="489.6" style="stroke: #000000; stroke-width: 0.6"/>
      </g>
     </g>
    </g>
    <g id="xtick_5">
     <g id="line2d_9">
      <path d="M 123.610768 489.6 
L 123.610768 86.4 
" clip-path="url(#p5cf3c4ee06)" style="fill: none; stroke-dasharray: 1.85,0.8; stroke-dashoffset: 0; stroke: #b0b0b0; stroke-width: 0.5"/>
     </g>
     <g id="line2d_10">
      <g>
       <use xlink:href="#m503d8c810c" x="123.610768" y="489.6" style="stroke: #000000; stroke-width: 0.6"/>
      </g>
     </g>
    </g>
    <g id="xtick_6">
     <g id="line2d_11">
      <path d="M 138.994233 489.6 
L 138.994233 86.4 
" clip-path="url(#p5cf3c4ee06)" style="fill: none; stroke-dasharray: 1.85,0.8; stroke-dashoffset: 0; stroke: #b0b0b0; stroke-width: 0.5"/>
     </g>
     <g id="line2d_12">
      <g>
       <use xlink:href="#m503d8c810c" x="138.994233" y="489.6" style="stroke: #000000; stroke-width: 0.6"/>
      </g>
     </g>
    </g>
    <g id="xtick_7">
     <g id="line2d_13">
      <path d="M 152.000767 489.6 
L 152.000767 86.4 
" clip-path="url(#p5cf3c4ee06)" style="fill: none; stroke-dasharray: 1.85,0.8; stroke-dashoffset: 0; stroke: #b0b0b0; stroke-width: 0.5"/>
     </g>
     <g id="line2d_14">
      <g>
       <use xlink:href="#m503d8c810c" x="152.000767" y="489.6" style="stroke: #000000; stroke-width: 0.6"/>
      </g>
     </g>
    </g>
    <g id="xtick_8">
     <g id="line2d_15">
      <path d="M 163.26754 489.6 
L 163.26754 86.4 
" clip-path="url(#p5cf3c4ee06)" style="fill: none; stroke-dasharray: 1.85,0.8; stroke-dashoffset: 0; stroke: #b0b0b0; stroke-width: 0.5"/>
     </g>
     <g id="line2d_16">
      <g>
       <use xlink:href="#m503d8c810c" x="163.26754" y="489.6" style="stroke: #000000; stroke-width: 0.6"/>
      </g>
     </g>
    </g>
    <g id="xtick_9">
     <g id="line2d_17">
      <path d="M 173.205538 489.6 
L 173.205538 86.4 
" clip-path="url(#p5cf3c4ee06)" style="fill: none; stroke-dasharray: 1.85,0.8; stroke-dashoffset: 0; stroke: #b0b0b0; stroke-width: 0.5"/>
     </g>
     <g id="line2d_18">
      <g>
       <use xlink:href="#m503d8c810c" x="173.205538" y="489.6" style="stroke: #000000; stroke-width: 0.6"/>
      </g>
     </g>
    </g>
    <g id="xtick_10">
     <g id="line2d_19">
      <path d="M 240.579991 489.6 
L 240.579991 86.4 
" clip-path="url(#p5cf3c4ee06)" style="fill: none; stroke-dasharray: 1.85,0.8; stroke-dashoffset: 0; stroke: #b0b0b0; stroke-width: 0.5"/>
     </g>
     <g id="line2d_20">
      <g>
       <use xlink:href="#m503d8c810c" x="240.579991" y="489.6" style="stroke: #000000; stroke-width: 0.6"/>
      </g>
     </g>
    </g>
    <g id="xtick_11">
     <g id="line2d_21">
      <path d="M 274.791296 489.6 
L 274.791296 86.4 
" clip-path="url(#p5cf3c4ee06)" style="fill: none; stroke-dasharray: 1.85,0.8; stroke-dashoffset: 0; stroke: #b0b0b0; stroke-width: 0.5"/>
     </g>
     <g id="line2d_22">
      <g>
       <use xlink:href="#m503d8c810c" x="274.791296" y="489.6" style="stroke: #000000; stroke-width: 0.6"/>
      </g>
     </g>
    </g>
    <g id="xtick_12">
     <g id="line2d_23">
      <path d="M 299.064603 489.6 
L 299.064603 86.4 
" clip-path="url(#p5cf3c4ee06)" style="fill: none; stroke-dasharray: 1.85,0.8; stroke-dashoffset: 0; stroke: #b0b0b0; stroke-width: 0.5"/>
     </g>
     <g id="line2d_24">
      <g>
       <use xlink:href="#m503d8c810c" x="299.064603" y="489.6" style="stroke: #000000; stroke-width: 0.6"/>
      </g>
     </g>
    </g>
    <g id="xtick_13">
     <g id="line2d_25">
      <path d="M 317.892443 489.6 
L 317.892443 86.4 
" clip-path="url(#p5cf3c4ee06)" style="fill: none; stroke-dasharray: 1.85,0.8; stroke-dashoffset: 0; stroke: #b0b0b0; stroke-width: 0.5"/>
     </g>
     <g id="line2d_26">
      <g>
       <use xlink:href="#m503d8c810c" x="317.892443" y="489.6" style="stroke: #000000; stroke-width: 0.6"/>
      </g>
     </g>
    </g>
    <g id="xtick_14">
     <g id="line2d_27">
      <path d="M 333.275908 489.6 
L 333.275908 86.4 
" clip-path="url(#p5cf3c4ee06)" style="fill: none; stroke-dasharray: 1.85,0.8; stroke-dashoffset: 0; stroke: #b0b0b0; stroke-width: 0.5"/>
     </g>
     <g id="line2d_28">
      <g>
       <use xlink:href="#m503d8c810c" x="333.275908" y="489.6" style="stroke: #000000; stroke-width: 0.6"/>
      </g>
     </g>
    </g>
    <g id="xtick_15">
     <g id="line2d_29">
      <path d="M 346.282442 489.6 
L 346.282442 86.4 
" clip-path="url(#p5cf3c4ee06)" style="fill: none; stroke-dasharray: 1.85,0.8; stroke-dashoffset: 0; stroke: #b0b0b0; stroke-width: 0.5"/>
     </g>
     <g id="line2d_30">
      <g>
       <use xlink:href="#m503d8c810c" x="346.282442" y="489.6" style="stroke: #000000; stroke-width: 0.6"/>
      </g>
     </g>
    </g>
    <g id="xtick_16">
     <g id="line2d_31">
      <path d="M 357.549215 489.6 
L 357.549215 86.4 
" clip-path="url(#p5cf3c4ee06)" style="fill: none; stroke-dasharray: 1.85,0.8; stroke-dashoffset: 0; stroke: #b0b0b0; stroke-width: 0.5"/>
     </g>
     <g id="line2d_32">
      <g>
       <use xlink:href="#m503d8c810c" x="357.549215" y="489.6" style="stroke: #000000; stroke-width: 0.6"/>
      </g>
     </g>
    </g>
    <g id="xtick_17">
     <g id="line2d_33">
      <path d="M 367.487212 489.6 
L 367.487212 86.4 
" clip-path="url(#p5cf3c4ee06)" style="fill: none; stroke-dasharray: 1.85,0.8; stroke-dashoffset: 0; stroke: #b0b0b0; stroke-width: 0.5"/>
     </g>
     <g id="line2d_34">
      <g>
       <use xlink:href="#m503d8c810c" x="367.487212" y="489.6" style="stroke: #000000; stroke-width: 0.6"/>
      </g>
     </g>
    </g>
    <g id="xtick_18">
     <g id="line2d_35">
      <path d="M 434.861666 489.6 
L 434.861666 86.4 
" clip-path="url(#p5cf3c4ee06)" style="fill: none; stroke-dasharray: 1.85,0.8; stroke-dashoffset: 0; stroke: #b0b0b0; stroke-width: 0.5"/>
     </g>
     <g id="line2d_36">
      <g>
       <use xlink:href="#m503d8c810c" x="434.861666" y="489.6" style="stroke: #000000; stroke-width: 0.6"/>
      </g>
     </g>
    </g>
    <g id="xtick_19">
     <g id="line2d_37">
      <path d="M 469.072971 489.6 
L 469.072971 86.4 
" clip-path="url(#p5cf3c4ee06)" style="fill: none; stroke-dasharray: 1.85,0.8; stroke-dashoffset: 0; stroke: #b0b0b0; stroke-width: 0.5"/>
     </g>
     <g id="line2d_38">
      <g>
       <use xlink:href="#m503d8c810c" x="469.072971" y="489.6" style="stroke: #000000; stroke-width: 0.6"/>
      </g>
     </g>
    </g>
    <g id="xtick_20">
     <g id="line2d_39">
      <path d="M 493.346278 489.6 
L 493.346278 86.4 
" clip-path="url(#p5cf3c4ee06)" style="fill: none; stroke-dasharray: 1.85,0.8; stroke-dashoffset: 0; stroke: #b0b0b0; stroke-width: 0.5"/>
     </g>
     <g id="line2d_40">
      <g>
       <use xlink:href="#m503d8c810c" x="493.346278" y="489.6" style="stroke: #000000; stroke-width: 0.6"/>
      </g>
     </g>
    </g>
    <g id="xtick_21">
     <g id="line2d_41">
      <path d="M 512.174117 489.6 
L 512.174117 86.4 
" clip-path="url(#p5cf3c4ee06)" style="fill: none; stroke-dasharray: 1.85,0.8; stroke-dashoffset: 0; stroke: #b0b0b0; stroke-width: 0.5"/>
     </g>
     <g id="line2d_42">
      <g>
       <use xlink:href="#m503d8c810c" x="512.174117" y="489.6" style="stroke: #000000; stroke-width: 0.6"/>
      </g>
     </g>
    </g>
    <g id="xtick_22">
     <g id="line2d_43">
      <path d="M 527.557582 489.6 
L 527.557582 86.4 
" clip-path="url(#p5cf3c4ee06)" style="fill: none; stroke-dasharray: 1.85,0.8; stroke-dashoffset: 0; stroke: #b0b0b0; stroke-width: 0.5"/>
     </g>
     <g id="line2d_44">
      <g>
       <use xlink:href="#m503d8c810c" x="527.557582" y="489.6" style="stroke: #000000; stroke-width: 0.6"/>
      </g>
     </g>
    </g>
    <g id="xtick_23">
     <g id="line2d_45">
      <path d="M 540.564117 489.6 
L 540.564117 86.4 
" clip-path="url(#p5cf3c4ee06)" style="fill: none; stroke-dasharray: 1.85,0.8; stroke-dashoffset: 0; stroke: #b0b0b0; stroke-width: 0.5"/>
     </g>
     <g id="line2d_46">
      <g>
       <use xlink:href="#m503d8c810c" x="540.564117" y="489.6" style="stroke: #000000; stroke-width: 0.6"/>
      </g>
     </g>
    </g>
    <g id="xtick_24">
     <g id="line2d_47">
      <path d="M 551.830889 489.6 
L 551.830889 86.4 
" clip-path="url(#p5cf3c4ee06)" style="fill: none; stroke-dasharray: 1.85,0.8; stroke-dashoffset: 0; stroke: #b0b0b0; stroke-width: 0.5"/>
     </g>
     <g id="line2d_48">
      <g>
       <use xlink:href="#m503d8c810c" x="551.830889" y="489.6" style="stroke: #000000; stroke-width: 0.6"/>
      </g>
     </g>
    </g>
    <g id="xtick_25">
     <g id="line2d_49">
      <path d="M 561.768887 489.6 
L 561.768887 86.4 
" clip-path="url(#p5cf3c4ee06)" style="fill: none; stroke-dasharray: 1.85,0.8; stroke-dashoffset: 0; stroke: #b0b0b0; stroke-width: 0.5"/>
     </g>
     <g id="line2d_50">
      <g>
       <use xlink:href="#m503d8c810c" x="561.768887" y="489.6" style="stroke: #000000; stroke-width: 0.6"/>
      </g>
     </g>
    </g>
    <g id="xtick_26">
     <g id="line2d_51">
      <path d="M 629.14334 489.6 
L 629.14334 86.4 
" clip-path="url(#p5cf3c4ee06)" style="fill: none; stroke-dasharray: 1.85,0.8; stroke-dashoffset: 0; stroke: #b0b0b0; stroke-width: 0.5"/>
     </g>
     <g id="line2d_52">
      <g>
       <use xlink:href="#m503d8c810c" x="629.14334" y="489.6" style="stroke: #000000; stroke-width: 0.6"/>
      </g>
     </g>
    </g>
    <g id="xtick_27">
     <g id="line2d_53">
      <path d="M 663.354645 489.6 
L 663.354645 86.4 
" clip-path="url(#p5cf3c4ee06)" style="fill: none; stroke-dasharray: 1.85,0.8; stroke-dashoffset: 0; stroke: #b0b0b0; stroke-width: 0.5"/>
     </g>
     <g id="line2d_54">
      <g>
       <use xlink:href="#m503d8c810c" x="663.354645" y="489.6" style="stroke: #000000; stroke-width: 0.6"/>
      </g>
     </g>
    </g>
    <g id="xtick_28">
     <g id="line2d_55">
      <path d="M 687.627952 489.6 
L 687.627952 86.4 
" clip-path="url(#p5cf3c4ee06)" style="fill: none; stroke-dasharray: 1.85,0.8; stroke-dashoffset: 0; stroke: #b0b0b0; stroke-width: 0.5"/>
     </g>
     <g id="line2d_56">
      <g>
       <use xlink:href="#m503d8c810c" x="687.627952" y="489.6" style="stroke: #000000; stroke-width: 0.6"/>
      </g>
     </g>
    </g>
    <g id="xtick_29">
     <g id="line2d_57">
      <path d="M 706.455792 489.6 
L 706.455792 86.4 
" clip-path="url(#p5cf3c4ee06)" style="fill: none; stroke-dasharray: 1.85,0.8; stroke-dashoffset: 0; stroke: #b0b0b0; stroke-width: 0.5"/>
     </g>
     <g id="line2d_58">
      <g>
       <use xlink:href="#m503d8c810c" x="706.455792" y="489.6" style="stroke: #000000; stroke-width: 0.6"/>
      </g>
     </g>
    </g>
    <g id="xtick_30">
     <g id="line2d_59">
      <path d="M 721.839257 489.6 
L 721.839257 86.4 
" clip-path="url(#p5cf3c4ee06)" style="fill: none; stroke-dasharray: 1.85,0.8; stroke-dashoffset: 0; stroke: #b0b0b0; stroke-width: 0.5"/>
     </g>
     <g id="line2d_60">
      <g>
       <use xlink:href="#m503d8c810c" x="721.839257" y="489.6" style="stroke: #000000; stroke-width: 0.6"/>
      </g>
     </g>
    </g>
    <g id="xtick_31">
     <g id="line2d_61">
      <path d="M 734.845791 489.6 
L 734.845791 86.4 
" clip-path="url(#p5cf3c4ee06)" style="fill: none; stroke-dasharray: 1.85,0.8; stroke-dashoffset: 0; stroke: #b0b0b0; stroke-width: 0.5"/>
     </g>
     <g id="line2d_62">
      <g>
       <use xlink:href="#m503d8c810c" x="734.845791" y="489.6" style="stroke: #000000; stroke-width: 0.6"/>
      </g>
     </g>
    </g>
    <g id="text_4">
     <!-- Simulation time (s) -->
     <g transform="translate(305.316797 540.887969) scale(0.25 -0.25)">
      <defs>
       <path id="DejaVuSans-53" d="M 3425 4513 
L 3425 3897 
Q 3066 4069 2747 4153 
Q 2428 4238 2131 4238 
Q 1616 4238 1336 4038 
Q 1056 3838 1056 3469 
Q 1056 3159 1242 3001 
Q 1428 2844 1947 2747 
L 2328 2669 
Q 3034 2534 3370 2195 
Q 3706 1856 3706 1288 
Q 3706 609 3251 259 
Q 2797 -91 1919 -91 
Q 1588 -91 1214 -16 
Q 841 59 441 206 
L 441 856 
Q 825 641 1194 531 
Q 1563 422 1919 422 
Q 2459 422 2753 634 
Q 3047 847 3047 1241 
Q 3047 1584 2836 1778 
Q 2625 1972 2144 2069 
L 1759 2144 
Q 1053 2284 737 2584 
Q 422 2884 422 3419 
Q 422 4038 858 4394 
Q 1294 4750 2059 4750 
Q 2388 4750 2728 4690 
Q 3069 4631 3425 4513 
z
" transform="scale(0.015625)"/>
       <path id="DejaVuSans-69" d="M 603 3500 
L 1178 3500 
L 1178 0 
L 603 0 
L 603 3500 
z
M 603 4863 
L 1178 4863 
L 1178 4134 
L 603 4134 
L 603 4863 
z
" transform="scale(0.015625)"/>
       <path id="DejaVuSans-6d" d="M 3328 2828 
Q 3544 3216 3844 3400 
Q 4144 3584 4550 3584 
Q 5097 3584 5394 3201 
Q 5691 2819 5691 2113 
L 5691 0 
L 5113 0 
L 5113 2094 
Q 5113 2597 4934 2840 
Q 4756 3084 4391 3084 
Q 3944 3084 3684 2787 
Q 3425 2491 3425 1978 
L 3425 0 
L 2847 0 
L 2847 2094 
Q 2847 2600 2669 2842 
Q 2491 3084 2119 3084 
Q 1678 3084 1418 2786 
Q 1159 2488 1159 1978 
L 1159 0 
L 581 0 
L 581 3500 
L 1159 3500 
L 1159 2956 
Q 1356 3278 1631 3431 
Q 1906 3584 2284 3584 
Q 2666 3584 2933 3390 
Q 3200 3197 3328 2828 
z
" transform="scale(0.015625)"/>
       <path id="DejaVuSans-75" d="M 544 1381 
L 544 3500 
L 1119 3500 
L 1119 1403 
Q 1119 906 1312 657 
Q 1506 409 1894 409 
Q 2359 409 2629 706 
Q 2900 1003 2900 1516 
L 2900 3500 
L 3475 3500 
L 3475 0 
L 2900 0 
L 2900 538 
Q 2691 219 2414 64 
Q 2138 -91 1772 -91 
Q 1169 -91 856 284 
Q 544 659 544 1381 
z
M 1991 3584 
L 1991 3584 
z
" transform="scale(0.015625)"/>
       <path id="DejaVuSans-6c" d="M 603 4863 
L 1178 4863 
L 1178 0 
L 603 0 
L 603 4863 
z
" transform="scale(0.015625)"/>
       <path id="DejaVuSans-61" d="M 2194 1759 
Q 1497 1759 1228 1600 
Q 959 1441 959 1056 
Q 959 750 1161 570 
Q 1363 391 1709 391 
Q 2188 391 2477 730 
Q 2766 1069 2766 1631 
L 2766 1759 
L 2194 1759 
z
M 3341 1997 
L 3341 0 
L 2766 0 
L 2766 531 
Q 2569 213 2275 61 
Q 1981 -91 1556 -91 
Q 1019 -91 701 211 
Q 384 513 384 1019 
Q 384 1609 779 1909 
Q 1175 2209 1959 2209 
L 2766 2209 
L 2766 2266 
Q 2766 2663 2505 2880 
Q 2244 3097 1772 3097 
Q 1472 3097 1187 3025 
Q 903 2953 641 2809 
L 641 3341 
Q 956 3463 1253 3523 
Q 1550 3584 1831 3584 
Q 2591 3584 2966 3190 
Q 3341 2797 3341 1997 
z
" transform="scale(0.015625)"/>
       <path id="DejaVuSans-74" d="M 1172 4494 
L 1172 3500 
L 2356 3500 
L 2356 3053 
L 1172 3053 
L 1172 1153 
Q 1172 725 1289 603 
Q 1406 481 1766 481 
L 2356 481 
L 2356 0 
L 1766 0 
Q 1100 0 847 248 
Q 594 497 594 1153 
L 594 3053 
L 172 3053 
L 172 3500 
L 594 3500 
L 594 4494 
L 1172 4494 
z
" transform="scale(0.015625)"/>
       <path id="DejaVuSans-6f" d="M 1959 3097 
Q 1497 3097 1228 2736 
Q 959 2375 959 1747 
Q 959 1119 1226 758 
Q 1494 397 1959 397 
Q 2419 397 2687 759 
Q 2956 1122 2956 1747 
Q 2956 2369 2687 2733 
Q 2419 3097 1959 3097 
z
M 1959 3584 
Q 2709 3584 3137 3096 
Q 3566 2609 3566 1747 
Q 3566 888 3137 398 
Q 2709 -91 1959 -91 
Q 1206 -91 779 398 
Q 353 888 353 1747 
Q 353 2609 779 3096 
Q 1206 3584 1959 3584 
z
" transform="scale(0.015625)"/>
       <path id="DejaVuSans-6e" d="M 3513 2113 
L 3513 0 
L 2938 0 
L 2938 2094 
Q 2938 2591 2744 2837 
Q 2550 3084 2163 3084 
Q 1697 3084 1428 2787 
Q 1159 2491 1159 1978 
L 1159 0 
L 581 0 
L 581 3500 
L 1159 3500 
L 1159 2956 
Q 1366 3272 1645 3428 
Q 1925 3584 2291 3584 
Q 2894 3584 3203 3211 
Q 3513 2838 3513 2113 
z
" transform="scale(0.015625)"/>
       <path id="DejaVuSans-20" transform="scale(0.015625)"/>
       <path id="DejaVuSans-65" d="M 3597 1894 
L 3597 1613 
L 953 1613 
Q 991 1019 1311 708 
Q 1631 397 2203 397 
Q 2534 397 2845 478 
Q 3156 559 3463 722 
L 3463 178 
Q 3153 47 2828 -22 
Q 2503 -91 2169 -91 
Q 1331 -91 842 396 
Q 353 884 353 1716 
Q 353 2575 817 3079 
Q 1281 3584 2069 3584 
Q 2775 3584 3186 3129 
Q 3597 2675 3597 1894 
z
M 3022 2063 
Q 3016 2534 2758 2815 
Q 2500 3097 2075 3097 
Q 1594 3097 1305 2825 
Q 1016 2553 972 2059 
L 3022 2063 
z
" transform="scale(0.015625)"/>
       <path id="DejaVuSans-28" d="M 1984 4856 
Q 1566 4138 1362 3434 
Q 1159 2731 1159 2009 
Q 1159 1288 1364 580 
Q 1569 -128 1984 -844 
L 1484 -844 
Q 1016 -109 783 600 
Q 550 1309 550 2009 
Q 550 2706 781 3412 
Q 1013 4119 1484 4856 
L 1984 4856 
z
" transform="scale(0.015625)"/>
       <path id="DejaVuSans-73" d="M 2834 3397 
L 2834 2853 
Q 2591 2978 2328 3040 
Q 2066 3103 1784 3103 
Q 1356 3103 1142 2972 
Q 928 2841 928 2578 
Q 928 2378 1081 2264 
Q 1234 2150 1697 2047 
L 1894 2003 
Q 2506 1872 2764 1633 
Q 3022 1394 3022 966 
Q 3022 478 2636 193 
Q 2250 -91 1575 -91 
Q 1294 -91 989 -36 
Q 684 19 347 128 
L 347 722 
Q 666 556 975 473 
Q 1284 391 1588 391 
Q 1994 391 2212 530 
Q 2431 669 2431 922 
Q 2431 1156 2273 1281 
Q 2116 1406 1581 1522 
L 1381 1569 
Q 847 1681 609 1914 
Q 372 2147 372 2553 
Q 372 3047 722 3315 
Q 1072 3584 1716 3584 
Q 2034 3584 2315 3537 
Q 2597 3491 2834 3397 
z
" transform="scale(0.015625)"/>
       <path id="DejaVuSans-29" d="M 513 4856 
L 1013 4856 
Q 1481 4119 1714 3412 
Q 1947 2706 1947 2009 
Q 1947 1309 1714 600 
Q 1481 -109 1013 -844 
L 513 -844 
Q 928 -128 1133 580 
Q 1338 1288 1338 2009 
Q 1338 2731 1133 3434 
Q 928 4138 513 4856 
z
" transform="scale(0.015625)"/>
      </defs>
      <use xlink:href="#DejaVuSans-53"/>
      <use xlink:href="#DejaVuSans-69" x="63.476562"/>
      <use xlink:href="#DejaVuSans-6d" x="91.259766"/>
      <use xlink:href="#DejaVuSans-75" x="188.671875"/>
      <use xlink:href="#DejaVuSans-6c" x="252.050781"/>
      <use xlink:href="#DejaVuSans-61" x="279.833984"/>
      <use xlink:href="#DejaVuSans-74" x="341.113281"/>
      <use xlink:href="#DejaVuSans-69" x="380.322266"/>
      <use xlink:href="#DejaVuSans-6f" x="408.105469"/>
      <use xlink:href="#DejaVuSans-6e" x="469.287109"/>
      <use xlink:href="#DejaVuSans-20" x="532.666016"/>
      <use xlink:href="#DejaVuSans-74" x="564.453125"/>
      <use xlink:href="#DejaVuSans-69" x="603.662109"/>
      <use xlink:href="#DejaVuSans-6d" x="631.445312"/>
      <use xlink:href="#DejaVuSans-65" x="728.857422"/>
      <use xlink:href="#DejaVuSans-20" x="790.380859"/>
      <use xlink:href="#DejaVuSans-28" x="822.167969"/>
      <use xlink:href="#DejaVuSans-73" x="861.181641"/>
      <use xlink:href="#DejaVuSans-29" x="913.28125"/>
     </g>
    </g>
   </g>
   <g id="matplotlib.axis_2">
    <g id="ytick_1">
     <g id="line2d_63">
      <path d="M 103.5 435.84411 
L 745.2 435.84411 
" clip-path="url(#p5cf3c4ee06)" style="fill: none; stroke-dasharray: 1.85,0.8; stroke-dashoffset: 0; stroke: #b0b0b0; stroke-width: 0.5"/>
     </g>
     <g id="line2d_64">
      <defs>
       <path id="m8c74a9b091" d="M 0 0 
L -3.5 0 
" style="stroke: #000000; stroke-width: 0.8"/>
      </defs>
      <g>
       <use xlink:href="#m8c74a9b091" x="103.5" y="435.84411" style="stroke: #000000; stroke-width: 0.8"/>
      </g>
     </g>
     <g id="text_5">
      <!-- $\mathdefault{10^{-8}}$ -->
      <g transform="translate(44.8 444.202392) scale(0.22 -0.22)">
       <defs>
        <path id="DejaVuSans-38" d="M 2034 2216 
Q 1584 2216 1326 1975 
Q 1069 1734 1069 1313 
Q 1069 891 1326 650 
Q 1584 409 2034 409 
Q 2484 409 2743 651 
Q 3003 894 3003 1313 
Q 3003 1734 2745 1975 
Q 2488 2216 2034 2216 
z
M 1403 2484 
Q 997 2584 770 2862 
Q 544 3141 544 3541 
Q 544 4100 942 4425 
Q 1341 4750 2034 4750 
Q 2731 4750 3128 4425 
Q 3525 4100 3525 3541 
Q 3525 3141 3298 2862 
Q 3072 2584 2669 2484 
Q 3125 2378 3379 2068 
Q 3634 1759 3634 1313 
Q 3634 634 3220 271 
Q 2806 -91 2034 -91 
Q 1263 -91 848 271 
Q 434 634 434 1313 
Q 434 1759 690 2068 
Q 947 2378 1403 2484 
z
M 1172 3481 
Q 1172 3119 1398 2916 
Q 1625 2713 2034 2713 
Q 2441 2713 2670 2916 
Q 2900 3119 2900 3481 
Q 2900 3844 2670 4047 
Q 2441 4250 2034 4250 
Q 1625 4250 1398 4047 
Q 1172 3844 1172 3481 
z
" transform="scale(0.015625)"/>
       </defs>
       <use xlink:href="#DejaVuSans-31" transform="translate(0 0.765625)"/>
       <use xlink:href="#DejaVuSans-30" transform="translate(63.623047 0.765625)"/>
       <use xlink:href="#DejaVuSans-2212" transform="translate(128.203125 39.046875) scale(0.7)"/>
       <use xlink:href="#DejaVuSans-38" transform="translate(186.855469 39.046875) scale(0.7)"/>
      </g>
     </g>
    </g>
    <g id="ytick_2">
     <g id="line2d_65">
      <path d="M 103.5 340.336028 
L 745.2 340.336028 
" clip-path="url(#p5cf3c4ee06)" style="fill: none; stroke-dasharray: 1.85,0.8; stroke-dashoffset: 0; stroke: #b0b0b0; stroke-width: 0.5"/>
     </g>
     <g id="line2d_66">
      <g>
       <use xlink:href="#m8c74a9b091" x="103.5" y="340.336028" style="stroke: #000000; stroke-width: 0.8"/>
      </g>
     </g>
     <g id="text_6">
      <!-- $\mathdefault{10^{-6}}$ -->
      <g transform="translate(44.8 348.694309) scale(0.22 -0.22)">
       <defs>
        <path id="DejaVuSans-36" d="M 2113 2584 
Q 1688 2584 1439 2293 
Q 1191 2003 1191 1497 
Q 1191 994 1439 701 
Q 1688 409 2113 409 
Q 2538 409 2786 701 
Q 3034 994 3034 1497 
Q 3034 2003 2786 2293 
Q 2538 2584 2113 2584 
z
M 3366 4563 
L 3366 3988 
Q 3128 4100 2886 4159 
Q 2644 4219 2406 4219 
Q 1781 4219 1451 3797 
Q 1122 3375 1075 2522 
Q 1259 2794 1537 2939 
Q 1816 3084 2150 3084 
Q 2853 3084 3261 2657 
Q 3669 2231 3669 1497 
Q 3669 778 3244 343 
Q 2819 -91 2113 -91 
Q 1303 -91 875 529 
Q 447 1150 447 2328 
Q 447 3434 972 4092 
Q 1497 4750 2381 4750 
Q 2619 4750 2861 4703 
Q 3103 4656 3366 4563 
z
" transform="scale(0.015625)"/>
       </defs>
       <use xlink:href="#DejaVuSans-31" transform="translate(0 0.765625)"/>
       <use xlink:href="#DejaVuSans-30" transform="translate(63.623047 0.765625)"/>
       <use xlink:href="#DejaVuSans-2212" transform="translate(128.203125 39.046875) scale(0.7)"/>
       <use xlink:href="#DejaVuSans-36" transform="translate(186.855469 39.046875) scale(0.7)"/>
      </g>
     </g>
    </g>
    <g id="ytick_3">
     <g id="line2d_67">
      <path d="M 103.5 244.827945 
L 745.2 244.827945 
" clip-path="url(#p5cf3c4ee06)" style="fill: none; stroke-dasharray: 1.85,0.8; stroke-dashoffset: 0; stroke: #b0b0b0; stroke-width: 0.5"/>
     </g>
     <g id="line2d_68">
      <g>
       <use xlink:href="#m8c74a9b091" x="103.5" y="244.827945" style="stroke: #000000; stroke-width: 0.8"/>
      </g>
     </g>
     <g id="text_7">
      <!-- $\mathdefault{10^{-4}}$ -->
      <g transform="translate(44.8 253.186226) scale(0.22 -0.22)">
       <defs>
        <path id="DejaVuSans-34" d="M 2419 4116 
L 825 1625 
L 2419 1625 
L 2419 4116 
z
M 2253 4666 
L 3047 4666 
L 3047 1625 
L 3713 1625 
L 3713 1100 
L 3047 1100 
L 3047 0 
L 2419 0 
L 2419 1100 
L 313 1100 
L 313 1709 
L 2253 4666 
z
" transform="scale(0.015625)"/>
       </defs>
       <use xlink:href="#DejaVuSans-31" transform="translate(0 0.684375)"/>
       <use xlink:href="#DejaVuSans-30" transform="translate(63.623047 0.684375)"/>
       <use xlink:href="#DejaVuSans-2212" transform="translate(128.203125 38.965625) scale(0.7)"/>
       <use xlink:href="#DejaVuSans-34" transform="translate(186.855469 38.965625) scale(0.7)"/>
      </g>
     </g>
    </g>
    <g id="ytick_4">
     <g id="line2d_69">
      <path d="M 103.5 149.319862 
L 745.2 149.319862 
" clip-path="url(#p5cf3c4ee06)" style="fill: none; stroke-dasharray: 1.85,0.8; stroke-dashoffset: 0; stroke: #b0b0b0; stroke-width: 0.5"/>
     </g>
     <g id="line2d_70">
      <g>
       <use xlink:href="#m8c74a9b091" x="103.5" y="149.319862" style="stroke: #000000; stroke-width: 0.8"/>
      </g>
     </g>
     <g id="text_8">
      <!-- $\mathdefault{10^{-2}}$ -->
      <g transform="translate(44.8 157.678143) scale(0.22 -0.22)">
       <use xlink:href="#DejaVuSans-31" transform="translate(0 0.765625)"/>
       <use xlink:href="#DejaVuSans-30" transform="translate(63.623047 0.765625)"/>
       <use xlink:href="#DejaVuSans-2212" transform="translate(128.203125 39.046875) scale(0.7)"/>
       <use xlink:href="#DejaVuSans-32" transform="translate(186.855469 39.046875) scale(0.7)"/>
      </g>
     </g>
    </g>
    <g id="text_9">
     <!-- Max abs error (mol/m$^3$) -->
     <g transform="translate(35.600781 434.125) rotate(-90) scale(0.25 -0.25)">
      <defs>
       <path id="DejaVuSans-4d" d="M 628 4666 
L 1569 4666 
L 2759 1491 
L 3956 4666 
L 4897 4666 
L 4897 0 
L 4281 0 
L 4281 4097 
L 3078 897 
L 2444 897 
L 1241 4097 
L 1241 0 
L 628 0 
L 628 4666 
z
" transform="scale(0.015625)"/>
       <path id="DejaVuSans-78" d="M 3513 3500 
L 2247 1797 
L 3578 0 
L 2900 0 
L 1881 1375 
L 863 0 
L 184 0 
L 1544 1831 
L 300 3500 
L 978 3500 
L 1906 2253 
L 2834 3500 
L 3513 3500 
z
" transform="scale(0.015625)"/>
       <path id="DejaVuSans-62" d="M 3116 1747 
Q 3116 2381 2855 2742 
Q 2594 3103 2138 3103 
Q 1681 3103 1420 2742 
Q 1159 2381 1159 1747 
Q 1159 1113 1420 752 
Q 1681 391 2138 391 
Q 2594 391 2855 752 
Q 3116 1113 3116 1747 
z
M 1159 2969 
Q 1341 3281 1617 3432 
Q 1894 3584 2278 3584 
Q 2916 3584 3314 3078 
Q 3713 2572 3713 1747 
Q 3713 922 3314 415 
Q 2916 -91 2278 -91 
Q 1894 -91 1617 61 
Q 1341 213 1159 525 
L 1159 0 
L 581 0 
L 581 4863 
L 1159 4863 
L 1159 2969 
z
" transform="scale(0.015625)"/>
       <path id="DejaVuSans-72" d="M 2631 2963 
Q 2534 3019 2420 3045 
Q 2306 3072 2169 3072 
Q 1681 3072 1420 2755 
Q 1159 2438 1159 1844 
L 1159 0 
L 581 0 
L 581 3500 
L 1159 3500 
L 1159 2956 
Q 1341 3275 1631 3429 
Q 1922 3584 2338 3584 
Q 2397 3584 2469 3576 
Q 2541 3569 2628 3553 
L 2631 2963 
z
" transform="scale(0.015625)"/>
       <path id="DejaVuSans-2f" d="M 1625 4666 
L 2156 4666 
L 531 -594 
L 0 -594 
L 1625 4666 
z
" transform="scale(0.015625)"/>
       <path id="DejaVuSans-33" d="M 2597 2516 
Q 3050 2419 3304 2112 
Q 3559 1806 3559 1356 
Q 3559 666 3084 287 
Q 2609 -91 1734 -91 
Q 1441 -91 1130 -33 
Q 819 25 488 141 
L 488 750 
Q 750 597 1062 519 
Q 1375 441 1716 441 
Q 2309 441 2620 675 
Q 2931 909 2931 1356 
Q 2931 1769 2642 2001 
Q 2353 2234 1838 2234 
L 1294 2234 
L 1294 2753 
L 1863 2753 
Q 2328 2753 2575 2939 
Q 2822 3125 2822 3475 
Q 2822 3834 2567 4026 
Q 2313 4219 1838 4219 
Q 1578 4219 1281 4162 
Q 984 4106 628 3988 
L 628 4550 
Q 988 4650 1302 4700 
Q 1616 4750 1894 4750 
Q 2613 4750 3031 4423 
Q 3450 4097 3450 3541 
Q 3450 3153 3228 2886 
Q 3006 2619 2597 2516 
z
" transform="scale(0.015625)"/>
      </defs>
      <use xlink:href="#DejaVuSans-4d" transform="translate(0 0.765625)"/>
      <use xlink:href="#DejaVuSans-61" transform="translate(86.279297 0.765625)"/>
      <use xlink:href="#DejaVuSans-78" transform="translate(147.558594 0.765625)"/>
      <use xlink:href="#DejaVuSans-20" transform="translate(206.738281 0.765625)"/>
      <use xlink:href="#DejaVuSans-61" transform="translate(238.525391 0.765625)"/>
      <use xlink:href="#DejaVuSans-62" transform="translate(299.804688 0.765625)"/>
      <use xlink:href="#DejaVuSans-73" transform="translate(363.28125 0.765625)"/>
      <use xlink:href="#DejaVuSans-20" transform="translate(415.380859 0.765625)"/>
      <use xlink:href="#DejaVuSans-65" transform="translate(447.167969 0.765625)"/>
      <use xlink:href="#DejaVuSans-72" transform="translate(508.691406 0.765625)"/>
      <use xlink:href="#DejaVuSans-72" transform="translate(549.804688 0.765625)"/>
      <use xlink:href="#DejaVuSans-6f" transform="translate(590.917969 0.765625)"/>
      <use xlink:href="#DejaVuSans-72" transform="translate(652.099609 0.765625)"/>
      <use xlink:href="#DejaVuSans-20" transform="translate(693.212891 0.765625)"/>
      <use xlink:href="#DejaVuSans-28" transform="translate(725 0.765625)"/>
      <use xlink:href="#DejaVuSans-6d" transform="translate(764.013672 0.765625)"/>
      <use xlink:href="#DejaVuSans-6f" transform="translate(861.425781 0.765625)"/>
      <use xlink:href="#DejaVuSans-6c" transform="translate(922.607422 0.765625)"/>
      <use xlink:href="#DejaVuSans-2f" transform="translate(950.390625 0.765625)"/>
      <use xlink:href="#DejaVuSans-6d" transform="translate(984.082031 0.765625)"/>
      <use xlink:href="#DejaVuSans-33" transform="translate(1082.451172 39.046875) scale(0.7)"/>
      <use xlink:href="#DejaVuSans-29" transform="translate(1129.72168 0.765625)"/>
     </g>
    </g>
   </g>
   <g id="line2d_71">
    <path d="M 132.668182 104.72728 
L 252.609854 139.809275 
L 270.860657 208.742191 
L 362.597812 298.870148 
L 475.060048 402.594478 
L 582.287315 457.836564 
" clip-path="url(#p5cf3c4ee06)" style="fill: none; stroke-dasharray: 7.4,3.2; stroke-dashoffset: 0; stroke: #3f007d; stroke-width: 2"/>
    <defs>
     <path id="md7cff0892e" d="M 0 3 
C 0.795609 3 1.55874 2.683901 2.12132 2.12132 
C 2.683901 1.55874 3 0.795609 3 0 
C 3 -0.795609 2.683901 -1.55874 2.12132 -2.12132 
C 1.55874 -2.683901 0.795609 -3 0 -3 
C -0.795609 -3 -1.55874 -2.683901 -2.12132 -2.12132 
C -2.683901 -1.55874 -3 -0.795609 -3 0 
C -3 0.795609 -2.683901 1.55874 -2.12132 2.12132 
C -1.55874 2.683901 -0.795609 3 0 3 
z
" style="stroke: #3f007d"/>
    </defs>
    <g clip-path="url(#p5cf3c4ee06)">
     <use xlink:href="#md7cff0892e" x="132.668182" y="104.72728" style="fill: #3f007d; stroke: #3f007d"/>
     <use xlink:href="#md7cff0892e" x="252.609854" y="139.809275" style="fill: #3f007d; stroke: #3f007d"/>
     <use xlink:href="#md7cff0892e" x="270.860657" y="208.742191" style="fill: #3f007d; stroke: #3f007d"/>
     <use xlink:href="#md7cff0892e" x="362.597812" y="298.870148" style="fill: #3f007d; stroke: #3f007d"/>
     <use xlink:href="#md7cff0892e" x="475.060048" y="402.594478" style="fill: #3f007d; stroke: #3f007d"/>
     <use xlink:href="#md7cff0892e" x="582.287315" y="457.836564" style="fill: #3f007d; stroke: #3f007d"/>
    </g>
   </g>
   <g id="line2d_72">
    <path d="M 150.384666 115.649336 
L 219.128847 168.081837 
L 295.523493 265.108608 
L 381.934561 382.332708 
L 486.225993 453.559484 
L 621.563061 456.588949 
" clip-path="url(#p5cf3c4ee06)" style="fill: none; stroke-dasharray: 7.4,3.2; stroke-dashoffset: 0; stroke: #53258e; stroke-width: 2"/>
    <defs>
     <path id="m4833666f10" d="M 0 3 
C 0.795609 3 1.55874 2.683901 2.12132 2.12132 
C 2.683901 1.55874 3 0.795609 3 0 
C 3 -0.795609 2.683901 -1.55874 2.12132 -2.12132 
C 1.55874 -2.683901 0.795609 -3 0 -3 
C -0.795609 -3 -1.55874 -2.683901 -2.12132 -2.12132 
C -2.683901 -1.55874 -3 -0.795609 -3 0 
C -3 0.795609 -2.683901 1.55874 -2.12132 2.12132 
C -1.55874 2.683901 -0.795609 3 0 3 
z
" style="stroke: #53258e"/>
    </defs>
    <g clip-path="url(#p5cf3c4ee06)">
     <use xlink:href="#m4833666f10" x="150.384666" y="115.649336" style="fill: #53258e; stroke: #53258e"/>
     <use xlink:href="#m4833666f10" x="219.128847" y="168.081837" style="fill: #53258e; stroke: #53258e"/>
     <use xlink:href="#m4833666f10" x="295.523493" y="265.108608" style="fill: #53258e; stroke: #53258e"/>
     <use xlink:href="#m4833666f10" x="381.934561" y="382.332708" style="fill: #53258e; stroke: #53258e"/>
     <use xlink:href="#m4833666f10" x="486.225993" y="453.559484" style="fill: #53258e; stroke: #53258e"/>
     <use xlink:href="#m4833666f10" x="621.563061" y="456.588949" style="fill: #53258e; stroke: #53258e"/>
    </g>
   </g>
   <g id="line2d_73">
    <path d="M 159.48962 128.587081 
L 259.679756 200.111738 
L 319.200366 331.320166 
L 402.705613 431.391676 
L 514.373736 454.155943 
L 649.658737 451.572435 
" clip-path="url(#p5cf3c4ee06)" style="fill: none; stroke-dasharray: 7.4,3.2; stroke-dashoffset: 0; stroke: #674ca1; stroke-width: 2"/>
    <defs>
     <path id="m6467288be1" d="M 0 3 
C 0.795609 3 1.55874 2.683901 2.12132 2.12132 
C 2.683901 1.55874 3 0.795609 3 0 
C 3 -0.795609 2.683901 -1.55874 2.12132 -2.12132 
C 1.55874 -2.683901 0.795609 -3 0 -3 
C -0.795609 -3 -1.55874 -2.683901 -2.12132 -2.12132 
C -2.683901 -1.55874 -3 -0.795609 -3 0 
C -3 0.795609 -2.683901 1.55874 -2.12132 2.12132 
C -1.55874 2.683901 -0.795609 3 0 3 
z
" style="stroke: #674ca1"/>
    </defs>
    <g clip-path="url(#p5cf3c4ee06)">
     <use xlink:href="#m6467288be1" x="159.48962" y="128.587081" style="fill: #674ca1; stroke: #674ca1"/>
     <use xlink:href="#m6467288be1" x="259.679756" y="200.111738" style="fill: #674ca1; stroke: #674ca1"/>
     <use xlink:href="#m6467288be1" x="319.200366" y="331.320166" style="fill: #674ca1; stroke: #674ca1"/>
     <use xlink:href="#m6467288be1" x="402.705613" y="431.391676" style="fill: #674ca1; stroke: #674ca1"/>
     <use xlink:href="#m6467288be1" x="514.373736" y="454.155943" style="fill: #674ca1; stroke: #674ca1"/>
     <use xlink:href="#m6467288be1" x="649.658737" y="451.572435" style="fill: #674ca1; stroke: #674ca1"/>
    </g>
   </g>
   <g id="line2d_74">
    <path d="M 361.389225 104.727273 
L 409.287323 139.809254 
L 469.153735 208.742147 
L 534.617714 298.869944 
L 604.649932 402.70455 
L 662.548216 471.272727 
" clip-path="url(#p5cf3c4ee06)" style="fill: none; stroke: #67000d; stroke-width: 2; stroke-linecap: square"/>
    <defs>
     <path id="m219542bc6e" d="M 0 -6 
L -1.347084 -1.854102 
L -5.706339 -1.854102 
L -2.179628 0.708204 
L -3.526712 4.854102 
L -0 2.291796 
L 3.526712 4.854102 
L 2.179628 0.708204 
L 5.706339 -1.854102 
L 1.347084 -1.854102 
z
" style="stroke: #67000d; stroke-linejoin: bevel"/>
    </defs>
    <g clip-path="url(#p5cf3c4ee06)">
     <use xlink:href="#m219542bc6e" x="361.389225" y="104.727273" style="fill: #67000d; stroke: #67000d; stroke-linejoin: bevel"/>
     <use xlink:href="#m219542bc6e" x="409.287323" y="139.809254" style="fill: #67000d; stroke: #67000d; stroke-linejoin: bevel"/>
     <use xlink:href="#m219542bc6e" x="469.153735" y="208.742147" style="fill: #67000d; stroke: #67000d; stroke-linejoin: bevel"/>
     <use xlink:href="#m219542bc6e" x="534.617714" y="298.869944" style="fill: #67000d; stroke: #67000d; stroke-linejoin: bevel"/>
     <use xlink:href="#m219542bc6e" x="604.649932" y="402.70455" style="fill: #67000d; stroke: #67000d; stroke-linejoin: bevel"/>
     <use xlink:href="#m219542bc6e" x="662.548216" y="471.272727" style="fill: #67000d; stroke: #67000d; stroke-linejoin: bevel"/>
    </g>
   </g>
   <g id="line2d_75">
    <path d="M 369.809685 115.649313 
L 431.134247 168.081741 
L 498.850464 265.115808 
L 564.447357 380.412172 
L 621.457724 453.403286 
L 703.836007 467.124428 
" clip-path="url(#p5cf3c4ee06)" style="fill: none; stroke: #af1117; stroke-width: 2; stroke-linecap: square"/>
    <defs>
     <path id="m0a1db7f2e2" d="M 0 -6 
L -1.347084 -1.854102 
L -5.706339 -1.854102 
L -2.179628 0.708204 
L -3.526712 4.854102 
L -0 2.291796 
L 3.526712 4.854102 
L 2.179628 0.708204 
L 5.706339 -1.854102 
L 1.347084 -1.854102 
z
" style="stroke: #af1117; stroke-linejoin: bevel"/>
    </defs>
    <g clip-path="url(#p5cf3c4ee06)">
     <use xlink:href="#m0a1db7f2e2" x="369.809685" y="115.649313" style="fill: #af1117; stroke: #af1117; stroke-linejoin: bevel"/>
     <use xlink:href="#m0a1db7f2e2" x="431.134247" y="168.081741" style="fill: #af1117; stroke: #af1117; stroke-linejoin: bevel"/>
     <use xlink:href="#m0a1db7f2e2" x="498.850464" y="265.115808" style="fill: #af1117; stroke: #af1117; stroke-linejoin: bevel"/>
     <use xlink:href="#m0a1db7f2e2" x="564.447357" y="380.412172" style="fill: #af1117; stroke: #af1117; stroke-linejoin: bevel"/>
     <use xlink:href="#m0a1db7f2e2" x="621.457724" y="453.403286" style="fill: #af1117; stroke: #af1117; stroke-linejoin: bevel"/>
     <use xlink:href="#m0a1db7f2e2" x="703.836007" y="467.124428" style="fill: #af1117; stroke: #af1117; stroke-linejoin: bevel"/>
    </g>
   </g>
   <g id="line2d_76">
    <path d="M 424.04402 128.587061 
L 478.086517 200.111644 
L 541.790858 331.294252 
L 601.823464 435.806431 
L 661.823727 457.341418 
L 716.031818 466.644127 
" clip-path="url(#p5cf3c4ee06)" style="fill: none; stroke: #dd2a25; stroke-width: 2; stroke-linecap: square"/>
    <defs>
     <path id="mc2a9cb6f29" d="M 0 -6 
L -1.347084 -1.854102 
L -5.706339 -1.854102 
L -2.179628 0.708204 
L -3.526712 4.854102 
L -0 2.291796 
L 3.526712 4.854102 
L 2.179628 0.708204 
L 5.706339 -1.854102 
L 1.347084 -1.854102 
z
" style="stroke: #dd2a25; stroke-linejoin: bevel"/>
    </defs>
    <g clip-path="url(#p5cf3c4ee06)">
     <use xlink:href="#mc2a9cb6f29" x="424.04402" y="128.587061" style="fill: #dd2a25; stroke: #dd2a25; stroke-linejoin: bevel"/>
     <use xlink:href="#mc2a9cb6f29" x="478.086517" y="200.111644" style="fill: #dd2a25; stroke: #dd2a25; stroke-linejoin: bevel"/>
     <use xlink:href="#mc2a9cb6f29" x="541.790858" y="331.294252" style="fill: #dd2a25; stroke: #dd2a25; stroke-linejoin: bevel"/>
     <use xlink:href="#mc2a9cb6f29" x="601.823464" y="435.806431" style="fill: #dd2a25; stroke: #dd2a25; stroke-linejoin: bevel"/>
     <use xlink:href="#mc2a9cb6f29" x="661.823727" y="457.341418" style="fill: #dd2a25; stroke: #dd2a25; stroke-linejoin: bevel"/>
     <use xlink:href="#mc2a9cb6f29" x="716.031818" y="466.644127" style="fill: #dd2a25; stroke: #dd2a25; stroke-linejoin: bevel"/>
    </g>
   </g>
   <g id="patch_3">
    <path d="M 103.5 489.6 
L 103.5 86.4 
" style="fill: none; stroke: #000000; stroke-width: 0.8; stroke-linejoin: miter; stroke-linecap: square"/>
   </g>
   <g id="patch_4">
    <path d="M 745.2 489.6 
L 745.2 86.4 
" style="fill: none; stroke: #000000; stroke-width: 0.8; stroke-linejoin: miter; stroke-linecap: square"/>
   </g>
   <g id="patch_5">
    <path d="M 103.5 489.6 
L 745.2 489.6 
" style="fill: none; stroke: #000000; stroke-width: 0.8; stroke-linejoin: miter; stroke-linecap: square"/>
   </g>
   <g id="patch_6">
    <path d="M 103.5 86.4 
L 745.2 86.4 
" style="fill: none; stroke: #000000; stroke-width: 0.8; stroke-linejoin: miter; stroke-linecap: square"/>
   </g>
   <g id="legend_1">
    <g id="patch_7">
     <path d="M 164.65 669.28 
L 684.05 669.28 
Q 688.05 669.28 688.05 665.28 
L 688.05 564.08 
Q 688.05 560.08 684.05 560.08 
L 164.65 560.08 
Q 160.65 560.08 160.65 564.08 
L 160.65 665.28 
Q 160.65 669.28 164.65 669.28 
z
" style="fill: #ffffff; stroke: #cccccc; stroke-linejoin: miter"/>
    </g>
    <g id="line2d_77">
     <path d="M 168.65 579.68 
L 188.65 579.68 
L 208.65 579.68 
" style="fill: none; stroke-dasharray: 7.4,3.2; stroke-dashoffset: 0; stroke: #3f007d; stroke-width: 2"/>
     <g>
      <use xlink:href="#md7cff0892e" x="188.65" y="579.68" style="fill: #3f007d; stroke: #3f007d"/>
     </g>
    </g>
    <g id="text_10">
     <!-- CADET-Julia, $N_d^b$=4 -->
     <g transform="translate(224.65 586.68) scale(0.2 -0.2)">
      <defs>
       <path id="DejaVuSans-43" d="M 4122 4306 
L 4122 3641 
Q 3803 3938 3442 4084 
Q 3081 4231 2675 4231 
Q 1875 4231 1450 3742 
Q 1025 3253 1025 2328 
Q 1025 1406 1450 917 
Q 1875 428 2675 428 
Q 3081 428 3442 575 
Q 3803 722 4122 1019 
L 4122 359 
Q 3791 134 3420 21 
Q 3050 -91 2638 -91 
Q 1578 -91 968 557 
Q 359 1206 359 2328 
Q 359 3453 968 4101 
Q 1578 4750 2638 4750 
Q 3056 4750 3426 4639 
Q 3797 4528 4122 4306 
z
" transform="scale(0.015625)"/>
       <path id="DejaVuSans-41" d="M 2188 4044 
L 1331 1722 
L 3047 1722 
L 2188 4044 
z
M 1831 4666 
L 2547 4666 
L 4325 0 
L 3669 0 
L 3244 1197 
L 1141 1197 
L 716 0 
L 50 0 
L 1831 4666 
z
" transform="scale(0.015625)"/>
       <path id="DejaVuSans-44" d="M 1259 4147 
L 1259 519 
L 2022 519 
Q 2988 519 3436 956 
Q 3884 1394 3884 2338 
Q 3884 3275 3436 3711 
Q 2988 4147 2022 4147 
L 1259 4147 
z
M 628 4666 
L 1925 4666 
Q 3281 4666 3915 4102 
Q 4550 3538 4550 2338 
Q 4550 1131 3912 565 
Q 3275 0 1925 0 
L 628 0 
L 628 4666 
z
" transform="scale(0.015625)"/>
       <path id="DejaVuSans-45" d="M 628 4666 
L 3578 4666 
L 3578 4134 
L 1259 4134 
L 1259 2753 
L 3481 2753 
L 3481 2222 
L 1259 2222 
L 1259 531 
L 3634 531 
L 3634 0 
L 628 0 
L 628 4666 
z
" transform="scale(0.015625)"/>
       <path id="DejaVuSans-54" d="M -19 4666 
L 3928 4666 
L 3928 4134 
L 2272 4134 
L 2272 0 
L 1638 0 
L 1638 4134 
L -19 4134 
L -19 4666 
z
" transform="scale(0.015625)"/>
       <path id="DejaVuSans-2d" d="M 313 2009 
L 1997 2009 
L 1997 1497 
L 313 1497 
L 313 2009 
z
" transform="scale(0.015625)"/>
       <path id="DejaVuSans-4a" d="M 628 4666 
L 1259 4666 
L 1259 325 
Q 1259 -519 939 -900 
Q 619 -1281 -91 -1281 
L -331 -1281 
L -331 -750 
L -134 -750 
Q 284 -750 456 -515 
Q 628 -281 628 325 
L 628 4666 
z
" transform="scale(0.015625)"/>
       <path id="DejaVuSans-2c" d="M 750 794 
L 1409 794 
L 1409 256 
L 897 -744 
L 494 -744 
L 750 256 
L 750 794 
z
" transform="scale(0.015625)"/>
       <path id="DejaVuSans-Oblique-4e" d="M 1081 4666 
L 1931 4666 
L 3219 666 
L 4000 4666 
L 4616 4666 
L 3706 0 
L 2853 0 
L 1569 4025 
L 788 0 
L 172 0 
L 1081 4666 
z
" transform="scale(0.015625)"/>
       <path id="DejaVuSans-Oblique-62" d="M 3169 2138 
Q 3169 2591 2961 2847 
Q 2753 3103 2388 3103 
Q 2122 3103 1889 2973 
Q 1656 2844 1484 2597 
Q 1303 2338 1198 1995 
Q 1094 1653 1094 1313 
Q 1094 881 1298 636 
Q 1503 391 1863 391 
Q 2134 391 2365 517 
Q 2597 644 2772 891 
Q 2950 1147 3059 1487 
Q 3169 1828 3169 2138 
z
M 1381 2969 
Q 1594 3256 1914 3420 
Q 2234 3584 2584 3584 
Q 3122 3584 3439 3221 
Q 3756 2859 3756 2241 
Q 3756 1734 3570 1259 
Q 3384 784 3041 416 
Q 2816 172 2522 40 
Q 2228 -91 1906 -91 
Q 1566 -91 1316 65 
Q 1066 222 909 531 
L 806 0 
L 231 0 
L 1178 4863 
L 1753 4863 
L 1381 2969 
z
" transform="scale(0.015625)"/>
       <path id="DejaVuSans-Oblique-64" d="M 2675 525 
Q 2444 222 2128 65 
Q 1813 -91 1428 -91 
Q 903 -91 598 267 
Q 294 625 294 1247 
Q 294 1766 478 2236 
Q 663 2706 1013 3078 
Q 1244 3325 1534 3454 
Q 1825 3584 2144 3584 
Q 2481 3584 2739 3421 
Q 2997 3259 3138 2956 
L 3513 4863 
L 4091 4863 
L 3144 0 
L 2566 0 
L 2675 525 
z
M 891 1350 
Q 891 897 1095 644 
Q 1300 391 1663 391 
Q 1931 391 2161 520 
Q 2391 650 2566 903 
Q 2750 1166 2856 1509 
Q 2963 1853 2963 2188 
Q 2963 2622 2758 2865 
Q 2553 3109 2194 3109 
Q 1922 3109 1687 2981 
Q 1453 2853 1288 2613 
Q 1106 2353 998 2009 
Q 891 1666 891 1350 
z
" transform="scale(0.015625)"/>
       <path id="DejaVuSans-3d" d="M 678 2906 
L 4684 2906 
L 4684 2381 
L 678 2381 
L 678 2906 
z
M 678 1631 
L 4684 1631 
L 4684 1100 
L 678 1100 
L 678 1631 
z
" transform="scale(0.015625)"/>
      </defs>
      <use xlink:href="#DejaVuSans-43" transform="translate(0 0.470313)"/>
      <use xlink:href="#DejaVuSans-41" transform="translate(69.824219 0.470313)"/>
      <use xlink:href="#DejaVuSans-44" transform="translate(138.232422 0.470313)"/>
      <use xlink:href="#DejaVuSans-45" transform="translate(215.234375 0.470313)"/>
      <use xlink:href="#DejaVuSans-54" transform="translate(278.417969 0.470313)"/>
      <use xlink:href="#DejaVuSans-2d" transform="translate(339.501953 0.470313)"/>
      <use xlink:href="#DejaVuSans-4a" transform="translate(375.585938 0.470313)"/>
      <use xlink:href="#DejaVuSans-75" transform="translate(405.078125 0.470313)"/>
      <use xlink:href="#DejaVuSans-6c" transform="translate(468.457031 0.470313)"/>
      <use xlink:href="#DejaVuSans-69" transform="translate(496.240234 0.470313)"/>
      <use xlink:href="#DejaVuSans-61" transform="translate(524.023438 0.470313)"/>
      <use xlink:href="#DejaVuSans-2c" transform="translate(585.302734 0.470313)"/>
      <use xlink:href="#DejaVuSans-20" transform="translate(617.089844 0.470313)"/>
      <use xlink:href="#DejaVuSans-Oblique-4e" transform="translate(648.876953 0.470313)"/>
      <use xlink:href="#DejaVuSans-Oblique-62" transform="translate(730.698411 39.810938) scale(0.7)"/>
      <use xlink:href="#DejaVuSans-Oblique-64" transform="translate(723.681641 -26.873437) scale(0.7)"/>
      <use xlink:href="#DejaVuSans-3d" transform="translate(777.86638 0.470313)"/>
      <use xlink:href="#DejaVuSans-34" transform="translate(861.655443 0.470313)"/>
     </g>
    </g>
    <g id="line2d_78">
     <path d="M 168.65 614.08 
L 188.65 614.08 
L 208.65 614.08 
" style="fill: none; stroke-dasharray: 7.4,3.2; stroke-dashoffset: 0; stroke: #53258e; stroke-width: 2"/>
     <g>
      <use xlink:href="#m4833666f10" x="188.65" y="614.08" style="fill: #53258e; stroke: #53258e"/>
     </g>
    </g>
    <g id="text_11">
     <!-- CADET-Julia, $N_d^b$=5 -->
     <g transform="translate(224.65 621.08) scale(0.2 -0.2)">
      <defs>
       <path id="DejaVuSans-35" d="M 691 4666 
L 3169 4666 
L 3169 4134 
L 1269 4134 
L 1269 2991 
Q 1406 3038 1543 3061 
Q 1681 3084 1819 3084 
Q 2600 3084 3056 2656 
Q 3513 2228 3513 1497 
Q 3513 744 3044 326 
Q 2575 -91 1722 -91 
Q 1428 -91 1123 -41 
Q 819 9 494 109 
L 494 744 
Q 775 591 1075 516 
Q 1375 441 1709 441 
Q 2250 441 2565 725 
Q 2881 1009 2881 1497 
Q 2881 1984 2565 2268 
Q 2250 2553 1709 2553 
Q 1456 2553 1204 2497 
Q 953 2441 691 2322 
L 691 4666 
z
" transform="scale(0.015625)"/>
      </defs>
      <use xlink:href="#DejaVuSans-43" transform="translate(0 0.470313)"/>
      <use xlink:href="#DejaVuSans-41" transform="translate(69.824219 0.470313)"/>
      <use xlink:href="#DejaVuSans-44" transform="translate(138.232422 0.470313)"/>
      <use xlink:href="#DejaVuSans-45" transform="translate(215.234375 0.470313)"/>
      <use xlink:href="#DejaVuSans-54" transform="translate(278.417969 0.470313)"/>
      <use xlink:href="#DejaVuSans-2d" transform="translate(339.501953 0.470313)"/>
      <use xlink:href="#DejaVuSans-4a" transform="translate(375.585938 0.470313)"/>
      <use xlink:href="#DejaVuSans-75" transform="translate(405.078125 0.470313)"/>
      <use xlink:href="#DejaVuSans-6c" transform="translate(468.457031 0.470313)"/>
      <use xlink:href="#DejaVuSans-69" transform="translate(496.240234 0.470313)"/>
      <use xlink:href="#DejaVuSans-61" transform="translate(524.023438 0.470313)"/>
      <use xlink:href="#DejaVuSans-2c" transform="translate(585.302734 0.470313)"/>
      <use xlink:href="#DejaVuSans-20" transform="translate(617.089844 0.470313)"/>
      <use xlink:href="#DejaVuSans-Oblique-4e" transform="translate(648.876953 0.470313)"/>
      <use xlink:href="#DejaVuSans-Oblique-62" transform="translate(730.698411 39.810938) scale(0.7)"/>
      <use xlink:href="#DejaVuSans-Oblique-64" transform="translate(723.681641 -26.873437) scale(0.7)"/>
      <use xlink:href="#DejaVuSans-3d" transform="translate(777.86638 0.470313)"/>
      <use xlink:href="#DejaVuSans-35" transform="translate(861.655443 0.470313)"/>
     </g>
    </g>
    <g id="line2d_79">
     <path d="M 168.65 648.48 
L 188.65 648.48 
L 208.65 648.48 
" style="fill: none; stroke-dasharray: 7.4,3.2; stroke-dashoffset: 0; stroke: #674ca1; stroke-width: 2"/>
     <g>
      <use xlink:href="#m6467288be1" x="188.65" y="648.48" style="fill: #674ca1; stroke: #674ca1"/>
     </g>
    </g>
    <g id="text_12">
     <!-- CADET-Julia, $N_d^b$=6 -->
     <g transform="translate(224.65 655.48) scale(0.2 -0.2)">
      <use xlink:href="#DejaVuSans-43" transform="translate(0 0.470313)"/>
      <use xlink:href="#DejaVuSans-41" transform="translate(69.824219 0.470313)"/>
      <use xlink:href="#DejaVuSans-44" transform="translate(138.232422 0.470313)"/>
      <use xlink:href="#DejaVuSans-45" transform="translate(215.234375 0.470313)"/>
      <use xlink:href="#DejaVuSans-54" transform="translate(278.417969 0.470313)"/>
      <use xlink:href="#DejaVuSans-2d" transform="translate(339.501953 0.470313)"/>
      <use xlink:href="#DejaVuSans-4a" transform="translate(375.585938 0.470313)"/>
      <use xlink:href="#DejaVuSans-75" transform="translate(405.078125 0.470313)"/>
      <use xlink:href="#DejaVuSans-6c" transform="translate(468.457031 0.470313)"/>
      <use xlink:href="#DejaVuSans-69" transform="translate(496.240234 0.470313)"/>
      <use xlink:href="#DejaVuSans-61" transform="translate(524.023438 0.470313)"/>
      <use xlink:href="#DejaVuSans-2c" transform="translate(585.302734 0.470313)"/>
      <use xlink:href="#DejaVuSans-20" transform="translate(617.089844 0.470313)"/>
      <use xlink:href="#DejaVuSans-Oblique-4e" transform="translate(648.876953 0.470313)"/>
      <use xlink:href="#DejaVuSans-Oblique-62" transform="translate(730.698411 39.810938) scale(0.7)"/>
      <use xlink:href="#DejaVuSans-Oblique-64" transform="translate(723.681641 -26.873437) scale(0.7)"/>
      <use xlink:href="#DejaVuSans-3d" transform="translate(777.86638 0.470313)"/>
      <use xlink:href="#DejaVuSans-36" transform="translate(861.655443 0.470313)"/>
     </g>
    </g>
    <g id="line2d_80">
     <path d="M 449.85 579.68 
L 469.85 579.68 
L 489.85 579.68 
" style="fill: none; stroke: #67000d; stroke-width: 2; stroke-linecap: square"/>
     <g>
      <use xlink:href="#m219542bc6e" x="469.85" y="579.68" style="fill: #67000d; stroke: #67000d; stroke-linejoin: bevel"/>
     </g>
    </g>
    <g id="text_13">
     <!-- CADET-DG, $N_d^b$=4 -->
     <g transform="translate(505.85 586.68) scale(0.2 -0.2)">
      <defs>
       <path id="DejaVuSans-47" d="M 3809 666 
L 3809 1919 
L 2778 1919 
L 2778 2438 
L 4434 2438 
L 4434 434 
Q 4069 175 3628 42 
Q 3188 -91 2688 -91 
Q 1594 -91 976 548 
Q 359 1188 359 2328 
Q 359 3472 976 4111 
Q 1594 4750 2688 4750 
Q 3144 4750 3555 4637 
Q 3966 4525 4313 4306 
L 4313 3634 
Q 3963 3931 3569 4081 
Q 3175 4231 2741 4231 
Q 1884 4231 1454 3753 
Q 1025 3275 1025 2328 
Q 1025 1384 1454 906 
Q 1884 428 2741 428 
Q 3075 428 3337 486 
Q 3600 544 3809 666 
z
" transform="scale(0.015625)"/>
      </defs>
      <use xlink:href="#DejaVuSans-43" transform="translate(0 0.470313)"/>
      <use xlink:href="#DejaVuSans-41" transform="translate(69.824219 0.470313)"/>
      <use xlink:href="#DejaVuSans-44" transform="translate(138.232422 0.470313)"/>
      <use xlink:href="#DejaVuSans-45" transform="translate(215.234375 0.470313)"/>
      <use xlink:href="#DejaVuSans-54" transform="translate(278.417969 0.470313)"/>
      <use xlink:href="#DejaVuSans-2d" transform="translate(339.501953 0.470313)"/>
      <use xlink:href="#DejaVuSans-44" transform="translate(375.585938 0.470313)"/>
      <use xlink:href="#DejaVuSans-47" transform="translate(452.587891 0.470313)"/>
      <use xlink:href="#DejaVuSans-2c" transform="translate(530.078125 0.470313)"/>
      <use xlink:href="#DejaVuSans-20" transform="translate(561.865234 0.470313)"/>
      <use xlink:href="#DejaVuSans-Oblique-4e" transform="translate(593.652344 0.470313)"/>
      <use xlink:href="#DejaVuSans-Oblique-62" transform="translate(675.473802 39.810938) scale(0.7)"/>
      <use xlink:href="#DejaVuSans-Oblique-64" transform="translate(668.457031 -26.873437) scale(0.7)"/>
      <use xlink:href="#DejaVuSans-3d" transform="translate(722.641771 0.470313)"/>
      <use xlink:href="#DejaVuSans-34" transform="translate(806.430833 0.470313)"/>
     </g>
    </g>
    <g id="line2d_81">
     <path d="M 449.85 614.08 
L 469.85 614.08 
L 489.85 614.08 
" style="fill: none; stroke: #af1117; stroke-width: 2; stroke-linecap: square"/>
     <g>
      <use xlink:href="#m0a1db7f2e2" x="469.85" y="614.08" style="fill: #af1117; stroke: #af1117; stroke-linejoin: bevel"/>
     </g>
    </g>
    <g id="text_14">
     <!-- CADET-DG, $N_d^b$=5 -->
     <g transform="translate(505.85 621.08) scale(0.2 -0.2)">
      <use xlink:href="#DejaVuSans-43" transform="translate(0 0.470313)"/>
      <use xlink:href="#DejaVuSans-41" transform="translate(69.824219 0.470313)"/>
      <use xlink:href="#DejaVuSans-44" transform="translate(138.232422 0.470313)"/>
      <use xlink:href="#DejaVuSans-45" transform="translate(215.234375 0.470313)"/>
      <use xlink:href="#DejaVuSans-54" transform="translate(278.417969 0.470313)"/>
      <use xlink:href="#DejaVuSans-2d" transform="translate(339.501953 0.470313)"/>
      <use xlink:href="#DejaVuSans-44" transform="translate(375.585938 0.470313)"/>
      <use xlink:href="#DejaVuSans-47" transform="translate(452.587891 0.470313)"/>
      <use xlink:href="#DejaVuSans-2c" transform="translate(530.078125 0.470313)"/>
      <use xlink:href="#DejaVuSans-20" transform="translate(561.865234 0.470313)"/>
      <use xlink:href="#DejaVuSans-Oblique-4e" transform="translate(593.652344 0.470313)"/>
      <use xlink:href="#DejaVuSans-Oblique-62" transform="translate(675.473802 39.810938) scale(0.7)"/>
      <use xlink:href="#DejaVuSans-Oblique-64" transform="translate(668.457031 -26.873437) scale(0.7)"/>
      <use xlink:href="#DejaVuSans-3d" transform="translate(722.641771 0.470313)"/>
      <use xlink:href="#DejaVuSans-35" transform="translate(806.430833 0.470313)"/>
     </g>
    </g>
    <g id="line2d_82">
     <path d="M 449.85 648.48 
L 469.85 648.48 
L 489.85 648.48 
" style="fill: none; stroke: #dd2a25; stroke-width: 2; stroke-linecap: square"/>
     <g>
      <use xlink:href="#mc2a9cb6f29" x="469.85" y="648.48" style="fill: #dd2a25; stroke: #dd2a25; stroke-linejoin: bevel"/>
     </g>
    </g>
    <g id="text_15">
     <!-- CADET-DG, $N_d^b$=6 -->
     <g transform="translate(505.85 655.48) scale(0.2 -0.2)">
      <use xlink:href="#DejaVuSans-43" transform="translate(0 0.470313)"/>
      <use xlink:href="#DejaVuSans-41" transform="translate(69.824219 0.470313)"/>
      <use xlink:href="#DejaVuSans-44" transform="translate(138.232422 0.470313)"/>
      <use xlink:href="#DejaVuSans-45" transform="translate(215.234375 0.470313)"/>
      <use xlink:href="#DejaVuSans-54" transform="translate(278.417969 0.470313)"/>
      <use xlink:href="#DejaVuSans-2d" transform="translate(339.501953 0.470313)"/>
      <use xlink:href="#DejaVuSans-44" transform="translate(375.585938 0.470313)"/>
      <use xlink:href="#DejaVuSans-47" transform="translate(452.587891 0.470313)"/>
      <use xlink:href="#DejaVuSans-2c" transform="translate(530.078125 0.470313)"/>
      <use xlink:href="#DejaVuSans-20" transform="translate(561.865234 0.470313)"/>
      <use xlink:href="#DejaVuSans-Oblique-4e" transform="translate(593.652344 0.470313)"/>
      <use xlink:href="#DejaVuSans-Oblique-62" transform="translate(675.473802 39.810938) scale(0.7)"/>
      <use xlink:href="#DejaVuSans-Oblique-64" transform="translate(668.457031 -26.873437) scale(0.7)"/>
      <use xlink:href="#DejaVuSans-3d" transform="translate(722.641771 0.470313)"/>
      <use xlink:href="#DejaVuSans-36" transform="translate(806.430833 0.470313)"/>
     </g>
    </g>
   </g>
  </g>
 </g>
 <defs>
  <clipPath id="p5cf3c4ee06">
   <rect x="103.5" y="86.4" width="641.7" height="403.2"/>
  </clipPath>
 </defs>
</svg>
